<?xml version="1.0" encoding="utf-8" standalone="no"?>
<!DOCTYPE svg PUBLIC "-//W3C//DTD SVG 1.1//EN"
  "http://www.w3.org/Graphics/SVG/1.1/DTD/svg11.dtd">
<svg xmlns:xlink="http://www.w3.org/1999/xlink" width="414.46375pt" height="325.986375pt" viewBox="0 0 414.46375 325.986375" xmlns="http://www.w3.org/2000/svg" version="1.1">
 <metadata>
  <rdf:RDF xmlns:dc="http://purl.org/dc/elements/1.1/" xmlns:cc="http://creativecommons.org/ns#" xmlns:rdf="http://www.w3.org/1999/02/22-rdf-syntax-ns#">
   <cc:Work>
    <dc:type rdf:resource="http://purl.org/dc/dcmitype/StillImage"/>
    <dc:date>2023-09-07T13:40:12.327518</dc:date>
    <dc:format>image/svg+xml</dc:format>
    <dc:creator>
     <cc:Agent>
      <dc:title>Matplotlib v3.7.2, https://matplotlib.org/</dc:title>
     </cc:Agent>
    </dc:creator>
   </cc:Work>
  </rdf:RDF>
 </metadata>
 <defs>
  <style type="text/css">*{stroke-linejoin: round; stroke-linecap: butt}</style>
 </defs>
 <g id="figure_1">
  <g id="patch_1">
   <path d="M 0 325.986375 
L 414.46375 325.986375 
L 414.46375 0 
L 0 0 
z
" style="fill: #ffffff"/>
  </g>
  <g id="axes_1">
   <g id="patch_2">
    <path d="M 50.14375 143.278125 
L 407.26375 143.278125 
L 407.26375 22.318125 
L 50.14375 22.318125 
z
" style="fill: #ffffff"/>
   </g>
   <g id="matplotlib.axis_1">
    <g id="xtick_1">
     <g id="line2d_1">
      <defs>
       <path id="m10e5546df2" d="M 0 0 
L 0 3.5 
" style="stroke: #000000; stroke-width: 0.8"/>
      </defs>
      <g>
       <use xlink:href="#m10e5546df2" x="59.750874" y="143.278125" style="stroke: #000000; stroke-width: 0.8"/>
      </g>
     </g>
    </g>
    <g id="xtick_2">
     <g id="line2d_2">
      <g>
       <use xlink:href="#m10e5546df2" x="105.762006" y="143.278125" style="stroke: #000000; stroke-width: 0.8"/>
      </g>
     </g>
    </g>
    <g id="xtick_3">
     <g id="line2d_3">
      <g>
       <use xlink:href="#m10e5546df2" x="151.773138" y="143.278125" style="stroke: #000000; stroke-width: 0.8"/>
      </g>
     </g>
    </g>
    <g id="xtick_4">
     <g id="line2d_4">
      <g>
       <use xlink:href="#m10e5546df2" x="197.784269" y="143.278125" style="stroke: #000000; stroke-width: 0.8"/>
      </g>
     </g>
    </g>
    <g id="xtick_5">
     <g id="line2d_5">
      <g>
       <use xlink:href="#m10e5546df2" x="243.795401" y="143.278125" style="stroke: #000000; stroke-width: 0.8"/>
      </g>
     </g>
    </g>
    <g id="xtick_6">
     <g id="line2d_6">
      <g>
       <use xlink:href="#m10e5546df2" x="289.806533" y="143.278125" style="stroke: #000000; stroke-width: 0.8"/>
      </g>
     </g>
    </g>
    <g id="xtick_7">
     <g id="line2d_7">
      <g>
       <use xlink:href="#m10e5546df2" x="335.817665" y="143.278125" style="stroke: #000000; stroke-width: 0.8"/>
      </g>
     </g>
    </g>
    <g id="xtick_8">
     <g id="line2d_8">
      <g>
       <use xlink:href="#m10e5546df2" x="381.828796" y="143.278125" style="stroke: #000000; stroke-width: 0.8"/>
      </g>
     </g>
    </g>
   </g>
   <g id="matplotlib.axis_2">
    <g id="ytick_1">
     <g id="line2d_9">
      <defs>
       <path id="m84ad9c47a3" d="M 0 0 
L -3.5 0 
" style="stroke: #000000; stroke-width: 0.8"/>
      </defs>
      <g>
       <use xlink:href="#m84ad9c47a3" x="50.14375" y="137.15685" style="stroke: #000000; stroke-width: 0.8"/>
      </g>
     </g>
     <g id="text_1">
      <!-- 0.90 -->
      <g transform="translate(20.878125 140.956069) scale(0.1 -0.1)">
       <defs>
        <path id="DejaVuSans-30" d="M 2034 4250 
Q 1547 4250 1301 3770 
Q 1056 3291 1056 2328 
Q 1056 1369 1301 889 
Q 1547 409 2034 409 
Q 2525 409 2770 889 
Q 3016 1369 3016 2328 
Q 3016 3291 2770 3770 
Q 2525 4250 2034 4250 
z
M 2034 4750 
Q 2819 4750 3233 4129 
Q 3647 3509 3647 2328 
Q 3647 1150 3233 529 
Q 2819 -91 2034 -91 
Q 1250 -91 836 529 
Q 422 1150 422 2328 
Q 422 3509 836 4129 
Q 1250 4750 2034 4750 
z
" transform="scale(0.015625)"/>
        <path id="DejaVuSans-2e" d="M 684 794 
L 1344 794 
L 1344 0 
L 684 0 
L 684 794 
z
" transform="scale(0.015625)"/>
        <path id="DejaVuSans-39" d="M 703 97 
L 703 672 
Q 941 559 1184 500 
Q 1428 441 1663 441 
Q 2288 441 2617 861 
Q 2947 1281 2994 2138 
Q 2813 1869 2534 1725 
Q 2256 1581 1919 1581 
Q 1219 1581 811 2004 
Q 403 2428 403 3163 
Q 403 3881 828 4315 
Q 1253 4750 1959 4750 
Q 2769 4750 3195 4129 
Q 3622 3509 3622 2328 
Q 3622 1225 3098 567 
Q 2575 -91 1691 -91 
Q 1453 -91 1209 -44 
Q 966 3 703 97 
z
M 1959 2075 
Q 2384 2075 2632 2365 
Q 2881 2656 2881 3163 
Q 2881 3666 2632 3958 
Q 2384 4250 1959 4250 
Q 1534 4250 1286 3958 
Q 1038 3666 1038 3163 
Q 1038 2656 1286 2365 
Q 1534 2075 1959 2075 
z
" transform="scale(0.015625)"/>
       </defs>
       <use xlink:href="#DejaVuSans-30"/>
       <use xlink:href="#DejaVuSans-2e" x="63.623047"/>
       <use xlink:href="#DejaVuSans-39" x="95.410156"/>
       <use xlink:href="#DejaVuSans-30" x="159.033203"/>
      </g>
     </g>
    </g>
    <g id="ytick_2">
     <g id="line2d_10">
      <g>
       <use xlink:href="#m84ad9c47a3" x="50.14375" y="115.2867" style="stroke: #000000; stroke-width: 0.8"/>
      </g>
     </g>
     <g id="text_2">
      <!-- 0.92 -->
      <g transform="translate(20.878125 119.085918) scale(0.1 -0.1)">
       <defs>
        <path id="DejaVuSans-32" d="M 1228 531 
L 3431 531 
L 3431 0 
L 469 0 
L 469 531 
Q 828 903 1448 1529 
Q 2069 2156 2228 2338 
Q 2531 2678 2651 2914 
Q 2772 3150 2772 3378 
Q 2772 3750 2511 3984 
Q 2250 4219 1831 4219 
Q 1534 4219 1204 4116 
Q 875 4013 500 3803 
L 500 4441 
Q 881 4594 1212 4672 
Q 1544 4750 1819 4750 
Q 2544 4750 2975 4387 
Q 3406 4025 3406 3419 
Q 3406 3131 3298 2873 
Q 3191 2616 2906 2266 
Q 2828 2175 2409 1742 
Q 1991 1309 1228 531 
z
" transform="scale(0.015625)"/>
       </defs>
       <use xlink:href="#DejaVuSans-30"/>
       <use xlink:href="#DejaVuSans-2e" x="63.623047"/>
       <use xlink:href="#DejaVuSans-39" x="95.410156"/>
       <use xlink:href="#DejaVuSans-32" x="159.033203"/>
      </g>
     </g>
    </g>
    <g id="ytick_3">
     <g id="line2d_11">
      <g>
       <use xlink:href="#m84ad9c47a3" x="50.14375" y="93.416549" style="stroke: #000000; stroke-width: 0.8"/>
      </g>
     </g>
     <g id="text_3">
      <!-- 0.94 -->
      <g transform="translate(20.878125 97.215768) scale(0.1 -0.1)">
       <defs>
        <path id="DejaVuSans-34" d="M 2419 4116 
L 825 1625 
L 2419 1625 
L 2419 4116 
z
M 2253 4666 
L 3047 4666 
L 3047 1625 
L 3713 1625 
L 3713 1100 
L 3047 1100 
L 3047 0 
L 2419 0 
L 2419 1100 
L 313 1100 
L 313 1709 
L 2253 4666 
z
" transform="scale(0.015625)"/>
       </defs>
       <use xlink:href="#DejaVuSans-30"/>
       <use xlink:href="#DejaVuSans-2e" x="63.623047"/>
       <use xlink:href="#DejaVuSans-39" x="95.410156"/>
       <use xlink:href="#DejaVuSans-34" x="159.033203"/>
      </g>
     </g>
    </g>
    <g id="ytick_4">
     <g id="line2d_12">
      <g>
       <use xlink:href="#m84ad9c47a3" x="50.14375" y="71.546399" style="stroke: #000000; stroke-width: 0.8"/>
      </g>
     </g>
     <g id="text_4">
      <!-- 0.96 -->
      <g transform="translate(20.878125 75.345618) scale(0.1 -0.1)">
       <defs>
        <path id="DejaVuSans-36" d="M 2113 2584 
Q 1688 2584 1439 2293 
Q 1191 2003 1191 1497 
Q 1191 994 1439 701 
Q 1688 409 2113 409 
Q 2538 409 2786 701 
Q 3034 994 3034 1497 
Q 3034 2003 2786 2293 
Q 2538 2584 2113 2584 
z
M 3366 4563 
L 3366 3988 
Q 3128 4100 2886 4159 
Q 2644 4219 2406 4219 
Q 1781 4219 1451 3797 
Q 1122 3375 1075 2522 
Q 1259 2794 1537 2939 
Q 1816 3084 2150 3084 
Q 2853 3084 3261 2657 
Q 3669 2231 3669 1497 
Q 3669 778 3244 343 
Q 2819 -91 2113 -91 
Q 1303 -91 875 529 
Q 447 1150 447 2328 
Q 447 3434 972 4092 
Q 1497 4750 2381 4750 
Q 2619 4750 2861 4703 
Q 3103 4656 3366 4563 
z
" transform="scale(0.015625)"/>
       </defs>
       <use xlink:href="#DejaVuSans-30"/>
       <use xlink:href="#DejaVuSans-2e" x="63.623047"/>
       <use xlink:href="#DejaVuSans-39" x="95.410156"/>
       <use xlink:href="#DejaVuSans-36" x="159.033203"/>
      </g>
     </g>
    </g>
    <g id="ytick_5">
     <g id="line2d_13">
      <g>
       <use xlink:href="#m84ad9c47a3" x="50.14375" y="49.676248" style="stroke: #000000; stroke-width: 0.8"/>
      </g>
     </g>
     <g id="text_5">
      <!-- 0.98 -->
      <g transform="translate(20.878125 53.475467) scale(0.1 -0.1)">
       <defs>
        <path id="DejaVuSans-38" d="M 2034 2216 
Q 1584 2216 1326 1975 
Q 1069 1734 1069 1313 
Q 1069 891 1326 650 
Q 1584 409 2034 409 
Q 2484 409 2743 651 
Q 3003 894 3003 1313 
Q 3003 1734 2745 1975 
Q 2488 2216 2034 2216 
z
M 1403 2484 
Q 997 2584 770 2862 
Q 544 3141 544 3541 
Q 544 4100 942 4425 
Q 1341 4750 2034 4750 
Q 2731 4750 3128 4425 
Q 3525 4100 3525 3541 
Q 3525 3141 3298 2862 
Q 3072 2584 2669 2484 
Q 3125 2378 3379 2068 
Q 3634 1759 3634 1313 
Q 3634 634 3220 271 
Q 2806 -91 2034 -91 
Q 1263 -91 848 271 
Q 434 634 434 1313 
Q 434 1759 690 2068 
Q 947 2378 1403 2484 
z
M 1172 3481 
Q 1172 3119 1398 2916 
Q 1625 2713 2034 2713 
Q 2441 2713 2670 2916 
Q 2900 3119 2900 3481 
Q 2900 3844 2670 4047 
Q 2441 4250 2034 4250 
Q 1625 4250 1398 4047 
Q 1172 3844 1172 3481 
z
" transform="scale(0.015625)"/>
       </defs>
       <use xlink:href="#DejaVuSans-30"/>
       <use xlink:href="#DejaVuSans-2e" x="63.623047"/>
       <use xlink:href="#DejaVuSans-39" x="95.410156"/>
       <use xlink:href="#DejaVuSans-38" x="159.033203"/>
      </g>
     </g>
    </g>
    <g id="ytick_6">
     <g id="line2d_14">
      <g>
       <use xlink:href="#m84ad9c47a3" x="50.14375" y="27.806098" style="stroke: #000000; stroke-width: 0.8"/>
      </g>
     </g>
     <g id="text_6">
      <!-- 1.00 -->
      <g transform="translate(20.878125 31.605317) scale(0.1 -0.1)">
       <defs>
        <path id="DejaVuSans-31" d="M 794 531 
L 1825 531 
L 1825 4091 
L 703 3866 
L 703 4441 
L 1819 4666 
L 2450 4666 
L 2450 531 
L 3481 531 
L 3481 0 
L 794 0 
L 794 531 
z
" transform="scale(0.015625)"/>
       </defs>
       <use xlink:href="#DejaVuSans-31"/>
       <use xlink:href="#DejaVuSans-2e" x="63.623047"/>
       <use xlink:href="#DejaVuSans-30" x="95.410156"/>
       <use xlink:href="#DejaVuSans-30" x="159.033203"/>
      </g>
     </g>
    </g>
    <g id="text_7">
     <!-- Output voltage (V) -->
     <g transform="translate(14.798438 129.348906) rotate(-90) scale(0.1 -0.1)">
      <defs>
       <path id="DejaVuSans-4f" d="M 2522 4238 
Q 1834 4238 1429 3725 
Q 1025 3213 1025 2328 
Q 1025 1447 1429 934 
Q 1834 422 2522 422 
Q 3209 422 3611 934 
Q 4013 1447 4013 2328 
Q 4013 3213 3611 3725 
Q 3209 4238 2522 4238 
z
M 2522 4750 
Q 3503 4750 4090 4092 
Q 4678 3434 4678 2328 
Q 4678 1225 4090 567 
Q 3503 -91 2522 -91 
Q 1538 -91 948 565 
Q 359 1222 359 2328 
Q 359 3434 948 4092 
Q 1538 4750 2522 4750 
z
" transform="scale(0.015625)"/>
       <path id="DejaVuSans-75" d="M 544 1381 
L 544 3500 
L 1119 3500 
L 1119 1403 
Q 1119 906 1312 657 
Q 1506 409 1894 409 
Q 2359 409 2629 706 
Q 2900 1003 2900 1516 
L 2900 3500 
L 3475 3500 
L 3475 0 
L 2900 0 
L 2900 538 
Q 2691 219 2414 64 
Q 2138 -91 1772 -91 
Q 1169 -91 856 284 
Q 544 659 544 1381 
z
M 1991 3584 
L 1991 3584 
z
" transform="scale(0.015625)"/>
       <path id="DejaVuSans-74" d="M 1172 4494 
L 1172 3500 
L 2356 3500 
L 2356 3053 
L 1172 3053 
L 1172 1153 
Q 1172 725 1289 603 
Q 1406 481 1766 481 
L 2356 481 
L 2356 0 
L 1766 0 
Q 1100 0 847 248 
Q 594 497 594 1153 
L 594 3053 
L 172 3053 
L 172 3500 
L 594 3500 
L 594 4494 
L 1172 4494 
z
" transform="scale(0.015625)"/>
       <path id="DejaVuSans-70" d="M 1159 525 
L 1159 -1331 
L 581 -1331 
L 581 3500 
L 1159 3500 
L 1159 2969 
Q 1341 3281 1617 3432 
Q 1894 3584 2278 3584 
Q 2916 3584 3314 3078 
Q 3713 2572 3713 1747 
Q 3713 922 3314 415 
Q 2916 -91 2278 -91 
Q 1894 -91 1617 61 
Q 1341 213 1159 525 
z
M 3116 1747 
Q 3116 2381 2855 2742 
Q 2594 3103 2138 3103 
Q 1681 3103 1420 2742 
Q 1159 2381 1159 1747 
Q 1159 1113 1420 752 
Q 1681 391 2138 391 
Q 2594 391 2855 752 
Q 3116 1113 3116 1747 
z
" transform="scale(0.015625)"/>
       <path id="DejaVuSans-20" transform="scale(0.015625)"/>
       <path id="DejaVuSans-76" d="M 191 3500 
L 800 3500 
L 1894 563 
L 2988 3500 
L 3597 3500 
L 2284 0 
L 1503 0 
L 191 3500 
z
" transform="scale(0.015625)"/>
       <path id="DejaVuSans-6f" d="M 1959 3097 
Q 1497 3097 1228 2736 
Q 959 2375 959 1747 
Q 959 1119 1226 758 
Q 1494 397 1959 397 
Q 2419 397 2687 759 
Q 2956 1122 2956 1747 
Q 2956 2369 2687 2733 
Q 2419 3097 1959 3097 
z
M 1959 3584 
Q 2709 3584 3137 3096 
Q 3566 2609 3566 1747 
Q 3566 888 3137 398 
Q 2709 -91 1959 -91 
Q 1206 -91 779 398 
Q 353 888 353 1747 
Q 353 2609 779 3096 
Q 1206 3584 1959 3584 
z
" transform="scale(0.015625)"/>
       <path id="DejaVuSans-6c" d="M 603 4863 
L 1178 4863 
L 1178 0 
L 603 0 
L 603 4863 
z
" transform="scale(0.015625)"/>
       <path id="DejaVuSans-61" d="M 2194 1759 
Q 1497 1759 1228 1600 
Q 959 1441 959 1056 
Q 959 750 1161 570 
Q 1363 391 1709 391 
Q 2188 391 2477 730 
Q 2766 1069 2766 1631 
L 2766 1759 
L 2194 1759 
z
M 3341 1997 
L 3341 0 
L 2766 0 
L 2766 531 
Q 2569 213 2275 61 
Q 1981 -91 1556 -91 
Q 1019 -91 701 211 
Q 384 513 384 1019 
Q 384 1609 779 1909 
Q 1175 2209 1959 2209 
L 2766 2209 
L 2766 2266 
Q 2766 2663 2505 2880 
Q 2244 3097 1772 3097 
Q 1472 3097 1187 3025 
Q 903 2953 641 2809 
L 641 3341 
Q 956 3463 1253 3523 
Q 1550 3584 1831 3584 
Q 2591 3584 2966 3190 
Q 3341 2797 3341 1997 
z
" transform="scale(0.015625)"/>
       <path id="DejaVuSans-67" d="M 2906 1791 
Q 2906 2416 2648 2759 
Q 2391 3103 1925 3103 
Q 1463 3103 1205 2759 
Q 947 2416 947 1791 
Q 947 1169 1205 825 
Q 1463 481 1925 481 
Q 2391 481 2648 825 
Q 2906 1169 2906 1791 
z
M 3481 434 
Q 3481 -459 3084 -895 
Q 2688 -1331 1869 -1331 
Q 1566 -1331 1297 -1286 
Q 1028 -1241 775 -1147 
L 775 -588 
Q 1028 -725 1275 -790 
Q 1522 -856 1778 -856 
Q 2344 -856 2625 -561 
Q 2906 -266 2906 331 
L 2906 616 
Q 2728 306 2450 153 
Q 2172 0 1784 0 
Q 1141 0 747 490 
Q 353 981 353 1791 
Q 353 2603 747 3093 
Q 1141 3584 1784 3584 
Q 2172 3584 2450 3431 
Q 2728 3278 2906 2969 
L 2906 3500 
L 3481 3500 
L 3481 434 
z
" transform="scale(0.015625)"/>
       <path id="DejaVuSans-65" d="M 3597 1894 
L 3597 1613 
L 953 1613 
Q 991 1019 1311 708 
Q 1631 397 2203 397 
Q 2534 397 2845 478 
Q 3156 559 3463 722 
L 3463 178 
Q 3153 47 2828 -22 
Q 2503 -91 2169 -91 
Q 1331 -91 842 396 
Q 353 884 353 1716 
Q 353 2575 817 3079 
Q 1281 3584 2069 3584 
Q 2775 3584 3186 3129 
Q 3597 2675 3597 1894 
z
M 3022 2063 
Q 3016 2534 2758 2815 
Q 2500 3097 2075 3097 
Q 1594 3097 1305 2825 
Q 1016 2553 972 2059 
L 3022 2063 
z
" transform="scale(0.015625)"/>
       <path id="DejaVuSans-28" d="M 1984 4856 
Q 1566 4138 1362 3434 
Q 1159 2731 1159 2009 
Q 1159 1288 1364 580 
Q 1569 -128 1984 -844 
L 1484 -844 
Q 1016 -109 783 600 
Q 550 1309 550 2009 
Q 550 2706 781 3412 
Q 1013 4119 1484 4856 
L 1984 4856 
z
" transform="scale(0.015625)"/>
       <path id="DejaVuSans-56" d="M 1831 0 
L 50 4666 
L 709 4666 
L 2188 738 
L 3669 4666 
L 4325 4666 
L 2547 0 
L 1831 0 
z
" transform="scale(0.015625)"/>
       <path id="DejaVuSans-29" d="M 513 4856 
L 1013 4856 
Q 1481 4119 1714 3412 
Q 1947 2706 1947 2009 
Q 1947 1309 1714 600 
Q 1481 -109 1013 -844 
L 513 -844 
Q 928 -128 1133 580 
Q 1338 1288 1338 2009 
Q 1338 2731 1133 3434 
Q 928 4138 513 4856 
z
" transform="scale(0.015625)"/>
      </defs>
      <use xlink:href="#DejaVuSans-4f"/>
      <use xlink:href="#DejaVuSans-75" x="78.710938"/>
      <use xlink:href="#DejaVuSans-74" x="142.089844"/>
      <use xlink:href="#DejaVuSans-70" x="181.298828"/>
      <use xlink:href="#DejaVuSans-75" x="244.775391"/>
      <use xlink:href="#DejaVuSans-74" x="308.154297"/>
      <use xlink:href="#DejaVuSans-20" x="347.363281"/>
      <use xlink:href="#DejaVuSans-76" x="379.150391"/>
      <use xlink:href="#DejaVuSans-6f" x="438.330078"/>
      <use xlink:href="#DejaVuSans-6c" x="499.511719"/>
      <use xlink:href="#DejaVuSans-74" x="527.294922"/>
      <use xlink:href="#DejaVuSans-61" x="566.503906"/>
      <use xlink:href="#DejaVuSans-67" x="627.783203"/>
      <use xlink:href="#DejaVuSans-65" x="691.259766"/>
      <use xlink:href="#DejaVuSans-20" x="752.783203"/>
      <use xlink:href="#DejaVuSans-28" x="784.570312"/>
      <use xlink:href="#DejaVuSans-56" x="823.583984"/>
      <use xlink:href="#DejaVuSans-29" x="891.992188"/>
     </g>
    </g>
   </g>
   <g id="line2d_15">
    <path d="M 66.376477 137.779943 
L 73.00208 137.625261 
L 79.627683 137.44406 
L 86.253286 137.230236 
L 92.878889 136.975989 
L 99.504492 136.671291 
L 106.130095 136.303113 
L 112.755698 135.854313 
L 119.381301 135.302094 
L 126.006904 134.616503 
L 132.632507 133.760264 
L 139.25811 132.687914 
L 145.883713 131.34051 
L 152.509316 129.6465 
L 159.134919 127.535985 
L 165.760522 124.956903 
L 172.386125 121.883511 
L 179.011728 118.31604 
L 185.637331 114.275791 
L 192.262934 109.799534 
L 198.888537 104.93482 
L 205.51414 99.736443 
L 212.139743 94.263955 
L 218.765346 88.580135 
L 225.390949 82.750308 
L 232.016551 76.842358 
L 238.642154 70.927296 
L 245.267757 65.080167 
L 251.89336 59.38107 
L 258.518963 53.915953 
L 265.144566 48.776659 
L 271.770169 44.05953 
L 278.395772 39.861619 
L 285.021375 36.273411 
L 291.646978 33.366567 
L 298.272581 31.174806 
L 304.898184 29.669627 
L 311.523787 28.74615 
L 318.14939 28.244037 
L 324.774993 27.999859 
L 331.400596 27.839361 
L 338.026199 27.822515 
L 344.651802 27.81806 
L 351.277405 27.816818 
L 357.903008 27.816462 
L 364.528611 27.816357 
L 371.154214 27.816323 
L 377.779817 27.816312 
L 384.40542 27.816308 
L 391.031023 27.816307 
" clip-path="url(#p1f524ac9c4)" style="fill: none; stroke: #1f77b4; stroke-linecap: square"/>
    <defs>
     <path id="me295202559" d="M -2.5 2.5 
L 2.5 -2.5 
M -2.5 -2.5 
L 2.5 2.5 
" style="stroke: #1f77b4"/>
    </defs>
    <g clip-path="url(#p1f524ac9c4)">
     <use xlink:href="#me295202559" x="66.376477" y="137.779943" style="fill: #1f77b4; stroke: #1f77b4"/>
     <use xlink:href="#me295202559" x="73.00208" y="137.625261" style="fill: #1f77b4; stroke: #1f77b4"/>
     <use xlink:href="#me295202559" x="79.627683" y="137.44406" style="fill: #1f77b4; stroke: #1f77b4"/>
     <use xlink:href="#me295202559" x="86.253286" y="137.230236" style="fill: #1f77b4; stroke: #1f77b4"/>
     <use xlink:href="#me295202559" x="92.878889" y="136.975989" style="fill: #1f77b4; stroke: #1f77b4"/>
     <use xlink:href="#me295202559" x="99.504492" y="136.671291" style="fill: #1f77b4; stroke: #1f77b4"/>
     <use xlink:href="#me295202559" x="106.130095" y="136.303113" style="fill: #1f77b4; stroke: #1f77b4"/>
     <use xlink:href="#me295202559" x="112.755698" y="135.854313" style="fill: #1f77b4; stroke: #1f77b4"/>
     <use xlink:href="#me295202559" x="119.381301" y="135.302094" style="fill: #1f77b4; stroke: #1f77b4"/>
     <use xlink:href="#me295202559" x="126.006904" y="134.616503" style="fill: #1f77b4; stroke: #1f77b4"/>
     <use xlink:href="#me295202559" x="132.632507" y="133.760264" style="fill: #1f77b4; stroke: #1f77b4"/>
     <use xlink:href="#me295202559" x="139.25811" y="132.687914" style="fill: #1f77b4; stroke: #1f77b4"/>
     <use xlink:href="#me295202559" x="145.883713" y="131.34051" style="fill: #1f77b4; stroke: #1f77b4"/>
     <use xlink:href="#me295202559" x="152.509316" y="129.6465" style="fill: #1f77b4; stroke: #1f77b4"/>
     <use xlink:href="#me295202559" x="159.134919" y="127.535985" style="fill: #1f77b4; stroke: #1f77b4"/>
     <use xlink:href="#me295202559" x="165.760522" y="124.956903" style="fill: #1f77b4; stroke: #1f77b4"/>
     <use xlink:href="#me295202559" x="172.386125" y="121.883511" style="fill: #1f77b4; stroke: #1f77b4"/>
     <use xlink:href="#me295202559" x="179.011728" y="118.31604" style="fill: #1f77b4; stroke: #1f77b4"/>
     <use xlink:href="#me295202559" x="185.637331" y="114.275791" style="fill: #1f77b4; stroke: #1f77b4"/>
     <use xlink:href="#me295202559" x="192.262934" y="109.799534" style="fill: #1f77b4; stroke: #1f77b4"/>
     <use xlink:href="#me295202559" x="198.888537" y="104.93482" style="fill: #1f77b4; stroke: #1f77b4"/>
     <use xlink:href="#me295202559" x="205.51414" y="99.736443" style="fill: #1f77b4; stroke: #1f77b4"/>
     <use xlink:href="#me295202559" x="212.139743" y="94.263955" style="fill: #1f77b4; stroke: #1f77b4"/>
     <use xlink:href="#me295202559" x="218.765346" y="88.580135" style="fill: #1f77b4; stroke: #1f77b4"/>
     <use xlink:href="#me295202559" x="225.390949" y="82.750308" style="fill: #1f77b4; stroke: #1f77b4"/>
     <use xlink:href="#me295202559" x="232.016551" y="76.842358" style="fill: #1f77b4; stroke: #1f77b4"/>
     <use xlink:href="#me295202559" x="238.642154" y="70.927296" style="fill: #1f77b4; stroke: #1f77b4"/>
     <use xlink:href="#me295202559" x="245.267757" y="65.080167" style="fill: #1f77b4; stroke: #1f77b4"/>
     <use xlink:href="#me295202559" x="251.89336" y="59.38107" style="fill: #1f77b4; stroke: #1f77b4"/>
     <use xlink:href="#me295202559" x="258.518963" y="53.915953" style="fill: #1f77b4; stroke: #1f77b4"/>
     <use xlink:href="#me295202559" x="265.144566" y="48.776659" style="fill: #1f77b4; stroke: #1f77b4"/>
     <use xlink:href="#me295202559" x="271.770169" y="44.05953" style="fill: #1f77b4; stroke: #1f77b4"/>
     <use xlink:href="#me295202559" x="278.395772" y="39.861619" style="fill: #1f77b4; stroke: #1f77b4"/>
     <use xlink:href="#me295202559" x="285.021375" y="36.273411" style="fill: #1f77b4; stroke: #1f77b4"/>
     <use xlink:href="#me295202559" x="291.646978" y="33.366567" style="fill: #1f77b4; stroke: #1f77b4"/>
     <use xlink:href="#me295202559" x="298.272581" y="31.174806" style="fill: #1f77b4; stroke: #1f77b4"/>
     <use xlink:href="#me295202559" x="304.898184" y="29.669627" style="fill: #1f77b4; stroke: #1f77b4"/>
     <use xlink:href="#me295202559" x="311.523787" y="28.74615" style="fill: #1f77b4; stroke: #1f77b4"/>
     <use xlink:href="#me295202559" x="318.14939" y="28.244037" style="fill: #1f77b4; stroke: #1f77b4"/>
     <use xlink:href="#me295202559" x="324.774993" y="27.999859" style="fill: #1f77b4; stroke: #1f77b4"/>
     <use xlink:href="#me295202559" x="331.400596" y="27.839361" style="fill: #1f77b4; stroke: #1f77b4"/>
     <use xlink:href="#me295202559" x="338.026199" y="27.822515" style="fill: #1f77b4; stroke: #1f77b4"/>
     <use xlink:href="#me295202559" x="344.651802" y="27.81806" style="fill: #1f77b4; stroke: #1f77b4"/>
     <use xlink:href="#me295202559" x="351.277405" y="27.816818" style="fill: #1f77b4; stroke: #1f77b4"/>
     <use xlink:href="#me295202559" x="357.903008" y="27.816462" style="fill: #1f77b4; stroke: #1f77b4"/>
     <use xlink:href="#me295202559" x="364.528611" y="27.816357" style="fill: #1f77b4; stroke: #1f77b4"/>
     <use xlink:href="#me295202559" x="371.154214" y="27.816323" style="fill: #1f77b4; stroke: #1f77b4"/>
     <use xlink:href="#me295202559" x="377.779817" y="27.816312" style="fill: #1f77b4; stroke: #1f77b4"/>
     <use xlink:href="#me295202559" x="384.40542" y="27.816308" style="fill: #1f77b4; stroke: #1f77b4"/>
     <use xlink:href="#me295202559" x="391.031023" y="27.816307" style="fill: #1f77b4; stroke: #1f77b4"/>
    </g>
   </g>
   <g id="line2d_16">
    <path d="M 66.376477 137.137511 
L 73.00208 137.129133 
L 79.627683 137.117126 
L 86.253286 137.099922 
L 92.878889 137.075271 
L 99.504492 137.039959 
L 106.130095 136.989384 
L 112.755698 136.916975 
L 119.381301 136.813356 
L 126.006904 136.665179 
L 132.632507 136.453494 
L 139.25811 136.151512 
L 145.883713 135.721587 
L 152.509316 135.111279 
L 159.134919 134.248449 
L 165.760522 133.035651 
L 172.386125 131.344733 
L 179.011728 129.013724 
L 185.637331 125.849933 
L 192.262934 121.64533 
L 198.888537 116.211222 
L 205.51414 109.435777 
L 212.139743 101.356181 
L 218.765346 92.218112 
L 225.390949 82.481474 
L 232.016551 72.744836 
L 238.642154 63.606767 
L 245.267757 55.527171 
L 251.89336 48.751726 
L 258.518963 43.317619 
L 265.144566 39.113015 
L 271.770169 35.949224 
L 278.395772 33.618215 
L 285.021375 31.927297 
L 291.646978 30.714499 
L 298.272581 29.851669 
L 304.898184 29.241361 
L 311.523787 28.811436 
L 318.14939 28.509454 
L 324.774993 28.297769 
L 331.400596 28.149592 
L 338.026199 28.045973 
L 344.651802 27.973564 
L 351.277405 27.922989 
L 357.903008 27.887677 
L 364.528611 27.863026 
L 371.154214 27.845822 
L 377.779817 27.833815 
L 384.40542 27.825437 
L 391.031023 27.819591 
" clip-path="url(#p1f524ac9c4)" style="fill: none; stroke: #ff7f0e; stroke-linecap: square"/>
   </g>
   <g id="patch_3">
    <path d="M 50.14375 143.278125 
L 50.14375 22.318125 
" style="fill: none; stroke: #000000; stroke-width: 0.8; stroke-linejoin: miter; stroke-linecap: square"/>
   </g>
   <g id="patch_4">
    <path d="M 407.26375 143.278125 
L 407.26375 22.318125 
" style="fill: none; stroke: #000000; stroke-width: 0.8; stroke-linejoin: miter; stroke-linecap: square"/>
   </g>
   <g id="patch_5">
    <path d="M 50.14375 143.278125 
L 407.26375 143.278125 
" style="fill: none; stroke: #000000; stroke-width: 0.8; stroke-linejoin: miter; stroke-linecap: square"/>
   </g>
   <g id="patch_6">
    <path d="M 50.14375 22.318125 
L 407.26375 22.318125 
" style="fill: none; stroke: #000000; stroke-width: 0.8; stroke-linejoin: miter; stroke-linecap: square"/>
   </g>
   <g id="text_8">
    <g id="patch_7">
     <path d="M 312.861961 90.320537 
L 395.582274 90.320537 
Q 398.582274 90.320537 398.582274 87.320537 
L 398.582274 77.642412 
Q 398.582274 74.642412 395.582274 74.642412 
L 312.861961 74.642412 
Q 309.861961 74.642412 309.861961 77.642412 
L 309.861961 87.320537 
Q 309.861961 90.320537 312.861961 90.320537 
z
" style="fill: #ffffff; stroke: #000000; stroke-width: 0.5; stroke-linejoin: miter"/>
    </g>
    <!-- RSME : 5.11e-03 -->
    <g transform="translate(312.861961 85.240849) scale(0.1 -0.1)">
     <defs>
      <path id="DejaVuSans-52" d="M 2841 2188 
Q 3044 2119 3236 1894 
Q 3428 1669 3622 1275 
L 4263 0 
L 3584 0 
L 2988 1197 
Q 2756 1666 2539 1819 
Q 2322 1972 1947 1972 
L 1259 1972 
L 1259 0 
L 628 0 
L 628 4666 
L 2053 4666 
Q 2853 4666 3247 4331 
Q 3641 3997 3641 3322 
Q 3641 2881 3436 2590 
Q 3231 2300 2841 2188 
z
M 1259 4147 
L 1259 2491 
L 2053 2491 
Q 2509 2491 2742 2702 
Q 2975 2913 2975 3322 
Q 2975 3731 2742 3939 
Q 2509 4147 2053 4147 
L 1259 4147 
z
" transform="scale(0.015625)"/>
      <path id="DejaVuSans-53" d="M 3425 4513 
L 3425 3897 
Q 3066 4069 2747 4153 
Q 2428 4238 2131 4238 
Q 1616 4238 1336 4038 
Q 1056 3838 1056 3469 
Q 1056 3159 1242 3001 
Q 1428 2844 1947 2747 
L 2328 2669 
Q 3034 2534 3370 2195 
Q 3706 1856 3706 1288 
Q 3706 609 3251 259 
Q 2797 -91 1919 -91 
Q 1588 -91 1214 -16 
Q 841 59 441 206 
L 441 856 
Q 825 641 1194 531 
Q 1563 422 1919 422 
Q 2459 422 2753 634 
Q 3047 847 3047 1241 
Q 3047 1584 2836 1778 
Q 2625 1972 2144 2069 
L 1759 2144 
Q 1053 2284 737 2584 
Q 422 2884 422 3419 
Q 422 4038 858 4394 
Q 1294 4750 2059 4750 
Q 2388 4750 2728 4690 
Q 3069 4631 3425 4513 
z
" transform="scale(0.015625)"/>
      <path id="DejaVuSans-4d" d="M 628 4666 
L 1569 4666 
L 2759 1491 
L 3956 4666 
L 4897 4666 
L 4897 0 
L 4281 0 
L 4281 4097 
L 3078 897 
L 2444 897 
L 1241 4097 
L 1241 0 
L 628 0 
L 628 4666 
z
" transform="scale(0.015625)"/>
      <path id="DejaVuSans-45" d="M 628 4666 
L 3578 4666 
L 3578 4134 
L 1259 4134 
L 1259 2753 
L 3481 2753 
L 3481 2222 
L 1259 2222 
L 1259 531 
L 3634 531 
L 3634 0 
L 628 0 
L 628 4666 
z
" transform="scale(0.015625)"/>
      <path id="DejaVuSans-3a" d="M 750 794 
L 1409 794 
L 1409 0 
L 750 0 
L 750 794 
z
M 750 3309 
L 1409 3309 
L 1409 2516 
L 750 2516 
L 750 3309 
z
" transform="scale(0.015625)"/>
      <path id="DejaVuSans-35" d="M 691 4666 
L 3169 4666 
L 3169 4134 
L 1269 4134 
L 1269 2991 
Q 1406 3038 1543 3061 
Q 1681 3084 1819 3084 
Q 2600 3084 3056 2656 
Q 3513 2228 3513 1497 
Q 3513 744 3044 326 
Q 2575 -91 1722 -91 
Q 1428 -91 1123 -41 
Q 819 9 494 109 
L 494 744 
Q 775 591 1075 516 
Q 1375 441 1709 441 
Q 2250 441 2565 725 
Q 2881 1009 2881 1497 
Q 2881 1984 2565 2268 
Q 2250 2553 1709 2553 
Q 1456 2553 1204 2497 
Q 953 2441 691 2322 
L 691 4666 
z
" transform="scale(0.015625)"/>
      <path id="DejaVuSans-2d" d="M 313 2009 
L 1997 2009 
L 1997 1497 
L 313 1497 
L 313 2009 
z
" transform="scale(0.015625)"/>
      <path id="DejaVuSans-33" d="M 2597 2516 
Q 3050 2419 3304 2112 
Q 3559 1806 3559 1356 
Q 3559 666 3084 287 
Q 2609 -91 1734 -91 
Q 1441 -91 1130 -33 
Q 819 25 488 141 
L 488 750 
Q 750 597 1062 519 
Q 1375 441 1716 441 
Q 2309 441 2620 675 
Q 2931 909 2931 1356 
Q 2931 1769 2642 2001 
Q 2353 2234 1838 2234 
L 1294 2234 
L 1294 2753 
L 1863 2753 
Q 2328 2753 2575 2939 
Q 2822 3125 2822 3475 
Q 2822 3834 2567 4026 
Q 2313 4219 1838 4219 
Q 1578 4219 1281 4162 
Q 984 4106 628 3988 
L 628 4550 
Q 988 4650 1302 4700 
Q 1616 4750 1894 4750 
Q 2613 4750 3031 4423 
Q 3450 4097 3450 3541 
Q 3450 3153 3228 2886 
Q 3006 2619 2597 2516 
z
" transform="scale(0.015625)"/>
     </defs>
     <use xlink:href="#DejaVuSans-52"/>
     <use xlink:href="#DejaVuSans-53" x="69.482422"/>
     <use xlink:href="#DejaVuSans-4d" x="132.958984"/>
     <use xlink:href="#DejaVuSans-45" x="219.238281"/>
     <use xlink:href="#DejaVuSans-20" x="282.421875"/>
     <use xlink:href="#DejaVuSans-3a" x="314.208984"/>
     <use xlink:href="#DejaVuSans-20" x="347.900391"/>
     <use xlink:href="#DejaVuSans-35" x="379.6875"/>
     <use xlink:href="#DejaVuSans-2e" x="443.310547"/>
     <use xlink:href="#DejaVuSans-31" x="475.097656"/>
     <use xlink:href="#DejaVuSans-31" x="538.720703"/>
     <use xlink:href="#DejaVuSans-65" x="602.34375"/>
     <use xlink:href="#DejaVuSans-2d" x="663.867188"/>
     <use xlink:href="#DejaVuSans-30" x="699.951172"/>
     <use xlink:href="#DejaVuSans-33" x="763.574219"/>
    </g>
   </g>
   <g id="text_9">
    <!-- Sigmoid -->
    <g transform="translate(204.427188 16.318125) scale(0.12 -0.12)">
     <defs>
      <path id="DejaVuSans-69" d="M 603 3500 
L 1178 3500 
L 1178 0 
L 603 0 
L 603 3500 
z
M 603 4863 
L 1178 4863 
L 1178 4134 
L 603 4134 
L 603 4863 
z
" transform="scale(0.015625)"/>
      <path id="DejaVuSans-6d" d="M 3328 2828 
Q 3544 3216 3844 3400 
Q 4144 3584 4550 3584 
Q 5097 3584 5394 3201 
Q 5691 2819 5691 2113 
L 5691 0 
L 5113 0 
L 5113 2094 
Q 5113 2597 4934 2840 
Q 4756 3084 4391 3084 
Q 3944 3084 3684 2787 
Q 3425 2491 3425 1978 
L 3425 0 
L 2847 0 
L 2847 2094 
Q 2847 2600 2669 2842 
Q 2491 3084 2119 3084 
Q 1678 3084 1418 2786 
Q 1159 2488 1159 1978 
L 1159 0 
L 581 0 
L 581 3500 
L 1159 3500 
L 1159 2956 
Q 1356 3278 1631 3431 
Q 1906 3584 2284 3584 
Q 2666 3584 2933 3390 
Q 3200 3197 3328 2828 
z
" transform="scale(0.015625)"/>
      <path id="DejaVuSans-64" d="M 2906 2969 
L 2906 4863 
L 3481 4863 
L 3481 0 
L 2906 0 
L 2906 525 
Q 2725 213 2448 61 
Q 2172 -91 1784 -91 
Q 1150 -91 751 415 
Q 353 922 353 1747 
Q 353 2572 751 3078 
Q 1150 3584 1784 3584 
Q 2172 3584 2448 3432 
Q 2725 3281 2906 2969 
z
M 947 1747 
Q 947 1113 1208 752 
Q 1469 391 1925 391 
Q 2381 391 2643 752 
Q 2906 1113 2906 1747 
Q 2906 2381 2643 2742 
Q 2381 3103 1925 3103 
Q 1469 3103 1208 2742 
Q 947 2381 947 1747 
z
" transform="scale(0.015625)"/>
     </defs>
     <use xlink:href="#DejaVuSans-53"/>
     <use xlink:href="#DejaVuSans-69" x="63.476562"/>
     <use xlink:href="#DejaVuSans-67" x="91.259766"/>
     <use xlink:href="#DejaVuSans-6d" x="154.736328"/>
     <use xlink:href="#DejaVuSans-6f" x="252.148438"/>
     <use xlink:href="#DejaVuSans-69" x="313.330078"/>
     <use xlink:href="#DejaVuSans-64" x="341.113281"/>
    </g>
   </g>
   <g id="legend_1">
    <g id="patch_8">
     <path d="M 57.14375 59.674375 
L 165.44375 59.674375 
Q 167.44375 59.674375 167.44375 57.674375 
L 167.44375 29.318125 
Q 167.44375 27.318125 165.44375 27.318125 
L 57.14375 27.318125 
Q 55.14375 27.318125 55.14375 29.318125 
L 55.14375 57.674375 
Q 55.14375 59.674375 57.14375 59.674375 
z
" style="fill: #ffffff; opacity: 0.8; stroke: #cccccc; stroke-linejoin: miter"/>
    </g>
    <g id="line2d_17">
     <path d="M 59.14375 35.416562 
L 69.14375 35.416562 
L 79.14375 35.416562 
" style="fill: none; stroke: #1f77b4; stroke-linecap: square"/>
     <g>
      <use xlink:href="#me295202559" x="69.14375" y="35.416562" style="fill: #1f77b4; stroke: #1f77b4"/>
     </g>
    </g>
    <g id="text_10">
     <!-- Circuit's output -->
     <g transform="translate(87.14375 38.916562) scale(0.1 -0.1)">
      <defs>
       <path id="DejaVuSans-43" d="M 4122 4306 
L 4122 3641 
Q 3803 3938 3442 4084 
Q 3081 4231 2675 4231 
Q 1875 4231 1450 3742 
Q 1025 3253 1025 2328 
Q 1025 1406 1450 917 
Q 1875 428 2675 428 
Q 3081 428 3442 575 
Q 3803 722 4122 1019 
L 4122 359 
Q 3791 134 3420 21 
Q 3050 -91 2638 -91 
Q 1578 -91 968 557 
Q 359 1206 359 2328 
Q 359 3453 968 4101 
Q 1578 4750 2638 4750 
Q 3056 4750 3426 4639 
Q 3797 4528 4122 4306 
z
" transform="scale(0.015625)"/>
       <path id="DejaVuSans-72" d="M 2631 2963 
Q 2534 3019 2420 3045 
Q 2306 3072 2169 3072 
Q 1681 3072 1420 2755 
Q 1159 2438 1159 1844 
L 1159 0 
L 581 0 
L 581 3500 
L 1159 3500 
L 1159 2956 
Q 1341 3275 1631 3429 
Q 1922 3584 2338 3584 
Q 2397 3584 2469 3576 
Q 2541 3569 2628 3553 
L 2631 2963 
z
" transform="scale(0.015625)"/>
       <path id="DejaVuSans-63" d="M 3122 3366 
L 3122 2828 
Q 2878 2963 2633 3030 
Q 2388 3097 2138 3097 
Q 1578 3097 1268 2742 
Q 959 2388 959 1747 
Q 959 1106 1268 751 
Q 1578 397 2138 397 
Q 2388 397 2633 464 
Q 2878 531 3122 666 
L 3122 134 
Q 2881 22 2623 -34 
Q 2366 -91 2075 -91 
Q 1284 -91 818 406 
Q 353 903 353 1747 
Q 353 2603 823 3093 
Q 1294 3584 2113 3584 
Q 2378 3584 2631 3529 
Q 2884 3475 3122 3366 
z
" transform="scale(0.015625)"/>
       <path id="DejaVuSans-27" d="M 1147 4666 
L 1147 2931 
L 616 2931 
L 616 4666 
L 1147 4666 
z
" transform="scale(0.015625)"/>
       <path id="DejaVuSans-73" d="M 2834 3397 
L 2834 2853 
Q 2591 2978 2328 3040 
Q 2066 3103 1784 3103 
Q 1356 3103 1142 2972 
Q 928 2841 928 2578 
Q 928 2378 1081 2264 
Q 1234 2150 1697 2047 
L 1894 2003 
Q 2506 1872 2764 1633 
Q 3022 1394 3022 966 
Q 3022 478 2636 193 
Q 2250 -91 1575 -91 
Q 1294 -91 989 -36 
Q 684 19 347 128 
L 347 722 
Q 666 556 975 473 
Q 1284 391 1588 391 
Q 1994 391 2212 530 
Q 2431 669 2431 922 
Q 2431 1156 2273 1281 
Q 2116 1406 1581 1522 
L 1381 1569 
Q 847 1681 609 1914 
Q 372 2147 372 2553 
Q 372 3047 722 3315 
Q 1072 3584 1716 3584 
Q 2034 3584 2315 3537 
Q 2597 3491 2834 3397 
z
" transform="scale(0.015625)"/>
      </defs>
      <use xlink:href="#DejaVuSans-43"/>
      <use xlink:href="#DejaVuSans-69" x="69.824219"/>
      <use xlink:href="#DejaVuSans-72" x="97.607422"/>
      <use xlink:href="#DejaVuSans-63" x="136.470703"/>
      <use xlink:href="#DejaVuSans-75" x="191.451172"/>
      <use xlink:href="#DejaVuSans-69" x="254.830078"/>
      <use xlink:href="#DejaVuSans-74" x="282.613281"/>
      <use xlink:href="#DejaVuSans-27" x="321.822266"/>
      <use xlink:href="#DejaVuSans-73" x="349.3125"/>
      <use xlink:href="#DejaVuSans-20" x="401.412109"/>
      <use xlink:href="#DejaVuSans-6f" x="433.199219"/>
      <use xlink:href="#DejaVuSans-75" x="494.380859"/>
      <use xlink:href="#DejaVuSans-74" x="557.759766"/>
      <use xlink:href="#DejaVuSans-70" x="596.96875"/>
      <use xlink:href="#DejaVuSans-75" x="660.445312"/>
      <use xlink:href="#DejaVuSans-74" x="723.824219"/>
     </g>
    </g>
    <g id="line2d_18">
     <path d="M 59.14375 50.094688 
L 69.14375 50.094688 
L 79.14375 50.094688 
" style="fill: none; stroke: #ff7f0e; stroke-linecap: square"/>
    </g>
    <g id="text_11">
     <!-- Ideal output -->
     <g transform="translate(87.14375 53.594688) scale(0.1 -0.1)">
      <defs>
       <path id="DejaVuSans-49" d="M 628 4666 
L 1259 4666 
L 1259 0 
L 628 0 
L 628 4666 
z
" transform="scale(0.015625)"/>
      </defs>
      <use xlink:href="#DejaVuSans-49"/>
      <use xlink:href="#DejaVuSans-64" x="29.492188"/>
      <use xlink:href="#DejaVuSans-65" x="92.96875"/>
      <use xlink:href="#DejaVuSans-61" x="154.492188"/>
      <use xlink:href="#DejaVuSans-6c" x="215.771484"/>
      <use xlink:href="#DejaVuSans-20" x="243.554688"/>
      <use xlink:href="#DejaVuSans-6f" x="275.341797"/>
      <use xlink:href="#DejaVuSans-75" x="336.523438"/>
      <use xlink:href="#DejaVuSans-74" x="399.902344"/>
      <use xlink:href="#DejaVuSans-70" x="439.111328"/>
      <use xlink:href="#DejaVuSans-75" x="502.587891"/>
      <use xlink:href="#DejaVuSans-74" x="565.966797"/>
     </g>
    </g>
   </g>
  </g>
  <g id="axes_2">
   <g id="patch_9">
    <path d="M 50.14375 288.430125 
L 407.26375 288.430125 
L 407.26375 167.470125 
L 50.14375 167.470125 
z
" style="fill: #ffffff"/>
   </g>
   <g id="matplotlib.axis_3">
    <g id="xtick_9">
     <g id="line2d_19">
      <g>
       <use xlink:href="#m10e5546df2" x="59.750874" y="288.430125" style="stroke: #000000; stroke-width: 0.8"/>
      </g>
     </g>
     <g id="text_12">
      <!-- 0.00 -->
      <g transform="translate(48.618062 303.028563) scale(0.1 -0.1)">
       <use xlink:href="#DejaVuSans-30"/>
       <use xlink:href="#DejaVuSans-2e" x="63.623047"/>
       <use xlink:href="#DejaVuSans-30" x="95.410156"/>
       <use xlink:href="#DejaVuSans-30" x="159.033203"/>
      </g>
     </g>
    </g>
    <g id="xtick_10">
     <g id="line2d_20">
      <g>
       <use xlink:href="#m10e5546df2" x="105.762006" y="288.430125" style="stroke: #000000; stroke-width: 0.8"/>
      </g>
     </g>
     <g id="text_13">
      <!-- 0.25 -->
      <g transform="translate(94.629194 303.028563) scale(0.1 -0.1)">
       <use xlink:href="#DejaVuSans-30"/>
       <use xlink:href="#DejaVuSans-2e" x="63.623047"/>
       <use xlink:href="#DejaVuSans-32" x="95.410156"/>
       <use xlink:href="#DejaVuSans-35" x="159.033203"/>
      </g>
     </g>
    </g>
    <g id="xtick_11">
     <g id="line2d_21">
      <g>
       <use xlink:href="#m10e5546df2" x="151.773138" y="288.430125" style="stroke: #000000; stroke-width: 0.8"/>
      </g>
     </g>
     <g id="text_14">
      <!-- 0.50 -->
      <g transform="translate(140.640325 303.028563) scale(0.1 -0.1)">
       <use xlink:href="#DejaVuSans-30"/>
       <use xlink:href="#DejaVuSans-2e" x="63.623047"/>
       <use xlink:href="#DejaVuSans-35" x="95.410156"/>
       <use xlink:href="#DejaVuSans-30" x="159.033203"/>
      </g>
     </g>
    </g>
    <g id="xtick_12">
     <g id="line2d_22">
      <g>
       <use xlink:href="#m10e5546df2" x="197.784269" y="288.430125" style="stroke: #000000; stroke-width: 0.8"/>
      </g>
     </g>
     <g id="text_15">
      <!-- 0.75 -->
      <g transform="translate(186.651457 303.028563) scale(0.1 -0.1)">
       <defs>
        <path id="DejaVuSans-37" d="M 525 4666 
L 3525 4666 
L 3525 4397 
L 1831 0 
L 1172 0 
L 2766 4134 
L 525 4134 
L 525 4666 
z
" transform="scale(0.015625)"/>
       </defs>
       <use xlink:href="#DejaVuSans-30"/>
       <use xlink:href="#DejaVuSans-2e" x="63.623047"/>
       <use xlink:href="#DejaVuSans-37" x="95.410156"/>
       <use xlink:href="#DejaVuSans-35" x="159.033203"/>
      </g>
     </g>
    </g>
    <g id="xtick_13">
     <g id="line2d_23">
      <g>
       <use xlink:href="#m10e5546df2" x="243.795401" y="288.430125" style="stroke: #000000; stroke-width: 0.8"/>
      </g>
     </g>
     <g id="text_16">
      <!-- 1.00 -->
      <g transform="translate(232.662589 303.028563) scale(0.1 -0.1)">
       <use xlink:href="#DejaVuSans-31"/>
       <use xlink:href="#DejaVuSans-2e" x="63.623047"/>
       <use xlink:href="#DejaVuSans-30" x="95.410156"/>
       <use xlink:href="#DejaVuSans-30" x="159.033203"/>
      </g>
     </g>
    </g>
    <g id="xtick_14">
     <g id="line2d_24">
      <g>
       <use xlink:href="#m10e5546df2" x="289.806533" y="288.430125" style="stroke: #000000; stroke-width: 0.8"/>
      </g>
     </g>
     <g id="text_17">
      <!-- 1.25 -->
      <g transform="translate(278.67372 303.028563) scale(0.1 -0.1)">
       <use xlink:href="#DejaVuSans-31"/>
       <use xlink:href="#DejaVuSans-2e" x="63.623047"/>
       <use xlink:href="#DejaVuSans-32" x="95.410156"/>
       <use xlink:href="#DejaVuSans-35" x="159.033203"/>
      </g>
     </g>
    </g>
    <g id="xtick_15">
     <g id="line2d_25">
      <g>
       <use xlink:href="#m10e5546df2" x="335.817665" y="288.430125" style="stroke: #000000; stroke-width: 0.8"/>
      </g>
     </g>
     <g id="text_18">
      <!-- 1.50 -->
      <g transform="translate(324.684852 303.028563) scale(0.1 -0.1)">
       <use xlink:href="#DejaVuSans-31"/>
       <use xlink:href="#DejaVuSans-2e" x="63.623047"/>
       <use xlink:href="#DejaVuSans-35" x="95.410156"/>
       <use xlink:href="#DejaVuSans-30" x="159.033203"/>
      </g>
     </g>
    </g>
    <g id="xtick_16">
     <g id="line2d_26">
      <g>
       <use xlink:href="#m10e5546df2" x="381.828796" y="288.430125" style="stroke: #000000; stroke-width: 0.8"/>
      </g>
     </g>
     <g id="text_19">
      <!-- 1.75 -->
      <g transform="translate(370.695984 303.028563) scale(0.1 -0.1)">
       <use xlink:href="#DejaVuSans-31"/>
       <use xlink:href="#DejaVuSans-2e" x="63.623047"/>
       <use xlink:href="#DejaVuSans-37" x="95.410156"/>
       <use xlink:href="#DejaVuSans-35" x="159.033203"/>
      </g>
     </g>
    </g>
    <g id="text_20">
     <!-- Input voltage (V) -->
     <g transform="translate(186.574063 316.706687) scale(0.1 -0.1)">
      <defs>
       <path id="DejaVuSans-6e" d="M 3513 2113 
L 3513 0 
L 2938 0 
L 2938 2094 
Q 2938 2591 2744 2837 
Q 2550 3084 2163 3084 
Q 1697 3084 1428 2787 
Q 1159 2491 1159 1978 
L 1159 0 
L 581 0 
L 581 3500 
L 1159 3500 
L 1159 2956 
Q 1366 3272 1645 3428 
Q 1925 3584 2291 3584 
Q 2894 3584 3203 3211 
Q 3513 2838 3513 2113 
z
" transform="scale(0.015625)"/>
      </defs>
      <use xlink:href="#DejaVuSans-49"/>
      <use xlink:href="#DejaVuSans-6e" x="29.492188"/>
      <use xlink:href="#DejaVuSans-70" x="92.871094"/>
      <use xlink:href="#DejaVuSans-75" x="156.347656"/>
      <use xlink:href="#DejaVuSans-74" x="219.726562"/>
      <use xlink:href="#DejaVuSans-20" x="258.935547"/>
      <use xlink:href="#DejaVuSans-76" x="290.722656"/>
      <use xlink:href="#DejaVuSans-6f" x="349.902344"/>
      <use xlink:href="#DejaVuSans-6c" x="411.083984"/>
      <use xlink:href="#DejaVuSans-74" x="438.867188"/>
      <use xlink:href="#DejaVuSans-61" x="478.076172"/>
      <use xlink:href="#DejaVuSans-67" x="539.355469"/>
      <use xlink:href="#DejaVuSans-65" x="602.832031"/>
      <use xlink:href="#DejaVuSans-20" x="664.355469"/>
      <use xlink:href="#DejaVuSans-28" x="696.142578"/>
      <use xlink:href="#DejaVuSans-56" x="735.15625"/>
      <use xlink:href="#DejaVuSans-29" x="803.564453"/>
     </g>
    </g>
   </g>
   <g id="matplotlib.axis_4">
    <g id="ytick_7">
     <g id="line2d_27">
      <g>
       <use xlink:href="#m84ad9c47a3" x="50.14375" y="282.315803" style="stroke: #000000; stroke-width: 0.8"/>
      </g>
     </g>
     <g id="text_21">
      <!-- 0.80 -->
      <g transform="translate(20.878125 286.115022) scale(0.1 -0.1)">
       <use xlink:href="#DejaVuSans-30"/>
       <use xlink:href="#DejaVuSans-2e" x="63.623047"/>
       <use xlink:href="#DejaVuSans-38" x="95.410156"/>
       <use xlink:href="#DejaVuSans-30" x="159.033203"/>
      </g>
     </g>
    </g>
    <g id="ytick_8">
     <g id="line2d_28">
      <g>
       <use xlink:href="#m84ad9c47a3" x="50.14375" y="254.978929" style="stroke: #000000; stroke-width: 0.8"/>
      </g>
     </g>
     <g id="text_22">
      <!-- 0.85 -->
      <g transform="translate(20.878125 258.778147) scale(0.1 -0.1)">
       <use xlink:href="#DejaVuSans-30"/>
       <use xlink:href="#DejaVuSans-2e" x="63.623047"/>
       <use xlink:href="#DejaVuSans-38" x="95.410156"/>
       <use xlink:href="#DejaVuSans-35" x="159.033203"/>
      </g>
     </g>
    </g>
    <g id="ytick_9">
     <g id="line2d_29">
      <g>
       <use xlink:href="#m84ad9c47a3" x="50.14375" y="227.642054" style="stroke: #000000; stroke-width: 0.8"/>
      </g>
     </g>
     <g id="text_23">
      <!-- 0.90 -->
      <g transform="translate(20.878125 231.441273) scale(0.1 -0.1)">
       <use xlink:href="#DejaVuSans-30"/>
       <use xlink:href="#DejaVuSans-2e" x="63.623047"/>
       <use xlink:href="#DejaVuSans-39" x="95.410156"/>
       <use xlink:href="#DejaVuSans-30" x="159.033203"/>
      </g>
     </g>
    </g>
    <g id="ytick_10">
     <g id="line2d_30">
      <g>
       <use xlink:href="#m84ad9c47a3" x="50.14375" y="200.30518" style="stroke: #000000; stroke-width: 0.8"/>
      </g>
     </g>
     <g id="text_24">
      <!-- 0.95 -->
      <g transform="translate(20.878125 204.104398) scale(0.1 -0.1)">
       <use xlink:href="#DejaVuSans-30"/>
       <use xlink:href="#DejaVuSans-2e" x="63.623047"/>
       <use xlink:href="#DejaVuSans-39" x="95.410156"/>
       <use xlink:href="#DejaVuSans-35" x="159.033203"/>
      </g>
     </g>
    </g>
    <g id="ytick_11">
     <g id="line2d_31">
      <g>
       <use xlink:href="#m84ad9c47a3" x="50.14375" y="172.968305" style="stroke: #000000; stroke-width: 0.8"/>
      </g>
     </g>
     <g id="text_25">
      <!-- 1.00 -->
      <g transform="translate(20.878125 176.767524) scale(0.1 -0.1)">
       <use xlink:href="#DejaVuSans-31"/>
       <use xlink:href="#DejaVuSans-2e" x="63.623047"/>
       <use xlink:href="#DejaVuSans-30" x="95.410156"/>
       <use xlink:href="#DejaVuSans-30" x="159.033203"/>
      </g>
     </g>
    </g>
    <g id="text_26">
     <!-- Output voltage (V) -->
     <g transform="translate(14.798438 274.500906) rotate(-90) scale(0.1 -0.1)">
      <use xlink:href="#DejaVuSans-4f"/>
      <use xlink:href="#DejaVuSans-75" x="78.710938"/>
      <use xlink:href="#DejaVuSans-74" x="142.089844"/>
      <use xlink:href="#DejaVuSans-70" x="181.298828"/>
      <use xlink:href="#DejaVuSans-75" x="244.775391"/>
      <use xlink:href="#DejaVuSans-74" x="308.154297"/>
      <use xlink:href="#DejaVuSans-20" x="347.363281"/>
      <use xlink:href="#DejaVuSans-76" x="379.150391"/>
      <use xlink:href="#DejaVuSans-6f" x="438.330078"/>
      <use xlink:href="#DejaVuSans-6c" x="499.511719"/>
      <use xlink:href="#DejaVuSans-74" x="527.294922"/>
      <use xlink:href="#DejaVuSans-61" x="566.503906"/>
      <use xlink:href="#DejaVuSans-67" x="627.783203"/>
      <use xlink:href="#DejaVuSans-65" x="691.259766"/>
      <use xlink:href="#DejaVuSans-20" x="752.783203"/>
      <use xlink:href="#DejaVuSans-28" x="784.570312"/>
      <use xlink:href="#DejaVuSans-56" x="823.583984"/>
      <use xlink:href="#DejaVuSans-29" x="891.992188"/>
     </g>
    </g>
   </g>
   <g id="line2d_32">
    <path d="M 66.376477 282.931943 
L 73.00208 282.777266 
L 79.627683 282.596072 
L 86.253286 282.382255 
L 92.878889 282.128017 
L 99.504492 281.823329 
L 106.130095 281.455163 
L 112.755698 281.006379 
L 119.381301 280.454178 
L 126.006904 279.768611 
L 132.632507 278.9124 
L 139.25811 277.840086 
L 145.883713 276.492727 
L 152.509316 274.798772 
L 159.134919 272.688327 
L 165.760522 270.109331 
L 172.386125 267.036039 
L 179.011728 263.468687 
L 185.637331 259.428572 
L 192.262934 254.952463 
L 198.888537 250.08791 
L 205.51414 244.889705 
L 212.139743 239.417398 
L 218.765346 233.733768 
L 225.390949 227.904133 
L 232.016551 221.996379 
L 238.642154 216.081514 
L 245.267757 210.234578 
L 251.89336 204.535671 
L 258.518963 199.070734 
L 265.144566 193.931611 
L 271.770169 189.214639 
L 278.395772 185.016866 
L 285.021375 181.428777 
L 291.646978 178.522029 
L 298.272581 176.330341 
L 304.898184 174.825212 
L 311.523787 173.901766 
L 318.14939 173.399669 
L 324.774993 173.155499 
L 331.400596 172.995007 
L 338.026199 172.978161 
L 344.651802 172.973707 
L 351.277405 172.972464 
L 357.903008 172.972108 
L 364.528611 172.972003 
L 371.154214 172.97197 
L 377.779817 172.971958 
L 384.40542 172.971954 
L 391.031023 172.971953 
" clip-path="url(#pb890500a97)" style="fill: none; stroke: #1f77b4; stroke-linecap: square"/>
    <g clip-path="url(#pb890500a97)">
     <use xlink:href="#me295202559" x="66.376477" y="282.931943" style="fill: #1f77b4; stroke: #1f77b4"/>
     <use xlink:href="#me295202559" x="73.00208" y="282.777266" style="fill: #1f77b4; stroke: #1f77b4"/>
     <use xlink:href="#me295202559" x="79.627683" y="282.596072" style="fill: #1f77b4; stroke: #1f77b4"/>
     <use xlink:href="#me295202559" x="86.253286" y="282.382255" style="fill: #1f77b4; stroke: #1f77b4"/>
     <use xlink:href="#me295202559" x="92.878889" y="282.128017" style="fill: #1f77b4; stroke: #1f77b4"/>
     <use xlink:href="#me295202559" x="99.504492" y="281.823329" style="fill: #1f77b4; stroke: #1f77b4"/>
     <use xlink:href="#me295202559" x="106.130095" y="281.455163" style="fill: #1f77b4; stroke: #1f77b4"/>
     <use xlink:href="#me295202559" x="112.755698" y="281.006379" style="fill: #1f77b4; stroke: #1f77b4"/>
     <use xlink:href="#me295202559" x="119.381301" y="280.454178" style="fill: #1f77b4; stroke: #1f77b4"/>
     <use xlink:href="#me295202559" x="126.006904" y="279.768611" style="fill: #1f77b4; stroke: #1f77b4"/>
     <use xlink:href="#me295202559" x="132.632507" y="278.9124" style="fill: #1f77b4; stroke: #1f77b4"/>
     <use xlink:href="#me295202559" x="139.25811" y="277.840086" style="fill: #1f77b4; stroke: #1f77b4"/>
     <use xlink:href="#me295202559" x="145.883713" y="276.492727" style="fill: #1f77b4; stroke: #1f77b4"/>
     <use xlink:href="#me295202559" x="152.509316" y="274.798772" style="fill: #1f77b4; stroke: #1f77b4"/>
     <use xlink:href="#me295202559" x="159.134919" y="272.688327" style="fill: #1f77b4; stroke: #1f77b4"/>
     <use xlink:href="#me295202559" x="165.760522" y="270.109331" style="fill: #1f77b4; stroke: #1f77b4"/>
     <use xlink:href="#me295202559" x="172.386125" y="267.036039" style="fill: #1f77b4; stroke: #1f77b4"/>
     <use xlink:href="#me295202559" x="179.011728" y="263.468687" style="fill: #1f77b4; stroke: #1f77b4"/>
     <use xlink:href="#me295202559" x="185.637331" y="259.428572" style="fill: #1f77b4; stroke: #1f77b4"/>
     <use xlink:href="#me295202559" x="192.262934" y="254.952463" style="fill: #1f77b4; stroke: #1f77b4"/>
     <use xlink:href="#me295202559" x="198.888537" y="250.08791" style="fill: #1f77b4; stroke: #1f77b4"/>
     <use xlink:href="#me295202559" x="205.51414" y="244.889705" style="fill: #1f77b4; stroke: #1f77b4"/>
     <use xlink:href="#me295202559" x="212.139743" y="239.417398" style="fill: #1f77b4; stroke: #1f77b4"/>
     <use xlink:href="#me295202559" x="218.765346" y="233.733768" style="fill: #1f77b4; stroke: #1f77b4"/>
     <use xlink:href="#me295202559" x="225.390949" y="227.904133" style="fill: #1f77b4; stroke: #1f77b4"/>
     <use xlink:href="#me295202559" x="232.016551" y="221.996379" style="fill: #1f77b4; stroke: #1f77b4"/>
     <use xlink:href="#me295202559" x="238.642154" y="216.081514" style="fill: #1f77b4; stroke: #1f77b4"/>
     <use xlink:href="#me295202559" x="245.267757" y="210.234578" style="fill: #1f77b4; stroke: #1f77b4"/>
     <use xlink:href="#me295202559" x="251.89336" y="204.535671" style="fill: #1f77b4; stroke: #1f77b4"/>
     <use xlink:href="#me295202559" x="258.518963" y="199.070734" style="fill: #1f77b4; stroke: #1f77b4"/>
     <use xlink:href="#me295202559" x="265.144566" y="193.931611" style="fill: #1f77b4; stroke: #1f77b4"/>
     <use xlink:href="#me295202559" x="271.770169" y="189.214639" style="fill: #1f77b4; stroke: #1f77b4"/>
     <use xlink:href="#me295202559" x="278.395772" y="185.016866" style="fill: #1f77b4; stroke: #1f77b4"/>
     <use xlink:href="#me295202559" x="285.021375" y="181.428777" style="fill: #1f77b4; stroke: #1f77b4"/>
     <use xlink:href="#me295202559" x="291.646978" y="178.522029" style="fill: #1f77b4; stroke: #1f77b4"/>
     <use xlink:href="#me295202559" x="298.272581" y="176.330341" style="fill: #1f77b4; stroke: #1f77b4"/>
     <use xlink:href="#me295202559" x="304.898184" y="174.825212" style="fill: #1f77b4; stroke: #1f77b4"/>
     <use xlink:href="#me295202559" x="311.523787" y="173.901766" style="fill: #1f77b4; stroke: #1f77b4"/>
     <use xlink:href="#me295202559" x="318.14939" y="173.399669" style="fill: #1f77b4; stroke: #1f77b4"/>
     <use xlink:href="#me295202559" x="324.774993" y="173.155499" style="fill: #1f77b4; stroke: #1f77b4"/>
     <use xlink:href="#me295202559" x="331.400596" y="172.995007" style="fill: #1f77b4; stroke: #1f77b4"/>
     <use xlink:href="#me295202559" x="338.026199" y="172.978161" style="fill: #1f77b4; stroke: #1f77b4"/>
     <use xlink:href="#me295202559" x="344.651802" y="172.973707" style="fill: #1f77b4; stroke: #1f77b4"/>
     <use xlink:href="#me295202559" x="351.277405" y="172.972464" style="fill: #1f77b4; stroke: #1f77b4"/>
     <use xlink:href="#me295202559" x="357.903008" y="172.972108" style="fill: #1f77b4; stroke: #1f77b4"/>
     <use xlink:href="#me295202559" x="364.528611" y="172.972003" style="fill: #1f77b4; stroke: #1f77b4"/>
     <use xlink:href="#me295202559" x="371.154214" y="172.97197" style="fill: #1f77b4; stroke: #1f77b4"/>
     <use xlink:href="#me295202559" x="377.779817" y="172.971958" style="fill: #1f77b4; stroke: #1f77b4"/>
     <use xlink:href="#me295202559" x="384.40542" y="172.971954" style="fill: #1f77b4; stroke: #1f77b4"/>
     <use xlink:href="#me295202559" x="391.031023" y="172.971953" style="fill: #1f77b4; stroke: #1f77b4"/>
    </g>
   </g>
   <g id="line2d_33">
    <path d="M 66.376477 282.3158 
L 73.00208 282.315796 
L 79.627683 282.315789 
L 86.253286 282.315774 
L 92.878889 282.315742 
L 99.504492 282.315678 
L 106.130095 282.315546 
L 112.755698 282.315275 
L 119.381301 282.314717 
L 126.006904 282.313573 
L 132.632507 282.311221 
L 139.25811 282.306389 
L 145.883713 282.296464 
L 152.509316 282.27608 
L 159.134919 282.234227 
L 165.760522 282.148342 
L 172.386125 281.972319 
L 179.011728 281.612468 
L 185.637331 280.880582 
L 192.262934 279.407488 
L 198.888537 276.503859 
L 205.51414 271.009223 
L 212.139743 261.370799 
L 218.765346 246.5162 
L 225.390949 227.642054 
L 232.016551 208.767909 
L 238.642154 193.91331 
L 245.267757 184.274886 
L 251.89336 178.780249 
L 258.518963 175.87662 
L 265.144566 174.403526 
L 271.770169 173.67164 
L 278.395772 173.311789 
L 285.021375 173.135767 
L 291.646978 173.049882 
L 298.272581 173.008028 
L 304.898184 172.987644 
L 311.523787 172.977719 
L 318.14939 172.972888 
L 324.774993 172.970536 
L 331.400596 172.969391 
L 338.026199 172.968834 
L 344.651802 172.968562 
L 351.277405 172.96843 
L 357.903008 172.968366 
L 364.528611 172.968335 
L 371.154214 172.96832 
L 377.779817 172.968312 
L 384.40542 172.968309 
L 391.031023 172.968307 
" clip-path="url(#pb890500a97)" style="fill: none; stroke: #ff7f0e; stroke-linecap: square"/>
   </g>
   <g id="patch_10">
    <path d="M 50.14375 288.430125 
L 50.14375 167.470125 
" style="fill: none; stroke: #000000; stroke-width: 0.8; stroke-linejoin: miter; stroke-linecap: square"/>
   </g>
   <g id="patch_11">
    <path d="M 407.26375 288.430125 
L 407.26375 167.470125 
" style="fill: none; stroke: #000000; stroke-width: 0.8; stroke-linejoin: miter; stroke-linecap: square"/>
   </g>
   <g id="patch_12">
    <path d="M 50.14375 288.430125 
L 407.26375 288.430125 
" style="fill: none; stroke: #000000; stroke-width: 0.8; stroke-linejoin: miter; stroke-linecap: square"/>
   </g>
   <g id="patch_13">
    <path d="M 50.14375 167.470125 
L 407.26375 167.470125 
" style="fill: none; stroke: #000000; stroke-width: 0.8; stroke-linejoin: miter; stroke-linecap: square"/>
   </g>
   <g id="text_27">
    <g id="patch_14">
     <path d="M 312.861961 235.481117 
L 395.582274 235.481117 
Q 398.582274 235.481117 398.582274 232.481117 
L 398.582274 222.802992 
Q 398.582274 219.802992 395.582274 219.802992 
L 312.861961 219.802992 
Q 309.861961 219.802992 309.861961 222.802992 
L 309.861961 232.481117 
Q 309.861961 235.481117 312.861961 235.481117 
z
" style="fill: #ffffff; stroke: #000000; stroke-width: 0.5; stroke-linejoin: miter"/>
    </g>
    <!-- RSME : 2.23e-02 -->
    <g transform="translate(312.861961 230.401429) scale(0.1 -0.1)">
     <use xlink:href="#DejaVuSans-52"/>
     <use xlink:href="#DejaVuSans-53" x="69.482422"/>
     <use xlink:href="#DejaVuSans-4d" x="132.958984"/>
     <use xlink:href="#DejaVuSans-45" x="219.238281"/>
     <use xlink:href="#DejaVuSans-20" x="282.421875"/>
     <use xlink:href="#DejaVuSans-3a" x="314.208984"/>
     <use xlink:href="#DejaVuSans-20" x="347.900391"/>
     <use xlink:href="#DejaVuSans-32" x="379.6875"/>
     <use xlink:href="#DejaVuSans-2e" x="443.310547"/>
     <use xlink:href="#DejaVuSans-32" x="475.097656"/>
     <use xlink:href="#DejaVuSans-33" x="538.720703"/>
     <use xlink:href="#DejaVuSans-65" x="602.34375"/>
     <use xlink:href="#DejaVuSans-2d" x="663.867188"/>
     <use xlink:href="#DejaVuSans-30" x="699.951172"/>
     <use xlink:href="#DejaVuSans-32" x="763.574219"/>
    </g>
   </g>
   <g id="text_28">
    <!-- tanh -->
    <g transform="translate(215.069688 161.470125) scale(0.12 -0.12)">
     <defs>
      <path id="DejaVuSans-68" d="M 3513 2113 
L 3513 0 
L 2938 0 
L 2938 2094 
Q 2938 2591 2744 2837 
Q 2550 3084 2163 3084 
Q 1697 3084 1428 2787 
Q 1159 2491 1159 1978 
L 1159 0 
L 581 0 
L 581 4863 
L 1159 4863 
L 1159 2956 
Q 1366 3272 1645 3428 
Q 1925 3584 2291 3584 
Q 2894 3584 3203 3211 
Q 3513 2838 3513 2113 
z
" transform="scale(0.015625)"/>
     </defs>
     <use xlink:href="#DejaVuSans-74"/>
     <use xlink:href="#DejaVuSans-61" x="39.208984"/>
     <use xlink:href="#DejaVuSans-6e" x="100.488281"/>
     <use xlink:href="#DejaVuSans-68" x="163.867188"/>
    </g>
   </g>
   <g id="legend_2">
    <g id="patch_15">
     <path d="M 57.14375 204.826375 
L 165.44375 204.826375 
Q 167.44375 204.826375 167.44375 202.826375 
L 167.44375 174.470125 
Q 167.44375 172.470125 165.44375 172.470125 
L 57.14375 172.470125 
Q 55.14375 172.470125 55.14375 174.470125 
L 55.14375 202.826375 
Q 55.14375 204.826375 57.14375 204.826375 
z
" style="fill: #ffffff; opacity: 0.8; stroke: #cccccc; stroke-linejoin: miter"/>
    </g>
    <g id="line2d_34">
     <path d="M 59.14375 180.568562 
L 69.14375 180.568562 
L 79.14375 180.568562 
" style="fill: none; stroke: #1f77b4; stroke-linecap: square"/>
     <g>
      <use xlink:href="#me295202559" x="69.14375" y="180.568562" style="fill: #1f77b4; stroke: #1f77b4"/>
     </g>
    </g>
    <g id="text_29">
     <!-- Circuit's output -->
     <g transform="translate(87.14375 184.068562) scale(0.1 -0.1)">
      <use xlink:href="#DejaVuSans-43"/>
      <use xlink:href="#DejaVuSans-69" x="69.824219"/>
      <use xlink:href="#DejaVuSans-72" x="97.607422"/>
      <use xlink:href="#DejaVuSans-63" x="136.470703"/>
      <use xlink:href="#DejaVuSans-75" x="191.451172"/>
      <use xlink:href="#DejaVuSans-69" x="254.830078"/>
      <use xlink:href="#DejaVuSans-74" x="282.613281"/>
      <use xlink:href="#DejaVuSans-27" x="321.822266"/>
      <use xlink:href="#DejaVuSans-73" x="349.3125"/>
      <use xlink:href="#DejaVuSans-20" x="401.412109"/>
      <use xlink:href="#DejaVuSans-6f" x="433.199219"/>
      <use xlink:href="#DejaVuSans-75" x="494.380859"/>
      <use xlink:href="#DejaVuSans-74" x="557.759766"/>
      <use xlink:href="#DejaVuSans-70" x="596.96875"/>
      <use xlink:href="#DejaVuSans-75" x="660.445312"/>
      <use xlink:href="#DejaVuSans-74" x="723.824219"/>
     </g>
    </g>
    <g id="line2d_35">
     <path d="M 59.14375 195.246687 
L 69.14375 195.246687 
L 79.14375 195.246687 
" style="fill: none; stroke: #ff7f0e; stroke-linecap: square"/>
    </g>
    <g id="text_30">
     <!-- Ideal output -->
     <g transform="translate(87.14375 198.746687) scale(0.1 -0.1)">
      <use xlink:href="#DejaVuSans-49"/>
      <use xlink:href="#DejaVuSans-64" x="29.492188"/>
      <use xlink:href="#DejaVuSans-65" x="92.96875"/>
      <use xlink:href="#DejaVuSans-61" x="154.492188"/>
      <use xlink:href="#DejaVuSans-6c" x="215.771484"/>
      <use xlink:href="#DejaVuSans-20" x="243.554688"/>
      <use xlink:href="#DejaVuSans-6f" x="275.341797"/>
      <use xlink:href="#DejaVuSans-75" x="336.523438"/>
      <use xlink:href="#DejaVuSans-74" x="399.902344"/>
      <use xlink:href="#DejaVuSans-70" x="439.111328"/>
      <use xlink:href="#DejaVuSans-75" x="502.587891"/>
      <use xlink:href="#DejaVuSans-74" x="565.966797"/>
     </g>
    </g>
   </g>
  </g>
 </g>
 <defs>
  <clipPath id="p1f524ac9c4">
   <rect x="50.14375" y="22.318125" width="357.12" height="120.96"/>
  </clipPath>
  <clipPath id="pb890500a97">
   <rect x="50.14375" y="167.470125" width="357.12" height="120.96"/>
  </clipPath>
 </defs>
</svg>
