<?xml version="1.0" encoding="utf-8" standalone="no"?>
<!DOCTYPE svg PUBLIC "-//W3C//DTD SVG 1.1//EN"
  "http://www.w3.org/Graphics/SVG/1.1/DTD/svg11.dtd">
<svg xmlns:xlink="http://www.w3.org/1999/xlink" width="460.8pt" height="345.6pt" viewBox="0 0 460.8 345.6" xmlns="http://www.w3.org/2000/svg" version="1.1">
 <metadata>
  <rdf:RDF xmlns:dc="http://purl.org/dc/elements/1.1/" xmlns:cc="http://creativecommons.org/ns#" xmlns:rdf="http://www.w3.org/1999/02/22-rdf-syntax-ns#">
   <cc:Work>
    <dc:type rdf:resource="http://purl.org/dc/dcmitype/StillImage"/>
    <dc:date>2023-09-06T09:49:36.893847</dc:date>
    <dc:format>image/svg+xml</dc:format>
    <dc:creator>
     <cc:Agent>
      <dc:title>Matplotlib v3.7.2, https://matplotlib.org/</dc:title>
     </cc:Agent>
    </dc:creator>
   </cc:Work>
  </rdf:RDF>
 </metadata>
 <defs>
  <style type="text/css">*{stroke-linejoin: round; stroke-linecap: butt}</style>
 </defs>
 <g id="figure_1">
  <g id="patch_1">
   <path d="M 0 345.6 
L 460.8 345.6 
L 460.8 0 
L 0 0 
z
" style="fill: #ffffff"/>
  </g>
  <g id="axes_1">
   <g id="patch_2">
    <path d="M 57.6 162.432 
L 414.72 162.432 
L 414.72 41.472 
L 57.6 41.472 
z
" style="fill: #ffffff"/>
   </g>
   <g id="matplotlib.axis_1">
    <g id="xtick_1">
     <g id="line2d_1">
      <defs>
       <path id="m37d33bfe47" d="M 0 0 
L 0 3.5 
" style="stroke: #000000; stroke-width: 0.8"/>
      </defs>
      <g>
       <use xlink:href="#m37d33bfe47" x="67.207124" y="162.432" style="stroke: #000000; stroke-width: 0.8"/>
      </g>
     </g>
    </g>
    <g id="xtick_2">
     <g id="line2d_2">
      <g>
       <use xlink:href="#m37d33bfe47" x="113.218256" y="162.432" style="stroke: #000000; stroke-width: 0.8"/>
      </g>
     </g>
    </g>
    <g id="xtick_3">
     <g id="line2d_3">
      <g>
       <use xlink:href="#m37d33bfe47" x="159.229388" y="162.432" style="stroke: #000000; stroke-width: 0.8"/>
      </g>
     </g>
    </g>
    <g id="xtick_4">
     <g id="line2d_4">
      <g>
       <use xlink:href="#m37d33bfe47" x="205.240519" y="162.432" style="stroke: #000000; stroke-width: 0.8"/>
      </g>
     </g>
    </g>
    <g id="xtick_5">
     <g id="line2d_5">
      <g>
       <use xlink:href="#m37d33bfe47" x="251.251651" y="162.432" style="stroke: #000000; stroke-width: 0.8"/>
      </g>
     </g>
    </g>
    <g id="xtick_6">
     <g id="line2d_6">
      <g>
       <use xlink:href="#m37d33bfe47" x="297.262783" y="162.432" style="stroke: #000000; stroke-width: 0.8"/>
      </g>
     </g>
    </g>
    <g id="xtick_7">
     <g id="line2d_7">
      <g>
       <use xlink:href="#m37d33bfe47" x="343.273915" y="162.432" style="stroke: #000000; stroke-width: 0.8"/>
      </g>
     </g>
    </g>
    <g id="xtick_8">
     <g id="line2d_8">
      <g>
       <use xlink:href="#m37d33bfe47" x="389.285046" y="162.432" style="stroke: #000000; stroke-width: 0.8"/>
      </g>
     </g>
    </g>
   </g>
   <g id="matplotlib.axis_2">
    <g id="ytick_1">
     <g id="line2d_9">
      <defs>
       <path id="m55afe6cd5d" d="M 0 0 
L -3.5 0 
" style="stroke: #000000; stroke-width: 0.8"/>
      </defs>
      <g>
       <use xlink:href="#m55afe6cd5d" x="57.6" y="156.310725" style="stroke: #000000; stroke-width: 0.8"/>
      </g>
     </g>
     <g id="text_1">
      <!-- 0.90 -->
      <g transform="translate(28.334375 160.109944) scale(0.1 -0.1)">
       <defs>
        <path id="DejaVuSans-30" d="M 2034 4250 
Q 1547 4250 1301 3770 
Q 1056 3291 1056 2328 
Q 1056 1369 1301 889 
Q 1547 409 2034 409 
Q 2525 409 2770 889 
Q 3016 1369 3016 2328 
Q 3016 3291 2770 3770 
Q 2525 4250 2034 4250 
z
M 2034 4750 
Q 2819 4750 3233 4129 
Q 3647 3509 3647 2328 
Q 3647 1150 3233 529 
Q 2819 -91 2034 -91 
Q 1250 -91 836 529 
Q 422 1150 422 2328 
Q 422 3509 836 4129 
Q 1250 4750 2034 4750 
z
" transform="scale(0.015625)"/>
        <path id="DejaVuSans-2e" d="M 684 794 
L 1344 794 
L 1344 0 
L 684 0 
L 684 794 
z
" transform="scale(0.015625)"/>
        <path id="DejaVuSans-39" d="M 703 97 
L 703 672 
Q 941 559 1184 500 
Q 1428 441 1663 441 
Q 2288 441 2617 861 
Q 2947 1281 2994 2138 
Q 2813 1869 2534 1725 
Q 2256 1581 1919 1581 
Q 1219 1581 811 2004 
Q 403 2428 403 3163 
Q 403 3881 828 4315 
Q 1253 4750 1959 4750 
Q 2769 4750 3195 4129 
Q 3622 3509 3622 2328 
Q 3622 1225 3098 567 
Q 2575 -91 1691 -91 
Q 1453 -91 1209 -44 
Q 966 3 703 97 
z
M 1959 2075 
Q 2384 2075 2632 2365 
Q 2881 2656 2881 3163 
Q 2881 3666 2632 3958 
Q 2384 4250 1959 4250 
Q 1534 4250 1286 3958 
Q 1038 3666 1038 3163 
Q 1038 2656 1286 2365 
Q 1534 2075 1959 2075 
z
" transform="scale(0.015625)"/>
       </defs>
       <use xlink:href="#DejaVuSans-30"/>
       <use xlink:href="#DejaVuSans-2e" x="63.623047"/>
       <use xlink:href="#DejaVuSans-39" x="95.410156"/>
       <use xlink:href="#DejaVuSans-30" x="159.033203"/>
      </g>
     </g>
    </g>
    <g id="ytick_2">
     <g id="line2d_10">
      <g>
       <use xlink:href="#m55afe6cd5d" x="57.6" y="134.440575" style="stroke: #000000; stroke-width: 0.8"/>
      </g>
     </g>
     <g id="text_2">
      <!-- 0.92 -->
      <g transform="translate(28.334375 138.239793) scale(0.1 -0.1)">
       <defs>
        <path id="DejaVuSans-32" d="M 1228 531 
L 3431 531 
L 3431 0 
L 469 0 
L 469 531 
Q 828 903 1448 1529 
Q 2069 2156 2228 2338 
Q 2531 2678 2651 2914 
Q 2772 3150 2772 3378 
Q 2772 3750 2511 3984 
Q 2250 4219 1831 4219 
Q 1534 4219 1204 4116 
Q 875 4013 500 3803 
L 500 4441 
Q 881 4594 1212 4672 
Q 1544 4750 1819 4750 
Q 2544 4750 2975 4387 
Q 3406 4025 3406 3419 
Q 3406 3131 3298 2873 
Q 3191 2616 2906 2266 
Q 2828 2175 2409 1742 
Q 1991 1309 1228 531 
z
" transform="scale(0.015625)"/>
       </defs>
       <use xlink:href="#DejaVuSans-30"/>
       <use xlink:href="#DejaVuSans-2e" x="63.623047"/>
       <use xlink:href="#DejaVuSans-39" x="95.410156"/>
       <use xlink:href="#DejaVuSans-32" x="159.033203"/>
      </g>
     </g>
    </g>
    <g id="ytick_3">
     <g id="line2d_11">
      <g>
       <use xlink:href="#m55afe6cd5d" x="57.6" y="112.570424" style="stroke: #000000; stroke-width: 0.8"/>
      </g>
     </g>
     <g id="text_3">
      <!-- 0.94 -->
      <g transform="translate(28.334375 116.369643) scale(0.1 -0.1)">
       <defs>
        <path id="DejaVuSans-34" d="M 2419 4116 
L 825 1625 
L 2419 1625 
L 2419 4116 
z
M 2253 4666 
L 3047 4666 
L 3047 1625 
L 3713 1625 
L 3713 1100 
L 3047 1100 
L 3047 0 
L 2419 0 
L 2419 1100 
L 313 1100 
L 313 1709 
L 2253 4666 
z
" transform="scale(0.015625)"/>
       </defs>
       <use xlink:href="#DejaVuSans-30"/>
       <use xlink:href="#DejaVuSans-2e" x="63.623047"/>
       <use xlink:href="#DejaVuSans-39" x="95.410156"/>
       <use xlink:href="#DejaVuSans-34" x="159.033203"/>
      </g>
     </g>
    </g>
    <g id="ytick_4">
     <g id="line2d_12">
      <g>
       <use xlink:href="#m55afe6cd5d" x="57.6" y="90.700274" style="stroke: #000000; stroke-width: 0.8"/>
      </g>
     </g>
     <g id="text_4">
      <!-- 0.96 -->
      <g transform="translate(28.334375 94.499493) scale(0.1 -0.1)">
       <defs>
        <path id="DejaVuSans-36" d="M 2113 2584 
Q 1688 2584 1439 2293 
Q 1191 2003 1191 1497 
Q 1191 994 1439 701 
Q 1688 409 2113 409 
Q 2538 409 2786 701 
Q 3034 994 3034 1497 
Q 3034 2003 2786 2293 
Q 2538 2584 2113 2584 
z
M 3366 4563 
L 3366 3988 
Q 3128 4100 2886 4159 
Q 2644 4219 2406 4219 
Q 1781 4219 1451 3797 
Q 1122 3375 1075 2522 
Q 1259 2794 1537 2939 
Q 1816 3084 2150 3084 
Q 2853 3084 3261 2657 
Q 3669 2231 3669 1497 
Q 3669 778 3244 343 
Q 2819 -91 2113 -91 
Q 1303 -91 875 529 
Q 447 1150 447 2328 
Q 447 3434 972 4092 
Q 1497 4750 2381 4750 
Q 2619 4750 2861 4703 
Q 3103 4656 3366 4563 
z
" transform="scale(0.015625)"/>
       </defs>
       <use xlink:href="#DejaVuSans-30"/>
       <use xlink:href="#DejaVuSans-2e" x="63.623047"/>
       <use xlink:href="#DejaVuSans-39" x="95.410156"/>
       <use xlink:href="#DejaVuSans-36" x="159.033203"/>
      </g>
     </g>
    </g>
    <g id="ytick_5">
     <g id="line2d_13">
      <g>
       <use xlink:href="#m55afe6cd5d" x="57.6" y="68.830123" style="stroke: #000000; stroke-width: 0.8"/>
      </g>
     </g>
     <g id="text_5">
      <!-- 0.98 -->
      <g transform="translate(28.334375 72.629342) scale(0.1 -0.1)">
       <defs>
        <path id="DejaVuSans-38" d="M 2034 2216 
Q 1584 2216 1326 1975 
Q 1069 1734 1069 1313 
Q 1069 891 1326 650 
Q 1584 409 2034 409 
Q 2484 409 2743 651 
Q 3003 894 3003 1313 
Q 3003 1734 2745 1975 
Q 2488 2216 2034 2216 
z
M 1403 2484 
Q 997 2584 770 2862 
Q 544 3141 544 3541 
Q 544 4100 942 4425 
Q 1341 4750 2034 4750 
Q 2731 4750 3128 4425 
Q 3525 4100 3525 3541 
Q 3525 3141 3298 2862 
Q 3072 2584 2669 2484 
Q 3125 2378 3379 2068 
Q 3634 1759 3634 1313 
Q 3634 634 3220 271 
Q 2806 -91 2034 -91 
Q 1263 -91 848 271 
Q 434 634 434 1313 
Q 434 1759 690 2068 
Q 947 2378 1403 2484 
z
M 1172 3481 
Q 1172 3119 1398 2916 
Q 1625 2713 2034 2713 
Q 2441 2713 2670 2916 
Q 2900 3119 2900 3481 
Q 2900 3844 2670 4047 
Q 2441 4250 2034 4250 
Q 1625 4250 1398 4047 
Q 1172 3844 1172 3481 
z
" transform="scale(0.015625)"/>
       </defs>
       <use xlink:href="#DejaVuSans-30"/>
       <use xlink:href="#DejaVuSans-2e" x="63.623047"/>
       <use xlink:href="#DejaVuSans-39" x="95.410156"/>
       <use xlink:href="#DejaVuSans-38" x="159.033203"/>
      </g>
     </g>
    </g>
    <g id="ytick_6">
     <g id="line2d_14">
      <g>
       <use xlink:href="#m55afe6cd5d" x="57.6" y="46.959973" style="stroke: #000000; stroke-width: 0.8"/>
      </g>
     </g>
     <g id="text_6">
      <!-- 1.00 -->
      <g transform="translate(28.334375 50.759192) scale(0.1 -0.1)">
       <defs>
        <path id="DejaVuSans-31" d="M 794 531 
L 1825 531 
L 1825 4091 
L 703 3866 
L 703 4441 
L 1819 4666 
L 2450 4666 
L 2450 531 
L 3481 531 
L 3481 0 
L 794 0 
L 794 531 
z
" transform="scale(0.015625)"/>
       </defs>
       <use xlink:href="#DejaVuSans-31"/>
       <use xlink:href="#DejaVuSans-2e" x="63.623047"/>
       <use xlink:href="#DejaVuSans-30" x="95.410156"/>
       <use xlink:href="#DejaVuSans-30" x="159.033203"/>
      </g>
     </g>
    </g>
    <g id="text_7">
     <!-- Output voltage (V) -->
     <g transform="translate(22.254687 148.502781) rotate(-90) scale(0.1 -0.1)">
      <defs>
       <path id="DejaVuSans-4f" d="M 2522 4238 
Q 1834 4238 1429 3725 
Q 1025 3213 1025 2328 
Q 1025 1447 1429 934 
Q 1834 422 2522 422 
Q 3209 422 3611 934 
Q 4013 1447 4013 2328 
Q 4013 3213 3611 3725 
Q 3209 4238 2522 4238 
z
M 2522 4750 
Q 3503 4750 4090 4092 
Q 4678 3434 4678 2328 
Q 4678 1225 4090 567 
Q 3503 -91 2522 -91 
Q 1538 -91 948 565 
Q 359 1222 359 2328 
Q 359 3434 948 4092 
Q 1538 4750 2522 4750 
z
" transform="scale(0.015625)"/>
       <path id="DejaVuSans-75" d="M 544 1381 
L 544 3500 
L 1119 3500 
L 1119 1403 
Q 1119 906 1312 657 
Q 1506 409 1894 409 
Q 2359 409 2629 706 
Q 2900 1003 2900 1516 
L 2900 3500 
L 3475 3500 
L 3475 0 
L 2900 0 
L 2900 538 
Q 2691 219 2414 64 
Q 2138 -91 1772 -91 
Q 1169 -91 856 284 
Q 544 659 544 1381 
z
M 1991 3584 
L 1991 3584 
z
" transform="scale(0.015625)"/>
       <path id="DejaVuSans-74" d="M 1172 4494 
L 1172 3500 
L 2356 3500 
L 2356 3053 
L 1172 3053 
L 1172 1153 
Q 1172 725 1289 603 
Q 1406 481 1766 481 
L 2356 481 
L 2356 0 
L 1766 0 
Q 1100 0 847 248 
Q 594 497 594 1153 
L 594 3053 
L 172 3053 
L 172 3500 
L 594 3500 
L 594 4494 
L 1172 4494 
z
" transform="scale(0.015625)"/>
       <path id="DejaVuSans-70" d="M 1159 525 
L 1159 -1331 
L 581 -1331 
L 581 3500 
L 1159 3500 
L 1159 2969 
Q 1341 3281 1617 3432 
Q 1894 3584 2278 3584 
Q 2916 3584 3314 3078 
Q 3713 2572 3713 1747 
Q 3713 922 3314 415 
Q 2916 -91 2278 -91 
Q 1894 -91 1617 61 
Q 1341 213 1159 525 
z
M 3116 1747 
Q 3116 2381 2855 2742 
Q 2594 3103 2138 3103 
Q 1681 3103 1420 2742 
Q 1159 2381 1159 1747 
Q 1159 1113 1420 752 
Q 1681 391 2138 391 
Q 2594 391 2855 752 
Q 3116 1113 3116 1747 
z
" transform="scale(0.015625)"/>
       <path id="DejaVuSans-20" transform="scale(0.015625)"/>
       <path id="DejaVuSans-76" d="M 191 3500 
L 800 3500 
L 1894 563 
L 2988 3500 
L 3597 3500 
L 2284 0 
L 1503 0 
L 191 3500 
z
" transform="scale(0.015625)"/>
       <path id="DejaVuSans-6f" d="M 1959 3097 
Q 1497 3097 1228 2736 
Q 959 2375 959 1747 
Q 959 1119 1226 758 
Q 1494 397 1959 397 
Q 2419 397 2687 759 
Q 2956 1122 2956 1747 
Q 2956 2369 2687 2733 
Q 2419 3097 1959 3097 
z
M 1959 3584 
Q 2709 3584 3137 3096 
Q 3566 2609 3566 1747 
Q 3566 888 3137 398 
Q 2709 -91 1959 -91 
Q 1206 -91 779 398 
Q 353 888 353 1747 
Q 353 2609 779 3096 
Q 1206 3584 1959 3584 
z
" transform="scale(0.015625)"/>
       <path id="DejaVuSans-6c" d="M 603 4863 
L 1178 4863 
L 1178 0 
L 603 0 
L 603 4863 
z
" transform="scale(0.015625)"/>
       <path id="DejaVuSans-61" d="M 2194 1759 
Q 1497 1759 1228 1600 
Q 959 1441 959 1056 
Q 959 750 1161 570 
Q 1363 391 1709 391 
Q 2188 391 2477 730 
Q 2766 1069 2766 1631 
L 2766 1759 
L 2194 1759 
z
M 3341 1997 
L 3341 0 
L 2766 0 
L 2766 531 
Q 2569 213 2275 61 
Q 1981 -91 1556 -91 
Q 1019 -91 701 211 
Q 384 513 384 1019 
Q 384 1609 779 1909 
Q 1175 2209 1959 2209 
L 2766 2209 
L 2766 2266 
Q 2766 2663 2505 2880 
Q 2244 3097 1772 3097 
Q 1472 3097 1187 3025 
Q 903 2953 641 2809 
L 641 3341 
Q 956 3463 1253 3523 
Q 1550 3584 1831 3584 
Q 2591 3584 2966 3190 
Q 3341 2797 3341 1997 
z
" transform="scale(0.015625)"/>
       <path id="DejaVuSans-67" d="M 2906 1791 
Q 2906 2416 2648 2759 
Q 2391 3103 1925 3103 
Q 1463 3103 1205 2759 
Q 947 2416 947 1791 
Q 947 1169 1205 825 
Q 1463 481 1925 481 
Q 2391 481 2648 825 
Q 2906 1169 2906 1791 
z
M 3481 434 
Q 3481 -459 3084 -895 
Q 2688 -1331 1869 -1331 
Q 1566 -1331 1297 -1286 
Q 1028 -1241 775 -1147 
L 775 -588 
Q 1028 -725 1275 -790 
Q 1522 -856 1778 -856 
Q 2344 -856 2625 -561 
Q 2906 -266 2906 331 
L 2906 616 
Q 2728 306 2450 153 
Q 2172 0 1784 0 
Q 1141 0 747 490 
Q 353 981 353 1791 
Q 353 2603 747 3093 
Q 1141 3584 1784 3584 
Q 2172 3584 2450 3431 
Q 2728 3278 2906 2969 
L 2906 3500 
L 3481 3500 
L 3481 434 
z
" transform="scale(0.015625)"/>
       <path id="DejaVuSans-65" d="M 3597 1894 
L 3597 1613 
L 953 1613 
Q 991 1019 1311 708 
Q 1631 397 2203 397 
Q 2534 397 2845 478 
Q 3156 559 3463 722 
L 3463 178 
Q 3153 47 2828 -22 
Q 2503 -91 2169 -91 
Q 1331 -91 842 396 
Q 353 884 353 1716 
Q 353 2575 817 3079 
Q 1281 3584 2069 3584 
Q 2775 3584 3186 3129 
Q 3597 2675 3597 1894 
z
M 3022 2063 
Q 3016 2534 2758 2815 
Q 2500 3097 2075 3097 
Q 1594 3097 1305 2825 
Q 1016 2553 972 2059 
L 3022 2063 
z
" transform="scale(0.015625)"/>
       <path id="DejaVuSans-28" d="M 1984 4856 
Q 1566 4138 1362 3434 
Q 1159 2731 1159 2009 
Q 1159 1288 1364 580 
Q 1569 -128 1984 -844 
L 1484 -844 
Q 1016 -109 783 600 
Q 550 1309 550 2009 
Q 550 2706 781 3412 
Q 1013 4119 1484 4856 
L 1984 4856 
z
" transform="scale(0.015625)"/>
       <path id="DejaVuSans-56" d="M 1831 0 
L 50 4666 
L 709 4666 
L 2188 738 
L 3669 4666 
L 4325 4666 
L 2547 0 
L 1831 0 
z
" transform="scale(0.015625)"/>
       <path id="DejaVuSans-29" d="M 513 4856 
L 1013 4856 
Q 1481 4119 1714 3412 
Q 1947 2706 1947 2009 
Q 1947 1309 1714 600 
Q 1481 -109 1013 -844 
L 513 -844 
Q 928 -128 1133 580 
Q 1338 1288 1338 2009 
Q 1338 2731 1133 3434 
Q 928 4138 513 4856 
z
" transform="scale(0.015625)"/>
      </defs>
      <use xlink:href="#DejaVuSans-4f"/>
      <use xlink:href="#DejaVuSans-75" x="78.710938"/>
      <use xlink:href="#DejaVuSans-74" x="142.089844"/>
      <use xlink:href="#DejaVuSans-70" x="181.298828"/>
      <use xlink:href="#DejaVuSans-75" x="244.775391"/>
      <use xlink:href="#DejaVuSans-74" x="308.154297"/>
      <use xlink:href="#DejaVuSans-20" x="347.363281"/>
      <use xlink:href="#DejaVuSans-76" x="379.150391"/>
      <use xlink:href="#DejaVuSans-6f" x="438.330078"/>
      <use xlink:href="#DejaVuSans-6c" x="499.511719"/>
      <use xlink:href="#DejaVuSans-74" x="527.294922"/>
      <use xlink:href="#DejaVuSans-61" x="566.503906"/>
      <use xlink:href="#DejaVuSans-67" x="627.783203"/>
      <use xlink:href="#DejaVuSans-65" x="691.259766"/>
      <use xlink:href="#DejaVuSans-20" x="752.783203"/>
      <use xlink:href="#DejaVuSans-28" x="784.570312"/>
      <use xlink:href="#DejaVuSans-56" x="823.583984"/>
      <use xlink:href="#DejaVuSans-29" x="891.992188"/>
     </g>
    </g>
   </g>
   <g id="line2d_15">
    <path d="M 73.832727 156.933818 
L 80.45833 156.779136 
L 87.083933 156.597935 
L 93.709536 156.384111 
L 100.335139 156.129864 
L 106.960742 155.825166 
L 113.586345 155.456988 
L 120.211948 155.008188 
L 126.837551 154.455969 
L 133.463154 153.770378 
L 140.088757 152.914139 
L 146.71436 151.841789 
L 153.339963 150.494385 
L 159.965566 148.800375 
L 166.591169 146.68986 
L 173.216772 144.110778 
L 179.842375 141.037386 
L 186.467978 137.469915 
L 193.093581 133.429666 
L 199.719184 128.953409 
L 206.344787 124.088695 
L 212.97039 118.890318 
L 219.595993 113.41783 
L 226.221596 107.73401 
L 232.847199 101.904183 
L 239.472801 95.996233 
L 246.098404 90.081171 
L 252.724007 84.234042 
L 259.34961 78.534945 
L 265.975213 73.069828 
L 272.600816 67.930534 
L 279.226419 63.213405 
L 285.852022 59.015494 
L 292.477625 55.427286 
L 299.103228 52.520442 
L 305.728831 50.328681 
L 312.354434 48.823502 
L 318.980037 47.900025 
L 325.60564 47.397912 
L 332.231243 47.153734 
L 338.856846 46.993236 
L 345.482449 46.97639 
L 352.108052 46.971935 
L 358.733655 46.970693 
L 365.359258 46.970337 
L 371.984861 46.970232 
L 378.610464 46.970198 
L 385.236067 46.970187 
L 391.86167 46.970183 
L 398.487273 46.970182 
" clip-path="url(#p69de7eaf1d)" style="fill: none; stroke: #1f77b4; stroke-linecap: square"/>
    <defs>
     <path id="mb8fd5e5f25" d="M -2.5 2.5 
L 2.5 -2.5 
M -2.5 -2.5 
L 2.5 2.5 
" style="stroke: #1f77b4"/>
    </defs>
    <g clip-path="url(#p69de7eaf1d)">
     <use xlink:href="#mb8fd5e5f25" x="73.832727" y="156.933818" style="fill: #1f77b4; stroke: #1f77b4"/>
     <use xlink:href="#mb8fd5e5f25" x="80.45833" y="156.779136" style="fill: #1f77b4; stroke: #1f77b4"/>
     <use xlink:href="#mb8fd5e5f25" x="87.083933" y="156.597935" style="fill: #1f77b4; stroke: #1f77b4"/>
     <use xlink:href="#mb8fd5e5f25" x="93.709536" y="156.384111" style="fill: #1f77b4; stroke: #1f77b4"/>
     <use xlink:href="#mb8fd5e5f25" x="100.335139" y="156.129864" style="fill: #1f77b4; stroke: #1f77b4"/>
     <use xlink:href="#mb8fd5e5f25" x="106.960742" y="155.825166" style="fill: #1f77b4; stroke: #1f77b4"/>
     <use xlink:href="#mb8fd5e5f25" x="113.586345" y="155.456988" style="fill: #1f77b4; stroke: #1f77b4"/>
     <use xlink:href="#mb8fd5e5f25" x="120.211948" y="155.008188" style="fill: #1f77b4; stroke: #1f77b4"/>
     <use xlink:href="#mb8fd5e5f25" x="126.837551" y="154.455969" style="fill: #1f77b4; stroke: #1f77b4"/>
     <use xlink:href="#mb8fd5e5f25" x="133.463154" y="153.770378" style="fill: #1f77b4; stroke: #1f77b4"/>
     <use xlink:href="#mb8fd5e5f25" x="140.088757" y="152.914139" style="fill: #1f77b4; stroke: #1f77b4"/>
     <use xlink:href="#mb8fd5e5f25" x="146.71436" y="151.841789" style="fill: #1f77b4; stroke: #1f77b4"/>
     <use xlink:href="#mb8fd5e5f25" x="153.339963" y="150.494385" style="fill: #1f77b4; stroke: #1f77b4"/>
     <use xlink:href="#mb8fd5e5f25" x="159.965566" y="148.800375" style="fill: #1f77b4; stroke: #1f77b4"/>
     <use xlink:href="#mb8fd5e5f25" x="166.591169" y="146.68986" style="fill: #1f77b4; stroke: #1f77b4"/>
     <use xlink:href="#mb8fd5e5f25" x="173.216772" y="144.110778" style="fill: #1f77b4; stroke: #1f77b4"/>
     <use xlink:href="#mb8fd5e5f25" x="179.842375" y="141.037386" style="fill: #1f77b4; stroke: #1f77b4"/>
     <use xlink:href="#mb8fd5e5f25" x="186.467978" y="137.469915" style="fill: #1f77b4; stroke: #1f77b4"/>
     <use xlink:href="#mb8fd5e5f25" x="193.093581" y="133.429666" style="fill: #1f77b4; stroke: #1f77b4"/>
     <use xlink:href="#mb8fd5e5f25" x="199.719184" y="128.953409" style="fill: #1f77b4; stroke: #1f77b4"/>
     <use xlink:href="#mb8fd5e5f25" x="206.344787" y="124.088695" style="fill: #1f77b4; stroke: #1f77b4"/>
     <use xlink:href="#mb8fd5e5f25" x="212.97039" y="118.890318" style="fill: #1f77b4; stroke: #1f77b4"/>
     <use xlink:href="#mb8fd5e5f25" x="219.595993" y="113.41783" style="fill: #1f77b4; stroke: #1f77b4"/>
     <use xlink:href="#mb8fd5e5f25" x="226.221596" y="107.73401" style="fill: #1f77b4; stroke: #1f77b4"/>
     <use xlink:href="#mb8fd5e5f25" x="232.847199" y="101.904183" style="fill: #1f77b4; stroke: #1f77b4"/>
     <use xlink:href="#mb8fd5e5f25" x="239.472801" y="95.996233" style="fill: #1f77b4; stroke: #1f77b4"/>
     <use xlink:href="#mb8fd5e5f25" x="246.098404" y="90.081171" style="fill: #1f77b4; stroke: #1f77b4"/>
     <use xlink:href="#mb8fd5e5f25" x="252.724007" y="84.234042" style="fill: #1f77b4; stroke: #1f77b4"/>
     <use xlink:href="#mb8fd5e5f25" x="259.34961" y="78.534945" style="fill: #1f77b4; stroke: #1f77b4"/>
     <use xlink:href="#mb8fd5e5f25" x="265.975213" y="73.069828" style="fill: #1f77b4; stroke: #1f77b4"/>
     <use xlink:href="#mb8fd5e5f25" x="272.600816" y="67.930534" style="fill: #1f77b4; stroke: #1f77b4"/>
     <use xlink:href="#mb8fd5e5f25" x="279.226419" y="63.213405" style="fill: #1f77b4; stroke: #1f77b4"/>
     <use xlink:href="#mb8fd5e5f25" x="285.852022" y="59.015494" style="fill: #1f77b4; stroke: #1f77b4"/>
     <use xlink:href="#mb8fd5e5f25" x="292.477625" y="55.427286" style="fill: #1f77b4; stroke: #1f77b4"/>
     <use xlink:href="#mb8fd5e5f25" x="299.103228" y="52.520442" style="fill: #1f77b4; stroke: #1f77b4"/>
     <use xlink:href="#mb8fd5e5f25" x="305.728831" y="50.328681" style="fill: #1f77b4; stroke: #1f77b4"/>
     <use xlink:href="#mb8fd5e5f25" x="312.354434" y="48.823502" style="fill: #1f77b4; stroke: #1f77b4"/>
     <use xlink:href="#mb8fd5e5f25" x="318.980037" y="47.900025" style="fill: #1f77b4; stroke: #1f77b4"/>
     <use xlink:href="#mb8fd5e5f25" x="325.60564" y="47.397912" style="fill: #1f77b4; stroke: #1f77b4"/>
     <use xlink:href="#mb8fd5e5f25" x="332.231243" y="47.153734" style="fill: #1f77b4; stroke: #1f77b4"/>
     <use xlink:href="#mb8fd5e5f25" x="338.856846" y="46.993236" style="fill: #1f77b4; stroke: #1f77b4"/>
     <use xlink:href="#mb8fd5e5f25" x="345.482449" y="46.97639" style="fill: #1f77b4; stroke: #1f77b4"/>
     <use xlink:href="#mb8fd5e5f25" x="352.108052" y="46.971935" style="fill: #1f77b4; stroke: #1f77b4"/>
     <use xlink:href="#mb8fd5e5f25" x="358.733655" y="46.970693" style="fill: #1f77b4; stroke: #1f77b4"/>
     <use xlink:href="#mb8fd5e5f25" x="365.359258" y="46.970337" style="fill: #1f77b4; stroke: #1f77b4"/>
     <use xlink:href="#mb8fd5e5f25" x="371.984861" y="46.970232" style="fill: #1f77b4; stroke: #1f77b4"/>
     <use xlink:href="#mb8fd5e5f25" x="378.610464" y="46.970198" style="fill: #1f77b4; stroke: #1f77b4"/>
     <use xlink:href="#mb8fd5e5f25" x="385.236067" y="46.970187" style="fill: #1f77b4; stroke: #1f77b4"/>
     <use xlink:href="#mb8fd5e5f25" x="391.86167" y="46.970183" style="fill: #1f77b4; stroke: #1f77b4"/>
     <use xlink:href="#mb8fd5e5f25" x="398.487273" y="46.970182" style="fill: #1f77b4; stroke: #1f77b4"/>
    </g>
   </g>
   <g id="line2d_16">
    <path d="M 73.832727 156.291386 
L 80.45833 156.283008 
L 87.083933 156.271001 
L 93.709536 156.253797 
L 100.335139 156.229146 
L 106.960742 156.193834 
L 113.586345 156.143259 
L 120.211948 156.07085 
L 126.837551 155.967231 
L 133.463154 155.819054 
L 140.088757 155.607369 
L 146.71436 155.305387 
L 153.339963 154.875462 
L 159.965566 154.265154 
L 166.591169 153.402324 
L 173.216772 152.189526 
L 179.842375 150.498608 
L 186.467978 148.167599 
L 193.093581 145.003808 
L 199.719184 140.799205 
L 206.344787 135.365097 
L 212.97039 128.589652 
L 219.595993 120.510056 
L 226.221596 111.371987 
L 232.847199 101.635349 
L 239.472801 91.898711 
L 246.098404 82.760642 
L 252.724007 74.681046 
L 259.34961 67.905601 
L 265.975213 62.471494 
L 272.600816 58.26689 
L 279.226419 55.103099 
L 285.852022 52.77209 
L 292.477625 51.081172 
L 299.103228 49.868374 
L 305.728831 49.005544 
L 312.354434 48.395236 
L 318.980037 47.965311 
L 325.60564 47.663329 
L 332.231243 47.451644 
L 338.856846 47.303467 
L 345.482449 47.199848 
L 352.108052 47.127439 
L 358.733655 47.076864 
L 365.359258 47.041552 
L 371.984861 47.016901 
L 378.610464 46.999697 
L 385.236067 46.98769 
L 391.86167 46.979312 
L 398.487273 46.973466 
" clip-path="url(#p69de7eaf1d)" style="fill: none; stroke: #ff7f0e; stroke-linecap: square"/>
   </g>
   <g id="patch_3">
    <path d="M 57.6 162.432 
L 57.6 41.472 
" style="fill: none; stroke: #000000; stroke-width: 0.8; stroke-linejoin: miter; stroke-linecap: square"/>
   </g>
   <g id="patch_4">
    <path d="M 414.72 162.432 
L 414.72 41.472 
" style="fill: none; stroke: #000000; stroke-width: 0.8; stroke-linejoin: miter; stroke-linecap: square"/>
   </g>
   <g id="patch_5">
    <path d="M 57.6 162.432 
L 414.72 162.432 
" style="fill: none; stroke: #000000; stroke-width: 0.8; stroke-linejoin: miter; stroke-linecap: square"/>
   </g>
   <g id="patch_6">
    <path d="M 57.6 41.472 
L 414.72 41.472 
" style="fill: none; stroke: #000000; stroke-width: 0.8; stroke-linejoin: miter; stroke-linecap: square"/>
   </g>
   <g id="text_8">
    <g id="patch_7">
     <path d="M 320.318211 109.474412 
L 403.038524 109.474412 
Q 406.038524 109.474412 406.038524 106.474412 
L 406.038524 96.796287 
Q 406.038524 93.796287 403.038524 93.796287 
L 320.318211 93.796287 
Q 317.318211 93.796287 317.318211 96.796287 
L 317.318211 106.474412 
Q 317.318211 109.474412 320.318211 109.474412 
z
" style="fill: #ffffff; stroke: #000000; stroke-width: 0.5; stroke-linejoin: miter"/>
    </g>
    <!-- RSME : 5.11e-03 -->
    <g transform="translate(320.318211 104.394724) scale(0.1 -0.1)">
     <defs>
      <path id="DejaVuSans-52" d="M 2841 2188 
Q 3044 2119 3236 1894 
Q 3428 1669 3622 1275 
L 4263 0 
L 3584 0 
L 2988 1197 
Q 2756 1666 2539 1819 
Q 2322 1972 1947 1972 
L 1259 1972 
L 1259 0 
L 628 0 
L 628 4666 
L 2053 4666 
Q 2853 4666 3247 4331 
Q 3641 3997 3641 3322 
Q 3641 2881 3436 2590 
Q 3231 2300 2841 2188 
z
M 1259 4147 
L 1259 2491 
L 2053 2491 
Q 2509 2491 2742 2702 
Q 2975 2913 2975 3322 
Q 2975 3731 2742 3939 
Q 2509 4147 2053 4147 
L 1259 4147 
z
" transform="scale(0.015625)"/>
      <path id="DejaVuSans-53" d="M 3425 4513 
L 3425 3897 
Q 3066 4069 2747 4153 
Q 2428 4238 2131 4238 
Q 1616 4238 1336 4038 
Q 1056 3838 1056 3469 
Q 1056 3159 1242 3001 
Q 1428 2844 1947 2747 
L 2328 2669 
Q 3034 2534 3370 2195 
Q 3706 1856 3706 1288 
Q 3706 609 3251 259 
Q 2797 -91 1919 -91 
Q 1588 -91 1214 -16 
Q 841 59 441 206 
L 441 856 
Q 825 641 1194 531 
Q 1563 422 1919 422 
Q 2459 422 2753 634 
Q 3047 847 3047 1241 
Q 3047 1584 2836 1778 
Q 2625 1972 2144 2069 
L 1759 2144 
Q 1053 2284 737 2584 
Q 422 2884 422 3419 
Q 422 4038 858 4394 
Q 1294 4750 2059 4750 
Q 2388 4750 2728 4690 
Q 3069 4631 3425 4513 
z
" transform="scale(0.015625)"/>
      <path id="DejaVuSans-4d" d="M 628 4666 
L 1569 4666 
L 2759 1491 
L 3956 4666 
L 4897 4666 
L 4897 0 
L 4281 0 
L 4281 4097 
L 3078 897 
L 2444 897 
L 1241 4097 
L 1241 0 
L 628 0 
L 628 4666 
z
" transform="scale(0.015625)"/>
      <path id="DejaVuSans-45" d="M 628 4666 
L 3578 4666 
L 3578 4134 
L 1259 4134 
L 1259 2753 
L 3481 2753 
L 3481 2222 
L 1259 2222 
L 1259 531 
L 3634 531 
L 3634 0 
L 628 0 
L 628 4666 
z
" transform="scale(0.015625)"/>
      <path id="DejaVuSans-3a" d="M 750 794 
L 1409 794 
L 1409 0 
L 750 0 
L 750 794 
z
M 750 3309 
L 1409 3309 
L 1409 2516 
L 750 2516 
L 750 3309 
z
" transform="scale(0.015625)"/>
      <path id="DejaVuSans-35" d="M 691 4666 
L 3169 4666 
L 3169 4134 
L 1269 4134 
L 1269 2991 
Q 1406 3038 1543 3061 
Q 1681 3084 1819 3084 
Q 2600 3084 3056 2656 
Q 3513 2228 3513 1497 
Q 3513 744 3044 326 
Q 2575 -91 1722 -91 
Q 1428 -91 1123 -41 
Q 819 9 494 109 
L 494 744 
Q 775 591 1075 516 
Q 1375 441 1709 441 
Q 2250 441 2565 725 
Q 2881 1009 2881 1497 
Q 2881 1984 2565 2268 
Q 2250 2553 1709 2553 
Q 1456 2553 1204 2497 
Q 953 2441 691 2322 
L 691 4666 
z
" transform="scale(0.015625)"/>
      <path id="DejaVuSans-2d" d="M 313 2009 
L 1997 2009 
L 1997 1497 
L 313 1497 
L 313 2009 
z
" transform="scale(0.015625)"/>
      <path id="DejaVuSans-33" d="M 2597 2516 
Q 3050 2419 3304 2112 
Q 3559 1806 3559 1356 
Q 3559 666 3084 287 
Q 2609 -91 1734 -91 
Q 1441 -91 1130 -33 
Q 819 25 488 141 
L 488 750 
Q 750 597 1062 519 
Q 1375 441 1716 441 
Q 2309 441 2620 675 
Q 2931 909 2931 1356 
Q 2931 1769 2642 2001 
Q 2353 2234 1838 2234 
L 1294 2234 
L 1294 2753 
L 1863 2753 
Q 2328 2753 2575 2939 
Q 2822 3125 2822 3475 
Q 2822 3834 2567 4026 
Q 2313 4219 1838 4219 
Q 1578 4219 1281 4162 
Q 984 4106 628 3988 
L 628 4550 
Q 988 4650 1302 4700 
Q 1616 4750 1894 4750 
Q 2613 4750 3031 4423 
Q 3450 4097 3450 3541 
Q 3450 3153 3228 2886 
Q 3006 2619 2597 2516 
z
" transform="scale(0.015625)"/>
     </defs>
     <use xlink:href="#DejaVuSans-52"/>
     <use xlink:href="#DejaVuSans-53" x="69.482422"/>
     <use xlink:href="#DejaVuSans-4d" x="132.958984"/>
     <use xlink:href="#DejaVuSans-45" x="219.238281"/>
     <use xlink:href="#DejaVuSans-20" x="282.421875"/>
     <use xlink:href="#DejaVuSans-3a" x="314.208984"/>
     <use xlink:href="#DejaVuSans-20" x="347.900391"/>
     <use xlink:href="#DejaVuSans-35" x="379.6875"/>
     <use xlink:href="#DejaVuSans-2e" x="443.310547"/>
     <use xlink:href="#DejaVuSans-31" x="475.097656"/>
     <use xlink:href="#DejaVuSans-31" x="538.720703"/>
     <use xlink:href="#DejaVuSans-65" x="602.34375"/>
     <use xlink:href="#DejaVuSans-2d" x="663.867188"/>
     <use xlink:href="#DejaVuSans-30" x="699.951172"/>
     <use xlink:href="#DejaVuSans-33" x="763.574219"/>
    </g>
   </g>
   <g id="text_9">
    <!-- Sigmoid -->
    <g transform="translate(211.883437 35.472) scale(0.12 -0.12)">
     <defs>
      <path id="DejaVuSans-69" d="M 603 3500 
L 1178 3500 
L 1178 0 
L 603 0 
L 603 3500 
z
M 603 4863 
L 1178 4863 
L 1178 4134 
L 603 4134 
L 603 4863 
z
" transform="scale(0.015625)"/>
      <path id="DejaVuSans-6d" d="M 3328 2828 
Q 3544 3216 3844 3400 
Q 4144 3584 4550 3584 
Q 5097 3584 5394 3201 
Q 5691 2819 5691 2113 
L 5691 0 
L 5113 0 
L 5113 2094 
Q 5113 2597 4934 2840 
Q 4756 3084 4391 3084 
Q 3944 3084 3684 2787 
Q 3425 2491 3425 1978 
L 3425 0 
L 2847 0 
L 2847 2094 
Q 2847 2600 2669 2842 
Q 2491 3084 2119 3084 
Q 1678 3084 1418 2786 
Q 1159 2488 1159 1978 
L 1159 0 
L 581 0 
L 581 3500 
L 1159 3500 
L 1159 2956 
Q 1356 3278 1631 3431 
Q 1906 3584 2284 3584 
Q 2666 3584 2933 3390 
Q 3200 3197 3328 2828 
z
" transform="scale(0.015625)"/>
      <path id="DejaVuSans-64" d="M 2906 2969 
L 2906 4863 
L 3481 4863 
L 3481 0 
L 2906 0 
L 2906 525 
Q 2725 213 2448 61 
Q 2172 -91 1784 -91 
Q 1150 -91 751 415 
Q 353 922 353 1747 
Q 353 2572 751 3078 
Q 1150 3584 1784 3584 
Q 2172 3584 2448 3432 
Q 2725 3281 2906 2969 
z
M 947 1747 
Q 947 1113 1208 752 
Q 1469 391 1925 391 
Q 2381 391 2643 752 
Q 2906 1113 2906 1747 
Q 2906 2381 2643 2742 
Q 2381 3103 1925 3103 
Q 1469 3103 1208 2742 
Q 947 2381 947 1747 
z
" transform="scale(0.015625)"/>
     </defs>
     <use xlink:href="#DejaVuSans-53"/>
     <use xlink:href="#DejaVuSans-69" x="63.476562"/>
     <use xlink:href="#DejaVuSans-67" x="91.259766"/>
     <use xlink:href="#DejaVuSans-6d" x="154.736328"/>
     <use xlink:href="#DejaVuSans-6f" x="252.148438"/>
     <use xlink:href="#DejaVuSans-69" x="313.330078"/>
     <use xlink:href="#DejaVuSans-64" x="341.113281"/>
    </g>
   </g>
   <g id="legend_1">
    <g id="patch_8">
     <path d="M 64.6 78.82825 
L 172.9 78.82825 
Q 174.9 78.82825 174.9 76.82825 
L 174.9 48.472 
Q 174.9 46.472 172.9 46.472 
L 64.6 46.472 
Q 62.6 46.472 62.6 48.472 
L 62.6 76.82825 
Q 62.6 78.82825 64.6 78.82825 
z
" style="fill: #ffffff; opacity: 0.8; stroke: #cccccc; stroke-linejoin: miter"/>
    </g>
    <g id="line2d_17">
     <path d="M 66.6 54.570437 
L 76.6 54.570437 
L 86.6 54.570437 
" style="fill: none; stroke: #1f77b4; stroke-linecap: square"/>
     <g>
      <use xlink:href="#mb8fd5e5f25" x="76.6" y="54.570437" style="fill: #1f77b4; stroke: #1f77b4"/>
     </g>
    </g>
    <g id="text_10">
     <!-- Circuit's output -->
     <g transform="translate(94.6 58.070437) scale(0.1 -0.1)">
      <defs>
       <path id="DejaVuSans-43" d="M 4122 4306 
L 4122 3641 
Q 3803 3938 3442 4084 
Q 3081 4231 2675 4231 
Q 1875 4231 1450 3742 
Q 1025 3253 1025 2328 
Q 1025 1406 1450 917 
Q 1875 428 2675 428 
Q 3081 428 3442 575 
Q 3803 722 4122 1019 
L 4122 359 
Q 3791 134 3420 21 
Q 3050 -91 2638 -91 
Q 1578 -91 968 557 
Q 359 1206 359 2328 
Q 359 3453 968 4101 
Q 1578 4750 2638 4750 
Q 3056 4750 3426 4639 
Q 3797 4528 4122 4306 
z
" transform="scale(0.015625)"/>
       <path id="DejaVuSans-72" d="M 2631 2963 
Q 2534 3019 2420 3045 
Q 2306 3072 2169 3072 
Q 1681 3072 1420 2755 
Q 1159 2438 1159 1844 
L 1159 0 
L 581 0 
L 581 3500 
L 1159 3500 
L 1159 2956 
Q 1341 3275 1631 3429 
Q 1922 3584 2338 3584 
Q 2397 3584 2469 3576 
Q 2541 3569 2628 3553 
L 2631 2963 
z
" transform="scale(0.015625)"/>
       <path id="DejaVuSans-63" d="M 3122 3366 
L 3122 2828 
Q 2878 2963 2633 3030 
Q 2388 3097 2138 3097 
Q 1578 3097 1268 2742 
Q 959 2388 959 1747 
Q 959 1106 1268 751 
Q 1578 397 2138 397 
Q 2388 397 2633 464 
Q 2878 531 3122 666 
L 3122 134 
Q 2881 22 2623 -34 
Q 2366 -91 2075 -91 
Q 1284 -91 818 406 
Q 353 903 353 1747 
Q 353 2603 823 3093 
Q 1294 3584 2113 3584 
Q 2378 3584 2631 3529 
Q 2884 3475 3122 3366 
z
" transform="scale(0.015625)"/>
       <path id="DejaVuSans-27" d="M 1147 4666 
L 1147 2931 
L 616 2931 
L 616 4666 
L 1147 4666 
z
" transform="scale(0.015625)"/>
       <path id="DejaVuSans-73" d="M 2834 3397 
L 2834 2853 
Q 2591 2978 2328 3040 
Q 2066 3103 1784 3103 
Q 1356 3103 1142 2972 
Q 928 2841 928 2578 
Q 928 2378 1081 2264 
Q 1234 2150 1697 2047 
L 1894 2003 
Q 2506 1872 2764 1633 
Q 3022 1394 3022 966 
Q 3022 478 2636 193 
Q 2250 -91 1575 -91 
Q 1294 -91 989 -36 
Q 684 19 347 128 
L 347 722 
Q 666 556 975 473 
Q 1284 391 1588 391 
Q 1994 391 2212 530 
Q 2431 669 2431 922 
Q 2431 1156 2273 1281 
Q 2116 1406 1581 1522 
L 1381 1569 
Q 847 1681 609 1914 
Q 372 2147 372 2553 
Q 372 3047 722 3315 
Q 1072 3584 1716 3584 
Q 2034 3584 2315 3537 
Q 2597 3491 2834 3397 
z
" transform="scale(0.015625)"/>
      </defs>
      <use xlink:href="#DejaVuSans-43"/>
      <use xlink:href="#DejaVuSans-69" x="69.824219"/>
      <use xlink:href="#DejaVuSans-72" x="97.607422"/>
      <use xlink:href="#DejaVuSans-63" x="136.470703"/>
      <use xlink:href="#DejaVuSans-75" x="191.451172"/>
      <use xlink:href="#DejaVuSans-69" x="254.830078"/>
      <use xlink:href="#DejaVuSans-74" x="282.613281"/>
      <use xlink:href="#DejaVuSans-27" x="321.822266"/>
      <use xlink:href="#DejaVuSans-73" x="349.3125"/>
      <use xlink:href="#DejaVuSans-20" x="401.412109"/>
      <use xlink:href="#DejaVuSans-6f" x="433.199219"/>
      <use xlink:href="#DejaVuSans-75" x="494.380859"/>
      <use xlink:href="#DejaVuSans-74" x="557.759766"/>
      <use xlink:href="#DejaVuSans-70" x="596.96875"/>
      <use xlink:href="#DejaVuSans-75" x="660.445312"/>
      <use xlink:href="#DejaVuSans-74" x="723.824219"/>
     </g>
    </g>
    <g id="line2d_18">
     <path d="M 66.6 69.248562 
L 76.6 69.248562 
L 86.6 69.248562 
" style="fill: none; stroke: #ff7f0e; stroke-linecap: square"/>
    </g>
    <g id="text_11">
     <!-- Ideal output -->
     <g transform="translate(94.6 72.748562) scale(0.1 -0.1)">
      <defs>
       <path id="DejaVuSans-49" d="M 628 4666 
L 1259 4666 
L 1259 0 
L 628 0 
L 628 4666 
z
" transform="scale(0.015625)"/>
      </defs>
      <use xlink:href="#DejaVuSans-49"/>
      <use xlink:href="#DejaVuSans-64" x="29.492188"/>
      <use xlink:href="#DejaVuSans-65" x="92.96875"/>
      <use xlink:href="#DejaVuSans-61" x="154.492188"/>
      <use xlink:href="#DejaVuSans-6c" x="215.771484"/>
      <use xlink:href="#DejaVuSans-20" x="243.554688"/>
      <use xlink:href="#DejaVuSans-6f" x="275.341797"/>
      <use xlink:href="#DejaVuSans-75" x="336.523438"/>
      <use xlink:href="#DejaVuSans-74" x="399.902344"/>
      <use xlink:href="#DejaVuSans-70" x="439.111328"/>
      <use xlink:href="#DejaVuSans-75" x="502.587891"/>
      <use xlink:href="#DejaVuSans-74" x="565.966797"/>
     </g>
    </g>
   </g>
  </g>
  <g id="axes_2">
   <g id="patch_9">
    <path d="M 57.6 307.584 
L 414.72 307.584 
L 414.72 186.624 
L 57.6 186.624 
z
" style="fill: #ffffff"/>
   </g>
   <g id="matplotlib.axis_3">
    <g id="xtick_9">
     <g id="line2d_19">
      <g>
       <use xlink:href="#m37d33bfe47" x="67.207124" y="307.584" style="stroke: #000000; stroke-width: 0.8"/>
      </g>
     </g>
     <g id="text_12">
      <!-- 0.00 -->
      <g transform="translate(56.074312 322.182437) scale(0.1 -0.1)">
       <use xlink:href="#DejaVuSans-30"/>
       <use xlink:href="#DejaVuSans-2e" x="63.623047"/>
       <use xlink:href="#DejaVuSans-30" x="95.410156"/>
       <use xlink:href="#DejaVuSans-30" x="159.033203"/>
      </g>
     </g>
    </g>
    <g id="xtick_10">
     <g id="line2d_20">
      <g>
       <use xlink:href="#m37d33bfe47" x="113.218256" y="307.584" style="stroke: #000000; stroke-width: 0.8"/>
      </g>
     </g>
     <g id="text_13">
      <!-- 0.25 -->
      <g transform="translate(102.085444 322.182437) scale(0.1 -0.1)">
       <use xlink:href="#DejaVuSans-30"/>
       <use xlink:href="#DejaVuSans-2e" x="63.623047"/>
       <use xlink:href="#DejaVuSans-32" x="95.410156"/>
       <use xlink:href="#DejaVuSans-35" x="159.033203"/>
      </g>
     </g>
    </g>
    <g id="xtick_11">
     <g id="line2d_21">
      <g>
       <use xlink:href="#m37d33bfe47" x="159.229388" y="307.584" style="stroke: #000000; stroke-width: 0.8"/>
      </g>
     </g>
     <g id="text_14">
      <!-- 0.50 -->
      <g transform="translate(148.096575 322.182437) scale(0.1 -0.1)">
       <use xlink:href="#DejaVuSans-30"/>
       <use xlink:href="#DejaVuSans-2e" x="63.623047"/>
       <use xlink:href="#DejaVuSans-35" x="95.410156"/>
       <use xlink:href="#DejaVuSans-30" x="159.033203"/>
      </g>
     </g>
    </g>
    <g id="xtick_12">
     <g id="line2d_22">
      <g>
       <use xlink:href="#m37d33bfe47" x="205.240519" y="307.584" style="stroke: #000000; stroke-width: 0.8"/>
      </g>
     </g>
     <g id="text_15">
      <!-- 0.75 -->
      <g transform="translate(194.107707 322.182437) scale(0.1 -0.1)">
       <defs>
        <path id="DejaVuSans-37" d="M 525 4666 
L 3525 4666 
L 3525 4397 
L 1831 0 
L 1172 0 
L 2766 4134 
L 525 4134 
L 525 4666 
z
" transform="scale(0.015625)"/>
       </defs>
       <use xlink:href="#DejaVuSans-30"/>
       <use xlink:href="#DejaVuSans-2e" x="63.623047"/>
       <use xlink:href="#DejaVuSans-37" x="95.410156"/>
       <use xlink:href="#DejaVuSans-35" x="159.033203"/>
      </g>
     </g>
    </g>
    <g id="xtick_13">
     <g id="line2d_23">
      <g>
       <use xlink:href="#m37d33bfe47" x="251.251651" y="307.584" style="stroke: #000000; stroke-width: 0.8"/>
      </g>
     </g>
     <g id="text_16">
      <!-- 1.00 -->
      <g transform="translate(240.118839 322.182437) scale(0.1 -0.1)">
       <use xlink:href="#DejaVuSans-31"/>
       <use xlink:href="#DejaVuSans-2e" x="63.623047"/>
       <use xlink:href="#DejaVuSans-30" x="95.410156"/>
       <use xlink:href="#DejaVuSans-30" x="159.033203"/>
      </g>
     </g>
    </g>
    <g id="xtick_14">
     <g id="line2d_24">
      <g>
       <use xlink:href="#m37d33bfe47" x="297.262783" y="307.584" style="stroke: #000000; stroke-width: 0.8"/>
      </g>
     </g>
     <g id="text_17">
      <!-- 1.25 -->
      <g transform="translate(286.12997 322.182437) scale(0.1 -0.1)">
       <use xlink:href="#DejaVuSans-31"/>
       <use xlink:href="#DejaVuSans-2e" x="63.623047"/>
       <use xlink:href="#DejaVuSans-32" x="95.410156"/>
       <use xlink:href="#DejaVuSans-35" x="159.033203"/>
      </g>
     </g>
    </g>
    <g id="xtick_15">
     <g id="line2d_25">
      <g>
       <use xlink:href="#m37d33bfe47" x="343.273915" y="307.584" style="stroke: #000000; stroke-width: 0.8"/>
      </g>
     </g>
     <g id="text_18">
      <!-- 1.50 -->
      <g transform="translate(332.141102 322.182437) scale(0.1 -0.1)">
       <use xlink:href="#DejaVuSans-31"/>
       <use xlink:href="#DejaVuSans-2e" x="63.623047"/>
       <use xlink:href="#DejaVuSans-35" x="95.410156"/>
       <use xlink:href="#DejaVuSans-30" x="159.033203"/>
      </g>
     </g>
    </g>
    <g id="xtick_16">
     <g id="line2d_26">
      <g>
       <use xlink:href="#m37d33bfe47" x="389.285046" y="307.584" style="stroke: #000000; stroke-width: 0.8"/>
      </g>
     </g>
     <g id="text_19">
      <!-- 1.75 -->
      <g transform="translate(378.152234 322.182437) scale(0.1 -0.1)">
       <use xlink:href="#DejaVuSans-31"/>
       <use xlink:href="#DejaVuSans-2e" x="63.623047"/>
       <use xlink:href="#DejaVuSans-37" x="95.410156"/>
       <use xlink:href="#DejaVuSans-35" x="159.033203"/>
      </g>
     </g>
    </g>
    <g id="text_20">
     <!-- Input voltage (V) -->
     <g transform="translate(194.030312 335.860562) scale(0.1 -0.1)">
      <defs>
       <path id="DejaVuSans-6e" d="M 3513 2113 
L 3513 0 
L 2938 0 
L 2938 2094 
Q 2938 2591 2744 2837 
Q 2550 3084 2163 3084 
Q 1697 3084 1428 2787 
Q 1159 2491 1159 1978 
L 1159 0 
L 581 0 
L 581 3500 
L 1159 3500 
L 1159 2956 
Q 1366 3272 1645 3428 
Q 1925 3584 2291 3584 
Q 2894 3584 3203 3211 
Q 3513 2838 3513 2113 
z
" transform="scale(0.015625)"/>
      </defs>
      <use xlink:href="#DejaVuSans-49"/>
      <use xlink:href="#DejaVuSans-6e" x="29.492188"/>
      <use xlink:href="#DejaVuSans-70" x="92.871094"/>
      <use xlink:href="#DejaVuSans-75" x="156.347656"/>
      <use xlink:href="#DejaVuSans-74" x="219.726562"/>
      <use xlink:href="#DejaVuSans-20" x="258.935547"/>
      <use xlink:href="#DejaVuSans-76" x="290.722656"/>
      <use xlink:href="#DejaVuSans-6f" x="349.902344"/>
      <use xlink:href="#DejaVuSans-6c" x="411.083984"/>
      <use xlink:href="#DejaVuSans-74" x="438.867188"/>
      <use xlink:href="#DejaVuSans-61" x="478.076172"/>
      <use xlink:href="#DejaVuSans-67" x="539.355469"/>
      <use xlink:href="#DejaVuSans-65" x="602.832031"/>
      <use xlink:href="#DejaVuSans-20" x="664.355469"/>
      <use xlink:href="#DejaVuSans-28" x="696.142578"/>
      <use xlink:href="#DejaVuSans-56" x="735.15625"/>
      <use xlink:href="#DejaVuSans-29" x="803.564453"/>
     </g>
    </g>
   </g>
   <g id="matplotlib.axis_4">
    <g id="ytick_7">
     <g id="line2d_27">
      <g>
       <use xlink:href="#m55afe6cd5d" x="57.6" y="301.469678" style="stroke: #000000; stroke-width: 0.8"/>
      </g>
     </g>
     <g id="text_21">
      <!-- 0.80 -->
      <g transform="translate(28.334375 305.268897) scale(0.1 -0.1)">
       <use xlink:href="#DejaVuSans-30"/>
       <use xlink:href="#DejaVuSans-2e" x="63.623047"/>
       <use xlink:href="#DejaVuSans-38" x="95.410156"/>
       <use xlink:href="#DejaVuSans-30" x="159.033203"/>
      </g>
     </g>
    </g>
    <g id="ytick_8">
     <g id="line2d_28">
      <g>
       <use xlink:href="#m55afe6cd5d" x="57.6" y="274.132804" style="stroke: #000000; stroke-width: 0.8"/>
      </g>
     </g>
     <g id="text_22">
      <!-- 0.85 -->
      <g transform="translate(28.334375 277.932022) scale(0.1 -0.1)">
       <use xlink:href="#DejaVuSans-30"/>
       <use xlink:href="#DejaVuSans-2e" x="63.623047"/>
       <use xlink:href="#DejaVuSans-38" x="95.410156"/>
       <use xlink:href="#DejaVuSans-35" x="159.033203"/>
      </g>
     </g>
    </g>
    <g id="ytick_9">
     <g id="line2d_29">
      <g>
       <use xlink:href="#m55afe6cd5d" x="57.6" y="246.795929" style="stroke: #000000; stroke-width: 0.8"/>
      </g>
     </g>
     <g id="text_23">
      <!-- 0.90 -->
      <g transform="translate(28.334375 250.595148) scale(0.1 -0.1)">
       <use xlink:href="#DejaVuSans-30"/>
       <use xlink:href="#DejaVuSans-2e" x="63.623047"/>
       <use xlink:href="#DejaVuSans-39" x="95.410156"/>
       <use xlink:href="#DejaVuSans-30" x="159.033203"/>
      </g>
     </g>
    </g>
    <g id="ytick_10">
     <g id="line2d_30">
      <g>
       <use xlink:href="#m55afe6cd5d" x="57.6" y="219.459055" style="stroke: #000000; stroke-width: 0.8"/>
      </g>
     </g>
     <g id="text_24">
      <!-- 0.95 -->
      <g transform="translate(28.334375 223.258273) scale(0.1 -0.1)">
       <use xlink:href="#DejaVuSans-30"/>
       <use xlink:href="#DejaVuSans-2e" x="63.623047"/>
       <use xlink:href="#DejaVuSans-39" x="95.410156"/>
       <use xlink:href="#DejaVuSans-35" x="159.033203"/>
      </g>
     </g>
    </g>
    <g id="ytick_11">
     <g id="line2d_31">
      <g>
       <use xlink:href="#m55afe6cd5d" x="57.6" y="192.12218" style="stroke: #000000; stroke-width: 0.8"/>
      </g>
     </g>
     <g id="text_25">
      <!-- 1.00 -->
      <g transform="translate(28.334375 195.921399) scale(0.1 -0.1)">
       <use xlink:href="#DejaVuSans-31"/>
       <use xlink:href="#DejaVuSans-2e" x="63.623047"/>
       <use xlink:href="#DejaVuSans-30" x="95.410156"/>
       <use xlink:href="#DejaVuSans-30" x="159.033203"/>
      </g>
     </g>
    </g>
    <g id="text_26">
     <!-- Output voltage (V) -->
     <g transform="translate(22.254687 293.654781) rotate(-90) scale(0.1 -0.1)">
      <use xlink:href="#DejaVuSans-4f"/>
      <use xlink:href="#DejaVuSans-75" x="78.710938"/>
      <use xlink:href="#DejaVuSans-74" x="142.089844"/>
      <use xlink:href="#DejaVuSans-70" x="181.298828"/>
      <use xlink:href="#DejaVuSans-75" x="244.775391"/>
      <use xlink:href="#DejaVuSans-74" x="308.154297"/>
      <use xlink:href="#DejaVuSans-20" x="347.363281"/>
      <use xlink:href="#DejaVuSans-76" x="379.150391"/>
      <use xlink:href="#DejaVuSans-6f" x="438.330078"/>
      <use xlink:href="#DejaVuSans-6c" x="499.511719"/>
      <use xlink:href="#DejaVuSans-74" x="527.294922"/>
      <use xlink:href="#DejaVuSans-61" x="566.503906"/>
      <use xlink:href="#DejaVuSans-67" x="627.783203"/>
      <use xlink:href="#DejaVuSans-65" x="691.259766"/>
      <use xlink:href="#DejaVuSans-20" x="752.783203"/>
      <use xlink:href="#DejaVuSans-28" x="784.570312"/>
      <use xlink:href="#DejaVuSans-56" x="823.583984"/>
      <use xlink:href="#DejaVuSans-29" x="891.992188"/>
     </g>
    </g>
   </g>
   <g id="line2d_32">
    <path d="M 73.832727 302.085818 
L 80.45833 301.931141 
L 87.083933 301.749947 
L 93.709536 301.53613 
L 100.335139 301.281892 
L 106.960742 300.977204 
L 113.586345 300.609038 
L 120.211948 300.160254 
L 126.837551 299.608053 
L 133.463154 298.922486 
L 140.088757 298.066275 
L 146.71436 296.993961 
L 153.339963 295.646602 
L 159.965566 293.952647 
L 166.591169 291.842202 
L 173.216772 289.263206 
L 179.842375 286.189914 
L 186.467978 282.622562 
L 193.093581 278.582447 
L 199.719184 274.106338 
L 206.344787 269.241785 
L 212.97039 264.04358 
L 219.595993 258.571273 
L 226.221596 252.887643 
L 232.847199 247.058008 
L 239.472801 241.150254 
L 246.098404 235.235389 
L 252.724007 229.388453 
L 259.34961 223.689546 
L 265.975213 218.224609 
L 272.600816 213.085486 
L 279.226419 208.368514 
L 285.852022 204.170741 
L 292.477625 200.582652 
L 299.103228 197.675904 
L 305.728831 195.484216 
L 312.354434 193.979087 
L 318.980037 193.055641 
L 325.60564 192.553544 
L 332.231243 192.309374 
L 338.856846 192.148882 
L 345.482449 192.132036 
L 352.108052 192.127582 
L 358.733655 192.126339 
L 365.359258 192.125983 
L 371.984861 192.125878 
L 378.610464 192.125845 
L 385.236067 192.125833 
L 391.86167 192.125829 
L 398.487273 192.125828 
" clip-path="url(#pf720b799bb)" style="fill: none; stroke: #1f77b4; stroke-linecap: square"/>
    <g clip-path="url(#pf720b799bb)">
     <use xlink:href="#mb8fd5e5f25" x="73.832727" y="302.085818" style="fill: #1f77b4; stroke: #1f77b4"/>
     <use xlink:href="#mb8fd5e5f25" x="80.45833" y="301.931141" style="fill: #1f77b4; stroke: #1f77b4"/>
     <use xlink:href="#mb8fd5e5f25" x="87.083933" y="301.749947" style="fill: #1f77b4; stroke: #1f77b4"/>
     <use xlink:href="#mb8fd5e5f25" x="93.709536" y="301.53613" style="fill: #1f77b4; stroke: #1f77b4"/>
     <use xlink:href="#mb8fd5e5f25" x="100.335139" y="301.281892" style="fill: #1f77b4; stroke: #1f77b4"/>
     <use xlink:href="#mb8fd5e5f25" x="106.960742" y="300.977204" style="fill: #1f77b4; stroke: #1f77b4"/>
     <use xlink:href="#mb8fd5e5f25" x="113.586345" y="300.609038" style="fill: #1f77b4; stroke: #1f77b4"/>
     <use xlink:href="#mb8fd5e5f25" x="120.211948" y="300.160254" style="fill: #1f77b4; stroke: #1f77b4"/>
     <use xlink:href="#mb8fd5e5f25" x="126.837551" y="299.608053" style="fill: #1f77b4; stroke: #1f77b4"/>
     <use xlink:href="#mb8fd5e5f25" x="133.463154" y="298.922486" style="fill: #1f77b4; stroke: #1f77b4"/>
     <use xlink:href="#mb8fd5e5f25" x="140.088757" y="298.066275" style="fill: #1f77b4; stroke: #1f77b4"/>
     <use xlink:href="#mb8fd5e5f25" x="146.71436" y="296.993961" style="fill: #1f77b4; stroke: #1f77b4"/>
     <use xlink:href="#mb8fd5e5f25" x="153.339963" y="295.646602" style="fill: #1f77b4; stroke: #1f77b4"/>
     <use xlink:href="#mb8fd5e5f25" x="159.965566" y="293.952647" style="fill: #1f77b4; stroke: #1f77b4"/>
     <use xlink:href="#mb8fd5e5f25" x="166.591169" y="291.842202" style="fill: #1f77b4; stroke: #1f77b4"/>
     <use xlink:href="#mb8fd5e5f25" x="173.216772" y="289.263206" style="fill: #1f77b4; stroke: #1f77b4"/>
     <use xlink:href="#mb8fd5e5f25" x="179.842375" y="286.189914" style="fill: #1f77b4; stroke: #1f77b4"/>
     <use xlink:href="#mb8fd5e5f25" x="186.467978" y="282.622562" style="fill: #1f77b4; stroke: #1f77b4"/>
     <use xlink:href="#mb8fd5e5f25" x="193.093581" y="278.582447" style="fill: #1f77b4; stroke: #1f77b4"/>
     <use xlink:href="#mb8fd5e5f25" x="199.719184" y="274.106338" style="fill: #1f77b4; stroke: #1f77b4"/>
     <use xlink:href="#mb8fd5e5f25" x="206.344787" y="269.241785" style="fill: #1f77b4; stroke: #1f77b4"/>
     <use xlink:href="#mb8fd5e5f25" x="212.97039" y="264.04358" style="fill: #1f77b4; stroke: #1f77b4"/>
     <use xlink:href="#mb8fd5e5f25" x="219.595993" y="258.571273" style="fill: #1f77b4; stroke: #1f77b4"/>
     <use xlink:href="#mb8fd5e5f25" x="226.221596" y="252.887643" style="fill: #1f77b4; stroke: #1f77b4"/>
     <use xlink:href="#mb8fd5e5f25" x="232.847199" y="247.058008" style="fill: #1f77b4; stroke: #1f77b4"/>
     <use xlink:href="#mb8fd5e5f25" x="239.472801" y="241.150254" style="fill: #1f77b4; stroke: #1f77b4"/>
     <use xlink:href="#mb8fd5e5f25" x="246.098404" y="235.235389" style="fill: #1f77b4; stroke: #1f77b4"/>
     <use xlink:href="#mb8fd5e5f25" x="252.724007" y="229.388453" style="fill: #1f77b4; stroke: #1f77b4"/>
     <use xlink:href="#mb8fd5e5f25" x="259.34961" y="223.689546" style="fill: #1f77b4; stroke: #1f77b4"/>
     <use xlink:href="#mb8fd5e5f25" x="265.975213" y="218.224609" style="fill: #1f77b4; stroke: #1f77b4"/>
     <use xlink:href="#mb8fd5e5f25" x="272.600816" y="213.085486" style="fill: #1f77b4; stroke: #1f77b4"/>
     <use xlink:href="#mb8fd5e5f25" x="279.226419" y="208.368514" style="fill: #1f77b4; stroke: #1f77b4"/>
     <use xlink:href="#mb8fd5e5f25" x="285.852022" y="204.170741" style="fill: #1f77b4; stroke: #1f77b4"/>
     <use xlink:href="#mb8fd5e5f25" x="292.477625" y="200.582652" style="fill: #1f77b4; stroke: #1f77b4"/>
     <use xlink:href="#mb8fd5e5f25" x="299.103228" y="197.675904" style="fill: #1f77b4; stroke: #1f77b4"/>
     <use xlink:href="#mb8fd5e5f25" x="305.728831" y="195.484216" style="fill: #1f77b4; stroke: #1f77b4"/>
     <use xlink:href="#mb8fd5e5f25" x="312.354434" y="193.979087" style="fill: #1f77b4; stroke: #1f77b4"/>
     <use xlink:href="#mb8fd5e5f25" x="318.980037" y="193.055641" style="fill: #1f77b4; stroke: #1f77b4"/>
     <use xlink:href="#mb8fd5e5f25" x="325.60564" y="192.553544" style="fill: #1f77b4; stroke: #1f77b4"/>
     <use xlink:href="#mb8fd5e5f25" x="332.231243" y="192.309374" style="fill: #1f77b4; stroke: #1f77b4"/>
     <use xlink:href="#mb8fd5e5f25" x="338.856846" y="192.148882" style="fill: #1f77b4; stroke: #1f77b4"/>
     <use xlink:href="#mb8fd5e5f25" x="345.482449" y="192.132036" style="fill: #1f77b4; stroke: #1f77b4"/>
     <use xlink:href="#mb8fd5e5f25" x="352.108052" y="192.127582" style="fill: #1f77b4; stroke: #1f77b4"/>
     <use xlink:href="#mb8fd5e5f25" x="358.733655" y="192.126339" style="fill: #1f77b4; stroke: #1f77b4"/>
     <use xlink:href="#mb8fd5e5f25" x="365.359258" y="192.125983" style="fill: #1f77b4; stroke: #1f77b4"/>
     <use xlink:href="#mb8fd5e5f25" x="371.984861" y="192.125878" style="fill: #1f77b4; stroke: #1f77b4"/>
     <use xlink:href="#mb8fd5e5f25" x="378.610464" y="192.125845" style="fill: #1f77b4; stroke: #1f77b4"/>
     <use xlink:href="#mb8fd5e5f25" x="385.236067" y="192.125833" style="fill: #1f77b4; stroke: #1f77b4"/>
     <use xlink:href="#mb8fd5e5f25" x="391.86167" y="192.125829" style="fill: #1f77b4; stroke: #1f77b4"/>
     <use xlink:href="#mb8fd5e5f25" x="398.487273" y="192.125828" style="fill: #1f77b4; stroke: #1f77b4"/>
    </g>
   </g>
   <g id="line2d_33">
    <path d="M 73.832727 301.469675 
L 80.45833 301.469671 
L 87.083933 301.469664 
L 93.709536 301.469649 
L 100.335139 301.469617 
L 106.960742 301.469553 
L 113.586345 301.469421 
L 120.211948 301.46915 
L 126.837551 301.468592 
L 133.463154 301.467448 
L 140.088757 301.465096 
L 146.71436 301.460264 
L 153.339963 301.450339 
L 159.965566 301.429955 
L 166.591169 301.388102 
L 173.216772 301.302217 
L 179.842375 301.126194 
L 186.467978 300.766343 
L 193.093581 300.034457 
L 199.719184 298.561363 
L 206.344787 295.657734 
L 212.97039 290.163098 
L 219.595993 280.524674 
L 226.221596 265.670075 
L 232.847199 246.795929 
L 239.472801 227.921784 
L 246.098404 213.067185 
L 252.724007 203.428761 
L 259.34961 197.934124 
L 265.975213 195.030495 
L 272.600816 193.557401 
L 279.226419 192.825515 
L 285.852022 192.465664 
L 292.477625 192.289642 
L 299.103228 192.203757 
L 305.728831 192.161903 
L 312.354434 192.141519 
L 318.980037 192.131594 
L 325.60564 192.126763 
L 332.231243 192.124411 
L 338.856846 192.123266 
L 345.482449 192.122709 
L 352.108052 192.122437 
L 358.733655 192.122305 
L 365.359258 192.122241 
L 371.984861 192.12221 
L 378.610464 192.122195 
L 385.236067 192.122187 
L 391.86167 192.122184 
L 398.487273 192.122182 
" clip-path="url(#pf720b799bb)" style="fill: none; stroke: #ff7f0e; stroke-linecap: square"/>
   </g>
   <g id="patch_10">
    <path d="M 57.6 307.584 
L 57.6 186.624 
" style="fill: none; stroke: #000000; stroke-width: 0.8; stroke-linejoin: miter; stroke-linecap: square"/>
   </g>
   <g id="patch_11">
    <path d="M 414.72 307.584 
L 414.72 186.624 
" style="fill: none; stroke: #000000; stroke-width: 0.8; stroke-linejoin: miter; stroke-linecap: square"/>
   </g>
   <g id="patch_12">
    <path d="M 57.6 307.584 
L 414.72 307.584 
" style="fill: none; stroke: #000000; stroke-width: 0.8; stroke-linejoin: miter; stroke-linecap: square"/>
   </g>
   <g id="patch_13">
    <path d="M 57.6 186.624 
L 414.72 186.624 
" style="fill: none; stroke: #000000; stroke-width: 0.8; stroke-linejoin: miter; stroke-linecap: square"/>
   </g>
   <g id="text_27">
    <g id="patch_14">
     <path d="M 320.318211 254.634992 
L 403.038524 254.634992 
Q 406.038524 254.634992 406.038524 251.634992 
L 406.038524 241.956867 
Q 406.038524 238.956867 403.038524 238.956867 
L 320.318211 238.956867 
Q 317.318211 238.956867 317.318211 241.956867 
L 317.318211 251.634992 
Q 317.318211 254.634992 320.318211 254.634992 
z
" style="fill: #ffffff; stroke: #000000; stroke-linejoin: miter"/>
    </g>
    <!-- RSME : 2.23e-02 -->
    <g transform="translate(320.318211 249.555304) scale(0.1 -0.1)">
     <use xlink:href="#DejaVuSans-52"/>
     <use xlink:href="#DejaVuSans-53" x="69.482422"/>
     <use xlink:href="#DejaVuSans-4d" x="132.958984"/>
     <use xlink:href="#DejaVuSans-45" x="219.238281"/>
     <use xlink:href="#DejaVuSans-20" x="282.421875"/>
     <use xlink:href="#DejaVuSans-3a" x="314.208984"/>
     <use xlink:href="#DejaVuSans-20" x="347.900391"/>
     <use xlink:href="#DejaVuSans-32" x="379.6875"/>
     <use xlink:href="#DejaVuSans-2e" x="443.310547"/>
     <use xlink:href="#DejaVuSans-32" x="475.097656"/>
     <use xlink:href="#DejaVuSans-33" x="538.720703"/>
     <use xlink:href="#DejaVuSans-65" x="602.34375"/>
     <use xlink:href="#DejaVuSans-2d" x="663.867188"/>
     <use xlink:href="#DejaVuSans-30" x="699.951172"/>
     <use xlink:href="#DejaVuSans-32" x="763.574219"/>
    </g>
   </g>
   <g id="text_28">
    <!-- tanh -->
    <g transform="translate(222.525937 180.624) scale(0.12 -0.12)">
     <defs>
      <path id="DejaVuSans-68" d="M 3513 2113 
L 3513 0 
L 2938 0 
L 2938 2094 
Q 2938 2591 2744 2837 
Q 2550 3084 2163 3084 
Q 1697 3084 1428 2787 
Q 1159 2491 1159 1978 
L 1159 0 
L 581 0 
L 581 4863 
L 1159 4863 
L 1159 2956 
Q 1366 3272 1645 3428 
Q 1925 3584 2291 3584 
Q 2894 3584 3203 3211 
Q 3513 2838 3513 2113 
z
" transform="scale(0.015625)"/>
     </defs>
     <use xlink:href="#DejaVuSans-74"/>
     <use xlink:href="#DejaVuSans-61" x="39.208984"/>
     <use xlink:href="#DejaVuSans-6e" x="100.488281"/>
     <use xlink:href="#DejaVuSans-68" x="163.867188"/>
    </g>
   </g>
   <g id="legend_2">
    <g id="patch_15">
     <path d="M 64.6 223.98025 
L 172.9 223.98025 
Q 174.9 223.98025 174.9 221.98025 
L 174.9 193.624 
Q 174.9 191.624 172.9 191.624 
L 64.6 191.624 
Q 62.6 191.624 62.6 193.624 
L 62.6 221.98025 
Q 62.6 223.98025 64.6 223.98025 
z
" style="fill: #ffffff; opacity: 0.8; stroke: #cccccc; stroke-linejoin: miter"/>
    </g>
    <g id="line2d_34">
     <path d="M 66.6 199.722437 
L 76.6 199.722437 
L 86.6 199.722437 
" style="fill: none; stroke: #1f77b4; stroke-linecap: square"/>
     <g>
      <use xlink:href="#mb8fd5e5f25" x="76.6" y="199.722437" style="fill: #1f77b4; stroke: #1f77b4"/>
     </g>
    </g>
    <g id="text_29">
     <!-- Circuit's output -->
     <g transform="translate(94.6 203.222437) scale(0.1 -0.1)">
      <use xlink:href="#DejaVuSans-43"/>
      <use xlink:href="#DejaVuSans-69" x="69.824219"/>
      <use xlink:href="#DejaVuSans-72" x="97.607422"/>
      <use xlink:href="#DejaVuSans-63" x="136.470703"/>
      <use xlink:href="#DejaVuSans-75" x="191.451172"/>
      <use xlink:href="#DejaVuSans-69" x="254.830078"/>
      <use xlink:href="#DejaVuSans-74" x="282.613281"/>
      <use xlink:href="#DejaVuSans-27" x="321.822266"/>
      <use xlink:href="#DejaVuSans-73" x="349.3125"/>
      <use xlink:href="#DejaVuSans-20" x="401.412109"/>
      <use xlink:href="#DejaVuSans-6f" x="433.199219"/>
      <use xlink:href="#DejaVuSans-75" x="494.380859"/>
      <use xlink:href="#DejaVuSans-74" x="557.759766"/>
      <use xlink:href="#DejaVuSans-70" x="596.96875"/>
      <use xlink:href="#DejaVuSans-75" x="660.445312"/>
      <use xlink:href="#DejaVuSans-74" x="723.824219"/>
     </g>
    </g>
    <g id="line2d_35">
     <path d="M 66.6 214.400562 
L 76.6 214.400562 
L 86.6 214.400562 
" style="fill: none; stroke: #ff7f0e; stroke-linecap: square"/>
    </g>
    <g id="text_30">
     <!-- Ideal output -->
     <g transform="translate(94.6 217.900562) scale(0.1 -0.1)">
      <use xlink:href="#DejaVuSans-49"/>
      <use xlink:href="#DejaVuSans-64" x="29.492188"/>
      <use xlink:href="#DejaVuSans-65" x="92.96875"/>
      <use xlink:href="#DejaVuSans-61" x="154.492188"/>
      <use xlink:href="#DejaVuSans-6c" x="215.771484"/>
      <use xlink:href="#DejaVuSans-20" x="243.554688"/>
      <use xlink:href="#DejaVuSans-6f" x="275.341797"/>
      <use xlink:href="#DejaVuSans-75" x="336.523438"/>
      <use xlink:href="#DejaVuSans-74" x="399.902344"/>
      <use xlink:href="#DejaVuSans-70" x="439.111328"/>
      <use xlink:href="#DejaVuSans-75" x="502.587891"/>
      <use xlink:href="#DejaVuSans-74" x="565.966797"/>
     </g>
    </g>
   </g>
  </g>
 </g>
 <defs>
  <clipPath id="p69de7eaf1d">
   <rect x="57.6" y="41.472" width="357.12" height="120.96"/>
  </clipPath>
  <clipPath id="pf720b799bb">
   <rect x="57.6" y="186.624" width="357.12" height="120.96"/>
  </clipPath>
 </defs>
</svg>
