<?xml version="1.0" encoding="utf-8" standalone="no"?>
<!DOCTYPE svg PUBLIC "-//W3C//DTD SVG 1.1//EN"
  "http://www.w3.org/Graphics/SVG/1.1/DTD/svg11.dtd">
<svg xmlns:xlink="http://www.w3.org/1999/xlink" width="416.480937pt" height="310.86825pt" viewBox="0 0 416.480937 310.86825" xmlns="http://www.w3.org/2000/svg" version="1.1">
 <metadata>
  <rdf:RDF xmlns:dc="http://purl.org/dc/elements/1.1/" xmlns:cc="http://creativecommons.org/ns#" xmlns:rdf="http://www.w3.org/1999/02/22-rdf-syntax-ns#">
   <cc:Work>
    <dc:type rdf:resource="http://purl.org/dc/dcmitype/StillImage"/>
    <dc:date>2023-10-17T17:26:17.091464</dc:date>
    <dc:format>image/svg+xml</dc:format>
    <dc:creator>
     <cc:Agent>
      <dc:title>Matplotlib v3.8.0, https://matplotlib.org/</dc:title>
     </cc:Agent>
    </dc:creator>
   </cc:Work>
  </rdf:RDF>
 </metadata>
 <defs>
  <style type="text/css">*{stroke-linejoin: round; stroke-linecap: butt}</style>
 </defs>
 <g id="figure_1">
  <g id="patch_1">
   <path d="M 0 310.86825 
L 416.480937 310.86825 
L 416.480937 0 
L 0 0 
z
" style="fill: #ffffff"/>
  </g>
  <g id="axes_1">
   <g id="patch_2">
    <path d="M 52.160938 140.256 
L 409.280938 140.256 
L 409.280938 7.2 
L 52.160938 7.2 
z
" style="fill: #ffffff"/>
   </g>
   <g id="matplotlib.axis_1">
    <g id="xtick_1">
     <g id="line2d_1">
      <defs>
       <path id="m878cdc89d2" d="M 0 0 
L 0 3.5 
" style="stroke: #000000; stroke-width: 0.8"/>
      </defs>
      <g>
       <use xlink:href="#m878cdc89d2" x="68.393665" y="140.256" style="stroke: #000000; stroke-width: 0.8"/>
      </g>
     </g>
    </g>
    <g id="xtick_2">
     <g id="line2d_2">
      <g>
       <use xlink:href="#m878cdc89d2" x="122.957454" y="140.256" style="stroke: #000000; stroke-width: 0.8"/>
      </g>
     </g>
    </g>
    <g id="xtick_3">
     <g id="line2d_3">
      <g>
       <use xlink:href="#m878cdc89d2" x="177.521243" y="140.256" style="stroke: #000000; stroke-width: 0.8"/>
      </g>
     </g>
    </g>
    <g id="xtick_4">
     <g id="line2d_4">
      <g>
       <use xlink:href="#m878cdc89d2" x="232.085032" y="140.256" style="stroke: #000000; stroke-width: 0.8"/>
      </g>
     </g>
    </g>
    <g id="xtick_5">
     <g id="line2d_5">
      <g>
       <use xlink:href="#m878cdc89d2" x="286.648821" y="140.256" style="stroke: #000000; stroke-width: 0.8"/>
      </g>
     </g>
    </g>
    <g id="xtick_6">
     <g id="line2d_6">
      <g>
       <use xlink:href="#m878cdc89d2" x="341.212611" y="140.256" style="stroke: #000000; stroke-width: 0.8"/>
      </g>
     </g>
    </g>
    <g id="xtick_7">
     <g id="line2d_7">
      <g>
       <use xlink:href="#m878cdc89d2" x="395.7764" y="140.256" style="stroke: #000000; stroke-width: 0.8"/>
      </g>
     </g>
    </g>
   </g>
   <g id="matplotlib.axis_2">
    <g id="ytick_1">
     <g id="line2d_8">
      <defs>
       <path id="mc4c635c055" d="M 0 0 
L -3.5 0 
" style="stroke: #000000; stroke-width: 0.8"/>
      </defs>
      <g>
       <use xlink:href="#mc4c635c055" x="52.160938" y="134.208" style="stroke: #000000; stroke-width: 0.8"/>
      </g>
     </g>
     <g id="text_1">
      <text style="font: 10px 'DejaVu Sans', 'Bitstream Vera Sans', 'Computer Modern Sans Serif', 'Lucida Grande', 'Verdana', 'Geneva', 'Lucid', 'Arial', 'Helvetica', 'Avant Garde', sans-serif; text-anchor: end" x="45.160938" y="138.007219" transform="rotate(-0 45.160938 138.007219)">0.0</text>
     </g>
    </g>
    <g id="ytick_2">
     <g id="line2d_9">
      <g>
       <use xlink:href="#mc4c635c055" x="52.160938" y="110.016" style="stroke: #000000; stroke-width: 0.8"/>
      </g>
     </g>
     <g id="text_2">
      <text style="font: 10px 'DejaVu Sans', 'Bitstream Vera Sans', 'Computer Modern Sans Serif', 'Lucida Grande', 'Verdana', 'Geneva', 'Lucid', 'Arial', 'Helvetica', 'Avant Garde', sans-serif; text-anchor: end" x="45.160938" y="113.815219" transform="rotate(-0 45.160938 113.815219)">0.2</text>
     </g>
    </g>
    <g id="ytick_3">
     <g id="line2d_10">
      <g>
       <use xlink:href="#mc4c635c055" x="52.160938" y="85.824" style="stroke: #000000; stroke-width: 0.8"/>
      </g>
     </g>
     <g id="text_3">
      <text style="font: 10px 'DejaVu Sans', 'Bitstream Vera Sans', 'Computer Modern Sans Serif', 'Lucida Grande', 'Verdana', 'Geneva', 'Lucid', 'Arial', 'Helvetica', 'Avant Garde', sans-serif; text-anchor: end" x="45.160938" y="89.623219" transform="rotate(-0 45.160938 89.623219)">0.4</text>
     </g>
    </g>
    <g id="ytick_4">
     <g id="line2d_11">
      <g>
       <use xlink:href="#mc4c635c055" x="52.160938" y="61.632" style="stroke: #000000; stroke-width: 0.8"/>
      </g>
     </g>
     <g id="text_4">
      <text style="font: 10px 'DejaVu Sans', 'Bitstream Vera Sans', 'Computer Modern Sans Serif', 'Lucida Grande', 'Verdana', 'Geneva', 'Lucid', 'Arial', 'Helvetica', 'Avant Garde', sans-serif; text-anchor: end" x="45.160938" y="65.431219" transform="rotate(-0 45.160938 65.431219)">0.6</text>
     </g>
    </g>
    <g id="ytick_5">
     <g id="line2d_12">
      <g>
       <use xlink:href="#mc4c635c055" x="52.160938" y="37.44" style="stroke: #000000; stroke-width: 0.8"/>
      </g>
     </g>
     <g id="text_5">
      <text style="font: 10px 'DejaVu Sans', 'Bitstream Vera Sans', 'Computer Modern Sans Serif', 'Lucida Grande', 'Verdana', 'Geneva', 'Lucid', 'Arial', 'Helvetica', 'Avant Garde', sans-serif; text-anchor: end" x="45.160938" y="41.239219" transform="rotate(-0 45.160938 41.239219)">0.8</text>
     </g>
    </g>
    <g id="ytick_6">
     <g id="line2d_13">
      <g>
       <use xlink:href="#mc4c635c055" x="52.160938" y="13.248" style="stroke: #000000; stroke-width: 0.8"/>
      </g>
     </g>
     <g id="text_6">
      <text style="font: 10px 'DejaVu Sans', 'Bitstream Vera Sans', 'Computer Modern Sans Serif', 'Lucida Grande', 'Verdana', 'Geneva', 'Lucid', 'Arial', 'Helvetica', 'Avant Garde', sans-serif; text-anchor: end" x="45.160938" y="17.047219" transform="rotate(-0 45.160938 17.047219)">1.0</text>
     </g>
    </g>
    <g id="text_7">
     <text style="font: 10px 'DejaVu Sans', 'Bitstream Vera Sans', 'Computer Modern Sans Serif', 'Lucida Grande', 'Verdana', 'Geneva', 'Lucid', 'Arial', 'Helvetica', 'Avant Garde', sans-serif; text-anchor: middle" x="23.178125" y="73.728" transform="rotate(-90 23.178125 73.728)">Output</text>
    </g>
   </g>
   <g id="line2d_14">
    <path d="M 68.393665 134.208 
L 71.121854 134.208 
L 73.850044 134.208 
L 76.578233 134.208 
L 79.306423 134.208 
L 82.034612 134.208 
L 84.762802 134.208 
L 87.490991 134.208 
L 90.21918 134.208 
L 92.94737 134.208 
L 95.675559 134.208 
L 98.403749 134.208 
L 101.131938 134.208 
L 103.860128 134.208 
L 106.588317 134.208 
L 109.316507 134.208 
L 112.044696 134.208 
L 114.772886 134.208 
L 117.501075 134.208 
L 120.229264 134.208 
L 122.957454 134.208 
L 125.685643 134.208 
L 128.413833 134.208 
L 131.142022 134.208 
L 133.870212 134.208 
L 136.598401 134.208 
L 139.326591 134.208 
L 142.05478 134.208 
L 144.78297 134.208 
L 147.511159 134.208 
L 150.239349 134.208 
L 152.967538 134.208 
L 155.695727 134.208 
L 158.423917 134.208 
L 161.152106 134.208 
L 163.880296 134.208 
L 166.608485 131.7888 
L 169.336675 129.3696 
L 172.064864 126.9504 
L 174.793054 124.5312 
L 177.521243 122.112 
L 180.249433 119.6928 
L 182.977622 117.2736 
L 185.705811 114.8544 
L 188.434001 112.4352 
L 191.16219 110.016 
L 193.89038 107.5968 
L 196.618569 105.1776 
L 199.346759 102.7584 
L 202.074948 100.3392 
L 204.803138 97.92 
L 207.531327 95.5008 
L 210.259517 93.0816 
L 212.987706 90.6624 
L 215.715895 88.2432 
L 218.444085 85.824 
L 221.172274 83.4048 
L 223.900464 80.9856 
L 226.628653 78.5664 
L 229.356843 76.1472 
L 232.085032 73.728 
L 234.813222 71.3088 
L 237.541411 68.8896 
L 240.269601 66.4704 
L 242.99779 64.0512 
L 245.72598 61.632 
L 248.454169 59.2128 
L 251.182358 56.7936 
L 253.910548 54.3744 
L 256.638737 51.9552 
L 259.366927 49.536 
L 262.095116 47.1168 
L 264.823306 44.6976 
L 267.551495 42.2784 
L 270.279685 39.8592 
L 273.007874 37.44 
L 275.736064 35.0208 
L 278.464253 32.6016 
L 281.192442 30.1824 
L 283.920632 27.7632 
L 286.648821 25.344 
L 289.377011 22.9248 
L 292.1052 20.5056 
L 294.83339 18.0864 
L 297.561579 15.6672 
L 300.289769 13.248 
L 303.017958 13.248 
L 305.746148 13.248 
L 308.474337 13.248 
L 311.202526 13.248 
L 313.930716 13.248 
L 316.658905 13.248 
L 319.387095 13.248 
L 322.115284 13.248 
L 324.843474 13.248 
L 327.571663 13.248 
L 330.299853 13.248 
L 333.028042 13.248 
L 335.756232 13.248 
L 338.484421 13.248 
L 341.212611 13.248 
L 343.9408 13.248 
L 346.668989 13.248 
L 349.397179 13.248 
L 352.125368 13.248 
L 354.853558 13.248 
L 357.581747 13.248 
L 360.309937 13.248 
L 363.038126 13.248 
L 365.766316 13.248 
L 368.494505 13.248 
L 371.222695 13.248 
L 373.950884 13.248 
L 376.679073 13.248 
L 379.407263 13.248 
L 382.135452 13.248 
L 384.863642 13.248 
L 387.591831 13.248 
L 390.320021 13.248 
L 393.04821 13.248 
" clip-path="url(#p9175f42dcd)" style="fill: none; stroke: #2e8b57; stroke-linecap: square"/>
   </g>
   <g id="line2d_15">
    <path d="M 68.393665 133.908912 
L 71.121854 133.877542 
L 73.850044 133.842892 
L 76.578233 133.804622 
L 79.306423 133.762354 
L 82.034612 133.715676 
L 84.762802 133.664131 
L 87.490991 133.607216 
L 90.21918 133.544377 
L 92.94737 133.475006 
L 95.675559 133.398433 
L 98.403749 133.313919 
L 101.131938 133.220655 
L 103.860128 133.117751 
L 106.588317 133.00423 
L 109.316507 132.879019 
L 112.044696 132.740945 
L 114.772886 132.588718 
L 117.501075 132.420933 
L 120.229264 132.23605 
L 122.957454 132.032388 
L 125.685643 131.808117 
L 128.413833 131.561241 
L 131.142022 131.289595 
L 133.870212 130.990828 
L 136.598401 130.662393 
L 139.326591 130.301541 
L 142.05478 129.905309 
L 144.78297 129.470514 
L 147.511159 128.993746 
L 150.239349 128.471366 
L 152.967538 127.899505 
L 155.695727 127.274068 
L 158.423917 126.590743 
L 161.152106 125.845017 
L 163.880296 125.032195 
L 166.608485 124.147431 
L 169.336675 123.185767 
L 172.064864 122.142181 
L 174.793054 121.011649 
L 177.521243 119.789215 
L 180.249433 118.470079 
L 182.977622 117.049695 
L 185.705811 115.523882 
L 188.434001 113.888944 
L 191.16219 112.141809 
L 193.89038 110.280163 
L 196.618569 108.3026 
L 199.346759 106.208758 
L 202.074948 103.999462 
L 204.803138 101.676846 
L 207.531327 99.244452 
L 210.259517 96.707313 
L 212.987706 94.071993 
L 215.715895 91.346587 
L 218.444085 88.540681 
L 221.172274 85.665259 
L 223.900464 82.732567 
L 226.628653 79.75592 
L 229.356843 76.749483 
L 232.085032 73.728 
L 234.813222 70.706517 
L 237.541411 67.70008 
L 240.269601 64.723433 
L 242.99779 61.790741 
L 245.72598 58.915319 
L 248.454169 56.109413 
L 251.182358 53.384007 
L 253.910548 50.748687 
L 256.638737 48.211548 
L 259.366927 45.779154 
L 262.095116 43.456538 
L 264.823306 41.247242 
L 267.551495 39.1534 
L 270.279685 37.175837 
L 273.007874 35.314191 
L 275.736064 33.567056 
L 278.464253 31.932118 
L 281.192442 30.406305 
L 283.920632 28.985921 
L 286.648821 27.666785 
L 289.377011 26.444351 
L 292.1052 25.313819 
L 294.83339 24.270233 
L 297.561579 23.308569 
L 300.289769 22.423805 
L 303.017958 21.610983 
L 305.746148 20.865257 
L 308.474337 20.181932 
L 311.202526 19.556495 
L 313.930716 18.984634 
L 316.658905 18.462254 
L 319.387095 17.985486 
L 322.115284 17.550691 
L 324.843474 17.154459 
L 327.571663 16.793607 
L 330.299853 16.465172 
L 333.028042 16.166405 
L 335.756232 15.894759 
L 338.484421 15.647883 
L 341.212611 15.423612 
L 343.9408 15.21995 
L 346.668989 15.035067 
L 349.397179 14.867282 
L 352.125368 14.715055 
L 354.853558 14.576981 
L 357.581747 14.45177 
L 360.309937 14.338249 
L 363.038126 14.235345 
L 365.766316 14.142081 
L 368.494505 14.057567 
L 371.222695 13.980994 
L 373.950884 13.911623 
L 376.679073 13.848784 
L 379.407263 13.791869 
L 382.135452 13.740324 
L 384.863642 13.693646 
L 387.591831 13.651378 
L 390.320021 13.613108 
L 393.04821 13.578458 
" clip-path="url(#p9175f42dcd)" style="fill: none; stroke: #800000; stroke-linecap: square"/>
   </g>
   <g id="patch_3">
    <path d="M 52.160938 140.256 
L 52.160938 7.2 
" style="fill: none; stroke: #000000; stroke-width: 0.8; stroke-linejoin: miter; stroke-linecap: square"/>
   </g>
   <g id="patch_4">
    <path d="M 409.280938 140.256 
L 409.280938 7.2 
" style="fill: none; stroke: #000000; stroke-width: 0.8; stroke-linejoin: miter; stroke-linecap: square"/>
   </g>
   <g id="patch_5">
    <path d="M 52.160937 140.256 
L 409.280938 140.256 
" style="fill: none; stroke: #000000; stroke-width: 0.8; stroke-linejoin: miter; stroke-linecap: square"/>
   </g>
   <g id="patch_6">
    <path d="M 52.160937 7.2 
L 409.280938 7.2 
" style="fill: none; stroke: #000000; stroke-width: 0.8; stroke-linejoin: miter; stroke-linecap: square"/>
   </g>
   <g id="legend_1">
    <g id="patch_7">
     <path d="M 59.160938 44.55625 
L 157.59375 44.55625 
Q 159.59375 44.55625 159.59375 42.55625 
L 159.59375 14.2 
Q 159.59375 12.2 157.59375 12.2 
L 59.160938 12.2 
Q 57.160938 12.2 57.160938 14.2 
L 57.160938 42.55625 
Q 57.160938 44.55625 59.160938 44.55625 
z
" style="fill: #ffffff; opacity: 0.8; stroke: #cccccc; stroke-linejoin: miter"/>
    </g>
    <g id="line2d_16">
     <path d="M 61.160938 20.298437 
L 71.160938 20.298437 
L 81.160938 20.298437 
" style="fill: none; stroke: #2e8b57; stroke-linecap: square"/>
    </g>
    <g id="text_8">
     <text style="font: 10px 'DejaVu Sans', 'Bitstream Vera Sans', 'Computer Modern Sans Serif', 'Lucida Grande', 'Verdana', 'Geneva', 'Lucid', 'Arial', 'Helvetica', 'Avant Garde', sans-serif; text-anchor: start" x="89.160938" y="23.798437" transform="rotate(-0 89.160938 23.798437)">Hard sigmoid</text>
    </g>
    <g id="line2d_17">
     <path d="M 61.160938 34.976562 
L 71.160938 34.976562 
L 81.160938 34.976562 
" style="fill: none; stroke: #800000; stroke-linecap: square"/>
    </g>
    <g id="text_9">
     <text style="font: 10px 'DejaVu Sans', 'Bitstream Vera Sans', 'Computer Modern Sans Serif', 'Lucida Grande', 'Verdana', 'Geneva', 'Lucid', 'Arial', 'Helvetica', 'Avant Garde', sans-serif; text-anchor: start" x="89.160938" y="38.476562" transform="rotate(-0 89.160938 38.476562)">Sigmoid</text>
    </g>
   </g>
  </g>
  <g id="axes_2">
   <g id="patch_8">
    <path d="M 52.160938 273.312 
L 409.280938 273.312 
L 409.280938 140.256 
L 52.160938 140.256 
z
" style="fill: #ffffff"/>
   </g>
   <g id="matplotlib.axis_3">
    <g id="xtick_8">
     <g id="line2d_18">
      <g>
       <use xlink:href="#m878cdc89d2" x="68.393665" y="273.312" style="stroke: #000000; stroke-width: 0.8"/>
      </g>
     </g>
     <g id="text_10">
      <text style="font: 10px 'DejaVu Sans', 'Bitstream Vera Sans', 'Computer Modern Sans Serif', 'Lucida Grande', 'Verdana', 'Geneva', 'Lucid', 'Arial', 'Helvetica', 'Avant Garde', sans-serif; text-anchor: middle" x="68.393665" y="287.910437" transform="rotate(-0 68.393665 287.910437)">−6</text>
     </g>
    </g>
    <g id="xtick_9">
     <g id="line2d_19">
      <g>
       <use xlink:href="#m878cdc89d2" x="122.957454" y="273.312" style="stroke: #000000; stroke-width: 0.8"/>
      </g>
     </g>
     <g id="text_11">
      <text style="font: 10px 'DejaVu Sans', 'Bitstream Vera Sans', 'Computer Modern Sans Serif', 'Lucida Grande', 'Verdana', 'Geneva', 'Lucid', 'Arial', 'Helvetica', 'Avant Garde', sans-serif; text-anchor: middle" x="122.957454" y="287.910437" transform="rotate(-0 122.957454 287.910437)">−4</text>
     </g>
    </g>
    <g id="xtick_10">
     <g id="line2d_20">
      <g>
       <use xlink:href="#m878cdc89d2" x="177.521243" y="273.312" style="stroke: #000000; stroke-width: 0.8"/>
      </g>
     </g>
     <g id="text_12">
      <text style="font: 10px 'DejaVu Sans', 'Bitstream Vera Sans', 'Computer Modern Sans Serif', 'Lucida Grande', 'Verdana', 'Geneva', 'Lucid', 'Arial', 'Helvetica', 'Avant Garde', sans-serif; text-anchor: middle" x="177.521243" y="287.910437" transform="rotate(-0 177.521243 287.910437)">−2</text>
     </g>
    </g>
    <g id="xtick_11">
     <g id="line2d_21">
      <g>
       <use xlink:href="#m878cdc89d2" x="232.085032" y="273.312" style="stroke: #000000; stroke-width: 0.8"/>
      </g>
     </g>
     <g id="text_13">
      <text style="font: 10px 'DejaVu Sans', 'Bitstream Vera Sans', 'Computer Modern Sans Serif', 'Lucida Grande', 'Verdana', 'Geneva', 'Lucid', 'Arial', 'Helvetica', 'Avant Garde', sans-serif; text-anchor: middle" x="232.085032" y="287.910437" transform="rotate(-0 232.085032 287.910437)">0</text>
     </g>
    </g>
    <g id="xtick_12">
     <g id="line2d_22">
      <g>
       <use xlink:href="#m878cdc89d2" x="286.648821" y="273.312" style="stroke: #000000; stroke-width: 0.8"/>
      </g>
     </g>
     <g id="text_14">
      <text style="font: 10px 'DejaVu Sans', 'Bitstream Vera Sans', 'Computer Modern Sans Serif', 'Lucida Grande', 'Verdana', 'Geneva', 'Lucid', 'Arial', 'Helvetica', 'Avant Garde', sans-serif; text-anchor: middle" x="286.648821" y="287.910437" transform="rotate(-0 286.648821 287.910437)">2</text>
     </g>
    </g>
    <g id="xtick_13">
     <g id="line2d_23">
      <g>
       <use xlink:href="#m878cdc89d2" x="341.212611" y="273.312" style="stroke: #000000; stroke-width: 0.8"/>
      </g>
     </g>
     <g id="text_15">
      <text style="font: 10px 'DejaVu Sans', 'Bitstream Vera Sans', 'Computer Modern Sans Serif', 'Lucida Grande', 'Verdana', 'Geneva', 'Lucid', 'Arial', 'Helvetica', 'Avant Garde', sans-serif; text-anchor: middle" x="341.212611" y="287.910437" transform="rotate(-0 341.212611 287.910437)">4</text>
     </g>
    </g>
    <g id="xtick_14">
     <g id="line2d_24">
      <g>
       <use xlink:href="#m878cdc89d2" x="395.7764" y="273.312" style="stroke: #000000; stroke-width: 0.8"/>
      </g>
     </g>
     <g id="text_16">
      <text style="font: 10px 'DejaVu Sans', 'Bitstream Vera Sans', 'Computer Modern Sans Serif', 'Lucida Grande', 'Verdana', 'Geneva', 'Lucid', 'Arial', 'Helvetica', 'Avant Garde', sans-serif; text-anchor: middle" x="395.7764" y="287.910437" transform="rotate(-0 395.7764 287.910437)">6</text>
     </g>
    </g>
    <g id="text_17">
     <text style="font: 10px 'DejaVu Sans', 'Bitstream Vera Sans', 'Computer Modern Sans Serif', 'Lucida Grande', 'Verdana', 'Geneva', 'Lucid', 'Arial', 'Helvetica', 'Avant Garde', sans-serif; text-anchor: middle" x="230.720938" y="301.588562" transform="rotate(-0 230.720938 301.588562)">Input</text>
    </g>
   </g>
   <g id="matplotlib.axis_4">
    <g id="ytick_7">
     <g id="line2d_25">
      <g>
       <use xlink:href="#mc4c635c055" x="52.160938" y="267.264" style="stroke: #000000; stroke-width: 0.8"/>
      </g>
     </g>
     <g id="text_18">
      <text style="font: 10px 'DejaVu Sans', 'Bitstream Vera Sans', 'Computer Modern Sans Serif', 'Lucida Grande', 'Verdana', 'Geneva', 'Lucid', 'Arial', 'Helvetica', 'Avant Garde', sans-serif; text-anchor: end" x="45.160938" y="271.063219" transform="rotate(-0 45.160938 271.063219)">−1.0</text>
     </g>
    </g>
    <g id="ytick_8">
     <g id="line2d_26">
      <g>
       <use xlink:href="#mc4c635c055" x="52.160938" y="237.024" style="stroke: #000000; stroke-width: 0.8"/>
      </g>
     </g>
     <g id="text_19">
      <text style="font: 10px 'DejaVu Sans', 'Bitstream Vera Sans', 'Computer Modern Sans Serif', 'Lucida Grande', 'Verdana', 'Geneva', 'Lucid', 'Arial', 'Helvetica', 'Avant Garde', sans-serif; text-anchor: end" x="45.160938" y="240.823219" transform="rotate(-0 45.160938 240.823219)">−0.5</text>
     </g>
    </g>
    <g id="ytick_9">
     <g id="line2d_27">
      <g>
       <use xlink:href="#mc4c635c055" x="52.160938" y="206.784" style="stroke: #000000; stroke-width: 0.8"/>
      </g>
     </g>
     <g id="text_20">
      <text style="font: 10px 'DejaVu Sans', 'Bitstream Vera Sans', 'Computer Modern Sans Serif', 'Lucida Grande', 'Verdana', 'Geneva', 'Lucid', 'Arial', 'Helvetica', 'Avant Garde', sans-serif; text-anchor: end" x="45.160938" y="210.583219" transform="rotate(-0 45.160938 210.583219)">0.0</text>
     </g>
    </g>
    <g id="ytick_10">
     <g id="line2d_28">
      <g>
       <use xlink:href="#mc4c635c055" x="52.160938" y="176.544" style="stroke: #000000; stroke-width: 0.8"/>
      </g>
     </g>
     <g id="text_21">
      <text style="font: 10px 'DejaVu Sans', 'Bitstream Vera Sans', 'Computer Modern Sans Serif', 'Lucida Grande', 'Verdana', 'Geneva', 'Lucid', 'Arial', 'Helvetica', 'Avant Garde', sans-serif; text-anchor: end" x="45.160938" y="180.343219" transform="rotate(-0 45.160938 180.343219)">0.5</text>
     </g>
    </g>
    <g id="ytick_11">
     <g id="line2d_29">
      <g>
       <use xlink:href="#mc4c635c055" x="52.160938" y="146.304" style="stroke: #000000; stroke-width: 0.8"/>
      </g>
     </g>
     <g id="text_22">
      <text style="font: 10px 'DejaVu Sans', 'Bitstream Vera Sans', 'Computer Modern Sans Serif', 'Lucida Grande', 'Verdana', 'Geneva', 'Lucid', 'Arial', 'Helvetica', 'Avant Garde', sans-serif; text-anchor: end" x="45.160938" y="150.103219" transform="rotate(-0 45.160938 150.103219)">1.0</text>
     </g>
    </g>
    <g id="text_23">
     <text style="font: 10px 'DejaVu Sans', 'Bitstream Vera Sans', 'Computer Modern Sans Serif', 'Lucida Grande', 'Verdana', 'Geneva', 'Lucid', 'Arial', 'Helvetica', 'Avant Garde', sans-serif; text-anchor: middle" x="14.798437" y="206.784" transform="rotate(-90 14.798437 206.784)">Output</text>
    </g>
   </g>
   <g id="line2d_30">
    <path d="M 68.393665 267.264 
L 71.121854 267.264 
L 73.850044 267.264 
L 76.578233 267.264 
L 79.306423 267.264 
L 82.034612 267.264 
L 84.762802 267.264 
L 87.490991 267.264 
L 90.21918 267.264 
L 92.94737 267.264 
L 95.675559 267.264 
L 98.403749 267.264 
L 101.131938 267.264 
L 103.860128 267.264 
L 106.588317 267.264 
L 109.316507 267.264 
L 112.044696 267.264 
L 114.772886 267.264 
L 117.501075 267.264 
L 120.229264 267.264 
L 122.957454 267.264 
L 125.685643 267.264 
L 128.413833 267.264 
L 131.142022 267.264 
L 133.870212 267.264 
L 136.598401 267.264 
L 139.326591 267.264 
L 142.05478 267.264 
L 144.78297 267.264 
L 147.511159 267.264 
L 150.239349 267.264 
L 152.967538 267.264 
L 155.695727 267.264 
L 158.423917 267.264 
L 161.152106 267.264 
L 163.880296 267.264 
L 166.608485 267.264 
L 169.336675 267.264 
L 172.064864 267.264 
L 174.793054 267.264 
L 177.521243 267.264 
L 180.249433 267.264 
L 182.977622 267.264 
L 185.705811 267.264 
L 188.434001 267.264 
L 191.16219 267.264 
L 193.89038 267.264 
L 196.618569 267.264 
L 199.346759 267.264 
L 202.074948 267.264 
L 204.803138 267.264 
L 207.531327 261.216 
L 210.259517 255.168 
L 212.987706 249.12 
L 215.715895 243.072 
L 218.444085 237.024 
L 221.172274 230.976 
L 223.900464 224.928 
L 226.628653 218.88 
L 229.356843 212.832 
L 232.085032 206.784 
L 234.813222 200.736 
L 237.541411 194.688 
L 240.269601 188.64 
L 242.99779 182.592 
L 245.72598 176.544 
L 248.454169 170.496 
L 251.182358 164.448 
L 253.910548 158.4 
L 256.638737 152.352 
L 259.366927 146.304 
L 262.095116 146.304 
L 264.823306 146.304 
L 267.551495 146.304 
L 270.279685 146.304 
L 273.007874 146.304 
L 275.736064 146.304 
L 278.464253 146.304 
L 281.192442 146.304 
L 283.920632 146.304 
L 286.648821 146.304 
L 289.377011 146.304 
L 292.1052 146.304 
L 294.83339 146.304 
L 297.561579 146.304 
L 300.289769 146.304 
L 303.017958 146.304 
L 305.746148 146.304 
L 308.474337 146.304 
L 311.202526 146.304 
L 313.930716 146.304 
L 316.658905 146.304 
L 319.387095 146.304 
L 322.115284 146.304 
L 324.843474 146.304 
L 327.571663 146.304 
L 330.299853 146.304 
L 333.028042 146.304 
L 335.756232 146.304 
L 338.484421 146.304 
L 341.212611 146.304 
L 343.9408 146.304 
L 346.668989 146.304 
L 349.397179 146.304 
L 352.125368 146.304 
L 354.853558 146.304 
L 357.581747 146.304 
L 360.309937 146.304 
L 363.038126 146.304 
L 365.766316 146.304 
L 368.494505 146.304 
L 371.222695 146.304 
L 373.950884 146.304 
L 376.679073 146.304 
L 379.407263 146.304 
L 382.135452 146.304 
L 384.863642 146.304 
L 387.591831 146.304 
L 390.320021 146.304 
L 393.04821 146.304 
" clip-path="url(#p1f1981bd51)" style="fill: none; stroke: #2e8b57; stroke-linecap: square"/>
   </g>
   <g id="line2d_31">
    <path d="M 68.393665 267.263257 
L 71.121854 267.263092 
L 73.850044 267.262891 
L 76.578233 267.262646 
L 79.306423 267.262346 
L 82.034612 267.26198 
L 84.762802 267.261533 
L 87.490991 267.260986 
L 90.21918 267.260319 
L 92.94737 267.259504 
L 95.675559 267.258509 
L 98.403749 267.257293 
L 101.131938 267.255808 
L 103.860128 267.253995 
L 106.588317 267.25178 
L 109.316507 267.249074 
L 112.044696 267.24577 
L 114.772886 267.241735 
L 117.501075 267.236806 
L 120.229264 267.230787 
L 122.957454 267.223436 
L 125.685643 267.214459 
L 128.413833 267.203496 
L 131.142022 267.190108 
L 133.870212 267.17376 
L 136.598401 267.153799 
L 139.326591 267.129428 
L 142.05478 267.099673 
L 144.78297 267.063351 
L 147.511159 267.019017 
L 150.239349 266.964912 
L 152.967538 266.898892 
L 155.695727 266.818354 
L 158.423917 266.720131 
L 161.152106 266.600377 
L 163.880296 266.454433 
L 166.608485 266.276655 
L 169.336675 266.06023 
L 172.064864 265.796945 
L 174.793054 265.476933 
L 177.521243 265.088388 
L 180.249433 264.617241 
L 182.977622 264.046828 
L 185.705811 263.357541 
L 188.434001 262.526514 
L 191.16219 261.527366 
L 193.89038 260.330068 
L 196.618569 258.901017 
L 199.346759 257.203431 
L 202.074948 255.198181 
L 204.803138 252.845215 
L 207.531327 250.105695 
L 210.259517 246.944944 
L 212.987706 243.336163 
L 215.715895 239.264758 
L 218.444085 234.732846 
L 221.172274 229.763313 
L 223.900464 224.402587 
L 226.628653 218.721259 
L 229.356843 212.81192 
L 232.085032 206.784 
L 234.813222 200.75608 
L 237.541411 194.846741 
L 240.269601 189.165413 
L 242.99779 183.804687 
L 245.72598 178.835154 
L 248.454169 174.303242 
L 251.182358 170.231837 
L 253.910548 166.623056 
L 256.638737 163.462305 
L 259.366927 160.722785 
L 262.095116 158.369819 
L 264.823306 156.364569 
L 267.551495 154.666983 
L 270.279685 153.237932 
L 273.007874 152.040634 
L 275.736064 151.041486 
L 278.464253 150.210459 
L 281.192442 149.521172 
L 283.920632 148.950759 
L 286.648821 148.479612 
L 289.377011 148.091067 
L 292.1052 147.771055 
L 294.83339 147.50777 
L 297.561579 147.291345 
L 300.289769 147.113567 
L 303.017958 146.967623 
L 305.746148 146.847869 
L 308.474337 146.749646 
L 311.202526 146.669108 
L 313.930716 146.603088 
L 316.658905 146.548983 
L 319.387095 146.504649 
L 322.115284 146.468327 
L 324.843474 146.438572 
L 327.571663 146.414201 
L 330.299853 146.39424 
L 333.028042 146.377892 
L 335.756232 146.364504 
L 338.484421 146.353541 
L 341.212611 146.344564 
L 343.9408 146.337213 
L 346.668989 146.331194 
L 349.397179 146.326265 
L 352.125368 146.32223 
L 354.853558 146.318926 
L 357.581747 146.31622 
L 360.309937 146.314005 
L 363.038126 146.312192 
L 365.766316 146.310707 
L 368.494505 146.309491 
L 371.222695 146.308496 
L 373.950884 146.307681 
L 376.679073 146.307014 
L 379.407263 146.306467 
L 382.135452 146.30602 
L 384.863642 146.305654 
L 387.591831 146.305354 
L 390.320021 146.305109 
L 393.04821 146.304908 
" clip-path="url(#p1f1981bd51)" style="fill: none; stroke: #800000; stroke-linecap: square"/>
   </g>
   <g id="patch_9">
    <path d="M 52.160938 273.312 
L 52.160938 140.256 
" style="fill: none; stroke: #000000; stroke-width: 0.8; stroke-linejoin: miter; stroke-linecap: square"/>
   </g>
   <g id="patch_10">
    <path d="M 409.280938 273.312 
L 409.280938 140.256 
" style="fill: none; stroke: #000000; stroke-width: 0.8; stroke-linejoin: miter; stroke-linecap: square"/>
   </g>
   <g id="patch_11">
    <path d="M 52.160937 273.312 
L 409.280938 273.312 
" style="fill: none; stroke: #000000; stroke-width: 0.8; stroke-linejoin: miter; stroke-linecap: square"/>
   </g>
   <g id="patch_12">
    <path d="M 52.160937 140.256 
L 409.280938 140.256 
" style="fill: none; stroke: #000000; stroke-width: 0.8; stroke-linejoin: miter; stroke-linecap: square"/>
   </g>
   <g id="legend_2">
    <g id="patch_13">
     <path d="M 59.160938 177.61225 
L 168.715625 177.61225 
Q 170.715625 177.61225 170.715625 175.61225 
L 170.715625 147.256 
Q 170.715625 145.256 168.715625 145.256 
L 59.160938 145.256 
Q 57.160938 145.256 57.160938 147.256 
L 57.160938 175.61225 
Q 57.160938 177.61225 59.160938 177.61225 
z
" style="fill: #ffffff; opacity: 0.8; stroke: #cccccc; stroke-linejoin: miter"/>
    </g>
    <g id="line2d_32">
     <path d="M 61.160938 153.354437 
L 71.160938 153.354437 
L 81.160938 153.354437 
" style="fill: none; stroke: #2e8b57; stroke-linecap: square"/>
    </g>
    <g id="text_24">
     <text style="font: 10px 'DejaVu Sans', 'Bitstream Vera Sans', 'Computer Modern Sans Serif', 'Lucida Grande', 'Verdana', 'Geneva', 'Lucid', 'Arial', 'Helvetica', 'Avant Garde', sans-serif; text-anchor: start" x="89.160938" y="156.854437" transform="rotate(-0 89.160938 156.854437)">Hard \ac{tanh}</text>
    </g>
    <g id="line2d_33">
     <path d="M 61.160938 168.032562 
L 71.160938 168.032562 
L 81.160938 168.032562 
" style="fill: none; stroke: #800000; stroke-linecap: square"/>
    </g>
    <g id="text_25">
     <text style="font: 10px 'DejaVu Sans', 'Bitstream Vera Sans', 'Computer Modern Sans Serif', 'Lucida Grande', 'Verdana', 'Geneva', 'Lucid', 'Arial', 'Helvetica', 'Avant Garde', sans-serif; text-anchor: start" x="89.160938" y="171.532562" transform="rotate(-0 89.160938 171.532562)">\ac{tanh}</text>
    </g>
   </g>
  </g>
 </g>
 <defs>
  <clipPath id="p9175f42dcd">
   <rect x="52.160938" y="7.2" width="357.12" height="133.056"/>
  </clipPath>
  <clipPath id="p1f1981bd51">
   <rect x="52.160938" y="140.256" width="357.12" height="133.056"/>
  </clipPath>
 </defs>
</svg>
