<?xml version="1.0" encoding="utf-8" standalone="no"?>
<!DOCTYPE svg PUBLIC "-//W3C//DTD SVG 1.1//EN"
  "http://www.w3.org/Graphics/SVG/1.1/DTD/svg11.dtd">
<svg xmlns:xlink="http://www.w3.org/1999/xlink" width="411.709063pt" height="310.86825pt" viewBox="0 0 411.709063 310.86825" xmlns="http://www.w3.org/2000/svg" version="1.1">
 <metadata>
  <rdf:RDF xmlns:dc="http://purl.org/dc/elements/1.1/" xmlns:cc="http://creativecommons.org/ns#" xmlns:rdf="http://www.w3.org/1999/02/22-rdf-syntax-ns#">
   <cc:Work>
    <dc:type rdf:resource="http://purl.org/dc/dcmitype/StillImage"/>
    <dc:date>2023-10-23T08:45:47.577122</dc:date>
    <dc:format>image/svg+xml</dc:format>
    <dc:creator>
     <cc:Agent>
      <dc:title>Matplotlib v3.8.0, https://matplotlib.org/</dc:title>
     </cc:Agent>
    </dc:creator>
   </cc:Work>
  </rdf:RDF>
 </metadata>
 <defs>
  <style type="text/css">*{stroke-linejoin: round; stroke-linecap: butt}</style>
 </defs>
 <g id="figure_1">
  <g id="patch_1">
   <path d="M 0 310.86825 
L 411.709063 310.86825 
L 411.709063 0 
L 0 0 
z
" style="fill: #ffffff"/>
  </g>
  <g id="axes_1">
   <g id="patch_2">
    <path d="M 47.389063 140.256 
L 404.509063 140.256 
L 404.509063 7.2 
L 47.389063 7.2 
z
" style="fill: #ffffff"/>
   </g>
   <g id="matplotlib.axis_1">
    <g id="xtick_1">
     <g id="line2d_1">
      <defs>
       <path id="md66b3e6e5d" d="M 0 0 
L 0 3.5 
" style="stroke: #000000; stroke-width: 0.8"/>
      </defs>
      <g>
       <use xlink:href="#md66b3e6e5d" x="63.62179" y="140.256" style="stroke: #000000; stroke-width: 0.8"/>
      </g>
     </g>
    </g>
    <g id="xtick_2">
     <g id="line2d_2">
      <g>
       <use xlink:href="#md66b3e6e5d" x="118.185579" y="140.256" style="stroke: #000000; stroke-width: 0.8"/>
      </g>
     </g>
    </g>
    <g id="xtick_3">
     <g id="line2d_3">
      <g>
       <use xlink:href="#md66b3e6e5d" x="172.749368" y="140.256" style="stroke: #000000; stroke-width: 0.8"/>
      </g>
     </g>
    </g>
    <g id="xtick_4">
     <g id="line2d_4">
      <g>
       <use xlink:href="#md66b3e6e5d" x="227.313157" y="140.256" style="stroke: #000000; stroke-width: 0.8"/>
      </g>
     </g>
    </g>
    <g id="xtick_5">
     <g id="line2d_5">
      <g>
       <use xlink:href="#md66b3e6e5d" x="281.876946" y="140.256" style="stroke: #000000; stroke-width: 0.8"/>
      </g>
     </g>
    </g>
    <g id="xtick_6">
     <g id="line2d_6">
      <g>
       <use xlink:href="#md66b3e6e5d" x="336.440736" y="140.256" style="stroke: #000000; stroke-width: 0.8"/>
      </g>
     </g>
    </g>
    <g id="xtick_7">
     <g id="line2d_7">
      <g>
       <use xlink:href="#md66b3e6e5d" x="391.004525" y="140.256" style="stroke: #000000; stroke-width: 0.8"/>
      </g>
     </g>
    </g>
   </g>
   <g id="matplotlib.axis_2">
    <g id="ytick_1">
     <g id="line2d_8">
      <defs>
       <path id="ma0a06d03a8" d="M 0 0 
L -3.5 0 
" style="stroke: #000000; stroke-width: 0.8"/>
      </defs>
      <g>
       <use xlink:href="#ma0a06d03a8" x="47.389063" y="134.208" style="stroke: #000000; stroke-width: 0.8"/>
      </g>
     </g>
     <g id="text_1">
      <text style="font: 10px 'DejaVu Sans', 'Bitstream Vera Sans', 'Computer Modern Sans Serif', 'Lucida Grande', 'Verdana', 'Geneva', 'Lucid', 'Arial', 'Helvetica', 'Avant Garde', sans-serif; text-anchor: end" x="40.389063" y="138.007219" transform="rotate(-0 40.389063 138.007219)">0.0</text>
     </g>
    </g>
    <g id="ytick_2">
     <g id="line2d_9">
      <g>
       <use xlink:href="#ma0a06d03a8" x="47.389063" y="110.016" style="stroke: #000000; stroke-width: 0.8"/>
      </g>
     </g>
     <g id="text_2">
      <text style="font: 10px 'DejaVu Sans', 'Bitstream Vera Sans', 'Computer Modern Sans Serif', 'Lucida Grande', 'Verdana', 'Geneva', 'Lucid', 'Arial', 'Helvetica', 'Avant Garde', sans-serif; text-anchor: end" x="40.389063" y="113.815219" transform="rotate(-0 40.389063 113.815219)">0.2</text>
     </g>
    </g>
    <g id="ytick_3">
     <g id="line2d_10">
      <g>
       <use xlink:href="#ma0a06d03a8" x="47.389063" y="85.824" style="stroke: #000000; stroke-width: 0.8"/>
      </g>
     </g>
     <g id="text_3">
      <text style="font: 10px 'DejaVu Sans', 'Bitstream Vera Sans', 'Computer Modern Sans Serif', 'Lucida Grande', 'Verdana', 'Geneva', 'Lucid', 'Arial', 'Helvetica', 'Avant Garde', sans-serif; text-anchor: end" x="40.389063" y="89.623219" transform="rotate(-0 40.389063 89.623219)">0.4</text>
     </g>
    </g>
    <g id="ytick_4">
     <g id="line2d_11">
      <g>
       <use xlink:href="#ma0a06d03a8" x="47.389063" y="61.632" style="stroke: #000000; stroke-width: 0.8"/>
      </g>
     </g>
     <g id="text_4">
      <text style="font: 10px 'DejaVu Sans', 'Bitstream Vera Sans', 'Computer Modern Sans Serif', 'Lucida Grande', 'Verdana', 'Geneva', 'Lucid', 'Arial', 'Helvetica', 'Avant Garde', sans-serif; text-anchor: end" x="40.389063" y="65.431219" transform="rotate(-0 40.389063 65.431219)">0.6</text>
     </g>
    </g>
    <g id="ytick_5">
     <g id="line2d_12">
      <g>
       <use xlink:href="#ma0a06d03a8" x="47.389063" y="37.44" style="stroke: #000000; stroke-width: 0.8"/>
      </g>
     </g>
     <g id="text_5">
      <text style="font: 10px 'DejaVu Sans', 'Bitstream Vera Sans', 'Computer Modern Sans Serif', 'Lucida Grande', 'Verdana', 'Geneva', 'Lucid', 'Arial', 'Helvetica', 'Avant Garde', sans-serif; text-anchor: end" x="40.389063" y="41.239219" transform="rotate(-0 40.389063 41.239219)">0.8</text>
     </g>
    </g>
    <g id="ytick_6">
     <g id="line2d_13">
      <g>
       <use xlink:href="#ma0a06d03a8" x="47.389063" y="13.248" style="stroke: #000000; stroke-width: 0.8"/>
      </g>
     </g>
     <g id="text_6">
      <text style="font: 10px 'DejaVu Sans', 'Bitstream Vera Sans', 'Computer Modern Sans Serif', 'Lucida Grande', 'Verdana', 'Geneva', 'Lucid', 'Arial', 'Helvetica', 'Avant Garde', sans-serif; text-anchor: end" x="40.389063" y="17.047219" transform="rotate(-0 40.389063 17.047219)">1.0</text>
     </g>
    </g>
    <g id="text_7">
     <text style="font: 10px 'DejaVu Sans', 'Bitstream Vera Sans', 'Computer Modern Sans Serif', 'Lucida Grande', 'Verdana', 'Geneva', 'Lucid', 'Arial', 'Helvetica', 'Avant Garde', sans-serif; text-anchor: middle" x="18.40625" y="73.728" transform="rotate(-90 18.40625 73.728)">Output</text>
    </g>
   </g>
   <g id="line2d_14">
    <path d="M 63.62179 134.208 
L 66.349979 134.208 
L 69.078169 134.208 
L 71.806358 134.208 
L 74.534548 134.208 
L 77.262737 134.208 
L 79.990927 134.208 
L 82.719116 134.208 
L 85.447305 134.208 
L 88.175495 134.208 
L 90.903684 134.208 
L 93.631874 134.208 
L 96.360063 134.208 
L 99.088253 134.208 
L 101.816442 134.208 
L 104.544632 134.208 
L 107.272821 134.208 
L 110.001011 134.208 
L 112.7292 134.208 
L 115.457389 134.208 
L 118.185579 134.208 
L 120.913768 134.208 
L 123.641958 134.208 
L 126.370147 134.208 
L 129.098337 134.208 
L 131.826526 134.208 
L 134.554716 134.208 
L 137.282905 134.208 
L 140.011095 134.208 
L 142.739284 134.208 
L 145.467474 134.208 
L 148.195663 134.208 
L 150.923852 134.208 
L 153.652042 134.208 
L 156.380231 134.208 
L 159.108421 134.208 
L 161.83661 131.7888 
L 164.5648 129.3696 
L 167.292989 126.9504 
L 170.021179 124.5312 
L 172.749368 122.112 
L 175.477558 119.6928 
L 178.205747 117.2736 
L 180.933936 114.8544 
L 183.662126 112.4352 
L 186.390315 110.016 
L 189.118505 107.5968 
L 191.846694 105.1776 
L 194.574884 102.7584 
L 197.303073 100.3392 
L 200.031263 97.92 
L 202.759452 95.5008 
L 205.487642 93.0816 
L 208.215831 90.6624 
L 210.94402 88.2432 
L 213.67221 85.824 
L 216.400399 83.4048 
L 219.128589 80.9856 
L 221.856778 78.5664 
L 224.584968 76.1472 
L 227.313157 73.728 
L 230.041347 71.3088 
L 232.769536 68.8896 
L 235.497726 66.4704 
L 238.225915 64.0512 
L 240.954105 61.632 
L 243.682294 59.2128 
L 246.410483 56.7936 
L 249.138673 54.3744 
L 251.866862 51.9552 
L 254.595052 49.536 
L 257.323241 47.1168 
L 260.051431 44.6976 
L 262.77962 42.2784 
L 265.50781 39.8592 
L 268.235999 37.44 
L 270.964189 35.0208 
L 273.692378 32.6016 
L 276.420567 30.1824 
L 279.148757 27.7632 
L 281.876946 25.344 
L 284.605136 22.9248 
L 287.333325 20.5056 
L 290.061515 18.0864 
L 292.789704 15.6672 
L 295.517894 13.248 
L 298.246083 13.248 
L 300.974273 13.248 
L 303.702462 13.248 
L 306.430651 13.248 
L 309.158841 13.248 
L 311.88703 13.248 
L 314.61522 13.248 
L 317.343409 13.248 
L 320.071599 13.248 
L 322.799788 13.248 
L 325.527978 13.248 
L 328.256167 13.248 
L 330.984357 13.248 
L 333.712546 13.248 
L 336.440736 13.248 
L 339.168925 13.248 
L 341.897114 13.248 
L 344.625304 13.248 
L 347.353493 13.248 
L 350.081683 13.248 
L 352.809872 13.248 
L 355.538062 13.248 
L 358.266251 13.248 
L 360.994441 13.248 
L 363.72263 13.248 
L 366.45082 13.248 
L 369.179009 13.248 
L 371.907198 13.248 
L 374.635388 13.248 
L 377.363577 13.248 
L 380.091767 13.248 
L 382.819956 13.248 
L 385.548146 13.248 
L 388.276335 13.248 
" clip-path="url(#p218b893e1e)" style="fill: none; stroke: #2e8b57; stroke-linecap: square"/>
   </g>
   <g id="line2d_15">
    <path d="M 63.62179 133.908912 
L 66.349979 133.877542 
L 69.078169 133.842892 
L 71.806358 133.804622 
L 74.534548 133.762354 
L 77.262737 133.715676 
L 79.990927 133.664131 
L 82.719116 133.607216 
L 85.447305 133.544377 
L 88.175495 133.475006 
L 90.903684 133.398433 
L 93.631874 133.313919 
L 96.360063 133.220655 
L 99.088253 133.117751 
L 101.816442 133.00423 
L 104.544632 132.879019 
L 107.272821 132.740945 
L 110.001011 132.588718 
L 112.7292 132.420933 
L 115.457389 132.23605 
L 118.185579 132.032388 
L 120.913768 131.808117 
L 123.641958 131.561241 
L 126.370147 131.289595 
L 129.098337 130.990828 
L 131.826526 130.662393 
L 134.554716 130.301541 
L 137.282905 129.905309 
L 140.011095 129.470514 
L 142.739284 128.993746 
L 145.467474 128.471366 
L 148.195663 127.899505 
L 150.923852 127.274068 
L 153.652042 126.590743 
L 156.380231 125.845017 
L 159.108421 125.032195 
L 161.83661 124.147431 
L 164.5648 123.185767 
L 167.292989 122.142181 
L 170.021179 121.011649 
L 172.749368 119.789215 
L 175.477558 118.470079 
L 178.205747 117.049695 
L 180.933936 115.523882 
L 183.662126 113.888944 
L 186.390315 112.141809 
L 189.118505 110.280163 
L 191.846694 108.3026 
L 194.574884 106.208758 
L 197.303073 103.999462 
L 200.031263 101.676846 
L 202.759452 99.244452 
L 205.487642 96.707313 
L 208.215831 94.071993 
L 210.94402 91.346587 
L 213.67221 88.540681 
L 216.400399 85.665259 
L 219.128589 82.732567 
L 221.856778 79.75592 
L 224.584968 76.749483 
L 227.313157 73.728 
L 230.041347 70.706517 
L 232.769536 67.70008 
L 235.497726 64.723433 
L 238.225915 61.790741 
L 240.954105 58.915319 
L 243.682294 56.109413 
L 246.410483 53.384007 
L 249.138673 50.748687 
L 251.866862 48.211548 
L 254.595052 45.779154 
L 257.323241 43.456538 
L 260.051431 41.247242 
L 262.77962 39.1534 
L 265.50781 37.175837 
L 268.235999 35.314191 
L 270.964189 33.567056 
L 273.692378 31.932118 
L 276.420567 30.406305 
L 279.148757 28.985921 
L 281.876946 27.666785 
L 284.605136 26.444351 
L 287.333325 25.313819 
L 290.061515 24.270233 
L 292.789704 23.308569 
L 295.517894 22.423805 
L 298.246083 21.610983 
L 300.974273 20.865257 
L 303.702462 20.181932 
L 306.430651 19.556495 
L 309.158841 18.984634 
L 311.88703 18.462254 
L 314.61522 17.985486 
L 317.343409 17.550691 
L 320.071599 17.154459 
L 322.799788 16.793607 
L 325.527978 16.465172 
L 328.256167 16.166405 
L 330.984357 15.894759 
L 333.712546 15.647883 
L 336.440736 15.423612 
L 339.168925 15.21995 
L 341.897114 15.035067 
L 344.625304 14.867282 
L 347.353493 14.715055 
L 350.081683 14.576981 
L 352.809872 14.45177 
L 355.538062 14.338249 
L 358.266251 14.235345 
L 360.994441 14.142081 
L 363.72263 14.057567 
L 366.45082 13.980994 
L 369.179009 13.911623 
L 371.907198 13.848784 
L 374.635388 13.791869 
L 377.363577 13.740324 
L 380.091767 13.693646 
L 382.819956 13.651378 
L 385.548146 13.613108 
L 388.276335 13.578458 
" clip-path="url(#p218b893e1e)" style="fill: none; stroke: #800000; stroke-linecap: square"/>
   </g>
   <g id="patch_3">
    <path d="M 47.389063 140.256 
L 47.389063 7.2 
" style="fill: none; stroke: #000000; stroke-width: 0.8; stroke-linejoin: miter; stroke-linecap: square"/>
   </g>
   <g id="patch_4">
    <path d="M 404.509063 140.256 
L 404.509063 7.2 
" style="fill: none; stroke: #000000; stroke-width: 0.8; stroke-linejoin: miter; stroke-linecap: square"/>
   </g>
   <g id="patch_5">
    <path d="M 47.389063 140.256 
L 404.509062 140.256 
" style="fill: none; stroke: #000000; stroke-width: 0.8; stroke-linejoin: miter; stroke-linecap: square"/>
   </g>
   <g id="patch_6">
    <path d="M 47.389063 7.2 
L 404.509062 7.2 
" style="fill: none; stroke: #000000; stroke-width: 0.8; stroke-linejoin: miter; stroke-linecap: square"/>
   </g>
   <g id="legend_1">
    <g id="patch_7">
     <path d="M 54.389063 44.55625 
L 152.821875 44.55625 
Q 154.821875 44.55625 154.821875 42.55625 
L 154.821875 14.2 
Q 154.821875 12.2 152.821875 12.2 
L 54.389063 12.2 
Q 52.389063 12.2 52.389063 14.2 
L 52.389063 42.55625 
Q 52.389063 44.55625 54.389063 44.55625 
z
" style="fill: #ffffff; opacity: 0.8; stroke: #cccccc; stroke-linejoin: miter"/>
    </g>
    <g id="line2d_16">
     <path d="M 56.389063 20.298437 
L 66.389063 20.298437 
L 76.389063 20.298437 
" style="fill: none; stroke: #2e8b57; stroke-linecap: square"/>
    </g>
    <g id="text_8">
     <text style="font: 10px 'DejaVu Sans', 'Bitstream Vera Sans', 'Computer Modern Sans Serif', 'Lucida Grande', 'Verdana', 'Geneva', 'Lucid', 'Arial', 'Helvetica', 'Avant Garde', sans-serif; text-anchor: start" x="84.389063" y="23.798437" transform="rotate(-0 84.389063 23.798437)">Hard sigmoid</text>
    </g>
    <g id="line2d_17">
     <path d="M 56.389063 34.976562 
L 66.389063 34.976562 
L 76.389063 34.976562 
" style="fill: none; stroke: #800000; stroke-linecap: square"/>
    </g>
    <g id="text_9">
     <text style="font: 10px 'DejaVu Sans', 'Bitstream Vera Sans', 'Computer Modern Sans Serif', 'Lucida Grande', 'Verdana', 'Geneva', 'Lucid', 'Arial', 'Helvetica', 'Avant Garde', sans-serif; text-anchor: start" x="84.389063" y="38.476562" transform="rotate(-0 84.389063 38.476562)">Sigmoid</text>
    </g>
   </g>
  </g>
  <g id="axes_2">
   <g id="patch_8">
    <path d="M 47.389063 273.312 
L 404.509063 273.312 
L 404.509063 140.256 
L 47.389063 140.256 
z
" style="fill: #ffffff"/>
   </g>
   <g id="matplotlib.axis_3">
    <g id="xtick_8">
     <g id="line2d_18">
      <g>
       <use xlink:href="#md66b3e6e5d" x="63.62179" y="273.312" style="stroke: #000000; stroke-width: 0.8"/>
      </g>
     </g>
     <g id="text_10">
      <text style="font: 10px 'DejaVu Sans', 'Bitstream Vera Sans', 'Computer Modern Sans Serif', 'Lucida Grande', 'Verdana', 'Geneva', 'Lucid', 'Arial', 'Helvetica', 'Avant Garde', sans-serif; text-anchor: middle" x="63.62179" y="287.910437" transform="rotate(-0 63.62179 287.910437)">-6</text>
     </g>
    </g>
    <g id="xtick_9">
     <g id="line2d_19">
      <g>
       <use xlink:href="#md66b3e6e5d" x="118.185579" y="273.312" style="stroke: #000000; stroke-width: 0.8"/>
      </g>
     </g>
     <g id="text_11">
      <text style="font: 10px 'DejaVu Sans', 'Bitstream Vera Sans', 'Computer Modern Sans Serif', 'Lucida Grande', 'Verdana', 'Geneva', 'Lucid', 'Arial', 'Helvetica', 'Avant Garde', sans-serif; text-anchor: middle" x="118.185579" y="287.910437" transform="rotate(-0 118.185579 287.910437)">-4</text>
     </g>
    </g>
    <g id="xtick_10">
     <g id="line2d_20">
      <g>
       <use xlink:href="#md66b3e6e5d" x="172.749368" y="273.312" style="stroke: #000000; stroke-width: 0.8"/>
      </g>
     </g>
     <g id="text_12">
      <text style="font: 10px 'DejaVu Sans', 'Bitstream Vera Sans', 'Computer Modern Sans Serif', 'Lucida Grande', 'Verdana', 'Geneva', 'Lucid', 'Arial', 'Helvetica', 'Avant Garde', sans-serif; text-anchor: middle" x="172.749368" y="287.910437" transform="rotate(-0 172.749368 287.910437)">-2</text>
     </g>
    </g>
    <g id="xtick_11">
     <g id="line2d_21">
      <g>
       <use xlink:href="#md66b3e6e5d" x="227.313157" y="273.312" style="stroke: #000000; stroke-width: 0.8"/>
      </g>
     </g>
     <g id="text_13">
      <text style="font: 10px 'DejaVu Sans', 'Bitstream Vera Sans', 'Computer Modern Sans Serif', 'Lucida Grande', 'Verdana', 'Geneva', 'Lucid', 'Arial', 'Helvetica', 'Avant Garde', sans-serif; text-anchor: middle" x="227.313157" y="287.910437" transform="rotate(-0 227.313157 287.910437)">0</text>
     </g>
    </g>
    <g id="xtick_12">
     <g id="line2d_22">
      <g>
       <use xlink:href="#md66b3e6e5d" x="281.876946" y="273.312" style="stroke: #000000; stroke-width: 0.8"/>
      </g>
     </g>
     <g id="text_14">
      <text style="font: 10px 'DejaVu Sans', 'Bitstream Vera Sans', 'Computer Modern Sans Serif', 'Lucida Grande', 'Verdana', 'Geneva', 'Lucid', 'Arial', 'Helvetica', 'Avant Garde', sans-serif; text-anchor: middle" x="281.876946" y="287.910437" transform="rotate(-0 281.876946 287.910437)">2</text>
     </g>
    </g>
    <g id="xtick_13">
     <g id="line2d_23">
      <g>
       <use xlink:href="#md66b3e6e5d" x="336.440736" y="273.312" style="stroke: #000000; stroke-width: 0.8"/>
      </g>
     </g>
     <g id="text_15">
      <text style="font: 10px 'DejaVu Sans', 'Bitstream Vera Sans', 'Computer Modern Sans Serif', 'Lucida Grande', 'Verdana', 'Geneva', 'Lucid', 'Arial', 'Helvetica', 'Avant Garde', sans-serif; text-anchor: middle" x="336.440736" y="287.910437" transform="rotate(-0 336.440736 287.910437)">4</text>
     </g>
    </g>
    <g id="xtick_14">
     <g id="line2d_24">
      <g>
       <use xlink:href="#md66b3e6e5d" x="391.004525" y="273.312" style="stroke: #000000; stroke-width: 0.8"/>
      </g>
     </g>
     <g id="text_16">
      <text style="font: 10px 'DejaVu Sans', 'Bitstream Vera Sans', 'Computer Modern Sans Serif', 'Lucida Grande', 'Verdana', 'Geneva', 'Lucid', 'Arial', 'Helvetica', 'Avant Garde', sans-serif; text-anchor: middle" x="391.004525" y="287.910437" transform="rotate(-0 391.004525 287.910437)">6</text>
     </g>
    </g>
    <g id="text_17">
     <text style="font: 10px 'DejaVu Sans', 'Bitstream Vera Sans', 'Computer Modern Sans Serif', 'Lucida Grande', 'Verdana', 'Geneva', 'Lucid', 'Arial', 'Helvetica', 'Avant Garde', sans-serif; text-anchor: middle" x="225.949063" y="301.588562" transform="rotate(-0 225.949063 301.588562)">Input</text>
    </g>
   </g>
   <g id="matplotlib.axis_4">
    <g id="ytick_7">
     <g id="line2d_25">
      <g>
       <use xlink:href="#ma0a06d03a8" x="47.389063" y="267.264" style="stroke: #000000; stroke-width: 0.8"/>
      </g>
     </g>
     <g id="text_18">
      <text style="font: 10px 'DejaVu Sans', 'Bitstream Vera Sans', 'Computer Modern Sans Serif', 'Lucida Grande', 'Verdana', 'Geneva', 'Lucid', 'Arial', 'Helvetica', 'Avant Garde', sans-serif; text-anchor: end" x="40.389063" y="271.063219" transform="rotate(-0 40.389063 271.063219)">-1.0</text>
     </g>
    </g>
    <g id="ytick_8">
     <g id="line2d_26">
      <g>
       <use xlink:href="#ma0a06d03a8" x="47.389063" y="237.024" style="stroke: #000000; stroke-width: 0.8"/>
      </g>
     </g>
     <g id="text_19">
      <text style="font: 10px 'DejaVu Sans', 'Bitstream Vera Sans', 'Computer Modern Sans Serif', 'Lucida Grande', 'Verdana', 'Geneva', 'Lucid', 'Arial', 'Helvetica', 'Avant Garde', sans-serif; text-anchor: end" x="40.389063" y="240.823219" transform="rotate(-0 40.389063 240.823219)">-0.5</text>
     </g>
    </g>
    <g id="ytick_9">
     <g id="line2d_27">
      <g>
       <use xlink:href="#ma0a06d03a8" x="47.389063" y="206.784" style="stroke: #000000; stroke-width: 0.8"/>
      </g>
     </g>
     <g id="text_20">
      <text style="font: 10px 'DejaVu Sans', 'Bitstream Vera Sans', 'Computer Modern Sans Serif', 'Lucida Grande', 'Verdana', 'Geneva', 'Lucid', 'Arial', 'Helvetica', 'Avant Garde', sans-serif; text-anchor: end" x="40.389063" y="210.583219" transform="rotate(-0 40.389063 210.583219)">0.0</text>
     </g>
    </g>
    <g id="ytick_10">
     <g id="line2d_28">
      <g>
       <use xlink:href="#ma0a06d03a8" x="47.389063" y="176.544" style="stroke: #000000; stroke-width: 0.8"/>
      </g>
     </g>
     <g id="text_21">
      <text style="font: 10px 'DejaVu Sans', 'Bitstream Vera Sans', 'Computer Modern Sans Serif', 'Lucida Grande', 'Verdana', 'Geneva', 'Lucid', 'Arial', 'Helvetica', 'Avant Garde', sans-serif; text-anchor: end" x="40.389063" y="180.343219" transform="rotate(-0 40.389063 180.343219)">0.5</text>
     </g>
    </g>
    <g id="ytick_11">
     <g id="line2d_29">
      <g>
       <use xlink:href="#ma0a06d03a8" x="47.389063" y="146.304" style="stroke: #000000; stroke-width: 0.8"/>
      </g>
     </g>
     <g id="text_22">
      <text style="font: 10px 'DejaVu Sans', 'Bitstream Vera Sans', 'Computer Modern Sans Serif', 'Lucida Grande', 'Verdana', 'Geneva', 'Lucid', 'Arial', 'Helvetica', 'Avant Garde', sans-serif; text-anchor: end" x="40.389063" y="150.103219" transform="rotate(-0 40.389063 150.103219)">1.0</text>
     </g>
    </g>
    <g id="text_23">
     <text style="font: 10px 'DejaVu Sans', 'Bitstream Vera Sans', 'Computer Modern Sans Serif', 'Lucida Grande', 'Verdana', 'Geneva', 'Lucid', 'Arial', 'Helvetica', 'Avant Garde', sans-serif; text-anchor: middle" x="14.798438" y="206.784" transform="rotate(-90 14.798438 206.784)">Output</text>
    </g>
   </g>
   <g id="line2d_30">
    <path d="M 63.62179 267.264 
L 66.349979 267.264 
L 69.078169 267.264 
L 71.806358 267.264 
L 74.534548 267.264 
L 77.262737 267.264 
L 79.990927 267.264 
L 82.719116 267.264 
L 85.447305 267.264 
L 88.175495 267.264 
L 90.903684 267.264 
L 93.631874 267.264 
L 96.360063 267.264 
L 99.088253 267.264 
L 101.816442 267.264 
L 104.544632 267.264 
L 107.272821 267.264 
L 110.001011 267.264 
L 112.7292 267.264 
L 115.457389 267.264 
L 118.185579 267.264 
L 120.913768 267.264 
L 123.641958 267.264 
L 126.370147 267.264 
L 129.098337 267.264 
L 131.826526 267.264 
L 134.554716 267.264 
L 137.282905 267.264 
L 140.011095 267.264 
L 142.739284 267.264 
L 145.467474 267.264 
L 148.195663 267.264 
L 150.923852 267.264 
L 153.652042 267.264 
L 156.380231 267.264 
L 159.108421 267.264 
L 161.83661 267.264 
L 164.5648 267.264 
L 167.292989 267.264 
L 170.021179 267.264 
L 172.749368 267.264 
L 175.477558 267.264 
L 178.205747 267.264 
L 180.933936 267.264 
L 183.662126 267.264 
L 186.390315 267.264 
L 189.118505 267.264 
L 191.846694 267.264 
L 194.574884 267.264 
L 197.303073 267.264 
L 200.031263 267.264 
L 202.759452 261.216 
L 205.487642 255.168 
L 208.215831 249.12 
L 210.94402 243.072 
L 213.67221 237.024 
L 216.400399 230.976 
L 219.128589 224.928 
L 221.856778 218.88 
L 224.584968 212.832 
L 227.313157 206.784 
L 230.041347 200.736 
L 232.769536 194.688 
L 235.497726 188.64 
L 238.225915 182.592 
L 240.954105 176.544 
L 243.682294 170.496 
L 246.410483 164.448 
L 249.138673 158.4 
L 251.866862 152.352 
L 254.595052 146.304 
L 257.323241 146.304 
L 260.051431 146.304 
L 262.77962 146.304 
L 265.50781 146.304 
L 268.235999 146.304 
L 270.964189 146.304 
L 273.692378 146.304 
L 276.420567 146.304 
L 279.148757 146.304 
L 281.876946 146.304 
L 284.605136 146.304 
L 287.333325 146.304 
L 290.061515 146.304 
L 292.789704 146.304 
L 295.517894 146.304 
L 298.246083 146.304 
L 300.974273 146.304 
L 303.702462 146.304 
L 306.430651 146.304 
L 309.158841 146.304 
L 311.88703 146.304 
L 314.61522 146.304 
L 317.343409 146.304 
L 320.071599 146.304 
L 322.799788 146.304 
L 325.527978 146.304 
L 328.256167 146.304 
L 330.984357 146.304 
L 333.712546 146.304 
L 336.440736 146.304 
L 339.168925 146.304 
L 341.897114 146.304 
L 344.625304 146.304 
L 347.353493 146.304 
L 350.081683 146.304 
L 352.809872 146.304 
L 355.538062 146.304 
L 358.266251 146.304 
L 360.994441 146.304 
L 363.72263 146.304 
L 366.45082 146.304 
L 369.179009 146.304 
L 371.907198 146.304 
L 374.635388 146.304 
L 377.363577 146.304 
L 380.091767 146.304 
L 382.819956 146.304 
L 385.548146 146.304 
L 388.276335 146.304 
" clip-path="url(#p5971357add)" style="fill: none; stroke: #2e8b57; stroke-linecap: square"/>
   </g>
   <g id="line2d_31">
    <path d="M 63.62179 267.263257 
L 66.349979 267.263092 
L 69.078169 267.262891 
L 71.806358 267.262646 
L 74.534548 267.262346 
L 77.262737 267.26198 
L 79.990927 267.261533 
L 82.719116 267.260986 
L 85.447305 267.260319 
L 88.175495 267.259504 
L 90.903684 267.258509 
L 93.631874 267.257293 
L 96.360063 267.255808 
L 99.088253 267.253995 
L 101.816442 267.25178 
L 104.544632 267.249074 
L 107.272821 267.24577 
L 110.001011 267.241735 
L 112.7292 267.236806 
L 115.457389 267.230787 
L 118.185579 267.223436 
L 120.913768 267.214459 
L 123.641958 267.203496 
L 126.370147 267.190108 
L 129.098337 267.17376 
L 131.826526 267.153799 
L 134.554716 267.129428 
L 137.282905 267.099673 
L 140.011095 267.063351 
L 142.739284 267.019017 
L 145.467474 266.964912 
L 148.195663 266.898892 
L 150.923852 266.818354 
L 153.652042 266.720131 
L 156.380231 266.600377 
L 159.108421 266.454433 
L 161.83661 266.276655 
L 164.5648 266.06023 
L 167.292989 265.796945 
L 170.021179 265.476933 
L 172.749368 265.088388 
L 175.477558 264.617241 
L 178.205747 264.046828 
L 180.933936 263.357541 
L 183.662126 262.526514 
L 186.390315 261.527366 
L 189.118505 260.330068 
L 191.846694 258.901017 
L 194.574884 257.203431 
L 197.303073 255.198181 
L 200.031263 252.845215 
L 202.759452 250.105695 
L 205.487642 246.944944 
L 208.215831 243.336163 
L 210.94402 239.264758 
L 213.67221 234.732846 
L 216.400399 229.763313 
L 219.128589 224.402587 
L 221.856778 218.721259 
L 224.584968 212.81192 
L 227.313157 206.784 
L 230.041347 200.75608 
L 232.769536 194.846741 
L 235.497726 189.165413 
L 238.225915 183.804687 
L 240.954105 178.835154 
L 243.682294 174.303242 
L 246.410483 170.231837 
L 249.138673 166.623056 
L 251.866862 163.462305 
L 254.595052 160.722785 
L 257.323241 158.369819 
L 260.051431 156.364569 
L 262.77962 154.666983 
L 265.50781 153.237932 
L 268.235999 152.040634 
L 270.964189 151.041486 
L 273.692378 150.210459 
L 276.420567 149.521172 
L 279.148757 148.950759 
L 281.876946 148.479612 
L 284.605136 148.091067 
L 287.333325 147.771055 
L 290.061515 147.50777 
L 292.789704 147.291345 
L 295.517894 147.113567 
L 298.246083 146.967623 
L 300.974273 146.847869 
L 303.702462 146.749646 
L 306.430651 146.669108 
L 309.158841 146.603088 
L 311.88703 146.548983 
L 314.61522 146.504649 
L 317.343409 146.468327 
L 320.071599 146.438572 
L 322.799788 146.414201 
L 325.527978 146.39424 
L 328.256167 146.377892 
L 330.984357 146.364504 
L 333.712546 146.353541 
L 336.440736 146.344564 
L 339.168925 146.337213 
L 341.897114 146.331194 
L 344.625304 146.326265 
L 347.353493 146.32223 
L 350.081683 146.318926 
L 352.809872 146.31622 
L 355.538062 146.314005 
L 358.266251 146.312192 
L 360.994441 146.310707 
L 363.72263 146.309491 
L 366.45082 146.308496 
L 369.179009 146.307681 
L 371.907198 146.307014 
L 374.635388 146.306467 
L 377.363577 146.30602 
L 380.091767 146.305654 
L 382.819956 146.305354 
L 385.548146 146.305109 
L 388.276335 146.304908 
" clip-path="url(#p5971357add)" style="fill: none; stroke: #800000; stroke-linecap: square"/>
   </g>
   <g id="patch_9">
    <path d="M 47.389063 273.312 
L 47.389063 140.256 
" style="fill: none; stroke: #000000; stroke-width: 0.8; stroke-linejoin: miter; stroke-linecap: square"/>
   </g>
   <g id="patch_10">
    <path d="M 404.509063 273.312 
L 404.509063 140.256 
" style="fill: none; stroke: #000000; stroke-width: 0.8; stroke-linejoin: miter; stroke-linecap: square"/>
   </g>
   <g id="patch_11">
    <path d="M 47.389063 273.312 
L 404.509062 273.312 
" style="fill: none; stroke: #000000; stroke-width: 0.8; stroke-linejoin: miter; stroke-linecap: square"/>
   </g>
   <g id="patch_12">
    <path d="M 47.389063 140.256 
L 404.509062 140.256 
" style="fill: none; stroke: #000000; stroke-width: 0.8; stroke-linejoin: miter; stroke-linecap: square"/>
   </g>
   <g id="legend_2">
    <g id="patch_13">
     <path d="M 54.389063 177.61225 
L 163.94375 177.61225 
Q 165.94375 177.61225 165.94375 175.61225 
L 165.94375 147.256 
Q 165.94375 145.256 163.94375 145.256 
L 54.389063 145.256 
Q 52.389063 145.256 52.389063 147.256 
L 52.389063 175.61225 
Q 52.389063 177.61225 54.389063 177.61225 
z
" style="fill: #ffffff; opacity: 0.8; stroke: #cccccc; stroke-linejoin: miter"/>
    </g>
    <g id="line2d_32">
     <path d="M 56.389063 153.354437 
L 66.389063 153.354437 
L 76.389063 153.354437 
" style="fill: none; stroke: #2e8b57; stroke-linecap: square"/>
    </g>
    <g id="text_24">
     <text style="font: 10px 'DejaVu Sans', 'Bitstream Vera Sans', 'Computer Modern Sans Serif', 'Lucida Grande', 'Verdana', 'Geneva', 'Lucid', 'Arial', 'Helvetica', 'Avant Garde', sans-serif; text-anchor: start" x="84.389063" y="156.854437" transform="rotate(-0 84.389063 156.854437)">Hard \ac{tanh}</text>
    </g>
    <g id="line2d_33">
     <path d="M 56.389063 168.032562 
L 66.389063 168.032562 
L 76.389063 168.032562 
" style="fill: none; stroke: #800000; stroke-linecap: square"/>
    </g>
    <g id="text_25">
     <text style="font: 10px 'DejaVu Sans', 'Bitstream Vera Sans', 'Computer Modern Sans Serif', 'Lucida Grande', 'Verdana', 'Geneva', 'Lucid', 'Arial', 'Helvetica', 'Avant Garde', sans-serif; text-anchor: start" x="84.389063" y="171.532562" transform="rotate(-0 84.389063 171.532562)">\ac{tanh}</text>
    </g>
   </g>
  </g>
 </g>
 <defs>
  <clipPath id="p218b893e1e">
   <rect x="47.389063" y="7.2" width="357.12" height="133.056"/>
  </clipPath>
  <clipPath id="p5971357add">
   <rect x="47.389063" y="140.256" width="357.12" height="133.056"/>
  </clipPath>
 </defs>
</svg>
