<?xml version="1.0" encoding="utf-8" standalone="no"?>
<!DOCTYPE svg PUBLIC "-//W3C//DTD SVG 1.1//EN"
  "http://www.w3.org/Graphics/SVG/1.1/DTD/svg11.dtd">
<svg xmlns:xlink="http://www.w3.org/1999/xlink" width="411.285625pt" height="187.60425pt" viewBox="0 0 411.285625 187.60425" xmlns="http://www.w3.org/2000/svg" version="1.1">
 <metadata>
  <rdf:RDF xmlns:dc="http://purl.org/dc/elements/1.1/" xmlns:cc="http://creativecommons.org/ns#" xmlns:rdf="http://www.w3.org/1999/02/22-rdf-syntax-ns#">
   <cc:Work>
    <dc:type rdf:resource="http://purl.org/dc/dcmitype/StillImage"/>
    <dc:date>2023-10-17T14:47:44.146468</dc:date>
    <dc:format>image/svg+xml</dc:format>
    <dc:creator>
     <cc:Agent>
      <dc:title>Matplotlib v3.8.0, https://matplotlib.org/</dc:title>
     </cc:Agent>
    </dc:creator>
   </cc:Work>
  </rdf:RDF>
 </metadata>
 <defs>
  <style type="text/css">*{stroke-linejoin: round; stroke-linecap: butt}</style>
 </defs>
 <g id="figure_1">
  <g id="patch_1">
   <path d="M 0 187.60425 
L 411.285625 187.60425 
L 411.285625 0 
L 0 0 
z
" style="fill: #ffffff"/>
  </g>
  <g id="axes_1">
   <g id="patch_2">
    <path d="M 46.965625 150.048 
L 404.085625 150.048 
L 404.085625 7.2 
L 46.965625 7.2 
z
" style="fill: #ffffff"/>
   </g>
   <g id="matplotlib.axis_1">
    <g id="xtick_1">
     <g id="line2d_1">
      <defs>
       <path id="mb2e82b2c91" d="M 0 0 
L 0 3.5 
" style="stroke: #000000; stroke-width: 0.8"/>
      </defs>
      <g>
       <use xlink:href="#mb2e82b2c91" x="62.656358" y="150.048" style="stroke: #000000; stroke-width: 0.8"/>
      </g>
     </g>
     <g id="text_1">
      <text style="font: 10px 'DejaVu Sans', 'Bitstream Vera Sans', 'Computer Modern Sans Serif', 'Lucida Grande', 'Verdana', 'Geneva', 'Lucid', 'Arial', 'Helvetica', 'Avant Garde', sans-serif; text-anchor: middle" x="62.656358" y="164.646438" transform="rotate(-0 62.656358 164.646438)">0</text>
     </g>
    </g>
    <g id="xtick_2">
     <g id="line2d_2">
      <g>
       <use xlink:href="#mb2e82b2c91" x="116.855781" y="150.048" style="stroke: #000000; stroke-width: 0.8"/>
      </g>
     </g>
     <g id="text_2">
      <text style="font: 10px 'DejaVu Sans', 'Bitstream Vera Sans', 'Computer Modern Sans Serif', 'Lucida Grande', 'Verdana', 'Geneva', 'Lucid', 'Arial', 'Helvetica', 'Avant Garde', sans-serif; text-anchor: middle" x="116.855781" y="164.646438" transform="rotate(-0 116.855781 164.646438)">20</text>
     </g>
    </g>
    <g id="xtick_3">
     <g id="line2d_3">
      <g>
       <use xlink:href="#mb2e82b2c91" x="171.055205" y="150.048" style="stroke: #000000; stroke-width: 0.8"/>
      </g>
     </g>
     <g id="text_3">
      <text style="font: 10px 'DejaVu Sans', 'Bitstream Vera Sans', 'Computer Modern Sans Serif', 'Lucida Grande', 'Verdana', 'Geneva', 'Lucid', 'Arial', 'Helvetica', 'Avant Garde', sans-serif; text-anchor: middle" x="171.055205" y="164.646438" transform="rotate(-0 171.055205 164.646438)">40</text>
     </g>
    </g>
    <g id="xtick_4">
     <g id="line2d_4">
      <g>
       <use xlink:href="#mb2e82b2c91" x="225.254628" y="150.048" style="stroke: #000000; stroke-width: 0.8"/>
      </g>
     </g>
     <g id="text_4">
      <text style="font: 10px 'DejaVu Sans', 'Bitstream Vera Sans', 'Computer Modern Sans Serif', 'Lucida Grande', 'Verdana', 'Geneva', 'Lucid', 'Arial', 'Helvetica', 'Avant Garde', sans-serif; text-anchor: middle" x="225.254628" y="164.646438" transform="rotate(-0 225.254628 164.646438)">60</text>
     </g>
    </g>
    <g id="xtick_5">
     <g id="line2d_5">
      <g>
       <use xlink:href="#mb2e82b2c91" x="279.454051" y="150.048" style="stroke: #000000; stroke-width: 0.8"/>
      </g>
     </g>
     <g id="text_5">
      <text style="font: 10px 'DejaVu Sans', 'Bitstream Vera Sans', 'Computer Modern Sans Serif', 'Lucida Grande', 'Verdana', 'Geneva', 'Lucid', 'Arial', 'Helvetica', 'Avant Garde', sans-serif; text-anchor: middle" x="279.454051" y="164.646438" transform="rotate(-0 279.454051 164.646438)">80</text>
     </g>
    </g>
    <g id="xtick_6">
     <g id="line2d_6">
      <g>
       <use xlink:href="#mb2e82b2c91" x="333.653474" y="150.048" style="stroke: #000000; stroke-width: 0.8"/>
      </g>
     </g>
     <g id="text_6">
      <text style="font: 10px 'DejaVu Sans', 'Bitstream Vera Sans', 'Computer Modern Sans Serif', 'Lucida Grande', 'Verdana', 'Geneva', 'Lucid', 'Arial', 'Helvetica', 'Avant Garde', sans-serif; text-anchor: middle" x="333.653474" y="164.646438" transform="rotate(-0 333.653474 164.646438)">100</text>
     </g>
    </g>
    <g id="xtick_7">
     <g id="line2d_7">
      <g>
       <use xlink:href="#mb2e82b2c91" x="387.852898" y="150.048" style="stroke: #000000; stroke-width: 0.8"/>
      </g>
     </g>
     <g id="text_7">
      <text style="font: 10px 'DejaVu Sans', 'Bitstream Vera Sans', 'Computer Modern Sans Serif', 'Lucida Grande', 'Verdana', 'Geneva', 'Lucid', 'Arial', 'Helvetica', 'Avant Garde', sans-serif; text-anchor: middle" x="387.852898" y="164.646438" transform="rotate(-0 387.852898 164.646438)">120</text>
     </g>
    </g>
    <g id="text_8">
     <text style="font: 10px 'DejaVu Sans', 'Bitstream Vera Sans', 'Computer Modern Sans Serif', 'Lucida Grande', 'Verdana', 'Geneva', 'Lucid', 'Arial', 'Helvetica', 'Avant Garde', sans-serif; text-anchor: middle" x="225.525625" y="178.324563" transform="rotate(-0 225.525625 178.324563)">Time ($\mu s$)</text>
    </g>
   </g>
   <g id="matplotlib.axis_2">
    <g id="ytick_1">
     <g id="line2d_8">
      <defs>
       <path id="mb78c8732b4" d="M 0 0 
L -3.5 0 
" style="stroke: #000000; stroke-width: 0.8"/>
      </defs>
      <g>
       <use xlink:href="#mb78c8732b4" x="46.965625" y="148.235997" style="stroke: #000000; stroke-width: 0.8"/>
      </g>
     </g>
     <g id="text_9">
      <text style="font: 10px 'DejaVu Sans', 'Bitstream Vera Sans', 'Computer Modern Sans Serif', 'Lucida Grande', 'Verdana', 'Geneva', 'Lucid', 'Arial', 'Helvetica', 'Avant Garde', sans-serif; text-anchor: end" x="39.965625" y="152.035215" transform="rotate(-0 39.965625 152.035215)">50</text>
     </g>
    </g>
    <g id="ytick_2">
     <g id="line2d_9">
      <g>
       <use xlink:href="#mb78c8732b4" x="46.965625" y="121.327845" style="stroke: #000000; stroke-width: 0.8"/>
      </g>
     </g>
     <g id="text_10">
      <text style="font: 10px 'DejaVu Sans', 'Bitstream Vera Sans', 'Computer Modern Sans Serif', 'Lucida Grande', 'Verdana', 'Geneva', 'Lucid', 'Arial', 'Helvetica', 'Avant Garde', sans-serif; text-anchor: end" x="39.965625" y="125.127064" transform="rotate(-0 39.965625 125.127064)">60</text>
     </g>
    </g>
    <g id="ytick_3">
     <g id="line2d_10">
      <g>
       <use xlink:href="#mb78c8732b4" x="46.965625" y="94.419693" style="stroke: #000000; stroke-width: 0.8"/>
      </g>
     </g>
     <g id="text_11">
      <text style="font: 10px 'DejaVu Sans', 'Bitstream Vera Sans', 'Computer Modern Sans Serif', 'Lucida Grande', 'Verdana', 'Geneva', 'Lucid', 'Arial', 'Helvetica', 'Avant Garde', sans-serif; text-anchor: end" x="39.965625" y="98.218912" transform="rotate(-0 39.965625 98.218912)">70</text>
     </g>
    </g>
    <g id="ytick_4">
     <g id="line2d_11">
      <g>
       <use xlink:href="#mb78c8732b4" x="46.965625" y="67.511542" style="stroke: #000000; stroke-width: 0.8"/>
      </g>
     </g>
     <g id="text_12">
      <text style="font: 10px 'DejaVu Sans', 'Bitstream Vera Sans', 'Computer Modern Sans Serif', 'Lucida Grande', 'Verdana', 'Geneva', 'Lucid', 'Arial', 'Helvetica', 'Avant Garde', sans-serif; text-anchor: end" x="39.965625" y="71.31076" transform="rotate(-0 39.965625 71.31076)">80</text>
     </g>
    </g>
    <g id="ytick_5">
     <g id="line2d_12">
      <g>
       <use xlink:href="#mb78c8732b4" x="46.965625" y="40.60339" style="stroke: #000000; stroke-width: 0.8"/>
      </g>
     </g>
     <g id="text_13">
      <text style="font: 10px 'DejaVu Sans', 'Bitstream Vera Sans', 'Computer Modern Sans Serif', 'Lucida Grande', 'Verdana', 'Geneva', 'Lucid', 'Arial', 'Helvetica', 'Avant Garde', sans-serif; text-anchor: end" x="39.965625" y="44.402609" transform="rotate(-0 39.965625 44.402609)">90</text>
     </g>
    </g>
    <g id="ytick_6">
     <g id="line2d_13">
      <g>
       <use xlink:href="#mb78c8732b4" x="46.965625" y="13.695238" style="stroke: #000000; stroke-width: 0.8"/>
      </g>
     </g>
     <g id="text_14">
      <text style="font: 10px 'DejaVu Sans', 'Bitstream Vera Sans', 'Computer Modern Sans Serif', 'Lucida Grande', 'Verdana', 'Geneva', 'Lucid', 'Arial', 'Helvetica', 'Avant Garde', sans-serif; text-anchor: end" x="39.965625" y="17.494457" transform="rotate(-0 39.965625 17.494457)">100</text>
     </g>
    </g>
    <g id="text_15">
     <text style="font: 10px 'DejaVu Sans', 'Bitstream Vera Sans', 'Computer Modern Sans Serif', 'Lucida Grande', 'Verdana', 'Geneva', 'Lucid', 'Arial', 'Helvetica', 'Avant Garde', sans-serif; text-anchor: middle" x="14.798438" y="78.624" transform="rotate(-90 14.798438 78.624)">Memory conservation (%)</text>
    </g>
   </g>
   <g id="line2d_14">
    <path d="M 63.198352 13.699446 
L 63.333851 13.717381 
L 63.496504 13.751852 
L 63.557464 14.047988 
L 63.580325 14.65308 
L 63.626045 23.217694 
L 63.667686 40.815891 
L 63.676768 45.448151 
L 63.694934 54.572921 
L 63.71764 65.869455 
L 63.740347 77.147217 
L 63.7517 80.585496 
L 63.768248 84.516286 
L 63.784175 86.866729 
L 63.816028 90.061817 
L 63.850798 92.381005 
L 63.909089 95.102436 
L 63.988582 97.641699 
L 64.111524 100.344256 
L 64.285309 102.952462 
L 64.542604 105.604051 
L 64.913895 108.227472 
L 65.459301 110.873824 
L 66.252283 113.513964 
L 67.411516 116.164742 
L 69.100128 118.817682 
L 71.565134 121.481202 
L 75.159084 124.154643 
L 80.402469 126.84381 
L 88.04824 129.552417 
L 96.720148 131.745259 
L 105.392056 133.430408 
L 111.123918 134.364859 
L 116.855781 135.19778 
L 117.000717 135.175986 
L 117.170837 135.153488 
L 117.397776 135.127836 
L 117.428594 135.12783 
L 117.489201 135.127819 
L 117.546924 135.127807 
L 117.66237 135.127785 
L 117.893262 135.127741 
L 118.355047 135.127651 
L 119.278617 135.127473 
L 121.125756 135.127117 
L 124.820035 135.126404 
L 132.208592 135.124977 
L 140.8805 135.123304 
L 149.552407 135.12163 
L 158.224315 135.119956 
L 164.910757 135.118666 
L 171.597199 135.117375 
L 171.752771 135.134494 
L 171.931115 135.156752 
L 172.139193 135.201608 
L 172.168704 135.205662 
L 172.227582 135.213746 
L 172.28244 135.221271 
L 172.392156 135.236297 
L 172.611588 135.266265 
L 173.050451 135.325856 
L 173.928178 135.443692 
L 175.683631 135.674185 
L 179.194539 136.115936 
L 186.216353 136.932447 
L 194.888261 137.837639 
L 203.560168 138.650855 
L 212.232076 139.389959 
L 218.743352 139.903953 
L 225.254628 140.387973 
L 225.408303 140.365124 
L 225.585195 140.34218 
L 225.796622 140.318578 
L 225.826369 140.318572 
L 225.885562 140.31856 
L 225.940935 140.318549 
L 226.051681 140.318527 
L 226.273174 140.318482 
L 226.71616 140.318393 
L 227.602131 140.318215 
L 229.374072 140.317857 
L 232.917956 140.317143 
L 240.005724 140.315715 
L 248.677631 140.313968 
L 257.349539 140.31222 
L 266.021447 140.310473 
L 273.008746 140.309065 
L 279.996045 140.307657 
L 280.154822 140.325034 
L 280.335607 140.347482 
L 280.53804 140.384341 
L 280.567147 140.386443 
L 280.625362 140.390645 
L 280.679337 140.394538 
L 280.787286 140.402321 
L 281.003186 140.417864 
L 281.434984 140.448864 
L 282.298582 140.510523 
L 284.025776 140.632504 
L 287.480165 140.87132 
L 294.388943 141.329829 
L 303.06085 141.87266 
L 311.732758 142.383295 
L 320.404666 142.865628 
L 327.02907 143.216962 
L 333.653474 143.554909 
L 333.808377 143.532001 
L 333.98621 143.509095 
L 334.195469 143.485848 
L 334.225063 143.485842 
L 334.284052 143.485829 
L 334.339092 143.485818 
L 334.449172 143.485795 
L 334.669332 143.48575 
L 335.109651 143.485659 
L 335.99029 143.485477 
L 337.751567 143.485113 
L 341.274122 143.484385 
L 348.319231 143.482928 
L 356.991139 143.481136 
L 365.663047 143.479343 
L 374.334955 143.477551 
L 381.093926 143.476153 
L 387.852898 143.474756 
" clip-path="url(#p31ee63c279)" style="fill: none; stroke: #2ca02c; stroke-linecap: square"/>
   </g>
   <g id="line2d_15">
    <path d="M 63.198352 13.693091 
L 63.333851 13.697737 
L 63.496504 13.703972 
L 63.557465 13.706613 
L 63.580325 13.707773 
L 63.626045 13.711272 
L 63.678885 13.717681 
L 63.740347 13.726896 
L 63.760551 13.728153 
L 63.790079 13.729631 
L 63.817791 13.730549 
L 63.873217 13.73198 
L 63.930798 13.73324 
L 64.028108 13.735292 
L 64.159631 13.738181 
L 64.356741 13.742752 
L 64.619271 13.749093 
L 64.98041 13.757966 
L 65.505756 13.77097 
L 66.429717 13.793863 
L 68.277638 13.839571 
L 71.973481 13.93064 
L 79.365168 14.111407 
L 88.037075 14.321191 
L 96.708983 14.528561 
L 105.380891 14.733579 
L 111.118336 14.867955 
L 116.855781 15.001344 
L 116.99128 14.995156 
L 117.153933 14.98834 
L 117.397776 14.979374 
L 117.429722 14.97937 
L 117.491797 14.97937 
L 117.552018 14.979372 
L 117.67246 14.979377 
L 117.913343 14.979386 
L 118.395109 14.979404 
L 119.358641 14.97944 
L 121.285706 14.979512 
L 125.139836 14.979655 
L 132.848095 14.979938 
L 141.520002 14.98025 
L 150.19191 14.980556 
L 158.863818 14.980856 
L 165.230508 14.981072 
L 171.597199 14.981286 
L 171.732697 14.985977 
L 171.895351 14.992363 
L 172.139193 15.005704 
L 172.171309 15.006333 
L 172.233605 15.007517 
L 172.293861 15.008713 
L 172.414374 15.011199 
L 172.655399 15.016436 
L 172.966565 15.023453 
L 173.383374 15.032981 
L 173.970751 15.04654 
L 175.074096 15.072011 
L 177.280786 15.122855 
L 181.694167 15.224123 
L 190.366075 15.421487 
L 199.037982 15.616745 
L 207.70989 15.809945 
L 216.381798 16.001137 
L 220.818213 16.098186 
L 225.254628 16.194726 
L 225.390126 16.188537 
L 225.55278 16.181722 
L 225.796622 16.172763 
L 225.828568 16.172759 
L 225.890644 16.172759 
L 225.950865 16.172761 
L 226.071306 16.172765 
L 226.312189 16.172774 
L 226.793956 16.172792 
L 227.757488 16.172827 
L 229.684553 16.172897 
L 233.538682 16.173036 
L 241.246941 16.17331 
L 249.918849 16.173612 
L 258.590757 16.173909 
L 267.262664 16.174199 
L 273.629355 16.174409 
L 279.996045 16.174616 
L 280.131544 16.179302 
L 280.294197 16.185681 
L 280.53804 16.198861 
L 280.570209 16.19934 
L 280.632574 16.200442 
L 280.692841 16.201553 
L 280.813376 16.203856 
L 281.054446 16.208723 
L 281.377084 16.21551 
L 281.803502 16.22463 
L 282.395934 16.237436 
L 283.445299 16.26014 
L 285.544031 16.305474 
L 289.741493 16.395813 
L 298.136419 16.575183 
L 306.808327 16.758673 
L 315.480234 16.940375 
L 324.152142 17.120327 
L 328.902808 17.21818 
L 333.653474 17.315525 
L 333.788973 17.309335 
L 333.951626 17.302522 
L 334.195469 17.29357 
L 334.227415 17.293566 
L 334.289491 17.293566 
L 334.349711 17.293568 
L 334.470153 17.293572 
L 334.711036 17.293581 
L 335.192802 17.293598 
L 336.156335 17.293632 
L 338.083399 17.2937 
L 341.937529 17.293835 
L 349.645788 17.294101 
L 358.317695 17.294395 
L 366.989603 17.294682 
L 375.661511 17.294964 
L 381.757204 17.295159 
L 387.852898 17.295351 
" clip-path="url(#p31ee63c279)" style="fill: none; stroke: #d62728; stroke-linecap: square"/>
   </g>
   <g id="patch_3">
    <path d="M 46.965625 150.048 
L 46.965625 7.2 
" style="fill: none; stroke: #000000; stroke-width: 0.8; stroke-linejoin: miter; stroke-linecap: square"/>
   </g>
   <g id="patch_4">
    <path d="M 404.085625 150.048 
L 404.085625 7.2 
" style="fill: none; stroke: #000000; stroke-width: 0.8; stroke-linejoin: miter; stroke-linecap: square"/>
   </g>
   <g id="patch_5">
    <path d="M 46.965625 150.048 
L 404.085625 150.048 
" style="fill: none; stroke: #000000; stroke-width: 0.8; stroke-linejoin: miter; stroke-linecap: square"/>
   </g>
   <g id="patch_6">
    <path d="M 46.965625 7.2 
L 404.085625 7.2 
" style="fill: none; stroke: #000000; stroke-width: 0.8; stroke-linejoin: miter; stroke-linecap: square"/>
   </g>
   <g id="legend_1">
    <g id="patch_7">
     <path d="M 278.112188 94.802125 
L 397.085625 94.802125 
Q 399.085625 94.802125 399.085625 92.802125 
L 399.085625 64.445875 
Q 399.085625 62.445875 397.085625 62.445875 
L 278.112188 62.445875 
Q 276.112188 62.445875 276.112188 64.445875 
L 276.112188 92.802125 
Q 276.112188 94.802125 278.112188 94.802125 
z
" style="fill: #ffffff; opacity: 0.8; stroke: #cccccc; stroke-linejoin: miter"/>
    </g>
    <g id="line2d_16">
     <path d="M 280.112188 70.544313 
L 290.112188 70.544313 
L 300.112188 70.544313 
" style="fill: none; stroke: #2ca02c; stroke-linecap: square"/>
    </g>
    <g id="text_16">
     <text style="font: 10px 'DejaVu Sans', 'Bitstream Vera Sans', 'Computer Modern Sans Serif', 'Lucida Grande', 'Verdana', 'Geneva', 'Lucid', 'Arial', 'Helvetica', 'Avant Garde', sans-serif; text-anchor: start" x="308.112188" y="74.044313" transform="rotate(-0 308.112188 74.044313)">1 CMOS Switch</text>
    </g>
    <g id="line2d_17">
     <path d="M 280.112188 85.222438 
L 290.112188 85.222438 
L 300.112188 85.222438 
" style="fill: none; stroke: #d62728; stroke-linecap: square"/>
    </g>
    <g id="text_17">
     <text style="font: 10px 'DejaVu Sans', 'Bitstream Vera Sans', 'Computer Modern Sans Serif', 'Lucida Grande', 'Verdana', 'Geneva', 'Lucid', 'Arial', 'Helvetica', 'Avant Garde', sans-serif; text-anchor: start" x="308.112188" y="88.722438" transform="rotate(-0 308.112188 88.722438)">2 CMOS Switches</text>
    </g>
   </g>
  </g>
 </g>
 <defs>
  <clipPath id="p31ee63c279">
   <rect x="46.965625" y="7.2" width="357.12" height="142.848"/>
  </clipPath>
 </defs>
</svg>
