<?xml version="1.0" encoding="utf-8" standalone="no"?>
<!DOCTYPE svg PUBLIC "-//W3C//DTD SVG 1.1//EN"
  "http://www.w3.org/Graphics/SVG/1.1/DTD/svg11.dtd">
<svg xmlns:xlink="http://www.w3.org/1999/xlink" width="411.285625pt" height="187.60425pt" viewBox="0 0 411.285625 187.60425" xmlns="http://www.w3.org/2000/svg" version="1.1">
 <metadata>
  <rdf:RDF xmlns:dc="http://purl.org/dc/elements/1.1/" xmlns:cc="http://creativecommons.org/ns#" xmlns:rdf="http://www.w3.org/1999/02/22-rdf-syntax-ns#">
   <cc:Work>
    <dc:type rdf:resource="http://purl.org/dc/dcmitype/StillImage"/>
    <dc:date>2023-11-16T11:41:22.995338</dc:date>
    <dc:format>image/svg+xml</dc:format>
    <dc:creator>
     <cc:Agent>
      <dc:title>Matplotlib v3.8.1, https://matplotlib.org/</dc:title>
     </cc:Agent>
    </dc:creator>
   </cc:Work>
  </rdf:RDF>
 </metadata>
 <defs>
  <style type="text/css">*{stroke-linejoin: round; stroke-linecap: butt}</style>
 </defs>
 <g id="figure_1">
  <g id="patch_1">
   <path d="M 0 187.60425 
L 411.285625 187.60425 
L 411.285625 0 
L 0 0 
z
" style="fill: #ffffff"/>
  </g>
  <g id="axes_1">
   <g id="patch_2">
    <path d="M 46.965625 150.048 
L 404.085625 150.048 
L 404.085625 7.2 
L 46.965625 7.2 
z
" style="fill: #ffffff"/>
   </g>
   <g id="matplotlib.axis_1">
    <g id="xtick_1">
     <g id="line2d_1">
      <defs>
       <path id="m0555333782" d="M 0 0 
L 0 3.5 
" style="stroke: #000000; stroke-width: 0.8"/>
      </defs>
      <g>
       <use xlink:href="#m0555333782" x="62.656358" y="150.048" style="stroke: #000000; stroke-width: 0.8"/>
      </g>
     </g>
     <g id="text_1">
      <text style="font: 10px 'DejaVu Sans', 'Bitstream Vera Sans', 'Computer Modern Sans Serif', 'Lucida Grande', 'Verdana', 'Geneva', 'Lucid', 'Arial', 'Helvetica', 'Avant Garde', sans-serif; text-anchor: middle" x="62.656358" y="164.646438" transform="rotate(-0 62.656358 164.646438)">0</text>
     </g>
    </g>
    <g id="xtick_2">
     <g id="line2d_2">
      <g>
       <use xlink:href="#m0555333782" x="116.855781" y="150.048" style="stroke: #000000; stroke-width: 0.8"/>
      </g>
     </g>
     <g id="text_2">
      <text style="font: 10px 'DejaVu Sans', 'Bitstream Vera Sans', 'Computer Modern Sans Serif', 'Lucida Grande', 'Verdana', 'Geneva', 'Lucid', 'Arial', 'Helvetica', 'Avant Garde', sans-serif; text-anchor: middle" x="116.855781" y="164.646438" transform="rotate(-0 116.855781 164.646438)">20</text>
     </g>
    </g>
    <g id="xtick_3">
     <g id="line2d_3">
      <g>
       <use xlink:href="#m0555333782" x="171.055205" y="150.048" style="stroke: #000000; stroke-width: 0.8"/>
      </g>
     </g>
     <g id="text_3">
      <text style="font: 10px 'DejaVu Sans', 'Bitstream Vera Sans', 'Computer Modern Sans Serif', 'Lucida Grande', 'Verdana', 'Geneva', 'Lucid', 'Arial', 'Helvetica', 'Avant Garde', sans-serif; text-anchor: middle" x="171.055205" y="164.646438" transform="rotate(-0 171.055205 164.646438)">40</text>
     </g>
    </g>
    <g id="xtick_4">
     <g id="line2d_4">
      <g>
       <use xlink:href="#m0555333782" x="225.254628" y="150.048" style="stroke: #000000; stroke-width: 0.8"/>
      </g>
     </g>
     <g id="text_4">
      <text style="font: 10px 'DejaVu Sans', 'Bitstream Vera Sans', 'Computer Modern Sans Serif', 'Lucida Grande', 'Verdana', 'Geneva', 'Lucid', 'Arial', 'Helvetica', 'Avant Garde', sans-serif; text-anchor: middle" x="225.254628" y="164.646438" transform="rotate(-0 225.254628 164.646438)">60</text>
     </g>
    </g>
    <g id="xtick_5">
     <g id="line2d_5">
      <g>
       <use xlink:href="#m0555333782" x="279.454051" y="150.048" style="stroke: #000000; stroke-width: 0.8"/>
      </g>
     </g>
     <g id="text_5">
      <text style="font: 10px 'DejaVu Sans', 'Bitstream Vera Sans', 'Computer Modern Sans Serif', 'Lucida Grande', 'Verdana', 'Geneva', 'Lucid', 'Arial', 'Helvetica', 'Avant Garde', sans-serif; text-anchor: middle" x="279.454051" y="164.646438" transform="rotate(-0 279.454051 164.646438)">80</text>
     </g>
    </g>
    <g id="xtick_6">
     <g id="line2d_6">
      <g>
       <use xlink:href="#m0555333782" x="333.653474" y="150.048" style="stroke: #000000; stroke-width: 0.8"/>
      </g>
     </g>
     <g id="text_6">
      <text style="font: 10px 'DejaVu Sans', 'Bitstream Vera Sans', 'Computer Modern Sans Serif', 'Lucida Grande', 'Verdana', 'Geneva', 'Lucid', 'Arial', 'Helvetica', 'Avant Garde', sans-serif; text-anchor: middle" x="333.653474" y="164.646438" transform="rotate(-0 333.653474 164.646438)">100</text>
     </g>
    </g>
    <g id="xtick_7">
     <g id="line2d_7">
      <g>
       <use xlink:href="#m0555333782" x="387.852898" y="150.048" style="stroke: #000000; stroke-width: 0.8"/>
      </g>
     </g>
     <g id="text_7">
      <text style="font: 10px 'DejaVu Sans', 'Bitstream Vera Sans', 'Computer Modern Sans Serif', 'Lucida Grande', 'Verdana', 'Geneva', 'Lucid', 'Arial', 'Helvetica', 'Avant Garde', sans-serif; text-anchor: middle" x="387.852898" y="164.646438" transform="rotate(-0 387.852898 164.646438)">120</text>
     </g>
    </g>
    <g id="text_8">
     <text style="font: 10px 'DejaVu Sans', 'Bitstream Vera Sans', 'Computer Modern Sans Serif', 'Lucida Grande', 'Verdana', 'Geneva', 'Lucid', 'Arial', 'Helvetica', 'Avant Garde', sans-serif; text-anchor: middle" x="225.525625" y="178.324563" transform="rotate(-0 225.525625 178.324563)">Time ($\mu s$)</text>
    </g>
   </g>
   <g id="matplotlib.axis_2">
    <g id="ytick_1">
     <g id="line2d_8">
      <defs>
       <path id="m0b94fe00e0" d="M 0 0 
L -3.5 0 
" style="stroke: #000000; stroke-width: 0.8"/>
      </defs>
      <g>
       <use xlink:href="#m0b94fe00e0" x="46.965625" y="141.907633" style="stroke: #000000; stroke-width: 0.8"/>
      </g>
     </g>
     <g id="text_9">
      <text style="font: 10px 'DejaVu Sans', 'Bitstream Vera Sans', 'Computer Modern Sans Serif', 'Lucida Grande', 'Verdana', 'Geneva', 'Lucid', 'Arial', 'Helvetica', 'Avant Garde', sans-serif; text-anchor: end" x="39.965625" y="145.706852" transform="rotate(-0 39.965625 145.706852)">50</text>
     </g>
    </g>
    <g id="ytick_2">
     <g id="line2d_9">
      <g>
       <use xlink:href="#m0b94fe00e0" x="46.965625" y="117.445677" style="stroke: #000000; stroke-width: 0.8"/>
      </g>
     </g>
     <g id="text_10">
      <text style="font: 10px 'DejaVu Sans', 'Bitstream Vera Sans', 'Computer Modern Sans Serif', 'Lucida Grande', 'Verdana', 'Geneva', 'Lucid', 'Arial', 'Helvetica', 'Avant Garde', sans-serif; text-anchor: end" x="39.965625" y="121.244896" transform="rotate(-0 39.965625 121.244896)">60</text>
     </g>
    </g>
    <g id="ytick_3">
     <g id="line2d_10">
      <g>
       <use xlink:href="#m0b94fe00e0" x="46.965625" y="92.983721" style="stroke: #000000; stroke-width: 0.8"/>
      </g>
     </g>
     <g id="text_11">
      <text style="font: 10px 'DejaVu Sans', 'Bitstream Vera Sans', 'Computer Modern Sans Serif', 'Lucida Grande', 'Verdana', 'Geneva', 'Lucid', 'Arial', 'Helvetica', 'Avant Garde', sans-serif; text-anchor: end" x="39.965625" y="96.78294" transform="rotate(-0 39.965625 96.78294)">70</text>
     </g>
    </g>
    <g id="ytick_4">
     <g id="line2d_11">
      <g>
       <use xlink:href="#m0b94fe00e0" x="46.965625" y="68.521765" style="stroke: #000000; stroke-width: 0.8"/>
      </g>
     </g>
     <g id="text_12">
      <text style="font: 10px 'DejaVu Sans', 'Bitstream Vera Sans', 'Computer Modern Sans Serif', 'Lucida Grande', 'Verdana', 'Geneva', 'Lucid', 'Arial', 'Helvetica', 'Avant Garde', sans-serif; text-anchor: end" x="39.965625" y="72.320984" transform="rotate(-0 39.965625 72.320984)">80</text>
     </g>
    </g>
    <g id="ytick_5">
     <g id="line2d_12">
      <g>
       <use xlink:href="#m0b94fe00e0" x="46.965625" y="44.059809" style="stroke: #000000; stroke-width: 0.8"/>
      </g>
     </g>
     <g id="text_13">
      <text style="font: 10px 'DejaVu Sans', 'Bitstream Vera Sans', 'Computer Modern Sans Serif', 'Lucida Grande', 'Verdana', 'Geneva', 'Lucid', 'Arial', 'Helvetica', 'Avant Garde', sans-serif; text-anchor: end" x="39.965625" y="47.859028" transform="rotate(-0 39.965625 47.859028)">90</text>
     </g>
    </g>
    <g id="ytick_6">
     <g id="line2d_13">
      <g>
       <use xlink:href="#m0b94fe00e0" x="46.965625" y="19.597853" style="stroke: #000000; stroke-width: 0.8"/>
      </g>
     </g>
     <g id="text_14">
      <text style="font: 10px 'DejaVu Sans', 'Bitstream Vera Sans', 'Computer Modern Sans Serif', 'Lucida Grande', 'Verdana', 'Geneva', 'Lucid', 'Arial', 'Helvetica', 'Avant Garde', sans-serif; text-anchor: end" x="39.965625" y="23.397072" transform="rotate(-0 39.965625 23.397072)">100</text>
     </g>
    </g>
    <g id="text_15">
     <text style="font: 10px 'DejaVu Sans', 'Bitstream Vera Sans', 'Computer Modern Sans Serif', 'Lucida Grande', 'Verdana', 'Geneva', 'Lucid', 'Arial', 'Helvetica', 'Avant Garde', sans-serif; text-anchor: middle" x="14.798438" y="78.624" transform="rotate(-90 14.798438 78.624)">Memory conservation (%)</text>
    </g>
   </g>
   <g id="line2d_14">
    <path d="M 63.198352 19.601678 
L 63.333851 19.617983 
L 63.496504 19.64932 
L 63.557464 19.918534 
L 63.580325 20.468618 
L 63.626045 28.254631 
L 63.667686 44.252992 
L 63.676768 48.464137 
L 63.694934 56.759383 
L 63.71764 67.028959 
L 63.740347 77.28147 
L 63.7517 80.407178 
L 63.768248 83.980623 
L 63.784175 86.11739 
L 63.816028 89.022015 
L 63.850798 91.130368 
L 63.909089 93.604396 
L 63.988582 95.912818 
L 64.111524 98.369687 
L 64.285309 100.740784 
L 64.542604 103.151319 
L 64.913895 105.536247 
L 65.459301 107.942022 
L 66.252283 110.342149 
L 67.411516 112.751948 
L 69.100128 115.163711 
L 71.565134 117.585092 
L 75.159084 120.015493 
L 80.402469 122.460191 
L 88.04824 124.922561 
L 96.720148 126.916054 
L 105.392056 128.448007 
L 111.123918 129.297508 
L 116.855781 130.054709 
L 117.000717 130.034896 
L 117.170837 130.014444 
L 117.397776 129.991124 
L 117.428594 129.991118 
L 117.489201 129.991108 
L 117.546924 129.991098 
L 117.66237 129.991077 
L 117.893262 129.991037 
L 118.355047 129.990956 
L 119.278617 129.990794 
L 121.125756 129.99047 
L 124.820035 129.989821 
L 132.208592 129.988525 
L 140.8805 129.987003 
L 149.552407 129.985482 
L 158.224315 129.98396 
L 164.910757 129.982787 
L 171.597199 129.981614 
L 171.752771 129.997176 
L 171.931115 130.017411 
L 172.139193 130.058189 
L 172.168704 130.061875 
L 172.227582 130.069224 
L 172.28244 130.076064 
L 172.392156 130.089725 
L 172.611588 130.116968 
L 173.050451 130.171142 
L 173.928178 130.278266 
L 175.683631 130.487804 
L 179.194539 130.889397 
L 186.216353 131.631679 
L 194.888261 132.454581 
L 203.560168 133.193868 
L 212.232076 133.865781 
L 218.743352 134.333048 
L 225.254628 134.773066 
L 225.408303 134.752294 
L 225.585195 134.731436 
L 225.796622 134.70998 
L 225.826369 134.709975 
L 225.885562 134.709964 
L 225.940935 134.709954 
L 226.051681 134.709934 
L 226.273174 134.709893 
L 226.71616 134.709812 
L 227.602131 134.70965 
L 229.374072 134.709325 
L 232.917956 134.708676 
L 240.005724 134.707377 
L 248.677631 134.705789 
L 257.349539 134.7042 
L 266.021447 134.702612 
L 273.008746 134.701332 
L 279.996045 134.700052 
L 280.154822 134.715849 
L 280.335607 134.736256 
L 280.53804 134.769765 
L 280.567147 134.771675 
L 280.625362 134.775495 
L 280.679337 134.779035 
L 280.787286 134.78611 
L 281.003186 134.80024 
L 281.434984 134.828421 
L 282.298582 134.884475 
L 284.025776 134.995367 
L 287.480165 135.212472 
L 294.388943 135.629299 
L 303.06085 136.122782 
L 311.732758 136.586995 
L 320.404666 137.02548 
L 327.02907 137.344875 
L 333.653474 137.652099 
L 333.808377 137.631274 
L 333.98621 137.61045 
L 334.195469 137.589316 
L 334.225063 137.589311 
L 334.284052 137.5893 
L 334.339092 137.589289 
L 334.449172 137.589268 
L 334.669332 137.589227 
L 335.109651 137.589144 
L 335.99029 137.588979 
L 337.751567 137.588648 
L 341.274122 137.587986 
L 348.319231 137.586662 
L 356.991139 137.585032 
L 365.663047 137.583403 
L 374.334955 137.581773 
L 381.093926 137.580503 
L 387.852898 137.579233 
" clip-path="url(#p1625a7aebd)" style="fill: none; stroke: #2ca02c; stroke-linecap: square"/>
   </g>
   <g id="line2d_15">
    <path d="M 63.198352 19.595901 
L 63.333851 19.600125 
L 63.496504 19.605793 
L 63.557465 19.608194 
L 63.580325 19.609248 
L 63.626045 19.612429 
L 63.678885 19.618256 
L 63.740347 19.626633 
L 63.760551 19.627776 
L 63.790079 19.629119 
L 63.817791 19.629954 
L 63.873217 19.631255 
L 63.930798 19.6324 
L 64.028108 19.634266 
L 64.159631 19.636892 
L 64.356741 19.641047 
L 64.619271 19.646812 
L 64.98041 19.654878 
L 65.505756 19.6667 
L 66.429717 19.687511 
L 68.277638 19.729064 
L 71.973481 19.811855 
L 79.365168 19.976188 
L 88.037075 20.166901 
L 96.708983 20.355419 
L 105.380891 20.541799 
L 111.118336 20.663959 
L 116.855781 20.785222 
L 116.99128 20.779597 
L 117.153933 20.7734 
L 117.397776 20.765249 
L 117.429722 20.765245 
L 117.491797 20.765246 
L 117.552018 20.765248 
L 117.67246 20.765252 
L 117.913343 20.76526 
L 118.395109 20.765276 
L 119.358641 20.765309 
L 121.285706 20.765375 
L 125.139836 20.765505 
L 132.848095 20.765761 
L 141.520002 20.766045 
L 150.19191 20.766323 
L 158.863818 20.766596 
L 165.230508 20.766793 
L 171.597199 20.766987 
L 171.732697 20.771252 
L 171.895351 20.777057 
L 172.139193 20.789186 
L 172.171309 20.789757 
L 172.233605 20.790833 
L 172.293861 20.791921 
L 172.414374 20.794181 
L 172.655399 20.798941 
L 172.966565 20.805321 
L 173.383374 20.813983 
L 173.970751 20.826309 
L 175.074096 20.849465 
L 177.280786 20.895687 
L 181.694167 20.987749 
L 190.366075 21.16717 
L 199.037982 21.344677 
L 207.70989 21.520314 
L 216.381798 21.694125 
L 220.818213 21.782351 
L 225.254628 21.870115 
L 225.390126 21.864488 
L 225.55278 21.858293 
L 225.796622 21.850148 
L 225.828568 21.850144 
L 225.890644 21.850144 
L 225.950865 21.850146 
L 226.071306 21.85015 
L 226.312189 21.850158 
L 226.793956 21.850174 
L 227.757488 21.850206 
L 229.684553 21.85027 
L 233.538682 21.850396 
L 241.246941 21.850645 
L 249.918849 21.85092 
L 258.590757 21.85119 
L 267.262664 21.851454 
L 273.629355 21.851645 
L 279.996045 21.851832 
L 280.131544 21.856093 
L 280.294197 21.861892 
L 280.53804 21.873873 
L 280.570209 21.87431 
L 280.632574 21.875311 
L 280.692841 21.876321 
L 280.813376 21.878414 
L 281.054446 21.882839 
L 281.377084 21.889009 
L 281.803502 21.8973 
L 282.395934 21.908942 
L 283.445299 21.929582 
L 285.544031 21.970795 
L 289.741493 22.052921 
L 298.136419 22.215985 
L 306.808327 22.382794 
L 315.480234 22.547977 
L 324.152142 22.71157 
L 328.902808 22.800527 
L 333.653474 22.889023 
L 333.788973 22.883396 
L 333.951626 22.877202 
L 334.195469 22.869063 
L 334.227415 22.86906 
L 334.289491 22.86906 
L 334.349711 22.869062 
L 334.470153 22.869066 
L 334.711036 22.869073 
L 335.192802 22.869089 
L 336.156335 22.86912 
L 338.083399 22.869182 
L 341.937529 22.869304 
L 349.645788 22.869546 
L 358.317695 22.869813 
L 366.989603 22.870075 
L 375.661511 22.870331 
L 381.757204 22.870508 
L 387.852898 22.870682 
" clip-path="url(#p1625a7aebd)" style="fill: none; stroke: #d62728; stroke-linecap: square"/>
   </g>
   <g id="LineCollection_1">
    <path d="M 84.336127 143.554909 
L 84.336127 13.693091 
" clip-path="url(#p1625a7aebd)" style="fill: none; stroke-dasharray: 1,1.65; stroke-dashoffset: 0; stroke: #808080"/>
   </g>
   <g id="LineCollection_2">
    <path d="M 106.015897 143.554909 
L 106.015897 13.693091 
" clip-path="url(#p1625a7aebd)" style="fill: none; stroke-dasharray: 6.4,1.6,1,1.6; stroke-dashoffset: 0; stroke: #808080"/>
   </g>
   <g id="LineCollection_3">
    <path d="M 149.375435 143.554909 
L 149.375435 13.693091 
" clip-path="url(#p1625a7aebd)" style="fill: none; stroke-dasharray: 3.7,1.6; stroke-dashoffset: 0; stroke: #808080"/>
   </g>
   <g id="patch_3">
    <path d="M 46.965625 150.048 
L 46.965625 7.2 
" style="fill: none; stroke: #000000; stroke-width: 0.8; stroke-linejoin: miter; stroke-linecap: square"/>
   </g>
   <g id="patch_4">
    <path d="M 404.085625 150.048 
L 404.085625 7.2 
" style="fill: none; stroke: #000000; stroke-width: 0.8; stroke-linejoin: miter; stroke-linecap: square"/>
   </g>
   <g id="patch_5">
    <path d="M 46.965625 150.048 
L 404.085625 150.048 
" style="fill: none; stroke: #000000; stroke-width: 0.8; stroke-linejoin: miter; stroke-linecap: square"/>
   </g>
   <g id="patch_6">
    <path d="M 46.965625 7.2 
L 404.085625 7.2 
" style="fill: none; stroke: #000000; stroke-width: 0.8; stroke-linejoin: miter; stroke-linecap: square"/>
   </g>
   <g id="legend_1">
    <g id="patch_7">
     <path d="M 227.391875 117.2365 
L 397.085625 117.2365 
Q 399.085625 117.2365 399.085625 115.2365 
L 399.085625 42.0115 
Q 399.085625 40.0115 397.085625 40.0115 
L 227.391875 40.0115 
Q 225.391875 40.0115 225.391875 42.0115 
L 225.391875 115.2365 
Q 225.391875 117.2365 227.391875 117.2365 
z
" style="fill: #ffffff; opacity: 0.8; stroke: #cccccc; stroke-linejoin: miter"/>
    </g>
    <g id="line2d_16">
     <path d="M 229.391875 48.109938 
L 239.391875 48.109938 
L 249.391875 48.109938 
" style="fill: none; stroke: #2ca02c; stroke-linecap: square"/>
    </g>
    <g id="text_16">
     <text style="font: 10px 'DejaVu Sans', 'Bitstream Vera Sans', 'Computer Modern Sans Serif', 'Lucida Grande', 'Verdana', 'Geneva', 'Lucid', 'Arial', 'Helvetica', 'Avant Garde', sans-serif; text-anchor: start" x="257.391875" y="51.609938" transform="rotate(-0 257.391875 51.609938)">1 CMOS Switch</text>
    </g>
    <g id="line2d_17">
     <path d="M 229.391875 62.788063 
L 239.391875 62.788063 
L 249.391875 62.788063 
" style="fill: none; stroke: #d62728; stroke-linecap: square"/>
    </g>
    <g id="text_17">
     <text style="font: 10px 'DejaVu Sans', 'Bitstream Vera Sans', 'Computer Modern Sans Serif', 'Lucida Grande', 'Verdana', 'Geneva', 'Lucid', 'Arial', 'Helvetica', 'Avant Garde', sans-serif; text-anchor: start" x="257.391875" y="66.288063" transform="rotate(-0 257.391875 66.288063)">2 CMOS Switches</text>
    </g>
    <g id="line2d_18">
     <path d="M 229.391875 77.466188 
L 249.391875 77.466188 
" style="fill: none; stroke-dasharray: 1,1.65; stroke-dashoffset: 0; stroke: #808080"/>
    </g>
    <g id="text_18">
     <text style="font: 10px 'DejaVu Sans', 'Bitstream Vera Sans', 'Computer Modern Sans Serif', 'Lucida Grande', 'Verdana', 'Geneva', 'Lucid', 'Arial', 'Helvetica', 'Avant Garde', sans-serif; text-anchor: start" x="257.391875" y="80.966188" transform="rotate(-0 257.391875 80.966188)">Computation time $n_s=1$</text>
    </g>
    <g id="line2d_19">
     <path d="M 229.391875 92.422438 
L 249.391875 92.422438 
" style="fill: none; stroke-dasharray: 6.4,1.6,1,1.6; stroke-dashoffset: 0; stroke: #808080"/>
    </g>
    <g id="text_19">
     <text style="font: 10px 'DejaVu Sans', 'Bitstream Vera Sans', 'Computer Modern Sans Serif', 'Lucida Grande', 'Verdana', 'Geneva', 'Lucid', 'Arial', 'Helvetica', 'Avant Garde', sans-serif; text-anchor: start" x="257.391875" y="95.922438" transform="rotate(-0 257.391875 95.922438)">Computation time $n_s=2$</text>
    </g>
    <g id="line2d_20">
     <path d="M 229.391875 107.378688 
L 249.391875 107.378688 
" style="fill: none; stroke-dasharray: 3.7,1.6; stroke-dashoffset: 0; stroke: #808080"/>
    </g>
    <g id="text_20">
     <text style="font: 10px 'DejaVu Sans', 'Bitstream Vera Sans', 'Computer Modern Sans Serif', 'Lucida Grande', 'Verdana', 'Geneva', 'Lucid', 'Arial', 'Helvetica', 'Avant Garde', sans-serif; text-anchor: start" x="257.391875" y="110.878688" transform="rotate(-0 257.391875 110.878688)">Computation time $n_s=4$</text>
    </g>
   </g>
  </g>
 </g>
 <defs>
  <clipPath id="p1625a7aebd">
   <rect x="46.965625" y="7.2" width="357.12" height="142.848"/>
  </clipPath>
 </defs>
</svg>
