<?xml version="1.0" encoding="UTF-8" standalone="no"?>
<svg
   width="1024"
   height="1024"
   version="1.1"
   id="svg6525"
   sodipodi:docname="memristor.svg"
   inkscape:version="1.3 (0e150ed6c4, 2023-07-21)"
   xmlns:inkscape="http://www.inkscape.org/namespaces/inkscape"
   xmlns:sodipodi="http://sodipodi.sourceforge.net/DTD/sodipodi-0.dtd"
   xmlns="http://www.w3.org/2000/svg"
   xmlns:svg="http://www.w3.org/2000/svg">
  <defs
     id="defs6529" />
  <sodipodi:namedview
     id="namedview6527"
     pagecolor="#ffffff"
     bordercolor="#000000"
     borderopacity="0.25"
     inkscape:showpageshadow="2"
     inkscape:pageopacity="0.0"
     inkscape:pagecheckerboard="0"
     inkscape:deskcolor="#d1d1d1"
     showgrid="false"
     inkscape:zoom="0.579358"
     inkscape:cx="397.85418"
     inkscape:cy="459.99192"
     inkscape:window-width="1080"
     inkscape:window-height="720"
     inkscape:window-x="0"
     inkscape:window-y="0"
     inkscape:window-maximized="0"
     inkscape:current-layer="svg6525" />
  <g
     stroke="#000"
     stroke-width="5"
     stroke-linecap="round"
     stroke-linejoin="round"
     id="g6449">
    <path
       d="M 512,512 896,128 v 320 h 48 v 32 h -96 v 32 h 96 v 32 h -96 v 32 h 48 v 320 z"
       fill="#c3ffc3"
       id="path6425"
       style="display:inline" />
    <path
       d="M512 512 896 896H592a20 20 0 0 0-40 0 20 20 0 0 0-40 0 20 20 0 0 0-40 0 20 20 0 0 0-40 0H128Z"
       fill="#C3C3FF"
       id="path6427" />
    <path
       d="M512 512 128 128H896Z"
       fill="#FFFFC3"
       id="path6429" />
    <path
       d="M 512,512 128,128 v 288 l -32,16 l 64,32 l -64,32 l 64,32 l -64,32 l 64,32 l -32,16 v 288 z"
       fill="#FFC3C3"
       id="path338"
       style="display:inline" />
    <g
       fill="#FFF"
       id="g6445">
      <circle
         cx="128"
         cy="128"
         r="80"
         id="circle6433" />
      <circle
         cx="896"
         cy="128"
         r="80"
         id="circle6435" />
      <circle
         cx="128"
         cy="896"
         r="80"
         id="circle6437" />
      <circle
         cx="896"
         cy="896"
         r="80"
         id="circle6439" />
      <path
         d="M496 64V192h32V64"
         stroke="none"
         id="path6443" />
    </g>
    <path
       d="M496 64V192m32 0V64"
       fill="none"
       id="path6447" />
  </g>
  <g
     font-family="'Liberation Sans'"
     font-size="40px"
     text-anchor="middle"
     id="g6523">
    <text
       x="950.34998"
       y="-22.629999"
       transform="rotate(45)"
       id="text6457"
       text-anchor="middle">$d\phi = v\cdot dt$</text>
    <text
       x="720"
       y="464"
       id="text6467"
       text-anchor="middle">Memristor\\$d\phi =M\cdot dq$</text>
    <text
       x="512"
       y="720"
       id="text6477">Inductor\\$d\phi =L\cdot di$</text>
    <text
       x="512"
       y="288"
       id="text6487">Capacitor\\$dq=C\cdot dv$</text>
    <text
       x="-226.27"
       y="701.45001"
       transform="rotate(-45)"
       id="text6495"
       text-anchor="middle">$dq = i\cdot dt$</text>
    <text
       x="288"
       y="464"
       id="text6505"
       text-anchor="middle">Resistor\\$dv=R\cdot di$</text>
    <text
       x="128"
       y="120"
       id="text6509">\scriptsize voltage\\$v$</text>
    <text
       x="896"
       y="120"
       id="text6513">\scriptsize charge\\$q$</text>
    <text
       y="890"
       x="128"
       id="text6517">\scriptsize current\\$i$</text>
    <text
       x="896"
       y="890"
       id="text6521"
       text-align="center">\scriptsize flux\\$\phi$</text>
  </g>
</svg>
