<?xml version="1.0" encoding="utf-8" standalone="no"?>
<!DOCTYPE svg PUBLIC "-//W3C//DTD SVG 1.1//EN"
  "http://www.w3.org/Graphics/SVG/1.1/DTD/svg11.dtd">
<svg xmlns:xlink="http://www.w3.org/1999/xlink" width="408.10125pt" height="399.57225pt" viewBox="0 0 408.10125 399.57225" xmlns="http://www.w3.org/2000/svg" version="1.1">
 <metadata>
  <rdf:RDF xmlns:dc="http://purl.org/dc/elements/1.1/" xmlns:cc="http://creativecommons.org/ns#" xmlns:rdf="http://www.w3.org/1999/02/22-rdf-syntax-ns#">
   <cc:Work>
    <dc:type rdf:resource="http://purl.org/dc/dcmitype/StillImage"/>
    <dc:date>2023-10-23T15:53:22.967883</dc:date>
    <dc:format>image/svg+xml</dc:format>
    <dc:creator>
     <cc:Agent>
      <dc:title>Matplotlib v3.8.0, https://matplotlib.org/</dc:title>
     </cc:Agent>
    </dc:creator>
   </cc:Work>
  </rdf:RDF>
 </metadata>
 <defs>
  <style type="text/css">*{stroke-linejoin: round; stroke-linecap: butt}</style>
 </defs>
 <g id="figure_1">
  <g id="patch_1">
   <path d="M 0 399.57225 
L 408.10125 399.57225 
L 408.10125 0 
L 0 0 
z
" style="fill: #ffffff"/>
  </g>
  <g id="axes_1">
   <g id="patch_2">
    <path d="M 43.78125 184.608 
L 400.90125 184.608 
L 400.90125 7.2 
L 43.78125 7.2 
z
" style="fill: #ffffff"/>
   </g>
   <g id="matplotlib.axis_1">
    <g id="xtick_1">
     <g id="line2d_1">
      <defs>
       <path id="m127c164c6c" d="M 0 0 
L 0 3.5 
" style="stroke: #000000; stroke-width: 0.8"/>
      </defs>
      <g>
       <use xlink:href="#m127c164c6c" x="60.013977" y="184.608" style="stroke: #000000; stroke-width: 0.8"/>
      </g>
     </g>
    </g>
    <g id="xtick_2">
     <g id="line2d_2">
      <g>
       <use xlink:href="#m127c164c6c" x="125.009882" y="184.608" style="stroke: #000000; stroke-width: 0.8"/>
      </g>
     </g>
    </g>
    <g id="xtick_3">
     <g id="line2d_3">
      <g>
       <use xlink:href="#m127c164c6c" x="190.005787" y="184.608" style="stroke: #000000; stroke-width: 0.8"/>
      </g>
     </g>
    </g>
    <g id="xtick_4">
     <g id="line2d_4">
      <g>
       <use xlink:href="#m127c164c6c" x="255.001692" y="184.608" style="stroke: #000000; stroke-width: 0.8"/>
      </g>
     </g>
    </g>
    <g id="xtick_5">
     <g id="line2d_5">
      <g>
       <use xlink:href="#m127c164c6c" x="319.997597" y="184.608" style="stroke: #000000; stroke-width: 0.8"/>
      </g>
     </g>
    </g>
    <g id="xtick_6">
     <g id="line2d_6">
      <g>
       <use xlink:href="#m127c164c6c" x="384.993502" y="184.608" style="stroke: #000000; stroke-width: 0.8"/>
      </g>
     </g>
    </g>
   </g>
   <g id="matplotlib.axis_2">
    <g id="ytick_1">
     <g id="line2d_7">
      <defs>
       <path id="m26d981ba9e" d="M 0 0 
L -3.5 0 
" style="stroke: #000000; stroke-width: 0.8"/>
      </defs>
      <g>
       <use xlink:href="#m26d981ba9e" x="43.78125" y="176.544" style="stroke: #000000; stroke-width: 0.8"/>
      </g>
     </g>
     <g id="text_1">
      <text style="font: 10px 'DejaVu Sans', 'Bitstream Vera Sans', 'Computer Modern Sans Serif', 'Lucida Grande', 'Verdana', 'Geneva', 'Lucid', 'Arial', 'Helvetica', 'Avant Garde', sans-serif; text-anchor: end" x="36.78125" y="180.343219" transform="rotate(-0 36.78125 180.343219)">0.0</text>
     </g>
    </g>
    <g id="ytick_2">
     <g id="line2d_8">
      <g>
       <use xlink:href="#m26d981ba9e" x="43.78125" y="141.310486" style="stroke: #000000; stroke-width: 0.8"/>
      </g>
     </g>
     <g id="text_2">
      <text style="font: 10px 'DejaVu Sans', 'Bitstream Vera Sans', 'Computer Modern Sans Serif', 'Lucida Grande', 'Verdana', 'Geneva', 'Lucid', 'Arial', 'Helvetica', 'Avant Garde', sans-serif; text-anchor: end" x="36.78125" y="145.109705" transform="rotate(-0 36.78125 145.109705)">0.5</text>
     </g>
    </g>
    <g id="ytick_3">
     <g id="line2d_9">
      <g>
       <use xlink:href="#m26d981ba9e" x="43.78125" y="106.076972" style="stroke: #000000; stroke-width: 0.8"/>
      </g>
     </g>
     <g id="text_3">
      <text style="font: 10px 'DejaVu Sans', 'Bitstream Vera Sans', 'Computer Modern Sans Serif', 'Lucida Grande', 'Verdana', 'Geneva', 'Lucid', 'Arial', 'Helvetica', 'Avant Garde', sans-serif; text-anchor: end" x="36.78125" y="109.876191" transform="rotate(-0 36.78125 109.876191)">1.0</text>
     </g>
    </g>
    <g id="ytick_4">
     <g id="line2d_10">
      <g>
       <use xlink:href="#m26d981ba9e" x="43.78125" y="70.843459" style="stroke: #000000; stroke-width: 0.8"/>
      </g>
     </g>
     <g id="text_4">
      <text style="font: 10px 'DejaVu Sans', 'Bitstream Vera Sans', 'Computer Modern Sans Serif', 'Lucida Grande', 'Verdana', 'Geneva', 'Lucid', 'Arial', 'Helvetica', 'Avant Garde', sans-serif; text-anchor: end" x="36.78125" y="74.642677" transform="rotate(-0 36.78125 74.642677)">1.5</text>
     </g>
    </g>
    <g id="ytick_5">
     <g id="line2d_11">
      <g>
       <use xlink:href="#m26d981ba9e" x="43.78125" y="35.609945" style="stroke: #000000; stroke-width: 0.8"/>
      </g>
     </g>
     <g id="text_5">
      <text style="font: 10px 'DejaVu Sans', 'Bitstream Vera Sans', 'Computer Modern Sans Serif', 'Lucida Grande', 'Verdana', 'Geneva', 'Lucid', 'Arial', 'Helvetica', 'Avant Garde', sans-serif; text-anchor: end" x="36.78125" y="39.409164" transform="rotate(-0 36.78125 39.409164)">2.0</text>
     </g>
    </g>
    <g id="text_6">
     <text style="font: 10px 'DejaVu Sans', 'Bitstream Vera Sans', 'Computer Modern Sans Serif', 'Lucida Grande', 'Verdana', 'Geneva', 'Lucid', 'Arial', 'Helvetica', 'Avant Garde', sans-serif; text-anchor: middle" x="14.798438" y="95.904" transform="rotate(-90 14.798438 95.904)">Current (nA)</text>
    </g>
   </g>
   <g id="line2d_12">
    <path d="M 60.013977 176.544 
L 125.009882 176.534135 
L 189.680808 78.373565 
L 190.005787 176.544 
L 384.668523 176.544 
L 384.668523 176.544 
" clip-path="url(#pd7b0d1c165)" style="fill: none; stroke: #ff4500; stroke-width: 1.5; stroke-linecap: square"/>
   </g>
   <g id="line2d_13">
    <path d="M 60.013977 176.544 
L 125.009882 176.534135 
L 189.680808 78.373565 
L 190.005787 176.544 
L 384.668523 176.544 
L 384.668523 176.544 
" clip-path="url(#pd7b0d1c165)" style="fill: none; stroke-dasharray: 5.55,2.4; stroke-dashoffset: 0; stroke: #c71585; stroke-width: 1.5"/>
   </g>
   <g id="line2d_14">
    <path d="M 60.013977 176.544 
L 125.009882 176.527793 
L 189.680808 15.264 
L 190.005787 176.544 
L 384.668523 176.544 
L 384.668523 176.544 
" clip-path="url(#pd7b0d1c165)" style="fill: none; stroke-dasharray: 9.6,2.4,1.5,2.4; stroke-dashoffset: 0; stroke: #4682b4; stroke-width: 1.5"/>
   </g>
   <g id="line2d_15">
    <path d="M 60.013977 176.544 
L 125.009882 176.527793 
L 189.680808 15.264 
L 190.005787 176.544 
L 384.668523 176.544 
L 384.668523 176.544 
" clip-path="url(#pd7b0d1c165)" style="fill: none; stroke-dasharray: 2.5,4.125; stroke-dashoffset: 0; stroke: #6b8e23; stroke-width: 2.5"/>
   </g>
   <g id="patch_3">
    <path d="M 43.78125 184.608 
L 43.78125 7.2 
" style="fill: none; stroke: #000000; stroke-width: 0.8; stroke-linejoin: miter; stroke-linecap: square"/>
   </g>
   <g id="patch_4">
    <path d="M 400.90125 184.608 
L 400.90125 7.2 
" style="fill: none; stroke: #000000; stroke-width: 0.8; stroke-linejoin: miter; stroke-linecap: square"/>
   </g>
   <g id="patch_5">
    <path d="M 43.78125 184.608 
L 400.90125 184.608 
" style="fill: none; stroke: #000000; stroke-width: 0.8; stroke-linejoin: miter; stroke-linecap: square"/>
   </g>
   <g id="patch_6">
    <path d="M 43.78125 7.2 
L 400.90125 7.2 
" style="fill: none; stroke: #000000; stroke-width: 0.8; stroke-linejoin: miter; stroke-linecap: square"/>
   </g>
   <g id="legend_1">
    <g id="patch_7">
     <path d="M 329.737188 73.9125 
L 393.90125 73.9125 
Q 395.90125 73.9125 395.90125 71.9125 
L 395.90125 14.2 
Q 395.90125 12.2 393.90125 12.2 
L 329.737188 12.2 
Q 327.737188 12.2 327.737188 14.2 
L 327.737188 71.9125 
Q 327.737188 73.9125 329.737188 73.9125 
z
" style="fill: #ffffff; opacity: 0.8; stroke: #cccccc; stroke-linejoin: miter"/>
    </g>
    <g id="line2d_16">
     <path d="M 331.737188 20.298437 
L 341.737188 20.298437 
L 351.737188 20.298437 
" style="fill: none; stroke: #ff4500; stroke-width: 1.5; stroke-linecap: square"/>
    </g>
    <g id="text_7">
     <text style="font: 10px 'DejaVu Sans', 'Bitstream Vera Sans', 'Computer Modern Sans Serif', 'Lucida Grande', 'Verdana', 'Geneva', 'Lucid', 'Arial', 'Helvetica', 'Avant Garde', sans-serif; text-anchor: start" x="359.737188" y="23.798437" transform="rotate(-0 359.737188 23.798437)">PLML2</text>
    </g>
    <g id="line2d_17">
     <path d="M 331.737188 34.976562 
L 341.737188 34.976562 
L 351.737188 34.976562 
" style="fill: none; stroke-dasharray: 5.55,2.4; stroke-dashoffset: 0; stroke: #c71585; stroke-width: 1.5"/>
    </g>
    <g id="text_8">
     <text style="font: 10px 'DejaVu Sans', 'Bitstream Vera Sans', 'Computer Modern Sans Serif', 'Lucida Grande', 'Verdana', 'Geneva', 'Lucid', 'Arial', 'Helvetica', 'Avant Garde', sans-serif; text-anchor: start" x="359.737188" y="38.476562" transform="rotate(-0 359.737188 38.476562)">PLMR</text>
    </g>
    <g id="line2d_18">
     <path d="M 331.737188 49.654687 
L 341.737188 49.654687 
L 351.737188 49.654687 
" style="fill: none; stroke-dasharray: 9.6,2.4,1.5,2.4; stroke-dashoffset: 0; stroke: #4682b4; stroke-width: 1.5"/>
    </g>
    <g id="text_9">
     <text style="font: 10px 'DejaVu Sans', 'Bitstream Vera Sans', 'Computer Modern Sans Serif', 'Lucida Grande', 'Verdana', 'Geneva', 'Lucid', 'Arial', 'Helvetica', 'Avant Garde', sans-serif; text-anchor: start" x="359.737188" y="53.154687" transform="rotate(-0 359.737188 53.154687)">AVBL</text>
    </g>
    <g id="line2d_19">
     <path d="M 331.737188 64.332812 
L 341.737188 64.332812 
L 351.737188 64.332812 
" style="fill: none; stroke-dasharray: 2.5,4.125; stroke-dashoffset: 0; stroke: #6b8e23; stroke-width: 2.5"/>
    </g>
    <g id="text_10">
     <text style="font: 10px 'DejaVu Sans', 'Bitstream Vera Sans', 'Computer Modern Sans Serif', 'Lucida Grande', 'Verdana', 'Geneva', 'Lucid', 'Arial', 'Helvetica', 'Avant Garde', sans-serif; text-anchor: start" x="359.737188" y="67.832812" transform="rotate(-0 359.737188 67.832812)">AVBR</text>
    </g>
   </g>
  </g>
  <g id="axes_2">
   <g id="patch_8">
    <path d="M 43.78125 362.016 
L 400.90125 362.016 
L 400.90125 184.608 
L 43.78125 184.608 
z
" style="fill: #ffffff"/>
   </g>
   <g id="matplotlib.axis_3">
    <g id="xtick_7">
     <g id="line2d_20">
      <g>
       <use xlink:href="#m127c164c6c" x="60.013977" y="362.016" style="stroke: #000000; stroke-width: 0.8"/>
      </g>
     </g>
     <g id="text_11">
      <text style="font: 10px 'DejaVu Sans', 'Bitstream Vera Sans', 'Computer Modern Sans Serif', 'Lucida Grande', 'Verdana', 'Geneva', 'Lucid', 'Arial', 'Helvetica', 'Avant Garde', sans-serif; text-anchor: middle" x="60.013977" y="376.614437" transform="rotate(-0 60.013977 376.614437)">0</text>
     </g>
    </g>
    <g id="xtick_8">
     <g id="line2d_21">
      <g>
       <use xlink:href="#m127c164c6c" x="125.009882" y="362.016" style="stroke: #000000; stroke-width: 0.8"/>
      </g>
     </g>
     <g id="text_12">
      <text style="font: 10px 'DejaVu Sans', 'Bitstream Vera Sans', 'Computer Modern Sans Serif', 'Lucida Grande', 'Verdana', 'Geneva', 'Lucid', 'Arial', 'Helvetica', 'Avant Garde', sans-serif; text-anchor: middle" x="125.009882" y="376.614437" transform="rotate(-0 125.009882 376.614437)">100</text>
     </g>
    </g>
    <g id="xtick_9">
     <g id="line2d_22">
      <g>
       <use xlink:href="#m127c164c6c" x="190.005787" y="362.016" style="stroke: #000000; stroke-width: 0.8"/>
      </g>
     </g>
     <g id="text_13">
      <text style="font: 10px 'DejaVu Sans', 'Bitstream Vera Sans', 'Computer Modern Sans Serif', 'Lucida Grande', 'Verdana', 'Geneva', 'Lucid', 'Arial', 'Helvetica', 'Avant Garde', sans-serif; text-anchor: middle" x="190.005787" y="376.614437" transform="rotate(-0 190.005787 376.614437)">200</text>
     </g>
    </g>
    <g id="xtick_10">
     <g id="line2d_23">
      <g>
       <use xlink:href="#m127c164c6c" x="255.001692" y="362.016" style="stroke: #000000; stroke-width: 0.8"/>
      </g>
     </g>
     <g id="text_14">
      <text style="font: 10px 'DejaVu Sans', 'Bitstream Vera Sans', 'Computer Modern Sans Serif', 'Lucida Grande', 'Verdana', 'Geneva', 'Lucid', 'Arial', 'Helvetica', 'Avant Garde', sans-serif; text-anchor: middle" x="255.001692" y="376.614437" transform="rotate(-0 255.001692 376.614437)">300</text>
     </g>
    </g>
    <g id="xtick_11">
     <g id="line2d_24">
      <g>
       <use xlink:href="#m127c164c6c" x="319.997597" y="362.016" style="stroke: #000000; stroke-width: 0.8"/>
      </g>
     </g>
     <g id="text_15">
      <text style="font: 10px 'DejaVu Sans', 'Bitstream Vera Sans', 'Computer Modern Sans Serif', 'Lucida Grande', 'Verdana', 'Geneva', 'Lucid', 'Arial', 'Helvetica', 'Avant Garde', sans-serif; text-anchor: middle" x="319.997597" y="376.614437" transform="rotate(-0 319.997597 376.614437)">400</text>
     </g>
    </g>
    <g id="xtick_12">
     <g id="line2d_25">
      <g>
       <use xlink:href="#m127c164c6c" x="384.993502" y="362.016" style="stroke: #000000; stroke-width: 0.8"/>
      </g>
     </g>
     <g id="text_16">
      <text style="font: 10px 'DejaVu Sans', 'Bitstream Vera Sans', 'Computer Modern Sans Serif', 'Lucida Grande', 'Verdana', 'Geneva', 'Lucid', 'Arial', 'Helvetica', 'Avant Garde', sans-serif; text-anchor: middle" x="384.993502" y="376.614437" transform="rotate(-0 384.993502 376.614437)">500</text>
     </g>
    </g>
    <g id="text_17">
     <text style="font: 10px 'DejaVu Sans', 'Bitstream Vera Sans', 'Computer Modern Sans Serif', 'Lucida Grande', 'Verdana', 'Geneva', 'Lucid', 'Arial', 'Helvetica', 'Avant Garde', sans-serif; text-anchor: middle" x="222.34125" y="390.292562" transform="rotate(-0 222.34125 390.292562)">Time (ms)</text>
    </g>
   </g>
   <g id="matplotlib.axis_4">
    <g id="ytick_6">
     <g id="line2d_26">
      <g>
       <use xlink:href="#m26d981ba9e" x="43.78125" y="343.912985" style="stroke: #000000; stroke-width: 0.8"/>
      </g>
     </g>
     <g id="text_18">
      <text style="font: 10px 'DejaVu Sans', 'Bitstream Vera Sans', 'Computer Modern Sans Serif', 'Lucida Grande', 'Verdana', 'Geneva', 'Lucid', 'Arial', 'Helvetica', 'Avant Garde', sans-serif; text-anchor: end" x="36.78125" y="347.712204" transform="rotate(-0 36.78125 347.712204)">0.0</text>
     </g>
    </g>
    <g id="ytick_7">
     <g id="line2d_27">
      <g>
       <use xlink:href="#m26d981ba9e" x="43.78125" y="313.023709" style="stroke: #000000; stroke-width: 0.8"/>
      </g>
     </g>
     <g id="text_19">
      <text style="font: 10px 'DejaVu Sans', 'Bitstream Vera Sans', 'Computer Modern Sans Serif', 'Lucida Grande', 'Verdana', 'Geneva', 'Lucid', 'Arial', 'Helvetica', 'Avant Garde', sans-serif; text-anchor: end" x="36.78125" y="316.822928" transform="rotate(-0 36.78125 316.822928)">0.2</text>
     </g>
    </g>
    <g id="ytick_8">
     <g id="line2d_28">
      <g>
       <use xlink:href="#m26d981ba9e" x="43.78125" y="282.134433" style="stroke: #000000; stroke-width: 0.8"/>
      </g>
     </g>
     <g id="text_20">
      <text style="font: 10px 'DejaVu Sans', 'Bitstream Vera Sans', 'Computer Modern Sans Serif', 'Lucida Grande', 'Verdana', 'Geneva', 'Lucid', 'Arial', 'Helvetica', 'Avant Garde', sans-serif; text-anchor: end" x="36.78125" y="285.933652" transform="rotate(-0 36.78125 285.933652)">0.4</text>
     </g>
    </g>
    <g id="ytick_9">
     <g id="line2d_29">
      <g>
       <use xlink:href="#m26d981ba9e" x="43.78125" y="251.245157" style="stroke: #000000; stroke-width: 0.8"/>
      </g>
     </g>
     <g id="text_21">
      <text style="font: 10px 'DejaVu Sans', 'Bitstream Vera Sans', 'Computer Modern Sans Serif', 'Lucida Grande', 'Verdana', 'Geneva', 'Lucid', 'Arial', 'Helvetica', 'Avant Garde', sans-serif; text-anchor: end" x="36.78125" y="255.044375" transform="rotate(-0 36.78125 255.044375)">0.6</text>
     </g>
    </g>
    <g id="ytick_10">
     <g id="line2d_30">
      <g>
       <use xlink:href="#m26d981ba9e" x="43.78125" y="220.355881" style="stroke: #000000; stroke-width: 0.8"/>
      </g>
     </g>
     <g id="text_22">
      <text style="font: 10px 'DejaVu Sans', 'Bitstream Vera Sans', 'Computer Modern Sans Serif', 'Lucida Grande', 'Verdana', 'Geneva', 'Lucid', 'Arial', 'Helvetica', 'Avant Garde', sans-serif; text-anchor: end" x="36.78125" y="224.155099" transform="rotate(-0 36.78125 224.155099)">0.8</text>
     </g>
    </g>
    <g id="ytick_11">
     <g id="line2d_31">
      <g>
       <use xlink:href="#m26d981ba9e" x="43.78125" y="189.466604" style="stroke: #000000; stroke-width: 0.8"/>
      </g>
     </g>
     <g id="text_23">
      <text style="font: 10px 'DejaVu Sans', 'Bitstream Vera Sans', 'Computer Modern Sans Serif', 'Lucida Grande', 'Verdana', 'Geneva', 'Lucid', 'Arial', 'Helvetica', 'Avant Garde', sans-serif; text-anchor: end" x="36.78125" y="193.265823" transform="rotate(-0 36.78125 193.265823)">1.0</text>
     </g>
    </g>
    <g id="text_24">
     <text style="font: 10px 'DejaVu Sans', 'Bitstream Vera Sans', 'Computer Modern Sans Serif', 'Lucida Grande', 'Verdana', 'Geneva', 'Lucid', 'Arial', 'Helvetica', 'Avant Garde', sans-serif; text-anchor: middle" x="14.798438" y="273.312" transform="rotate(-90 14.798438 273.312)">Voltage (V)</text>
    </g>
   </g>
   <g id="line2d_32">
    <path d="M 60.013977 353.952 
L 126.3098 353.87294 
L 128.909637 353.477201 
L 131.834452 352.79379 
L 134.759268 351.880171 
L 137.684084 350.74769 
L 140.933879 349.259005 
L 144.508654 347.37234 
L 148.408408 345.051519 
L 152.633142 342.262743 
L 157.182855 338.974215 
L 162.707507 334.677041 
L 168.232159 330.117089 
L 174.73175 324.47336 
L 184.156156 315.931857 
L 190.005787 310.526064 
L 190.980726 315.572816 
L 191.630685 316.942848 
L 192.605623 318.166789 
L 197.155337 323.148071 
L 201.380071 327.49064 
L 204.954845 330.845947 
L 208.204641 333.609113 
L 211.454436 336.094472 
L 214.704231 338.311033 
L 217.954026 340.275248 
L 221.528801 342.168699 
L 225.103576 343.810389 
L 229.00333 345.34806 
L 233.228064 346.755444 
L 237.777777 348.01592 
L 242.65247 349.121981 
L 247.852143 350.074015 
L 253.701774 350.920375 
L 260.526344 351.674477 
L 268.325853 352.30653 
L 277.750259 352.838096 
L 289.449522 353.263066 
L 304.72356 353.581954 
L 326.822167 353.799975 
L 364.519792 353.918023 
L 384.668523 353.936639 
L 384.668523 353.936639 
" clip-path="url(#p23a18894a0)" style="fill: none; stroke: #ff4500; stroke-width: 1.5; stroke-linecap: square"/>
   </g>
   <g id="line2d_33">
    <path d="M 60.013977 353.952 
L 126.3098 353.856544 
L 127.609718 353.50121 
L 128.909637 352.862614 
L 130.209555 351.945669 
L 131.509473 350.762919 
L 133.13437 348.937203 
L 134.759268 346.762998 
L 136.709145 343.741348 
L 138.984002 339.747935 
L 141.258859 335.260088 
L 143.858695 329.625439 
L 146.78351 322.774867 
L 150.033306 314.603294 
L 151.333224 311.467384 
L 152.633142 308.281309 
L 154.907999 301.892249 
L 163.032487 277.993169 
L 169.857057 257.186431 
L 177.656565 232.597332 
L 188.38089 197.99606 
L 190.005787 192.672 
L 190.330767 193.442162 
L 190.980726 197.066478 
L 192.280644 206.807551 
L 196.505378 239.847014 
L 198.455255 253.101031 
L 200.405132 264.817503 
L 202.355009 275.114165 
L 204.304886 284.148954 
L 206.254764 292.077907 
L 208.204641 299.042358 
L 210.154518 305.166419 
L 212.104395 310.557849 
L 214.054272 315.309948 
L 216.004149 319.503461 
L 217.954026 323.20832 
L 219.903904 326.485209 
L 221.853781 329.386829 
L 224.128637 332.358583 
L 226.403494 334.94444 
L 228.678351 337.197862 
L 230.953207 339.164479 
L 233.553044 341.110624 
L 236.15288 342.782262 
L 239.077696 344.385983 
L 242.002511 345.743473 
L 245.252307 347.011875 
L 248.827081 348.167219 
L 252.726836 349.195649 
L 257.276549 350.153158 
L 262.476221 351.000805 
L 268.325853 351.719028 
L 275.150423 352.32905 
L 283.59989 352.8496 
L 294.324215 353.269497 
L 308.298334 353.580777 
L 328.772044 353.796054 
L 364.194813 353.915544 
L 384.668523 353.935984 
L 384.668523 353.935984 
" clip-path="url(#p23a18894a0)" style="fill: none; stroke-dasharray: 5.55,2.4; stroke-dashoffset: 0; stroke: #c71585; stroke-width: 1.5"/>
   </g>
   <g id="line2d_34">
    <path d="M 60.013977 353.952 
L 126.3098 353.850209 
L 127.934698 353.494692 
L 129.559596 352.914527 
L 131.184493 352.10814 
L 133.13437 350.850601 
L 135.084248 349.291806 
L 137.034125 347.42405 
L 139.308981 344.943791 
L 141.583838 342.117143 
L 144.833633 337.652249 
L 148.083429 332.547427 
L 151.658203 326.364309 
L 154.907999 320.35863 
L 159.132732 312.03238 
L 164.007425 301.886179 
L 169.532077 289.839856 
L 176.031668 275.088558 
L 177.981545 270.614046 
L 178.956483 269.049288 
L 179.931422 266.743218 
L 184.156156 256.270734 
L 190.005787 242.175262 
L 191.305705 248.789784 
L 201.70505 284.401042 
L 204.304886 292.356528 
L 206.904723 299.605268 
L 209.504559 306.135555 
L 211.779415 311.277183 
L 214.054272 315.912999 
L 216.329129 320.076735 
L 218.603985 323.805117 
L 220.878842 327.135645 
L 223.153699 330.105136 
L 225.428555 332.748812 
L 228.028392 335.413487 
L 230.628228 337.741124 
L 233.228064 339.772798 
L 235.8279 341.545277 
L 238.752716 343.270031 
L 241.677532 344.748774 
L 244.927327 346.146033 
L 248.502102 347.431564 
L 252.401856 348.585654 
L 256.62659 349.598472 
L 261.501283 350.523463 
L 267.025935 351.327998 
L 273.200546 351.997952 
L 280.675075 352.57665 
L 289.774501 353.047911 
L 301.473764 353.418496 
L 317.397761 353.686795 
L 342.096205 353.859144 
L 384.668523 353.935743 
L 384.668523 353.935743 
" clip-path="url(#p23a18894a0)" style="fill: none; stroke-dasharray: 9.6,2.4,1.5,2.4; stroke-dashoffset: 0; stroke: #4682b4; stroke-width: 1.5"/>
   </g>
   <g id="line2d_35">
    <path d="M 60.013977 353.952 
L 126.3098 353.854439 
L 128.259678 353.461315 
L 130.209555 352.841358 
L 132.484411 351.881134 
L 135.084248 350.531218 
L 138.009063 348.748785 
L 141.258859 346.502813 
L 145.158613 343.516626 
L 149.708326 339.715872 
L 154.583019 335.300097 
L 160.107671 329.9716 
L 166.282282 323.781409 
L 177.656565 311.911263 
L 190.005787 298.101362 
L 190.655746 302.643291 
L 191.305705 305.474586 
L 192.605623 310.004112 
L 194.230521 314.755408 
L 195.855419 318.74082 
L 197.480316 322.130223 
L 199.105214 325.048812 
L 201.055091 328.05928 
L 203.004968 330.643508 
L 204.954845 332.887271 
L 207.229702 335.158229 
L 209.504559 337.125644 
L 212.104395 339.07216 
L 214.704231 340.754517 
L 217.629047 342.388058 
L 220.878842 343.938679 
L 224.453617 345.381723 
L 228.353371 346.700891 
L 232.578105 347.887068 
L 237.127818 348.937155 
L 242.327491 349.907417 
L 248.177122 350.769282 
L 255.001692 351.539892 
L 262.801201 352.190704 
L 272.225607 352.744351 
L 283.92487 353.193817 
L 298.873928 353.532264 
L 319.997597 353.769114 
L 354.445427 353.904438 
L 384.668523 353.937332 
L 384.668523 353.937332 
" clip-path="url(#p23a18894a0)" style="fill: none; stroke-dasharray: 2.5,4.125; stroke-dashoffset: 0; stroke: #6b8e23; stroke-width: 2.5"/>
   </g>
   <g id="patch_9">
    <path d="M 43.78125 362.016 
L 43.78125 184.608 
" style="fill: none; stroke: #000000; stroke-width: 0.8; stroke-linejoin: miter; stroke-linecap: square"/>
   </g>
   <g id="patch_10">
    <path d="M 400.90125 362.016 
L 400.90125 184.608 
" style="fill: none; stroke: #000000; stroke-width: 0.8; stroke-linejoin: miter; stroke-linecap: square"/>
   </g>
   <g id="patch_11">
    <path d="M 43.78125 362.016 
L 400.90125 362.016 
" style="fill: none; stroke: #000000; stroke-width: 0.8; stroke-linejoin: miter; stroke-linecap: square"/>
   </g>
   <g id="patch_12">
    <path d="M 43.78125 184.608 
L 400.90125 184.608 
" style="fill: none; stroke: #000000; stroke-width: 0.8; stroke-linejoin: miter; stroke-linecap: square"/>
   </g>
   <g id="legend_2">
    <g id="patch_13">
     <path d="M 337.098125 251.3205 
L 393.90125 251.3205 
Q 395.90125 251.3205 395.90125 249.3205 
L 395.90125 191.608 
Q 395.90125 189.608 393.90125 189.608 
L 337.098125 189.608 
Q 335.098125 189.608 335.098125 191.608 
L 335.098125 249.3205 
Q 335.098125 251.3205 337.098125 251.3205 
z
" style="fill: #ffffff; opacity: 0.8; stroke: #cccccc; stroke-linejoin: miter"/>
    </g>
    <g id="line2d_36">
     <path d="M 339.098125 197.706437 
L 349.098125 197.706437 
L 359.098125 197.706437 
" style="fill: none; stroke: #ff4500; stroke-width: 1.5; stroke-linecap: square"/>
    </g>
    <g id="text_25">
     <text style="font: 10px 'DejaVu Sans', 'Bitstream Vera Sans', 'Computer Modern Sans Serif', 'Lucida Grande', 'Verdana', 'Geneva', 'Lucid', 'Arial', 'Helvetica', 'Avant Garde', sans-serif; text-anchor: start" x="367.098125" y="201.206437" transform="rotate(-0 367.098125 201.206437)">DB1</text>
    </g>
    <g id="line2d_37">
     <path d="M 339.098125 212.384562 
L 349.098125 212.384562 
L 359.098125 212.384562 
" style="fill: none; stroke-dasharray: 5.55,2.4; stroke-dashoffset: 0; stroke: #c71585; stroke-width: 1.5"/>
    </g>
    <g id="text_26">
     <text style="font: 10px 'DejaVu Sans', 'Bitstream Vera Sans', 'Computer Modern Sans Serif', 'Lucida Grande', 'Verdana', 'Geneva', 'Lucid', 'Arial', 'Helvetica', 'Avant Garde', sans-serif; text-anchor: start" x="367.098125" y="215.884562" transform="rotate(-0 367.098125 215.884562)">LUAL</text>
    </g>
    <g id="line2d_38">
     <path d="M 339.098125 227.062687 
L 349.098125 227.062687 
L 359.098125 227.062687 
" style="fill: none; stroke-dasharray: 9.6,2.4,1.5,2.4; stroke-dashoffset: 0; stroke: #4682b4; stroke-width: 1.5"/>
    </g>
    <g id="text_27">
     <text style="font: 10px 'DejaVu Sans', 'Bitstream Vera Sans', 'Computer Modern Sans Serif', 'Lucida Grande', 'Verdana', 'Geneva', 'Lucid', 'Arial', 'Helvetica', 'Avant Garde', sans-serif; text-anchor: start" x="367.098125" y="230.562687" transform="rotate(-0 367.098125 230.562687)">PVR</text>
    </g>
    <g id="line2d_39">
     <path d="M 339.098125 241.740812 
L 349.098125 241.740812 
L 359.098125 241.740812 
" style="fill: none; stroke-dasharray: 2.5,4.125; stroke-dashoffset: 0; stroke: #6b8e23; stroke-width: 2.5"/>
    </g>
    <g id="text_28">
     <text style="font: 10px 'DejaVu Sans', 'Bitstream Vera Sans', 'Computer Modern Sans Serif', 'Lucida Grande', 'Verdana', 'Geneva', 'Lucid', 'Arial', 'Helvetica', 'Avant Garde', sans-serif; text-anchor: start" x="367.098125" y="245.240812" transform="rotate(-0 367.098125 245.240812)">VB1</text>
    </g>
   </g>
  </g>
 </g>
 <defs>
  <clipPath id="pd7b0d1c165">
   <rect x="43.78125" y="7.2" width="357.12" height="177.408"/>
  </clipPath>
  <clipPath id="p23a18894a0">
   <rect x="43.78125" y="184.608" width="357.12" height="177.408"/>
  </clipPath>
 </defs>
</svg>
