<?xml version="1.0" encoding="utf-8" standalone="no"?>
<!DOCTYPE svg PUBLIC "-//W3C//DTD SVG 1.1//EN"
  "http://www.w3.org/Graphics/SVG/1.1/DTD/svg11.dtd">
<svg xmlns:xlink="http://www.w3.org/1999/xlink" width="408.10125pt" height="399.57225pt" viewBox="0 0 408.10125 399.57225" xmlns="http://www.w3.org/2000/svg" version="1.1">
 <metadata>
  <rdf:RDF xmlns:dc="http://purl.org/dc/elements/1.1/" xmlns:cc="http://creativecommons.org/ns#" xmlns:rdf="http://www.w3.org/1999/02/22-rdf-syntax-ns#">
   <cc:Work>
    <dc:type rdf:resource="http://purl.org/dc/dcmitype/StillImage"/>
    <dc:date>2023-10-25T12:41:08.516662</dc:date>
    <dc:format>image/svg+xml</dc:format>
    <dc:creator>
     <cc:Agent>
      <dc:title>Matplotlib v3.8.0, https://matplotlib.org/</dc:title>
     </cc:Agent>
    </dc:creator>
   </cc:Work>
  </rdf:RDF>
 </metadata>
 <defs>
  <style type="text/css">*{stroke-linejoin: round; stroke-linecap: butt}</style>
 </defs>
 <g id="figure_1">
  <g id="patch_1">
   <path d="M 0 399.57225 
L 408.10125 399.57225 
L 408.10125 0 
L 0 0 
z
" style="fill: #ffffff"/>
  </g>
  <g id="axes_1">
   <g id="patch_2">
    <path d="M 43.78125 184.608 
L 400.90125 184.608 
L 400.90125 7.2 
L 43.78125 7.2 
z
" style="fill: #ffffff"/>
   </g>
   <g id="matplotlib.axis_1">
    <g id="xtick_1">
     <g id="line2d_1">
      <defs>
       <path id="mb74276134a" d="M 0 0 
L 0 3.5 
" style="stroke: #000000; stroke-width: 0.8"/>
      </defs>
      <g>
       <use xlink:href="#mb74276134a" x="60.013977" y="184.608" style="stroke: #000000; stroke-width: 0.8"/>
      </g>
     </g>
    </g>
    <g id="xtick_2">
     <g id="line2d_2">
      <g>
       <use xlink:href="#mb74276134a" x="125.009882" y="184.608" style="stroke: #000000; stroke-width: 0.8"/>
      </g>
     </g>
    </g>
    <g id="xtick_3">
     <g id="line2d_3">
      <g>
       <use xlink:href="#mb74276134a" x="190.005787" y="184.608" style="stroke: #000000; stroke-width: 0.8"/>
      </g>
     </g>
    </g>
    <g id="xtick_4">
     <g id="line2d_4">
      <g>
       <use xlink:href="#mb74276134a" x="255.001692" y="184.608" style="stroke: #000000; stroke-width: 0.8"/>
      </g>
     </g>
    </g>
    <g id="xtick_5">
     <g id="line2d_5">
      <g>
       <use xlink:href="#mb74276134a" x="319.997597" y="184.608" style="stroke: #000000; stroke-width: 0.8"/>
      </g>
     </g>
    </g>
    <g id="xtick_6">
     <g id="line2d_6">
      <g>
       <use xlink:href="#mb74276134a" x="384.993502" y="184.608" style="stroke: #000000; stroke-width: 0.8"/>
      </g>
     </g>
    </g>
   </g>
   <g id="matplotlib.axis_2">
    <g id="ytick_1">
     <g id="line2d_7">
      <defs>
       <path id="m18138c90bb" d="M 0 0 
L -3.5 0 
" style="stroke: #000000; stroke-width: 0.8"/>
      </defs>
      <g>
       <use xlink:href="#m18138c90bb" x="43.78125" y="176.544" style="stroke: #000000; stroke-width: 0.8"/>
      </g>
     </g>
     <g id="text_1">
      <text style="font: 10px 'DejaVu Sans', 'Bitstream Vera Sans', 'Computer Modern Sans Serif', 'Lucida Grande', 'Verdana', 'Geneva', 'Lucid', 'Arial', 'Helvetica', 'Avant Garde', sans-serif; text-anchor: end" x="36.78125" y="180.343219" transform="rotate(-0 36.78125 180.343219)">0.0</text>
     </g>
    </g>
    <g id="ytick_2">
     <g id="line2d_8">
      <g>
       <use xlink:href="#m18138c90bb" x="43.78125" y="141.48313" style="stroke: #000000; stroke-width: 0.8"/>
      </g>
     </g>
     <g id="text_2">
      <text style="font: 10px 'DejaVu Sans', 'Bitstream Vera Sans', 'Computer Modern Sans Serif', 'Lucida Grande', 'Verdana', 'Geneva', 'Lucid', 'Arial', 'Helvetica', 'Avant Garde', sans-serif; text-anchor: end" x="36.78125" y="145.282349" transform="rotate(-0 36.78125 145.282349)">0.5</text>
     </g>
    </g>
    <g id="ytick_3">
     <g id="line2d_9">
      <g>
       <use xlink:href="#m18138c90bb" x="43.78125" y="106.422261" style="stroke: #000000; stroke-width: 0.8"/>
      </g>
     </g>
     <g id="text_3">
      <text style="font: 10px 'DejaVu Sans', 'Bitstream Vera Sans', 'Computer Modern Sans Serif', 'Lucida Grande', 'Verdana', 'Geneva', 'Lucid', 'Arial', 'Helvetica', 'Avant Garde', sans-serif; text-anchor: end" x="36.78125" y="110.22148" transform="rotate(-0 36.78125 110.22148)">1.0</text>
     </g>
    </g>
    <g id="ytick_4">
     <g id="line2d_10">
      <g>
       <use xlink:href="#m18138c90bb" x="43.78125" y="71.361391" style="stroke: #000000; stroke-width: 0.8"/>
      </g>
     </g>
     <g id="text_4">
      <text style="font: 10px 'DejaVu Sans', 'Bitstream Vera Sans', 'Computer Modern Sans Serif', 'Lucida Grande', 'Verdana', 'Geneva', 'Lucid', 'Arial', 'Helvetica', 'Avant Garde', sans-serif; text-anchor: end" x="36.78125" y="75.16061" transform="rotate(-0 36.78125 75.16061)">1.5</text>
     </g>
    </g>
    <g id="ytick_5">
     <g id="line2d_11">
      <g>
       <use xlink:href="#m18138c90bb" x="43.78125" y="36.300522" style="stroke: #000000; stroke-width: 0.8"/>
      </g>
     </g>
     <g id="text_5">
      <text style="font: 10px 'DejaVu Sans', 'Bitstream Vera Sans', 'Computer Modern Sans Serif', 'Lucida Grande', 'Verdana', 'Geneva', 'Lucid', 'Arial', 'Helvetica', 'Avant Garde', sans-serif; text-anchor: end" x="36.78125" y="40.09974" transform="rotate(-0 36.78125 40.09974)">2.0</text>
     </g>
    </g>
    <g id="text_6">
     <text style="font: 10px 'DejaVu Sans', 'Bitstream Vera Sans', 'Computer Modern Sans Serif', 'Lucida Grande', 'Verdana', 'Geneva', 'Lucid', 'Arial', 'Helvetica', 'Avant Garde', sans-serif; text-anchor: middle" x="14.798438" y="95.904" transform="rotate(-90 14.798438 95.904)">Current (nA)</text>
    </g>
   </g>
   <g id="line2d_12">
    <path d="M 60.013977 176.544 
L 124.684903 176.544 
L 125.009882 78.373565 
L 137.684084 78.373565 
L 138.009063 176.544 
L 384.668523 176.544 
L 384.668523 176.544 
" clip-path="url(#pe389b4b1c5)" style="fill: none; stroke: #ff4500; stroke-width: 1.5; stroke-linecap: square"/>
   </g>
   <g id="line2d_13">
    <path d="M 60.013977 176.544 
L 124.684903 176.544 
L 125.009882 78.373565 
L 254.676713 78.373565 
L 255.001692 176.544 
L 384.668523 176.544 
L 384.668523 176.544 
" clip-path="url(#pe389b4b1c5)" style="fill: none; stroke-dasharray: 5.55,2.4; stroke-dashoffset: 0; stroke: #c71585; stroke-width: 1.5"/>
   </g>
   <g id="line2d_14">
    <path d="M 60.013977 176.544 
L 124.684903 176.544 
L 125.009882 15.264 
L 157.182855 15.264 
L 157.507835 176.544 
L 189.680808 176.544 
L 190.005787 15.264 
L 222.17876 15.264 
L 222.50374 176.544 
L 254.676713 176.544 
L 255.001692 15.264 
L 287.174665 15.264 
L 287.499645 176.544 
L 384.668523 176.544 
L 384.668523 176.544 
" clip-path="url(#pe389b4b1c5)" style="fill: none; stroke-dasharray: 9.6,2.4,1.5,2.4; stroke-dashoffset: 0; stroke: #4682b4; stroke-width: 1.5"/>
   </g>
   <g id="line2d_15">
    <path d="M 60.013977 176.544 
L 125.009882 176.511744 
L 157.507835 15.264 
L 190.005787 176.511744 
L 222.50374 15.264 
L 255.001692 176.511744 
L 287.499645 15.264 
L 319.997597 176.544 
L 384.668523 176.544 
L 384.668523 176.544 
" clip-path="url(#pe389b4b1c5)" style="fill: none; stroke-dasharray: 2.5,4.125; stroke-dashoffset: 0; stroke: #6b8e23; stroke-width: 2.5"/>
   </g>
   <g id="patch_3">
    <path d="M 43.78125 184.608 
L 43.78125 7.2 
" style="fill: none; stroke: #000000; stroke-width: 0.8; stroke-linejoin: miter; stroke-linecap: square"/>
   </g>
   <g id="patch_4">
    <path d="M 400.90125 184.608 
L 400.90125 7.2 
" style="fill: none; stroke: #000000; stroke-width: 0.8; stroke-linejoin: miter; stroke-linecap: square"/>
   </g>
   <g id="patch_5">
    <path d="M 43.78125 184.608 
L 400.90125 184.608 
" style="fill: none; stroke: #000000; stroke-width: 0.8; stroke-linejoin: miter; stroke-linecap: square"/>
   </g>
   <g id="patch_6">
    <path d="M 43.78125 7.2 
L 400.90125 7.2 
" style="fill: none; stroke: #000000; stroke-width: 0.8; stroke-linejoin: miter; stroke-linecap: square"/>
   </g>
   <g id="legend_1">
    <g id="patch_7">
     <path d="M 329.737188 73.9125 
L 393.90125 73.9125 
Q 395.90125 73.9125 395.90125 71.9125 
L 395.90125 14.2 
Q 395.90125 12.2 393.90125 12.2 
L 329.737188 12.2 
Q 327.737188 12.2 327.737188 14.2 
L 327.737188 71.9125 
Q 327.737188 73.9125 329.737188 73.9125 
z
" style="fill: #ffffff; opacity: 0.8; stroke: #cccccc; stroke-linejoin: miter"/>
    </g>
    <g id="line2d_16">
     <path d="M 331.737188 20.298437 
L 341.737188 20.298437 
L 351.737188 20.298437 
" style="fill: none; stroke: #ff4500; stroke-width: 1.5; stroke-linecap: square"/>
    </g>
    <g id="text_7">
     <text style="font: 10px 'DejaVu Sans', 'Bitstream Vera Sans', 'Computer Modern Sans Serif', 'Lucida Grande', 'Verdana', 'Geneva', 'Lucid', 'Arial', 'Helvetica', 'Avant Garde', sans-serif; text-anchor: start" x="359.737188" y="23.798437" transform="rotate(-0 359.737188 23.798437)">PLML2</text>
    </g>
    <g id="line2d_17">
     <path d="M 331.737188 34.976562 
L 341.737188 34.976562 
L 351.737188 34.976562 
" style="fill: none; stroke-dasharray: 5.55,2.4; stroke-dashoffset: 0; stroke: #c71585; stroke-width: 1.5"/>
    </g>
    <g id="text_8">
     <text style="font: 10px 'DejaVu Sans', 'Bitstream Vera Sans', 'Computer Modern Sans Serif', 'Lucida Grande', 'Verdana', 'Geneva', 'Lucid', 'Arial', 'Helvetica', 'Avant Garde', sans-serif; text-anchor: start" x="359.737188" y="38.476562" transform="rotate(-0 359.737188 38.476562)">PLMR</text>
    </g>
    <g id="line2d_18">
     <path d="M 331.737188 49.654687 
L 341.737188 49.654687 
L 351.737188 49.654687 
" style="fill: none; stroke-dasharray: 9.6,2.4,1.5,2.4; stroke-dashoffset: 0; stroke: #4682b4; stroke-width: 1.5"/>
    </g>
    <g id="text_9">
     <text style="font: 10px 'DejaVu Sans', 'Bitstream Vera Sans', 'Computer Modern Sans Serif', 'Lucida Grande', 'Verdana', 'Geneva', 'Lucid', 'Arial', 'Helvetica', 'Avant Garde', sans-serif; text-anchor: start" x="359.737188" y="53.154687" transform="rotate(-0 359.737188 53.154687)">AVBL</text>
    </g>
    <g id="line2d_19">
     <path d="M 331.737188 64.332812 
L 341.737188 64.332812 
L 351.737188 64.332812 
" style="fill: none; stroke-dasharray: 2.5,4.125; stroke-dashoffset: 0; stroke: #6b8e23; stroke-width: 2.5"/>
    </g>
    <g id="text_10">
     <text style="font: 10px 'DejaVu Sans', 'Bitstream Vera Sans', 'Computer Modern Sans Serif', 'Lucida Grande', 'Verdana', 'Geneva', 'Lucid', 'Arial', 'Helvetica', 'Avant Garde', sans-serif; text-anchor: start" x="359.737188" y="67.832812" transform="rotate(-0 359.737188 67.832812)">AVBR</text>
    </g>
   </g>
  </g>
  <g id="axes_2">
   <g id="patch_8">
    <path d="M 43.78125 362.016 
L 400.90125 362.016 
L 400.90125 184.608 
L 43.78125 184.608 
z
" style="fill: #ffffff"/>
   </g>
   <g id="matplotlib.axis_3">
    <g id="xtick_7">
     <g id="line2d_20">
      <g>
       <use xlink:href="#mb74276134a" x="60.013977" y="362.016" style="stroke: #000000; stroke-width: 0.8"/>
      </g>
     </g>
     <g id="text_11">
      <text style="font: 10px 'DejaVu Sans', 'Bitstream Vera Sans', 'Computer Modern Sans Serif', 'Lucida Grande', 'Verdana', 'Geneva', 'Lucid', 'Arial', 'Helvetica', 'Avant Garde', sans-serif; text-anchor: middle" x="60.013977" y="376.614437" transform="rotate(-0 60.013977 376.614437)">0</text>
     </g>
    </g>
    <g id="xtick_8">
     <g id="line2d_21">
      <g>
       <use xlink:href="#mb74276134a" x="125.009882" y="362.016" style="stroke: #000000; stroke-width: 0.8"/>
      </g>
     </g>
     <g id="text_12">
      <text style="font: 10px 'DejaVu Sans', 'Bitstream Vera Sans', 'Computer Modern Sans Serif', 'Lucida Grande', 'Verdana', 'Geneva', 'Lucid', 'Arial', 'Helvetica', 'Avant Garde', sans-serif; text-anchor: middle" x="125.009882" y="376.614437" transform="rotate(-0 125.009882 376.614437)">100</text>
     </g>
    </g>
    <g id="xtick_9">
     <g id="line2d_22">
      <g>
       <use xlink:href="#mb74276134a" x="190.005787" y="362.016" style="stroke: #000000; stroke-width: 0.8"/>
      </g>
     </g>
     <g id="text_13">
      <text style="font: 10px 'DejaVu Sans', 'Bitstream Vera Sans', 'Computer Modern Sans Serif', 'Lucida Grande', 'Verdana', 'Geneva', 'Lucid', 'Arial', 'Helvetica', 'Avant Garde', sans-serif; text-anchor: middle" x="190.005787" y="376.614437" transform="rotate(-0 190.005787 376.614437)">200</text>
     </g>
    </g>
    <g id="xtick_10">
     <g id="line2d_23">
      <g>
       <use xlink:href="#mb74276134a" x="255.001692" y="362.016" style="stroke: #000000; stroke-width: 0.8"/>
      </g>
     </g>
     <g id="text_14">
      <text style="font: 10px 'DejaVu Sans', 'Bitstream Vera Sans', 'Computer Modern Sans Serif', 'Lucida Grande', 'Verdana', 'Geneva', 'Lucid', 'Arial', 'Helvetica', 'Avant Garde', sans-serif; text-anchor: middle" x="255.001692" y="376.614437" transform="rotate(-0 255.001692 376.614437)">300</text>
     </g>
    </g>
    <g id="xtick_11">
     <g id="line2d_24">
      <g>
       <use xlink:href="#mb74276134a" x="319.997597" y="362.016" style="stroke: #000000; stroke-width: 0.8"/>
      </g>
     </g>
     <g id="text_15">
      <text style="font: 10px 'DejaVu Sans', 'Bitstream Vera Sans', 'Computer Modern Sans Serif', 'Lucida Grande', 'Verdana', 'Geneva', 'Lucid', 'Arial', 'Helvetica', 'Avant Garde', sans-serif; text-anchor: middle" x="319.997597" y="376.614437" transform="rotate(-0 319.997597 376.614437)">400</text>
     </g>
    </g>
    <g id="xtick_12">
     <g id="line2d_25">
      <g>
       <use xlink:href="#mb74276134a" x="384.993502" y="362.016" style="stroke: #000000; stroke-width: 0.8"/>
      </g>
     </g>
     <g id="text_16">
      <text style="font: 10px 'DejaVu Sans', 'Bitstream Vera Sans', 'Computer Modern Sans Serif', 'Lucida Grande', 'Verdana', 'Geneva', 'Lucid', 'Arial', 'Helvetica', 'Avant Garde', sans-serif; text-anchor: middle" x="384.993502" y="376.614437" transform="rotate(-0 384.993502 376.614437)">500</text>
     </g>
    </g>
    <g id="text_17">
     <text style="font: 10px 'DejaVu Sans', 'Bitstream Vera Sans', 'Computer Modern Sans Serif', 'Lucida Grande', 'Verdana', 'Geneva', 'Lucid', 'Arial', 'Helvetica', 'Avant Garde', sans-serif; text-anchor: middle" x="222.34125" y="390.292562" transform="rotate(-0 222.34125 390.292562)">Time (ms)</text>
    </g>
   </g>
   <g id="matplotlib.axis_4">
    <g id="ytick_6">
     <g id="line2d_26">
      <g>
       <use xlink:href="#m18138c90bb" x="43.78125" y="341.542004" style="stroke: #000000; stroke-width: 0.8"/>
      </g>
     </g>
     <g id="text_18">
      <text style="font: 10px 'DejaVu Sans', 'Bitstream Vera Sans', 'Computer Modern Sans Serif', 'Lucida Grande', 'Verdana', 'Geneva', 'Lucid', 'Arial', 'Helvetica', 'Avant Garde', sans-serif; text-anchor: end" x="36.78125" y="345.341223" transform="rotate(-0 36.78125 345.341223)">0.0</text>
     </g>
    </g>
    <g id="ytick_7">
     <g id="line2d_27">
      <g>
       <use xlink:href="#m18138c90bb" x="43.78125" y="303.357402" style="stroke: #000000; stroke-width: 0.8"/>
      </g>
     </g>
     <g id="text_19">
      <text style="font: 10px 'DejaVu Sans', 'Bitstream Vera Sans', 'Computer Modern Sans Serif', 'Lucida Grande', 'Verdana', 'Geneva', 'Lucid', 'Arial', 'Helvetica', 'Avant Garde', sans-serif; text-anchor: end" x="36.78125" y="307.15662" transform="rotate(-0 36.78125 307.15662)">0.2</text>
     </g>
    </g>
    <g id="ytick_8">
     <g id="line2d_28">
      <g>
       <use xlink:href="#m18138c90bb" x="43.78125" y="265.172799" style="stroke: #000000; stroke-width: 0.8"/>
      </g>
     </g>
     <g id="text_20">
      <text style="font: 10px 'DejaVu Sans', 'Bitstream Vera Sans', 'Computer Modern Sans Serif', 'Lucida Grande', 'Verdana', 'Geneva', 'Lucid', 'Arial', 'Helvetica', 'Avant Garde', sans-serif; text-anchor: end" x="36.78125" y="268.972018" transform="rotate(-0 36.78125 268.972018)">0.4</text>
     </g>
    </g>
    <g id="ytick_9">
     <g id="line2d_29">
      <g>
       <use xlink:href="#m18138c90bb" x="43.78125" y="226.988197" style="stroke: #000000; stroke-width: 0.8"/>
      </g>
     </g>
     <g id="text_21">
      <text style="font: 10px 'DejaVu Sans', 'Bitstream Vera Sans', 'Computer Modern Sans Serif', 'Lucida Grande', 'Verdana', 'Geneva', 'Lucid', 'Arial', 'Helvetica', 'Avant Garde', sans-serif; text-anchor: end" x="36.78125" y="230.787416" transform="rotate(-0 36.78125 230.787416)">0.6</text>
     </g>
    </g>
    <g id="ytick_10">
     <g id="line2d_30">
      <g>
       <use xlink:href="#m18138c90bb" x="43.78125" y="188.803594" style="stroke: #000000; stroke-width: 0.8"/>
      </g>
     </g>
     <g id="text_22">
      <text style="font: 10px 'DejaVu Sans', 'Bitstream Vera Sans', 'Computer Modern Sans Serif', 'Lucida Grande', 'Verdana', 'Geneva', 'Lucid', 'Arial', 'Helvetica', 'Avant Garde', sans-serif; text-anchor: end" x="36.78125" y="192.602813" transform="rotate(-0 36.78125 192.602813)">0.8</text>
     </g>
    </g>
    <g id="text_23">
     <text style="font: 10px 'DejaVu Sans', 'Bitstream Vera Sans', 'Computer Modern Sans Serif', 'Lucida Grande', 'Verdana', 'Geneva', 'Lucid', 'Arial', 'Helvetica', 'Avant Garde', sans-serif; text-anchor: middle" x="14.798438" y="273.312" transform="rotate(-90 14.798438 273.312)">Voltage (V)</text>
    </g>
   </g>
   <g id="line2d_31">
    <path d="M 60.013977 353.952 
L 125.009882 353.952 
L 125.334862 353.639272 
L 126.3098 351.894106 
L 127.934698 349.885139 
L 130.534534 346.539107 
L 133.45935 342.362521 
L 137.684084 335.876396 
L 148.083429 319.685386 
L 154.583019 309.924924 
L 157.507835 305.655905 
L 157.832814 305.498661 
L 158.482773 305.83921 
L 159.132732 305.901222 
L 161.407589 305.859219 
L 163.032487 306.107686 
L 164.007425 306.419902 
L 168.557139 308.437691 
L 170.831995 309.868048 
L 173.431831 311.778443 
L 177.006606 314.761596 
L 180.581381 318.056393 
L 184.806115 322.258551 
L 190.330767 327.801174 
L 190.980726 327.220676 
L 191.630685 326.927201 
L 194.230521 326.07417 
L 196.180398 325.112313 
L 198.130275 323.904305 
L 200.730112 321.994199 
L 203.654927 319.532667 
L 206.904723 316.4581 
L 211.129456 312.138982 
L 216.979088 305.73004 
L 221.853781 300.17378 
L 222.50374 299.425037 
L 222.828719 299.360677 
L 223.478678 299.883577 
L 224.128637 300.122459 
L 226.728474 300.787559 
L 228.353371 301.444792 
L 230.303248 302.479824 
L 232.578105 303.965129 
L 235.177941 305.954623 
L 238.102757 308.482997 
L 241.677532 311.887861 
L 245.902266 316.235197 
L 251.101938 321.916913 
L 255.001692 326.344292 
L 255.326672 326.40744 
L 255.976631 325.896329 
L 256.62659 325.674232 
L 259.226426 325.114194 
L 261.176303 324.396291 
L 263.12618 323.454559 
L 265.401037 322.104075 
L 268.000873 320.311327 
L 271.250669 317.754295 
L 275.150423 314.36881 
L 279.700136 310.050895 
L 285.224788 304.49958 
L 287.499645 302.09521 
L 287.824624 302.060099 
L 288.474583 302.649936 
L 289.124542 302.959022 
L 291.724379 303.886736 
L 293.674256 304.88765 
L 295.624133 306.13936 
L 297.89899 307.856178 
L 300.498826 310.08549 
L 303.748621 313.17745 
L 307.648375 317.212895 
L 312.523068 322.596078 
L 319.022659 330.139011 
L 321.297515 332.684353 
L 323.897352 335.081441 
L 326.822167 337.462443 
L 329.746983 339.548128 
L 332.671799 341.371429 
L 335.921594 343.126741 
L 339.171389 344.6341 
L 342.746164 346.046373 
L 346.645918 347.33828 
L 350.870652 348.494193 
L 355.420365 349.50737 
L 360.620038 350.429953 
L 366.469669 351.233911 
L 373.294239 351.936088 
L 381.418727 352.533121 
L 384.668523 352.717471 
L 384.668523 352.717471 
" clip-path="url(#pb2ddb25bbf)" style="fill: none; stroke: #ff4500; stroke-width: 1.5; stroke-linecap: square"/>
   </g>
   <g id="line2d_32">
    <path d="M 60.013977 353.952 
L 125.009882 353.952 
L 125.334862 351.694843 
L 125.984821 344.703586 
L 127.934698 319.499236 
L 130.859514 282.294107 
L 132.809391 260.126819 
L 134.434288 243.688233 
L 137.684084 217.070395 
L 138.009063 214.463972 
L 138.334043 214.066336 
L 138.659022 214.554145 
L 139.308981 216.684139 
L 140.28392 221.062997 
L 145.483592 246.260748 
L 147.10849 252.504294 
L 148.733388 257.828716 
L 150.358285 262.412052 
L 151.983183 266.244526 
L 153.283101 268.853356 
L 154.583019 271.053323 
L 156.207917 273.343731 
L 157.832814 275.231788 
L 160.43265 277.989232 
L 162.382528 279.732684 
L 164.657384 281.457807 
L 166.932241 282.91348 
L 169.532077 284.326979 
L 172.781872 285.817152 
L 176.681627 287.33625 
L 181.55632 288.961196 
L 189.030849 291.183444 
L 190.980726 291.660465 
L 193.580562 291.874108 
L 196.830357 291.905171 
L 202.679989 291.645535 
L 206.579743 291.065263 
L 215.35419 289.490873 
L 223.803658 287.54617 
L 226.728474 287.357385 
L 230.303248 287.357652 
L 234.203003 287.583323 
L 238.752716 288.086367 
L 243.627409 288.853324 
L 249.152061 289.945442 
L 255.001692 291.300938 
L 255.651651 291.719117 
L 256.62659 292.856082 
L 258.251488 295.261025 
L 260.851324 299.604562 
L 264.751078 306.237132 
L 267.675894 310.695929 
L 270.27573 314.2588 
L 272.875566 317.414261 
L 275.150423 319.845188 
L 277.425279 321.969665 
L 279.700136 323.813119 
L 281.974993 325.391281 
L 284.24985 326.718782 
L 286.849686 327.964067 
L 289.124542 329.032599 
L 294.974174 332.018253 
L 300.823805 334.721323 
L 307.323396 337.473227 
L 315.447884 340.65821 
L 323.897352 343.752381 
L 329.097024 345.415605 
L 334.296696 346.84925 
L 339.821348 348.137928 
L 345.67098 349.268196 
L 351.845591 350.237131 
L 358.670161 351.085955 
L 366.469669 351.827836 
L 375.569096 352.458745 
L 384.668523 352.904507 
L 384.668523 352.904507 
" clip-path="url(#pb2ddb25bbf)" style="fill: none; stroke-dasharray: 5.55,2.4; stroke-dashoffset: 0; stroke: #c71585; stroke-width: 1.5"/>
   </g>
   <g id="line2d_33">
    <path d="M 60.013977 353.952 
L 125.009882 353.952 
L 126.3098 342.749205 
L 128.909637 325.771093 
L 134.109309 292.254866 
L 136.709145 277.103082 
L 138.659022 266.687143 
L 140.28392 259.438484 
L 142.233797 251.733652 
L 144.183674 244.879325 
L 146.133551 238.739184 
L 148.083429 233.221413 
L 148.733388 231.710506 
L 149.708326 229.649702 
L 151.333224 225.88092 
L 152.308162 223.985722 
L 154.907999 218.344406 
L 156.857876 214.736801 
L 157.507835 213.649838 
L 158.157794 213.12942 
L 159.132732 212.128888 
L 161.407589 209.666134 
L 163.357466 207.896182 
L 165.307343 206.405932 
L 167.257221 205.16121 
L 169.532077 203.982585 
L 171.806934 203.061038 
L 174.081791 202.385361 
L 177.006606 201.763124 
L 179.606442 201.436798 
L 182.531258 201.285644 
L 185.781053 201.340592 
L 189.355828 201.624132 
L 190.005787 201.697332 
L 190.655746 201.233045 
L 191.305705 200.914166 
L 193.580562 200.396325 
L 199.105214 199.086402 
L 200.080153 199.512409 
L 200.730112 199.397206 
L 205.604804 197.550847 
L 211.779415 195.702426 
L 212.754354 196.100977 
L 213.404313 195.94148 
L 216.654108 194.463622 
L 217.304067 194.794109 
L 217.954026 194.762282 
L 218.928965 194.282378 
L 220.878842 193.317148 
L 222.50374 192.672 
L 222.828719 192.764025 
L 223.478678 193.091305 
L 224.778596 193.178767 
L 230.628228 193.50431 
L 234.852962 194.042369 
L 239.727655 194.901255 
L 245.252307 196.111669 
L 251.751897 197.77963 
L 255.001692 198.691249 
L 255.976631 205.930477 
L 257.601528 215.040712 
L 262.801201 242.767602 
L 265.726017 256.128318 
L 268.000873 265.591952 
L 270.27573 274.105705 
L 272.550587 281.679182 
L 274.500464 287.477857 
L 276.450341 292.628407 
L 278.400218 297.208707 
L 280.350095 301.26647 
L 282.299972 304.836158 
L 284.24985 307.963458 
L 286.199727 310.693122 
L 287.824624 312.900937 
L 288.474583 314.199519 
L 289.774501 316.101188 
L 292.374338 319.440871 
L 294.974174 322.40686 
L 297.89899 325.393971 
L 300.823805 328.062236 
L 304.073601 330.713825 
L 307.648375 333.318152 
L 311.54813 335.860561 
L 315.772863 338.340483 
L 320.647556 340.930155 
L 324.547311 342.716924 
L 328.772044 344.396532 
L 332.996778 345.839525 
L 337.546492 347.161094 
L 342.421184 348.346372 
L 347.620857 349.388367 
L 353.470488 350.334108 
L 359.970079 351.158726 
L 367.444608 351.878278 
L 376.219055 352.490276 
L 384.668523 352.90793 
L 384.668523 352.90793 
" clip-path="url(#pb2ddb25bbf)" style="fill: none; stroke-dasharray: 9.6,2.4,1.5,2.4; stroke-dashoffset: 0; stroke: #4682b4; stroke-width: 1.5"/>
   </g>
   <g id="line2d_34">
    <path d="M 60.013977 353.952 
L 125.009882 353.952 
L 125.659841 349.476316 
L 126.63478 345.174104 
L 128.259678 339.349381 
L 129.884575 334.385475 
L 131.834452 329.140298 
L 134.109309 323.736236 
L 136.384166 318.919785 
L 138.659022 314.619454 
L 141.583838 309.83857 
L 144.833633 305.070401 
L 147.433469 301.560358 
L 148.733388 300.032516 
L 154.25804 293.106993 
L 157.507835 289.104789 
L 158.157794 292.719095 
L 158.807753 294.878243 
L 160.107671 298.221554 
L 161.732569 301.679188 
L 163.357466 304.581657 
L 165.307343 307.52991 
L 167.5822 310.486104 
L 170.182036 313.467692 
L 173.756811 317.183263 
L 178.956483 322.224089 
L 190.005787 332.667152 
L 190.655746 328.865923 
L 191.305705 326.534516 
L 192.605623 322.914232 
L 194.230521 319.068609 
L 195.855419 315.796857 
L 197.805296 312.429872 
L 199.755173 309.494412 
L 202.03003 306.487012 
L 205.279825 302.586149 
L 209.504559 297.89666 
L 216.979088 290.138045 
L 222.50374 284.57705 
L 223.153699 288.336591 
L 223.803658 290.632593 
L 225.103576 294.237773 
L 226.728474 297.978279 
L 228.353371 301.121751 
L 230.303248 304.344646 
L 232.578105 307.592437 
L 235.177941 310.871616 
L 238.427736 314.584229 
L 242.97745 319.405626 
L 250.776958 327.288061 
L 255.001692 331.507444 
L 255.651651 327.747332 
L 256.30161 325.456584 
L 257.601528 321.865956 
L 259.226426 318.137038 
L 260.851324 315.01581 
L 262.476221 312.352071 
L 264.426098 309.564824 
L 266.700955 306.699795 
L 269.300791 303.765671 
L 272.875566 300.072953 
L 280.350095 292.926056 
L 287.499645 286.245068 
L 288.149604 290.051977 
L 288.799563 292.40159 
L 290.099481 296.106776 
L 291.724379 299.980203 
L 293.349276 303.253463 
L 295.299153 306.623254 
L 297.57401 310.03018 
L 300.173846 313.476474 
L 303.423641 317.378253 
L 307.648375 322.08084 
L 314.147966 328.951321 
L 321.297515 336.261307 
L 323.572372 338.215768 
L 326.172208 340.137734 
L 328.772044 341.787171 
L 331.69686 343.376198 
L 334.946655 344.87094 
L 338.52143 346.247856 
L 342.421184 347.49258 
L 346.645918 348.598576 
L 351.520611 349.627191 
L 356.720284 350.49628 
L 362.894895 351.294944 
L 370.044444 351.984258 
L 378.493912 352.566054 
L 384.668523 352.876552 
L 384.668523 352.876552 
" clip-path="url(#pb2ddb25bbf)" style="fill: none; stroke-dasharray: 2.5,4.125; stroke-dashoffset: 0; stroke: #6b8e23; stroke-width: 2.5"/>
   </g>
   <g id="patch_9">
    <path d="M 43.78125 362.016 
L 43.78125 184.608 
" style="fill: none; stroke: #000000; stroke-width: 0.8; stroke-linejoin: miter; stroke-linecap: square"/>
   </g>
   <g id="patch_10">
    <path d="M 400.90125 362.016 
L 400.90125 184.608 
" style="fill: none; stroke: #000000; stroke-width: 0.8; stroke-linejoin: miter; stroke-linecap: square"/>
   </g>
   <g id="patch_11">
    <path d="M 43.78125 362.016 
L 400.90125 362.016 
" style="fill: none; stroke: #000000; stroke-width: 0.8; stroke-linejoin: miter; stroke-linecap: square"/>
   </g>
   <g id="patch_12">
    <path d="M 43.78125 184.608 
L 400.90125 184.608 
" style="fill: none; stroke: #000000; stroke-width: 0.8; stroke-linejoin: miter; stroke-linecap: square"/>
   </g>
   <g id="legend_2">
    <g id="patch_13">
     <path d="M 337.098125 251.3205 
L 393.90125 251.3205 
Q 395.90125 251.3205 395.90125 249.3205 
L 395.90125 191.608 
Q 395.90125 189.608 393.90125 189.608 
L 337.098125 189.608 
Q 335.098125 189.608 335.098125 191.608 
L 335.098125 249.3205 
Q 335.098125 251.3205 337.098125 251.3205 
z
" style="fill: #ffffff; opacity: 0.8; stroke: #cccccc; stroke-linejoin: miter"/>
    </g>
    <g id="line2d_35">
     <path d="M 339.098125 197.706437 
L 349.098125 197.706437 
L 359.098125 197.706437 
" style="fill: none; stroke: #ff4500; stroke-width: 1.5; stroke-linecap: square"/>
    </g>
    <g id="text_24">
     <text style="font: 10px 'DejaVu Sans', 'Bitstream Vera Sans', 'Computer Modern Sans Serif', 'Lucida Grande', 'Verdana', 'Geneva', 'Lucid', 'Arial', 'Helvetica', 'Avant Garde', sans-serif; text-anchor: start" x="367.098125" y="201.206437" transform="rotate(-0 367.098125 201.206437)">DB1</text>
    </g>
    <g id="line2d_36">
     <path d="M 339.098125 212.384562 
L 349.098125 212.384562 
L 359.098125 212.384562 
" style="fill: none; stroke-dasharray: 5.55,2.4; stroke-dashoffset: 0; stroke: #c71585; stroke-width: 1.5"/>
    </g>
    <g id="text_25">
     <text style="font: 10px 'DejaVu Sans', 'Bitstream Vera Sans', 'Computer Modern Sans Serif', 'Lucida Grande', 'Verdana', 'Geneva', 'Lucid', 'Arial', 'Helvetica', 'Avant Garde', sans-serif; text-anchor: start" x="367.098125" y="215.884562" transform="rotate(-0 367.098125 215.884562)">LUAL</text>
    </g>
    <g id="line2d_37">
     <path d="M 339.098125 227.062687 
L 349.098125 227.062687 
L 359.098125 227.062687 
" style="fill: none; stroke-dasharray: 9.6,2.4,1.5,2.4; stroke-dashoffset: 0; stroke: #4682b4; stroke-width: 1.5"/>
    </g>
    <g id="text_26">
     <text style="font: 10px 'DejaVu Sans', 'Bitstream Vera Sans', 'Computer Modern Sans Serif', 'Lucida Grande', 'Verdana', 'Geneva', 'Lucid', 'Arial', 'Helvetica', 'Avant Garde', sans-serif; text-anchor: start" x="367.098125" y="230.562687" transform="rotate(-0 367.098125 230.562687)">PVR</text>
    </g>
    <g id="line2d_38">
     <path d="M 339.098125 241.740812 
L 349.098125 241.740812 
L 359.098125 241.740812 
" style="fill: none; stroke-dasharray: 2.5,4.125; stroke-dashoffset: 0; stroke: #6b8e23; stroke-width: 2.5"/>
    </g>
    <g id="text_27">
     <text style="font: 10px 'DejaVu Sans', 'Bitstream Vera Sans', 'Computer Modern Sans Serif', 'Lucida Grande', 'Verdana', 'Geneva', 'Lucid', 'Arial', 'Helvetica', 'Avant Garde', sans-serif; text-anchor: start" x="367.098125" y="245.240812" transform="rotate(-0 367.098125 245.240812)">VB1</text>
    </g>
   </g>
  </g>
 </g>
 <defs>
  <clipPath id="pe389b4b1c5">
   <rect x="43.78125" y="7.2" width="357.12" height="177.408"/>
  </clipPath>
  <clipPath id="pb2ddb25bbf">
   <rect x="43.78125" y="184.608" width="357.12" height="177.408"/>
  </clipPath>
 </defs>
</svg>
