<?xml version="1.0" encoding="utf-8" standalone="no"?>
<!DOCTYPE svg PUBLIC "-//W3C//DTD SVG 1.1//EN"
  "http://www.w3.org/Graphics/SVG/1.1/DTD/svg11.dtd">
<svg xmlns:xlink="http://www.w3.org/1999/xlink" width="402.802812pt" height="297.190125pt" viewBox="0 0 402.802812 297.190125" xmlns="http://www.w3.org/2000/svg" version="1.1">
 <metadata>
  <rdf:RDF xmlns:dc="http://purl.org/dc/elements/1.1/" xmlns:cc="http://creativecommons.org/ns#" xmlns:rdf="http://www.w3.org/1999/02/22-rdf-syntax-ns#">
   <cc:Work>
    <dc:type rdf:resource="http://purl.org/dc/dcmitype/StillImage"/>
    <dc:date>2023-10-20T10:56:54.955280</dc:date>
    <dc:format>image/svg+xml</dc:format>
    <dc:creator>
     <cc:Agent>
      <dc:title>Matplotlib v3.8.0, https://matplotlib.org/</dc:title>
     </cc:Agent>
    </dc:creator>
   </cc:Work>
  </rdf:RDF>
 </metadata>
 <defs>
  <style type="text/css">*{stroke-linejoin: round; stroke-linecap: butt}</style>
 </defs>
 <g id="figure_1">
  <g id="patch_1">
   <path d="M 0 297.190125 
L 402.802812 297.190125 
L 402.802812 0 
L 0 0 
z
" style="fill: #ffffff"/>
  </g>
  <g id="axes_1">
   <g id="patch_2">
    <path d="M 38.482813 273.312 
L 395.602813 273.312 
L 395.602813 7.2 
L 38.482813 7.2 
z
" style="fill: #ffffff"/>
   </g>
   <g id="matplotlib.axis_1">
    <g id="xtick_1">
     <g id="line2d_1">
      <defs>
       <path id="m559c898aa6" d="M 0 0 
L 0 3.5 
" style="stroke: #000000; stroke-width: 0.8"/>
      </defs>
      <g>
       <use xlink:href="#m559c898aa6" x="54.71554" y="273.312" style="stroke: #000000; stroke-width: 0.8"/>
      </g>
     </g>
     <g id="text_1">
      <text style="font: 10px 'DejaVu Sans', 'Bitstream Vera Sans', 'Computer Modern Sans Serif', 'Lucida Grande', 'Verdana', 'Geneva', 'Lucid', 'Arial', 'Helvetica', 'Avant Garde', sans-serif; text-anchor: middle" x="54.71554" y="287.910437" transform="rotate(-0 54.71554 287.910437)">0.0</text>
     </g>
    </g>
    <g id="xtick_2">
     <g id="line2d_2">
      <g>
       <use xlink:href="#m559c898aa6" x="119.711445" y="273.312" style="stroke: #000000; stroke-width: 0.8"/>
      </g>
     </g>
     <g id="text_2">
      <text style="font: 10px 'DejaVu Sans', 'Bitstream Vera Sans', 'Computer Modern Sans Serif', 'Lucida Grande', 'Verdana', 'Geneva', 'Lucid', 'Arial', 'Helvetica', 'Avant Garde', sans-serif; text-anchor: middle" x="119.711445" y="287.910437" transform="rotate(-0 119.711445 287.910437)">0.1</text>
     </g>
    </g>
    <g id="xtick_3">
     <g id="line2d_3">
      <g>
       <use xlink:href="#m559c898aa6" x="184.70735" y="273.312" style="stroke: #000000; stroke-width: 0.8"/>
      </g>
     </g>
     <g id="text_3">
      <text style="font: 10px 'DejaVu Sans', 'Bitstream Vera Sans', 'Computer Modern Sans Serif', 'Lucida Grande', 'Verdana', 'Geneva', 'Lucid', 'Arial', 'Helvetica', 'Avant Garde', sans-serif; text-anchor: middle" x="184.70735" y="287.910437" transform="rotate(-0 184.70735 287.910437)">0.2</text>
     </g>
    </g>
    <g id="xtick_4">
     <g id="line2d_4">
      <g>
       <use xlink:href="#m559c898aa6" x="249.703255" y="273.312" style="stroke: #000000; stroke-width: 0.8"/>
      </g>
     </g>
     <g id="text_4">
      <text style="font: 10px 'DejaVu Sans', 'Bitstream Vera Sans', 'Computer Modern Sans Serif', 'Lucida Grande', 'Verdana', 'Geneva', 'Lucid', 'Arial', 'Helvetica', 'Avant Garde', sans-serif; text-anchor: middle" x="249.703255" y="287.910437" transform="rotate(-0 249.703255 287.910437)">0.3</text>
     </g>
    </g>
    <g id="xtick_5">
     <g id="line2d_5">
      <g>
       <use xlink:href="#m559c898aa6" x="314.69916" y="273.312" style="stroke: #000000; stroke-width: 0.8"/>
      </g>
     </g>
     <g id="text_5">
      <text style="font: 10px 'DejaVu Sans', 'Bitstream Vera Sans', 'Computer Modern Sans Serif', 'Lucida Grande', 'Verdana', 'Geneva', 'Lucid', 'Arial', 'Helvetica', 'Avant Garde', sans-serif; text-anchor: middle" x="314.69916" y="287.910437" transform="rotate(-0 314.69916 287.910437)">0.4</text>
     </g>
    </g>
    <g id="xtick_6">
     <g id="line2d_6">
      <g>
       <use xlink:href="#m559c898aa6" x="379.695065" y="273.312" style="stroke: #000000; stroke-width: 0.8"/>
      </g>
     </g>
     <g id="text_6">
      <text style="font: 10px 'DejaVu Sans', 'Bitstream Vera Sans', 'Computer Modern Sans Serif', 'Lucida Grande', 'Verdana', 'Geneva', 'Lucid', 'Arial', 'Helvetica', 'Avant Garde', sans-serif; text-anchor: middle" x="379.695065" y="287.910437" transform="rotate(-0 379.695065 287.910437)">0.5</text>
     </g>
    </g>
   </g>
   <g id="matplotlib.axis_2">
    <g id="ytick_1">
     <g id="line2d_7">
      <defs>
       <path id="mfb1ad6fe14" d="M 0 0 
L -3.5 0 
" style="stroke: #000000; stroke-width: 0.8"/>
      </defs>
      <g>
       <use xlink:href="#mfb1ad6fe14" x="38.482813" y="236.739945" style="stroke: #000000; stroke-width: 0.8"/>
      </g>
     </g>
     <g id="text_7">
      <text style="font: 10px 'DejaVu Sans', 'Bitstream Vera Sans', 'Computer Modern Sans Serif', 'Lucida Grande', 'Verdana', 'Geneva', 'Lucid', 'Arial', 'Helvetica', 'Avant Garde', sans-serif; text-anchor: end" x="31.482813" y="240.539164" transform="rotate(-0 31.482813 240.539164)">−0.5</text>
     </g>
    </g>
    <g id="ytick_2">
     <g id="line2d_8">
      <g>
       <use xlink:href="#mfb1ad6fe14" x="38.482813" y="183.524074" style="stroke: #000000; stroke-width: 0.8"/>
      </g>
     </g>
     <g id="text_8">
      <text style="font: 10px 'DejaVu Sans', 'Bitstream Vera Sans', 'Computer Modern Sans Serif', 'Lucida Grande', 'Verdana', 'Geneva', 'Lucid', 'Arial', 'Helvetica', 'Avant Garde', sans-serif; text-anchor: end" x="31.482813" y="187.323293" transform="rotate(-0 31.482813 187.323293)">0.0</text>
     </g>
    </g>
    <g id="ytick_3">
     <g id="line2d_9">
      <g>
       <use xlink:href="#mfb1ad6fe14" x="38.482813" y="130.308203" style="stroke: #000000; stroke-width: 0.8"/>
      </g>
     </g>
     <g id="text_9">
      <text style="font: 10px 'DejaVu Sans', 'Bitstream Vera Sans', 'Computer Modern Sans Serif', 'Lucida Grande', 'Verdana', 'Geneva', 'Lucid', 'Arial', 'Helvetica', 'Avant Garde', sans-serif; text-anchor: end" x="31.482813" y="134.107422" transform="rotate(-0 31.482813 134.107422)">0.5</text>
     </g>
    </g>
    <g id="ytick_4">
     <g id="line2d_10">
      <g>
       <use xlink:href="#mfb1ad6fe14" x="38.482813" y="77.092332" style="stroke: #000000; stroke-width: 0.8"/>
      </g>
     </g>
     <g id="text_10">
      <text style="font: 10px 'DejaVu Sans', 'Bitstream Vera Sans', 'Computer Modern Sans Serif', 'Lucida Grande', 'Verdana', 'Geneva', 'Lucid', 'Arial', 'Helvetica', 'Avant Garde', sans-serif; text-anchor: end" x="31.482813" y="80.89155" transform="rotate(-0 31.482813 80.89155)">1.0</text>
     </g>
    </g>
    <g id="ytick_5">
     <g id="line2d_11">
      <g>
       <use xlink:href="#mfb1ad6fe14" x="38.482813" y="23.87646" style="stroke: #000000; stroke-width: 0.8"/>
      </g>
     </g>
     <g id="text_11">
      <text style="font: 10px 'DejaVu Sans', 'Bitstream Vera Sans', 'Computer Modern Sans Serif', 'Lucida Grande', 'Verdana', 'Geneva', 'Lucid', 'Arial', 'Helvetica', 'Avant Garde', sans-serif; text-anchor: end" x="31.482813" y="27.675679" transform="rotate(-0 31.482813 27.675679)">1.5</text>
     </g>
    </g>
   </g>
   <g id="line2d_12">
    <path d="M 54.71554 188.329564 
L 55.365499 187.770867 
L 56.015458 187.592592 
L 57.640355 187.512324 
L 74.214311 187.507043 
L 120.036424 187.429088 
L 121.336342 186.849323 
L 129.460831 182.803783 
L 134.335523 180.66361 
L 138.885237 178.876675 
L 143.109971 177.443994 
L 147.659684 176.133763 
L 152.209397 175.04722 
L 157.08409 174.135713 
L 160.333885 173.716912 
L 167.158455 173.127268 
L 175.932903 172.623746 
L 179.182698 172.246622 
L 181.132575 171.840709 
L 183.732411 171.158449 
L 184.38237 170.891311 
L 184.70735 158.525015 
L 185.032329 169.361288 
L 185.357309 176.373165 
L 185.682288 180.784873 
L 186.007268 183.478977 
L 186.332247 185.113258 
L 186.657227 186.091953 
L 186.982206 186.673414 
L 187.632165 187.219573 
L 188.282125 187.408465 
L 189.582043 187.495594 
L 197.706531 187.507043 
L 379.370085 187.507043 
L 379.370085 187.507043 
" clip-path="url(#pa03930ce33)" style="fill: none; stroke: #ff4500; stroke-linecap: square"/>
   </g>
   <g id="line2d_13">
    <path d="M 54.71554 184.895442 
L 55.040519 183.731921 
L 55.365499 183.156245 
L 56.015458 182.710617 
L 56.990396 182.577606 
L 61.21513 182.55735 
L 141.485073 182.556229 
L 142.135032 182.06531 
L 142.460012 181.716003 
L 142.784991 182.136348 
L 143.43495 181.05008 
L 143.75993 180.614206 
L 144.084909 181.585695 
L 144.734868 180.014627 
L 145.059848 179.516945 
L 145.384827 181.05244 
L 145.709807 179.709963 
L 146.359766 178.285665 
L 146.684745 180.441774 
L 147.009725 178.828642 
L 147.659684 177.135139 
L 147.984663 179.886198 
L 148.309643 177.981801 
L 148.959602 175.908969 
L 149.284582 179.299701 
L 149.609561 176.998983 
L 150.25952 174.798374 
L 150.5845 178.774993 
L 150.909479 176.142106 
L 151.559438 173.60475 
L 151.884418 178.221372 
L 152.209397 175.024278 
L 152.859356 172.39128 
L 153.184336 177.656777 
L 153.509315 174.118945 
L 154.159274 171.173506 
L 154.484254 177.102786 
L 154.809233 173.131721 
L 155.459193 169.963016 
L 155.784172 176.553056 
L 156.109152 172.220307 
L 156.434131 170.03636 
L 156.759111 168.754001 
L 157.08409 176.003533 
L 157.40907 171.197718 
L 157.734049 168.816831 
L 158.059029 167.415858 
L 158.384008 175.408364 
L 158.708988 170.245632 
L 159.033967 167.724591 
L 159.358947 166.243107 
L 159.683926 174.89192 
L 160.008906 169.333976 
L 160.333885 166.544525 
L 160.658865 164.755438 
L 160.983844 174.256332 
L 161.308824 168.238158 
L 161.633803 165.367233 
L 161.958783 163.510418 
L 162.283763 173.71808 
L 162.608742 167.295107 
L 162.933722 164.154055 
L 163.258701 162.141272 
L 163.583681 173.134522 
L 163.90866 166.21089 
L 164.23364 162.967973 
L 164.558619 160.872971 
L 164.883599 172.59771 
L 165.208578 165.101616 
L 165.858537 159.490925 
L 166.183517 172.023315 
L 166.508496 164.004058 
L 166.833476 160.455789 
L 167.158455 158.14141 
L 167.483435 171.457958 
L 167.808414 163.006581 
L 168.133394 159.289933 
L 168.458374 156.863206 
L 168.783353 170.931696 
L 169.108333 161.924012 
L 169.433312 157.803071 
L 169.758292 155.314146 
L 170.083271 170.3 
L 170.408251 160.860166 
L 170.73323 156.580271 
L 171.05821 153.990334 
L 171.383189 169.758686 
L 171.708169 159.746087 
L 172.033148 155.221508 
L 172.358128 152.454024 
L 172.683107 169.140799 
L 173.008087 158.674345 
L 173.333066 153.978233 
L 173.658046 150.92233 
L 173.983025 168.541092 
L 174.308005 157.609391 
L 174.632984 152.625704 
L 174.957964 149.378178 
L 175.282944 167.930847 
L 175.607923 156.417881 
L 175.932903 151.307023 
L 176.257882 147.949132 
L 176.582862 167.37169 
L 176.907841 155.356554 
L 177.5578 146.433716 
L 177.88278 166.785804 
L 178.207759 153.997379 
L 178.857718 144.875576 
L 179.182698 166.174519 
L 179.507677 152.986376 
L 179.832657 147.508199 
L 180.157636 143.930982 
L 180.482616 165.805668 
L 180.807595 152.376114 
L 181.132575 145.697726 
L 181.457555 141.427564 
L 181.782534 164.862803 
L 182.107514 150.22043 
L 182.432493 143.934001 
L 182.757473 140.005426 
L 183.082452 164.288149 
L 183.407432 149.428752 
L 183.732411 143.115931 
L 184.057391 139.167538 
L 184.38237 163.976185 
L 184.70735 147.767923 
L 185.032329 140.709015 
L 185.357309 136.208782 
L 185.682288 162.862524 
L 186.007268 146.502365 
L 186.657227 134.916233 
L 186.982206 162.388792 
L 187.307186 145.777122 
L 187.957145 134.085063 
L 188.282125 162.08786 
L 188.607104 144.093786 
L 189.257063 131.040868 
L 189.582043 160.962986 
L 189.907022 142.783297 
L 190.556981 129.886918 
L 190.881961 160.528459 
L 191.20694 141.88933 
L 191.856899 128.97899 
L 192.181879 160.201515 
L 192.506858 140.165623 
L 193.156817 125.835942 
L 193.481797 159.059368 
L 193.806776 138.776464 
L 194.456736 124.602664 
L 194.781715 158.599958 
L 195.106695 138.017519 
L 195.756654 123.619368 
L 196.081633 158.247868 
L 196.406613 136.247427 
L 197.056572 120.374458 
L 197.381551 157.082716 
L 197.706531 134.798817 
L 198.35649 119.075649 
L 198.681469 156.600011 
L 199.006449 134.006196 
L 199.656408 116.631843 
L 199.981387 155.834601 
L 200.306367 131.799335 
L 200.956326 114.323016 
L 201.281306 154.928345 
L 201.606285 130.584119 
L 202.256244 113.121316 
L 202.581224 154.494887 
L 202.906203 129.800836 
L 203.556162 111.088928 
L 203.881142 153.845644 
L 204.206121 127.85248 
L 204.85608 109.44323 
L 205.18106 153.143399 
L 205.506039 127.171861 
L 206.155998 106.747458 
L 206.480978 152.435004 
L 206.805957 124.610186 
L 207.455917 103.582474 
L 207.780896 151.277495 
L 208.105876 122.341733 
L 208.755835 101.630545 
L 209.080814 150.454443 
L 209.405794 121.509553 
L 210.055753 101.1445 
L 210.380732 150.241214 
L 210.705712 121.30296 
L 211.355671 98.943461 
L 211.68065 149.49884 
L 212.00563 119.390763 
L 212.655589 95.509368 
L 212.980568 148.52005 
L 213.305548 116.459842 
L 213.955507 93.38261 
L 214.280487 147.620026 
L 214.605466 115.57504 
L 215.255425 90.725386 
L 215.580405 146.702638 
L 215.905384 113.455024 
L 216.555343 89.525311 
L 216.880323 146.189489 
L 217.205302 112.930482 
L 217.855261 89.199112 
L 218.180241 146.057686 
L 218.50522 112.788182 
L 219.155179 87.456179 
L 219.480159 145.887314 
L 219.805138 111.423096 
L 220.455098 86.802488 
L 220.780077 145.6128 
L 221.105057 111.143294 
L 221.755016 86.632156 
L 222.079995 145.552771 
L 222.404975 115.547096 
L 223.054934 96.565402 
L 223.379913 149.150214 
L 223.704893 119.009555 
L 224.354852 98.42004 
L 224.679831 149.860333 
L 225.004811 126.02583 
L 225.65477 111.677809 
L 225.979749 154.347564 
L 226.304729 136.790256 
L 226.954688 126.359696 
L 227.279668 159.178287 
L 227.604647 140.665893 
L 227.929627 165.344149 
L 228.254606 173.378426 
L 228.579586 177.667821 
L 228.904565 179.934276 
L 229.229545 181.159518 
L 229.554524 181.813429 
L 229.879504 182.164346 
L 230.529463 182.451418 
L 231.829381 182.559103 
L 239.953869 182.569474 
L 379.370085 182.569474 
L 379.370085 182.569474 
" clip-path="url(#pa03930ce33)" style="fill: none; stroke-dasharray: 0.74,0.32; stroke-dashoffset: 0; stroke: #ff4500; stroke-width: 0.2"/>
   </g>
   <g id="line2d_14">
    <path d="M 54.71554 185.2986 
L 55.040519 183.895106 
L 55.365499 183.071459 
L 55.690478 182.589267 
L 56.340437 182.142977 
L 57.315376 181.958797 
L 59.915212 181.914314 
L 119.711445 181.908872 
L 120.036424 181.664241 
L 120.686383 180.796387 
L 122.311281 178.014243 
L 126.536015 170.739981 
L 130.435769 164.484545 
L 134.010544 159.1551 
L 137.260339 154.631384 
L 140.510134 150.479981 
L 143.75993 146.672804 
L 147.009725 143.176188 
L 150.25952 140.004586 
L 153.509315 137.096558 
L 156.434131 134.793754 
L 159.033967 132.983464 
L 162.283763 130.95213 
L 168.458374 127.353959 
L 171.383189 125.782214 
L 174.632984 124.089141 
L 177.5578 122.435936 
L 178.857718 121.527485 
L 181.457555 119.488639 
L 183.082452 118.283848 
L 184.38237 117.004799 
L 184.70735 19.296 
L 185.357309 115.703586 
L 185.682288 141.879177 
L 186.007268 158.065891 
L 186.332247 167.811933 
L 186.657227 173.615259 
L 186.982206 177.046624 
L 187.307186 179.065987 
L 187.632165 180.25049 
L 187.957145 180.943637 
L 188.607104 181.584614 
L 189.257063 181.802352 
L 190.556981 181.901024 
L 198.03151 181.913732 
L 379.370085 181.913732 
L 379.370085 181.913732 
" clip-path="url(#pa03930ce33)" style="fill: none; stroke: #c71585; stroke-linecap: square"/>
   </g>
   <g id="line2d_15">
    <path d="M 54.71554 187.412668 
L 55.040519 186.841735 
L 55.365499 186.552553 
L 56.015458 186.346375 
L 57.640355 186.278137 
L 91.113247 186.275944 
L 141.810052 186.188426 
L 142.460012 185.924321 
L 142.784991 186.095945 
L 143.75993 185.493512 
L 144.084909 185.874204 
L 144.734868 185.288529 
L 145.059848 185.11489 
L 145.384827 185.681025 
L 145.709807 185.193854 
L 146.359766 184.728193 
L 146.684745 185.474537 
L 147.009725 184.934765 
L 147.659684 184.422246 
L 147.984663 185.301543 
L 148.309643 184.700951 
L 148.959602 184.143877 
L 149.284582 185.145147 
L 149.609561 184.470129 
L 150.25952 183.930687 
L 150.5845 185.023594 
L 150.909479 184.305405 
L 151.559438 183.743857 
L 151.884418 184.911924 
L 152.209397 184.124297 
L 152.534377 183.777404 
L 152.859356 183.607906 
L 153.184336 184.817647 
L 153.509315 184.003118 
L 153.834295 183.662786 
L 154.159274 183.521409 
L 154.484254 184.741092 
L 154.809233 183.923306 
L 155.134213 183.587483 
L 155.459193 183.477811 
L 155.784172 184.684381 
L 156.109152 183.87141 
L 156.434131 183.567654 
L 156.759111 183.476602 
L 157.08409 184.633646 
L 157.40907 183.848384 
L 157.734049 183.581486 
L 158.059029 183.530629 
L 158.384008 184.609607 
L 158.708988 183.874443 
L 159.033967 183.645516 
L 159.358947 183.634277 
L 159.683926 184.604748 
L 160.008906 183.927028 
L 160.333885 183.749637 
L 160.658865 183.818709 
L 160.983844 184.615324 
L 161.308824 184.025757 
L 161.633803 183.910304 
L 161.958783 184.025892 
L 162.283763 184.646646 
L 162.608742 184.150964 
L 162.933722 184.107559 
L 163.258701 184.301924 
L 163.583681 184.698877 
L 163.90866 184.327772 
L 164.23364 184.358216 
L 164.883599 184.762699 
L 165.208578 184.562601 
L 165.533558 184.649619 
L 165.858537 184.995887 
L 166.183517 184.852682 
L 166.508496 184.831439 
L 166.833476 185.01202 
L 167.158455 185.426136 
L 167.483435 184.953118 
L 168.133394 185.385014 
L 168.458374 185.883965 
L 168.783353 185.060902 
L 169.433312 185.92087 
L 169.758292 186.48869 
L 170.083271 185.21679 
L 171.05821 187.070502 
L 171.383189 185.357216 
L 172.358128 187.771433 
L 172.683107 185.535446 
L 173.333066 187.575262 
L 173.658046 188.549276 
L 173.983025 185.715615 
L 174.632984 188.258654 
L 174.957964 189.391705 
L 175.282944 185.929691 
L 175.607923 187.795937 
L 176.257882 190.222762 
L 176.582862 186.138356 
L 176.907841 188.356236 
L 177.5578 191.150466 
L 177.88278 186.373696 
L 178.207759 189.131982 
L 178.857718 192.167012 
L 179.182698 186.633673 
L 179.507677 189.751435 
L 180.157636 192.816652 
L 180.482616 186.775845 
L 181.132575 192.511951 
L 181.457555 194.590843 
L 181.782534 187.242662 
L 182.107514 191.558047 
L 182.757473 195.661875 
L 183.082452 187.50313 
L 183.407432 192.124839 
L 184.057391 196.323011 
L 184.38237 187.63462 
L 184.70735 193.347337 
L 185.357309 198.717553 
L 185.682288 188.275436 
L 186.007268 194.343978 
L 186.657227 199.818956 
L 186.982206 188.4946 
L 187.307186 194.928465 
L 187.957145 200.569944 
L 188.282125 188.639902 
L 188.607104 196.346749 
L 189.257063 203.360061 
L 189.582043 189.367291 
L 189.907022 197.50237 
L 190.556981 204.409945 
L 190.881961 189.585325 
L 191.20694 198.327182 
L 191.856899 205.302456 
L 192.181879 189.75843 
L 192.506858 199.963511 
L 193.156817 208.485607 
L 193.481797 190.569704 
L 193.806776 201.275147 
L 194.456736 209.687889 
L 194.781715 190.820123 
L 195.106695 202.016762 
L 195.756654 210.740741 
L 196.081633 191.020848 
L 196.406613 203.88607 
L 197.056572 214.325281 
L 197.381551 191.904326 
L 197.706531 205.386247 
L 198.35649 215.690665 
L 198.681469 192.177795 
L 199.006449 206.245626 
L 199.656408 218.650719 
L 199.981387 192.81138 
L 200.306367 208.795756 
L 200.956326 221.26856 
L 201.281306 193.41889 
L 201.606285 210.097404 
L 202.256244 222.634467 
L 202.581224 193.670941 
L 202.906203 210.972505 
L 203.556162 225.229796 
L 203.881142 194.267804 
L 204.206121 213.414768 
L 204.85608 227.07128 
L 205.18106 194.744114 
L 205.506039 214.049508 
L 206.155998 230.844621 
L 206.480978 195.244324 
L 206.805957 217.590589 
L 207.455917 235.137416 
L 207.780896 196.251561 
L 208.105876 220.593555 
L 208.755835 237.397108 
L 209.080814 196.811763 
L 209.405794 221.415189 
L 210.055753 237.786629 
L 210.380732 196.88341 
L 210.705712 221.56031 
L 211.355671 240.876572 
L 211.68065 197.638663 
L 212.00563 224.198489 
L 212.655589 246.028958 
L 212.980568 198.360457 
L 213.305548 228.577822 
L 213.955507 248.85879 
L 214.280487 199.007365 
L 214.605466 229.664994 
L 215.255425 252.712762 
L 215.580405 199.89134 
L 215.905384 232.763976 
L 216.555343 254.036314 
L 216.880323 200.180206 
L 217.205302 233.257528 
L 217.855261 254.316854 
L 218.180241 200.22972 
L 218.50522 233.361421 
L 218.8302 249.903332 
L 219.155179 260.644383 
L 219.480159 200.841237 
L 219.805138 237.965501 
L 220.455098 261.163291 
L 220.780077 200.716598 
L 221.105057 238.1327 
L 221.755016 261.216 
L 222.079995 200.638815 
L 222.404975 236.25435 
L 223.054934 252.563672 
L 223.379913 197.186575 
L 223.704893 231.150824 
L 224.354852 249.596331 
L 224.679831 196.259297 
L 225.004811 225.607129 
L 225.65477 238.388233 
L 225.979749 195.203484 
L 226.304729 217.390177 
L 226.954688 226.556133 
L 227.279668 194.570293 
L 227.604647 214.297338 
L 227.929627 191.889425 
L 228.254606 188.936963 
L 228.579586 187.534562 
L 228.904565 186.864179 
L 229.229545 186.555213 
L 229.879504 186.333218 
L 231.504401 186.283493 
L 297.475245 186.282433 
L 379.370085 186.282433 
L 379.370085 186.282433 
" clip-path="url(#pa03930ce33)" style="fill: none; stroke-dasharray: 0.74,0.32; stroke-dashoffset: 0; stroke: #c71585; stroke-width: 0.2"/>
   </g>
   <g id="line2d_16">
    <path d="M 54.71554 185.130524 
L 55.365499 184.321033 
L 56.015458 184.01689 
L 56.990396 183.881418 
L 59.915212 183.845796 
L 119.711445 183.84218 
L 120.361404 183.417721 
L 121.661322 182.069658 
L 126.536015 176.821965 
L 130.435769 172.977254 
L 134.335523 169.436273 
L 138.235278 166.164971 
L 142.135032 163.193399 
L 146.359766 160.255116 
L 151.234459 157.155238 
L 156.759111 153.932452 
L 166.508496 148.42102 
L 171.383189 145.144424 
L 174.632984 142.557275 
L 176.257882 141.070694 
L 177.88278 139.323826 
L 179.507677 137.266146 
L 181.782534 133.93755 
L 183.407432 131.22524 
L 184.38237 129.351073 
L 184.70735 119.008872 
L 185.357309 155.925227 
L 185.682288 166.480566 
L 186.007268 173.227654 
L 186.332247 177.430365 
L 186.657227 180.00121 
L 186.982206 181.555268 
L 187.307186 182.487056 
L 187.632165 183.042483 
L 188.282125 183.566928 
L 188.932084 183.749468 
L 190.556981 183.838912 
L 204.206121 183.845498 
L 379.370085 183.845498 
L 379.370085 183.845498 
" clip-path="url(#pa03930ce33)" style="fill: none; stroke: #4682b4; stroke-linecap: square"/>
   </g>
   <g id="line2d_17">
    <path d="M 54.71554 183.031747 
L 55.040519 181.83889 
L 55.365499 181.232868 
L 56.015458 180.768998 
L 56.990396 180.628683 
L 60.890151 180.607064 
L 141.485073 180.607375 
L 142.135032 180.253423 
L 142.460012 179.998268 
L 142.784991 180.293486 
L 143.75993 179.195866 
L 144.084909 179.8861 
L 144.734868 178.768101 
L 145.059848 178.401736 
L 145.384827 179.492752 
L 146.034786 177.957357 
L 146.359766 177.495918 
L 146.684745 179.040572 
L 147.334704 177.222508 
L 147.659684 176.665733 
L 147.984663 178.622289 
L 148.634622 176.412694 
L 148.959602 175.766671 
L 149.284582 178.183262 
L 149.609561 176.615758 
L 150.25952 174.948843 
L 150.5845 177.790579 
L 150.909479 176.005887 
L 151.559438 174.062364 
L 151.884418 177.378015 
L 152.209397 175.205494 
L 152.859356 173.163708 
L 153.184336 176.951646 
L 153.509315 174.540724 
L 154.159274 172.263744 
L 154.484254 176.528696 
L 154.809233 173.803498 
L 155.459193 171.360473 
L 155.784172 176.111919 
L 156.109152 173.163103 
L 156.434131 171.471821 
L 156.759111 170.462006 
L 157.08409 175.689399 
L 157.40907 172.415859 
L 157.734049 170.561057 
L 158.059029 169.455772 
L 158.384008 175.234392 
L 158.708988 171.727819 
L 159.033967 169.758928 
L 159.358947 168.590302 
L 159.683926 174.841698 
L 160.008906 171.070536 
L 160.333885 168.882156 
L 160.658865 167.497752 
L 160.983844 174.354443 
L 161.308824 170.26582 
L 161.633803 168.01674 
L 161.958783 166.574764 
L 162.283763 173.94548 
L 162.608742 169.586566 
L 162.933722 167.112439 
L 163.258701 165.548575 
L 163.583681 173.499124 
L 163.90866 168.792018 
L 164.23364 166.24243 
L 164.558619 164.610584 
L 164.883599 173.0915 
L 165.208578 168.016023 
L 165.858537 163.58041 
L 166.183517 172.656262 
L 166.508496 167.217875 
L 166.833476 164.381071 
L 167.158455 162.574189 
L 167.483435 172.224865 
L 167.808414 166.501101 
L 168.133394 163.529035 
L 168.458374 161.636194 
L 168.783353 171.825418 
L 169.108333 165.715305 
L 169.433312 162.454592 
L 169.758292 160.475087 
L 170.083271 171.344498 
L 170.408251 164.953934 
L 170.73323 161.5657 
L 171.05821 159.510895 
L 171.383189 170.933545 
L 171.708169 164.145053 
L 172.033148 160.554386 
L 172.358128 158.352902 
L 172.683107 170.464347 
L 173.008087 163.377784 
L 173.333066 159.652497 
L 173.658046 157.27151 
L 173.983025 170.007088 
L 174.308005 162.622262 
L 174.632984 158.65421 
L 174.957964 156.122176 
L 175.282944 169.543709 
L 175.607923 161.76292 
L 175.932903 157.705587 
L 176.257882 155.086477 
L 176.582862 169.119632 
L 176.907841 161.009664 
L 177.5578 153.963594 
L 177.88278 168.679433 
L 178.207759 160.064629 
L 178.532739 155.681906 
L 178.857718 152.827281 
L 179.182698 168.227578 
L 179.507677 159.382566 
L 179.832657 155.014239 
L 180.157636 152.251965 
L 180.482616 167.960754 
L 180.807595 159.032214 
L 181.132575 153.550284 
L 181.457555 150.214023 
L 181.782534 167.214738 
L 182.107514 157.349075 
L 182.432493 152.390046 
L 182.757473 149.30833 
L 183.082452 166.814947 
L 183.407432 156.893341 
L 183.732411 151.921442 
L 184.057391 148.833195 
L 184.38237 166.593421 
L 184.70735 155.591776 
L 185.032329 149.987966 
L 185.357309 146.455304 
L 185.682288 165.742387 
L 186.007268 154.771396 
L 186.332247 149.292116 
L 186.657227 145.735851 
L 186.982206 165.413914 
L 187.307186 154.377974 
L 187.632165 148.86294 
L 187.957145 145.281049 
L 188.282125 165.197983 
L 188.607104 153.062037 
L 188.932084 146.891809 
L 189.257063 142.846776 
L 189.582043 164.341449 
L 189.907022 152.215531 
L 190.556981 142.198836 
L 190.881961 164.047867 
L 191.20694 151.767588 
L 191.856899 141.700017 
L 192.181879 163.81751 
L 192.506858 150.408413 
L 193.156817 139.210423 
L 193.481797 162.956793 
L 193.806776 149.549277 
L 194.456736 138.518423 
L 194.781715 162.657571 
L 195.106695 149.16887 
L 195.756654 137.996818 
L 196.081633 162.405622 
L 196.406613 147.787417 
L 197.056572 135.451096 
L 197.381551 161.534393 
L 197.706531 146.908774 
L 198.35649 134.757421 
L 198.681469 161.21996 
L 199.006449 146.528843 
L 199.656408 132.889737 
L 199.981387 160.634343 
L 200.306367 144.837897 
L 200.956326 131.438094 
L 201.281306 160.012605 
L 201.606285 144.182802 
L 202.256244 130.830641 
L 202.581224 159.724619 
L 202.906203 143.824225 
L 203.556162 129.114652 
L 203.881142 159.241624 
L 204.206121 142.259748 
L 204.85608 128.010105 
L 205.18106 158.793807 
L 205.506039 141.865849 
L 206.155998 126.997682 
L 206.480978 158.2515 
L 206.805957 140.774727 
L 207.455917 124.44837 
L 207.780896 157.387508 
L 208.105876 138.961839 
L 208.755835 123.197977 
L 209.080814 156.876629 
L 209.405794 138.524349 
L 210.055753 122.975864 
L 210.380732 156.778254 
L 210.705712 138.444862 
L 211.355671 121.01391 
L 211.68065 156.25775 
L 212.00563 136.838001 
L 212.655589 119.643263 
L 212.980568 155.540636 
L 213.305548 135.645291 
L 213.955507 118.336442 
L 214.280487 154.920314 
L 214.605466 135.163484 
L 215.255425 116.139055 
L 215.580405 154.303411 
L 215.905384 133.498023 
L 216.555343 115.459563 
L 216.880323 154.021713 
L 217.205302 133.225407 
L 217.855261 115.350076 
L 218.180241 153.969728 
L 218.50522 133.185095 
L 219.155179 112.416275 
L 219.480159 152.732531 
L 219.805138 130.621313 
L 220.455098 110.526636 
L 220.780077 151.943639 
L 221.105057 129.798875 
L 221.755016 109.996667 
L 222.079995 151.736226 
L 222.404975 135.235234 
L 223.054934 121.743672 
L 223.379913 155.464956 
L 223.704893 138.790817 
L 224.354852 123.687708 
L 224.679831 156.209196 
L 225.004811 146.982116 
L 225.65477 139.079714 
L 225.979749 161.524311 
L 226.304729 157.017632 
L 226.629708 154.658087 
L 226.954688 153.194749 
L 227.279668 167.595199 
L 227.604647 161.676385 
L 227.929627 171.398585 
L 228.254606 176.107186 
L 228.579586 178.433465 
L 228.904565 179.567701 
L 229.229545 180.127873 
L 229.879504 180.51819 
L 230.854442 180.621953 
L 238.003992 180.628693 
L 379.370085 180.628693 
L 379.370085 180.628693 
" clip-path="url(#pa03930ce33)" style="fill: none; stroke-dasharray: 0.74,0.32; stroke-dashoffset: 0; stroke: #4682b4; stroke-width: 0.2"/>
   </g>
   <g id="line2d_18">
    <path d="M 54.71554 188.008724 
L 55.365499 187.501862 
L 56.340437 187.319796 
L 58.940274 187.282483 
L 120.036424 187.196423 
L 121.336342 186.571548 
L 137.260339 177.915796 
L 144.734868 174.190072 
L 151.884418 170.843018 
L 161.633803 166.569022 
L 176.582862 160.12562 
L 179.832657 158.494635 
L 181.457555 157.525837 
L 184.38237 155.705632 
L 184.70735 153.564121 
L 185.032329 167.639095 
L 185.357309 176.018348 
L 185.682288 180.875416 
L 186.007268 183.641695 
L 186.332247 185.217928 
L 186.657227 186.111755 
L 186.982206 186.617821 
L 187.632165 187.066909 
L 188.607104 187.241924 
L 191.20694 187.281614 
L 369.29572 187.282094 
L 379.370085 187.282094 
L 379.370085 187.282094 
" clip-path="url(#pa03930ce33)" style="fill: none; stroke: #6b8e23; stroke-linecap: square"/>
   </g>
   <g id="line2d_19">
    <path d="M 54.71554 189.000511 
L 55.040519 188.035463 
L 55.365499 187.55794 
L 56.015458 187.186373 
L 56.990396 187.074301 
L 61.865089 187.057016 
L 141.485073 187.055879 
L 142.135032 186.621627 
L 142.460012 186.313209 
L 142.784991 186.68623 
L 143.43495 185.724687 
L 143.75993 185.339908 
L 144.084909 186.201746 
L 144.734868 184.807889 
L 145.059848 184.369093 
L 145.384827 185.734489 
L 145.709807 184.532778 
L 146.359766 183.280117 
L 146.684745 185.199334 
L 147.009725 183.753021 
L 147.659684 182.264632 
L 147.984663 184.717451 
L 148.309643 183.004735 
L 148.959602 181.180442 
L 149.284582 184.208213 
L 149.609561 182.133667 
L 150.25952 180.20057 
L 150.5845 183.754731 
L 150.909479 181.375466 
L 151.559438 179.147028 
L 151.884418 183.27751 
L 152.209397 180.387305 
L 152.859356 178.079003 
L 153.184336 182.793571 
L 153.509315 179.586204 
L 154.159274 177.004625 
L 154.484254 182.320884 
L 154.809233 178.716332 
L 155.459193 175.940233 
L 155.784172 181.853112 
L 156.109152 177.910876 
L 156.434131 176.002621 
L 156.759111 174.880927 
L 157.08409 181.389486 
L 157.40907 177.009838 
L 157.734049 174.929584 
L 158.059029 173.704618 
L 158.384008 180.886897 
L 158.708988 176.171345 
L 159.033967 173.969676 
L 159.358947 172.674932 
L 159.683926 180.453722 
L 160.008906 175.368697 
L 160.333885 172.931951 
L 160.658865 171.366018 
L 160.983844 179.92399 
L 161.308824 174.405435 
L 161.633803 171.899805 
L 161.958783 170.275329 
L 162.283763 179.476221 
L 162.608742 173.576478 
L 162.933722 170.835042 
L 163.258701 169.075591 
L 163.583681 178.992505 
L 163.90866 172.623553 
L 164.23364 169.796358 
L 164.558619 167.966155 
L 164.883599 178.549854 
L 165.208578 171.647829 
L 165.858537 166.758362 
L 166.183517 178.078723 
L 166.508496 170.684849 
L 166.833476 167.602868 
L 167.158455 165.581684 
L 167.483435 177.616557 
L 167.808414 169.810765 
L 168.458374 164.466608 
L 168.783353 177.189028 
L 169.108333 168.861629 
L 169.433312 165.281218 
L 169.758292 163.120222 
L 170.083271 176.677791 
L 170.408251 167.932691 
L 170.73323 164.215702 
L 171.05821 161.967775 
L 171.383189 176.242411 
L 171.708169 166.958584 
L 172.033148 163.032254 
L 172.358128 160.632794 
L 172.683107 175.745652 
L 173.008087 166.024001 
L 173.333066 161.950641 
L 173.658046 159.292764 
L 173.983025 175.269985 
L 174.308005 165.097431 
L 174.632984 160.775095 
L 174.957964 157.953908 
L 175.282944 174.785067 
L 175.607923 164.059149 
L 176.257882 156.715241 
L 176.582862 174.343876 
L 176.907841 163.135953 
L 177.5578 155.401899 
L 177.88278 173.88265 
L 178.207759 161.947837 
L 178.857718 154.059367 
L 179.182698 173.403939 
L 179.507677 161.070258 
L 179.832657 156.343691 
L 180.157636 153.239523 
L 180.482616 173.121468 
L 180.807595 160.53794 
L 181.132575 154.770204 
L 181.457555 151.082118 
L 181.782534 172.385551 
L 182.107514 158.674996 
L 182.432493 153.24925 
L 182.757473 149.863737 
L 183.082452 171.942202 
L 183.407432 157.988214 
L 183.732411 152.538655 
L 184.057391 149.135195 
L 184.38237 171.70966 
L 184.70735 156.547475 
L 185.032329 150.472639 
L 185.357309 146.605035 
L 185.682288 170.84824 
L 186.007268 155.464099 
L 186.657227 145.471716 
L 186.982206 170.49326 
L 187.307186 154.834397 
L 187.957145 144.749029 
L 188.282125 170.274489 
L 188.607104 153.380573 
L 189.257063 142.156967 
L 189.582043 169.417864 
L 189.907022 152.263097 
L 190.556981 141.159622 
L 190.881961 169.095269 
L 191.20694 151.474124 
L 191.856899 140.373238 
L 192.181879 168.860626 
L 192.506858 149.993566 
L 193.156817 137.710534 
L 193.481797 168.004352 
L 193.806776 148.809147 
L 194.456736 136.646235 
L 194.781715 167.66604 
L 195.106695 148.147416 
L 195.756654 135.798358 
L 196.081633 167.418216 
L 196.406613 146.633592 
L 197.056572 133.061671 
L 197.381551 166.557279 
L 197.706531 145.404185 
L 198.35649 131.943503 
L 198.681469 166.207893 
L 199.006449 144.715359 
L 199.656408 129.837269 
L 199.981387 165.661832 
L 200.306367 142.849109 
L 200.956326 127.899254 
L 201.281306 164.998981 
L 201.606285 141.809853 
L 202.256244 126.860824 
L 202.581224 164.693864 
L 202.906203 141.124304 
L 203.556162 125.158018 
L 203.881142 164.233928 
L 204.206121 139.497317 
L 204.85608 123.820383 
L 205.18106 163.711236 
L 205.506039 138.933658 
L 206.155998 121.260252 
L 206.480978 163.237598 
L 206.805957 136.617672 
L 207.455917 118.745874 
L 207.780896 162.454717 
L 208.105876 134.781418 
L 208.755835 117.169014 
L 209.080814 161.858769 
L 209.405794 134.095633 
L 210.055753 116.764442 
L 210.380732 161.698734 
L 210.705712 133.9214 
L 211.355671 114.963826 
L 211.68065 161.164014 
L 212.00563 132.358693 
L 212.655589 111.762342 
L 212.980568 160.505158 
L 213.305548 129.712585 
L 213.955507 110.125864 
L 214.280487 159.919189 
L 214.605466 129.022461 
L 215.255425 107.978993 
L 215.580405 159.282794 
L 215.905384 127.30158 
L 216.555343 107.003535 
L 216.880323 158.910269 
L 217.205302 126.870462 
L 217.855261 106.732427 
L 218.180241 158.813748 
L 218.50522 126.750104 
L 219.155179 105.280355 
L 219.480159 158.937909 
L 219.805138 125.695485 
L 220.455098 105.003538 
L 220.780077 158.889035 
L 221.105057 125.580751 
L 221.755016 104.941081 
L 222.079995 158.892692 
L 222.404975 129.497413 
L 223.054934 113.543081 
L 223.379913 161.747514 
L 223.704893 132.428992 
L 224.354852 115.107349 
L 224.679831 162.307084 
L 225.004811 137.906597 
L 225.65477 125.322024 
L 225.979749 165.245652 
L 226.304729 146.708104 
L 226.954688 137.235691 
L 227.279668 168.313042 
L 227.604647 149.601921 
L 227.929627 173.139011 
L 228.254606 179.552345 
L 228.579586 183.016258 
L 228.904565 184.863171 
L 229.229545 185.874637 
L 229.554524 186.419631 
L 230.204483 186.875683 
L 231.179422 187.034865 
L 234.429217 187.066066 
L 379.370085 187.066152 
L 379.370085 187.066152 
" clip-path="url(#pa03930ce33)" style="fill: none; stroke-dasharray: 0.74,0.32; stroke-dashoffset: 0; stroke: #6b8e23; stroke-width: 0.2"/>
   </g>
   <g id="patch_3">
    <path d="M 38.482813 273.312 
L 38.482813 7.2 
" style="fill: none; stroke: #000000; stroke-width: 0.8; stroke-linejoin: miter; stroke-linecap: square"/>
   </g>
   <g id="patch_4">
    <path d="M 395.602813 273.312 
L 395.602813 7.2 
" style="fill: none; stroke: #000000; stroke-width: 0.8; stroke-linejoin: miter; stroke-linecap: square"/>
   </g>
   <g id="patch_5">
    <path d="M 38.482813 273.312 
L 395.602813 273.312 
" style="fill: none; stroke: #000000; stroke-width: 0.8; stroke-linejoin: miter; stroke-linecap: square"/>
   </g>
   <g id="patch_6">
    <path d="M 38.482813 7.2 
L 395.602813 7.2 
" style="fill: none; stroke: #000000; stroke-width: 0.8; stroke-linejoin: miter; stroke-linecap: square"/>
   </g>
   <g id="legend_1">
    <g id="patch_7">
     <path d="M 240.724688 132.625 
L 388.602813 132.625 
Q 390.602813 132.625 390.602813 130.625 
L 390.602813 14.2 
Q 390.602813 12.2 388.602813 12.2 
L 240.724688 12.2 
Q 238.724688 12.2 238.724688 14.2 
L 238.724688 130.625 
Q 238.724688 132.625 240.724688 132.625 
z
" style="fill: #ffffff; opacity: 0.8; stroke: #cccccc; stroke-linejoin: miter"/>
    </g>
    <g id="line2d_20">
     <path d="M 242.724688 20.298437 
L 252.724688 20.298437 
L 262.724688 20.298437 
" style="fill: none; stroke: #ff4500; stroke-linecap: square"/>
    </g>
    <g id="text_12">
     <text style="font: 10px 'DejaVu Sans', 'Bitstream Vera Sans', 'Computer Modern Sans Serif', 'Lucida Grande', 'Verdana', 'Geneva', 'Lucid', 'Arial', 'Helvetica', 'Avant Garde', sans-serif; text-anchor: start" x="270.724688" y="23.798437" transform="rotate(-0 270.724688 23.798437)">Digital prediction DB1</text>
    </g>
    <g id="line2d_21">
     <path d="M 242.724688 34.976562 
L 252.724688 34.976562 
L 262.724688 34.976562 
" style="fill: none; stroke-dasharray: 0.74,0.32; stroke-dashoffset: 0; stroke: #ff4500; stroke-width: 0.2"/>
    </g>
    <g id="text_13">
     <text style="font: 10px 'DejaVu Sans', 'Bitstream Vera Sans', 'Computer Modern Sans Serif', 'Lucida Grande', 'Verdana', 'Geneva', 'Lucid', 'Arial', 'Helvetica', 'Avant Garde', sans-serif; text-anchor: start" x="270.724688" y="38.476562" transform="rotate(-0 270.724688 38.476562)">Analog prediction DB1</text>
    </g>
    <g id="line2d_22">
     <path d="M 242.724688 49.654687 
L 252.724688 49.654687 
L 262.724688 49.654687 
" style="fill: none; stroke: #c71585; stroke-linecap: square"/>
    </g>
    <g id="text_14">
     <text style="font: 10px 'DejaVu Sans', 'Bitstream Vera Sans', 'Computer Modern Sans Serif', 'Lucida Grande', 'Verdana', 'Geneva', 'Lucid', 'Arial', 'Helvetica', 'Avant Garde', sans-serif; text-anchor: start" x="270.724688" y="53.154687" transform="rotate(-0 270.724688 53.154687)">Digital prediction LUAL</text>
    </g>
    <g id="line2d_23">
     <path d="M 242.724688 64.332812 
L 252.724688 64.332812 
L 262.724688 64.332812 
" style="fill: none; stroke-dasharray: 0.74,0.32; stroke-dashoffset: 0; stroke: #c71585; stroke-width: 0.2"/>
    </g>
    <g id="text_15">
     <text style="font: 10px 'DejaVu Sans', 'Bitstream Vera Sans', 'Computer Modern Sans Serif', 'Lucida Grande', 'Verdana', 'Geneva', 'Lucid', 'Arial', 'Helvetica', 'Avant Garde', sans-serif; text-anchor: start" x="270.724688" y="67.832812" transform="rotate(-0 270.724688 67.832812)">Analog prediction LUAL</text>
    </g>
    <g id="line2d_24">
     <path d="M 242.724688 79.010937 
L 252.724688 79.010937 
L 262.724688 79.010937 
" style="fill: none; stroke: #4682b4; stroke-linecap: square"/>
    </g>
    <g id="text_16">
     <text style="font: 10px 'DejaVu Sans', 'Bitstream Vera Sans', 'Computer Modern Sans Serif', 'Lucida Grande', 'Verdana', 'Geneva', 'Lucid', 'Arial', 'Helvetica', 'Avant Garde', sans-serif; text-anchor: start" x="270.724688" y="82.510937" transform="rotate(-0 270.724688 82.510937)">Digital prediction PVR</text>
    </g>
    <g id="line2d_25">
     <path d="M 242.724688 93.689062 
L 252.724688 93.689062 
L 262.724688 93.689062 
" style="fill: none; stroke-dasharray: 0.74,0.32; stroke-dashoffset: 0; stroke: #4682b4; stroke-width: 0.2"/>
    </g>
    <g id="text_17">
     <text style="font: 10px 'DejaVu Sans', 'Bitstream Vera Sans', 'Computer Modern Sans Serif', 'Lucida Grande', 'Verdana', 'Geneva', 'Lucid', 'Arial', 'Helvetica', 'Avant Garde', sans-serif; text-anchor: start" x="270.724688" y="97.189062" transform="rotate(-0 270.724688 97.189062)">Analog prediction PVR</text>
    </g>
    <g id="line2d_26">
     <path d="M 242.724688 108.367187 
L 252.724688 108.367187 
L 262.724688 108.367187 
" style="fill: none; stroke: #6b8e23; stroke-linecap: square"/>
    </g>
    <g id="text_18">
     <text style="font: 10px 'DejaVu Sans', 'Bitstream Vera Sans', 'Computer Modern Sans Serif', 'Lucida Grande', 'Verdana', 'Geneva', 'Lucid', 'Arial', 'Helvetica', 'Avant Garde', sans-serif; text-anchor: start" x="270.724688" y="111.867187" transform="rotate(-0 270.724688 111.867187)">Digital prediction VB1</text>
    </g>
    <g id="line2d_27">
     <path d="M 242.724688 123.045312 
L 252.724688 123.045312 
L 262.724688 123.045312 
" style="fill: none; stroke-dasharray: 0.74,0.32; stroke-dashoffset: 0; stroke: #6b8e23; stroke-width: 0.2"/>
    </g>
    <g id="text_19">
     <text style="font: 10px 'DejaVu Sans', 'Bitstream Vera Sans', 'Computer Modern Sans Serif', 'Lucida Grande', 'Verdana', 'Geneva', 'Lucid', 'Arial', 'Helvetica', 'Avant Garde', sans-serif; text-anchor: start" x="270.724688" y="126.545312" transform="rotate(-0 270.724688 126.545312)">Analog prediction VB1</text>
    </g>
   </g>
  </g>
 </g>
 <defs>
  <clipPath id="pa03930ce33">
   <rect x="38.482813" y="7.2" width="357.12" height="266.112"/>
  </clipPath>
 </defs>
</svg>
