<?xml version="1.0" encoding="UTF-8" standalone="no"?>
<svg
   width="630"
   height="185"
   viewBox="0 0 630 185"
   version="1.1"
   id="svg8"
   sodipodi:docname="lstmUse.svg"
   xml:space="preserve"
   inkscape:version="1.3 (0e150ed6c4, 2023-07-21)"
   xmlns:inkscape="http://www.inkscape.org/namespaces/inkscape"
   xmlns:sodipodi="http://sodipodi.sourceforge.net/DTD/sodipodi-0.dtd"
   xmlns="http://www.w3.org/2000/svg"
   xmlns:svg="http://www.w3.org/2000/svg"
   xmlns:rdf="http://www.w3.org/1999/02/22-rdf-syntax-ns#"
   xmlns:cc="http://creativecommons.org/ns#"
   xmlns:dc="http://purl.org/dc/elements/1.1/"><sodipodi:namedview
   id="namedview945"
   pagecolor="#ffffff"
   bordercolor="#000000"
   borderopacity="0.25"
   inkscape:showpageshadow="2"
   inkscape:pageopacity="0.0"
   inkscape:pagecheckerboard="0"
   inkscape:deskcolor="#d1d1d1"
   inkscape:document-units="px"
   showgrid="false"
   inkscape:zoom="2.2231438"
   inkscape:cx="165.53135"
   inkscape:cy="181.27482"
   inkscape:window-width="1920"
   inkscape:window-height="1010"
   inkscape:window-x="0"
   inkscape:window-y="33"
   inkscape:window-maximized="0"
   inkscape:current-layer="NN-9" /><title
   id="title1438">LSTM Use</title><defs
   id="defs2"><marker
     style="overflow:visible"
     id="arrow-3"
     refX="0"
     refY="0"
     orient="auto-start-reverse"
     markerWidth="4.2071066"
     markerHeight="7"
     viewBox="0 0 4.2071068 7"
     inkscape:isstock="true"
     inkscape:collect="always"
     preserveAspectRatio="xMidYMid"><path
   style="fill:none;stroke:context-stroke;stroke-width:1;stroke-linecap:round"
   d="M 3,-3 0,0 3,3"
   id="arrow3-6"
   transform="rotate(180,0.125,0)"
   sodipodi:nodetypes="ccc" />&#10;</marker></defs>&#10;<metadata
   id="metadata1990"><rdf:RDF><cc:Work
       rdf:about=""><dc:title>LSTM Cell</dc:title></cc:Work></rdf:RDF></metadata><g
   id="cell-7"
   transform="matrix(0.5,0,0,0.5,-29.25,-18.56434)"><rect
   id="background-5"
   width="520"
   height="320"
   x="100"
   y="40"
   ry="36"
   fill="#4ec2a7"
   rx="36" />&#10;<g
   id="pointwise-3"><circle
     id="mult1-5"
     cx="180"
     cy="100"
     r="20"
     stroke="none"
     fill="#e5ff5b" /><circle
     id="mult2-6"
     cx="392"
     cy="165"
     r="20"
     stroke="none"
     fill="#e5ff5b" /><circle
     id="mult3-2"
     cx="570"
     cy="300"
     r="20"
     stroke="none"
     fill="#e5ff5b" /><circle
     id="add-9"
     cx="392"
     cy="100"
     r="20"
     stroke="none"
     fill="#e5ff5b" /><rect
     y="170"
     x="540"
     height="40"
     width="60"
     id="tanh2-1"
     ry="20"
     fill="#e5ff5b"
     rx="20" /><text
     x="570.65002"
     y="197.5"
     id="textTanhPointwise-2"
     fill="#4d4d4d"
     stroke="none"
     font-size="20px"
     text-anchor="middle">\acs{tanh}</text><g
     id="plusSign-7"><line
       x1="392"
       x2="392"
       y1="110"
       y2="90"
       stroke-width="2"
       stroke="#4d4d4d"
       id="plus1-0" /><line
       x1="402"
       x2="382"
       y1="100"
       y2="100"
       stroke-width="2"
       stroke="#4d4d4d"
       id="plus2-9" /></g><g
     id="multSign1-3"><line
       x1="170"
       x2="190"
       y1="110"
       y2="90"
       stroke-width="2"
       stroke="#4d4d4d"
       id="line1773-6" /><line
       x1="190"
       x2="170"
       y1="110"
       y2="90"
       stroke-width="2"
       stroke="#4d4d4d"
       id="line1771-0" /></g><g
     id="multSign3-6"><line
       x1="560"
       x2="580"
       y1="310"
       y2="290"
       stroke-width="2"
       stroke="#4d4d4d"
       id="mult2-9-2" /><line
       x1="580"
       x2="560"
       y1="310"
       y2="290"
       stroke-width="2"
       stroke="#4d4d4d"
       id="mult1-3-6" /></g><g
     id="multSign2-1"><line
       x1="402"
       x2="382"
       y1="175"
       y2="155"
       stroke-width="2"
       stroke="#4d4d4d"
       id="mult2-0-8" /><line
       x1="402"
       x2="382"
       y1="155"
       y2="175"
       stroke-width="2"
       stroke="#4d4d4d"
       id="mult1-6-7" /></g></g><g
   id="NN-9"><rect
     id="tanhNN-2"
     width="80"
     height="40"
     x="352"
     y="210"
     fill="#ff9955"
     stroke="none" /><text
     x="392"
     y="235"
     id="textTanh-0"
     fill="#4d4d4d"
     stroke="none"
     font-size="12px"
     text-anchor="middle">\acs{tanh}</text><rect
     id="sigmoid3-2"
     width="80"
     height="40"
     x="432"
     y="280"
     fill="#ff9955"
     stroke="none" /><text
     x="472"
     y="304"
     id="textSig3-3"
     fill="#4d4d4d"
     stroke="none"
     font-size="12px"
     text-anchor="middle">$\sigma$</text><rect
     id="sigmoid2-7"
     width="80"
     height="40"
     x="247"
     y="210"
     fill="#ff9955"
     stroke="none" /><text
     x="287"
     y="235"
     id="textSig2-5"
     fill="#4d4d4d"
     stroke="none"
     font-size="12px"
     text-anchor="middle">$\sigma$</text><rect
     id="sigmoid1-9"
     width="80"
     height="40"
     x="140"
     y="210"
     fill="#ff9955"
     stroke="none" /><text
     x="180"
     y="235"
     id="textSig1-2"
     fill="#4d4d4d"
     stroke="none"
     font-size="12px"
     text-anchor="middle">$\sigma$</text></g><g
   id="paths-2"><line
     x1="392"
     x2="392"
     y1="210"
     y2="187"
     stroke-width="3"
     stroke="#4d4d4d"
     marker-end="url(#arrow-3)"
     id="line1963-8"
     style="marker-end:url(#arrow-3)" /><line
     x1="392"
     x2="392"
     y1="145"
     y2="122"
     stroke-width="3"
     stroke="#4d4d4d"
     marker-end="url(#arrow-3)"
     id="line2540-9"
     style="marker-end:url(#arrow-3)" /><line
     x1="570"
     x2="570"
     y1="210"
     y2="278"
     stroke-width="3"
     stroke="#4d4d4d"
     marker-end="url(#arrow-3)"
     id="line2545-7"
     style="marker-end:url(#arrow-3)" /><line
     x1="180"
     x2="180"
     y1="210"
     y2="122"
     stroke-width="3"
     stroke="#4d4d4d"
     marker-end="url(#arrow-3)"
     id="line2541-3"
     style="marker-end:url(#arrow-3)" /><line
     x1="60"
     x2="430"
     y1="300"
     y2="300"
     stroke-width="3"
     stroke="#4d4d4d"
     id="line25415-6"
     marker-end="url(#arrow-3)"
     style="marker-end:url(#arrow-3)" /><line
     x1="590"
     x2="690"
     y1="300"
     y2="300"
     stroke-width="3"
     stroke="#4d4d4d"
     id="line25411-1"
     marker-end="url(#arrow-3)"
     style="marker-end:url(#arrow-3)" /><line
     x1="412"
     x2="690"
     y1="100"
     y2="100"
     stroke-width="3"
     stroke="#4d4d4d"
     id="line25419-2"
     marker-end="url(#arrow-3)"
     style="marker-end:url(#arrow-3)" /><line
     x1="200"
     x2="370"
     y1="100"
     y2="100"
     stroke-width="3"
     stroke="#4d4d4d"
     id="line254153-9"
     marker-end="url(#arrow-3)"
     style="marker-end:url(#arrow-3)" /><line
     x2="548"
     y1="300"
     y2="300"
     stroke-width="3"
     stroke="#4d4d4d"
     id="line1103-3"
     marker-end="url(#arrow-3)"
     x1="512"
     style="marker-end:url(#arrow-3)" /><line
     x1="60"
     x2="158"
     y1="100"
     y2="100"
     stroke-width="3"
     stroke="#4d4d4d"
     id="line25416-1"
     marker-end="url(#arrow-3)"
     style="marker-end:url(#arrow-3)" /><path
     id="path16"
     d="m 636,300 a 24,24 0 0 0 24,-24 V 40"
     fill="none"
     stroke="#4d4d4d"
     stroke-width="3"
     marker-end="url(#arrow-3)"
     style="marker-end:url(#arrow-3)" /><path
     d="m 60,360 a 60,60 0 0 1 60,-60"
     id="path17"
     fill="none"
     stroke="#4d4d4d"
     stroke-width="3" /><path
     id="path18"
     d="m 287,210 a 45,45 0 0 1 45,-45 h 38"
     fill="none"
     stroke="#4d4d4d"
     stroke-width="3"
     marker-end="url(#arrow-3)"
     sodipodi:nodetypes="cc"
     style="marker-end:url(#arrow-3)" /><path
     id="path19"
     d="m 376,300 a 16,16 0 0 0 16,-16 v -32"
     stroke="#4d4d4d"
     fill="none"
     stroke-width="3"
     marker-end="url(#arrow-3)"
     sodipodi:nodetypes="ccc"
     style="marker-end:url(#arrow-3)" /><path
     id="path20"
     d="m 271,300 a 16,16 0 0 0 16,-16 v -32"
     stroke="#4d4d4d"
     fill="none"
     stroke-width="3"
     marker-end="url(#arrow-3)"
     style="marker-end:url(#arrow-3)" /><path
     id="path21"
     d="m 164,300 a 16,16 0 0 0 16,-16 v -32"
     stroke="#4d4d4d"
     fill="none"
     stroke-width="3"
     marker-end="url(#arrow-3)"
     style="marker-end:url(#arrow-3)" /><path
     id="path22"
     d="m 554,100 a 16,16 0 0 1 16,16 v 52"
     stroke="#4d4d4d"
     fill="none"
     stroke-width="3"
     marker-end="url(#arrow-3)"
     sodipodi:nodetypes="csc"
     style="marker-end:url(#arrow-3)" /></g></g><text
   x="158"
   y="180"
   id="text351"
   fill="#4d4d4d"
   stroke="none"
   font-size="20px"
   text-anchor="middle">\Large \ac{LSTM} at time $t$</text><text
   x="473"
   y="180"
   id="text290"
   fill="#4d4d4d"
   stroke="none"
   font-size="20px"
   text-anchor="middle">\Large \ac{LSTM} at time $t+1$</text>&#10;<g
   id="g31"
   transform="matrix(0.5,0,0,0.5,285.75,-18.56434)"><rect
   id="rect1"
   width="520"
   height="320"
   x="100"
   y="40"
   ry="36"
   fill="#4ec2a7"
   rx="36" />&#10;<g
   id="g12"><circle
     id="circle1"
     cx="180"
     cy="100"
     r="20"
     stroke="none"
     fill="#e5ff5b" /><circle
     id="circle2"
     cx="392"
     cy="165"
     r="20"
     stroke="none"
     fill="#e5ff5b" /><circle
     id="circle3"
     cx="570"
     cy="300"
     r="20"
     stroke="none"
     fill="#e5ff5b" /><circle
     id="circle4"
     cx="392"
     cy="100"
     r="20"
     stroke="none"
     fill="#e5ff5b" /><rect
     y="170"
     x="540"
     height="40"
     width="60"
     id="rect4"
     ry="20"
     fill="#e5ff5b"
     rx="20" /><text
     x="570.65002"
     y="197.5"
     id="text4"
     fill="#4d4d4d"
     stroke="none"
     font-size="20px"
     text-anchor="middle">\acs{tanh}</text><g
     id="g5"><line
       x1="392"
       x2="392"
       y1="110"
       y2="90"
       stroke-width="2"
       stroke="#4d4d4d"
       id="line4" /><line
       x1="402"
       x2="382"
       y1="100"
       y2="100"
       stroke-width="2"
       stroke="#4d4d4d"
       id="line5" /></g><g
     id="g7"><line
       x1="170"
       x2="190"
       y1="110"
       y2="90"
       stroke-width="2"
       stroke="#4d4d4d"
       id="line6" /><line
       x1="190"
       x2="170"
       y1="110"
       y2="90"
       stroke-width="2"
       stroke="#4d4d4d"
       id="line7" /></g><g
     id="g9"><line
       x1="560"
       x2="580"
       y1="310"
       y2="290"
       stroke-width="2"
       stroke="#4d4d4d"
       id="line8" /><line
       x1="580"
       x2="560"
       y1="310"
       y2="290"
       stroke-width="2"
       stroke="#4d4d4d"
       id="line9" /></g><g
     id="g11"><line
       x1="402"
       x2="382"
       y1="175"
       y2="155"
       stroke-width="2"
       stroke="#4d4d4d"
       id="line10" /><line
       x1="402"
       x2="382"
       y1="155"
       y2="175"
       stroke-width="2"
       stroke="#4d4d4d"
       id="line11" /></g></g><g
   id="g15"><rect
     id="rect12"
     width="80"
     height="40"
     x="352"
     y="210"
     fill="#ff9955"
     stroke="none" /><text
     x="392"
     y="235"
     id="text12"
     fill="#4d4d4d"
     stroke="none"
     font-size="12px"
     text-anchor="middle">\acs{tanh}</text><rect
     id="rect13"
     width="80"
     height="40"
     x="432"
     y="280"
     fill="#ff9955"
     stroke="none" /><text
     x="472"
     y="304"
     id="text13"
     fill="#4d4d4d"
     stroke="none"
     font-size="12px"
     text-anchor="middle">$\sigma$</text><rect
     id="rect14"
     width="80"
     height="40"
     x="247"
     y="210"
     fill="#ff9955"
     stroke="none" /><text
     x="287"
     y="235"
     id="text14"
     fill="#4d4d4d"
     stroke="none"
     font-size="12px"
     text-anchor="middle">$\sigma$</text><rect
     id="rect15"
     width="80"
     height="40"
     x="140"
     y="210"
     fill="#ff9955"
     stroke="none" /><text
     x="180"
     y="235"
     id="text15"
     fill="#4d4d4d"
     stroke="none"
     font-size="12px"
     text-anchor="middle">$\sigma$</text></g><g
   id="g30"><line
     x1="392"
     x2="392"
     y1="210"
     y2="187"
     stroke-width="3"
     stroke="#4d4d4d"
     marker-end="url(#arrow-3)"
     id="line15"
     style="marker-end:url(#arrow-3)" /><line
     x1="392"
     x2="392"
     y1="145"
     y2="122"
     stroke-width="3"
     stroke="#4d4d4d"
     marker-end="url(#arrow-3)"
     id="line16"
     style="marker-end:url(#arrow-3)" /><line
     x1="570"
     x2="570"
     y1="210"
     y2="278"
     stroke-width="3"
     stroke="#4d4d4d"
     marker-end="url(#arrow-3)"
     id="line17"
     style="marker-end:url(#arrow-3)" /><line
     x1="180"
     x2="180"
     y1="210"
     y2="122"
     stroke-width="3"
     stroke="#4d4d4d"
     marker-end="url(#arrow-3)"
     id="line18"
     style="marker-end:url(#arrow-3)" /><line
     x1="60"
     x2="430"
     y1="300"
     y2="300"
     stroke-width="3"
     stroke="#4d4d4d"
     id="line19"
     marker-end="url(#arrow-3)"
     style="marker-end:url(#arrow-3)" /><line
     x1="590"
     x2="690"
     y1="300"
     y2="300"
     stroke-width="3"
     stroke="#4d4d4d"
     id="line20"
     marker-end="url(#arrow-3)"
     style="marker-end:url(#arrow-3)" /><line
     x1="412"
     x2="690"
     y1="100"
     y2="100"
     stroke-width="3"
     stroke="#4d4d4d"
     id="line21"
     marker-end="url(#arrow-3)"
     style="marker-end:url(#arrow-3)" /><line
     x1="200"
     x2="370"
     y1="100"
     y2="100"
     stroke-width="3"
     stroke="#4d4d4d"
     id="line22"
     marker-end="url(#arrow-3)"
     style="marker-end:url(#arrow-3)" /><line
     x2="548"
     y1="300"
     y2="300"
     stroke-width="3"
     stroke="#4d4d4d"
     id="line23"
     marker-end="url(#arrow-3)"
     x1="512"
     style="marker-end:url(#arrow-3)" /><line
     x1="60"
     x2="158"
     y1="100"
     y2="100"
     stroke-width="3"
     stroke="#4d4d4d"
     id="line24"
     marker-end="url(#arrow-3)"
     style="marker-end:url(#arrow-3)" /><path
     id="path24"
     d="m 636,300 a 24,24 0 0 0 24,-24 V 40"
     fill="none"
     stroke="#4d4d4d"
     stroke-width="3"
     marker-end="url(#arrow-3)"
     style="marker-end:url(#arrow-3)" /><path
     d="m 60,360 a 60,60 0 0 1 60,-60"
     id="path25"
     fill="none"
     stroke="#4d4d4d"
     stroke-width="3" /><path
     id="path26"
     d="m 287,210 a 45,45 0 0 1 45,-45 h 38"
     fill="none"
     stroke="#4d4d4d"
     stroke-width="3"
     marker-end="url(#arrow-3)"
     sodipodi:nodetypes="cc"
     style="marker-end:url(#arrow-3)" /><path
     id="path27"
     d="m 376,300 a 16,16 0 0 0 16,-16 v -32"
     stroke="#4d4d4d"
     fill="none"
     stroke-width="3"
     marker-end="url(#arrow-3)"
     sodipodi:nodetypes="ccc"
     style="marker-end:url(#arrow-3)" /><path
     id="path28"
     d="m 271,300 a 16,16 0 0 0 16,-16 v -32"
     stroke="#4d4d4d"
     fill="none"
     stroke-width="3"
     marker-end="url(#arrow-3)"
     style="marker-end:url(#arrow-3)" /><path
     id="path29"
     d="m 164,300 a 16,16 0 0 0 16,-16 v -32"
     stroke="#4d4d4d"
     fill="none"
     stroke-width="3"
     marker-end="url(#arrow-3)"
     style="marker-end:url(#arrow-3)" /><path
     id="path30"
     d="m 554,100 a 16,16 0 0 1 16,16 v 52"
     stroke="#4d4d4d"
     fill="none"
     stroke-width="3"
     marker-end="url(#arrow-3)"
     sodipodi:nodetypes="csc"
     style="marker-end:url(#arrow-3)" /></g></g></svg>
