<?xml version="1.0" encoding="UTF-8" standalone="no"?>
<svg
   width="720px"
   height="500px"
   viewBox="0 0 720 500"
   version="1.1"
   id="svg8"
   sodipodi:docname="lstmUse.svg"
   xml:space="preserve"
   inkscape:version="1.2.2 (b0a8486541, 2022-12-01)"
   xmlns:inkscape="http://www.inkscape.org/namespaces/inkscape"
   xmlns:sodipodi="http://sodipodi.sourceforge.net/DTD/sodipodi-0.dtd"
   xmlns="http://www.w3.org/2000/svg"
   xmlns:svg="http://www.w3.org/2000/svg"
   xmlns:rdf="http://www.w3.org/1999/02/22-rdf-syntax-ns#"
   xmlns:cc="http://creativecommons.org/ns#"
   xmlns:dc="http://purl.org/dc/elements/1.1/"><sodipodi:namedview
   id="namedview945"
   pagecolor="#ffffff"
   bordercolor="#000000"
   borderopacity="0.25"
   inkscape:showpageshadow="2"
   inkscape:pageopacity="0.0"
   inkscape:pagecheckerboard="0"
   inkscape:deskcolor="#d1d1d1"
   inkscape:document-units="px"
   showgrid="false"
   inkscape:zoom="1.1115719"
   inkscape:cx="297.32671"
   inkscape:cy="233.90301"
   inkscape:window-width="1904"
   inkscape:window-height="995"
   inkscape:window-x="8"
   inkscape:window-y="40"
   inkscape:window-maximized="0"
   inkscape:current-layer="cell" /><title
   id="title1438">LSTM Cell</title><defs
   id="defs2"><marker
     id="arrow"
     viewBox="0 0 10 10"
     refX="5"
     refY="5"
     markerWidth="6"
     markerHeight="6"
     orient="auto-start-reverse">
<path
   d="m 0.5,0 5,5 -5,5"
   fill="none"
   stroke="#4d4d4d"
   id="path3913" />
</marker></defs>
<g
   id="cell"
   inkscape:label="step"><circle
   id="input"
   cx="190"
   cy="435"
   r="25"
   stroke="none"
   fill="#5599ff" /><line
   x1="190"
   x2="190"
   y1="410"
   y2="370"
   stroke-width="3"
   stroke="#4d4d4d"
   marker-end="url(#arrow)"
   id="line0" /><rect
   id="lstm"
   width="200"
   height="120"
   x="90"
   y="250"
   fill="#4ec2a7"
   ry="15.442685"
   style="fill:#4ec2a7;fill-opacity:1" /><line
   x1="190"
   x2="190"
   y1="250"
   y2="210"
   stroke-width="3"
   stroke="#4d4d4d"
   marker-end="url(#arrow)"
   id="line1" /><rect
   id="FC"
   width="160"
   height="60"
   x="110"
   y="150"
   fill="#ffdd55"
   ry="15.442685" /><line
   x1="190"
   x2="190"
   y1="150"
   y2="110"
   stroke-width="3"
   stroke="#4d4d4d"
   marker-end="url(#arrow)"
   id="line2" /><circle
   id="ouput"
   cx="190"
   cy="85"
   r="25"
   stroke="none"
   fill="#ffaa55" />

</g><g
   id="paths"
   style="display:none"><line
     x1="392"
     x2="392"
     y1="210"
     y2="187"
     stroke-width="3"
     stroke="#4d4d4d"
     marker-end="url(#arrow)"
     id="line1963" /><line
     x1="392"
     x2="392"
     y1="145"
     y2="122"
     stroke-width="3"
     stroke="#4d4d4d"
     marker-end="url(#arrow)"
     id="line2540" /><line
     x1="570"
     x2="570"
     y1="210"
     y2="278"
     stroke-width="3"
     stroke="#4d4d4d"
     marker-end="url(#arrow)"
     id="line2545" /><line
     x1="180"
     x2="180"
     y1="210"
     y2="122"
     stroke-width="3"
     stroke="#4d4d4d"
     marker-end="url(#arrow)"
     id="line2541" /><line
     x1="60"
     x2="430"
     y1="300"
     y2="300"
     stroke-width="3"
     stroke="#4d4d4d"
     id="line25415"
     marker-end="url(#arrow)" /><line
     x1="590"
     x2="690"
     y1="300"
     y2="300"
     stroke-width="3"
     stroke="#4d4d4d"
     id="line25411"
     marker-end="url(#arrow)" /><line
     x1="412"
     x2="690"
     y1="100"
     y2="100"
     stroke-width="3"
     stroke="#4d4d4d"
     id="line25419"
     marker-end="url(#arrow-8)" /><line
     x1="200"
     x2="370"
     y1="100"
     y2="100"
     stroke-width="3"
     stroke="#4d4d4d"
     id="line254153"
     marker-end="url(#arrow)" /><line
     x2="548"
     y1="300"
     y2="300"
     stroke-width="3"
     stroke="#4d4d4d"
     id="line1103"
     marker-end="url(#arrow)"
     x1="512" /><line
     x1="60"
     x2="158"
     y1="100"
     y2="100"
     stroke-width="3"
     stroke="#4d4d4d"
     id="line25416"
     marker-end="url(#arrow)" /><path
     id="path1892"
     d="m 287,210 c 0.43338,-56.45453 51.84789,-43.37963 82.54712,-44.96413"
     fill="none"
     stroke="#4d4d4d"
     stroke-width="3"
     marker-end="url(#arrow)"
     sodipodi:nodetypes="cc" /><path
     id="path192"
     d="m 636.42668,299.99816 c 0,0 21.64618,0.15995 21.85079,-23.71744 0.40497,-10.19791 0,-236.737931 0,-236.737931"
     fill="none"
     stroke="#4d4d4d"
     stroke-width="3"
     marker-end="url(#arrow)" /><path
     d="m 61.492306,361.31768 c 0.101196,-41.22491 18.660508,-61.59551 65.486864,-61.31485"
     id="path1992"
     fill="none"
     stroke="#4d4d4d"
     stroke-width="3"
     sodipodi:nodetypes="cc" /><path
     id="path1860"
     d="m 372.05696,299.9881 c 0,0 21.69481,0.82441 22.10415,-9.48063 0.40924,-10.30503 -0.32695,-38.56727 -0.32695,-38.56727"
     stroke="#4d4d4d"
     fill="none"
     stroke-width="3"
     marker-end="url(#arrow)"
     sodipodi:nodetypes="ccc" /><path
     id="path1869"
     d="m 265.48908,298.8825 c 0,0 21.69481,0.82441 22.10415,-9.48063 0.40924,-10.30503 -0.31985,-37.09669 -0.31985,-37.09669"
     stroke="#4d4d4d"
     fill="none"
     stroke-width="3"
     marker-end="url(#arrow)"
     sodipodi:nodetypes="ccc" /><path
     id="path18699"
     d="m 157.55696,299.98831 c 0,0 22.77016,0.96057 23.1795,-9.34447 0.40924,-10.30503 0.0391,-38.51671 0.0391,-38.51671"
     stroke="#4d4d4d"
     fill="none"
     stroke-width="3"
     marker-end="url(#arrow)"
     sodipodi:nodetypes="ccc" /><path
     id="path1865"
     d="m 550,100 c 0,0 14.11102,1.79397 16.84146,7.15874 C 570.3206,113.99456 568.5,168 568.5,168"
     stroke="#4d4d4d"
     fill="none"
     stroke-width="3"
     marker-end="url(#arrow)"
     sodipodi:nodetypes="csc" /></g><metadata
   id="metadata1990"><rdf:RDF><cc:Work
       rdf:about=""><dc:title>LSTM Cell</dc:title></cc:Work></rdf:RDF></metadata></svg>
