<?xml version="1.0" encoding="UTF-8" standalone="no"?>
<svg
   width="520"
   height="400"
   viewBox="0 0 520 400"
   version="1.1"
   id="svg8"
   sodipodi:docname="lstmUse.svg"
   xml:space="preserve"
   inkscape:version="1.2.2 (b0a8486541, 2022-12-01)"
   xmlns:inkscape="http://www.inkscape.org/namespaces/inkscape"
   xmlns:sodipodi="http://sodipodi.sourceforge.net/DTD/sodipodi-0.dtd"
   xmlns="http://www.w3.org/2000/svg"
   xmlns:svg="http://www.w3.org/2000/svg"
   xmlns:rdf="http://www.w3.org/1999/02/22-rdf-syntax-ns#"
   xmlns:cc="http://creativecommons.org/ns#"
   xmlns:dc="http://purl.org/dc/elements/1.1/"><sodipodi:namedview
   id="namedview945"
   pagecolor="#ffffff"
   bordercolor="#000000"
   borderopacity="0.25"
   inkscape:showpageshadow="2"
   inkscape:pageopacity="0.0"
   inkscape:pagecheckerboard="0"
   inkscape:deskcolor="#d1d1d1"
   inkscape:document-units="px"
   showgrid="false"
   inkscape:zoom="1.1115719"
   inkscape:cx="298.22632"
   inkscape:cy="233.903"
   inkscape:window-width="1904"
   inkscape:window-height="995"
   inkscape:window-x="8"
   inkscape:window-y="40"
   inkscape:window-maximized="0"
   inkscape:current-layer="svg8" /><title
   id="title1438">LSTM Cell</title><defs
   id="defs2"><marker
     id="arrow"
     viewBox="0 0 10 10"
     refX="5"
     refY="5"
     markerWidth="6"
     markerHeight="6"
     orient="auto-start-reverse">
<path
   d="m 0.5,0 5,5 -5,5"
   fill="none"
   stroke="#4d4d4d"
   id="path3913" />
</marker><marker
     id="arrow-3"
     viewBox="0 0 10 10"
     refX="5"
     refY="5"
     markerWidth="6"
     markerHeight="6"
     orient="auto-start-reverse">
<path
   d="m 0.5,0 5,5 -5,5"
   fill="none"
   stroke="#4d4d4d"
   id="path3913-6" />
</marker><marker
     id="marker149"
     viewBox="0 0 10 10"
     refX="5"
     refY="5"
     markerWidth="6"
     markerHeight="6"
     orient="auto-start-reverse">
<path
   d="m 0.5,0 5,5 -5,5"
   fill="none"
   stroke="#4d4d4d"
   id="path147" />
</marker><marker
     id="marker153"
     viewBox="0 0 10 10"
     refX="5"
     refY="5"
     markerWidth="6"
     markerHeight="6"
     orient="auto-start-reverse">
<path
   d="m 0.5,0 5,5 -5,5"
   fill="none"
   stroke="#4d4d4d"
   id="path151" />
</marker><marker
     id="arrow-2"
     viewBox="0 0 10 10"
     refX="5"
     refY="5"
     markerWidth="6"
     markerHeight="6"
     orient="auto-start-reverse">
<path
   d="m 0.5,0 5,5 -5,5"
   fill="none"
   stroke="#4d4d4d"
   id="path3913-7" />
</marker><marker
     id="arrow-9"
     viewBox="0 0 10 10"
     refX="5"
     refY="5"
     markerWidth="6"
     markerHeight="6"
     orient="auto-start-reverse">
<path
   d="m 0.5,0 5,5 -5,5"
   fill="none"
   stroke="#4d4d4d"
   id="path3913-3" />
</marker><marker
     id="arrow-0"
     viewBox="0 0 10 10"
     refX="5"
     refY="5"
     markerWidth="6"
     markerHeight="6"
     orient="auto-start-reverse">
<path
   d="m 0.5,0 5,5 -5,5"
   fill="none"
   stroke="#4d4d4d"
   id="path3913-62" />
</marker><marker
     id="arrow-1"
     viewBox="0 0 10 10"
     refX="5"
     refY="5"
     markerWidth="6"
     markerHeight="6"
     orient="auto-start-reverse">
<path
   d="m 0.5,0 5,5 -5,5"
   fill="none"
   stroke="#4d4d4d"
   id="path3913-8" />
</marker><marker
     id="marker374"
     viewBox="0 0 10 10"
     refX="5"
     refY="5"
     markerWidth="6"
     markerHeight="6"
     orient="auto-start-reverse">
<path
   d="m 0.5,0 5,5 -5,5"
   fill="none"
   stroke="#4d4d4d"
   id="path372" />
</marker><marker
     id="marker378"
     viewBox="0 0 10 10"
     refX="5"
     refY="5"
     markerWidth="6"
     markerHeight="6"
     orient="auto-start-reverse">
<path
   d="m 0.5,0 5,5 -5,5"
   fill="none"
   stroke="#4d4d4d"
   id="path376" />
</marker><marker
     id="arrow-92"
     viewBox="0 0 10 10"
     refX="5"
     refY="5"
     markerWidth="6"
     markerHeight="6"
     orient="auto-start-reverse">
<path
   d="m 0.5,0 5,5 -5,5"
   fill="none"
   stroke="#4d4d4d"
   id="path3913-2" />
</marker><marker
     id="arrow-97"
     viewBox="0 0 10 10"
     refX="5"
     refY="5"
     markerWidth="6"
     markerHeight="6"
     orient="auto-start-reverse">
<path
   d="m 0.5,0 5,5 -5,5"
   fill="none"
   stroke="#4d4d4d"
   id="path3913-36" />
</marker><marker
     id="marker777"
     viewBox="0 0 10 10"
     refX="5"
     refY="5"
     markerWidth="6"
     markerHeight="6"
     orient="auto-start-reverse">
<path
   d="m 0.5,0 5,5 -5,5"
   fill="none"
   stroke="#4d4d4d"
   id="path775" />
</marker><marker
     id="marker781"
     viewBox="0 0 10 10"
     refX="5"
     refY="5"
     markerWidth="6"
     markerHeight="6"
     orient="auto-start-reverse">
<path
   d="m 0.5,0 5,5 -5,5"
   fill="none"
   stroke="#4d4d4d"
   id="path779" />
</marker><marker
     id="marker785"
     viewBox="0 0 10 10"
     refX="5"
     refY="5"
     markerWidth="6"
     markerHeight="6"
     orient="auto-start-reverse">
<path
   d="m 0.5,0 5,5 -5,5"
   fill="none"
   stroke="#4d4d4d"
   id="path783" />
</marker><marker
     id="marker789"
     viewBox="0 0 10 10"
     refX="5"
     refY="5"
     markerWidth="6"
     markerHeight="6"
     orient="auto-start-reverse">
<path
   d="m 0.5,0 5,5 -5,5"
   fill="none"
   stroke="#4d4d4d"
   id="path787" />
</marker><marker
     id="marker793"
     viewBox="0 0 10 10"
     refX="5"
     refY="5"
     markerWidth="6"
     markerHeight="6"
     orient="auto-start-reverse">
<path
   d="m 0.5,0 5,5 -5,5"
   fill="none"
   stroke="#4d4d4d"
   id="path791" />
</marker><marker
     id="marker797"
     viewBox="0 0 10 10"
     refX="5"
     refY="5"
     markerWidth="6"
     markerHeight="6"
     orient="auto-start-reverse">
<path
   d="m 0.5,0 5,5 -5,5"
   fill="none"
   stroke="#4d4d4d"
   id="path795" />
</marker><marker
     id="marker801"
     viewBox="0 0 10 10"
     refX="5"
     refY="5"
     markerWidth="6"
     markerHeight="6"
     orient="auto-start-reverse">
<path
   d="m 0.5,0 5,5 -5,5"
   fill="none"
   stroke="#4d4d4d"
   id="path799" />
</marker><marker
     id="marker805"
     viewBox="0 0 10 10"
     refX="5"
     refY="5"
     markerWidth="6"
     markerHeight="6"
     orient="auto-start-reverse">
<path
   d="m 0.5,0 5,5 -5,5"
   fill="none"
   stroke="#4d4d4d"
   id="path803" />
</marker><marker
     id="marker809"
     viewBox="0 0 10 10"
     refX="5"
     refY="5"
     markerWidth="6"
     markerHeight="6"
     orient="auto-start-reverse">
<path
   d="m 0.5,0 5,5 -5,5"
   fill="none"
   stroke="#4d4d4d"
   id="path807" />
</marker><marker
     id="marker813"
     viewBox="0 0 10 10"
     refX="5"
     refY="5"
     markerWidth="6"
     markerHeight="6"
     orient="auto-start-reverse">
<path
   d="m 0.5,0 5,5 -5,5"
   fill="none"
   stroke="#4d4d4d"
   id="path811" />
</marker><marker
     id="marker817"
     viewBox="0 0 10 10"
     refX="5"
     refY="5"
     markerWidth="6"
     markerHeight="6"
     orient="auto-start-reverse">
<path
   d="m 0.5,0 5,5 -5,5"
   fill="none"
   stroke="#4d4d4d"
   id="path815" />
</marker><marker
     id="marker821"
     viewBox="0 0 10 10"
     refX="5"
     refY="5"
     markerWidth="6"
     markerHeight="6"
     orient="auto-start-reverse">
<path
   d="m 0.5,0 5,5 -5,5"
   fill="none"
   stroke="#4d4d4d"
   id="path819" />
</marker><marker
     id="marker825"
     viewBox="0 0 10 10"
     refX="5"
     refY="5"
     markerWidth="6"
     markerHeight="6"
     orient="auto-start-reverse">
<path
   d="m 0.5,0 5,5 -5,5"
   fill="none"
   stroke="#4d4d4d"
   id="path823" />
</marker><marker
     id="marker829"
     viewBox="0 0 10 10"
     refX="5"
     refY="5"
     markerWidth="6"
     markerHeight="6"
     orient="auto-start-reverse">
<path
   d="m 0.5,0 5,5 -5,5"
   fill="none"
   stroke="#4d4d4d"
   id="path827" />
</marker><marker
     id="arrow-97-2"
     viewBox="0 0 10 10"
     refX="5"
     refY="5"
     markerWidth="6"
     markerHeight="6"
     orient="auto-start-reverse">
<path
   d="m 0.5,0 5,5 -5,5"
   fill="none"
   stroke="#4d4d4d"
   id="path3913-36-9" />
</marker><marker
     id="marker1366"
     viewBox="0 0 10 10"
     refX="5"
     refY="5"
     markerWidth="6"
     markerHeight="6"
     orient="auto-start-reverse">
<path
   d="m 0.5,0 5,5 -5,5"
   fill="none"
   stroke="#4d4d4d"
   id="path1364" />
</marker><marker
     id="marker1370"
     viewBox="0 0 10 10"
     refX="5"
     refY="5"
     markerWidth="6"
     markerHeight="6"
     orient="auto-start-reverse">
<path
   d="m 0.5,0 5,5 -5,5"
   fill="none"
   stroke="#4d4d4d"
   id="path1368" />
</marker><marker
     id="marker1374"
     viewBox="0 0 10 10"
     refX="5"
     refY="5"
     markerWidth="6"
     markerHeight="6"
     orient="auto-start-reverse">
<path
   d="m 0.5,0 5,5 -5,5"
   fill="none"
   stroke="#4d4d4d"
   id="path1372" />
</marker><marker
     id="marker1378"
     viewBox="0 0 10 10"
     refX="5"
     refY="5"
     markerWidth="6"
     markerHeight="6"
     orient="auto-start-reverse">
<path
   d="m 0.5,0 5,5 -5,5"
   fill="none"
   stroke="#4d4d4d"
   id="path1376" />
</marker><marker
     id="marker1382"
     viewBox="0 0 10 10"
     refX="5"
     refY="5"
     markerWidth="6"
     markerHeight="6"
     orient="auto-start-reverse">
<path
   d="m 0.5,0 5,5 -5,5"
   fill="none"
   stroke="#4d4d4d"
   id="path1380" />
</marker><marker
     id="marker1386"
     viewBox="0 0 10 10"
     refX="5"
     refY="5"
     markerWidth="6"
     markerHeight="6"
     orient="auto-start-reverse">
<path
   d="m 0.5,0 5,5 -5,5"
   fill="none"
   stroke="#4d4d4d"
   id="path1384" />
</marker><marker
     id="marker1390"
     viewBox="0 0 10 10"
     refX="5"
     refY="5"
     markerWidth="6"
     markerHeight="6"
     orient="auto-start-reverse">
<path
   d="m 0.5,0 5,5 -5,5"
   fill="none"
   stroke="#4d4d4d"
   id="path1388" />
</marker><marker
     id="marker1394"
     viewBox="0 0 10 10"
     refX="5"
     refY="5"
     markerWidth="6"
     markerHeight="6"
     orient="auto-start-reverse">
<path
   d="m 0.5,0 5,5 -5,5"
   fill="none"
   stroke="#4d4d4d"
   id="path1392" />
</marker><marker
     id="marker1398"
     viewBox="0 0 10 10"
     refX="5"
     refY="5"
     markerWidth="6"
     markerHeight="6"
     orient="auto-start-reverse">
<path
   d="m 0.5,0 5,5 -5,5"
   fill="none"
   stroke="#4d4d4d"
   id="path1396" />
</marker><marker
     id="marker1402"
     viewBox="0 0 10 10"
     refX="5"
     refY="5"
     markerWidth="6"
     markerHeight="6"
     orient="auto-start-reverse">
<path
   d="m 0.5,0 5,5 -5,5"
   fill="none"
   stroke="#4d4d4d"
   id="path1400" />
</marker><marker
     id="marker1406"
     viewBox="0 0 10 10"
     refX="5"
     refY="5"
     markerWidth="6"
     markerHeight="6"
     orient="auto-start-reverse">
<path
   d="m 0.5,0 5,5 -5,5"
   fill="none"
   stroke="#4d4d4d"
   id="path1404" />
</marker><marker
     id="marker1410"
     viewBox="0 0 10 10"
     refX="5"
     refY="5"
     markerWidth="6"
     markerHeight="6"
     orient="auto-start-reverse">
<path
   d="m 0.5,0 5,5 -5,5"
   fill="none"
   stroke="#4d4d4d"
   id="path1408" />
</marker><marker
     id="marker1414"
     viewBox="0 0 10 10"
     refX="5"
     refY="5"
     markerWidth="6"
     markerHeight="6"
     orient="auto-start-reverse">
<path
   d="m 0.5,0 5,5 -5,5"
   fill="none"
   stroke="#4d4d4d"
   id="path1412" />
</marker><marker
     id="marker1418"
     viewBox="0 0 10 10"
     refX="5"
     refY="5"
     markerWidth="6"
     markerHeight="6"
     orient="auto-start-reverse">
<path
   d="m 0.5,0 5,5 -5,5"
   fill="none"
   stroke="#4d4d4d"
   id="path1416" />
</marker></defs>
<g
   id="cell-1"
   transform="scale(0.3)"><rect
   id="background"
   width="520"
   height="320"
   x="100"
   y="40"
   ry="36"
   fill="#4ec2a7" />
<g
   id="pointwise"><circle
     id="mult1"
     cx="180"
     cy="100"
     r="20"
     stroke="none"
     fill="#e5ff5b" /><circle
     id="mult2"
     cx="392"
     cy="165"
     r="20"
     stroke="none"
     fill="#e5ff5b" /><circle
     id="mult3"
     cx="570"
     cy="300"
     r="20"
     stroke="none"
     fill="#e5ff5b" /><circle
     id="add"
     cx="392"
     cy="100"
     r="20"
     stroke="none"
     fill="#e5ff5b" /><rect
     y="170"
     x="540"
     height="40"
     width="60"
     id="tanh2"
     ry="20"
     fill="#e5ff5b" /><text
     x="570.65002"
     y="197.5"
     id="textTanhPointwise"
     fill="#4d4d4d"
     stroke="none"
     font-size="20px"
     text-anchor="middle">tanh</text><g
     id="plusSign"><line
       x1="392"
       x2="392"
       y1="110"
       y2="90"
       stroke-width="2"
       stroke="#4d4d4d"
       id="plus1" /><line
       x1="402"
       x2="382"
       y1="100"
       y2="100"
       stroke-width="2"
       stroke="#4d4d4d"
       id="plus2" /></g><g
     id="multSign1"><line
       x1="170"
       x2="190"
       y1="110"
       y2="90"
       stroke-width="2"
       stroke="#4d4d4d"
       id="line1773" /><line
       x1="190"
       x2="170"
       y1="110"
       y2="90"
       stroke-width="2"
       stroke="#4d4d4d"
       id="line1771" /></g><g
     id="multSign3"><line
       x1="560"
       x2="580"
       y1="310"
       y2="290"
       stroke-width="2"
       stroke="#4d4d4d"
       id="mult2-9" /><line
       x1="580"
       x2="560"
       y1="310"
       y2="290"
       stroke-width="2"
       stroke="#4d4d4d"
       id="mult1-3" /></g><g
     id="multSign2"><line
       x1="402"
       x2="382"
       y1="175"
       y2="155"
       stroke-width="2"
       stroke="#4d4d4d"
       id="mult2-0" /><line
       x1="402"
       x2="382"
       y1="155"
       y2="175"
       stroke-width="2"
       stroke="#4d4d4d"
       id="mult1-6" /></g></g><g
   id="paths"><line
     x1="392"
     x2="392"
     y1="210"
     y2="187"
     stroke-width="3"
     stroke="#4d4d4d"
     marker-end="url(#arrow-97)"
     id="line1963"
     style="marker-end:url(#arrow-97)" /><line
     x1="392"
     x2="392"
     y1="145"
     y2="122"
     stroke-width="3"
     stroke="#4d4d4d"
     marker-end="url(#arrow-97)"
     id="line2540"
     style="marker-end:url(#arrow-97)" /><line
     x1="570"
     x2="570"
     y1="210"
     y2="278"
     stroke-width="3"
     stroke="#4d4d4d"
     marker-end="url(#arrow-97)"
     id="line2545"
     style="marker-end:url(#arrow-97)" /><line
     x1="180"
     x2="180"
     y1="210"
     y2="122"
     stroke-width="3"
     stroke="#4d4d4d"
     marker-end="url(#arrow-97)"
     id="line2541"
     style="marker-end:url(#arrow-97)" /><line
     x1="60"
     x2="430"
     y1="300"
     y2="300"
     stroke-width="3"
     stroke="#4d4d4d"
     id="line25415"
     marker-end="url(#arrow-97)"
     style="marker-end:url(#arrow-97)" /><line
     x1="590"
     x2="690"
     y1="300"
     y2="300"
     stroke-width="3"
     stroke="#4d4d4d"
     id="line25411"
     marker-end="url(#arrow-97)"
     style="marker-end:url(#arrow-97)" /><line
     x1="412"
     x2="690"
     y1="100"
     y2="100"
     stroke-width="3"
     stroke="#4d4d4d"
     id="line25419"
     marker-end="url(#arrow-8)" /><line
     x1="200"
     x2="370"
     y1="100"
     y2="100"
     stroke-width="3"
     stroke="#4d4d4d"
     id="line254153"
     marker-end="url(#arrow-97)"
     style="marker-end:url(#arrow-97)" /><line
     x2="548"
     y1="300"
     y2="300"
     stroke-width="3"
     stroke="#4d4d4d"
     id="line1103"
     marker-end="url(#arrow-97)"
     x1="512"
     style="marker-end:url(#arrow-97)" /><line
     x1="60"
     x2="158"
     y1="100"
     y2="100"
     stroke-width="3"
     stroke="#4d4d4d"
     id="line25416"
     marker-end="url(#arrow-97)"
     style="marker-end:url(#arrow-97)" /><path
     id="path1892"
     d="m 287,210 c 0.43338,-56.45453 51.84789,-43.37963 82.54712,-44.96413"
     fill="none"
     stroke="#4d4d4d"
     stroke-width="3"
     marker-end="url(#arrow-97)"
     sodipodi:nodetypes="cc"
     style="marker-end:url(#arrow-97)" /><path
     id="path192"
     d="m 636.42668,299.99816 c 0,0 21.64618,0.15995 21.85079,-23.71744 0.40497,-10.19791 0,-236.737931 0,-236.737931"
     fill="none"
     stroke="#4d4d4d"
     stroke-width="3"
     marker-end="url(#arrow-97)"
     style="marker-end:url(#arrow-97)" /><path
     d="m 61.492306,361.31768 c 0.101196,-41.22491 18.660508,-61.59551 65.486864,-61.31485"
     id="path1992"
     fill="none"
     stroke="#4d4d4d"
     stroke-width="3"
     sodipodi:nodetypes="cc" /><path
     id="path1860"
     d="m 372.05696,299.9881 c 0,0 21.69481,0.82441 22.10415,-9.48063 0.40924,-10.30503 -0.32695,-38.56727 -0.32695,-38.56727"
     stroke="#4d4d4d"
     fill="none"
     stroke-width="3"
     marker-end="url(#arrow-97)"
     sodipodi:nodetypes="ccc"
     style="marker-end:url(#arrow-97)" /><path
     id="path1869"
     d="m 265.48908,298.8825 c 0,0 21.69481,0.82441 22.10415,-9.48063 0.40924,-10.30503 -0.31985,-37.09669 -0.31985,-37.09669"
     stroke="#4d4d4d"
     fill="none"
     stroke-width="3"
     marker-end="url(#arrow-97)"
     sodipodi:nodetypes="ccc"
     style="marker-end:url(#arrow-97)" /><path
     id="path18699"
     d="m 157.55696,299.98831 c 0,0 22.77016,0.96057 23.1795,-9.34447 0.40924,-10.30503 0.0391,-38.51671 0.0391,-38.51671"
     stroke="#4d4d4d"
     fill="none"
     stroke-width="3"
     marker-end="url(#arrow-97)"
     sodipodi:nodetypes="ccc"
     style="marker-end:url(#arrow-97)" /><path
     id="path1865"
     d="m 550,100 c 0,0 14.11102,1.79397 16.84146,7.15874 C 570.3206,113.99456 568.5,168 568.5,168"
     stroke="#4d4d4d"
     fill="none"
     stroke-width="3"
     marker-end="url(#arrow-97)"
     sodipodi:nodetypes="csc"
     style="marker-end:url(#arrow-97)" /></g><g
   id="NN"><rect
     id="tanhNN"
     width="80"
     height="40"
     x="352"
     y="210"
     fill="#ff9955"
     stroke="none" /><text
     x="392.64999"
     y="237.5"
     id="textTanh"
     fill="#4d4d4d"
     stroke="none"
     font-size="20px"
     text-anchor="middle">tanh</text><rect
     id="sigmoid3"
     width="80"
     height="40"
     x="432"
     y="280"
     fill="#ff9955"
     stroke="none" /><text
     x="472.34"
     y="305.20001"
     id="textSig3"
     fill="#4d4d4d"
     stroke="none"
     font-size="20px"
     text-anchor="middle">sigmoid</text><rect
     id="sigmoid2"
     width="80"
     height="40"
     x="247"
     y="210"
     fill="#ff9955"
     stroke="none" /><text
     x="287.73999"
     y="235.2"
     id="textSig2"
     fill="#4d4d4d"
     stroke="none"
     font-size="20px"
     text-anchor="middle">sigmoid</text><rect
     id="sigmoid1"
     width="80"
     height="40"
     x="140"
     y="210"
     fill="#ff9955"
     stroke="none" /><text
     x="180.34"
     y="235.2"
     id="textSig1"
     fill="#4d4d4d"
     stroke="none"
     font-size="20px"
     text-anchor="middle">sigmoid</text></g></g><g
   id="cell-1-3"
   transform="scale(0.3), translate(600,0)"><rect
   id="background-1"
   width="520"
   height="320"
   x="100"
   y="40"
   ry="36"
   fill="#4ec2a7" />
<g
   id="pointwise-9"><circle
     id="mult1-4"
     cx="180"
     cy="100"
     r="20"
     stroke="none"
     fill="#e5ff5b" /><circle
     id="mult2-7"
     cx="392"
     cy="165"
     r="20"
     stroke="none"
     fill="#e5ff5b" /><circle
     id="mult3-8"
     cx="570"
     cy="300"
     r="20"
     stroke="none"
     fill="#e5ff5b" /><circle
     id="add-4"
     cx="392"
     cy="100"
     r="20"
     stroke="none"
     fill="#e5ff5b" /><rect
     y="170"
     x="540"
     height="40"
     width="60"
     id="tanh2-5"
     ry="20"
     fill="#e5ff5b" /><text
     x="570.65002"
     y="197.5"
     id="textTanhPointwise-0"
     fill="#4d4d4d"
     stroke="none"
     font-size="20px"
     text-anchor="middle">tanh</text><g
     id="plusSign-3"><line
       x1="392"
       x2="392"
       y1="110"
       y2="90"
       stroke-width="2"
       stroke="#4d4d4d"
       id="plus1-6" /><line
       x1="402"
       x2="382"
       y1="100"
       y2="100"
       stroke-width="2"
       stroke="#4d4d4d"
       id="plus2-1" /></g><g
     id="multSign1-0"><line
       x1="170"
       x2="190"
       y1="110"
       y2="90"
       stroke-width="2"
       stroke="#4d4d4d"
       id="line1773-6" /><line
       x1="190"
       x2="170"
       y1="110"
       y2="90"
       stroke-width="2"
       stroke="#4d4d4d"
       id="line1771-3" /></g><g
     id="multSign3-2"><line
       x1="560"
       x2="580"
       y1="310"
       y2="290"
       stroke-width="2"
       stroke="#4d4d4d"
       id="mult2-9-0" /><line
       x1="580"
       x2="560"
       y1="310"
       y2="290"
       stroke-width="2"
       stroke="#4d4d4d"
       id="mult1-3-6" /></g><g
     id="multSign2-1"><line
       x1="402"
       x2="382"
       y1="175"
       y2="155"
       stroke-width="2"
       stroke="#4d4d4d"
       id="mult2-0-5" /><line
       x1="402"
       x2="382"
       y1="155"
       y2="175"
       stroke-width="2"
       stroke="#4d4d4d"
       id="mult1-6-5" /></g></g><g
   id="paths-4"><line
     x1="392"
     x2="392"
     y1="210"
     y2="187"
     stroke-width="3"
     stroke="#4d4d4d"
     marker-end="url(#arrow-97-2)"
     id="line1963-7"
     style="marker-end:url(#arrow-97-2)" /><line
     x1="392"
     x2="392"
     y1="145"
     y2="122"
     stroke-width="3"
     stroke="#4d4d4d"
     marker-end="url(#arrow-97-2)"
     id="line2540-6"
     style="marker-end:url(#arrow-97-2)" /><line
     x1="570"
     x2="570"
     y1="210"
     y2="278"
     stroke-width="3"
     stroke="#4d4d4d"
     marker-end="url(#arrow-97-2)"
     id="line2545-5"
     style="marker-end:url(#arrow-97-2)" /><line
     x1="180"
     x2="180"
     y1="210"
     y2="122"
     stroke-width="3"
     stroke="#4d4d4d"
     marker-end="url(#arrow-97-2)"
     id="line2541-6"
     style="marker-end:url(#arrow-97-2)" /><line
     x1="60"
     x2="430"
     y1="300"
     y2="300"
     stroke-width="3"
     stroke="#4d4d4d"
     id="line25415-9"
     marker-end="url(#arrow-97-2)"
     style="marker-end:url(#arrow-97-2)" /><line
     x1="590"
     x2="690"
     y1="300"
     y2="300"
     stroke-width="3"
     stroke="#4d4d4d"
     id="line25411-3"
     marker-end="url(#arrow-97-2)"
     style="marker-end:url(#arrow-97-2)" /><line
     x1="412"
     x2="690"
     y1="100"
     y2="100"
     stroke-width="3"
     stroke="#4d4d4d"
     id="line25419-7"
     marker-end="url(#arrow-8)" /><line
     x1="200"
     x2="370"
     y1="100"
     y2="100"
     stroke-width="3"
     stroke="#4d4d4d"
     id="line254153-4"
     marker-end="url(#arrow-97-2)"
     style="marker-end:url(#arrow-97-2)" /><line
     x2="548"
     y1="300"
     y2="300"
     stroke-width="3"
     stroke="#4d4d4d"
     id="line1103-5"
     marker-end="url(#arrow-97-2)"
     x1="512"
     style="marker-end:url(#arrow-97-2)" /><line
     x1="60"
     x2="158"
     y1="100"
     y2="100"
     stroke-width="3"
     stroke="#4d4d4d"
     id="line25416-2"
     marker-end="url(#arrow-97-2)"
     style="marker-end:url(#arrow-97-2)" /><path
     id="path1892-5"
     d="m 287,210 c 0.43338,-56.45453 51.84789,-43.37963 82.54712,-44.96413"
     fill="none"
     stroke="#4d4d4d"
     stroke-width="3"
     marker-end="url(#arrow-97-2)"
     sodipodi:nodetypes="cc"
     style="marker-end:url(#arrow-97-2)" /><path
     id="path192-4"
     d="m 636.42668,299.99816 c 0,0 21.64618,0.15995 21.85079,-23.71744 0.40497,-10.19791 0,-236.737931 0,-236.737931"
     fill="none"
     stroke="#4d4d4d"
     stroke-width="3"
     marker-end="url(#arrow-97-2)"
     style="marker-end:url(#arrow-97-2)" /><path
     d="m 61.492306,361.31768 c 0.101196,-41.22491 18.660508,-61.59551 65.486864,-61.31485"
     id="path1992-7"
     fill="none"
     stroke="#4d4d4d"
     stroke-width="3"
     sodipodi:nodetypes="cc" /><path
     id="path1860-4"
     d="m 372.05696,299.9881 c 0,0 21.69481,0.82441 22.10415,-9.48063 0.40924,-10.30503 -0.32695,-38.56727 -0.32695,-38.56727"
     stroke="#4d4d4d"
     fill="none"
     stroke-width="3"
     marker-end="url(#arrow-97-2)"
     sodipodi:nodetypes="ccc"
     style="marker-end:url(#arrow-97-2)" /><path
     id="path1869-4"
     d="m 265.48908,298.8825 c 0,0 21.69481,0.82441 22.10415,-9.48063 0.40924,-10.30503 -0.31985,-37.09669 -0.31985,-37.09669"
     stroke="#4d4d4d"
     fill="none"
     stroke-width="3"
     marker-end="url(#arrow-97-2)"
     sodipodi:nodetypes="ccc"
     style="marker-end:url(#arrow-97-2)" /><path
     id="path18699-3"
     d="m 157.55696,299.98831 c 0,0 22.77016,0.96057 23.1795,-9.34447 0.40924,-10.30503 0.0391,-38.51671 0.0391,-38.51671"
     stroke="#4d4d4d"
     fill="none"
     stroke-width="3"
     marker-end="url(#arrow-97-2)"
     sodipodi:nodetypes="ccc"
     style="marker-end:url(#arrow-97-2)" /><path
     id="path1865-0"
     d="m 550,100 c 0,0 14.11102,1.79397 16.84146,7.15874 C 570.3206,113.99456 568.5,168 568.5,168"
     stroke="#4d4d4d"
     fill="none"
     stroke-width="3"
     marker-end="url(#arrow-97-2)"
     sodipodi:nodetypes="csc"
     style="marker-end:url(#arrow-97-2)" /></g><g
   id="NN-7"><rect
     id="tanhNN-8"
     width="80"
     height="40"
     x="352"
     y="210"
     fill="#ff9955"
     stroke="none" /><text
     x="392.64999"
     y="237.5"
     id="textTanh-6"
     fill="#4d4d4d"
     stroke="none"
     font-size="20px"
     text-anchor="middle">tanh</text><rect
     id="sigmoid3-8"
     width="80"
     height="40"
     x="432"
     y="280"
     fill="#ff9955"
     stroke="none" /><text
     x="472.34"
     y="305.20001"
     id="textSig3-8"
     fill="#4d4d4d"
     stroke="none"
     font-size="20px"
     text-anchor="middle">sigmoid</text><rect
     id="sigmoid2-4"
     width="80"
     height="40"
     x="247"
     y="210"
     fill="#ff9955"
     stroke="none" /><text
     x="287.73999"
     y="235.2"
     id="textSig2-3"
     fill="#4d4d4d"
     stroke="none"
     font-size="20px"
     text-anchor="middle">sigmoid</text><rect
     id="sigmoid1-1"
     width="80"
     height="40"
     x="140"
     y="210"
     fill="#ff9955"
     stroke="none" /><text
     x="180.34"
     y="235.2"
     id="textSig1-4"
     fill="#4d4d4d"
     stroke="none"
     font-size="20px"
     text-anchor="middle">sigmoid</text></g></g><metadata
   id="metadata1990"><rdf:RDF><cc:Work
       rdf:about=""><dc:title>LSTM Cell</dc:title></cc:Work></rdf:RDF></metadata></svg>
