<?xml version="1.0" encoding="UTF-8" standalone="no"?>
<svg
   width="794"
   height="259"
   viewBox="0 0 794 259"
   version="1.1"
   id="svg8"
   sodipodi:docname="lstmUseEx.svg"
   xml:space="preserve"
   inkscape:version="1.2.2 (b0a8486541, 2022-12-01)"
   xmlns:inkscape="http://www.inkscape.org/namespaces/inkscape"
   xmlns:sodipodi="http://sodipodi.sourceforge.net/DTD/sodipodi-0.dtd"
   xmlns="http://www.w3.org/2000/svg"
   xmlns:svg="http://www.w3.org/2000/svg"
   xmlns:rdf="http://www.w3.org/1999/02/22-rdf-syntax-ns#"
   xmlns:cc="http://creativecommons.org/ns#"
   xmlns:dc="http://purl.org/dc/elements/1.1/"><sodipodi:namedview
   id="namedview945"
   pagecolor="#ffffff"
   bordercolor="#000000"
   borderopacity="0.25"
   inkscape:showpageshadow="2"
   inkscape:pageopacity="0.0"
   inkscape:pagecheckerboard="0"
   inkscape:deskcolor="#d1d1d1"
   inkscape:document-units="px"
   showgrid="false"
   inkscape:zoom="0.78600005"
   inkscape:cx="426.84476"
   inkscape:cy="189.56742"
   inkscape:window-width="1904"
   inkscape:window-height="995"
   inkscape:window-x="8"
   inkscape:window-y="40"
   inkscape:window-maximized="0"
   inkscape:current-layer="svg8" /><title
   id="title1438">LSTM Use</title><defs
   id="defs2"><marker
     style="overflow:visible"
     id="arrow"
     refX="0"
     refY="0"
     orient="auto-start-reverse"
     markerWidth="4.2071066"
     markerHeight="7"
     viewBox="0 0 4.2071068 7"
     inkscape:isstock="true"
     inkscape:collect="always"
     preserveAspectRatio="xMidYMid"><path
   style="fill:none;stroke:context-stroke;stroke-width:1;stroke-linecap:round"
   d="M 3,-3 0,0 3,3"
   id="arrow3"
   transform="rotate(180,0.125,0)"
   sodipodi:nodetypes="ccc" />
</marker></defs>
<g
   id="cell"
   style="display:inline"><circle
   id="input"
   cx="15"
   cy="243.64853"
   r="15"
   stroke="none"
   fill="#5599ff" /><g
   id="lstm"
   transform="matrix(0.4,0,0,0.4,14.400002,99)"
   style="display:inline"><rect
   id="background"
   width="520"
   height="320"
   x="40.00769"
   y="2.6300001"
   ry="36"
   fill="#4ec2a7"
   rx="36" />
<g
   id="pointwise"
   transform="translate(-59.992311,-37.37)"><circle
     id="mult1"
     cx="180"
     cy="100"
     r="20"
     stroke="none"
     fill="#e5ff5b" /><circle
     id="mult2"
     cx="392"
     cy="165"
     r="20"
     stroke="none"
     fill="#e5ff5b" /><circle
     id="mult3"
     cx="570"
     cy="300"
     r="20"
     stroke="none"
     fill="#e5ff5b" /><circle
     id="add"
     cx="392"
     cy="100"
     r="20"
     stroke="none"
     fill="#e5ff5b" /><rect
     y="170"
     x="540"
     height="40"
     width="60"
     id="tanh2"
     ry="20"
     fill="#e5ff5b"
     rx="20" /><g
     id="plusSign"><line
       x1="392"
       x2="392"
       y1="110"
       y2="90"
       stroke-width="2"
       stroke="#4d4d4d"
       id="plus1" /><line
       x1="402"
       x2="382"
       y1="100"
       y2="100"
       stroke-width="2"
       stroke="#4d4d4d"
       id="plus2" /></g><g
     id="multSign1"><line
       x1="170"
       x2="190"
       y1="110"
       y2="90"
       stroke-width="2"
       stroke="#4d4d4d"
       id="line1773" /><line
       x1="190"
       x2="170"
       y1="110"
       y2="90"
       stroke-width="2"
       stroke="#4d4d4d"
       id="line1771" /></g><g
     id="multSign3"><line
       x1="560"
       x2="580"
       y1="310"
       y2="290"
       stroke-width="2"
       stroke="#4d4d4d"
       id="mult2-9" /><line
       x1="580"
       x2="560"
       y1="310"
       y2="290"
       stroke-width="2"
       stroke="#4d4d4d"
       id="mult1-3" /></g><g
     id="multSign2"><line
       x1="402"
       x2="382"
       y1="175"
       y2="155"
       stroke-width="2"
       stroke="#4d4d4d"
       id="mult2-0" /><line
       x1="402"
       x2="382"
       y1="155"
       y2="175"
       stroke-width="2"
       stroke="#4d4d4d"
       id="mult1-6" /></g></g><g
   id="paths"
   transform="translate(-59.992311,-37.37)"><line
     x1="392"
     x2="392"
     y1="210"
     y2="187"
     stroke-width="3"
     stroke="#4d4d4d"
     marker-end="url(#arrow)"
     id="line1963"
     style="marker-end:url(#arrow)" /><line
     x1="392"
     x2="392"
     y1="145"
     y2="122"
     stroke-width="3"
     stroke="#4d4d4d"
     marker-end="url(#arrow)"
     id="line2540"
     style="marker-end:url(#arrow)" /><line
     x1="570"
     x2="570"
     y1="210"
     y2="278"
     stroke-width="3"
     stroke="#4d4d4d"
     marker-end="url(#arrow)"
     id="line2545"
     style="marker-end:url(#arrow)" /><line
     x1="180"
     x2="180"
     y1="210"
     y2="122"
     stroke-width="3"
     stroke="#4d4d4d"
     marker-end="url(#arrow)"
     id="line2541"
     style="marker-end:url(#arrow)" /><line
     x1="24"
     x2="430"
     y1="300"
     y2="300"
     stroke-width="3"
     stroke="#4d4d4d"
     id="line25415"
     marker-end="url(#arrow)"
     style="marker-end:url(#arrow)" /><line
     x1="590"
     x2="690"
     y1="300"
     y2="300"
     stroke-width="3"
     stroke="#4d4d4d"
     id="line25411"
     marker-end="url(#arrow)"
     style="marker-end:url(#arrow)" /><line
     x1="412"
     x2="690"
     y1="100"
     y2="100"
     stroke-width="3"
     stroke="#4d4d4d"
     id="line25419"
     marker-end="url(#arrow)"
     style="marker-end:url(#arrow)" /><line
     x1="200"
     x2="370"
     y1="100"
     y2="100"
     stroke-width="3"
     stroke="#4d4d4d"
     id="line254153"
     marker-end="url(#arrow)"
     style="marker-end:url(#arrow)" /><line
     x2="548"
     y1="300"
     y2="300"
     stroke-width="3"
     stroke="#4d4d4d"
     id="line1103"
     marker-end="url(#arrow)"
     x1="512"
     style="marker-end:url(#arrow)" /><line
     x1="24"
     x2="158"
     y1="100"
     y2="100"
     stroke-width="3"
     stroke="#4d4d4d"
     id="line25416"
     marker-end="url(#arrow)"
     style="marker-end:url(#arrow)" /><path
     id="path1892"
     d="m 287,210 c 0.43338,-56.45453 51.84789,-43.37963 82.54712,-44.96413"
     fill="none"
     stroke="#4d4d4d"
     stroke-width="3"
     marker-end="url(#arrow)"
     sodipodi:nodetypes="cc"
     style="marker-end:url(#arrow)" /><path
     id="path192"
     d="m 636.42668,299.99816 c 0,0 21.64618,0.15995 21.85079,-23.71744 0.40497,-10.19791 0,-236.737931 0,-236.737931"
     fill="none"
     stroke="#4d4d4d"
     stroke-width="3" /><path
     d="m 61.492306,361.31768 c 0.101196,-41.22491 18.660508,-61.59551 65.486864,-61.31485"
     id="path1992"
     fill="none"
     stroke="#4d4d4d"
     stroke-width="3"
     sodipodi:nodetypes="cc" /><path
     id="path1860"
     d="m 372.05696,299.9881 c 0,0 21.69481,0.82441 22.10415,-9.48063 0.40924,-10.30503 -0.32695,-38.56727 -0.32695,-38.56727"
     stroke="#4d4d4d"
     fill="none"
     stroke-width="3"
     marker-end="url(#arrow)"
     sodipodi:nodetypes="ccc"
     style="marker-end:url(#arrow)" /><path
     id="path1869"
     d="m 265.48908,298.8825 c 0,0 21.69481,0.82441 22.10415,-9.48063 0.40924,-10.30503 -0.31985,-37.09669 -0.31985,-37.09669"
     stroke="#4d4d4d"
     fill="none"
     stroke-width="3"
     marker-end="url(#arrow)"
     sodipodi:nodetypes="ccc"
     style="marker-end:url(#arrow)" /><path
     id="path18699"
     d="m 157.55696,299.98831 c 0,0 22.77016,0.96057 23.1795,-9.34447 0.40924,-10.30503 0.0391,-38.51671 0.0391,-38.51671"
     stroke="#4d4d4d"
     fill="none"
     stroke-width="3"
     marker-end="url(#arrow)"
     sodipodi:nodetypes="ccc"
     style="marker-end:url(#arrow)" /><path
     id="path1865"
     d="m 550,100 c 0,0 14.11102,1.79397 16.84146,7.15874 C 570.3206,113.99456 568.5,168 568.5,168"
     stroke="#4d4d4d"
     fill="none"
     stroke-width="3"
     marker-end="url(#arrow)"
     sodipodi:nodetypes="csc"
     style="marker-end:url(#arrow)" /></g><g
   id="NN"
   transform="translate(-59.992311,-37.37)"><rect
     id="tanhNN"
     width="80"
     height="40"
     x="352"
     y="210"
     fill="#ff9955"
     stroke="none" /><rect
     id="sigmoid3"
     width="80"
     height="40"
     x="432"
     y="280"
     fill="#ff9955"
     stroke="none" /><rect
     id="sigmoid2"
     width="80"
     height="40"
     x="247"
     y="210"
     fill="#ff9955"
     stroke="none" /><rect
     id="sigmoid1"
     width="80"
     height="40"
     x="140"
     y="210"
     fill="#ff9955"
     stroke="none" /></g></g><line
   x1="253.69998"
   x2="253.69998"
   y1="101.14853"
   y2="81.148529"
   stroke-width="1.2"
   stroke="#4d4d4d"
   marker-end="url(#arrow)"
   id="line1" /><rect
   id="FC"
   width="80"
   height="30"
   x="213.39999"
   y="51.148529"
   fill="#ffdd55"
   ry="8"
   rx="8" /><line
   x1="253.39999"
   x2="253.39999"
   y1="51.148529"
   y2="31.148529"
   stroke-width="1.2"
   stroke="#4d4d4d"
   marker-end="url(#arrow)"
   id="line2" /><circle
   id="ouput"
   cx="253.39999"
   cy="15"
   r="15"
   stroke="none"
   fill="#ffaa55" />

</g><metadata
   id="metadata1990"><rdf:RDF><cc:Work
       rdf:about=""><dc:title>LSTM Cell</dc:title></cc:Work></rdf:RDF></metadata><g
   id="g5879"
   style="display:inline"
   transform="translate(250)"><circle
   id="circle5783"
   cx="15"
   cy="243.64853"
   r="15"
   stroke="none"
   fill="#5599ff" /><g
   id="g5869"
   transform="matrix(0.4,0,0,0.4,14.400002,99)"
   style="display:inline"><rect
   id="rect5785"
   width="520"
   height="320"
   x="40.00769"
   y="2.6300001"
   ry="36"
   fill="#4ec2a7"
   rx="36" />
<g
   id="g5821"
   transform="translate(-59.992311,-37.37)"><circle
     id="circle5787"
     cx="180"
     cy="100"
     r="20"
     stroke="none"
     fill="#e5ff5b" /><circle
     id="circle5789"
     cx="392"
     cy="165"
     r="20"
     stroke="none"
     fill="#e5ff5b" /><circle
     id="circle5791"
     cx="570"
     cy="300"
     r="20"
     stroke="none"
     fill="#e5ff5b" /><circle
     id="circle5793"
     cx="392"
     cy="100"
     r="20"
     stroke="none"
     fill="#e5ff5b" /><rect
     y="170"
     x="540"
     height="40"
     width="60"
     id="rect5795"
     ry="20"
     fill="#e5ff5b"
     rx="20" /><g
     id="g5801"><line
       x1="392"
       x2="392"
       y1="110"
       y2="90"
       stroke-width="2"
       stroke="#4d4d4d"
       id="line5797" /><line
       x1="402"
       x2="382"
       y1="100"
       y2="100"
       stroke-width="2"
       stroke="#4d4d4d"
       id="line5799" /></g><g
     id="g5807"><line
       x1="170"
       x2="190"
       y1="110"
       y2="90"
       stroke-width="2"
       stroke="#4d4d4d"
       id="line5803" /><line
       x1="190"
       x2="170"
       y1="110"
       y2="90"
       stroke-width="2"
       stroke="#4d4d4d"
       id="line5805" /></g><g
     id="g5813"><line
       x1="560"
       x2="580"
       y1="310"
       y2="290"
       stroke-width="2"
       stroke="#4d4d4d"
       id="line5809" /><line
       x1="580"
       x2="560"
       y1="310"
       y2="290"
       stroke-width="2"
       stroke="#4d4d4d"
       id="line5811" /></g><g
     id="g5819"><line
       x1="402"
       x2="382"
       y1="175"
       y2="155"
       stroke-width="2"
       stroke="#4d4d4d"
       id="line5815" /><line
       x1="402"
       x2="382"
       y1="155"
       y2="175"
       stroke-width="2"
       stroke="#4d4d4d"
       id="line5817" /></g></g><g
   id="g5857"
   transform="translate(-59.992311,-37.37)"><line
     x1="392"
     x2="392"
     y1="210"
     y2="187"
     stroke-width="3"
     stroke="#4d4d4d"
     marker-end="url(#arrow)"
     id="line5823"
     style="marker-end:url(#arrow)" /><line
     x1="392"
     x2="392"
     y1="145"
     y2="122"
     stroke-width="3"
     stroke="#4d4d4d"
     marker-end="url(#arrow)"
     id="line5825"
     style="marker-end:url(#arrow)" /><line
     x1="570"
     x2="570"
     y1="210"
     y2="278"
     stroke-width="3"
     stroke="#4d4d4d"
     marker-end="url(#arrow)"
     id="line5827"
     style="marker-end:url(#arrow)" /><line
     x1="180"
     x2="180"
     y1="210"
     y2="122"
     stroke-width="3"
     stroke="#4d4d4d"
     marker-end="url(#arrow)"
     id="line5829"
     style="marker-end:url(#arrow)" /><line
     x1="24"
     x2="430"
     y1="300"
     y2="300"
     stroke-width="3"
     stroke="#4d4d4d"
     id="line5831"
     marker-end="url(#arrow)"
     style="marker-end:url(#arrow)" /><line
     x1="590"
     x2="690"
     y1="300"
     y2="300"
     stroke-width="3"
     stroke="#4d4d4d"
     id="line5833"
     marker-end="url(#arrow)"
     style="marker-end:url(#arrow)" /><line
     x1="412"
     x2="690"
     y1="100"
     y2="100"
     stroke-width="3"
     stroke="#4d4d4d"
     id="line5835"
     marker-end="url(#arrow)"
     style="marker-end:url(#arrow)" /><line
     x1="200"
     x2="370"
     y1="100"
     y2="100"
     stroke-width="3"
     stroke="#4d4d4d"
     id="line5837"
     marker-end="url(#arrow)"
     style="marker-end:url(#arrow)" /><line
     x2="548"
     y1="300"
     y2="300"
     stroke-width="3"
     stroke="#4d4d4d"
     id="line5839"
     marker-end="url(#arrow)"
     x1="512"
     style="marker-end:url(#arrow)" /><line
     x1="24"
     x2="158"
     y1="100"
     y2="100"
     stroke-width="3"
     stroke="#4d4d4d"
     id="line5841"
     marker-end="url(#arrow)"
     style="marker-end:url(#arrow)" /><path
     id="path5843"
     d="m 287,210 c 0.43338,-56.45453 51.84789,-43.37963 82.54712,-44.96413"
     fill="none"
     stroke="#4d4d4d"
     stroke-width="3"
     marker-end="url(#arrow)"
     sodipodi:nodetypes="cc"
     style="marker-end:url(#arrow)" /><path
     id="path5845"
     d="m 636.42668,299.99816 c 0,0 21.64618,0.15995 21.85079,-23.71744 0.40497,-10.19791 0,-236.737931 0,-236.737931"
     fill="none"
     stroke="#4d4d4d"
     stroke-width="3" /><path
     d="m 61.492306,361.31768 c 0.101196,-41.22491 18.660508,-61.59551 65.486864,-61.31485"
     id="path5847"
     fill="none"
     stroke="#4d4d4d"
     stroke-width="3"
     sodipodi:nodetypes="cc" /><path
     id="path5849"
     d="m 372.05696,299.9881 c 0,0 21.69481,0.82441 22.10415,-9.48063 0.40924,-10.30503 -0.32695,-38.56727 -0.32695,-38.56727"
     stroke="#4d4d4d"
     fill="none"
     stroke-width="3"
     marker-end="url(#arrow)"
     sodipodi:nodetypes="ccc"
     style="marker-end:url(#arrow)" /><path
     id="path5851"
     d="m 265.48908,298.8825 c 0,0 21.69481,0.82441 22.10415,-9.48063 0.40924,-10.30503 -0.31985,-37.09669 -0.31985,-37.09669"
     stroke="#4d4d4d"
     fill="none"
     stroke-width="3"
     marker-end="url(#arrow)"
     sodipodi:nodetypes="ccc"
     style="marker-end:url(#arrow)" /><path
     id="path5853"
     d="m 157.55696,299.98831 c 0,0 22.77016,0.96057 23.1795,-9.34447 0.40924,-10.30503 0.0391,-38.51671 0.0391,-38.51671"
     stroke="#4d4d4d"
     fill="none"
     stroke-width="3"
     marker-end="url(#arrow)"
     sodipodi:nodetypes="ccc"
     style="marker-end:url(#arrow)" /><path
     id="path5855"
     d="m 550,100 c 0,0 14.11102,1.79397 16.84146,7.15874 C 570.3206,113.99456 568.5,168 568.5,168"
     stroke="#4d4d4d"
     fill="none"
     stroke-width="3"
     marker-end="url(#arrow)"
     sodipodi:nodetypes="csc"
     style="marker-end:url(#arrow)" /></g><g
   id="g5867"
   transform="translate(-59.992311,-37.37)"><rect
     id="rect5859"
     width="80"
     height="40"
     x="352"
     y="210"
     fill="#ff9955"
     stroke="none" /><rect
     id="rect5861"
     width="80"
     height="40"
     x="432"
     y="280"
     fill="#ff9955"
     stroke="none" /><rect
     id="rect5863"
     width="80"
     height="40"
     x="247"
     y="210"
     fill="#ff9955"
     stroke="none" /><rect
     id="rect5865"
     width="80"
     height="40"
     x="140"
     y="210"
     fill="#ff9955"
     stroke="none" /></g></g><line
   x1="253.69998"
   x2="253.69998"
   y1="101.14853"
   y2="81.148529"
   stroke-width="1.2"
   stroke="#4d4d4d"
   marker-end="url(#arrow)"
   id="line5871" /><rect
   id="rect5873"
   width="80"
   height="30"
   x="213.39999"
   y="51.148529"
   fill="#ffdd55"
   ry="8"
   rx="8" /><line
   x1="253.39999"
   x2="253.39999"
   y1="51.148529"
   y2="31.148529"
   stroke-width="1.2"
   stroke="#4d4d4d"
   marker-end="url(#arrow)"
   id="line5875" /><circle
   id="circle5877"
   cx="253.39999"
   cy="15"
   r="15"
   stroke="none"
   fill="#ffaa55" />

</g><g
   id="g5977"
   style="display:inline"
   transform="translate(500)"><circle
   id="circle5881"
   cx="15"
   cy="243.64853"
   r="15"
   stroke="none"
   fill="#5599ff" /><g
   id="g5967"
   transform="matrix(0.4,0,0,0.4,14.400002,99)"
   style="display:inline"><rect
   id="rect5883"
   width="520"
   height="320"
   x="40.00769"
   y="2.6300001"
   ry="36"
   fill="#4ec2a7"
   rx="36" />
<g
   id="g5919"
   transform="translate(-59.992311,-37.37)"><circle
     id="circle5885"
     cx="180"
     cy="100"
     r="20"
     stroke="none"
     fill="#e5ff5b" /><circle
     id="circle5887"
     cx="392"
     cy="165"
     r="20"
     stroke="none"
     fill="#e5ff5b" /><circle
     id="circle5889"
     cx="570"
     cy="300"
     r="20"
     stroke="none"
     fill="#e5ff5b" /><circle
     id="circle5891"
     cx="392"
     cy="100"
     r="20"
     stroke="none"
     fill="#e5ff5b" /><rect
     y="170"
     x="540"
     height="40"
     width="60"
     id="rect5893"
     ry="20"
     fill="#e5ff5b"
     rx="20" /><g
     id="g5899"><line
       x1="392"
       x2="392"
       y1="110"
       y2="90"
       stroke-width="2"
       stroke="#4d4d4d"
       id="line5895" /><line
       x1="402"
       x2="382"
       y1="100"
       y2="100"
       stroke-width="2"
       stroke="#4d4d4d"
       id="line5897" /></g><g
     id="g5905"><line
       x1="170"
       x2="190"
       y1="110"
       y2="90"
       stroke-width="2"
       stroke="#4d4d4d"
       id="line5901" /><line
       x1="190"
       x2="170"
       y1="110"
       y2="90"
       stroke-width="2"
       stroke="#4d4d4d"
       id="line5903" /></g><g
     id="g5911"><line
       x1="560"
       x2="580"
       y1="310"
       y2="290"
       stroke-width="2"
       stroke="#4d4d4d"
       id="line5907" /><line
       x1="580"
       x2="560"
       y1="310"
       y2="290"
       stroke-width="2"
       stroke="#4d4d4d"
       id="line5909" /></g><g
     id="g5917"><line
       x1="402"
       x2="382"
       y1="175"
       y2="155"
       stroke-width="2"
       stroke="#4d4d4d"
       id="line5913" /><line
       x1="402"
       x2="382"
       y1="155"
       y2="175"
       stroke-width="2"
       stroke="#4d4d4d"
       id="line5915" /></g></g><g
   id="g5955"
   transform="translate(-59.992311,-37.37)"><line
     x1="392"
     x2="392"
     y1="210"
     y2="187"
     stroke-width="3"
     stroke="#4d4d4d"
     marker-end="url(#arrow)"
     id="line5921"
     style="marker-end:url(#arrow)" /><line
     x1="392"
     x2="392"
     y1="145"
     y2="122"
     stroke-width="3"
     stroke="#4d4d4d"
     marker-end="url(#arrow)"
     id="line5923"
     style="marker-end:url(#arrow)" /><line
     x1="570"
     x2="570"
     y1="210"
     y2="278"
     stroke-width="3"
     stroke="#4d4d4d"
     marker-end="url(#arrow)"
     id="line5925"
     style="marker-end:url(#arrow)" /><line
     x1="180"
     x2="180"
     y1="210"
     y2="122"
     stroke-width="3"
     stroke="#4d4d4d"
     marker-end="url(#arrow)"
     id="line5927"
     style="marker-end:url(#arrow)" /><line
     x1="24"
     x2="430"
     y1="300"
     y2="300"
     stroke-width="3"
     stroke="#4d4d4d"
     id="line5929"
     marker-end="url(#arrow)"
     style="marker-end:url(#arrow)" /><line
     x1="590"
     x2="690"
     y1="300"
     y2="300"
     stroke-width="3"
     stroke="#4d4d4d"
     id="line5931"
     marker-end="url(#arrow)"
     style="marker-end:url(#arrow)" /><line
     x1="412"
     x2="690"
     y1="100"
     y2="100"
     stroke-width="3"
     stroke="#4d4d4d"
     id="line5933"
     marker-end="url(#arrow)"
     style="marker-end:url(#arrow)" /><line
     x1="200"
     x2="370"
     y1="100"
     y2="100"
     stroke-width="3"
     stroke="#4d4d4d"
     id="line5935"
     marker-end="url(#arrow)"
     style="marker-end:url(#arrow)" /><line
     x2="548"
     y1="300"
     y2="300"
     stroke-width="3"
     stroke="#4d4d4d"
     id="line5937"
     marker-end="url(#arrow)"
     x1="512"
     style="marker-end:url(#arrow)" /><line
     x1="24"
     x2="158"
     y1="100"
     y2="100"
     stroke-width="3"
     stroke="#4d4d4d"
     id="line5939"
     marker-end="url(#arrow)"
     style="marker-end:url(#arrow)" /><path
     id="path5941"
     d="m 287,210 c 0.43338,-56.45453 51.84789,-43.37963 82.54712,-44.96413"
     fill="none"
     stroke="#4d4d4d"
     stroke-width="3"
     marker-end="url(#arrow)"
     sodipodi:nodetypes="cc"
     style="marker-end:url(#arrow)" /><path
     id="path5943"
     d="m 636.42668,299.99816 c 0,0 21.64618,0.15995 21.85079,-23.71744 0.40497,-10.19791 0,-236.737931 0,-236.737931"
     fill="none"
     stroke="#4d4d4d"
     stroke-width="3" /><path
     d="m 61.492306,361.31768 c 0.101196,-41.22491 18.660508,-61.59551 65.486864,-61.31485"
     id="path5945"
     fill="none"
     stroke="#4d4d4d"
     stroke-width="3"
     sodipodi:nodetypes="cc" /><path
     id="path5947"
     d="m 372.05696,299.9881 c 0,0 21.69481,0.82441 22.10415,-9.48063 0.40924,-10.30503 -0.32695,-38.56727 -0.32695,-38.56727"
     stroke="#4d4d4d"
     fill="none"
     stroke-width="3"
     marker-end="url(#arrow)"
     sodipodi:nodetypes="ccc"
     style="marker-end:url(#arrow)" /><path
     id="path5949"
     d="m 265.48908,298.8825 c 0,0 21.69481,0.82441 22.10415,-9.48063 0.40924,-10.30503 -0.31985,-37.09669 -0.31985,-37.09669"
     stroke="#4d4d4d"
     fill="none"
     stroke-width="3"
     marker-end="url(#arrow)"
     sodipodi:nodetypes="ccc"
     style="marker-end:url(#arrow)" /><path
     id="path5951"
     d="m 157.55696,299.98831 c 0,0 22.77016,0.96057 23.1795,-9.34447 0.40924,-10.30503 0.0391,-38.51671 0.0391,-38.51671"
     stroke="#4d4d4d"
     fill="none"
     stroke-width="3"
     marker-end="url(#arrow)"
     sodipodi:nodetypes="ccc"
     style="marker-end:url(#arrow)" /><path
     id="path5953"
     d="m 550,100 c 0,0 14.11102,1.79397 16.84146,7.15874 C 570.3206,113.99456 568.5,168 568.5,168"
     stroke="#4d4d4d"
     fill="none"
     stroke-width="3"
     marker-end="url(#arrow)"
     sodipodi:nodetypes="csc"
     style="marker-end:url(#arrow)" /></g><g
   id="g5965"
   transform="translate(-59.992311,-37.37)"><rect
     id="rect5957"
     width="80"
     height="40"
     x="352"
     y="210"
     fill="#ff9955"
     stroke="none" /><rect
     id="rect5959"
     width="80"
     height="40"
     x="432"
     y="280"
     fill="#ff9955"
     stroke="none" /><rect
     id="rect5961"
     width="80"
     height="40"
     x="247"
     y="210"
     fill="#ff9955"
     stroke="none" /><rect
     id="rect5963"
     width="80"
     height="40"
     x="140"
     y="210"
     fill="#ff9955"
     stroke="none" /></g></g><line
   x1="253.69998"
   x2="253.69998"
   y1="101.14853"
   y2="81.148529"
   stroke-width="1.2"
   stroke="#4d4d4d"
   marker-end="url(#arrow)"
   id="line5969" /><rect
   id="rect5971"
   width="80"
   height="30"
   x="213.39999"
   y="51.148529"
   fill="#ffdd55"
   ry="8"
   rx="8" /><line
   x1="253.39999"
   x2="253.39999"
   y1="51.148529"
   y2="31.148529"
   stroke-width="1.2"
   stroke="#4d4d4d"
   marker-end="url(#arrow)"
   id="line5973" /><circle
   id="circle5975"
   cx="253.39999"
   cy="15"
   r="15"
   stroke="none"
   fill="#ffaa55" />

</g></svg>
