<?xml version="1.0" encoding="UTF-8" standalone="no"?>
<svg
   width="720"
   height="400"
   viewBox="0 0 720 400"
   version="1.1"
   id="svg8"
   sodipodi:docname="rnnCell.svg"
   xml:space="preserve"
   inkscape:version="1.3.2 (091e20ef0f, 2023-11-25, custom)"
   xmlns:inkscape="http://www.inkscape.org/namespaces/inkscape"
   xmlns:sodipodi="http://sodipodi.sourceforge.net/DTD/sodipodi-0.dtd"
   xmlns="http://www.w3.org/2000/svg"
   xmlns:svg="http://www.w3.org/2000/svg"
   xmlns:rdf="http://www.w3.org/1999/02/22-rdf-syntax-ns#"
   xmlns:cc="http://creativecommons.org/ns#"
   xmlns:dc="http://purl.org/dc/elements/1.1/"><sodipodi:namedview
   id="namedview945"
   pagecolor="#ffffff"
   bordercolor="#000000"
   borderopacity="0.25"
   inkscape:showpageshadow="2"
   inkscape:pageopacity="0.0"
   inkscape:pagecheckerboard="0"
   inkscape:deskcolor="#d1d1d1"
   inkscape:document-units="px"
   showgrid="false"
   inkscape:zoom="2"
   inkscape:cx="778.75"
   inkscape:cy="288.75"
   inkscape:window-width="1920"
   inkscape:window-height="1011"
   inkscape:window-x="0"
   inkscape:window-y="33"
   inkscape:window-maximized="0"
   inkscape:current-layer="calque" /><title
   id="title1438">LSTM Cell</title><defs
   id="defs2"><marker
     style="overflow:visible"
     id="arrow"
     refX="0"
     refY="0"
     orient="auto-start-reverse"
     markerWidth="4.2071066"
     markerHeight="7"
     viewBox="0 0 4.2071068 7"
     inkscape:isstock="true"
     inkscape:collect="always"
     preserveAspectRatio="xMidYMid"><path
   style="fill:none;stroke:context-stroke;stroke-width:1;stroke-linecap:round"
   d="M 3,-3 0,0 3,3"
   id="arrow3"
   transform="rotate(180,0.125,0)"
   sodipodi:nodetypes="ccc" />
</marker></defs>
<g
   id="cell"><rect
   id="background"
   width="520"
   height="320"
   x="100"
   y="40"
   ry="36"
   fill="#4ec2a7"
   rx="36" />
<g
   id="NN"><rect
     id="tanhNN"
     width="80"
     height="40"
     x="320"
     y="180"
     fill="#ff9955"
     stroke="none" /><text
     x="360"
     y="204"
     id="textTanh"
     fill="#4d4d4d"
     stroke="none"
     font-size="12px"
     text-anchor="middle">\acs{tanh}</text></g><path
   id="path1"
   d="m 636,200 a 24,24 0 0 0 24,-24 V 40"
   fill="none"
   stroke="#4d4d4d"
   stroke-width="3"
   marker-end="url(#arrow)"
   style="display:inline" /><path
   d="m 60,360 v -12 a 48,48 0 0 1 48,-48 h 204 a 48,48 0 0 0 48,-48 v -32"
   id="path2"
   fill="none"
   stroke="#4d4d4d"
   stroke-width="3" /><path
   d="m 60,200 h 120 a 48,48 0 0 1 48,48 v 4 a 48,48 0 0 0 48,48"
   id="path3"
   fill="none"
   stroke="#4d4d4d"
   stroke-width="3" /><path
   d="m 360,180 v -32 a 48,48 0 0 1 96,0 v 4 a 48,48 0 0 0 48,48 H690"
   id="path4"
   fill="none"
   stroke="#4d4d4d"
   stroke-width="3"
   marker-end="url(#arrow)" /></g><g
   id="calque"
   style="display:inline"><text
     id="text1982"
     y="34"
     x="660"
     font-size="12"
     fill="#4d4d4d"
     text-anchor="middle">$\symvh_t$</text><text
     id="text1994"
     y="208"
     x="693"
     font-size="4"
     fill="#4d4d4d">$\symvh_t$</text><text
     x="60"
     y="384"
     id="text2002"
     font-size="12px"
     fill="#4d4d4d"
     text-anchor="middle">$\symvx_t$</text><text
     x="60"
     y="208"
     id="text2058"
     fill="#4d4d4d"
     font-size="3"
     text-anchor="end">$\symvh_{t-1}$</text></g><metadata
   id="metadata1990"><rdf:RDF><cc:Work
       rdf:about=""><dc:title>LSTM Cell</dc:title></cc:Work></rdf:RDF></metadata></svg>
