<?xml version="1.0" encoding="UTF-8" standalone="no"?>
<svg
   width="720"
   height="400"
   viewBox="0 0 720 400"
   version="1.1"
   id="svg8"
   sodipodi:docname="decoderCell.svg"
   xml:space="preserve"
   inkscape:version="1.3 (0e150ed6c4, 2023-07-21)"
   xmlns:inkscape="http://www.inkscape.org/namespaces/inkscape"
   xmlns:sodipodi="http://sodipodi.sourceforge.net/DTD/sodipodi-0.dtd"
   xmlns="http://www.w3.org/2000/svg"
   xmlns:svg="http://www.w3.org/2000/svg"
   xmlns:rdf="http://www.w3.org/1999/02/22-rdf-syntax-ns#"
   xmlns:cc="http://creativecommons.org/ns#"
   xmlns:dc="http://purl.org/dc/elements/1.1/"><sodipodi:namedview
   id="namedview945"
   pagecolor="#ffffff"
   bordercolor="#000000"
   borderopacity="0.25"
   inkscape:showpageshadow="2"
   inkscape:pageopacity="0.0"
   inkscape:pagecheckerboard="0"
   inkscape:deskcolor="#d1d1d1"
   inkscape:document-units="px"
   showgrid="true"
   inkscape:zoom="1"
   inkscape:cx="325"
   inkscape:cy="75.999999"
   inkscape:window-width="1920"
   inkscape:window-height="1010"
   inkscape:window-x="0"
   inkscape:window-y="33"
   inkscape:window-maximized="0"
   inkscape:current-layer="cell"><inkscape:grid
     id="grid1"
     units="px"
     originx="0"
     originy="0"
     spacingx="1"
     spacingy="1"
     empcolor="#0099e5"
     empopacity="0.30196078"
     color="#0099e5"
     opacity="0.14901961"
     empspacing="8"
     dotted="false"
     gridanglex="30"
     gridanglez="30"
     visible="true"
     snapvisiblegridlinesonly="true"
     enabled="false" /></sodipodi:namedview><title
   id="title1438">LSTM Cell</title><defs
   id="defs2"><marker
     style="overflow:visible"
     id="arrow"
     refX="0"
     refY="0"
     orient="auto-start-reverse"
     markerWidth="4.2071066"
     markerHeight="7"
     viewBox="0 0 4.2071068 7"
     inkscape:isstock="true"
     inkscape:collect="always"
     preserveAspectRatio="xMidYMid"><path
   style="fill:none;stroke:context-stroke;stroke-width:1;stroke-linecap:round"
   d="M 3,-3 0,0 3,3"
   id="arrow3"
   transform="rotate(180,0.125,0)"
   sodipodi:nodetypes="ccc" />&#10;</marker></defs>&#10;<g
   id="cell"><rect
   id="background"
   width="520"
   height="320"
   x="100"
   y="40"
   ry="36"
   fill="#4ec2a7"
   rx="36" />&#10;<g
   id="pointwise"><circle
     id="mult1"
     cx="400"
     cy="100"
     r="20"
     stroke="none"
     fill="#e5ff5b" /><circle
     id="mult2"
     cx="540"
     cy="160"
     r="20"
     stroke="none"
     fill="#e5ff5b" /><circle
     id="mult3"
     cx="320"
     cy="220"
     r="20"
     stroke="none"
     fill="#e5ff5b" /><circle
     id="add"
     cx="540"
     cy="100"
     r="20"
     stroke="none"
     fill="#e5ff5b" /><rect
     y="132"
     x="370"
     height="40"
     width="60"
     id="tanh2"
     ry="20"
     fill="#e5ff5b"
     rx="20" /><circle
     id="circle1"
     cx="320"
     cy="300"
     r="20"
     stroke="none"
     fill="#e5ff5b" /><text
     x="400"
     y="156"
     id="textTanhPointwise"
     fill="#4d4d4d"
     stroke="none"
     font-size="20px"
     text-anchor="middle">$\overrightarrow{1} -$</text><g
     id="plusSign"><line
       x1="540"
       x2="540"
       y1="110"
       y2="90"
       stroke-width="2"
       stroke="#4d4d4d"
       id="plus1" /><line
       x1="550"
       x2="530"
       y1="100"
       y2="100"
       stroke-width="2"
       stroke="#4d4d4d"
       id="plus2" /><line
       x1="320"
       x2="320"
       y1="310"
       y2="290"
       stroke-width="2"
       stroke="#4d4d4d"
       id="line2" /><line
       x1="330"
       x2="310"
       y1="300"
       y2="300"
       stroke-width="2"
       stroke="#4d4d4d"
       id="line3" /></g><g
     id="multSign1"><line
       x1="390"
       x2="410"
       y1="110"
       y2="90"
       stroke-width="2"
       stroke="#4d4d4d"
       id="line1773" /><line
       x1="410"
       x2="390"
       y1="110"
       y2="90"
       stroke-width="2"
       stroke="#4d4d4d"
       id="line1771" /></g><g
     id="multSign3"><line
       x1="310.00009"
       x2="330.00009"
       y1="230.00011"
       y2="210.00011"
       stroke-width="2"
       stroke="#4d4d4d"
       id="mult2-9" /><line
       x1="330"
       x2="310"
       y1="230"
       y2="210"
       stroke-width="2"
       stroke="#4d4d4d"
       id="mult1-3" /></g><g
     id="multSign2"><line
       x1="550"
       x2="530"
       y1="170"
       y2="150"
       stroke-width="2"
       stroke="#4d4d4d"
       id="mult2-0" /><line
       x1="550"
       x2="530"
       y1="150"
       y2="170"
       stroke-width="2"
       stroke="#4d4d4d"
       id="mult1-6" /></g><rect
     y="200"
     x="510"
     height="40"
     width="60"
     id="rect3"
     ry="20"
     fill="#e5ff5b"
     rx="20" /></g><g
   id="NN"><rect
     id="sigmNN1"
     width="80"
     height="40"
     x="360"
     y="200"
     fill="#ff9955"
     stroke="none" /><rect
     id="tanhNN0"
     width="80"
     height="40"
     x="200"
     y="280"
     fill="#ff9955"
     stroke="none" /><rect
     id="sigmNN0"
     width="80"
     height="40"
     x="180"
     y="200"
     fill="#ff9955"
     stroke="none" /><text
     x="540"
     y="224"
     id="textTanh"
     fill="#4d4d4d"
     stroke="none"
     font-size="12"
     text-anchor="middle">\acs{tanh}</text><text
     x="220"
     y="224"
     id="textSig0"
     fill="#4d4d4d"
     stroke="none"
     font-size="12"
     text-anchor="middle">\LARGE $\sigma$</text><text
     x="400"
     y="224"
     id="textSig1"
     fill="#4d4d4d"
     stroke="none"
     font-size="12"
     text-anchor="middle">\LARGE $\sigma$</text><rect
     id="NN0"
     width="80"
     height="40"
     x="280"
     y="140"
     fill="#ff9955"
     stroke="none" /></g><path
   d="m 340,300 h 152 a 48,48 0 0 0 48,-48 v -10"
   id="path11"
   fill="none"
   stroke="#4d4d4d"
   stroke-width="3"
   marker-end="url(#arrow)" /><path
   d="m 60,100 h 48 a 48,48 0 0 1 48,48 v 94 a 32,32 0 0 0 32,32 a 32,32 0 0 0 32,-32"
   id="path8"
   fill="none"
   stroke="#4d4d4d"
   stroke-width="3"
   marker-end="url(#arrow)" /><line
   x1="60"
   x2="378"
   y1="100"
   y2="100"
   stroke-width="3"
   stroke="#4d4d4d"
   id="line1"
   marker-end="url(#arrow)" /><path
   d="m 156,300 a 16,16 0 0 0 16,-13 a 16,16 0 0 1 16,-13"
   id="path9"
   fill="none"
   stroke="#4d4d4d"
   stroke-width="3" /><path
   d="m 280,100 h 8 a 32,32 0 0 1 32,32 v 6"
   id="path10"
   fill="none"
   stroke="#4d4d4d"
   stroke-width="3"
   marker-end="url(#arrow)" /><path
   d="m 320,240 v 38"
   id="path12"
   fill="none"
   stroke="#4d4d4d"
   stroke-width="3"
   marker-end="url(#arrow)" /><path
   d="m 188,274 h 180 a 32,32 0 0 0 32,-32"
   id="path13"
   fill="none"
   stroke="#4d4d4d"
   stroke-width="3"
   marker-end="url(#arrow)" /><path
   d="m 320,180 v 18"
   id="path15"
   fill="none"
   stroke="#4d4d4d"
   stroke-width="3"
   marker-end="url(#arrow)" /><path
   d="m 400,200 a 16,16 0 0 1 16,-16 h 35 a 16,16 0 0 0 16,-10 a 16,16 0 0 1 16,-10 h 35"
   id="path16"
   fill="none"
   stroke="#4d4d4d"
   stroke-width="3"
   marker-end="url(#arrow)" /><path
   d="m 400,132 v -10"
   id="path17"
   fill="none"
   stroke="#4d4d4d"
   stroke-width="3"
   marker-end="url(#arrow)" /><path
   d="m 540,200 v -18"
   id="path18"
   fill="none"
   stroke="#4d4d4d"
   stroke-width="3"
   marker-end="url(#arrow)" /><path
   d="m 540,140 v -18"
   id="path19"
   fill="none"
   stroke="#4d4d4d"
   stroke-width="3"
   marker-end="url(#arrow)" /><path
   d="m 420,100 h 98"
   id="path20"
   fill="none"
   stroke="#4d4d4d"
   stroke-width="3"
   marker-end="url(#arrow)" /><line
   x1="560"
   x2="690"
   y1="100"
   y2="100"
   stroke-width="3"
   stroke="#4d4d4d"
   id="line14"
   marker-end="url(#arrow)" /><path
   id="path14"
   d="m 636,100 a 24,24 0 0 0 24,-24 V 40"
   fill="none"
   stroke="#4d4d4d"
   stroke-width="3"
   marker-end="url(#arrow)" /><path
   d="m 220,200 a 16,16 0 0 1 16,-16 h 16 a 16,16 0 0 1 16,16 v 4 a 16,16 0 0 0 16,16 h 14"
   id="path1"
   fill="none"
   stroke="#4d4d4d"
   stroke-width="3"
   marker-end="url(#arrow)" /><path
   d="m 400,200 v -26"
   id="path2"
   fill="none"
   stroke="#4d4d4d"
   stroke-width="3"
   marker-end="url(#arrow)" /><path
   d="m 60,360 v -12 a 48,48 0 0 1 48,-48 h 90"
   id="path3"
   fill="none"
   stroke="#4d4d4d"
   stroke-width="3"
   marker-end="url(#arrow)" /><path
   d="m 280,300 h 18"
   id="path4"
   fill="none"
   stroke="#4d4d4d"
   stroke-width="3"
   marker-end="url(#arrow)" /></g><g
   id="calque"
   style="display:inline"><text
     id="text1982"
     y="36"
     x="660"
     font-size="12"
     fill="#4d4d4d"
     text-anchor="middle">$h_t$</text><text
     id="text1994"
     y="104"
     x="693"
     font-size="10"
     fill="#4d4d4d">$h_t$</text><text
     x="60"
     y="372"
     id="text2002"
     font-size="12"
     fill="#4d4d4d"
     text-anchor="middle">$x_t$</text><text
     x="60"
     y="104"
     id="text2058"
     fill="#4d4d4d"
     font-size="12"
     text-anchor="end">$h_{t-1}$</text></g><metadata
   id="metadata1990"><rdf:RDF><cc:Work
       rdf:about=""><dc:title>LSTM Cell</dc:title></cc:Work></rdf:RDF></metadata></svg>
