<?xml version="1.0" encoding="utf-8" standalone="no"?>
<!DOCTYPE svg PUBLIC "-//W3C//DTD SVG 1.1//EN"
  "http://www.w3.org/Graphics/SVG/1.1/DTD/svg11.dtd">
<svg xmlns:xlink="http://www.w3.org/1999/xlink" width="411.709063pt" height="310.86825pt" viewBox="0 0 411.709063 310.86825" xmlns="http://www.w3.org/2000/svg" version="1.1">
 <metadata>
  <rdf:RDF xmlns:dc="http://purl.org/dc/elements/1.1/" xmlns:cc="http://creativecommons.org/ns#" xmlns:rdf="http://www.w3.org/1999/02/22-rdf-syntax-ns#">
   <cc:Work>
    <dc:type rdf:resource="http://purl.org/dc/dcmitype/StillImage"/>
    <dc:date>2023-10-24T18:22:07.913571</dc:date>
    <dc:format>image/svg+xml</dc:format>
    <dc:creator>
     <cc:Agent>
      <dc:title>Matplotlib v3.8.0, https://matplotlib.org/</dc:title>
     </cc:Agent>
    </dc:creator>
   </cc:Work>
  </rdf:RDF>
 </metadata>
 <defs>
  <style type="text/css">*{stroke-linejoin: round; stroke-linecap: butt}</style>
 </defs>
 <g id="figure_1">
  <g id="patch_1">
   <path d="M 0 310.86825 
L 411.709063 310.86825 
L 411.709063 0 
L 0 0 
z
" style="fill: #ffffff"/>
  </g>
  <g id="axes_1">
   <g id="patch_2">
    <path d="M 47.389063 140.256 
L 404.509063 140.256 
L 404.509063 7.2 
L 47.389063 7.2 
z
" style="fill: #ffffff"/>
   </g>
   <g id="matplotlib.axis_1">
    <g id="xtick_1">
     <g id="line2d_1">
      <defs>
       <path id="m371710e6d2" d="M 0 0 
L 0 3.5 
" style="stroke: #000000; stroke-width: 0.8"/>
      </defs>
      <g>
       <use xlink:href="#m371710e6d2" x="63.62179" y="140.256" style="stroke: #000000; stroke-width: 0.8"/>
      </g>
     </g>
    </g>
    <g id="xtick_2">
     <g id="line2d_2">
      <g>
       <use xlink:href="#m371710e6d2" x="128.617695" y="140.256" style="stroke: #000000; stroke-width: 0.8"/>
      </g>
     </g>
    </g>
    <g id="xtick_3">
     <g id="line2d_3">
      <g>
       <use xlink:href="#m371710e6d2" x="193.6136" y="140.256" style="stroke: #000000; stroke-width: 0.8"/>
      </g>
     </g>
    </g>
    <g id="xtick_4">
     <g id="line2d_4">
      <g>
       <use xlink:href="#m371710e6d2" x="258.609505" y="140.256" style="stroke: #000000; stroke-width: 0.8"/>
      </g>
     </g>
    </g>
    <g id="xtick_5">
     <g id="line2d_5">
      <g>
       <use xlink:href="#m371710e6d2" x="323.60541" y="140.256" style="stroke: #000000; stroke-width: 0.8"/>
      </g>
     </g>
    </g>
    <g id="xtick_6">
     <g id="line2d_6">
      <g>
       <use xlink:href="#m371710e6d2" x="388.601315" y="140.256" style="stroke: #000000; stroke-width: 0.8"/>
      </g>
     </g>
    </g>
   </g>
   <g id="matplotlib.axis_2">
    <g id="ytick_1">
     <g id="line2d_7">
      <defs>
       <path id="m12cd6cc658" d="M 0 0 
L -3.5 0 
" style="stroke: #000000; stroke-width: 0.8"/>
      </defs>
      <g>
       <use xlink:href="#m12cd6cc658" x="47.389063" y="134.208" style="stroke: #000000; stroke-width: 0.8"/>
      </g>
     </g>
     <g id="text_1">
      <text style="font: 10px 'DejaVu Sans', 'Bitstream Vera Sans', 'Computer Modern Sans Serif', 'Lucida Grande', 'Verdana', 'Geneva', 'Lucid', 'Arial', 'Helvetica', 'Avant Garde', sans-serif; text-anchor: end" x="40.389063" y="138.007219" transform="rotate(-0 40.389063 138.007219)">0.0</text>
     </g>
    </g>
    <g id="ytick_2">
     <g id="line2d_8">
      <g>
       <use xlink:href="#m12cd6cc658" x="47.389063" y="107.912348" style="stroke: #000000; stroke-width: 0.8"/>
      </g>
     </g>
     <g id="text_2">
      <text style="font: 10px 'DejaVu Sans', 'Bitstream Vera Sans', 'Computer Modern Sans Serif', 'Lucida Grande', 'Verdana', 'Geneva', 'Lucid', 'Arial', 'Helvetica', 'Avant Garde', sans-serif; text-anchor: end" x="40.389063" y="111.711567" transform="rotate(-0 40.389063 111.711567)">0.5</text>
     </g>
    </g>
    <g id="ytick_3">
     <g id="line2d_9">
      <g>
       <use xlink:href="#m12cd6cc658" x="47.389063" y="81.616696" style="stroke: #000000; stroke-width: 0.8"/>
      </g>
     </g>
     <g id="text_3">
      <text style="font: 10px 'DejaVu Sans', 'Bitstream Vera Sans', 'Computer Modern Sans Serif', 'Lucida Grande', 'Verdana', 'Geneva', 'Lucid', 'Arial', 'Helvetica', 'Avant Garde', sans-serif; text-anchor: end" x="40.389063" y="85.415914" transform="rotate(-0 40.389063 85.415914)">1.0</text>
     </g>
    </g>
    <g id="ytick_4">
     <g id="line2d_10">
      <g>
       <use xlink:href="#m12cd6cc658" x="47.389063" y="55.321043" style="stroke: #000000; stroke-width: 0.8"/>
      </g>
     </g>
     <g id="text_4">
      <text style="font: 10px 'DejaVu Sans', 'Bitstream Vera Sans', 'Computer Modern Sans Serif', 'Lucida Grande', 'Verdana', 'Geneva', 'Lucid', 'Arial', 'Helvetica', 'Avant Garde', sans-serif; text-anchor: end" x="40.389063" y="59.120262" transform="rotate(-0 40.389063 59.120262)">1.5</text>
     </g>
    </g>
    <g id="ytick_5">
     <g id="line2d_11">
      <g>
       <use xlink:href="#m12cd6cc658" x="47.389063" y="29.025391" style="stroke: #000000; stroke-width: 0.8"/>
      </g>
     </g>
     <g id="text_5">
      <text style="font: 10px 'DejaVu Sans', 'Bitstream Vera Sans', 'Computer Modern Sans Serif', 'Lucida Grande', 'Verdana', 'Geneva', 'Lucid', 'Arial', 'Helvetica', 'Avant Garde', sans-serif; text-anchor: end" x="40.389063" y="32.82461" transform="rotate(-0 40.389063 32.82461)">2.0</text>
     </g>
    </g>
    <g id="text_6">
     <text style="font: 10px 'DejaVu Sans', 'Bitstream Vera Sans', 'Computer Modern Sans Serif', 'Lucida Grande', 'Verdana', 'Geneva', 'Lucid', 'Arial', 'Helvetica', 'Avant Garde', sans-serif; text-anchor: middle" x="18.40625" y="73.728" transform="rotate(-90 18.40625 73.728)">Current (nA)</text>
    </g>
   </g>
   <g id="line2d_12">
    <path d="M 63.62179 134.208 
L 128.292715 134.208 
L 128.617695 60.580174 
L 141.291896 60.580174 
L 141.616876 134.208 
L 388.276335 134.208 
L 388.276335 134.208 
" clip-path="url(#p65d448f090)" style="fill: none; stroke: #ff4500; stroke-width: 1.5; stroke-linecap: square"/>
   </g>
   <g id="line2d_13">
    <path d="M 63.62179 134.208 
L 128.292715 134.208 
L 128.617695 60.580174 
L 258.284525 60.580174 
L 258.609505 134.208 
L 388.276335 134.208 
L 388.276335 134.208 
" clip-path="url(#p65d448f090)" style="fill: none; stroke-dasharray: 5.55,2.4; stroke-dashoffset: 0; stroke: #c71585; stroke-width: 1.5"/>
   </g>
   <g id="line2d_14">
    <path d="M 63.62179 134.208 
L 128.292715 134.208 
L 128.617695 13.248 
L 160.790668 13.248 
L 161.115647 134.208 
L 193.28862 134.208 
L 193.6136 13.248 
L 225.786573 13.248 
L 226.111552 134.208 
L 258.284525 134.208 
L 258.609505 13.248 
L 290.782478 13.248 
L 291.107457 134.208 
L 388.276335 134.208 
L 388.276335 134.208 
" clip-path="url(#p65d448f090)" style="fill: none; stroke-dasharray: 9.6,2.4,1.5,2.4; stroke-dashoffset: 0; stroke: #4682b4; stroke-width: 1.5"/>
   </g>
   <g id="line2d_15">
    <path d="M 63.62179 134.208 
L 128.617695 134.183808 
L 161.115647 13.248 
L 193.6136 134.183808 
L 226.111552 13.248 
L 258.609505 134.183808 
L 291.107457 13.248 
L 323.60541 134.208 
L 388.276335 134.208 
L 388.276335 134.208 
" clip-path="url(#p65d448f090)" style="fill: none; stroke-dasharray: 2.5,4.125; stroke-dashoffset: 0; stroke: #6b8e23; stroke-width: 2.5"/>
   </g>
   <g id="patch_3">
    <path d="M 47.389063 140.256 
L 47.389063 7.2 
" style="fill: none; stroke: #000000; stroke-width: 0.8; stroke-linejoin: miter; stroke-linecap: square"/>
   </g>
   <g id="patch_4">
    <path d="M 404.509063 140.256 
L 404.509063 7.2 
" style="fill: none; stroke: #000000; stroke-width: 0.8; stroke-linejoin: miter; stroke-linecap: square"/>
   </g>
   <g id="patch_5">
    <path d="M 47.389063 140.256 
L 404.509062 140.256 
" style="fill: none; stroke: #000000; stroke-width: 0.8; stroke-linejoin: miter; stroke-linecap: square"/>
   </g>
   <g id="patch_6">
    <path d="M 47.389063 7.2 
L 404.509062 7.2 
" style="fill: none; stroke: #000000; stroke-width: 0.8; stroke-linejoin: miter; stroke-linecap: square"/>
   </g>
   <g id="legend_1">
    <g id="patch_7">
     <path d="M 333.345 73.9125 
L 397.509063 73.9125 
Q 399.509063 73.9125 399.509063 71.9125 
L 399.509063 14.2 
Q 399.509063 12.2 397.509063 12.2 
L 333.345 12.2 
Q 331.345 12.2 331.345 14.2 
L 331.345 71.9125 
Q 331.345 73.9125 333.345 73.9125 
z
" style="fill: #ffffff; opacity: 0.8; stroke: #cccccc; stroke-linejoin: miter"/>
    </g>
    <g id="line2d_16">
     <path d="M 335.345 20.298437 
L 345.345 20.298437 
L 355.345 20.298437 
" style="fill: none; stroke: #ff4500; stroke-width: 1.5; stroke-linecap: square"/>
    </g>
    <g id="text_7">
     <text style="font: 10px 'DejaVu Sans', 'Bitstream Vera Sans', 'Computer Modern Sans Serif', 'Lucida Grande', 'Verdana', 'Geneva', 'Lucid', 'Arial', 'Helvetica', 'Avant Garde', sans-serif; text-anchor: start" x="363.345" y="23.798437" transform="rotate(-0 363.345 23.798437)">PLML2</text>
    </g>
    <g id="line2d_17">
     <path d="M 335.345 34.976562 
L 345.345 34.976562 
L 355.345 34.976562 
" style="fill: none; stroke-dasharray: 5.55,2.4; stroke-dashoffset: 0; stroke: #c71585; stroke-width: 1.5"/>
    </g>
    <g id="text_8">
     <text style="font: 10px 'DejaVu Sans', 'Bitstream Vera Sans', 'Computer Modern Sans Serif', 'Lucida Grande', 'Verdana', 'Geneva', 'Lucid', 'Arial', 'Helvetica', 'Avant Garde', sans-serif; text-anchor: start" x="363.345" y="38.476562" transform="rotate(-0 363.345 38.476562)">PLMR</text>
    </g>
    <g id="line2d_18">
     <path d="M 335.345 49.654687 
L 345.345 49.654687 
L 355.345 49.654687 
" style="fill: none; stroke-dasharray: 9.6,2.4,1.5,2.4; stroke-dashoffset: 0; stroke: #4682b4; stroke-width: 1.5"/>
    </g>
    <g id="text_9">
     <text style="font: 10px 'DejaVu Sans', 'Bitstream Vera Sans', 'Computer Modern Sans Serif', 'Lucida Grande', 'Verdana', 'Geneva', 'Lucid', 'Arial', 'Helvetica', 'Avant Garde', sans-serif; text-anchor: start" x="363.345" y="53.154687" transform="rotate(-0 363.345 53.154687)">AVBL</text>
    </g>
    <g id="line2d_19">
     <path d="M 335.345 64.332812 
L 345.345 64.332812 
L 355.345 64.332812 
" style="fill: none; stroke-dasharray: 2.5,4.125; stroke-dashoffset: 0; stroke: #6b8e23; stroke-width: 2.5"/>
    </g>
    <g id="text_10">
     <text style="font: 10px 'DejaVu Sans', 'Bitstream Vera Sans', 'Computer Modern Sans Serif', 'Lucida Grande', 'Verdana', 'Geneva', 'Lucid', 'Arial', 'Helvetica', 'Avant Garde', sans-serif; text-anchor: start" x="363.345" y="67.832812" transform="rotate(-0 363.345 67.832812)">AVBR</text>
    </g>
   </g>
  </g>
  <g id="axes_2">
   <g id="patch_8">
    <path d="M 47.389063 273.312 
L 404.509063 273.312 
L 404.509063 140.256 
L 47.389063 140.256 
z
" style="fill: #ffffff"/>
   </g>
   <g id="matplotlib.axis_3">
    <g id="xtick_7">
     <g id="line2d_20">
      <g>
       <use xlink:href="#m371710e6d2" x="63.62179" y="273.312" style="stroke: #000000; stroke-width: 0.8"/>
      </g>
     </g>
     <g id="text_11">
      <text style="font: 10px 'DejaVu Sans', 'Bitstream Vera Sans', 'Computer Modern Sans Serif', 'Lucida Grande', 'Verdana', 'Geneva', 'Lucid', 'Arial', 'Helvetica', 'Avant Garde', sans-serif; text-anchor: middle" x="63.62179" y="287.910437" transform="rotate(-0 63.62179 287.910437)">0</text>
     </g>
    </g>
    <g id="xtick_8">
     <g id="line2d_21">
      <g>
       <use xlink:href="#m371710e6d2" x="128.617695" y="273.312" style="stroke: #000000; stroke-width: 0.8"/>
      </g>
     </g>
     <g id="text_12">
      <text style="font: 10px 'DejaVu Sans', 'Bitstream Vera Sans', 'Computer Modern Sans Serif', 'Lucida Grande', 'Verdana', 'Geneva', 'Lucid', 'Arial', 'Helvetica', 'Avant Garde', sans-serif; text-anchor: middle" x="128.617695" y="287.910437" transform="rotate(-0 128.617695 287.910437)">100</text>
     </g>
    </g>
    <g id="xtick_9">
     <g id="line2d_22">
      <g>
       <use xlink:href="#m371710e6d2" x="193.6136" y="273.312" style="stroke: #000000; stroke-width: 0.8"/>
      </g>
     </g>
     <g id="text_13">
      <text style="font: 10px 'DejaVu Sans', 'Bitstream Vera Sans', 'Computer Modern Sans Serif', 'Lucida Grande', 'Verdana', 'Geneva', 'Lucid', 'Arial', 'Helvetica', 'Avant Garde', sans-serif; text-anchor: middle" x="193.6136" y="287.910437" transform="rotate(-0 193.6136 287.910437)">200</text>
     </g>
    </g>
    <g id="xtick_10">
     <g id="line2d_23">
      <g>
       <use xlink:href="#m371710e6d2" x="258.609505" y="273.312" style="stroke: #000000; stroke-width: 0.8"/>
      </g>
     </g>
     <g id="text_14">
      <text style="font: 10px 'DejaVu Sans', 'Bitstream Vera Sans', 'Computer Modern Sans Serif', 'Lucida Grande', 'Verdana', 'Geneva', 'Lucid', 'Arial', 'Helvetica', 'Avant Garde', sans-serif; text-anchor: middle" x="258.609505" y="287.910437" transform="rotate(-0 258.609505 287.910437)">300</text>
     </g>
    </g>
    <g id="xtick_11">
     <g id="line2d_24">
      <g>
       <use xlink:href="#m371710e6d2" x="323.60541" y="273.312" style="stroke: #000000; stroke-width: 0.8"/>
      </g>
     </g>
     <g id="text_15">
      <text style="font: 10px 'DejaVu Sans', 'Bitstream Vera Sans', 'Computer Modern Sans Serif', 'Lucida Grande', 'Verdana', 'Geneva', 'Lucid', 'Arial', 'Helvetica', 'Avant Garde', sans-serif; text-anchor: middle" x="323.60541" y="287.910437" transform="rotate(-0 323.60541 287.910437)">400</text>
     </g>
    </g>
    <g id="xtick_12">
     <g id="line2d_25">
      <g>
       <use xlink:href="#m371710e6d2" x="388.601315" y="273.312" style="stroke: #000000; stroke-width: 0.8"/>
      </g>
     </g>
     <g id="text_16">
      <text style="font: 10px 'DejaVu Sans', 'Bitstream Vera Sans', 'Computer Modern Sans Serif', 'Lucida Grande', 'Verdana', 'Geneva', 'Lucid', 'Arial', 'Helvetica', 'Avant Garde', sans-serif; text-anchor: middle" x="388.601315" y="287.910437" transform="rotate(-0 388.601315 287.910437)">500</text>
     </g>
    </g>
    <g id="text_17">
     <text style="font: 10px 'DejaVu Sans', 'Bitstream Vera Sans', 'Computer Modern Sans Serif', 'Lucida Grande', 'Verdana', 'Geneva', 'Lucid', 'Arial', 'Helvetica', 'Avant Garde', sans-serif; text-anchor: middle" x="225.949063" y="301.588562" transform="rotate(-0 225.949063 301.588562)">Time (ms)</text>
    </g>
   </g>
   <g id="matplotlib.axis_4">
    <g id="ytick_6">
     <g id="line2d_26">
      <g>
       <use xlink:href="#m12cd6cc658" x="47.389063" y="272.698223" style="stroke: #000000; stroke-width: 0.8"/>
      </g>
     </g>
     <g id="text_18">
      <text style="font: 10px 'DejaVu Sans', 'Bitstream Vera Sans', 'Computer Modern Sans Serif', 'Lucida Grande', 'Verdana', 'Geneva', 'Lucid', 'Arial', 'Helvetica', 'Avant Garde', sans-serif; text-anchor: end" x="40.389063" y="276.497442" transform="rotate(-0 40.389063 276.497442)">-0.1</text>
     </g>
    </g>
    <g id="ytick_7">
     <g id="line2d_27">
      <g>
       <use xlink:href="#m12cd6cc658" x="47.389063" y="242.460191" style="stroke: #000000; stroke-width: 0.8"/>
      </g>
     </g>
     <g id="text_19">
      <text style="font: 10px 'DejaVu Sans', 'Bitstream Vera Sans', 'Computer Modern Sans Serif', 'Lucida Grande', 'Verdana', 'Geneva', 'Lucid', 'Arial', 'Helvetica', 'Avant Garde', sans-serif; text-anchor: end" x="40.389063" y="246.25941" transform="rotate(-0 40.389063 246.25941)">0.0</text>
     </g>
    </g>
    <g id="ytick_8">
     <g id="line2d_28">
      <g>
       <use xlink:href="#m12cd6cc658" x="47.389063" y="212.222159" style="stroke: #000000; stroke-width: 0.8"/>
      </g>
     </g>
     <g id="text_20">
      <text style="font: 10px 'DejaVu Sans', 'Bitstream Vera Sans', 'Computer Modern Sans Serif', 'Lucida Grande', 'Verdana', 'Geneva', 'Lucid', 'Arial', 'Helvetica', 'Avant Garde', sans-serif; text-anchor: end" x="40.389063" y="216.021378" transform="rotate(-0 40.389063 216.021378)">0.1</text>
     </g>
    </g>
    <g id="ytick_9">
     <g id="line2d_29">
      <g>
       <use xlink:href="#m12cd6cc658" x="47.389063" y="181.984128" style="stroke: #000000; stroke-width: 0.8"/>
      </g>
     </g>
     <g id="text_21">
      <text style="font: 10px 'DejaVu Sans', 'Bitstream Vera Sans', 'Computer Modern Sans Serif', 'Lucida Grande', 'Verdana', 'Geneva', 'Lucid', 'Arial', 'Helvetica', 'Avant Garde', sans-serif; text-anchor: end" x="40.389063" y="185.783346" transform="rotate(-0 40.389063 185.783346)">0.2</text>
     </g>
    </g>
    <g id="ytick_10">
     <g id="line2d_30">
      <g>
       <use xlink:href="#m12cd6cc658" x="47.389063" y="151.746096" style="stroke: #000000; stroke-width: 0.8"/>
      </g>
     </g>
     <g id="text_22">
      <text style="font: 10px 'DejaVu Sans', 'Bitstream Vera Sans', 'Computer Modern Sans Serif', 'Lucida Grande', 'Verdana', 'Geneva', 'Lucid', 'Arial', 'Helvetica', 'Avant Garde', sans-serif; text-anchor: end" x="40.389063" y="155.545315" transform="rotate(-0 40.389063 155.545315)">0.3</text>
     </g>
    </g>
    <g id="text_23">
     <text style="font: 10px 'DejaVu Sans', 'Bitstream Vera Sans', 'Computer Modern Sans Serif', 'Lucida Grande', 'Verdana', 'Geneva', 'Lucid', 'Arial', 'Helvetica', 'Avant Garde', sans-serif; text-anchor: middle" x="14.798438" y="206.784" transform="rotate(-90 14.798438 206.784)">Voltage (V)</text>
    </g>
   </g>
   <g id="line2d_31">
    <path d="M 63.62179 262.114912 
L 128.617695 262.114912 
L 128.942674 261.619619 
L 129.917613 258.855657 
L 131.54251 255.673894 
L 133.817367 251.071444 
L 136.417203 245.277499 
L 139.991978 236.708588 
L 155.915975 197.709144 
L 161.115647 185.624454 
L 161.440627 185.375414 
L 162.090586 185.914769 
L 162.740545 186.012983 
L 164.690422 185.915404 
L 165.99034 186.138017 
L 167.290258 186.613812 
L 169.240135 187.823213 
L 170.865033 188.935972 
L 172.489931 190.328615 
L 174.439808 192.295569 
L 176.714664 194.914575 
L 179.96446 199.148444 
L 183.214255 203.797995 
L 186.78903 209.306729 
L 191.013764 216.216322 
L 193.6136 220.635653 
L 193.938579 220.697719 
L 194.588538 219.778338 
L 195.238497 219.313537 
L 197.513354 218.172947 
L 199.138252 216.993833 
L 200.763149 215.526883 
L 202.713026 213.445227 
L 204.987883 210.676361 
L 207.26274 207.602212 
L 210.187556 203.239196 
L 214.08731 196.984006 
L 218.962003 188.63722 
L 226.111552 175.756121 
L 226.436532 175.654189 
L 227.086491 176.482348 
L 227.73645 176.860686 
L 230.011307 177.745542 
L 231.311225 178.500041 
L 232.936122 179.726072 
L 234.56102 181.22225 
L 236.510897 183.31578 
L 238.785754 186.097558 
L 241.38559 189.636678 
L 244.635385 194.480115 
L 248.535139 200.750848 
L 253.084853 208.516731 
L 258.609505 218.390337 
L 258.934484 218.490349 
L 259.584443 217.680862 
L 260.234402 217.329109 
L 262.509259 216.590863 
L 264.134157 215.72773 
L 265.759054 214.600777 
L 267.708931 212.944062 
L 269.983788 210.658611 
L 272.258645 208.063795 
L 275.183461 204.35625 
L 278.758235 199.423792 
L 282.65799 193.585977 
L 287.857662 185.445203 
L 291.107457 179.985091 
L 291.432437 179.929484 
L 292.082396 180.863657 
L 292.732355 181.353181 
L 295.007212 182.600681 
L 296.632109 183.831611 
L 298.257007 185.354005 
L 300.206884 187.507286 
L 302.481741 190.386037 
L 305.081577 194.059232 
L 308.331372 199.089268 
L 312.231126 205.592955 
L 317.105819 214.211238 
L 323.28043 225.619936 
L 324.580348 227.918495 
L 326.855205 231.320969 
L 329.455041 234.796707 
L 332.054877 237.88853 
L 334.654714 240.634084 
L 337.25455 243.068758 
L 339.854386 245.225529 
L 342.779202 247.357395 
L 345.704017 249.214987 
L 348.953813 250.999569 
L 352.203608 252.530505 
L 355.778383 253.964852 
L 359.678137 255.278175 
L 363.902871 256.45542 
L 368.452584 257.490065 
L 373.652257 258.435521 
L 379.501888 259.263036 
L 386.326458 259.989586 
L 388.276335 260.159688 
L 388.276335 260.159688 
" clip-path="url(#pac93533708)" style="fill: none; stroke: #ff4500; stroke-linecap: square"/>
   </g>
   <g id="line2d_32">
    <path d="M 63.62179 256.112939 
L 63.946769 255.097256 
L 64.271749 254.525638 
L 64.921708 254.019146 
L 65.896646 253.821613 
L 68.496483 253.776643 
L 128.292715 253.776094 
L 128.617695 263.514543 
L 128.942674 266.612202 
L 129.267654 267.264 
L 129.592633 266.613914 
L 130.242592 263.312249 
L 131.217531 255.962404 
L 134.142347 232.753287 
L 135.767244 222.399945 
L 137.392142 213.597343 
L 138.367081 209.020369 
L 139.666999 203.703326 
L 141.291896 198.058257 
L 141.616876 146.304 
L 141.941855 147.009054 
L 142.266835 148.532812 
L 142.591814 150.918179 
L 143.891732 167.264626 
L 144.866671 178.545761 
L 145.51663 184.146437 
L 146.166589 188.268295 
L 146.816548 191.16896 
L 147.466507 193.068598 
L 148.116466 194.205215 
L 148.766425 194.764413 
L 149.416384 194.88656 
L 150.066343 194.675659 
L 150.716302 194.21803 
L 151.691241 193.208485 
L 152.991159 191.467346 
L 155.266016 187.960838 
L 157.865852 183.498853 
L 160.790668 178.148273 
L 161.115647 157.766518 
L 163.065524 182.105545 
L 163.715483 186.784061 
L 164.365443 190.252829 
L 165.340381 194.096183 
L 166.31532 197.043817 
L 167.940217 201.117502 
L 170.215074 206.129235 
L 173.464869 212.71989 
L 177.039644 219.526495 
L 182.239316 228.972826 
L 187.438989 237.931756 
L 193.28862 247.666107 
L 193.6136 248.628505 
L 194.263559 240.679841 
L 194.913518 234.66735 
L 195.563477 230.341873 
L 196.213436 227.212862 
L 196.863395 224.884949 
L 197.838334 222.308347 
L 198.813272 220.343372 
L 200.11319 218.200959 
L 202.388047 214.957885 
L 209.212617 205.555319 
L 213.437351 199.288761 
L 216.362167 194.682562 
L 221.236859 186.439971 
L 224.811634 179.98035 
L 225.786573 178.160701 
L 226.111552 157.778111 
L 228.061429 182.108436 
L 228.711388 186.785818 
L 229.361348 190.253921 
L 230.336286 194.096679 
L 231.311225 197.044052 
L 232.936122 201.117554 
L 235.210979 206.129238 
L 238.460774 212.71989 
L 242.035549 219.526495 
L 247.235221 228.972826 
L 252.434894 237.931756 
L 258.284525 247.666107 
L 258.934484 233.574203 
L 259.259464 230.086805 
L 259.909423 226.367996 
L 260.559382 224.442863 
L 261.209341 223.240708 
L 262.18428 221.963701 
L 264.459136 219.560709 
L 270.633747 213.430133 
L 280.708112 203.410891 
L 287.857662 196.159947 
L 290.782478 193.087485 
L 291.107457 188.540719 
L 291.757416 199.79763 
L 292.407375 206.84775 
L 293.057334 210.775714 
L 293.707293 213.065543 
L 294.357253 214.571059 
L 295.332191 216.217985 
L 297.282068 218.90802 
L 305.406556 229.444914 
L 321.005574 249.813363 
L 323.60541 253.27624 
L 324.255369 253.632141 
L 325.230307 253.753771 
L 329.130062 253.776079 
L 388.276335 253.776093 
L 388.276335 253.776093 
" clip-path="url(#pac93533708)" style="fill: none; stroke-dasharray: 3.7,1.6; stroke-dashoffset: 0; stroke: #ff4500"/>
   </g>
   <g id="patch_9">
    <path d="M 47.389063 273.312 
L 47.389063 140.256 
" style="fill: none; stroke: #000000; stroke-width: 0.8; stroke-linejoin: miter; stroke-linecap: square"/>
   </g>
   <g id="patch_10">
    <path d="M 404.509063 273.312 
L 404.509063 140.256 
" style="fill: none; stroke: #000000; stroke-width: 0.8; stroke-linejoin: miter; stroke-linecap: square"/>
   </g>
   <g id="patch_11">
    <path d="M 47.389063 273.312 
L 404.509062 273.312 
" style="fill: none; stroke: #000000; stroke-width: 0.8; stroke-linejoin: miter; stroke-linecap: square"/>
   </g>
   <g id="patch_12">
    <path d="M 47.389063 140.256 
L 404.509062 140.256 
" style="fill: none; stroke: #000000; stroke-width: 0.8; stroke-linejoin: miter; stroke-linecap: square"/>
   </g>
   <g id="legend_2">
    <g id="patch_13">
     <path d="M 255.630938 177.61225 
L 397.509063 177.61225 
Q 399.509063 177.61225 399.509063 175.61225 
L 399.509063 147.256 
Q 399.509063 145.256 397.509063 145.256 
L 255.630938 145.256 
Q 253.630938 145.256 253.630938 147.256 
L 253.630938 175.61225 
Q 253.630938 177.61225 255.630938 177.61225 
z
" style="fill: #ffffff; opacity: 0.8; stroke: #cccccc; stroke-linejoin: miter"/>
    </g>
    <g id="line2d_33">
     <path d="M 257.630938 153.354437 
L 267.630938 153.354437 
L 277.630938 153.354437 
" style="fill: none; stroke: #ff4500; stroke-linecap: square"/>
    </g>
    <g id="text_24">
     <text style="font: 10px 'DejaVu Sans', 'Bitstream Vera Sans', 'Computer Modern Sans Serif', 'Lucida Grande', 'Verdana', 'Geneva', 'Lucid', 'Arial', 'Helvetica', 'Avant Garde', sans-serif; text-anchor: start" x="285.630938" y="156.854437" transform="rotate(-0 285.630938 156.854437)">DB1</text>
    </g>
    <g id="line2d_34">
     <path d="M 257.630938 168.032562 
L 267.630938 168.032562 
L 277.630938 168.032562 
" style="fill: none; stroke-dasharray: 3.7,1.6; stroke-dashoffset: 0; stroke: #ff4500"/>
    </g>
    <g id="text_25">
     <text style="font: 10px 'DejaVu Sans', 'Bitstream Vera Sans', 'Computer Modern Sans Serif', 'Lucida Grande', 'Verdana', 'Geneva', 'Lucid', 'Arial', 'Helvetica', 'Avant Garde', sans-serif; text-anchor: start" x="285.630938" y="171.532562" transform="rotate(-0 285.630938 171.532562)">Digital prediction DB1</text>
    </g>
   </g>
  </g>
 </g>
 <defs>
  <clipPath id="p65d448f090">
   <rect x="47.389063" y="7.2" width="357.12" height="133.056"/>
  </clipPath>
  <clipPath id="pac93533708">
   <rect x="47.389063" y="140.256" width="357.12" height="133.056"/>
  </clipPath>
 </defs>
</svg>
