<?xml version="1.0" encoding="utf-8" standalone="no"?>
<!DOCTYPE svg PUBLIC "-//W3C//DTD SVG 1.1//EN"
  "http://www.w3.org/Graphics/SVG/1.1/DTD/svg11.dtd">
<svg xmlns:xlink="http://www.w3.org/1999/xlink" width="408.10125pt" height="310.86825pt" viewBox="0 0 408.10125 310.86825" xmlns="http://www.w3.org/2000/svg" version="1.1">
 <metadata>
  <rdf:RDF xmlns:dc="http://purl.org/dc/elements/1.1/" xmlns:cc="http://creativecommons.org/ns#" xmlns:rdf="http://www.w3.org/1999/02/22-rdf-syntax-ns#">
   <cc:Work>
    <dc:type rdf:resource="http://purl.org/dc/dcmitype/StillImage"/>
    <dc:date>2023-10-25T12:46:40.321763</dc:date>
    <dc:format>image/svg+xml</dc:format>
    <dc:creator>
     <cc:Agent>
      <dc:title>Matplotlib v3.8.0, https://matplotlib.org/</dc:title>
     </cc:Agent>
    </dc:creator>
   </cc:Work>
  </rdf:RDF>
 </metadata>
 <defs>
  <style type="text/css">*{stroke-linejoin: round; stroke-linecap: butt}</style>
 </defs>
 <g id="figure_1">
  <g id="patch_1">
   <path d="M 0 310.86825 
L 408.10125 310.86825 
L 408.10125 0 
L 0 0 
z
" style="fill: #ffffff"/>
  </g>
  <g id="axes_1">
   <g id="patch_2">
    <path d="M 43.78125 140.256 
L 400.90125 140.256 
L 400.90125 7.2 
L 43.78125 7.2 
z
" style="fill: #ffffff"/>
   </g>
   <g id="matplotlib.axis_1">
    <g id="xtick_1">
     <g id="line2d_1">
      <defs>
       <path id="m8bfc659c82" d="M 0 0 
L 0 3.5 
" style="stroke: #000000; stroke-width: 0.8"/>
      </defs>
      <g>
       <use xlink:href="#m8bfc659c82" x="60.013977" y="140.256" style="stroke: #000000; stroke-width: 0.8"/>
      </g>
     </g>
    </g>
    <g id="xtick_2">
     <g id="line2d_2">
      <g>
       <use xlink:href="#m8bfc659c82" x="125.009882" y="140.256" style="stroke: #000000; stroke-width: 0.8"/>
      </g>
     </g>
    </g>
    <g id="xtick_3">
     <g id="line2d_3">
      <g>
       <use xlink:href="#m8bfc659c82" x="190.005787" y="140.256" style="stroke: #000000; stroke-width: 0.8"/>
      </g>
     </g>
    </g>
    <g id="xtick_4">
     <g id="line2d_4">
      <g>
       <use xlink:href="#m8bfc659c82" x="255.001692" y="140.256" style="stroke: #000000; stroke-width: 0.8"/>
      </g>
     </g>
    </g>
    <g id="xtick_5">
     <g id="line2d_5">
      <g>
       <use xlink:href="#m8bfc659c82" x="319.997597" y="140.256" style="stroke: #000000; stroke-width: 0.8"/>
      </g>
     </g>
    </g>
    <g id="xtick_6">
     <g id="line2d_6">
      <g>
       <use xlink:href="#m8bfc659c82" x="384.993502" y="140.256" style="stroke: #000000; stroke-width: 0.8"/>
      </g>
     </g>
    </g>
   </g>
   <g id="matplotlib.axis_2">
    <g id="ytick_1">
     <g id="line2d_7">
      <defs>
       <path id="ma9ab9a7704" d="M 0 0 
L -3.5 0 
" style="stroke: #000000; stroke-width: 0.8"/>
      </defs>
      <g>
       <use xlink:href="#ma9ab9a7704" x="43.78125" y="134.208" style="stroke: #000000; stroke-width: 0.8"/>
      </g>
     </g>
     <g id="text_1">
      <text style="font: 10px 'DejaVu Sans', 'Bitstream Vera Sans', 'Computer Modern Sans Serif', 'Lucida Grande', 'Verdana', 'Geneva', 'Lucid', 'Arial', 'Helvetica', 'Avant Garde', sans-serif; text-anchor: end" x="36.78125" y="138.007219" transform="rotate(-0 36.78125 138.007219)">0.0</text>
     </g>
    </g>
    <g id="ytick_2">
     <g id="line2d_8">
      <g>
       <use xlink:href="#ma9ab9a7704" x="43.78125" y="107.782865" style="stroke: #000000; stroke-width: 0.8"/>
      </g>
     </g>
     <g id="text_2">
      <text style="font: 10px 'DejaVu Sans', 'Bitstream Vera Sans', 'Computer Modern Sans Serif', 'Lucida Grande', 'Verdana', 'Geneva', 'Lucid', 'Arial', 'Helvetica', 'Avant Garde', sans-serif; text-anchor: end" x="36.78125" y="111.582083" transform="rotate(-0 36.78125 111.582083)">0.5</text>
     </g>
    </g>
    <g id="ytick_3">
     <g id="line2d_9">
      <g>
       <use xlink:href="#ma9ab9a7704" x="43.78125" y="81.357729" style="stroke: #000000; stroke-width: 0.8"/>
      </g>
     </g>
     <g id="text_3">
      <text style="font: 10px 'DejaVu Sans', 'Bitstream Vera Sans', 'Computer Modern Sans Serif', 'Lucida Grande', 'Verdana', 'Geneva', 'Lucid', 'Arial', 'Helvetica', 'Avant Garde', sans-serif; text-anchor: end" x="36.78125" y="85.156948" transform="rotate(-0 36.78125 85.156948)">1.0</text>
     </g>
    </g>
    <g id="ytick_4">
     <g id="line2d_10">
      <g>
       <use xlink:href="#ma9ab9a7704" x="43.78125" y="54.932594" style="stroke: #000000; stroke-width: 0.8"/>
      </g>
     </g>
     <g id="text_4">
      <text style="font: 10px 'DejaVu Sans', 'Bitstream Vera Sans', 'Computer Modern Sans Serif', 'Lucida Grande', 'Verdana', 'Geneva', 'Lucid', 'Arial', 'Helvetica', 'Avant Garde', sans-serif; text-anchor: end" x="36.78125" y="58.731813" transform="rotate(-0 36.78125 58.731813)">1.5</text>
     </g>
    </g>
    <g id="ytick_5">
     <g id="line2d_11">
      <g>
       <use xlink:href="#ma9ab9a7704" x="43.78125" y="28.507459" style="stroke: #000000; stroke-width: 0.8"/>
      </g>
     </g>
     <g id="text_5">
      <text style="font: 10px 'DejaVu Sans', 'Bitstream Vera Sans', 'Computer Modern Sans Serif', 'Lucida Grande', 'Verdana', 'Geneva', 'Lucid', 'Arial', 'Helvetica', 'Avant Garde', sans-serif; text-anchor: end" x="36.78125" y="32.306677" transform="rotate(-0 36.78125 32.306677)">2.0</text>
     </g>
    </g>
    <g id="text_6">
     <text style="font: 10px 'DejaVu Sans', 'Bitstream Vera Sans', 'Computer Modern Sans Serif', 'Lucida Grande', 'Verdana', 'Geneva', 'Lucid', 'Arial', 'Helvetica', 'Avant Garde', sans-serif; text-anchor: middle" x="14.798438" y="73.728" transform="rotate(-90 14.798438 73.728)">Current (nA)</text>
    </g>
   </g>
   <g id="line2d_12">
    <path d="M 60.013977 134.208 
L 125.009882 134.200601 
L 189.680808 60.580174 
L 190.005787 134.208 
L 384.668523 134.208 
L 384.668523 134.208 
" clip-path="url(#p33965fbc45)" style="fill: none; stroke: #ff4500; stroke-width: 1.5; stroke-linecap: square"/>
   </g>
   <g id="line2d_13">
    <path d="M 60.013977 134.208 
L 125.009882 134.200601 
L 189.680808 60.580174 
L 190.005787 134.208 
L 384.668523 134.208 
L 384.668523 134.208 
" clip-path="url(#p33965fbc45)" style="fill: none; stroke-dasharray: 5.55,2.4; stroke-dashoffset: 0; stroke: #c71585; stroke-width: 1.5"/>
   </g>
   <g id="line2d_14">
    <path d="M 60.013977 134.208 
L 125.009882 134.195844 
L 189.680808 13.248 
L 190.005787 134.208 
L 384.668523 134.208 
L 384.668523 134.208 
" clip-path="url(#p33965fbc45)" style="fill: none; stroke-dasharray: 9.6,2.4,1.5,2.4; stroke-dashoffset: 0; stroke: #4682b4; stroke-width: 1.5"/>
   </g>
   <g id="line2d_15">
    <path d="M 60.013977 134.208 
L 125.009882 134.195844 
L 189.680808 13.248 
L 190.005787 134.208 
L 384.668523 134.208 
L 384.668523 134.208 
" clip-path="url(#p33965fbc45)" style="fill: none; stroke-dasharray: 2.5,4.125; stroke-dashoffset: 0; stroke: #6b8e23; stroke-width: 2.5"/>
   </g>
   <g id="patch_3">
    <path d="M 43.78125 140.256 
L 43.78125 7.2 
" style="fill: none; stroke: #000000; stroke-width: 0.8; stroke-linejoin: miter; stroke-linecap: square"/>
   </g>
   <g id="patch_4">
    <path d="M 400.90125 140.256 
L 400.90125 7.2 
" style="fill: none; stroke: #000000; stroke-width: 0.8; stroke-linejoin: miter; stroke-linecap: square"/>
   </g>
   <g id="patch_5">
    <path d="M 43.78125 140.256 
L 400.90125 140.256 
" style="fill: none; stroke: #000000; stroke-width: 0.8; stroke-linejoin: miter; stroke-linecap: square"/>
   </g>
   <g id="patch_6">
    <path d="M 43.78125 7.2 
L 400.90125 7.2 
" style="fill: none; stroke: #000000; stroke-width: 0.8; stroke-linejoin: miter; stroke-linecap: square"/>
   </g>
   <g id="legend_1">
    <g id="patch_7">
     <path d="M 329.737188 73.9125 
L 393.90125 73.9125 
Q 395.90125 73.9125 395.90125 71.9125 
L 395.90125 14.2 
Q 395.90125 12.2 393.90125 12.2 
L 329.737188 12.2 
Q 327.737188 12.2 327.737188 14.2 
L 327.737188 71.9125 
Q 327.737188 73.9125 329.737188 73.9125 
z
" style="fill: #ffffff; opacity: 0.8; stroke: #cccccc; stroke-linejoin: miter"/>
    </g>
    <g id="line2d_16">
     <path d="M 331.737188 20.298437 
L 341.737188 20.298437 
L 351.737188 20.298437 
" style="fill: none; stroke: #ff4500; stroke-width: 1.5; stroke-linecap: square"/>
    </g>
    <g id="text_7">
     <text style="font: 10px 'DejaVu Sans', 'Bitstream Vera Sans', 'Computer Modern Sans Serif', 'Lucida Grande', 'Verdana', 'Geneva', 'Lucid', 'Arial', 'Helvetica', 'Avant Garde', sans-serif; text-anchor: start" x="359.737188" y="23.798437" transform="rotate(-0 359.737188 23.798437)">PLML2</text>
    </g>
    <g id="line2d_17">
     <path d="M 331.737188 34.976562 
L 341.737188 34.976562 
L 351.737188 34.976562 
" style="fill: none; stroke-dasharray: 5.55,2.4; stroke-dashoffset: 0; stroke: #c71585; stroke-width: 1.5"/>
    </g>
    <g id="text_8">
     <text style="font: 10px 'DejaVu Sans', 'Bitstream Vera Sans', 'Computer Modern Sans Serif', 'Lucida Grande', 'Verdana', 'Geneva', 'Lucid', 'Arial', 'Helvetica', 'Avant Garde', sans-serif; text-anchor: start" x="359.737188" y="38.476562" transform="rotate(-0 359.737188 38.476562)">PLMR</text>
    </g>
    <g id="line2d_18">
     <path d="M 331.737188 49.654687 
L 341.737188 49.654687 
L 351.737188 49.654687 
" style="fill: none; stroke-dasharray: 9.6,2.4,1.5,2.4; stroke-dashoffset: 0; stroke: #4682b4; stroke-width: 1.5"/>
    </g>
    <g id="text_9">
     <text style="font: 10px 'DejaVu Sans', 'Bitstream Vera Sans', 'Computer Modern Sans Serif', 'Lucida Grande', 'Verdana', 'Geneva', 'Lucid', 'Arial', 'Helvetica', 'Avant Garde', sans-serif; text-anchor: start" x="359.737188" y="53.154687" transform="rotate(-0 359.737188 53.154687)">AVBL</text>
    </g>
    <g id="line2d_19">
     <path d="M 331.737188 64.332812 
L 341.737188 64.332812 
L 351.737188 64.332812 
" style="fill: none; stroke-dasharray: 2.5,4.125; stroke-dashoffset: 0; stroke: #6b8e23; stroke-width: 2.5"/>
    </g>
    <g id="text_10">
     <text style="font: 10px 'DejaVu Sans', 'Bitstream Vera Sans', 'Computer Modern Sans Serif', 'Lucida Grande', 'Verdana', 'Geneva', 'Lucid', 'Arial', 'Helvetica', 'Avant Garde', sans-serif; text-anchor: start" x="359.737188" y="67.832812" transform="rotate(-0 359.737188 67.832812)">AVBR</text>
    </g>
   </g>
  </g>
  <g id="axes_2">
   <g id="patch_8">
    <path d="M 43.78125 273.312 
L 400.90125 273.312 
L 400.90125 140.256 
L 43.78125 140.256 
z
" style="fill: #ffffff"/>
   </g>
   <g id="matplotlib.axis_3">
    <g id="xtick_7">
     <g id="line2d_20">
      <g>
       <use xlink:href="#m8bfc659c82" x="60.013977" y="273.312" style="stroke: #000000; stroke-width: 0.8"/>
      </g>
     </g>
     <g id="text_11">
      <text style="font: 10px 'DejaVu Sans', 'Bitstream Vera Sans', 'Computer Modern Sans Serif', 'Lucida Grande', 'Verdana', 'Geneva', 'Lucid', 'Arial', 'Helvetica', 'Avant Garde', sans-serif; text-anchor: middle" x="60.013977" y="287.910437" transform="rotate(-0 60.013977 287.910437)">0</text>
     </g>
    </g>
    <g id="xtick_8">
     <g id="line2d_21">
      <g>
       <use xlink:href="#m8bfc659c82" x="125.009882" y="273.312" style="stroke: #000000; stroke-width: 0.8"/>
      </g>
     </g>
     <g id="text_12">
      <text style="font: 10px 'DejaVu Sans', 'Bitstream Vera Sans', 'Computer Modern Sans Serif', 'Lucida Grande', 'Verdana', 'Geneva', 'Lucid', 'Arial', 'Helvetica', 'Avant Garde', sans-serif; text-anchor: middle" x="125.009882" y="287.910437" transform="rotate(-0 125.009882 287.910437)">100</text>
     </g>
    </g>
    <g id="xtick_9">
     <g id="line2d_22">
      <g>
       <use xlink:href="#m8bfc659c82" x="190.005787" y="273.312" style="stroke: #000000; stroke-width: 0.8"/>
      </g>
     </g>
     <g id="text_13">
      <text style="font: 10px 'DejaVu Sans', 'Bitstream Vera Sans', 'Computer Modern Sans Serif', 'Lucida Grande', 'Verdana', 'Geneva', 'Lucid', 'Arial', 'Helvetica', 'Avant Garde', sans-serif; text-anchor: middle" x="190.005787" y="287.910437" transform="rotate(-0 190.005787 287.910437)">200</text>
     </g>
    </g>
    <g id="xtick_10">
     <g id="line2d_23">
      <g>
       <use xlink:href="#m8bfc659c82" x="255.001692" y="273.312" style="stroke: #000000; stroke-width: 0.8"/>
      </g>
     </g>
     <g id="text_14">
      <text style="font: 10px 'DejaVu Sans', 'Bitstream Vera Sans', 'Computer Modern Sans Serif', 'Lucida Grande', 'Verdana', 'Geneva', 'Lucid', 'Arial', 'Helvetica', 'Avant Garde', sans-serif; text-anchor: middle" x="255.001692" y="287.910437" transform="rotate(-0 255.001692 287.910437)">300</text>
     </g>
    </g>
    <g id="xtick_11">
     <g id="line2d_24">
      <g>
       <use xlink:href="#m8bfc659c82" x="319.997597" y="273.312" style="stroke: #000000; stroke-width: 0.8"/>
      </g>
     </g>
     <g id="text_15">
      <text style="font: 10px 'DejaVu Sans', 'Bitstream Vera Sans', 'Computer Modern Sans Serif', 'Lucida Grande', 'Verdana', 'Geneva', 'Lucid', 'Arial', 'Helvetica', 'Avant Garde', sans-serif; text-anchor: middle" x="319.997597" y="287.910437" transform="rotate(-0 319.997597 287.910437)">400</text>
     </g>
    </g>
    <g id="xtick_12">
     <g id="line2d_25">
      <g>
       <use xlink:href="#m8bfc659c82" x="384.993502" y="273.312" style="stroke: #000000; stroke-width: 0.8"/>
      </g>
     </g>
     <g id="text_16">
      <text style="font: 10px 'DejaVu Sans', 'Bitstream Vera Sans', 'Computer Modern Sans Serif', 'Lucida Grande', 'Verdana', 'Geneva', 'Lucid', 'Arial', 'Helvetica', 'Avant Garde', sans-serif; text-anchor: middle" x="384.993502" y="287.910437" transform="rotate(-0 384.993502 287.910437)">500</text>
     </g>
    </g>
    <g id="text_17">
     <text style="font: 10px 'DejaVu Sans', 'Bitstream Vera Sans', 'Computer Modern Sans Serif', 'Lucida Grande', 'Verdana', 'Geneva', 'Lucid', 'Arial', 'Helvetica', 'Avant Garde', sans-serif; text-anchor: middle" x="222.34125" y="301.588562" transform="rotate(-0 222.34125 301.588562)">Time (ms)</text>
    </g>
   </g>
   <g id="matplotlib.axis_4">
    <g id="ytick_6">
     <g id="line2d_26">
      <g>
       <use xlink:href="#ma9ab9a7704" x="43.78125" y="248.169212" style="stroke: #000000; stroke-width: 0.8"/>
      </g>
     </g>
     <g id="text_18">
      <text style="font: 10px 'DejaVu Sans', 'Bitstream Vera Sans', 'Computer Modern Sans Serif', 'Lucida Grande', 'Verdana', 'Geneva', 'Lucid', 'Arial', 'Helvetica', 'Avant Garde', sans-serif; text-anchor: end" x="36.78125" y="251.968431" transform="rotate(-0 36.78125 251.968431)">0.0</text>
     </g>
    </g>
    <g id="ytick_7">
     <g id="line2d_27">
      <g>
       <use xlink:href="#ma9ab9a7704" x="43.78125" y="218.792615" style="stroke: #000000; stroke-width: 0.8"/>
      </g>
     </g>
     <g id="text_19">
      <text style="font: 10px 'DejaVu Sans', 'Bitstream Vera Sans', 'Computer Modern Sans Serif', 'Lucida Grande', 'Verdana', 'Geneva', 'Lucid', 'Arial', 'Helvetica', 'Avant Garde', sans-serif; text-anchor: end" x="36.78125" y="222.591834" transform="rotate(-0 36.78125 222.591834)">0.1</text>
     </g>
    </g>
    <g id="ytick_8">
     <g id="line2d_28">
      <g>
       <use xlink:href="#ma9ab9a7704" x="43.78125" y="189.416018" style="stroke: #000000; stroke-width: 0.8"/>
      </g>
     </g>
     <g id="text_20">
      <text style="font: 10px 'DejaVu Sans', 'Bitstream Vera Sans', 'Computer Modern Sans Serif', 'Lucida Grande', 'Verdana', 'Geneva', 'Lucid', 'Arial', 'Helvetica', 'Avant Garde', sans-serif; text-anchor: end" x="36.78125" y="193.215237" transform="rotate(-0 36.78125 193.215237)">0.2</text>
     </g>
    </g>
    <g id="ytick_9">
     <g id="line2d_29">
      <g>
       <use xlink:href="#ma9ab9a7704" x="43.78125" y="160.039422" style="stroke: #000000; stroke-width: 0.8"/>
      </g>
     </g>
     <g id="text_21">
      <text style="font: 10px 'DejaVu Sans', 'Bitstream Vera Sans', 'Computer Modern Sans Serif', 'Lucida Grande', 'Verdana', 'Geneva', 'Lucid', 'Arial', 'Helvetica', 'Avant Garde', sans-serif; text-anchor: end" x="36.78125" y="163.83864" transform="rotate(-0 36.78125 163.83864)">0.3</text>
     </g>
    </g>
    <g id="text_22">
     <text style="font: 10px 'DejaVu Sans', 'Bitstream Vera Sans', 'Computer Modern Sans Serif', 'Lucida Grande', 'Verdana', 'Geneva', 'Lucid', 'Arial', 'Helvetica', 'Avant Garde', sans-serif; text-anchor: middle" x="14.798438" y="206.784" transform="rotate(-90 14.798438 206.784)">Voltage (V)</text>
    </g>
   </g>
   <g id="line2d_30">
    <path d="M 60.013977 267.264 
L 125.984821 267.154064 
L 127.284739 266.76416 
L 128.584657 266.161805 
L 130.209555 265.151494 
L 131.834452 263.891293 
L 133.784329 262.097887 
L 136.059186 259.682714 
L 138.659022 256.551695 
L 141.583838 252.642795 
L 144.833633 247.909842 
L 148.733388 241.79207 
L 152.633142 235.21638 
L 157.182855 227.082541 
L 163.032487 216.116642 
L 169.207098 204.094916 
L 179.606442 183.210741 
L 188.05591 165.206971 
L 190.005787 161.03285 
L 190.655746 169.671861 
L 191.305705 175.057149 
L 192.605623 183.672571 
L 193.905542 191.031114 
L 195.530439 198.873814 
L 197.155337 205.526027 
L 198.780234 211.240597 
L 200.405132 216.205565 
L 202.355009 221.370426 
L 204.304886 225.838883 
L 206.254764 229.743876 
L 208.204641 233.184853 
L 210.479497 236.713179 
L 212.754354 239.804955 
L 215.029211 242.530877 
L 217.629047 245.268711 
L 220.228883 247.665783 
L 222.828719 249.773586 
L 225.753535 251.85044 
L 228.678351 253.661317 
L 231.928146 255.408425 
L 235.502921 257.057718 
L 239.077696 258.46664 
L 242.97745 259.773917 
L 247.202184 260.964503 
L 252.076877 262.098607 
L 257.276549 263.079078 
L 263.12618 263.957367 
L 269.95075 264.748476 
L 277.750259 265.420924 
L 286.849686 265.97979 
L 298.223969 266.444904 
L 312.848048 266.803431 
L 332.996778 267.054941 
L 364.844772 267.203675 
L 384.668523 267.236101 
L 384.668523 267.236101 
" clip-path="url(#p256832833e)" style="fill: none; stroke: #6b8e23; stroke-linecap: square"/>
   </g>
   <g id="line2d_31">
    <path d="M 60.013977 263.083669 
L 60.338957 261.637044 
L 60.663936 260.794015 
L 60.988916 260.30302 
L 61.638875 259.85069 
L 62.613813 259.664692 
L 65.21365 259.619742 
L 125.009882 259.614335 
L 125.334862 259.372152 
L 125.984821 258.516436 
L 127.609718 255.755298 
L 132.809391 246.782055 
L 138.334043 237.757481 
L 141.908818 232.280222 
L 146.458531 225.666815 
L 150.683265 219.831469 
L 156.207917 212.594397 
L 162.707507 204.600849 
L 167.90718 198.719328 
L 170.507016 195.631034 
L 181.55632 182.845261 
L 185.781053 177.110561 
L 189.680808 171.055534 
L 190.005787 146.304 
L 190.655746 213.268141 
L 190.980726 231.262727 
L 191.305705 242.431184 
L 191.630685 249.279043 
L 191.955664 253.432435 
L 192.280644 255.932398 
L 192.605623 257.429139 
L 192.930603 258.321611 
L 193.255583 258.852061 
L 193.905542 259.352489 
L 194.88048 259.565062 
L 197.155337 259.617883 
L 266.375976 259.61915 
L 384.668523 259.61915 
L 384.668523 259.61915 
" clip-path="url(#p256832833e)" style="fill: none; stroke-dasharray: 3.7,1.6; stroke-dashoffset: 0; stroke: #6b8e23"/>
   </g>
   <g id="patch_9">
    <path d="M 43.78125 273.312 
L 43.78125 140.256 
" style="fill: none; stroke: #000000; stroke-width: 0.8; stroke-linejoin: miter; stroke-linecap: square"/>
   </g>
   <g id="patch_10">
    <path d="M 400.90125 273.312 
L 400.90125 140.256 
" style="fill: none; stroke: #000000; stroke-width: 0.8; stroke-linejoin: miter; stroke-linecap: square"/>
   </g>
   <g id="patch_11">
    <path d="M 43.78125 273.312 
L 400.90125 273.312 
" style="fill: none; stroke: #000000; stroke-width: 0.8; stroke-linejoin: miter; stroke-linecap: square"/>
   </g>
   <g id="patch_12">
    <path d="M 43.78125 140.256 
L 400.90125 140.256 
" style="fill: none; stroke: #000000; stroke-width: 0.8; stroke-linejoin: miter; stroke-linecap: square"/>
   </g>
   <g id="legend_2">
    <g id="patch_13">
     <path d="M 252.8825 177.61225 
L 393.90125 177.61225 
Q 395.90125 177.61225 395.90125 175.61225 
L 395.90125 147.256 
Q 395.90125 145.256 393.90125 145.256 
L 252.8825 145.256 
Q 250.8825 145.256 250.8825 147.256 
L 250.8825 175.61225 
Q 250.8825 177.61225 252.8825 177.61225 
z
" style="fill: #ffffff; opacity: 0.8; stroke: #cccccc; stroke-linejoin: miter"/>
    </g>
    <g id="line2d_32">
     <path d="M 254.8825 153.354437 
L 264.8825 153.354437 
L 274.8825 153.354437 
" style="fill: none; stroke: #6b8e23; stroke-linecap: square"/>
    </g>
    <g id="text_23">
     <text style="font: 10px 'DejaVu Sans', 'Bitstream Vera Sans', 'Computer Modern Sans Serif', 'Lucida Grande', 'Verdana', 'Geneva', 'Lucid', 'Arial', 'Helvetica', 'Avant Garde', sans-serif; text-anchor: start" x="282.8825" y="156.854437" transform="rotate(-0 282.8825 156.854437)">VB1</text>
    </g>
    <g id="line2d_33">
     <path d="M 254.8825 168.032562 
L 264.8825 168.032562 
L 274.8825 168.032562 
" style="fill: none; stroke-dasharray: 3.7,1.6; stroke-dashoffset: 0; stroke: #6b8e23"/>
    </g>
    <g id="text_24">
     <text style="font: 10px 'DejaVu Sans', 'Bitstream Vera Sans', 'Computer Modern Sans Serif', 'Lucida Grande', 'Verdana', 'Geneva', 'Lucid', 'Arial', 'Helvetica', 'Avant Garde', sans-serif; text-anchor: start" x="282.8825" y="171.532562" transform="rotate(-0 282.8825 171.532562)">Digital prediction VB1</text>
    </g>
   </g>
  </g>
 </g>
 <defs>
  <clipPath id="p33965fbc45">
   <rect x="43.78125" y="7.2" width="357.12" height="133.056"/>
  </clipPath>
  <clipPath id="p256832833e">
   <rect x="43.78125" y="140.256" width="357.12" height="133.056"/>
  </clipPath>
 </defs>
</svg>
