<?xml version="1.0" encoding="utf-8" standalone="no"?>
<!DOCTYPE svg PUBLIC "-//W3C//DTD SVG 1.1//EN"
  "http://www.w3.org/Graphics/SVG/1.1/DTD/svg11.dtd">
<svg xmlns:xlink="http://www.w3.org/1999/xlink" width="408.10125pt" height="310.86825pt" viewBox="0 0 408.10125 310.86825" xmlns="http://www.w3.org/2000/svg" version="1.1">
 <metadata>
  <rdf:RDF xmlns:dc="http://purl.org/dc/elements/1.1/" xmlns:cc="http://creativecommons.org/ns#" xmlns:rdf="http://www.w3.org/1999/02/22-rdf-syntax-ns#">
   <cc:Work>
    <dc:type rdf:resource="http://purl.org/dc/dcmitype/StillImage"/>
    <dc:date>2023-10-29T19:08:28.259020</dc:date>
    <dc:format>image/svg+xml</dc:format>
    <dc:creator>
     <cc:Agent>
      <dc:title>Matplotlib v3.8.0, https://matplotlib.org/</dc:title>
     </cc:Agent>
    </dc:creator>
   </cc:Work>
  </rdf:RDF>
 </metadata>
 <defs>
  <style type="text/css">*{stroke-linejoin: round; stroke-linecap: butt}</style>
 </defs>
 <g id="figure_1">
  <g id="patch_1">
   <path d="M 0 310.86825 
L 408.10125 310.86825 
L 408.10125 0 
L 0 0 
z
" style="fill: #ffffff"/>
  </g>
  <g id="axes_1">
   <g id="patch_2">
    <path d="M 43.78125 140.256 
L 400.90125 140.256 
L 400.90125 7.2 
L 43.78125 7.2 
z
" style="fill: #ffffff"/>
   </g>
   <g id="matplotlib.axis_1">
    <g id="xtick_1">
     <g id="line2d_1">
      <defs>
       <path id="mc84aac9047" d="M 0 0 
L 0 3.5 
" style="stroke: #000000; stroke-width: 0.8"/>
      </defs>
      <g>
       <use xlink:href="#mc84aac9047" x="60.013977" y="140.256" style="stroke: #000000; stroke-width: 0.8"/>
      </g>
     </g>
    </g>
    <g id="xtick_2">
     <g id="line2d_2">
      <g>
       <use xlink:href="#mc84aac9047" x="125.009882" y="140.256" style="stroke: #000000; stroke-width: 0.8"/>
      </g>
     </g>
    </g>
    <g id="xtick_3">
     <g id="line2d_3">
      <g>
       <use xlink:href="#mc84aac9047" x="190.005787" y="140.256" style="stroke: #000000; stroke-width: 0.8"/>
      </g>
     </g>
    </g>
    <g id="xtick_4">
     <g id="line2d_4">
      <g>
       <use xlink:href="#mc84aac9047" x="255.001692" y="140.256" style="stroke: #000000; stroke-width: 0.8"/>
      </g>
     </g>
    </g>
    <g id="xtick_5">
     <g id="line2d_5">
      <g>
       <use xlink:href="#mc84aac9047" x="319.997597" y="140.256" style="stroke: #000000; stroke-width: 0.8"/>
      </g>
     </g>
    </g>
    <g id="xtick_6">
     <g id="line2d_6">
      <g>
       <use xlink:href="#mc84aac9047" x="384.993502" y="140.256" style="stroke: #000000; stroke-width: 0.8"/>
      </g>
     </g>
    </g>
   </g>
   <g id="matplotlib.axis_2">
    <g id="ytick_1">
     <g id="line2d_7">
      <defs>
       <path id="mb786bc1adf" d="M 0 0 
L -3.5 0 
" style="stroke: #000000; stroke-width: 0.8"/>
      </defs>
      <g>
       <use xlink:href="#mb786bc1adf" x="43.78125" y="134.208" style="stroke: #000000; stroke-width: 0.8"/>
      </g>
     </g>
     <g id="text_1">
      <text style="font: 10px 'DejaVu Sans', 'Bitstream Vera Sans', 'Computer Modern Sans Serif', 'Lucida Grande', 'Verdana', 'Geneva', 'Lucid', 'Arial', 'Helvetica', 'Avant Garde', sans-serif; text-anchor: end" x="36.78125" y="138.007219" transform="rotate(-0 36.78125 138.007219)">0.0</text>
     </g>
    </g>
    <g id="ytick_2">
     <g id="line2d_8">
      <g>
       <use xlink:href="#mb786bc1adf" x="43.78125" y="107.912348" style="stroke: #000000; stroke-width: 0.8"/>
      </g>
     </g>
     <g id="text_2">
      <text style="font: 10px 'DejaVu Sans', 'Bitstream Vera Sans', 'Computer Modern Sans Serif', 'Lucida Grande', 'Verdana', 'Geneva', 'Lucid', 'Arial', 'Helvetica', 'Avant Garde', sans-serif; text-anchor: end" x="36.78125" y="111.711567" transform="rotate(-0 36.78125 111.711567)">0.5</text>
     </g>
    </g>
    <g id="ytick_3">
     <g id="line2d_9">
      <g>
       <use xlink:href="#mb786bc1adf" x="43.78125" y="81.616696" style="stroke: #000000; stroke-width: 0.8"/>
      </g>
     </g>
     <g id="text_3">
      <text style="font: 10px 'DejaVu Sans', 'Bitstream Vera Sans', 'Computer Modern Sans Serif', 'Lucida Grande', 'Verdana', 'Geneva', 'Lucid', 'Arial', 'Helvetica', 'Avant Garde', sans-serif; text-anchor: end" x="36.78125" y="85.415914" transform="rotate(-0 36.78125 85.415914)">1.0</text>
     </g>
    </g>
    <g id="ytick_4">
     <g id="line2d_10">
      <g>
       <use xlink:href="#mb786bc1adf" x="43.78125" y="55.321043" style="stroke: #000000; stroke-width: 0.8"/>
      </g>
     </g>
     <g id="text_4">
      <text style="font: 10px 'DejaVu Sans', 'Bitstream Vera Sans', 'Computer Modern Sans Serif', 'Lucida Grande', 'Verdana', 'Geneva', 'Lucid', 'Arial', 'Helvetica', 'Avant Garde', sans-serif; text-anchor: end" x="36.78125" y="59.120262" transform="rotate(-0 36.78125 59.120262)">1.5</text>
     </g>
    </g>
    <g id="ytick_5">
     <g id="line2d_11">
      <g>
       <use xlink:href="#mb786bc1adf" x="43.78125" y="29.025391" style="stroke: #000000; stroke-width: 0.8"/>
      </g>
     </g>
     <g id="text_5">
      <text style="font: 10px 'DejaVu Sans', 'Bitstream Vera Sans', 'Computer Modern Sans Serif', 'Lucida Grande', 'Verdana', 'Geneva', 'Lucid', 'Arial', 'Helvetica', 'Avant Garde', sans-serif; text-anchor: end" x="36.78125" y="32.82461" transform="rotate(-0 36.78125 32.82461)">2.0</text>
     </g>
    </g>
    <g id="text_6">
     <text style="font: 10px 'DejaVu Sans', 'Bitstream Vera Sans', 'Computer Modern Sans Serif', 'Lucida Grande', 'Verdana', 'Geneva', 'Lucid', 'Arial', 'Helvetica', 'Avant Garde', sans-serif; text-anchor: middle" x="14.798438" y="73.728" transform="rotate(-90 14.798438 73.728)">Current (nA)</text>
    </g>
   </g>
   <g id="line2d_12">
    <path d="M 60.013977 134.208 
L 124.684903 134.208 
L 125.009882 60.580174 
L 137.684084 60.580174 
L 138.009063 134.208 
L 384.668523 134.208 
L 384.668523 134.208 
" clip-path="url(#p7c931254be)" style="fill: none; stroke: #ff4500; stroke-width: 1.5; stroke-linecap: square"/>
   </g>
   <g id="line2d_13">
    <path d="M 60.013977 134.208 
L 124.684903 134.208 
L 125.009882 60.580174 
L 254.676713 60.580174 
L 255.001692 134.208 
L 384.668523 134.208 
L 384.668523 134.208 
" clip-path="url(#p7c931254be)" style="fill: none; stroke-dasharray: 5.55,2.4; stroke-dashoffset: 0; stroke: #c71585; stroke-width: 1.5"/>
   </g>
   <g id="line2d_14">
    <path d="M 60.013977 134.208 
L 124.684903 134.208 
L 125.009882 13.248 
L 157.182855 13.248 
L 157.507835 134.208 
L 189.680808 134.208 
L 190.005787 13.248 
L 222.17876 13.248 
L 222.50374 134.208 
L 254.676713 134.208 
L 255.001692 13.248 
L 287.174665 13.248 
L 287.499645 134.208 
L 384.668523 134.208 
L 384.668523 134.208 
" clip-path="url(#p7c931254be)" style="fill: none; stroke-dasharray: 9.6,2.4,1.5,2.4; stroke-dashoffset: 0; stroke: #4682b4; stroke-width: 1.5"/>
   </g>
   <g id="line2d_15">
    <path d="M 60.013977 134.208 
L 125.009882 134.183808 
L 157.507835 13.248 
L 190.005787 134.183808 
L 222.50374 13.248 
L 255.001692 134.183808 
L 287.499645 13.248 
L 319.997597 134.208 
L 384.668523 134.208 
L 384.668523 134.208 
" clip-path="url(#p7c931254be)" style="fill: none; stroke-dasharray: 2.5,4.125; stroke-dashoffset: 0; stroke: #6b8e23; stroke-width: 2.5"/>
   </g>
   <g id="patch_3">
    <path d="M 43.78125 140.256 
L 43.78125 7.2 
" style="fill: none; stroke: #000000; stroke-width: 0.8; stroke-linejoin: miter; stroke-linecap: square"/>
   </g>
   <g id="patch_4">
    <path d="M 400.90125 140.256 
L 400.90125 7.2 
" style="fill: none; stroke: #000000; stroke-width: 0.8; stroke-linejoin: miter; stroke-linecap: square"/>
   </g>
   <g id="patch_5">
    <path d="M 43.78125 140.256 
L 400.90125 140.256 
" style="fill: none; stroke: #000000; stroke-width: 0.8; stroke-linejoin: miter; stroke-linecap: square"/>
   </g>
   <g id="patch_6">
    <path d="M 43.78125 7.2 
L 400.90125 7.2 
" style="fill: none; stroke: #000000; stroke-width: 0.8; stroke-linejoin: miter; stroke-linecap: square"/>
   </g>
   <g id="legend_1">
    <g id="patch_7">
     <path d="M 329.737188 73.9125 
L 393.90125 73.9125 
Q 395.90125 73.9125 395.90125 71.9125 
L 395.90125 14.2 
Q 395.90125 12.2 393.90125 12.2 
L 329.737188 12.2 
Q 327.737188 12.2 327.737188 14.2 
L 327.737188 71.9125 
Q 327.737188 73.9125 329.737188 73.9125 
z
" style="fill: #ffffff; opacity: 0.8; stroke: #cccccc; stroke-linejoin: miter"/>
    </g>
    <g id="line2d_16">
     <path d="M 331.737188 20.298437 
L 341.737188 20.298437 
L 351.737188 20.298437 
" style="fill: none; stroke: #ff4500; stroke-width: 1.5; stroke-linecap: square"/>
    </g>
    <g id="text_7">
     <text style="font: 10px 'DejaVu Sans', 'Bitstream Vera Sans', 'Computer Modern Sans Serif', 'Lucida Grande', 'Verdana', 'Geneva', 'Lucid', 'Arial', 'Helvetica', 'Avant Garde', sans-serif; text-anchor: start" x="359.737188" y="23.798437" transform="rotate(-0 359.737188 23.798437)">PLML2</text>
    </g>
    <g id="line2d_17">
     <path d="M 331.737188 34.976562 
L 341.737188 34.976562 
L 351.737188 34.976562 
" style="fill: none; stroke-dasharray: 5.55,2.4; stroke-dashoffset: 0; stroke: #c71585; stroke-width: 1.5"/>
    </g>
    <g id="text_8">
     <text style="font: 10px 'DejaVu Sans', 'Bitstream Vera Sans', 'Computer Modern Sans Serif', 'Lucida Grande', 'Verdana', 'Geneva', 'Lucid', 'Arial', 'Helvetica', 'Avant Garde', sans-serif; text-anchor: start" x="359.737188" y="38.476562" transform="rotate(-0 359.737188 38.476562)">PLMR</text>
    </g>
    <g id="line2d_18">
     <path d="M 331.737188 49.654687 
L 341.737188 49.654687 
L 351.737188 49.654687 
" style="fill: none; stroke-dasharray: 9.6,2.4,1.5,2.4; stroke-dashoffset: 0; stroke: #4682b4; stroke-width: 1.5"/>
    </g>
    <g id="text_9">
     <text style="font: 10px 'DejaVu Sans', 'Bitstream Vera Sans', 'Computer Modern Sans Serif', 'Lucida Grande', 'Verdana', 'Geneva', 'Lucid', 'Arial', 'Helvetica', 'Avant Garde', sans-serif; text-anchor: start" x="359.737188" y="53.154687" transform="rotate(-0 359.737188 53.154687)">AVBL</text>
    </g>
    <g id="line2d_19">
     <path d="M 331.737188 64.332812 
L 341.737188 64.332812 
L 351.737188 64.332812 
" style="fill: none; stroke-dasharray: 2.5,4.125; stroke-dashoffset: 0; stroke: #6b8e23; stroke-width: 2.5"/>
    </g>
    <g id="text_10">
     <text style="font: 10px 'DejaVu Sans', 'Bitstream Vera Sans', 'Computer Modern Sans Serif', 'Lucida Grande', 'Verdana', 'Geneva', 'Lucid', 'Arial', 'Helvetica', 'Avant Garde', sans-serif; text-anchor: start" x="359.737188" y="67.832812" transform="rotate(-0 359.737188 67.832812)">AVBR</text>
    </g>
   </g>
  </g>
  <g id="axes_2">
   <g id="patch_8">
    <path d="M 43.78125 273.312 
L 400.90125 273.312 
L 400.90125 140.256 
L 43.78125 140.256 
z
" style="fill: #ffffff"/>
   </g>
   <g id="matplotlib.axis_3">
    <g id="xtick_7">
     <g id="line2d_20">
      <g>
       <use xlink:href="#mc84aac9047" x="60.013977" y="273.312" style="stroke: #000000; stroke-width: 0.8"/>
      </g>
     </g>
     <g id="text_11">
      <text style="font: 10px 'DejaVu Sans', 'Bitstream Vera Sans', 'Computer Modern Sans Serif', 'Lucida Grande', 'Verdana', 'Geneva', 'Lucid', 'Arial', 'Helvetica', 'Avant Garde', sans-serif; text-anchor: middle" x="60.013977" y="287.910437" transform="rotate(-0 60.013977 287.910437)">0</text>
     </g>
    </g>
    <g id="xtick_8">
     <g id="line2d_21">
      <g>
       <use xlink:href="#mc84aac9047" x="125.009882" y="273.312" style="stroke: #000000; stroke-width: 0.8"/>
      </g>
     </g>
     <g id="text_12">
      <text style="font: 10px 'DejaVu Sans', 'Bitstream Vera Sans', 'Computer Modern Sans Serif', 'Lucida Grande', 'Verdana', 'Geneva', 'Lucid', 'Arial', 'Helvetica', 'Avant Garde', sans-serif; text-anchor: middle" x="125.009882" y="287.910437" transform="rotate(-0 125.009882 287.910437)">100</text>
     </g>
    </g>
    <g id="xtick_9">
     <g id="line2d_22">
      <g>
       <use xlink:href="#mc84aac9047" x="190.005787" y="273.312" style="stroke: #000000; stroke-width: 0.8"/>
      </g>
     </g>
     <g id="text_13">
      <text style="font: 10px 'DejaVu Sans', 'Bitstream Vera Sans', 'Computer Modern Sans Serif', 'Lucida Grande', 'Verdana', 'Geneva', 'Lucid', 'Arial', 'Helvetica', 'Avant Garde', sans-serif; text-anchor: middle" x="190.005787" y="287.910437" transform="rotate(-0 190.005787 287.910437)">200</text>
     </g>
    </g>
    <g id="xtick_10">
     <g id="line2d_23">
      <g>
       <use xlink:href="#mc84aac9047" x="255.001692" y="273.312" style="stroke: #000000; stroke-width: 0.8"/>
      </g>
     </g>
     <g id="text_14">
      <text style="font: 10px 'DejaVu Sans', 'Bitstream Vera Sans', 'Computer Modern Sans Serif', 'Lucida Grande', 'Verdana', 'Geneva', 'Lucid', 'Arial', 'Helvetica', 'Avant Garde', sans-serif; text-anchor: middle" x="255.001692" y="287.910437" transform="rotate(-0 255.001692 287.910437)">300</text>
     </g>
    </g>
    <g id="xtick_11">
     <g id="line2d_24">
      <g>
       <use xlink:href="#mc84aac9047" x="319.997597" y="273.312" style="stroke: #000000; stroke-width: 0.8"/>
      </g>
     </g>
     <g id="text_15">
      <text style="font: 10px 'DejaVu Sans', 'Bitstream Vera Sans', 'Computer Modern Sans Serif', 'Lucida Grande', 'Verdana', 'Geneva', 'Lucid', 'Arial', 'Helvetica', 'Avant Garde', sans-serif; text-anchor: middle" x="319.997597" y="287.910437" transform="rotate(-0 319.997597 287.910437)">400</text>
     </g>
    </g>
    <g id="xtick_12">
     <g id="line2d_25">
      <g>
       <use xlink:href="#mc84aac9047" x="384.993502" y="273.312" style="stroke: #000000; stroke-width: 0.8"/>
      </g>
     </g>
     <g id="text_16">
      <text style="font: 10px 'DejaVu Sans', 'Bitstream Vera Sans', 'Computer Modern Sans Serif', 'Lucida Grande', 'Verdana', 'Geneva', 'Lucid', 'Arial', 'Helvetica', 'Avant Garde', sans-serif; text-anchor: middle" x="384.993502" y="287.910437" transform="rotate(-0 384.993502 287.910437)">500</text>
     </g>
    </g>
    <g id="text_17">
     <text style="font: 10px 'DejaVu Sans', 'Bitstream Vera Sans', 'Computer Modern Sans Serif', 'Lucida Grande', 'Verdana', 'Geneva', 'Lucid', 'Arial', 'Helvetica', 'Avant Garde', sans-serif; text-anchor: middle" x="222.34125" y="301.588562" transform="rotate(-0 222.34125 301.588562)">Time (ms)</text>
    </g>
   </g>
   <g id="matplotlib.axis_4">
    <g id="ytick_6">
     <g id="line2d_26">
      <g>
       <use xlink:href="#mb786bc1adf" x="43.78125" y="246.057831" style="stroke: #000000; stroke-width: 0.8"/>
      </g>
     </g>
     <g id="text_18">
      <text style="font: 10px 'DejaVu Sans', 'Bitstream Vera Sans', 'Computer Modern Sans Serif', 'Lucida Grande', 'Verdana', 'Geneva', 'Lucid', 'Arial', 'Helvetica', 'Avant Garde', sans-serif; text-anchor: end" x="36.78125" y="249.857049" transform="rotate(-0 36.78125 249.857049)">0.0</text>
     </g>
    </g>
    <g id="ytick_7">
     <g id="line2d_27">
      <g>
       <use xlink:href="#mb786bc1adf" x="43.78125" y="213.432955" style="stroke: #000000; stroke-width: 0.8"/>
      </g>
     </g>
     <g id="text_19">
      <text style="font: 10px 'DejaVu Sans', 'Bitstream Vera Sans', 'Computer Modern Sans Serif', 'Lucida Grande', 'Verdana', 'Geneva', 'Lucid', 'Arial', 'Helvetica', 'Avant Garde', sans-serif; text-anchor: end" x="36.78125" y="217.232173" transform="rotate(-0 36.78125 217.232173)">0.1</text>
     </g>
    </g>
    <g id="ytick_8">
     <g id="line2d_28">
      <g>
       <use xlink:href="#mb786bc1adf" x="43.78125" y="180.808079" style="stroke: #000000; stroke-width: 0.8"/>
      </g>
     </g>
     <g id="text_20">
      <text style="font: 10px 'DejaVu Sans', 'Bitstream Vera Sans', 'Computer Modern Sans Serif', 'Lucida Grande', 'Verdana', 'Geneva', 'Lucid', 'Arial', 'Helvetica', 'Avant Garde', sans-serif; text-anchor: end" x="36.78125" y="184.607297" transform="rotate(-0 36.78125 184.607297)">0.2</text>
     </g>
    </g>
    <g id="ytick_9">
     <g id="line2d_29">
      <g>
       <use xlink:href="#mb786bc1adf" x="43.78125" y="148.183203" style="stroke: #000000; stroke-width: 0.8"/>
      </g>
     </g>
     <g id="text_21">
      <text style="font: 10px 'DejaVu Sans', 'Bitstream Vera Sans', 'Computer Modern Sans Serif', 'Lucida Grande', 'Verdana', 'Geneva', 'Lucid', 'Arial', 'Helvetica', 'Avant Garde', sans-serif; text-anchor: end" x="36.78125" y="151.982421" transform="rotate(-0 36.78125 151.982421)">0.3</text>
     </g>
    </g>
    <g id="text_22">
     <text style="font: 10px 'DejaVu Sans', 'Bitstream Vera Sans', 'Computer Modern Sans Serif', 'Lucida Grande', 'Verdana', 'Geneva', 'Lucid', 'Arial', 'Helvetica', 'Avant Garde', sans-serif; text-anchor: middle" x="14.798438" y="206.784" transform="rotate(-90 14.798438 206.784)">Voltage (V)</text>
    </g>
   </g>
   <g id="line2d_30">
    <path d="M 60.013977 267.264 
L 125.009882 267.264 
L 125.334862 266.729611 
L 126.3098 263.747476 
L 127.934698 260.314559 
L 130.209555 255.348815 
L 132.809391 249.097523 
L 136.384166 239.852224 
L 152.308162 197.774352 
L 157.507835 184.735755 
L 157.832814 184.467056 
L 158.482773 185.048986 
L 159.132732 185.154952 
L 161.08261 185.049671 
L 162.382528 185.289856 
L 163.682446 185.803208 
L 165.632323 187.108073 
L 167.257221 188.308668 
L 168.882118 189.811239 
L 170.831995 191.933455 
L 173.106852 194.759193 
L 176.356647 199.327263 
L 179.281463 203.823787 
L 182.856238 209.731695 
L 187.080972 217.155176 
L 190.005787 222.510569 
L 190.330767 222.577534 
L 190.980726 221.585582 
L 191.630685 221.084092 
L 193.905542 219.853468 
L 195.20546 218.86223 
L 196.830357 217.337735 
L 198.780234 215.150168 
L 201.055091 212.212034 
L 203.654927 208.44833 
L 206.254764 204.283243 
L 210.154518 197.573741 
L 214.704231 189.230451 
L 222.50374 174.088463 
L 222.828719 173.978485 
L 223.478678 174.872015 
L 224.128637 175.280218 
L 226.078515 176.067521 
L 227.378433 176.823961 
L 229.00333 178.082303 
L 230.628228 179.642196 
L 232.578105 181.846561 
L 234.852962 184.796209 
L 237.452798 188.567808 
L 240.377614 193.211143 
L 243.952388 199.322859 
L 248.177122 206.997861 
L 253.376795 216.911654 
L 255.001692 220.088018 
L 255.326672 220.195925 
L 255.976631 219.322541 
L 256.62659 218.943022 
L 258.901447 218.146502 
L 260.201365 217.42651 
L 261.826262 216.262135 
L 263.45116 214.84659 
L 265.401037 212.842346 
L 267.675894 210.186486 
L 270.27573 206.77239 
L 273.525525 202.11196 
L 276.77532 197.04623 
L 281.325034 189.495431 
L 287.174665 179.246391 
L 287.499645 178.651248 
L 287.824624 178.591251 
L 288.474583 179.599164 
L 289.124542 180.127328 
L 291.399399 181.4733 
L 293.024297 182.801393 
L 294.649194 184.443958 
L 296.599071 186.767208 
L 298.873928 189.873194 
L 301.473764 193.836333 
L 304.39858 198.701094 
L 307.973355 205.080269 
L 312.523068 213.68308 
L 318.3727 225.260643 
L 321.297515 230.921898 
L 323.572372 234.532222 
L 326.172208 238.228206 
L 328.772044 241.515215 
L 331.371881 244.433524 
L 333.971717 247.02101 
L 336.571553 249.312908 
L 339.496369 251.578172 
L 342.421184 253.551918 
L 345.346 255.271265 
L 348.595795 256.923046 
L 352.17057 258.470614 
L 355.745345 259.779145 
L 359.645099 260.978234 
L 363.869833 262.054212 
L 368.744526 263.061436 
L 374.269178 263.962222 
L 380.443789 264.73569 
L 384.668523 265.15444 
L 384.668523 265.15444 
" clip-path="url(#pce443c00e6)" style="fill: none; stroke: #66cdaa; stroke-linecap: square"/>
   </g>
   <g id="line2d_31">
    <path d="M 60.013977 262.629296 
L 60.338957 260.804432 
L 60.663936 259.731237 
L 60.988916 259.101174 
L 61.638875 258.515341 
L 62.288834 258.314717 
L 63.588752 258.222943 
L 71.388261 258.210969 
L 124.684903 258.210969 
L 125.009882 263.176723 
L 125.334862 263.416881 
L 125.659841 262.136931 
L 126.3098 256.88187 
L 128.584657 234.442065 
L 129.559596 226.775721 
L 130.859514 218.417879 
L 132.159432 211.490535 
L 133.13437 207.449474 
L 134.109309 204.429393 
L 135.409227 201.137112 
L 136.709145 198.385207 
L 137.684084 196.445006 
L 138.009063 186.315902 
L 138.334043 182.510588 
L 138.984002 178.426981 
L 139.633961 176.041721 
L 139.95894 175.13978 
L 140.28392 174.578124 
L 140.608899 174.255261 
L 141.258859 174.037856 
L 142.883756 173.966335 
L 143.858695 173.705487 
L 144.833633 173.138812 
L 146.133551 172.01126 
L 148.083429 170.045625 
L 150.033306 167.775331 
L 153.283101 163.612756 
L 156.207917 159.985447 
L 157.182855 158.90606 
L 157.507835 146.304 
L 158.482773 180.518487 
L 159.132732 194.739909 
L 159.782691 203.068182 
L 160.43265 207.909778 
L 161.08261 210.824263 
L 161.732569 212.670156 
L 162.382528 213.937681 
L 163.357466 215.322008 
L 165.632323 217.950847 
L 170.831995 223.842039 
L 174.73175 228.645208 
L 177.981545 233.055863 
L 182.531258 239.680765 
L 186.755992 246.183814 
L 189.680808 250.928074 
L 190.330767 244.208818 
L 191.630685 229.780814 
L 192.605623 221.283614 
L 193.580562 214.815412 
L 194.555501 209.858399 
L 195.530439 205.954767 
L 196.830357 201.787123 
L 198.455255 197.530807 
L 200.405132 193.207388 
L 203.654927 186.756187 
L 206.579743 181.405515 
L 211.454436 173.147125 
L 213.729293 169.902105 
L 219.578924 161.989388 
L 221.203822 160.015234 
L 222.17876 158.926653 
L 222.50374 146.321017 
L 223.478678 180.526229 
L 224.128637 194.744049 
L 224.778596 203.070348 
L 225.428555 207.910907 
L 226.078515 210.824862 
L 226.728474 212.670446 
L 227.378433 213.937831 
L 228.353371 215.322062 
L 230.628228 217.950857 
L 235.8279 223.842039 
L 239.727655 228.645208 
L 242.97745 233.055863 
L 247.527163 239.680765 
L 251.751897 246.183814 
L 254.676713 250.928074 
L 255.001692 241.894916 
L 255.651651 235.586896 
L 256.62659 230.236114 
L 257.601528 226.045103 
L 258.901447 221.515673 
L 260.526344 216.854655 
L 263.12618 210.283039 
L 267.675894 199.466624 
L 270.27573 193.790241 
L 274.500464 184.998702 
L 278.400218 177.496996 
L 281.325034 172.331571 
L 285.549768 165.333307 
L 287.174665 162.861092 
L 287.499645 158.888968 
L 288.149604 180.243172 
L 288.799563 192.683638 
L 289.449522 199.195955 
L 290.099481 202.69832 
L 290.74944 204.769628 
L 291.724379 206.768828 
L 293.349276 209.320958 
L 298.873928 217.724189 
L 302.773682 224.133438 
L 306.673437 231.016225 
L 311.22315 239.487358 
L 315.447884 247.807563 
L 320.322577 257.673334 
L 320.972536 258.034069 
L 321.947474 258.177476 
L 325.19727 258.210834 
L 384.668523 258.210968 
L 384.668523 258.210968 
" clip-path="url(#pce443c00e6)" style="fill: none; stroke-dasharray: 3.7,1.6; stroke-dashoffset: 0; stroke: #b22222"/>
   </g>
   <g id="line2d_32">
    <path d="M 60.013977 263.891564 
L 60.338957 262.531026 
L 60.663936 261.699694 
L 60.988916 261.228866 
L 61.638875 260.795306 
L 62.613813 260.622255 
L 65.538629 260.58414 
L 146.133551 260.583933 
L 146.458531 242.157607 
L 146.78351 238.186086 
L 147.10849 228.344883 
L 147.758449 183.756112 
L 148.408408 201.89348 
L 149.058367 166.395344 
L 149.383347 177.877885 
L 149.708326 194.371492 
L 150.358285 161.843473 
L 150.683265 173.077322 
L 151.008244 192.457487 
L 151.658203 160.845815 
L 151.983183 171.262531 
L 152.308162 192.105148 
L 152.958121 160.869114 
L 153.283101 170.371618 
L 153.60808 192.213807 
L 154.25804 161.081548 
L 154.583019 169.80749 
L 154.907999 192.481668 
L 155.557958 161.528684 
L 155.882937 169.317006 
L 156.207917 192.791953 
L 156.857876 162.01203 
L 157.182855 168.865665 
L 157.507835 193.110805 
L 158.157794 162.517855 
L 158.482773 168.437084 
L 158.807753 193.359982 
L 159.457712 163.062138 
L 159.782691 168.034513 
L 160.107671 193.705825 
L 160.75763 163.586564 
L 161.08261 167.6397 
L 161.407589 194.064515 
L 162.057548 164.119449 
L 162.382528 167.256763 
L 162.707507 194.350642 
L 163.357466 164.695303 
L 163.682446 166.901664 
L 164.007425 210.696031 
L 164.332405 210.618348 
L 164.657384 209.244066 
L 164.982364 200.421031 
L 165.307343 227.820148 
L 165.957302 216.142692 
L 166.282282 205.544621 
L 166.607261 230.737272 
L 167.257221 217.611402 
L 167.5822 205.88007 
L 167.90718 230.836498 
L 168.557139 218.206119 
L 168.882118 205.430468 
L 169.207098 231.094844 
L 169.857057 217.950528 
L 170.182036 205.260886 
L 170.507016 231.50848 
L 171.156975 218.218126 
L 171.481954 204.536002 
L 171.806934 231.157893 
L 172.456893 218.576167 
L 172.781872 203.865409 
L 173.106852 231.330441 
L 173.756811 218.286108 
L 174.081791 203.651537 
L 174.40677 231.720389 
L 175.056729 218.559792 
L 175.381709 202.947673 
L 175.706688 231.383083 
L 176.356647 218.944427 
L 176.681627 202.320819 
L 177.006606 231.584429 
L 177.656565 219.513651 
L 177.981545 201.790013 
L 178.306524 231.798475 
L 178.956483 218.973996 
L 179.281463 201.440777 
L 179.606442 231.656065 
L 180.256402 219.412609 
L 180.581381 200.877942 
L 180.906361 231.854855 
L 181.55632 219.985044 
L 181.881299 200.382484 
L 182.206279 232.108472 
L 182.856238 219.48273 
L 183.181217 200.063795 
L 183.506197 232.425688 
L 184.156156 219.814621 
L 184.481135 199.45284 
L 184.806115 232.152428 
L 185.131094 225.12993 
L 185.456074 220.513796 
L 185.781053 199.06103 
L 186.106033 232.428667 
L 186.755992 220.058037 
L 187.080972 198.784048 
L 187.405951 232.749499 
L 188.05591 220.404419 
L 188.38089 198.207351 
L 188.705869 232.500971 
L 189.355828 220.835153 
L 189.680808 197.719719 
L 190.005787 226.554334 
L 190.655746 230.570518 
L 190.980726 230.585492 
L 191.305705 239.936732 
L 191.630685 237.242704 
L 191.955664 235.946347 
L 192.280644 235.806409 
L 192.605623 242.035815 
L 192.930603 238.282635 
L 193.255583 236.662255 
L 193.580562 236.963055 
L 193.905542 242.366984 
L 194.230521 238.805444 
L 194.555501 236.628287 
L 194.88048 237.467757 
L 195.20546 242.429145 
L 195.530439 238.90336 
L 195.855419 237.059082 
L 196.180398 237.746737 
L 196.505378 242.553271 
L 196.830357 238.715492 
L 197.155337 237.010235 
L 197.480316 238.201392 
L 197.805296 242.618413 
L 198.130275 239.075349 
L 198.455255 236.882916 
L 198.780234 238.610198 
L 199.105214 242.671638 
L 199.430193 239.178601 
L 199.755173 237.307098 
L 200.080153 238.885847 
L 200.405132 242.6733 
L 200.730112 239.268995 
L 201.055091 237.429971 
L 201.380071 239.444013 
L 201.70505 242.929729 
L 202.03003 239.412233 
L 202.355009 237.21241 
L 203.004968 242.980946 
L 203.329948 239.534917 
L 203.654927 237.664569 
L 204.304886 243.0044 
L 204.629866 239.662169 
L 204.954845 237.83457 
L 205.604804 243.272884 
L 205.929784 239.600728 
L 206.254764 237.913055 
L 206.904723 243.422407 
L 207.229702 240.022236 
L 207.554682 238.145981 
L 207.879661 241.324853 
L 208.204641 243.404875 
L 208.52962 240.151361 
L 208.8546 238.345149 
L 209.179579 241.91052 
L 209.504559 243.687832 
L 209.829538 240.121743 
L 210.154518 238.477129 
L 210.479497 242.454661 
L 210.804477 243.873575 
L 211.129456 240.567958 
L 211.454436 238.485267 
L 211.779415 242.922242 
L 212.104395 244.036581 
L 212.429374 240.819485 
L 212.754354 239.020585 
L 213.079334 243.250187 
L 213.404313 244.199695 
L 213.729293 240.75269 
L 214.054272 239.168119 
L 214.379252 243.781413 
L 214.704231 244.407064 
L 215.029211 241.201257 
L 215.35419 239.406301 
L 215.67917 244.198367 
L 216.004149 244.598659 
L 216.329129 241.444094 
L 216.654108 239.681571 
L 216.979088 244.672171 
L 217.304067 244.806253 
L 217.629047 241.716055 
L 217.954026 240.002841 
L 218.279006 245.123605 
L 218.603985 245.018283 
L 218.928965 241.994923 
L 219.253945 240.304455 
L 219.578924 245.608871 
L 219.903904 245.271595 
L 220.228883 242.297587 
L 220.553863 240.637472 
L 220.878842 246.103886 
L 221.203822 245.524747 
L 221.528801 242.616807 
L 221.853781 240.989101 
L 222.17876 246.604894 
L 222.50374 245.799391 
L 222.828719 242.962954 
L 223.153699 241.359754 
L 223.478678 247.111826 
L 223.803658 246.08182 
L 224.128637 243.271005 
L 224.453617 241.72903 
L 224.778596 247.611238 
L 225.103576 246.372953 
L 225.428555 243.636324 
L 225.753535 242.134831 
L 226.078515 248.126629 
L 226.403494 246.682778 
L 226.728474 244.021938 
L 227.053453 242.562211 
L 227.378433 248.648494 
L 227.703412 247.008339 
L 228.028392 244.428483 
L 228.353371 242.973362 
L 228.678351 249.155411 
L 229.00333 247.337288 
L 229.32831 244.842149 
L 229.653289 243.43684 
L 229.978269 249.684629 
L 230.953207 243.924383 
L 231.278187 250.220571 
L 232.253126 244.432983 
L 232.578105 250.740172 
L 233.228064 245.517168 
L 233.553044 236.045991 
L 233.878023 232.49677 
L 234.203003 239.136884 
L 234.852962 223.597043 
L 235.177941 220.432696 
L 235.502921 233.523631 
L 236.15288 219.898987 
L 236.477859 216.624665 
L 236.802839 231.875901 
L 237.452798 218.859487 
L 237.777777 215.098186 
L 238.102757 231.41026 
L 238.752716 218.495134 
L 239.077696 214.151172 
L 239.402675 231.238292 
L 240.052634 218.317448 
L 240.377614 213.359562 
L 240.702593 231.150047 
L 241.352552 218.24613 
L 241.677532 212.642471 
L 242.002511 231.107782 
L 242.97745 211.925296 
L 243.302429 231.067992 
L 244.277368 211.219091 
L 244.602347 231.035908 
L 245.577286 210.567289 
L 245.902266 231.041091 
L 246.877204 209.890782 
L 247.202184 231.036846 
L 248.177122 209.22308 
L 248.502102 231.041502 
L 249.47704 208.565082 
L 249.80202 231.005411 
L 250.776958 207.929627 
L 251.101938 231.032831 
L 252.076877 207.300651 
L 252.401856 231.016436 
L 253.376795 206.626608 
L 253.701774 231.175728 
L 254.351733 217.901398 
L 254.676713 206.174406 
L 255.001692 231.453071 
L 255.651651 218.091921 
L 255.976631 205.379939 
L 256.30161 231.067468 
L 256.951569 218.770415 
L 257.276549 204.886624 
L 257.601528 231.32247 
L 258.251488 218.157242 
L 258.576467 204.48975 
L 258.901447 231.627729 
L 259.551406 218.39332 
L 259.876385 203.73929 
L 260.201365 231.27347 
L 260.851324 219.072329 
L 261.176303 203.266136 
L 261.501283 231.529734 
L 262.151242 218.502169 
L 262.476221 202.901729 
L 262.801201 231.858224 
L 263.45116 218.776244 
L 263.776139 202.204538 
L 264.101119 231.533067 
L 264.751078 219.184507 
L 265.076058 201.596277 
L 265.401037 231.723095 
L 266.050996 218.934862 
L 266.375976 201.410564 
L 266.700955 232.100692 
L 267.350914 219.26411 
L 267.675894 200.777165 
L 268.000873 231.811025 
L 268.650832 219.677556 
L 268.975812 200.204371 
L 269.300791 232.028666 
L 269.95075 220.253381 
L 270.27573 199.719477 
L 270.600709 232.26899 
L 271.250669 219.769567 
L 271.575648 199.415066 
L 271.900628 232.13729 
L 272.550587 220.235107 
L 272.875566 198.902697 
L 273.200546 232.358678 
L 273.525525 225.377672 
L 273.850505 220.81391 
L 274.175484 198.448917 
L 274.500464 232.605427 
L 275.150423 220.365499 
L 275.475402 198.174682 
L 275.800382 232.918598 
L 276.125361 225.956441 
L 276.450341 211.861642 
L 276.77532 214.770969 
L 277.1003 233.696203 
L 277.750259 233.026409 
L 278.075239 233.331843 
L 278.400218 241.048586 
L 278.725198 237.938806 
L 279.050177 236.384828 
L 279.375157 236.196468 
L 279.700136 242.037537 
L 280.025116 238.619999 
L 280.350095 236.84754 
L 280.675075 237.100491 
L 281.000054 242.425382 
L 281.325034 238.573664 
L 281.650013 236.880944 
L 281.974993 237.627452 
L 282.299972 242.500088 
L 282.624952 238.943854 
L 282.949931 237.083346 
L 283.274911 237.764878 
L 283.59989 242.423358 
L 283.92487 238.969294 
L 284.24985 237.141943 
L 284.574829 238.286248 
L 284.899809 242.657254 
L 285.224788 238.844346 
L 285.549768 237.127647 
L 285.874747 238.768618 
L 286.199727 242.744037 
L 286.524706 239.219878 
L 286.849686 237.0232 
L 287.174665 239.188623 
L 287.499645 242.811478 
L 287.824624 239.343845 
L 288.149604 237.472802 
L 288.474583 239.473645 
L 288.799563 242.943392 
L 289.124542 239.186217 
L 289.449522 237.475786 
L 290.099481 243.048195 
L 290.42446 239.57756 
L 290.74944 237.396586 
L 291.399399 243.146453 
L 291.724379 239.74227 
L 292.049358 237.880632 
L 292.699317 243.188261 
L 293.024297 239.890629 
L 293.349276 238.069106 
L 293.999235 243.469406 
L 294.324215 240.050229 
L 294.649194 237.905605 
L 294.974174 241.640249 
L 295.299153 243.556725 
L 295.624133 240.235612 
L 295.949112 238.393777 
L 296.274092 241.942592 
L 296.599071 243.624718 
L 296.924051 240.426814 
L 297.249031 238.643775 
L 297.57401 242.557969 
L 297.89899 243.924404 
L 298.223969 240.420625 
L 298.548949 238.799624 
L 298.873928 243.109309 
L 299.198908 244.129637 
L 299.523887 240.873494 
L 299.848867 239.05281 
L 300.173846 243.271291 
L 300.498826 244.155773 
L 300.823805 241.069103 
L 301.148785 239.323187 
L 301.473764 243.919874 
L 301.798744 244.467708 
L 302.123723 241.260943 
L 302.448703 239.519693 
L 302.773682 244.354335 
L 303.098662 244.670935 
L 303.423641 241.513144 
L 303.748621 239.804561 
L 304.073601 244.830626 
L 304.39858 244.882294 
L 304.72356 241.803193 
L 305.048539 240.068625 
L 305.373519 245.29687 
L 305.698498 245.114508 
L 306.023478 242.090334 
L 306.348457 240.387419 
L 306.673437 245.786422 
L 306.998416 245.363195 
L 307.323396 242.398376 
L 307.648375 240.727467 
L 307.973355 246.283808 
L 308.298334 245.620897 
L 308.623314 242.73284 
L 308.948293 241.086272 
L 309.273273 246.787542 
L 309.598252 245.899585 
L 309.923232 243.064134 
L 310.248212 241.475988 
L 310.573191 247.26154 
L 310.898171 246.170594 
L 311.22315 243.41133 
L 311.54813 241.864618 
L 311.873109 247.770198 
L 312.198089 246.470465 
L 312.523068 243.784453 
L 312.848048 242.277954 
L 313.173027 248.288437 
L 313.498007 246.786944 
L 313.822986 244.176537 
L 314.147966 242.71164 
L 314.472945 248.812075 
L 314.797925 247.111466 
L 315.122904 244.549358 
L 315.447884 243.144171 
L 315.772863 249.328905 
L 316.747802 243.615683 
L 317.072782 249.859727 
L 318.04772 244.109715 
L 318.3727 250.391175 
L 319.022659 245.880464 
L 319.347638 244.602913 
L 319.997597 258.430443 
L 320.647556 252.884477 
L 320.972536 244.299061 
L 321.297515 256.141887 
L 321.947474 250.597044 
L 322.272454 241.862262 
L 322.597433 255.094624 
L 323.247393 249.776167 
L 323.572372 240.888568 
L 323.897352 254.733106 
L 324.547311 249.381105 
L 324.87229 240.170377 
L 325.19727 254.50929 
L 325.847229 249.057514 
L 326.172208 239.495508 
L 326.497188 254.320383 
L 327.147147 248.760289 
L 327.472126 238.846847 
L 327.797106 254.128386 
L 328.447065 248.488946 
L 328.772044 238.213615 
L 329.097024 253.977249 
L 329.746983 248.243027 
L 330.071963 237.589377 
L 330.396942 253.831978 
L 331.046901 247.99684 
L 331.371881 236.961197 
L 331.69686 253.696379 
L 332.346819 247.799914 
L 332.671799 236.364998 
L 332.996778 253.58265 
L 333.646737 247.590533 
L 333.971717 235.757276 
L 334.296696 253.470923 
L 334.946655 247.412531 
L 335.271635 235.15727 
L 335.596614 253.370194 
L 336.246574 247.197842 
L 336.571553 234.602796 
L 336.896533 253.296162 
L 337.546492 247.04273 
L 337.871471 234.021097 
L 338.196451 253.216003 
L 338.84641 246.863335 
L 339.171389 233.481918 
L 339.496369 253.057788 
L 340.146328 246.799807 
L 340.471307 232.767777 
L 340.796287 253.035836 
L 341.446246 246.956402 
L 341.771225 232.186272 
L 342.096205 253.03504 
L 342.746164 246.417888 
L 343.071144 231.798253 
L 343.396123 252.875704 
L 344.046082 246.487054 
L 344.371062 231.176825 
L 344.696041 252.878784 
L 345.346 246.687571 
L 345.67098 230.627831 
L 345.995959 252.921348 
L 346.645918 246.182003 
L 346.970898 230.263696 
L 347.295877 252.783343 
L 347.945836 246.282245 
L 348.270816 229.669923 
L 348.595795 252.799117 
L 349.245755 246.510523 
L 349.570734 229.143812 
L 349.895714 252.852239 
L 350.545673 246.047536 
L 350.870652 228.804451 
L 351.195632 252.99894 
L 351.845591 246.042803 
L 352.17057 228.132121 
L 352.49555 252.738795 
L 353.145509 246.407015 
L 353.470488 227.711856 
L 353.795468 252.848017 
L 354.445427 245.984621 
L 354.770406 227.402833 
L 355.095386 253.006183 
L 355.745345 246.035824 
L 356.070325 226.767491 
L 356.395304 252.765953 
L 357.045263 246.171131 
L 357.370243 226.203792 
L 357.695222 252.825639 
L 358.345181 246.001322 
L 358.670161 226.058712 
L 358.99514 253.044024 
L 359.645099 246.08144 
L 359.970079 225.471276 
L 360.295058 252.820956 
L 360.945017 246.221076 
L 361.269997 224.931776 
L 361.594976 252.89329 
L 362.244936 246.502482 
L 362.569915 224.483256 
L 362.894895 252.99498 
L 363.219874 237.406452 
L 363.544854 240.543717 
L 363.869833 241.720769 
L 364.194813 248.587082 
L 364.519792 247.154788 
L 364.844772 246.652103 
L 365.169751 247.352495 
L 365.494731 250.677473 
L 365.81971 248.533443 
L 366.14469 247.37672 
L 366.469669 248.254529 
L 366.794649 251.038075 
L 367.119628 248.902405 
L 367.444608 247.775049 
L 367.769587 248.534954 
L 368.094567 251.177035 
L 368.419546 249.140845 
L 368.744526 248.063568 
L 369.069506 249.022573 
L 369.394485 251.370825 
L 369.719465 249.242196 
L 370.044444 248.107415 
L 370.369424 249.330089 
L 370.694403 251.536557 
L 371.019383 249.506466 
L 371.344362 248.444604 
L 371.669342 249.557022 
L 371.994321 251.682359 
L 372.319301 249.776019 
L 372.64428 248.769339 
L 372.96926 250.052666 
L 373.294239 251.888558 
L 373.619219 249.907534 
L 373.944198 249.044779 
L 374.594157 252.138281 
L 374.919137 250.214082 
L 375.244117 249.205714 
L 375.894076 252.264327 
L 376.219055 250.49247 
L 376.544035 249.567101 
L 377.193994 252.475165 
L 377.518973 250.655383 
L 377.843953 249.88066 
L 378.493912 252.751502 
L 378.818891 250.98203 
L 379.143871 250.102981 
L 379.46885 251.951431 
L 379.79383 253.024223 
L 380.118809 251.374803 
L 380.443789 250.497375 
L 380.768768 252.205436 
L 381.093748 253.136037 
L 381.418727 251.523356 
L 381.743707 250.838686 
L 382.068687 252.662445 
L 382.393666 253.459895 
L 382.718646 251.866944 
L 383.043625 251.11029 
L 383.368605 253.06405 
L 383.693584 253.761399 
L 384.018564 252.304992 
L 384.343543 251.526396 
L 384.668523 253.324518 
L 384.668523 253.324518 
" clip-path="url(#pce443c00e6)" style="fill: none; stroke-dasharray: 0.64,0.16,0.1,0.16; stroke-dashoffset: 0; stroke: #000080; stroke-width: 0.1"/>
   </g>
   <g id="patch_9">
    <path d="M 43.78125 273.312 
L 43.78125 140.256 
" style="fill: none; stroke: #000000; stroke-width: 0.8; stroke-linejoin: miter; stroke-linecap: square"/>
   </g>
   <g id="patch_10">
    <path d="M 400.90125 273.312 
L 400.90125 140.256 
" style="fill: none; stroke: #000000; stroke-width: 0.8; stroke-linejoin: miter; stroke-linecap: square"/>
   </g>
   <g id="patch_11">
    <path d="M 43.78125 273.312 
L 400.90125 273.312 
" style="fill: none; stroke: #000000; stroke-width: 0.8; stroke-linejoin: miter; stroke-linecap: square"/>
   </g>
   <g id="patch_12">
    <path d="M 43.78125 140.256 
L 400.90125 140.256 
" style="fill: none; stroke: #000000; stroke-width: 0.8; stroke-linejoin: miter; stroke-linecap: square"/>
   </g>
   <g id="legend_2">
    <g id="patch_13">
     <path d="M 249.902812 192.290375 
L 393.90125 192.290375 
Q 395.90125 192.290375 395.90125 190.290375 
L 395.90125 147.256 
Q 395.90125 145.256 393.90125 145.256 
L 249.902812 145.256 
Q 247.902812 145.256 247.902812 147.256 
L 247.902812 190.290375 
Q 247.902812 192.290375 249.902812 192.290375 
z
" style="fill: #ffffff; opacity: 0.8; stroke: #cccccc; stroke-linejoin: miter"/>
    </g>
    <g id="line2d_33">
     <path d="M 251.902812 153.354437 
L 261.902812 153.354437 
L 271.902812 153.354437 
" style="fill: none; stroke: #66cdaa; stroke-linecap: square"/>
    </g>
    <g id="text_23">
     <text style="font: 10px 'DejaVu Sans', 'Bitstream Vera Sans', 'Computer Modern Sans Serif', 'Lucida Grande', 'Verdana', 'Geneva', 'Lucid', 'Arial', 'Helvetica', 'Avant Garde', sans-serif; text-anchor: start" x="279.902812" y="156.854437" transform="rotate(-0 279.902812 156.854437)">Target response DB1</text>
    </g>
    <g id="line2d_34">
     <path d="M 251.902812 168.032562 
L 261.902812 168.032562 
L 271.902812 168.032562 
" style="fill: none; stroke-dasharray: 3.7,1.6; stroke-dashoffset: 0; stroke: #b22222"/>
    </g>
    <g id="text_24">
     <text style="font: 10px 'DejaVu Sans', 'Bitstream Vera Sans', 'Computer Modern Sans Serif', 'Lucida Grande', 'Verdana', 'Geneva', 'Lucid', 'Arial', 'Helvetica', 'Avant Garde', sans-serif; text-anchor: start" x="279.902812" y="171.532562" transform="rotate(-0 279.902812 171.532562)">Digital prediction DB1</text>
    </g>
    <g id="line2d_35">
     <path d="M 251.902812 182.710687 
L 261.902812 182.710687 
L 271.902812 182.710687 
" style="fill: none; stroke-dasharray: 0.64,0.16,0.1,0.16; stroke-dashoffset: 0; stroke: #000080; stroke-width: 0.1"/>
    </g>
    <g id="text_25">
     <text style="font: 10px 'DejaVu Sans', 'Bitstream Vera Sans', 'Computer Modern Sans Serif', 'Lucida Grande', 'Verdana', 'Geneva', 'Lucid', 'Arial', 'Helvetica', 'Avant Garde', sans-serif; text-anchor: start" x="279.902812" y="186.210687" transform="rotate(-0 279.902812 186.210687)">Analog prediction DB1</text>
    </g>
   </g>
  </g>
 </g>
 <defs>
  <clipPath id="p7c931254be">
   <rect x="43.78125" y="7.2" width="357.12" height="133.056"/>
  </clipPath>
  <clipPath id="pce443c00e6">
   <rect x="43.78125" y="140.256" width="357.12" height="133.056"/>
  </clipPath>
 </defs>
</svg>
