<?xml version="1.0" encoding="utf-8" standalone="no"?>
<!DOCTYPE svg PUBLIC "-//W3C//DTD SVG 1.1//EN"
  "http://www.w3.org/Graphics/SVG/1.1/DTD/svg11.dtd">
<svg xmlns:xlink="http://www.w3.org/1999/xlink" width="408.10125pt" height="310.86825pt" viewBox="0 0 408.10125 310.86825" xmlns="http://www.w3.org/2000/svg" version="1.1">
 <metadata>
  <rdf:RDF xmlns:dc="http://purl.org/dc/elements/1.1/" xmlns:cc="http://creativecommons.org/ns#" xmlns:rdf="http://www.w3.org/1999/02/22-rdf-syntax-ns#">
   <cc:Work>
    <dc:type rdf:resource="http://purl.org/dc/dcmitype/StillImage"/>
    <dc:date>2023-10-25T16:22:46.839620</dc:date>
    <dc:format>image/svg+xml</dc:format>
    <dc:creator>
     <cc:Agent>
      <dc:title>Matplotlib v3.8.0, https://matplotlib.org/</dc:title>
     </cc:Agent>
    </dc:creator>
   </cc:Work>
  </rdf:RDF>
 </metadata>
 <defs>
  <style type="text/css">*{stroke-linejoin: round; stroke-linecap: butt}</style>
 </defs>
 <g id="figure_1">
  <g id="patch_1">
   <path d="M 0 310.86825 
L 408.10125 310.86825 
L 408.10125 0 
L 0 0 
z
" style="fill: #ffffff"/>
  </g>
  <g id="axes_1">
   <g id="patch_2">
    <path d="M 43.78125 140.256 
L 400.90125 140.256 
L 400.90125 7.2 
L 43.78125 7.2 
z
" style="fill: #ffffff"/>
   </g>
   <g id="matplotlib.axis_1">
    <g id="xtick_1">
     <g id="line2d_1">
      <defs>
       <path id="m4d699b7f33" d="M 0 0 
L 0 3.5 
" style="stroke: #000000; stroke-width: 0.8"/>
      </defs>
      <g>
       <use xlink:href="#m4d699b7f33" x="60.013977" y="140.256" style="stroke: #000000; stroke-width: 0.8"/>
      </g>
     </g>
    </g>
    <g id="xtick_2">
     <g id="line2d_2">
      <g>
       <use xlink:href="#m4d699b7f33" x="125.009882" y="140.256" style="stroke: #000000; stroke-width: 0.8"/>
      </g>
     </g>
    </g>
    <g id="xtick_3">
     <g id="line2d_3">
      <g>
       <use xlink:href="#m4d699b7f33" x="190.005787" y="140.256" style="stroke: #000000; stroke-width: 0.8"/>
      </g>
     </g>
    </g>
    <g id="xtick_4">
     <g id="line2d_4">
      <g>
       <use xlink:href="#m4d699b7f33" x="255.001692" y="140.256" style="stroke: #000000; stroke-width: 0.8"/>
      </g>
     </g>
    </g>
    <g id="xtick_5">
     <g id="line2d_5">
      <g>
       <use xlink:href="#m4d699b7f33" x="319.997597" y="140.256" style="stroke: #000000; stroke-width: 0.8"/>
      </g>
     </g>
    </g>
    <g id="xtick_6">
     <g id="line2d_6">
      <g>
       <use xlink:href="#m4d699b7f33" x="384.993502" y="140.256" style="stroke: #000000; stroke-width: 0.8"/>
      </g>
     </g>
    </g>
   </g>
   <g id="matplotlib.axis_2">
    <g id="ytick_1">
     <g id="line2d_7">
      <defs>
       <path id="m72a3bb44ae" d="M 0 0 
L -3.5 0 
" style="stroke: #000000; stroke-width: 0.8"/>
      </defs>
      <g>
       <use xlink:href="#m72a3bb44ae" x="43.78125" y="134.208" style="stroke: #000000; stroke-width: 0.8"/>
      </g>
     </g>
     <g id="text_1">
      <text style="font: 10px 'DejaVu Sans', 'Bitstream Vera Sans', 'Computer Modern Sans Serif', 'Lucida Grande', 'Verdana', 'Geneva', 'Lucid', 'Arial', 'Helvetica', 'Avant Garde', sans-serif; text-anchor: end" x="36.78125" y="138.007219" transform="rotate(-0 36.78125 138.007219)">0.0</text>
     </g>
    </g>
    <g id="ytick_2">
     <g id="line2d_8">
      <g>
       <use xlink:href="#m72a3bb44ae" x="43.78125" y="107.912348" style="stroke: #000000; stroke-width: 0.8"/>
      </g>
     </g>
     <g id="text_2">
      <text style="font: 10px 'DejaVu Sans', 'Bitstream Vera Sans', 'Computer Modern Sans Serif', 'Lucida Grande', 'Verdana', 'Geneva', 'Lucid', 'Arial', 'Helvetica', 'Avant Garde', sans-serif; text-anchor: end" x="36.78125" y="111.711567" transform="rotate(-0 36.78125 111.711567)">0.5</text>
     </g>
    </g>
    <g id="ytick_3">
     <g id="line2d_9">
      <g>
       <use xlink:href="#m72a3bb44ae" x="43.78125" y="81.616696" style="stroke: #000000; stroke-width: 0.8"/>
      </g>
     </g>
     <g id="text_3">
      <text style="font: 10px 'DejaVu Sans', 'Bitstream Vera Sans', 'Computer Modern Sans Serif', 'Lucida Grande', 'Verdana', 'Geneva', 'Lucid', 'Arial', 'Helvetica', 'Avant Garde', sans-serif; text-anchor: end" x="36.78125" y="85.415914" transform="rotate(-0 36.78125 85.415914)">1.0</text>
     </g>
    </g>
    <g id="ytick_4">
     <g id="line2d_10">
      <g>
       <use xlink:href="#m72a3bb44ae" x="43.78125" y="55.321043" style="stroke: #000000; stroke-width: 0.8"/>
      </g>
     </g>
     <g id="text_4">
      <text style="font: 10px 'DejaVu Sans', 'Bitstream Vera Sans', 'Computer Modern Sans Serif', 'Lucida Grande', 'Verdana', 'Geneva', 'Lucid', 'Arial', 'Helvetica', 'Avant Garde', sans-serif; text-anchor: end" x="36.78125" y="59.120262" transform="rotate(-0 36.78125 59.120262)">1.5</text>
     </g>
    </g>
    <g id="ytick_5">
     <g id="line2d_11">
      <g>
       <use xlink:href="#m72a3bb44ae" x="43.78125" y="29.025391" style="stroke: #000000; stroke-width: 0.8"/>
      </g>
     </g>
     <g id="text_5">
      <text style="font: 10px 'DejaVu Sans', 'Bitstream Vera Sans', 'Computer Modern Sans Serif', 'Lucida Grande', 'Verdana', 'Geneva', 'Lucid', 'Arial', 'Helvetica', 'Avant Garde', sans-serif; text-anchor: end" x="36.78125" y="32.82461" transform="rotate(-0 36.78125 32.82461)">2.0</text>
     </g>
    </g>
    <g id="text_6">
     <text style="font: 10px 'DejaVu Sans', 'Bitstream Vera Sans', 'Computer Modern Sans Serif', 'Lucida Grande', 'Verdana', 'Geneva', 'Lucid', 'Arial', 'Helvetica', 'Avant Garde', sans-serif; text-anchor: middle" x="14.798438" y="73.728" transform="rotate(-90 14.798438 73.728)">Current (nA)</text>
    </g>
   </g>
   <g id="line2d_12">
    <path d="M 60.013977 134.208 
L 124.684903 134.208 
L 125.009882 60.580174 
L 137.684084 60.580174 
L 138.009063 134.208 
L 384.668523 134.208 
L 384.668523 134.208 
" clip-path="url(#pdd5968b5d4)" style="fill: none; stroke: #ff4500; stroke-width: 1.5; stroke-linecap: square"/>
   </g>
   <g id="line2d_13">
    <path d="M 60.013977 134.208 
L 124.684903 134.208 
L 125.009882 60.580174 
L 254.676713 60.580174 
L 255.001692 134.208 
L 384.668523 134.208 
L 384.668523 134.208 
" clip-path="url(#pdd5968b5d4)" style="fill: none; stroke-dasharray: 5.55,2.4; stroke-dashoffset: 0; stroke: #c71585; stroke-width: 1.5"/>
   </g>
   <g id="line2d_14">
    <path d="M 60.013977 134.208 
L 124.684903 134.208 
L 125.009882 13.248 
L 157.182855 13.248 
L 157.507835 134.208 
L 189.680808 134.208 
L 190.005787 13.248 
L 222.17876 13.248 
L 222.50374 134.208 
L 254.676713 134.208 
L 255.001692 13.248 
L 287.174665 13.248 
L 287.499645 134.208 
L 384.668523 134.208 
L 384.668523 134.208 
" clip-path="url(#pdd5968b5d4)" style="fill: none; stroke-dasharray: 9.6,2.4,1.5,2.4; stroke-dashoffset: 0; stroke: #4682b4; stroke-width: 1.5"/>
   </g>
   <g id="line2d_15">
    <path d="M 60.013977 134.208 
L 125.009882 134.183808 
L 157.507835 13.248 
L 190.005787 134.183808 
L 222.50374 13.248 
L 255.001692 134.183808 
L 287.499645 13.248 
L 319.997597 134.208 
L 384.668523 134.208 
L 384.668523 134.208 
" clip-path="url(#pdd5968b5d4)" style="fill: none; stroke-dasharray: 2.5,4.125; stroke-dashoffset: 0; stroke: #6b8e23; stroke-width: 2.5"/>
   </g>
   <g id="patch_3">
    <path d="M 43.78125 140.256 
L 43.78125 7.2 
" style="fill: none; stroke: #000000; stroke-width: 0.8; stroke-linejoin: miter; stroke-linecap: square"/>
   </g>
   <g id="patch_4">
    <path d="M 400.90125 140.256 
L 400.90125 7.2 
" style="fill: none; stroke: #000000; stroke-width: 0.8; stroke-linejoin: miter; stroke-linecap: square"/>
   </g>
   <g id="patch_5">
    <path d="M 43.78125 140.256 
L 400.90125 140.256 
" style="fill: none; stroke: #000000; stroke-width: 0.8; stroke-linejoin: miter; stroke-linecap: square"/>
   </g>
   <g id="patch_6">
    <path d="M 43.78125 7.2 
L 400.90125 7.2 
" style="fill: none; stroke: #000000; stroke-width: 0.8; stroke-linejoin: miter; stroke-linecap: square"/>
   </g>
   <g id="legend_1">
    <g id="patch_7">
     <path d="M 329.737188 73.9125 
L 393.90125 73.9125 
Q 395.90125 73.9125 395.90125 71.9125 
L 395.90125 14.2 
Q 395.90125 12.2 393.90125 12.2 
L 329.737188 12.2 
Q 327.737188 12.2 327.737188 14.2 
L 327.737188 71.9125 
Q 327.737188 73.9125 329.737188 73.9125 
z
" style="fill: #ffffff; opacity: 0.8; stroke: #cccccc; stroke-linejoin: miter"/>
    </g>
    <g id="line2d_16">
     <path d="M 331.737188 20.298437 
L 341.737188 20.298437 
L 351.737188 20.298437 
" style="fill: none; stroke: #ff4500; stroke-width: 1.5; stroke-linecap: square"/>
    </g>
    <g id="text_7">
     <text style="font: 10px 'DejaVu Sans', 'Bitstream Vera Sans', 'Computer Modern Sans Serif', 'Lucida Grande', 'Verdana', 'Geneva', 'Lucid', 'Arial', 'Helvetica', 'Avant Garde', sans-serif; text-anchor: start" x="359.737188" y="23.798437" transform="rotate(-0 359.737188 23.798437)">PLML2</text>
    </g>
    <g id="line2d_17">
     <path d="M 331.737188 34.976562 
L 341.737188 34.976562 
L 351.737188 34.976562 
" style="fill: none; stroke-dasharray: 5.55,2.4; stroke-dashoffset: 0; stroke: #c71585; stroke-width: 1.5"/>
    </g>
    <g id="text_8">
     <text style="font: 10px 'DejaVu Sans', 'Bitstream Vera Sans', 'Computer Modern Sans Serif', 'Lucida Grande', 'Verdana', 'Geneva', 'Lucid', 'Arial', 'Helvetica', 'Avant Garde', sans-serif; text-anchor: start" x="359.737188" y="38.476562" transform="rotate(-0 359.737188 38.476562)">PLMR</text>
    </g>
    <g id="line2d_18">
     <path d="M 331.737188 49.654687 
L 341.737188 49.654687 
L 351.737188 49.654687 
" style="fill: none; stroke-dasharray: 9.6,2.4,1.5,2.4; stroke-dashoffset: 0; stroke: #4682b4; stroke-width: 1.5"/>
    </g>
    <g id="text_9">
     <text style="font: 10px 'DejaVu Sans', 'Bitstream Vera Sans', 'Computer Modern Sans Serif', 'Lucida Grande', 'Verdana', 'Geneva', 'Lucid', 'Arial', 'Helvetica', 'Avant Garde', sans-serif; text-anchor: start" x="359.737188" y="53.154687" transform="rotate(-0 359.737188 53.154687)">AVBL</text>
    </g>
    <g id="line2d_19">
     <path d="M 331.737188 64.332812 
L 341.737188 64.332812 
L 351.737188 64.332812 
" style="fill: none; stroke-dasharray: 2.5,4.125; stroke-dashoffset: 0; stroke: #6b8e23; stroke-width: 2.5"/>
    </g>
    <g id="text_10">
     <text style="font: 10px 'DejaVu Sans', 'Bitstream Vera Sans', 'Computer Modern Sans Serif', 'Lucida Grande', 'Verdana', 'Geneva', 'Lucid', 'Arial', 'Helvetica', 'Avant Garde', sans-serif; text-anchor: start" x="359.737188" y="67.832812" transform="rotate(-0 359.737188 67.832812)">AVBR</text>
    </g>
   </g>
  </g>
  <g id="axes_2">
   <g id="patch_8">
    <path d="M 43.78125 273.312 
L 400.90125 273.312 
L 400.90125 140.256 
L 43.78125 140.256 
z
" style="fill: #ffffff"/>
   </g>
   <g id="matplotlib.axis_3">
    <g id="xtick_7">
     <g id="line2d_20">
      <g>
       <use xlink:href="#m4d699b7f33" x="60.013977" y="273.312" style="stroke: #000000; stroke-width: 0.8"/>
      </g>
     </g>
     <g id="text_11">
      <text style="font: 10px 'DejaVu Sans', 'Bitstream Vera Sans', 'Computer Modern Sans Serif', 'Lucida Grande', 'Verdana', 'Geneva', 'Lucid', 'Arial', 'Helvetica', 'Avant Garde', sans-serif; text-anchor: middle" x="60.013977" y="287.910437" transform="rotate(-0 60.013977 287.910437)">0</text>
     </g>
    </g>
    <g id="xtick_8">
     <g id="line2d_21">
      <g>
       <use xlink:href="#m4d699b7f33" x="125.009882" y="273.312" style="stroke: #000000; stroke-width: 0.8"/>
      </g>
     </g>
     <g id="text_12">
      <text style="font: 10px 'DejaVu Sans', 'Bitstream Vera Sans', 'Computer Modern Sans Serif', 'Lucida Grande', 'Verdana', 'Geneva', 'Lucid', 'Arial', 'Helvetica', 'Avant Garde', sans-serif; text-anchor: middle" x="125.009882" y="287.910437" transform="rotate(-0 125.009882 287.910437)">100</text>
     </g>
    </g>
    <g id="xtick_9">
     <g id="line2d_22">
      <g>
       <use xlink:href="#m4d699b7f33" x="190.005787" y="273.312" style="stroke: #000000; stroke-width: 0.8"/>
      </g>
     </g>
     <g id="text_13">
      <text style="font: 10px 'DejaVu Sans', 'Bitstream Vera Sans', 'Computer Modern Sans Serif', 'Lucida Grande', 'Verdana', 'Geneva', 'Lucid', 'Arial', 'Helvetica', 'Avant Garde', sans-serif; text-anchor: middle" x="190.005787" y="287.910437" transform="rotate(-0 190.005787 287.910437)">200</text>
     </g>
    </g>
    <g id="xtick_10">
     <g id="line2d_23">
      <g>
       <use xlink:href="#m4d699b7f33" x="255.001692" y="273.312" style="stroke: #000000; stroke-width: 0.8"/>
      </g>
     </g>
     <g id="text_14">
      <text style="font: 10px 'DejaVu Sans', 'Bitstream Vera Sans', 'Computer Modern Sans Serif', 'Lucida Grande', 'Verdana', 'Geneva', 'Lucid', 'Arial', 'Helvetica', 'Avant Garde', sans-serif; text-anchor: middle" x="255.001692" y="287.910437" transform="rotate(-0 255.001692 287.910437)">300</text>
     </g>
    </g>
    <g id="xtick_11">
     <g id="line2d_24">
      <g>
       <use xlink:href="#m4d699b7f33" x="319.997597" y="273.312" style="stroke: #000000; stroke-width: 0.8"/>
      </g>
     </g>
     <g id="text_15">
      <text style="font: 10px 'DejaVu Sans', 'Bitstream Vera Sans', 'Computer Modern Sans Serif', 'Lucida Grande', 'Verdana', 'Geneva', 'Lucid', 'Arial', 'Helvetica', 'Avant Garde', sans-serif; text-anchor: middle" x="319.997597" y="287.910437" transform="rotate(-0 319.997597 287.910437)">400</text>
     </g>
    </g>
    <g id="xtick_12">
     <g id="line2d_25">
      <g>
       <use xlink:href="#m4d699b7f33" x="384.993502" y="273.312" style="stroke: #000000; stroke-width: 0.8"/>
      </g>
     </g>
     <g id="text_16">
      <text style="font: 10px 'DejaVu Sans', 'Bitstream Vera Sans', 'Computer Modern Sans Serif', 'Lucida Grande', 'Verdana', 'Geneva', 'Lucid', 'Arial', 'Helvetica', 'Avant Garde', sans-serif; text-anchor: middle" x="384.993502" y="287.910437" transform="rotate(-0 384.993502 287.910437)">500</text>
     </g>
    </g>
    <g id="text_17">
     <text style="font: 10px 'DejaVu Sans', 'Bitstream Vera Sans', 'Computer Modern Sans Serif', 'Lucida Grande', 'Verdana', 'Geneva', 'Lucid', 'Arial', 'Helvetica', 'Avant Garde', sans-serif; text-anchor: middle" x="222.34125" y="301.588562" transform="rotate(-0 222.34125 301.588562)">Time (ms)</text>
    </g>
   </g>
   <g id="matplotlib.axis_4">
    <g id="ytick_6">
     <g id="line2d_26">
      <g>
       <use xlink:href="#m72a3bb44ae" x="43.78125" y="246.3304" style="stroke: #000000; stroke-width: 0.8"/>
      </g>
     </g>
     <g id="text_18">
      <text style="font: 10px 'DejaVu Sans', 'Bitstream Vera Sans', 'Computer Modern Sans Serif', 'Lucida Grande', 'Verdana', 'Geneva', 'Lucid', 'Arial', 'Helvetica', 'Avant Garde', sans-serif; text-anchor: end" x="36.78125" y="250.129618" transform="rotate(-0 36.78125 250.129618)">0.0</text>
     </g>
    </g>
    <g id="ytick_7">
     <g id="line2d_27">
      <g>
       <use xlink:href="#m72a3bb44ae" x="43.78125" y="209.903896" style="stroke: #000000; stroke-width: 0.8"/>
      </g>
     </g>
     <g id="text_19">
      <text style="font: 10px 'DejaVu Sans', 'Bitstream Vera Sans', 'Computer Modern Sans Serif', 'Lucida Grande', 'Verdana', 'Geneva', 'Lucid', 'Arial', 'Helvetica', 'Avant Garde', sans-serif; text-anchor: end" x="36.78125" y="213.703115" transform="rotate(-0 36.78125 213.703115)">0.5</text>
     </g>
    </g>
    <g id="ytick_8">
     <g id="line2d_28">
      <g>
       <use xlink:href="#m72a3bb44ae" x="43.78125" y="173.477392" style="stroke: #000000; stroke-width: 0.8"/>
      </g>
     </g>
     <g id="text_20">
      <text style="font: 10px 'DejaVu Sans', 'Bitstream Vera Sans', 'Computer Modern Sans Serif', 'Lucida Grande', 'Verdana', 'Geneva', 'Lucid', 'Arial', 'Helvetica', 'Avant Garde', sans-serif; text-anchor: end" x="36.78125" y="177.276611" transform="rotate(-0 36.78125 177.276611)">1.0</text>
     </g>
    </g>
    <g id="text_21">
     <text style="font: 10px 'DejaVu Sans', 'Bitstream Vera Sans', 'Computer Modern Sans Serif', 'Lucida Grande', 'Verdana', 'Geneva', 'Lucid', 'Arial', 'Helvetica', 'Avant Garde', sans-serif; text-anchor: middle" x="14.798438" y="206.784" transform="rotate(-90 14.798438 206.784)">Voltage (V)</text>
    </g>
   </g>
   <g id="line2d_29">
    <path d="M 60.013977 251.065845 
L 125.009882 251.065845 
L 125.334862 250.204552 
L 125.984821 247.536806 
L 128.259678 236.28939 
L 130.859514 223.722399 
L 132.809391 215.263735 
L 134.434288 208.991048 
L 137.684084 198.834129 
L 138.009063 197.839562 
L 138.334043 197.687831 
L 138.659022 197.87397 
L 139.308981 198.68674 
L 140.28392 200.357639 
L 145.483592 209.972676 
L 147.10849 212.355108 
L 148.733388 214.386818 
L 150.358285 216.135742 
L 152.308162 217.862898 
L 153.93306 219.031088 
L 155.882937 220.145987 
L 158.157794 221.165732 
L 161.08261 222.312526 
L 164.332405 223.316207 
L 167.90718 224.171516 
L 172.456893 225.01412 
L 178.631504 225.904624 
L 188.38089 227.043083 
L 191.955664 227.336899 
L 196.830357 227.38982 
L 204.304886 227.206288 
L 215.35419 226.468564 
L 225.103576 225.683821 
L 230.628228 225.658548 
L 237.127818 225.854071 
L 244.927327 226.31601 
L 254.676713 227.128802 
L 255.651651 227.318825 
L 256.951569 227.922448 
L 259.226426 229.276953 
L 267.675894 234.560056 
L 270.925689 236.235319 
L 274.175484 237.668323 
L 277.425279 238.861925 
L 281.000054 239.921868 
L 284.574829 240.739292 
L 297.57401 243.166559 
L 307.323396 244.777823 
L 320.647556 246.733558 
L 329.097024 247.8085 
L 337.546492 248.655388 
L 346.645918 249.342427 
L 357.045263 249.90223 
L 369.719465 250.350941 
L 384.668523 250.666139 
L 384.668523 250.666139 
" clip-path="url(#p2f633c1a62)" style="fill: none; stroke: #c71585; stroke-linecap: square"/>
   </g>
   <g id="line2d_30">
    <path d="M 60.013977 249.177066 
L 60.338957 247.773969 
L 60.663936 246.947809 
L 60.988916 246.462262 
L 61.638875 246.010172 
L 62.613813 245.821589 
L 65.21365 245.775286 
L 124.684903 245.774665 
L 126.3098 216.579416 
L 127.284739 204.162256 
L 128.259678 194.585429 
L 129.234616 187.471253 
L 130.209555 182.09127 
L 131.184493 178.076144 
L 132.159432 175.25902 
L 133.13437 173.239462 
L 134.109309 171.871319 
L 135.084248 170.944424 
L 136.059186 170.321101 
L 137.034125 169.906058 
L 137.684084 169.77584 
L 138.009063 146.304 
L 139.308981 180.959964 
L 139.95894 192.625603 
L 140.608899 201.118355 
L 141.258859 207.162804 
L 141.908818 211.470087 
L 142.558777 214.535489 
L 143.208736 216.65182 
L 143.858695 218.086112 
L 144.508654 219.029461 
L 145.158613 219.617916 
L 145.808572 219.954592 
L 146.78351 220.143281 
L 147.758449 220.083516 
L 149.058367 219.758475 
L 150.683265 219.107648 
L 152.308162 218.219525 
L 154.907999 216.511008 
L 157.182855 214.953294 
L 157.507835 193.962179 
L 158.157794 204.237593 
L 158.807753 213.949772 
L 159.457712 220.527227 
L 160.107671 224.506825 
L 160.75763 226.775268 
L 161.407589 228.035533 
L 162.057548 228.722475 
L 162.707507 229.091838 
L 163.682446 229.35004 
L 165.307343 229.489543 
L 169.207098 229.490451 
L 182.856238 229.23396 
L 189.680808 228.865433 
L 190.005787 230.022162 
L 190.655746 234.447127 
L 190.980726 235.35679 
L 191.305705 235.699021 
L 191.630685 235.635717 
L 192.280644 234.819136 
L 195.20546 229.945903 
L 196.180398 228.965948 
L 197.480316 228.033416 
L 199.105214 227.207843 
L 209.504559 222.55751 
L 216.979088 218.537576 
L 219.903904 216.549416 
L 222.17876 214.968624 
L 222.50374 193.973919 
L 223.153699 204.24454 
L 223.803658 213.953684 
L 224.453617 220.529383 
L 225.103576 224.507998 
L 225.753535 226.775902 
L 226.403494 228.035872 
L 227.053453 228.722655 
L 227.703412 229.091929 
L 228.678351 229.350073 
L 230.303248 229.489552 
L 234.203003 229.490451 
L 247.852143 229.23396 
L 254.676713 228.865433 
L 255.001692 230.054558 
L 255.651651 236.171271 
L 255.976631 237.859697 
L 256.30161 238.924623 
L 256.62659 239.522683 
L 256.951569 239.792461 
L 257.276549 239.843512 
L 257.926508 239.580391 
L 259.226426 238.581462 
L 261.826262 236.595609 
L 278.075239 224.81557 
L 287.174665 218.106352 
L 287.499645 205.051427 
L 288.149604 219.507902 
L 288.799563 228.680489 
L 289.449522 233.36518 
L 290.099481 235.600103 
L 290.74944 236.656014 
L 291.399399 237.173937 
L 292.374338 237.555915 
L 294.649194 238.041901 
L 299.848867 239.149645 
L 304.72356 240.422801 
L 310.573191 242.192748 
L 316.097843 244.082657 
L 320.647556 245.671209 
L 322.272454 245.765556 
L 332.996778 245.774665 
L 384.668523 245.774665 
L 384.668523 245.774665 
" clip-path="url(#p2f633c1a62)" style="fill: none; stroke-dasharray: 3.7,1.6; stroke-dashoffset: 0; stroke: #c71585"/>
   </g>
   <g id="line2d_31">
    <path d="M 60.013977 252.34348 
L 60.338957 252.718982 
L 60.988916 252.970369 
L 62.288834 253.030501 
L 95.761725 253.031591 
L 146.133551 253.031591 
L 146.458531 225.223734 
L 146.78351 243.224286 
L 147.10849 216.314867 
L 147.433469 202.635402 
L 147.758449 194.942669 
L 148.083429 234.750156 
L 148.408408 207.773368 
L 148.733388 198.287288 
L 149.058367 193.047167 
L 149.383347 234.946357 
L 149.708326 207.622599 
L 150.033306 198.572713 
L 150.358285 193.512359 
L 150.683265 235.473847 
L 151.008244 208.031364 
L 151.333224 199.039654 
L 151.658203 194.002516 
L 151.983183 235.882399 
L 152.308162 208.397293 
L 152.633142 199.43926 
L 152.958121 194.419256 
L 153.283101 236.239058 
L 153.60808 208.719965 
L 153.93306 199.80369 
L 154.25804 194.82156 
L 154.583019 236.561601 
L 154.907999 209.016063 
L 155.232978 200.151853 
L 155.557958 195.202717 
L 155.882937 236.899433 
L 156.207917 209.325007 
L 156.532896 200.510052 
L 156.857876 195.584165 
L 157.182855 237.237282 
L 157.507835 209.631279 
L 157.832814 200.872251 
L 158.157794 195.967985 
L 158.482773 237.575091 
L 158.807753 209.92617 
L 159.132732 201.199817 
L 159.457712 196.327372 
L 159.782691 237.903831 
L 160.107671 210.234767 
L 160.43265 201.559569 
L 160.75763 196.711996 
L 161.08261 238.240333 
L 161.407589 210.551088 
L 161.732569 201.92248 
L 162.057548 197.102084 
L 162.382528 238.577621 
L 162.707507 210.855743 
L 163.032487 202.299996 
L 163.357466 197.472962 
L 163.682446 238.902783 
L 164.007425 224.729678 
L 164.332405 224.487403 
L 164.657384 224.444296 
L 164.982364 244.813951 
L 165.307343 230.42765 
L 165.632323 226.726443 
L 165.957302 225.12608 
L 166.282282 244.406587 
L 166.607261 230.632883 
L 166.932241 226.934222 
L 167.257221 225.348029 
L 167.5822 244.520747 
L 167.90718 230.718564 
L 168.232159 227.099083 
L 168.557139 225.633418 
L 168.882118 244.752876 
L 169.207098 231.03858 
L 169.532077 227.342566 
L 169.857057 225.754046 
L 170.182036 244.809434 
L 170.507016 231.267479 
L 170.831995 227.691133 
L 171.156975 226.147687 
L 171.481954 245.109422 
L 171.806934 231.425344 
L 172.131913 227.919143 
L 172.456893 226.481515 
L 172.781872 245.379792 
L 173.106852 231.761514 
L 173.431831 228.172496 
L 173.756811 226.608776 
L 174.081791 245.442688 
L 174.40677 231.996021 
L 174.73175 228.526145 
L 175.056729 227.004298 
L 175.381709 245.742698 
L 175.706688 232.156138 
L 176.031668 228.759704 
L 176.356647 227.346993 
L 176.681627 246.013793 
L 177.006606 232.501608 
L 177.331586 229.013405 
L 177.656565 227.60337 
L 177.981545 246.244013 
L 178.306524 232.82387 
L 178.631504 229.413275 
L 178.956483 227.905752 
L 179.281463 246.385656 
L 179.606442 232.903217 
L 179.931422 229.611708 
L 180.256402 228.231463 
L 180.581381 246.648365 
L 180.906361 233.243468 
L 181.23134 229.863152 
L 181.55632 228.487199 
L 181.881299 246.880748 
L 182.206279 233.571818 
L 182.531258 230.264956 
L 182.856238 228.78807 
L 183.181217 247.021977 
L 183.506197 233.856941 
L 183.831176 230.649903 
L 184.156156 229.209102 
L 184.481135 247.330043 
L 184.806115 234.018914 
L 185.131094 230.732472 
L 185.456074 229.390893 
L 185.781053 247.52265 
L 186.106033 234.326841 
L 186.431012 231.125579 
L 186.755992 229.681802 
L 187.080972 247.659642 
L 187.405951 234.612575 
L 187.730931 231.5118 
L 188.05591 230.111685 
L 188.38089 247.967875 
L 188.705869 234.773821 
L 189.030849 231.761919 
L 189.355828 230.476187 
L 189.680808 248.241029 
L 190.005787 253.804034 
L 190.330767 256.683062 
L 190.655746 257.773174 
L 190.980726 254.798055 
L 191.305705 257.336778 
L 191.630685 257.969545 
L 191.955664 258.160097 
L 192.280644 254.988645 
L 192.605623 257.473925 
L 192.930603 257.811372 
L 193.255583 257.858969 
L 193.580562 254.839681 
L 193.905542 257.131443 
L 194.230521 257.671606 
L 194.555501 257.541616 
L 194.88048 254.659576 
L 195.20546 256.760707 
L 195.530439 257.230779 
L 195.855419 257.345515 
L 196.180398 254.564373 
L 196.505378 256.719956 
L 196.830357 256.931841 
L 197.155337 256.935189 
L 197.480316 254.332738 
L 197.805296 256.328039 
L 198.130275 256.75749 
L 198.455255 256.588658 
L 198.780234 254.133136 
L 199.105214 255.946881 
L 199.430193 256.303469 
L 199.755173 256.384477 
L 200.080153 254.032638 
L 200.405132 255.602275 
L 200.730112 255.861841 
L 201.055091 255.906281 
L 201.380071 253.770574 
L 201.70505 255.493813 
L 202.03003 255.816382 
L 202.355009 255.610652 
L 202.679989 253.596956 
L 203.004968 255.125238 
L 203.329948 255.362065 
L 203.654927 255.404027 
L 203.979907 253.496807 
L 204.304886 254.77826 
L 204.629866 254.915057 
L 204.954845 254.920627 
L 205.279825 253.232463 
L 205.604804 254.668928 
L 206.254764 254.485707 
L 206.579743 252.990851 
L 206.904723 254.263467 
L 207.229702 254.395242 
L 207.554682 254.405722 
L 207.879661 252.953565 
L 208.204641 253.941012 
L 208.8546 253.924473 
L 209.179579 252.68972 
L 209.504559 253.828772 
L 210.154518 253.477526 
L 210.479497 252.447521 
L 210.804477 253.419115 
L 211.129456 253.427737 
L 211.454436 253.11311 
L 211.779415 252.242268 
L 212.104395 253.024155 
L 212.754354 252.89533 
L 213.079334 252.137473 
L 213.404313 252.97672 
L 214.379252 251.89775 
L 214.704231 252.535149 
L 215.35419 252.158583 
L 215.67917 251.735367 
L 216.004149 252.242995 
L 216.979088 251.542318 
L 217.304067 251.946066 
L 217.954026 251.449624 
L 218.279006 251.364592 
L 218.603985 251.648069 
L 219.253945 251.097283 
L 219.903904 251.339779 
L 220.553863 250.729362 
L 220.878842 250.97372 
L 221.203822 251.037486 
L 221.528801 250.604894 
L 221.853781 250.359581 
L 222.17876 250.777123 
L 222.50374 250.733596 
L 222.828719 250.256855 
L 223.153699 249.987935 
L 223.478678 250.580103 
L 223.803658 250.45796 
L 224.128637 249.911096 
L 224.453617 249.621213 
L 224.778596 250.384859 
L 225.103576 250.151819 
L 225.428555 249.554876 
L 225.753535 249.24605 
L 226.078515 250.18609 
L 226.403494 249.842968 
L 226.728474 249.196419 
L 227.053453 248.868648 
L 227.378433 249.986346 
L 227.703412 249.533268 
L 228.028392 248.866305 
L 228.353371 248.504709 
L 228.678351 249.79311 
L 229.653289 248.12424 
L 229.978269 249.592363 
L 230.953207 247.741177 
L 231.278187 249.389984 
L 231.928146 247.779102 
L 232.253126 247.373278 
L 232.578105 249.196907 
L 232.903085 248.308589 
L 233.228064 230.905815 
L 233.553044 224.099687 
L 233.878023 241.893137 
L 234.203003 227.517494 
L 234.527982 222.796335 
L 234.852962 220.98096 
L 235.177941 241.164637 
L 235.502921 227.135083 
L 235.8279 222.941337 
L 236.15288 221.316119 
L 236.477859 241.465235 
L 236.802839 227.402784 
L 237.127818 223.245412 
L 237.452798 221.628532 
L 237.777777 241.702537 
L 238.102757 227.653995 
L 238.427736 223.527049 
L 238.752716 221.914785 
L 239.077696 241.923961 
L 239.402675 227.896248 
L 239.727655 223.799918 
L 240.052634 222.190573 
L 240.377614 242.142645 
L 240.702593 228.137463 
L 241.027573 224.064261 
L 241.352552 222.456849 
L 241.677532 242.353575 
L 242.002511 228.375991 
L 242.327491 224.344439 
L 242.65247 222.740063 
L 242.97745 242.572486 
L 243.302429 228.619244 
L 243.627409 224.62323 
L 243.952388 223.026204 
L 244.277368 242.792198 
L 244.602347 228.863038 
L 244.927327 224.904046 
L 245.252307 223.312713 
L 245.577286 242.995004 
L 245.902266 229.100025 
L 246.227245 225.181373 
L 246.552225 223.598692 
L 246.877204 243.214157 
L 247.202184 229.346266 
L 247.527163 225.463746 
L 247.852143 223.886593 
L 248.177122 243.436224 
L 248.502102 229.59475 
L 248.827081 225.747933 
L 249.152061 224.177541 
L 249.47704 243.656768 
L 249.80202 229.824629 
L 250.126999 226.005267 
L 250.451979 224.461825 
L 250.776958 243.872724 
L 251.101938 230.071688 
L 251.426917 226.299526 
L 251.751897 224.755563 
L 252.076877 244.09309 
L 252.401856 230.30317 
L 252.726836 226.511352 
L 253.051815 225.014083 
L 253.376795 244.344958 
L 253.701774 230.627329 
L 254.026754 226.903365 
L 254.351733 225.314866 
L 254.676713 244.486319 
L 255.001692 230.899232 
L 255.326672 227.273461 
L 255.651651 225.718142 
L 255.976631 244.792526 
L 256.30161 231.060971 
L 256.62659 227.354673 
L 256.951569 225.874173 
L 257.276549 244.982628 
L 257.601528 231.356112 
L 257.926508 227.733734 
L 258.251488 226.169258 
L 258.576467 245.119327 
L 258.901447 231.626433 
L 259.226426 228.105784 
L 259.551406 226.575007 
L 259.876385 245.425987 
L 260.201365 231.786744 
L 260.526344 228.186547 
L 260.851324 226.734572 
L 261.176303 245.615829 
L 261.501283 232.086761 
L 261.826262 228.569692 
L 262.151242 227.02642 
L 262.476221 245.752751 
L 262.801201 232.365394 
L 263.12618 228.945724 
L 263.45116 227.440263 
L 263.776139 246.060004 
L 264.101119 232.526856 
L 264.426098 229.183056 
L 264.751078 227.789489 
L 265.076058 246.329403 
L 265.401037 232.872047 
L 265.726017 229.437087 
L 266.050996 227.918084 
L 266.375976 246.39265 
L 266.700955 233.110272 
L 267.025935 229.796988 
L 267.350914 228.324706 
L 267.675894 246.694146 
L 268.000873 233.268565 
L 268.325853 230.036548 
L 268.650832 228.672912 
L 268.975812 246.965384 
L 269.300791 233.618152 
L 269.625771 230.289305 
L 269.95075 228.932641 
L 270.27573 247.1993 
L 270.600709 233.947384 
L 270.925689 230.693866 
L 271.250669 229.23176 
L 271.575648 247.340525 
L 271.900628 234.02507 
L 272.225607 230.898489 
L 272.550587 229.569376 
L 272.875566 247.603126 
L 273.200546 234.371015 
L 273.525525 231.148748 
L 273.850505 229.832298 
L 274.175484 247.837466 
L 274.500464 234.702564 
L 274.825443 231.555584 
L 275.150423 230.134351 
L 275.475402 247.978493 
L 275.800382 234.991555 
L 276.125361 231.945513 
L 276.450341 251.111066 
L 276.77532 252.315315 
L 277.1003 256.136978 
L 277.425279 257.667441 
L 277.750259 257.960632 
L 278.075239 254.850627 
L 278.400218 257.385454 
L 278.725198 258.019532 
L 279.050177 258.200345 
L 279.375157 255.022344 
L 279.700136 257.195758 
L 280.025116 257.691338 
L 280.350095 257.813563 
L 280.675075 254.820352 
L 281.000054 257.123189 
L 281.325034 257.389265 
L 281.650013 257.410224 
L 281.974993 254.595392 
L 282.299972 256.733841 
L 282.624952 257.219489 
L 282.949931 257.340621 
L 283.274911 254.562263 
L 283.59989 256.420514 
L 283.92487 256.795467 
L 284.24985 256.877863 
L 284.574829 254.304598 
L 284.899809 256.315342 
L 285.224788 256.468873 
L 285.549768 256.453807 
L 285.874747 254.066082 
L 286.199727 255.918361 
L 286.524706 256.29123 
L 286.849686 256.105175 
L 287.174665 253.865781 
L 287.499645 255.535189 
L 287.824624 255.834517 
L 288.149604 255.894908 
L 288.474583 253.765592 
L 288.799563 255.49144 
L 289.449522 255.474724 
L 289.774501 253.530671 
L 290.099481 255.092361 
L 290.42446 255.349978 
L 290.74944 255.120631 
L 291.07442 253.329264 
L 291.399399 254.711614 
L 291.724379 254.887043 
L 292.049358 254.908939 
L 292.374338 253.227318 
L 292.699317 254.362476 
L 293.349276 254.423237 
L 293.674256 252.961179 
L 293.999235 254.249692 
L 294.324215 254.389012 
L 294.649194 254.127249 
L 294.974174 252.786708 
L 295.299153 253.872001 
L 295.949112 253.912507 
L 296.274092 252.684462 
L 296.599071 253.5204 
L 297.249031 253.414541 
L 297.57401 252.417652 
L 297.89899 253.405137 
L 298.548949 252.967728 
L 298.873928 252.172679 
L 299.198908 252.993326 
L 299.848867 252.889506 
L 300.173846 252.135007 
L 300.498826 252.667977 
L 301.148785 252.364288 
L 301.473764 251.850703 
L 301.798744 252.452207 
L 302.773682 251.67304 
L 303.098662 252.153688 
L 303.748621 251.666236 
L 304.073601 251.479574 
L 304.39858 251.856433 
L 305.048539 251.328502 
L 305.373519 251.291794 
L 305.698498 251.549318 
L 306.348457 250.962294 
L 306.998416 251.245164 
L 307.648375 250.593717 
L 307.973355 250.900546 
L 308.298334 250.942643 
L 308.948293 250.223448 
L 309.273273 250.703601 
L 309.598252 250.638411 
L 309.923232 250.146389 
L 310.248212 249.879964 
L 310.573191 250.523037 
L 310.898171 250.338817 
L 311.22315 249.793614 
L 311.54813 249.50714 
L 311.873109 250.325049 
L 312.198089 250.030851 
L 312.523068 249.436226 
L 312.848048 249.131067 
L 313.173027 250.125719 
L 313.498007 249.721767 
L 313.822986 249.077256 
L 314.147966 248.753005 
L 314.472945 249.925707 
L 314.797925 249.442878 
L 315.122904 248.732473 
L 315.447884 248.380122 
L 315.772863 249.728196 
L 316.747802 247.998587 
L 317.072782 249.526953 
L 318.04772 247.620405 
L 318.3727 249.327726 
L 319.022659 247.660019 
L 319.347638 247.246794 
L 319.672618 249.129634 
L 319.997597 239.441642 
L 320.322577 234.95624 
L 320.647556 232.694174 
L 320.972536 245.442643 
L 321.297515 236.838334 
L 321.622495 233.805947 
L 321.947474 232.3249 
L 322.272454 245.517962 
L 322.597433 236.985779 
L 322.922413 234.11122 
L 323.247393 232.686968 
L 323.572372 245.772837 
L 323.897352 237.318725 
L 324.222331 234.515867 
L 324.547311 233.124721 
L 324.87229 246.052838 
L 325.19727 237.677265 
L 325.522249 234.933188 
L 325.847229 233.567472 
L 326.172208 246.330273 
L 326.497188 238.036843 
L 326.822167 235.361434 
L 327.147147 234.007083 
L 327.472126 246.607878 
L 327.797106 238.366467 
L 328.122085 235.755021 
L 328.447065 234.437691 
L 328.772044 246.877278 
L 329.097024 238.722763 
L 329.422003 236.169037 
L 329.746983 234.880786 
L 330.071963 247.156204 
L 330.396942 239.082555 
L 330.721922 236.576201 
L 331.046901 235.317466 
L 331.371881 247.429535 
L 331.69686 239.44058 
L 332.02184 236.965631 
L 332.346819 235.724695 
L 332.671799 247.692267 
L 332.996778 239.792917 
L 333.321758 237.377125 
L 333.646737 236.158988 
L 333.971717 247.963484 
L 334.296696 240.150666 
L 334.621676 237.79116 
L 334.946655 236.607061 
L 335.271635 248.234657 
L 335.596614 240.509125 
L 335.921594 238.201693 
L 336.246574 237.019483 
L 336.571553 248.485005 
L 336.896533 240.856007 
L 337.221512 238.608953 
L 337.546492 237.45171 
L 337.871471 248.752807 
L 338.196451 241.212699 
L 338.52143 239.019919 
L 338.84641 237.858856 
L 339.171389 249.001517 
L 339.496369 241.438287 
L 339.821348 239.441366 
L 340.146328 238.399083 
L 340.471307 249.343996 
L 340.796287 241.93556 
L 341.121266 239.758469 
L 341.446246 238.800328 
L 341.771225 249.619435 
L 342.096205 242.379826 
L 342.421184 240.313565 
L 342.746164 239.165512 
L 343.071144 249.796907 
L 343.396123 242.475283 
L 343.721103 240.62422 
L 344.046082 239.638474 
L 344.371062 250.104655 
L 344.696041 242.951806 
L 345.021021 240.928267 
L 345.346 240.033524 
L 345.67098 250.374968 
L 345.995959 243.405457 
L 346.320939 241.480927 
L 346.645918 240.395976 
L 346.970898 250.549795 
L 347.295877 243.495885 
L 347.620857 241.791437 
L 347.945836 240.867215 
L 348.270816 250.85658 
L 348.595795 243.95931 
L 348.920775 242.094131 
L 349.245755 241.260764 
L 349.570734 251.124594 
L 349.895714 244.411464 
L 350.220693 242.644231 
L 350.545673 241.622588 
L 350.870652 251.299273 
L 351.195632 244.807606 
L 351.520611 243.170613 
L 351.845591 242.1924 
L 352.17057 251.653072 
L 352.49555 244.997871 
L 352.820529 243.266687 
L 353.145509 242.483664 
L 353.470488 251.868548 
L 353.795468 245.41903 
L 354.120447 243.802828 
L 354.445427 242.826593 
L 354.770406 252.034687 
L 355.095386 245.815 
L 355.420365 244.323911 
L 355.745345 243.402306 
L 356.070325 252.387649 
L 356.395304 246.002228 
L 356.720284 244.683968 
L 357.045263 243.899547 
L 357.370243 252.698468 
L 357.695222 246.474384 
L 358.020202 244.978504 
L 358.345181 244.049657 
L 358.670161 252.772678 
L 358.99514 246.820988 
L 359.32012 245.472435 
L 359.645099 244.606602 
L 359.970079 253.116005 
L 360.295058 246.993789 
L 360.620038 245.82961 
L 360.945017 245.094865 
L 361.269997 253.42024 
L 361.594976 247.466726 
L 361.919956 246.120706 
L 362.244936 245.481291 
L 362.569915 253.681022 
L 362.894895 247.917047 
L 363.219874 259.859613 
L 363.544854 264.094239 
L 363.869833 258.745641 
L 364.194813 264.235395 
L 364.519792 266.349756 
L 364.844772 267.264 
L 365.169751 260.051176 
L 365.494731 264.77561 
L 365.81971 266.689056 
L 366.14469 267.130767 
L 366.469669 259.983658 
L 366.794649 264.401169 
L 367.119628 266.192797 
L 367.444608 266.930578 
L 367.769587 259.882703 
L 368.094567 263.986231 
L 368.419546 265.660024 
L 368.744526 266.356287 
L 369.069506 259.598323 
L 369.394485 263.865818 
L 369.719465 265.610594 
L 370.044444 265.989602 
L 370.369424 259.415156 
L 370.694403 263.410861 
L 371.019383 265.054205 
L 371.344362 265.754052 
L 371.669342 259.296593 
L 371.994321 262.982581 
L 372.319301 264.503403 
L 372.64428 265.148518 
L 372.96926 259.003725 
L 373.294239 262.855547 
L 373.619219 264.082922 
L 373.944198 264.613192 
L 374.269178 258.737952 
L 374.594157 262.359386 
L 374.919137 263.869158 
L 375.244117 264.521153 
L 375.569096 258.691993 
L 375.894076 261.953382 
L 376.219055 263.325543 
L 376.544035 263.921934 
L 376.869014 258.396734 
L 377.193994 261.823532 
L 377.518973 262.897295 
L 377.843953 263.370977 
L 378.168932 258.123395 
L 378.493912 261.319438 
L 378.818891 262.677437 
L 379.143871 262.904561 
L 379.46885 257.895065 
L 379.79383 260.832849 
L 380.118809 262.090059 
L 380.443789 262.645947 
L 380.768768 257.765836 
L 381.093748 260.775282 
L 381.418727 261.689695 
L 381.743707 262.099978 
L 382.068687 257.500492 
L 382.393666 260.26877 
L 382.718646 261.466019 
L 383.043625 261.626894 
L 383.368605 257.269338 
L 383.693584 259.78879 
L 384.018564 260.869358 
L 384.343543 261.360126 
L 384.668523 257.135916 
L 384.668523 257.135916 
" clip-path="url(#p2f633c1a62)" style="fill: none; stroke-dasharray: 0.64,0.16,0.1,0.16; stroke-dashoffset: 0; stroke: #c71585; stroke-width: 0.1"/>
   </g>
   <g id="patch_9">
    <path d="M 43.78125 273.312 
L 43.78125 140.256 
" style="fill: none; stroke: #000000; stroke-width: 0.8; stroke-linejoin: miter; stroke-linecap: square"/>
   </g>
   <g id="patch_10">
    <path d="M 400.90125 273.312 
L 400.90125 140.256 
" style="fill: none; stroke: #000000; stroke-width: 0.8; stroke-linejoin: miter; stroke-linecap: square"/>
   </g>
   <g id="patch_11">
    <path d="M 43.78125 273.312 
L 400.90125 273.312 
" style="fill: none; stroke: #000000; stroke-width: 0.8; stroke-linejoin: miter; stroke-linecap: square"/>
   </g>
   <g id="patch_12">
    <path d="M 43.78125 140.256 
L 400.90125 140.256 
" style="fill: none; stroke: #000000; stroke-width: 0.8; stroke-linejoin: miter; stroke-linecap: square"/>
   </g>
   <g id="legend_2">
    <g id="patch_13">
     <path d="M 246.023125 192.290375 
L 393.90125 192.290375 
Q 395.90125 192.290375 395.90125 190.290375 
L 395.90125 147.256 
Q 395.90125 145.256 393.90125 145.256 
L 246.023125 145.256 
Q 244.023125 145.256 244.023125 147.256 
L 244.023125 190.290375 
Q 244.023125 192.290375 246.023125 192.290375 
z
" style="fill: #ffffff; opacity: 0.8; stroke: #cccccc; stroke-linejoin: miter"/>
    </g>
    <g id="line2d_32">
     <path d="M 248.023125 153.354437 
L 258.023125 153.354437 
L 268.023125 153.354437 
" style="fill: none; stroke: #c71585; stroke-linecap: square"/>
    </g>
    <g id="text_22">
     <text style="font: 10px 'DejaVu Sans', 'Bitstream Vera Sans', 'Computer Modern Sans Serif', 'Lucida Grande', 'Verdana', 'Geneva', 'Lucid', 'Arial', 'Helvetica', 'Avant Garde', sans-serif; text-anchor: start" x="276.023125" y="156.854437" transform="rotate(-0 276.023125 156.854437)">Target response LUAL</text>
    </g>
    <g id="line2d_33">
     <path d="M 248.023125 168.032562 
L 258.023125 168.032562 
L 268.023125 168.032562 
" style="fill: none; stroke-dasharray: 3.7,1.6; stroke-dashoffset: 0; stroke: #c71585"/>
    </g>
    <g id="text_23">
     <text style="font: 10px 'DejaVu Sans', 'Bitstream Vera Sans', 'Computer Modern Sans Serif', 'Lucida Grande', 'Verdana', 'Geneva', 'Lucid', 'Arial', 'Helvetica', 'Avant Garde', sans-serif; text-anchor: start" x="276.023125" y="171.532562" transform="rotate(-0 276.023125 171.532562)">Digital prediction LUAL</text>
    </g>
    <g id="line2d_34">
     <path d="M 248.023125 182.710687 
L 258.023125 182.710687 
L 268.023125 182.710687 
" style="fill: none; stroke-dasharray: 0.64,0.16,0.1,0.16; stroke-dashoffset: 0; stroke: #c71585; stroke-width: 0.1"/>
    </g>
    <g id="text_24">
     <text style="font: 10px 'DejaVu Sans', 'Bitstream Vera Sans', 'Computer Modern Sans Serif', 'Lucida Grande', 'Verdana', 'Geneva', 'Lucid', 'Arial', 'Helvetica', 'Avant Garde', sans-serif; text-anchor: start" x="276.023125" y="186.210687" transform="rotate(-0 276.023125 186.210687)">Analog prediction LUAL</text>
    </g>
   </g>
  </g>
 </g>
 <defs>
  <clipPath id="pdd5968b5d4">
   <rect x="43.78125" y="7.2" width="357.12" height="133.056"/>
  </clipPath>
  <clipPath id="p2f633c1a62">
   <rect x="43.78125" y="140.256" width="357.12" height="133.056"/>
  </clipPath>
 </defs>
</svg>
