<?xml version="1.0" encoding="utf-8" standalone="no"?>
<!DOCTYPE svg PUBLIC "-//W3C//DTD SVG 1.1//EN"
  "http://www.w3.org/Graphics/SVG/1.1/DTD/svg11.dtd">
<svg xmlns:xlink="http://www.w3.org/1999/xlink" width="408.10125pt" height="310.86825pt" viewBox="0 0 408.10125 310.86825" xmlns="http://www.w3.org/2000/svg" version="1.1">
 <metadata>
  <rdf:RDF xmlns:dc="http://purl.org/dc/elements/1.1/" xmlns:cc="http://creativecommons.org/ns#" xmlns:rdf="http://www.w3.org/1999/02/22-rdf-syntax-ns#">
   <cc:Work>
    <dc:type rdf:resource="http://purl.org/dc/dcmitype/StillImage"/>
    <dc:date>2023-10-25T16:22:47.548034</dc:date>
    <dc:format>image/svg+xml</dc:format>
    <dc:creator>
     <cc:Agent>
      <dc:title>Matplotlib v3.8.0, https://matplotlib.org/</dc:title>
     </cc:Agent>
    </dc:creator>
   </cc:Work>
  </rdf:RDF>
 </metadata>
 <defs>
  <style type="text/css">*{stroke-linejoin: round; stroke-linecap: butt}</style>
 </defs>
 <g id="figure_1">
  <g id="patch_1">
   <path d="M 0 310.86825 
L 408.10125 310.86825 
L 408.10125 0 
L 0 0 
z
" style="fill: #ffffff"/>
  </g>
  <g id="axes_1">
   <g id="patch_2">
    <path d="M 43.78125 140.256 
L 400.90125 140.256 
L 400.90125 7.2 
L 43.78125 7.2 
z
" style="fill: #ffffff"/>
   </g>
   <g id="matplotlib.axis_1">
    <g id="xtick_1">
     <g id="line2d_1">
      <defs>
       <path id="mfd7631dfde" d="M 0 0 
L 0 3.5 
" style="stroke: #000000; stroke-width: 0.8"/>
      </defs>
      <g>
       <use xlink:href="#mfd7631dfde" x="60.013977" y="140.256" style="stroke: #000000; stroke-width: 0.8"/>
      </g>
     </g>
    </g>
    <g id="xtick_2">
     <g id="line2d_2">
      <g>
       <use xlink:href="#mfd7631dfde" x="125.009882" y="140.256" style="stroke: #000000; stroke-width: 0.8"/>
      </g>
     </g>
    </g>
    <g id="xtick_3">
     <g id="line2d_3">
      <g>
       <use xlink:href="#mfd7631dfde" x="190.005787" y="140.256" style="stroke: #000000; stroke-width: 0.8"/>
      </g>
     </g>
    </g>
    <g id="xtick_4">
     <g id="line2d_4">
      <g>
       <use xlink:href="#mfd7631dfde" x="255.001692" y="140.256" style="stroke: #000000; stroke-width: 0.8"/>
      </g>
     </g>
    </g>
    <g id="xtick_5">
     <g id="line2d_5">
      <g>
       <use xlink:href="#mfd7631dfde" x="319.997597" y="140.256" style="stroke: #000000; stroke-width: 0.8"/>
      </g>
     </g>
    </g>
    <g id="xtick_6">
     <g id="line2d_6">
      <g>
       <use xlink:href="#mfd7631dfde" x="384.993502" y="140.256" style="stroke: #000000; stroke-width: 0.8"/>
      </g>
     </g>
    </g>
   </g>
   <g id="matplotlib.axis_2">
    <g id="ytick_1">
     <g id="line2d_7">
      <defs>
       <path id="m9598f0bed0" d="M 0 0 
L -3.5 0 
" style="stroke: #000000; stroke-width: 0.8"/>
      </defs>
      <g>
       <use xlink:href="#m9598f0bed0" x="43.78125" y="134.208" style="stroke: #000000; stroke-width: 0.8"/>
      </g>
     </g>
     <g id="text_1">
      <text style="font: 10px 'DejaVu Sans', 'Bitstream Vera Sans', 'Computer Modern Sans Serif', 'Lucida Grande', 'Verdana', 'Geneva', 'Lucid', 'Arial', 'Helvetica', 'Avant Garde', sans-serif; text-anchor: end" x="36.78125" y="138.007219" transform="rotate(-0 36.78125 138.007219)">0.0</text>
     </g>
    </g>
    <g id="ytick_2">
     <g id="line2d_8">
      <g>
       <use xlink:href="#m9598f0bed0" x="43.78125" y="107.912348" style="stroke: #000000; stroke-width: 0.8"/>
      </g>
     </g>
     <g id="text_2">
      <text style="font: 10px 'DejaVu Sans', 'Bitstream Vera Sans', 'Computer Modern Sans Serif', 'Lucida Grande', 'Verdana', 'Geneva', 'Lucid', 'Arial', 'Helvetica', 'Avant Garde', sans-serif; text-anchor: end" x="36.78125" y="111.711567" transform="rotate(-0 36.78125 111.711567)">0.5</text>
     </g>
    </g>
    <g id="ytick_3">
     <g id="line2d_9">
      <g>
       <use xlink:href="#m9598f0bed0" x="43.78125" y="81.616696" style="stroke: #000000; stroke-width: 0.8"/>
      </g>
     </g>
     <g id="text_3">
      <text style="font: 10px 'DejaVu Sans', 'Bitstream Vera Sans', 'Computer Modern Sans Serif', 'Lucida Grande', 'Verdana', 'Geneva', 'Lucid', 'Arial', 'Helvetica', 'Avant Garde', sans-serif; text-anchor: end" x="36.78125" y="85.415914" transform="rotate(-0 36.78125 85.415914)">1.0</text>
     </g>
    </g>
    <g id="ytick_4">
     <g id="line2d_10">
      <g>
       <use xlink:href="#m9598f0bed0" x="43.78125" y="55.321043" style="stroke: #000000; stroke-width: 0.8"/>
      </g>
     </g>
     <g id="text_4">
      <text style="font: 10px 'DejaVu Sans', 'Bitstream Vera Sans', 'Computer Modern Sans Serif', 'Lucida Grande', 'Verdana', 'Geneva', 'Lucid', 'Arial', 'Helvetica', 'Avant Garde', sans-serif; text-anchor: end" x="36.78125" y="59.120262" transform="rotate(-0 36.78125 59.120262)">1.5</text>
     </g>
    </g>
    <g id="ytick_5">
     <g id="line2d_11">
      <g>
       <use xlink:href="#m9598f0bed0" x="43.78125" y="29.025391" style="stroke: #000000; stroke-width: 0.8"/>
      </g>
     </g>
     <g id="text_5">
      <text style="font: 10px 'DejaVu Sans', 'Bitstream Vera Sans', 'Computer Modern Sans Serif', 'Lucida Grande', 'Verdana', 'Geneva', 'Lucid', 'Arial', 'Helvetica', 'Avant Garde', sans-serif; text-anchor: end" x="36.78125" y="32.82461" transform="rotate(-0 36.78125 32.82461)">2.0</text>
     </g>
    </g>
    <g id="text_6">
     <text style="font: 10px 'DejaVu Sans', 'Bitstream Vera Sans', 'Computer Modern Sans Serif', 'Lucida Grande', 'Verdana', 'Geneva', 'Lucid', 'Arial', 'Helvetica', 'Avant Garde', sans-serif; text-anchor: middle" x="14.798438" y="73.728" transform="rotate(-90 14.798438 73.728)">Current (nA)</text>
    </g>
   </g>
   <g id="line2d_12">
    <path d="M 60.013977 134.208 
L 124.684903 134.208 
L 125.009882 60.580174 
L 137.684084 60.580174 
L 138.009063 134.208 
L 384.668523 134.208 
L 384.668523 134.208 
" clip-path="url(#p6b5c9eed5f)" style="fill: none; stroke: #ff4500; stroke-width: 1.5; stroke-linecap: square"/>
   </g>
   <g id="line2d_13">
    <path d="M 60.013977 134.208 
L 124.684903 134.208 
L 125.009882 60.580174 
L 254.676713 60.580174 
L 255.001692 134.208 
L 384.668523 134.208 
L 384.668523 134.208 
" clip-path="url(#p6b5c9eed5f)" style="fill: none; stroke-dasharray: 5.55,2.4; stroke-dashoffset: 0; stroke: #c71585; stroke-width: 1.5"/>
   </g>
   <g id="line2d_14">
    <path d="M 60.013977 134.208 
L 124.684903 134.208 
L 125.009882 13.248 
L 157.182855 13.248 
L 157.507835 134.208 
L 189.680808 134.208 
L 190.005787 13.248 
L 222.17876 13.248 
L 222.50374 134.208 
L 254.676713 134.208 
L 255.001692 13.248 
L 287.174665 13.248 
L 287.499645 134.208 
L 384.668523 134.208 
L 384.668523 134.208 
" clip-path="url(#p6b5c9eed5f)" style="fill: none; stroke-dasharray: 9.6,2.4,1.5,2.4; stroke-dashoffset: 0; stroke: #4682b4; stroke-width: 1.5"/>
   </g>
   <g id="line2d_15">
    <path d="M 60.013977 134.208 
L 125.009882 134.183808 
L 157.507835 13.248 
L 190.005787 134.183808 
L 222.50374 13.248 
L 255.001692 134.183808 
L 287.499645 13.248 
L 319.997597 134.208 
L 384.668523 134.208 
L 384.668523 134.208 
" clip-path="url(#p6b5c9eed5f)" style="fill: none; stroke-dasharray: 2.5,4.125; stroke-dashoffset: 0; stroke: #6b8e23; stroke-width: 2.5"/>
   </g>
   <g id="patch_3">
    <path d="M 43.78125 140.256 
L 43.78125 7.2 
" style="fill: none; stroke: #000000; stroke-width: 0.8; stroke-linejoin: miter; stroke-linecap: square"/>
   </g>
   <g id="patch_4">
    <path d="M 400.90125 140.256 
L 400.90125 7.2 
" style="fill: none; stroke: #000000; stroke-width: 0.8; stroke-linejoin: miter; stroke-linecap: square"/>
   </g>
   <g id="patch_5">
    <path d="M 43.78125 140.256 
L 400.90125 140.256 
" style="fill: none; stroke: #000000; stroke-width: 0.8; stroke-linejoin: miter; stroke-linecap: square"/>
   </g>
   <g id="patch_6">
    <path d="M 43.78125 7.2 
L 400.90125 7.2 
" style="fill: none; stroke: #000000; stroke-width: 0.8; stroke-linejoin: miter; stroke-linecap: square"/>
   </g>
   <g id="legend_1">
    <g id="patch_7">
     <path d="M 329.737188 73.9125 
L 393.90125 73.9125 
Q 395.90125 73.9125 395.90125 71.9125 
L 395.90125 14.2 
Q 395.90125 12.2 393.90125 12.2 
L 329.737188 12.2 
Q 327.737188 12.2 327.737188 14.2 
L 327.737188 71.9125 
Q 327.737188 73.9125 329.737188 73.9125 
z
" style="fill: #ffffff; opacity: 0.8; stroke: #cccccc; stroke-linejoin: miter"/>
    </g>
    <g id="line2d_16">
     <path d="M 331.737188 20.298437 
L 341.737188 20.298437 
L 351.737188 20.298437 
" style="fill: none; stroke: #ff4500; stroke-width: 1.5; stroke-linecap: square"/>
    </g>
    <g id="text_7">
     <text style="font: 10px 'DejaVu Sans', 'Bitstream Vera Sans', 'Computer Modern Sans Serif', 'Lucida Grande', 'Verdana', 'Geneva', 'Lucid', 'Arial', 'Helvetica', 'Avant Garde', sans-serif; text-anchor: start" x="359.737188" y="23.798437" transform="rotate(-0 359.737188 23.798437)">PLML2</text>
    </g>
    <g id="line2d_17">
     <path d="M 331.737188 34.976562 
L 341.737188 34.976562 
L 351.737188 34.976562 
" style="fill: none; stroke-dasharray: 5.55,2.4; stroke-dashoffset: 0; stroke: #c71585; stroke-width: 1.5"/>
    </g>
    <g id="text_8">
     <text style="font: 10px 'DejaVu Sans', 'Bitstream Vera Sans', 'Computer Modern Sans Serif', 'Lucida Grande', 'Verdana', 'Geneva', 'Lucid', 'Arial', 'Helvetica', 'Avant Garde', sans-serif; text-anchor: start" x="359.737188" y="38.476562" transform="rotate(-0 359.737188 38.476562)">PLMR</text>
    </g>
    <g id="line2d_18">
     <path d="M 331.737188 49.654687 
L 341.737188 49.654687 
L 351.737188 49.654687 
" style="fill: none; stroke-dasharray: 9.6,2.4,1.5,2.4; stroke-dashoffset: 0; stroke: #4682b4; stroke-width: 1.5"/>
    </g>
    <g id="text_9">
     <text style="font: 10px 'DejaVu Sans', 'Bitstream Vera Sans', 'Computer Modern Sans Serif', 'Lucida Grande', 'Verdana', 'Geneva', 'Lucid', 'Arial', 'Helvetica', 'Avant Garde', sans-serif; text-anchor: start" x="359.737188" y="53.154687" transform="rotate(-0 359.737188 53.154687)">AVBL</text>
    </g>
    <g id="line2d_19">
     <path d="M 331.737188 64.332812 
L 341.737188 64.332812 
L 351.737188 64.332812 
" style="fill: none; stroke-dasharray: 2.5,4.125; stroke-dashoffset: 0; stroke: #6b8e23; stroke-width: 2.5"/>
    </g>
    <g id="text_10">
     <text style="font: 10px 'DejaVu Sans', 'Bitstream Vera Sans', 'Computer Modern Sans Serif', 'Lucida Grande', 'Verdana', 'Geneva', 'Lucid', 'Arial', 'Helvetica', 'Avant Garde', sans-serif; text-anchor: start" x="359.737188" y="67.832812" transform="rotate(-0 359.737188 67.832812)">AVBR</text>
    </g>
   </g>
  </g>
  <g id="axes_2">
   <g id="patch_8">
    <path d="M 43.78125 273.312 
L 400.90125 273.312 
L 400.90125 140.256 
L 43.78125 140.256 
z
" style="fill: #ffffff"/>
   </g>
   <g id="matplotlib.axis_3">
    <g id="xtick_7">
     <g id="line2d_20">
      <g>
       <use xlink:href="#mfd7631dfde" x="60.013977" y="273.312" style="stroke: #000000; stroke-width: 0.8"/>
      </g>
     </g>
     <g id="text_11">
      <text style="font: 10px 'DejaVu Sans', 'Bitstream Vera Sans', 'Computer Modern Sans Serif', 'Lucida Grande', 'Verdana', 'Geneva', 'Lucid', 'Arial', 'Helvetica', 'Avant Garde', sans-serif; text-anchor: middle" x="60.013977" y="287.910437" transform="rotate(-0 60.013977 287.910437)">0</text>
     </g>
    </g>
    <g id="xtick_8">
     <g id="line2d_21">
      <g>
       <use xlink:href="#mfd7631dfde" x="125.009882" y="273.312" style="stroke: #000000; stroke-width: 0.8"/>
      </g>
     </g>
     <g id="text_12">
      <text style="font: 10px 'DejaVu Sans', 'Bitstream Vera Sans', 'Computer Modern Sans Serif', 'Lucida Grande', 'Verdana', 'Geneva', 'Lucid', 'Arial', 'Helvetica', 'Avant Garde', sans-serif; text-anchor: middle" x="125.009882" y="287.910437" transform="rotate(-0 125.009882 287.910437)">100</text>
     </g>
    </g>
    <g id="xtick_9">
     <g id="line2d_22">
      <g>
       <use xlink:href="#mfd7631dfde" x="190.005787" y="273.312" style="stroke: #000000; stroke-width: 0.8"/>
      </g>
     </g>
     <g id="text_13">
      <text style="font: 10px 'DejaVu Sans', 'Bitstream Vera Sans', 'Computer Modern Sans Serif', 'Lucida Grande', 'Verdana', 'Geneva', 'Lucid', 'Arial', 'Helvetica', 'Avant Garde', sans-serif; text-anchor: middle" x="190.005787" y="287.910437" transform="rotate(-0 190.005787 287.910437)">200</text>
     </g>
    </g>
    <g id="xtick_10">
     <g id="line2d_23">
      <g>
       <use xlink:href="#mfd7631dfde" x="255.001692" y="273.312" style="stroke: #000000; stroke-width: 0.8"/>
      </g>
     </g>
     <g id="text_14">
      <text style="font: 10px 'DejaVu Sans', 'Bitstream Vera Sans', 'Computer Modern Sans Serif', 'Lucida Grande', 'Verdana', 'Geneva', 'Lucid', 'Arial', 'Helvetica', 'Avant Garde', sans-serif; text-anchor: middle" x="255.001692" y="287.910437" transform="rotate(-0 255.001692 287.910437)">300</text>
     </g>
    </g>
    <g id="xtick_11">
     <g id="line2d_24">
      <g>
       <use xlink:href="#mfd7631dfde" x="319.997597" y="273.312" style="stroke: #000000; stroke-width: 0.8"/>
      </g>
     </g>
     <g id="text_15">
      <text style="font: 10px 'DejaVu Sans', 'Bitstream Vera Sans', 'Computer Modern Sans Serif', 'Lucida Grande', 'Verdana', 'Geneva', 'Lucid', 'Arial', 'Helvetica', 'Avant Garde', sans-serif; text-anchor: middle" x="319.997597" y="287.910437" transform="rotate(-0 319.997597 287.910437)">400</text>
     </g>
    </g>
    <g id="xtick_12">
     <g id="line2d_25">
      <g>
       <use xlink:href="#mfd7631dfde" x="384.993502" y="273.312" style="stroke: #000000; stroke-width: 0.8"/>
      </g>
     </g>
     <g id="text_16">
      <text style="font: 10px 'DejaVu Sans', 'Bitstream Vera Sans', 'Computer Modern Sans Serif', 'Lucida Grande', 'Verdana', 'Geneva', 'Lucid', 'Arial', 'Helvetica', 'Avant Garde', sans-serif; text-anchor: middle" x="384.993502" y="287.910437" transform="rotate(-0 384.993502 287.910437)">500</text>
     </g>
    </g>
    <g id="text_17">
     <text style="font: 10px 'DejaVu Sans', 'Bitstream Vera Sans', 'Computer Modern Sans Serif', 'Lucida Grande', 'Verdana', 'Geneva', 'Lucid', 'Arial', 'Helvetica', 'Avant Garde', sans-serif; text-anchor: middle" x="222.34125" y="301.588562" transform="rotate(-0 222.34125 301.588562)">Time (ms)</text>
    </g>
   </g>
   <g id="matplotlib.axis_4">
    <g id="ytick_6">
     <g id="line2d_26">
      <g>
       <use xlink:href="#m9598f0bed0" x="43.78125" y="246.590165" style="stroke: #000000; stroke-width: 0.8"/>
      </g>
     </g>
     <g id="text_18">
      <text style="font: 10px 'DejaVu Sans', 'Bitstream Vera Sans', 'Computer Modern Sans Serif', 'Lucida Grande', 'Verdana', 'Geneva', 'Lucid', 'Arial', 'Helvetica', 'Avant Garde', sans-serif; text-anchor: end" x="36.78125" y="250.389384" transform="rotate(-0 36.78125 250.389384)">0.0</text>
     </g>
    </g>
    <g id="ytick_7">
     <g id="line2d_27">
      <g>
       <use xlink:href="#m9598f0bed0" x="43.78125" y="203.377041" style="stroke: #000000; stroke-width: 0.8"/>
      </g>
     </g>
     <g id="text_19">
      <text style="font: 10px 'DejaVu Sans', 'Bitstream Vera Sans', 'Computer Modern Sans Serif', 'Lucida Grande', 'Verdana', 'Geneva', 'Lucid', 'Arial', 'Helvetica', 'Avant Garde', sans-serif; text-anchor: end" x="36.78125" y="207.17626" transform="rotate(-0 36.78125 207.17626)">0.5</text>
     </g>
    </g>
    <g id="ytick_8">
     <g id="line2d_28">
      <g>
       <use xlink:href="#m9598f0bed0" x="43.78125" y="160.163918" style="stroke: #000000; stroke-width: 0.8"/>
      </g>
     </g>
     <g id="text_20">
      <text style="font: 10px 'DejaVu Sans', 'Bitstream Vera Sans', 'Computer Modern Sans Serif', 'Lucida Grande', 'Verdana', 'Geneva', 'Lucid', 'Arial', 'Helvetica', 'Avant Garde', sans-serif; text-anchor: end" x="36.78125" y="163.963137" transform="rotate(-0 36.78125 163.963137)">1.0</text>
     </g>
    </g>
    <g id="text_21">
     <text style="font: 10px 'DejaVu Sans', 'Bitstream Vera Sans', 'Computer Modern Sans Serif', 'Lucida Grande', 'Verdana', 'Geneva', 'Lucid', 'Arial', 'Helvetica', 'Avant Garde', sans-serif; text-anchor: middle" x="14.798438" y="206.784" transform="rotate(-90 14.798438 206.784)">Voltage (V)</text>
    </g>
   </g>
   <g id="line2d_29">
    <path d="M 60.013977 252.207871 
L 125.009882 252.207871 
L 126.3098 247.136636 
L 129.234616 238.482997 
L 133.784329 225.181658 
L 136.384166 218.247913 
L 138.659022 212.705173 
L 140.28392 209.42388 
L 142.233797 205.936088 
L 144.508654 202.349312 
L 146.78351 199.191271 
L 148.408408 197.166313 
L 150.033306 195.577617 
L 151.333224 194.233179 
L 152.308162 193.375269 
L 155.232978 190.533928 
L 157.507835 188.696463 
L 164.332405 185.739735 
L 167.257221 184.853866 
L 170.507016 184.128248 
L 173.756811 183.634685 
L 177.981545 183.249622 
L 182.206279 183.102533 
L 187.080972 183.159877 
L 190.330767 183.206979 
L 191.305705 182.931331 
L 196.505378 182.393077 
L 199.430193 182.167937 
L 200.080153 182.29679 
L 201.055091 182.185594 
L 204.954845 181.500864 
L 211.779415 180.572102 
L 212.754354 180.752517 
L 213.729293 180.612074 
L 216.654108 180.011325 
L 217.629047 180.177609 
L 218.603985 180.010444 
L 221.853781 179.311826 
L 222.828719 179.241959 
L 223.803658 179.41234 
L 233.878023 179.755849 
L 241.027573 180.329166 
L 249.47704 181.236556 
L 255.001692 181.92507 
L 255.976631 185.202094 
L 257.601528 189.326078 
L 262.801201 201.877373 
L 265.726017 207.925447 
L 268.325853 212.786535 
L 270.600709 216.578728 
L 272.875566 219.951642 
L 275.150423 222.923832 
L 277.425279 225.515885 
L 279.700136 227.771688 
L 281.974993 229.719364 
L 284.24985 231.389966 
L 286.849686 233.000433 
L 287.824624 233.625044 
L 288.799563 234.448263 
L 291.07442 235.855386 
L 294.324215 237.605638 
L 297.89899 239.280339 
L 301.798744 240.862749 
L 306.348457 242.453977 
L 311.54813 244.018313 
L 317.722741 245.624088 
L 323.572372 246.930002 
L 329.422003 247.989484 
L 335.921594 248.931731 
L 343.071144 249.734611 
L 351.195632 250.415197 
L 360.620038 250.97574 
L 371.994321 251.424848 
L 384.668523 251.735246 
L 384.668523 251.735246 
" clip-path="url(#p189e385cf9)" style="fill: none; stroke: #4682b4; stroke-linecap: square"/>
   </g>
   <g id="line2d_30">
    <path d="M 60.013977 249.54433 
L 60.338957 248.430875 
L 60.663936 247.76839 
L 61.313895 247.142853 
L 61.963854 246.924618 
L 63.263773 246.823014 
L 70.413322 246.809471 
L 124.684903 246.809471 
L 126.3098 225.105367 
L 127.284739 215.340218 
L 128.259678 207.472245 
L 129.234616 201.314795 
L 130.209555 196.58956 
L 131.184493 192.985383 
L 132.159432 190.291814 
L 133.13437 188.380143 
L 134.109309 187.143582 
L 135.084248 186.321306 
L 136.059186 185.77606 
L 137.359104 185.339075 
L 137.684084 185.267554 
L 138.009063 154.869014 
L 138.334043 152.102985 
L 138.659022 152.720622 
L 139.308981 156.765863 
L 140.608899 165.945722 
L 141.583838 170.938644 
L 142.233797 173.246726 
L 142.883756 174.87914 
L 143.533715 175.960544 
L 144.183674 176.613923 
L 144.833633 176.937965 
L 145.483592 177.015598 
L 146.458531 176.823122 
L 147.433469 176.394174 
L 148.733388 175.575018 
L 150.358285 174.283535 
L 152.308162 172.439297 
L 155.232978 169.315096 
L 157.182855 167.18686 
L 157.507835 146.304 
L 157.832814 151.375976 
L 158.807753 170.72664 
L 159.457712 179.798069 
L 160.107671 185.659185 
L 160.75763 189.306213 
L 161.407589 191.563187 
L 162.057548 192.972471 
L 162.707507 193.880638 
L 163.682446 194.7407 
L 164.982364 195.483625 
L 166.932241 196.294281 
L 181.881299 201.796063 
L 190.005787 204.667633 
L 190.330767 205.366833 
L 190.655746 205.473051 
L 190.980726 205.103005 
L 191.630685 203.667529 
L 194.230521 196.490137 
L 195.20546 194.506537 
L 196.180398 192.931695 
L 197.480316 191.260019 
L 199.105214 189.565664 
L 201.70505 187.241551 
L 208.204641 181.383588 
L 216.004149 173.901296 
L 219.253945 170.443266 
L 222.17876 167.203733 
L 222.50374 146.317543 
L 222.828719 151.386952 
L 223.803658 170.731857 
L 224.453617 179.801111 
L 225.103576 185.660945 
L 225.753535 189.307234 
L 226.403494 191.563766 
L 227.053453 192.972799 
L 227.703412 193.880817 
L 228.678351 194.740769 
L 229.978269 195.48365 
L 231.928146 196.294281 
L 246.877204 201.796063 
L 254.676713 204.499295 
L 255.326672 229.815957 
L 255.651651 235.683294 
L 255.976631 239.033007 
L 256.30161 240.908975 
L 256.62659 241.89199 
L 256.951569 242.334836 
L 257.276549 242.451243 
L 257.926508 242.181391 
L 259.226426 241.026975 
L 261.826262 238.710953 
L 268.325853 233.419741 
L 281.000054 223.79471 
L 287.174665 219.504022 
L 287.499645 206.768758 
L 288.474583 222.648646 
L 289.124542 228.262485 
L 289.774501 231.080802 
L 290.42446 232.485281 
L 291.07442 233.218687 
L 292.049358 233.814329 
L 293.999235 234.564482 
L 299.848867 236.722017 
L 304.39858 238.643186 
L 310.248212 241.37634 
L 315.772863 244.192736 
L 320.647556 246.692427 
L 321.947474 246.793979 
L 328.447065 246.809471 
L 384.668523 246.809471 
L 384.668523 246.809471 
" clip-path="url(#p189e385cf9)" style="fill: none; stroke-dasharray: 3.7,1.6; stroke-dashoffset: 0; stroke: #4682b4"/>
   </g>
   <g id="line2d_31">
    <path d="M 60.013977 251.054698 
L 60.663936 250.603679 
L 61.638875 250.391452 
L 63.913732 250.337041 
L 139.308981 250.335934 
L 146.133551 250.335934 
L 146.458531 226.489567 
L 146.78351 237.338833 
L 147.433469 197.911294 
L 147.758449 185.271782 
L 148.083429 216.638158 
L 148.733388 187.725075 
L 149.058367 178.409199 
L 149.383347 212.292451 
L 150.033306 186.318907 
L 150.358285 177.65519 
L 150.683265 211.369898 
L 151.333224 186.57932 
L 151.658203 178.081867 
L 151.983183 211.263094 
L 152.633142 187.190069 
L 152.958121 178.774252 
L 153.283101 211.38791 
L 154.25804 179.472823 
L 154.583019 211.567854 
L 155.557958 180.260903 
L 155.882937 211.785097 
L 156.857876 181.05233 
L 157.182855 212.014153 
L 158.157794 181.851034 
L 158.482773 212.250603 
L 159.457712 182.630256 
L 159.782691 212.483303 
L 160.75763 183.431444 
L 161.08261 212.72085 
L 162.057548 184.235018 
L 162.382528 212.963139 
L 163.357466 185.025824 
L 163.682446 213.20099 
L 164.007425 225.49343 
L 164.332405 227.150272 
L 164.657384 227.053555 
L 164.982364 230.485554 
L 165.307343 236.282968 
L 165.957302 230.126729 
L 166.282282 231.984487 
L 166.607261 237.856727 
L 167.257221 231.254124 
L 167.5822 232.366246 
L 167.90718 238.060611 
L 168.557139 232.092832 
L 168.882118 232.554949 
L 169.207098 238.839437 
L 169.857057 232.168956 
L 170.182036 232.572231 
L 170.507016 239.525223 
L 171.156975 233.01138 
L 171.481954 232.733832 
L 171.806934 239.625772 
L 172.456893 233.799719 
L 172.781872 232.871987 
L 173.106852 240.380786 
L 173.756811 233.86522 
L 174.081791 232.879175 
L 174.40677 241.064751 
L 175.056729 234.703979 
L 175.381709 233.041131 
L 175.706688 241.171725 
L 176.681627 233.191356 
L 177.006606 241.935678 
L 177.331586 238.454066 
L 177.981545 233.327303 
L 178.306524 242.693318 
L 179.281463 233.382291 
L 179.606442 242.729869 
L 180.581381 233.536893 
L 180.906361 243.502982 
L 181.23134 240.138198 
L 181.55632 237.944208 
L 181.881299 233.672309 
L 182.206279 244.256704 
L 183.181217 233.732463 
L 183.506197 244.975464 
L 184.156156 239.015315 
L 184.481135 233.914236 
L 184.806115 245.085462 
L 185.456074 239.680558 
L 185.781053 234.035573 
L 186.106033 245.831732 
L 186.755992 239.894049 
L 187.080972 234.100255 
L 187.405951 246.551884 
L 188.05591 240.765606 
L 188.38089 234.279544 
L 188.705869 246.663801 
L 189.355828 241.56451 
L 189.680808 234.4633 
L 190.005787 258.089587 
L 190.330767 263.322645 
L 190.655746 265.132226 
L 190.980726 250.922817 
L 191.305705 265.515455 
L 191.630685 267.017247 
L 191.955664 267.020336 
L 192.280644 252.582256 
L 192.605623 266.256453 
L 192.930603 267.070954 
L 193.255583 266.853137 
L 193.580562 252.776851 
L 193.905542 265.864877 
L 194.230521 267.057493 
L 194.555501 266.45796 
L 194.88048 252.763435 
L 195.20546 265.375684 
L 195.530439 266.545054 
L 195.855419 266.377688 
L 196.180398 252.757825 
L 196.505378 265.370356 
L 196.830357 266.114864 
L 197.155337 265.892266 
L 197.480316 252.689128 
L 197.805296 264.861247 
L 198.130275 266.021144 
L 198.455255 265.44601 
L 198.780234 252.631981 
L 199.105214 264.358746 
L 199.430193 265.494945 
L 199.755173 265.354945 
L 200.080153 252.619409 
L 200.405132 263.878506 
L 200.730112 264.974684 
L 201.055091 264.849285 
L 201.380071 252.547269 
L 201.70505 263.841641 
L 202.03003 264.970654 
L 202.355009 264.433473 
L 202.679989 252.495923 
L 203.004968 263.347287 
L 203.329948 264.445714 
L 203.654927 264.340411 
L 203.979907 252.482802 
L 204.304886 262.87101 
L 204.629866 263.927054 
L 204.954845 263.818529 
L 205.279825 252.410343 
L 205.604804 262.834973 
L 205.929784 263.496881 
L 206.254764 263.339668 
L 206.579743 252.344531 
L 206.904723 262.334963 
L 207.229702 263.399858 
L 207.554682 263.316168 
L 207.879661 252.348818 
L 208.204641 261.872751 
L 208.52962 262.884073 
L 208.8546 262.807972 
L 209.179579 252.27491 
L 209.504559 261.834661 
L 209.829538 262.458358 
L 210.154518 262.324815 
L 210.479497 252.207557 
L 210.804477 261.338992 
L 211.129456 262.359709 
L 211.454436 261.892809 
L 211.779415 252.152136 
L 212.104395 260.85229 
L 212.429374 261.839574 
L 212.754354 261.799128 
L 213.079334 252.140714 
L 213.404313 260.845846 
L 213.729293 261.426846 
L 214.054272 261.324151 
L 214.379252 252.071536 
L 214.704231 260.310352 
L 215.029211 261.191066 
L 215.35419 261.040346 
L 215.67917 252.035327 
L 216.004149 259.97205 
L 216.329129 260.833406 
L 216.654108 260.678438 
L 216.979088 251.985811 
L 217.304067 259.635467 
L 217.629047 260.47515 
L 217.954026 260.370264 
L 218.279006 251.942947 
L 218.603985 259.299709 
L 218.928965 260.119096 
L 219.253945 260.036214 
L 219.578924 251.893917 
L 219.903904 258.960373 
L 220.228883 259.763614 
L 220.553863 259.690872 
L 220.878842 251.844263 
L 221.203822 258.62797 
L 221.528801 259.409259 
L 221.853781 259.346817 
L 222.17876 251.794323 
L 222.50374 258.296609 
L 222.828719 259.059359 
L 223.153699 259.004024 
L 223.478678 251.744106 
L 223.803658 258.009711 
L 224.128637 258.71584 
L 224.453617 258.665555 
L 224.778596 251.693188 
L 225.103576 257.681421 
L 225.428555 258.365959 
L 225.753535 258.325034 
L 226.078515 251.641131 
L 226.403494 257.354609 
L 226.728474 258.017551 
L 227.053453 257.985891 
L 227.378433 251.588498 
L 227.703412 257.030276 
L 228.028392 257.709901 
L 228.353371 257.656282 
L 228.678351 251.537043 
L 229.00333 256.709074 
L 229.32831 257.364574 
L 229.653289 257.319624 
L 229.978269 251.482448 
L 230.303248 256.386901 
L 230.628228 257.020751 
L 230.953207 256.984508 
L 231.278187 251.426799 
L 231.603166 256.077111 
L 231.928146 256.676933 
L 232.253126 256.672265 
L 232.578105 251.373952 
L 232.903085 255.765419 
L 233.553044 232.053975 
L 233.878023 237.053785 
L 234.203003 233.455987 
L 234.527982 228.032934 
L 234.852962 224.544978 
L 235.177941 232.318759 
L 235.502921 231.404837 
L 236.15288 223.96478 
L 236.477859 231.524304 
L 236.802839 231.404441 
L 237.452798 224.275451 
L 237.777777 231.396745 
L 238.102757 231.803791 
L 238.752716 224.772002 
L 239.077696 231.425398 
L 239.402675 232.282361 
L 240.052634 225.299506 
L 240.377614 231.490979 
L 240.702593 232.780856 
L 241.352552 225.848616 
L 241.677532 231.567027 
L 242.002511 233.287013 
L 242.65247 226.408826 
L 242.97745 231.650119 
L 243.302429 233.798393 
L 243.952388 226.974156 
L 244.277368 231.735205 
L 244.602347 234.311436 
L 245.252307 227.487358 
L 245.902266 234.822265 
L 246.552225 228.056974 
L 247.202184 235.342443 
L 247.852143 228.631862 
L 248.502102 235.865286 
L 249.152061 229.207835 
L 249.47704 232.081666 
L 249.80202 236.32383 
L 250.451979 229.785032 
L 250.776958 232.173756 
L 251.101938 236.849859 
L 251.751897 230.360679 
L 252.076877 232.271856 
L 252.401856 237.313591 
L 252.726836 233.461097 
L 253.051815 231.135572 
L 253.376795 232.399152 
L 253.701774 238.061146 
L 254.351733 231.332661 
L 254.676713 232.435413 
L 255.001692 238.760398 
L 255.651651 232.169385 
L 255.976631 232.586931 
L 256.30161 238.857642 
L 256.62659 235.118873 
L 256.951569 232.813168 
L 257.276549 232.687664 
L 257.601528 239.59229 
L 258.251488 233.018363 
L 258.576467 232.731731 
L 258.901447 240.291556 
L 259.551406 233.858689 
L 259.876385 232.885855 
L 260.201365 240.391576 
L 260.526344 236.782627 
L 261.176303 232.989369 
L 261.501283 241.135282 
L 262.151242 234.711848 
L 262.476221 233.039137 
L 262.801201 241.843565 
L 263.45116 235.559831 
L 263.776139 233.206974 
L 264.101119 241.947495 
L 265.076058 233.367192 
L 265.401037 242.716395 
L 266.375976 233.380819 
L 266.700955 243.410022 
L 267.675894 233.555577 
L 268.000873 243.516299 
L 268.650832 238.089848 
L 268.975812 233.714307 
L 269.300791 244.284842 
L 270.27573 233.851969 
L 270.600709 245.043037 
L 271.250669 239.025871 
L 271.575648 233.914501 
L 271.900628 245.087431 
L 272.550587 239.821658 
L 272.875566 234.077245 
L 273.200546 245.859475 
L 273.850505 240.543538 
L 274.175484 234.211834 
L 274.500464 246.61918 
L 275.150423 240.777327 
L 275.475402 234.281122 
L 275.800382 247.340474 
L 276.125361 244.318357 
L 276.450341 252.771625 
L 276.77532 243.856243 
L 277.1003 262.629133 
L 277.425279 265.657177 
L 277.750259 265.981424 
L 278.075239 251.76227 
L 278.400218 265.890074 
L 278.725198 267.264 
L 279.050177 267.182076 
L 279.375157 252.71639 
L 279.700136 265.837159 
L 280.025116 267.02408 
L 280.350095 266.855267 
L 280.675075 252.795546 
L 281.000054 265.872049 
L 281.325034 266.630443 
L 281.650013 266.395855 
L 281.974993 252.753587 
L 282.299972 265.3697 
L 282.624952 266.545631 
L 282.949931 266.379632 
L 283.274911 252.760681 
L 283.59989 264.896572 
L 283.92487 266.027 
L 284.24985 265.867479 
L 284.574829 252.686057 
L 284.899809 264.858987 
L 285.224788 265.589089 
L 285.549768 265.378439 
L 285.874747 252.618499 
L 286.199727 264.351181 
L 286.524706 265.494752 
L 286.849686 264.936326 
L 287.174665 252.562493 
L 287.499645 263.850577 
L 287.824624 264.969583 
L 288.149604 264.850606 
L 288.474583 252.551155 
L 288.799563 263.843164 
L 289.124542 264.542393 
L 289.449522 264.364562 
L 289.774501 252.481927 
L 290.099481 263.337724 
L 290.42446 264.445815 
L 290.74944 263.922934 
L 291.07442 252.426046 
L 291.399399 262.843941 
L 291.724379 263.922062 
L 292.049358 263.820195 
L 292.374338 252.414403 
L 292.699317 262.370738 
L 293.024297 263.404116 
L 293.349276 263.31189 
L 293.674256 252.341558 
L 293.999235 262.333032 
L 294.324215 263.401021 
L 294.649194 262.909119 
L 294.974174 252.292061 
L 295.299153 261.844057 
L 295.624133 262.878981 
L 295.949112 262.80976 
L 296.274092 252.278986 
L 296.599071 261.375802 
L 296.924051 262.363938 
L 297.249031 262.297792 
L 297.57401 252.205004 
L 297.89899 261.337445 
L 298.223969 261.941122 
L 298.548949 261.821115 
L 298.873928 252.138643 
L 299.198908 260.845132 
L 299.523887 261.840634 
L 299.848867 261.802053 
L 300.173846 252.144006 
L 300.498826 260.393147 
L 300.823805 261.33015 
L 301.148785 261.255769 
L 301.473764 252.062454 
L 301.798744 260.215284 
L 302.123723 261.047899 
L 302.448703 260.921341 
L 302.773682 252.019554 
L 303.098662 259.87391 
L 303.423641 260.689784 
L 303.748621 260.571457 
L 304.073601 251.970517 
L 304.39858 259.538085 
L 304.72356 260.373275 
L 305.048539 260.244361 
L 305.373519 251.923737 
L 305.698498 259.197376 
L 306.023478 260.01702 
L 306.348457 259.898262 
L 306.673437 251.874213 
L 306.998416 258.861757 
L 307.323396 259.661866 
L 307.648375 259.553508 
L 307.973355 251.824626 
L 308.298334 258.529991 
L 308.623314 259.31082 
L 308.948293 259.210292 
L 309.273273 251.77477 
L 309.598252 258.199204 
L 309.923232 258.955902 
L 310.248212 258.906628 
L 310.573191 251.730087 
L 310.898171 257.872769 
L 311.22315 258.605716 
L 311.54813 258.565153 
L 311.873109 251.678046 
L 312.198089 257.544721 
L 312.523068 258.25609 
L 312.848048 258.224942 
L 313.173027 251.625838 
L 313.498007 257.219144 
L 313.822986 257.90819 
L 314.147966 257.886133 
L 314.472945 251.572968 
L 314.797925 256.937849 
L 315.122904 257.572546 
L 315.447884 257.552082 
L 315.772863 251.519883 
L 316.097843 256.614508 
L 316.422822 257.227857 
L 316.747802 257.215779 
L 317.072782 251.464784 
L 317.397761 256.294778 
L 317.722741 256.884759 
L 318.04772 256.888018 
L 318.3727 251.410293 
L 318.697679 255.972269 
L 319.022659 256.564989 
L 319.347638 256.562803 
L 319.672618 251.354094 
L 320.322577 231.896817 
L 320.647556 227.62167 
L 320.972536 237.564629 
L 321.622495 228.219846 
L 321.947474 225.89614 
L 322.272454 236.588194 
L 322.922413 228.277743 
L 323.247393 226.079783 
L 323.572372 236.549531 
L 324.222331 228.657701 
L 324.547311 226.490402 
L 324.87229 236.624972 
L 325.522249 229.079688 
L 325.847229 226.933718 
L 326.172208 236.712244 
L 326.822167 229.506756 
L 327.147147 227.379236 
L 327.472126 236.804246 
L 328.122085 229.925314 
L 328.447065 227.830118 
L 328.772044 236.894512 
L 329.746983 228.281459 
L 330.071963 236.987572 
L 331.046901 228.731335 
L 331.371881 237.078405 
L 332.346819 229.165158 
L 332.671799 237.16689 
L 332.996778 234.89918 
L 333.321758 231.63587 
L 333.646737 229.620785 
L 333.971717 237.25918 
L 334.296696 235.291913 
L 334.621676 232.079411 
L 334.946655 230.09879 
L 335.271635 237.353011 
L 335.596614 235.687853 
L 335.921594 232.523117 
L 336.246574 230.515123 
L 336.571553 237.436451 
L 336.896533 236.078576 
L 337.221512 232.967118 
L 337.546492 230.977041 
L 337.871471 237.52943 
L 338.196451 236.47722 
L 338.84641 231.392616 
L 339.171389 237.61321 
L 339.496369 236.68253 
L 340.146328 232.024767 
L 340.471307 237.743761 
L 340.796287 237.259548 
L 341.121266 234.168897 
L 341.446246 232.562862 
L 341.771225 237.845918 
L 342.096205 237.810984 
L 342.746164 232.761771 
L 343.071144 237.887828 
L 343.396123 237.849645 
L 344.046082 233.363342 
L 344.371062 238.011603 
L 344.696041 238.420087 
L 345.021021 235.461317 
L 345.346 233.906127 
L 345.67098 238.116195 
L 345.995959 238.967876 
L 346.645918 234.106121 
L 346.970898 238.159615 
L 347.295877 239.005384 
L 347.945836 234.711802 
L 348.270816 238.285551 
L 348.595795 239.575478 
L 348.920775 236.763945 
L 349.245755 235.258943 
L 349.570734 238.39192 
L 349.895714 240.140594 
L 350.545673 235.450905 
L 351.195632 240.667508 
L 351.845591 236.121015 
L 352.49555 240.767324 
L 352.820529 238.077943 
L 353.145509 236.617135 
L 353.795468 241.320366 
L 354.445427 236.810829 
L 354.770406 238.718065 
L 355.095386 241.85294 
L 355.745345 237.477863 
L 356.070325 238.861068 
L 356.395304 241.952221 
L 357.045263 238.099954 
L 357.370243 238.991011 
L 357.695222 242.533812 
L 358.345181 238.174039 
L 358.670161 239.004766 
L 358.99514 243.044138 
L 359.645099 238.836528 
L 359.970079 239.151028 
L 360.295058 243.137845 
L 360.945017 239.456458 
L 361.269997 239.283396 
L 361.594976 243.722058 
L 361.919956 241.36021 
L 362.244936 240.011669 
L 362.569915 239.398045 
L 363.544854 252.468843 
L 363.869833 249.015643 
L 364.194813 255.422252 
L 364.519792 256.427331 
L 364.844772 256.829613 
L 365.169751 251.674316 
L 365.494731 256.474813 
L 365.81971 257.144028 
L 366.14469 256.973401 
L 366.469669 251.899054 
L 366.794649 256.294106 
L 367.119628 256.892613 
L 367.444608 256.978712 
L 367.769587 251.925337 
L 368.094567 256.011051 
L 368.419546 256.570415 
L 368.744526 256.655551 
L 369.069506 251.872679 
L 369.394485 255.997494 
L 369.719465 256.576062 
L 370.044444 256.386999 
L 370.369424 251.828135 
L 370.694403 255.688796 
L 371.019383 256.237544 
L 371.344362 256.340428 
L 371.669342 251.822686 
L 371.994321 255.397498 
L 372.319301 255.908081 
L 372.64428 256.002867 
L 372.96926 251.762941 
L 373.294239 255.379906 
L 373.619219 255.630833 
L 373.944198 255.689668 
L 374.269178 251.703085 
L 374.594157 255.071921 
L 374.919137 255.580719 
L 375.244117 255.684707 
L 375.569096 251.708806 
L 375.894076 254.800104 
L 376.219055 255.253654 
L 376.544035 255.355483 
L 376.869014 251.644462 
L 377.193994 254.780089 
L 377.518973 254.979801 
L 377.843953 255.043087 
L 378.168932 251.583045 
L 378.493912 254.473592 
L 378.818891 254.927193 
L 379.143871 254.765059 
L 379.46885 251.531829 
L 379.79383 254.177838 
L 380.118809 254.603339 
L 380.443789 254.709019 
L 380.768768 251.521235 
L 381.093748 254.176427 
L 381.743707 254.401614 
L 382.068687 251.457195 
L 382.393666 253.871137 
L 382.718646 254.28521 
L 383.043625 254.130176 
L 383.368605 251.404331 
L 383.693584 253.587733 
L 384.018564 253.966203 
L 384.343543 254.069518 
L 384.668523 251.390035 
L 384.668523 251.390035 
" clip-path="url(#p189e385cf9)" style="fill: none; stroke-dasharray: 0.64,0.16,0.1,0.16; stroke-dashoffset: 0; stroke: #4682b4; stroke-width: 0.1"/>
   </g>
   <g id="patch_9">
    <path d="M 43.78125 273.312 
L 43.78125 140.256 
" style="fill: none; stroke: #000000; stroke-width: 0.8; stroke-linejoin: miter; stroke-linecap: square"/>
   </g>
   <g id="patch_10">
    <path d="M 400.90125 273.312 
L 400.90125 140.256 
" style="fill: none; stroke: #000000; stroke-width: 0.8; stroke-linejoin: miter; stroke-linecap: square"/>
   </g>
   <g id="patch_11">
    <path d="M 43.78125 273.312 
L 400.90125 273.312 
" style="fill: none; stroke: #000000; stroke-width: 0.8; stroke-linejoin: miter; stroke-linecap: square"/>
   </g>
   <g id="patch_12">
    <path d="M 43.78125 140.256 
L 400.90125 140.256 
" style="fill: none; stroke: #000000; stroke-width: 0.8; stroke-linejoin: miter; stroke-linecap: square"/>
   </g>
   <g id="legend_2">
    <g id="patch_13">
     <path d="M 251.0075 192.290375 
L 393.90125 192.290375 
Q 395.90125 192.290375 395.90125 190.290375 
L 395.90125 147.256 
Q 395.90125 145.256 393.90125 145.256 
L 251.0075 145.256 
Q 249.0075 145.256 249.0075 147.256 
L 249.0075 190.290375 
Q 249.0075 192.290375 251.0075 192.290375 
z
" style="fill: #ffffff; opacity: 0.8; stroke: #cccccc; stroke-linejoin: miter"/>
    </g>
    <g id="line2d_32">
     <path d="M 253.0075 153.354437 
L 263.0075 153.354437 
L 273.0075 153.354437 
" style="fill: none; stroke: #4682b4; stroke-linecap: square"/>
    </g>
    <g id="text_22">
     <text style="font: 10px 'DejaVu Sans', 'Bitstream Vera Sans', 'Computer Modern Sans Serif', 'Lucida Grande', 'Verdana', 'Geneva', 'Lucid', 'Arial', 'Helvetica', 'Avant Garde', sans-serif; text-anchor: start" x="281.0075" y="156.854437" transform="rotate(-0 281.0075 156.854437)">Target response PVR</text>
    </g>
    <g id="line2d_33">
     <path d="M 253.0075 168.032562 
L 263.0075 168.032562 
L 273.0075 168.032562 
" style="fill: none; stroke-dasharray: 3.7,1.6; stroke-dashoffset: 0; stroke: #4682b4"/>
    </g>
    <g id="text_23">
     <text style="font: 10px 'DejaVu Sans', 'Bitstream Vera Sans', 'Computer Modern Sans Serif', 'Lucida Grande', 'Verdana', 'Geneva', 'Lucid', 'Arial', 'Helvetica', 'Avant Garde', sans-serif; text-anchor: start" x="281.0075" y="171.532562" transform="rotate(-0 281.0075 171.532562)">Digital prediction PVR</text>
    </g>
    <g id="line2d_34">
     <path d="M 253.0075 182.710687 
L 263.0075 182.710687 
L 273.0075 182.710687 
" style="fill: none; stroke-dasharray: 0.64,0.16,0.1,0.16; stroke-dashoffset: 0; stroke: #4682b4; stroke-width: 0.1"/>
    </g>
    <g id="text_24">
     <text style="font: 10px 'DejaVu Sans', 'Bitstream Vera Sans', 'Computer Modern Sans Serif', 'Lucida Grande', 'Verdana', 'Geneva', 'Lucid', 'Arial', 'Helvetica', 'Avant Garde', sans-serif; text-anchor: start" x="281.0075" y="186.210687" transform="rotate(-0 281.0075 186.210687)">Analog prediction PVR</text>
    </g>
   </g>
  </g>
 </g>
 <defs>
  <clipPath id="p6b5c9eed5f">
   <rect x="43.78125" y="7.2" width="357.12" height="133.056"/>
  </clipPath>
  <clipPath id="p189e385cf9">
   <rect x="43.78125" y="140.256" width="357.12" height="133.056"/>
  </clipPath>
 </defs>
</svg>
