<?xml version="1.0" encoding="utf-8" standalone="no"?>
<!DOCTYPE svg PUBLIC "-//W3C//DTD SVG 1.1//EN"
  "http://www.w3.org/Graphics/SVG/1.1/DTD/svg11.dtd">
<svg xmlns:xlink="http://www.w3.org/1999/xlink" width="418.071562pt" height="310.86825pt" viewBox="0 0 418.071562 310.86825" xmlns="http://www.w3.org/2000/svg" version="1.1">
 <metadata>
  <rdf:RDF xmlns:dc="http://purl.org/dc/elements/1.1/" xmlns:cc="http://creativecommons.org/ns#" xmlns:rdf="http://www.w3.org/1999/02/22-rdf-syntax-ns#">
   <cc:Work>
    <dc:type rdf:resource="http://purl.org/dc/dcmitype/StillImage"/>
    <dc:date>2023-10-25T16:22:42.061517</dc:date>
    <dc:format>image/svg+xml</dc:format>
    <dc:creator>
     <cc:Agent>
      <dc:title>Matplotlib v3.8.0, https://matplotlib.org/</dc:title>
     </cc:Agent>
    </dc:creator>
   </cc:Work>
  </rdf:RDF>
 </metadata>
 <defs>
  <style type="text/css">*{stroke-linejoin: round; stroke-linecap: butt}</style>
 </defs>
 <g id="figure_1">
  <g id="patch_1">
   <path d="M 0 310.86825 
L 418.071562 310.86825 
L 418.071562 0 
L 0 0 
z
" style="fill: #ffffff"/>
  </g>
  <g id="axes_1">
   <g id="patch_2">
    <path d="M 53.751563 95.904 
L 410.871562 95.904 
L 410.871562 7.2 
L 53.751563 7.2 
z
" style="fill: #ffffff"/>
   </g>
   <g id="matplotlib.axis_1">
    <g id="xtick_1">
     <g id="line2d_1">
      <defs>
       <path id="me905e8d512" d="M 0 0 
L 0 3.5 
" style="stroke: #000000; stroke-width: 0.8"/>
      </defs>
      <g>
       <use xlink:href="#me905e8d512" x="69.98429" y="95.904" style="stroke: #000000; stroke-width: 0.8"/>
      </g>
     </g>
    </g>
    <g id="xtick_2">
     <g id="line2d_2">
      <g>
       <use xlink:href="#me905e8d512" x="134.980195" y="95.904" style="stroke: #000000; stroke-width: 0.8"/>
      </g>
     </g>
    </g>
    <g id="xtick_3">
     <g id="line2d_3">
      <g>
       <use xlink:href="#me905e8d512" x="199.9761" y="95.904" style="stroke: #000000; stroke-width: 0.8"/>
      </g>
     </g>
    </g>
    <g id="xtick_4">
     <g id="line2d_4">
      <g>
       <use xlink:href="#me905e8d512" x="264.972005" y="95.904" style="stroke: #000000; stroke-width: 0.8"/>
      </g>
     </g>
    </g>
    <g id="xtick_5">
     <g id="line2d_5">
      <g>
       <use xlink:href="#me905e8d512" x="329.96791" y="95.904" style="stroke: #000000; stroke-width: 0.8"/>
      </g>
     </g>
    </g>
    <g id="xtick_6">
     <g id="line2d_6">
      <g>
       <use xlink:href="#me905e8d512" x="394.963815" y="95.904" style="stroke: #000000; stroke-width: 0.8"/>
      </g>
     </g>
    </g>
   </g>
   <g id="matplotlib.axis_2">
    <g id="ytick_1">
     <g id="line2d_7">
      <defs>
       <path id="m5a09f5c417" d="M 0 0 
L -3.5 0 
" style="stroke: #000000; stroke-width: 0.8"/>
      </defs>
      <g>
       <use xlink:href="#m5a09f5c417" x="53.751563" y="91.872" style="stroke: #000000; stroke-width: 0.8"/>
      </g>
     </g>
     <g id="text_1">
      <text style="font: 10px 'DejaVu Sans', 'Bitstream Vera Sans', 'Computer Modern Sans Serif', 'Lucida Grande', 'Verdana', 'Geneva', 'Lucid', 'Arial', 'Helvetica', 'Avant Garde', sans-serif; text-anchor: end" x="46.751563" y="95.671219" transform="rotate(-0 46.751563 95.671219)">0</text>
     </g>
    </g>
    <g id="ytick_2">
     <g id="line2d_8">
      <g>
       <use xlink:href="#m5a09f5c417" x="53.751563" y="56.81113" style="stroke: #000000; stroke-width: 0.8"/>
      </g>
     </g>
     <g id="text_2">
      <text style="font: 10px 'DejaVu Sans', 'Bitstream Vera Sans', 'Computer Modern Sans Serif', 'Lucida Grande', 'Verdana', 'Geneva', 'Lucid', 'Arial', 'Helvetica', 'Avant Garde', sans-serif; text-anchor: end" x="46.751563" y="60.610349" transform="rotate(-0 46.751563 60.610349)">1</text>
     </g>
    </g>
    <g id="ytick_3">
     <g id="line2d_9">
      <g>
       <use xlink:href="#m5a09f5c417" x="53.751563" y="21.750261" style="stroke: #000000; stroke-width: 0.8"/>
      </g>
     </g>
     <g id="text_3">
      <text style="font: 10px 'DejaVu Sans', 'Bitstream Vera Sans', 'Computer Modern Sans Serif', 'Lucida Grande', 'Verdana', 'Geneva', 'Lucid', 'Arial', 'Helvetica', 'Avant Garde', sans-serif; text-anchor: end" x="46.751563" y="25.54948" transform="rotate(-0 46.751563 25.54948)">2</text>
     </g>
    </g>
    <g id="text_4">
     <text style="font: 10px 'DejaVu Sans', 'Bitstream Vera Sans', 'Computer Modern Sans Serif', 'Lucida Grande', 'Verdana', 'Geneva', 'Lucid', 'Arial', 'Helvetica', 'Avant Garde', sans-serif; text-anchor: middle" x="34.309375" y="51.552" transform="rotate(-90 34.309375 51.552)">Current (nA)</text>
    </g>
   </g>
   <g id="line2d_10">
    <path d="M 69.98429 91.872 
L 134.655215 91.872 
L 134.980195 42.786783 
L 147.654396 42.786783 
L 147.979376 91.872 
L 394.638835 91.872 
L 394.638835 91.872 
" clip-path="url(#pc018c28558)" style="fill: none; stroke: #ff4500; stroke-width: 1.5; stroke-linecap: square"/>
   </g>
   <g id="line2d_11">
    <path d="M 69.98429 91.872 
L 134.655215 91.872 
L 134.980195 42.786783 
L 264.647025 42.786783 
L 264.972005 91.872 
L 394.638835 91.872 
L 394.638835 91.872 
" clip-path="url(#pc018c28558)" style="fill: none; stroke-dasharray: 5.55,2.4; stroke-dashoffset: 0; stroke: #c71585; stroke-width: 1.5"/>
   </g>
   <g id="line2d_12">
    <path d="M 69.98429 91.872 
L 134.655215 91.872 
L 134.980195 11.232 
L 167.153168 11.232 
L 167.478147 91.872 
L 199.65112 91.872 
L 199.9761 11.232 
L 232.149073 11.232 
L 232.474052 91.872 
L 264.647025 91.872 
L 264.972005 11.232 
L 297.144978 11.232 
L 297.469957 91.872 
L 394.638835 91.872 
L 394.638835 91.872 
" clip-path="url(#pc018c28558)" style="fill: none; stroke-dasharray: 9.6,2.4,1.5,2.4; stroke-dashoffset: 0; stroke: #4682b4; stroke-width: 1.5"/>
   </g>
   <g id="line2d_13">
    <path d="M 69.98429 91.872 
L 134.980195 91.855872 
L 167.478147 11.232 
L 199.9761 91.855872 
L 232.474052 11.232 
L 264.972005 91.855872 
L 297.469957 11.232 
L 329.96791 91.872 
L 394.638835 91.872 
L 394.638835 91.872 
" clip-path="url(#pc018c28558)" style="fill: none; stroke-dasharray: 2.5,4.125; stroke-dashoffset: 0; stroke: #6b8e23; stroke-width: 2.5"/>
   </g>
   <g id="patch_3">
    <path d="M 53.751563 95.904 
L 53.751563 7.2 
" style="fill: none; stroke: #000000; stroke-width: 0.8; stroke-linejoin: miter; stroke-linecap: square"/>
   </g>
   <g id="patch_4">
    <path d="M 410.871562 95.904 
L 410.871562 7.2 
" style="fill: none; stroke: #000000; stroke-width: 0.8; stroke-linejoin: miter; stroke-linecap: square"/>
   </g>
   <g id="patch_5">
    <path d="M 53.751563 95.904 
L 410.871562 95.904 
" style="fill: none; stroke: #000000; stroke-width: 0.8; stroke-linejoin: miter; stroke-linecap: square"/>
   </g>
   <g id="patch_6">
    <path d="M 53.751563 7.2 
L 410.871562 7.2 
" style="fill: none; stroke: #000000; stroke-width: 0.8; stroke-linejoin: miter; stroke-linecap: square"/>
   </g>
   <g id="legend_1">
    <g id="patch_7">
     <path d="M 339.7075 73.9125 
L 403.871562 73.9125 
Q 405.871562 73.9125 405.871562 71.9125 
L 405.871562 14.2 
Q 405.871562 12.2 403.871562 12.2 
L 339.7075 12.2 
Q 337.7075 12.2 337.7075 14.2 
L 337.7075 71.9125 
Q 337.7075 73.9125 339.7075 73.9125 
z
" style="fill: #ffffff; opacity: 0.8; stroke: #cccccc; stroke-linejoin: miter"/>
    </g>
    <g id="line2d_14">
     <path d="M 341.7075 20.298437 
L 351.7075 20.298437 
L 361.7075 20.298437 
" style="fill: none; stroke: #ff4500; stroke-width: 1.5; stroke-linecap: square"/>
    </g>
    <g id="text_5">
     <text style="font: 10px 'DejaVu Sans', 'Bitstream Vera Sans', 'Computer Modern Sans Serif', 'Lucida Grande', 'Verdana', 'Geneva', 'Lucid', 'Arial', 'Helvetica', 'Avant Garde', sans-serif; text-anchor: start" x="369.7075" y="23.798437" transform="rotate(-0 369.7075 23.798437)">PLML2</text>
    </g>
    <g id="line2d_15">
     <path d="M 341.7075 34.976562 
L 351.7075 34.976562 
L 361.7075 34.976562 
" style="fill: none; stroke-dasharray: 5.55,2.4; stroke-dashoffset: 0; stroke: #c71585; stroke-width: 1.5"/>
    </g>
    <g id="text_6">
     <text style="font: 10px 'DejaVu Sans', 'Bitstream Vera Sans', 'Computer Modern Sans Serif', 'Lucida Grande', 'Verdana', 'Geneva', 'Lucid', 'Arial', 'Helvetica', 'Avant Garde', sans-serif; text-anchor: start" x="369.7075" y="38.476562" transform="rotate(-0 369.7075 38.476562)">PLMR</text>
    </g>
    <g id="line2d_16">
     <path d="M 341.7075 49.654687 
L 351.7075 49.654687 
L 361.7075 49.654687 
" style="fill: none; stroke-dasharray: 9.6,2.4,1.5,2.4; stroke-dashoffset: 0; stroke: #4682b4; stroke-width: 1.5"/>
    </g>
    <g id="text_7">
     <text style="font: 10px 'DejaVu Sans', 'Bitstream Vera Sans', 'Computer Modern Sans Serif', 'Lucida Grande', 'Verdana', 'Geneva', 'Lucid', 'Arial', 'Helvetica', 'Avant Garde', sans-serif; text-anchor: start" x="369.7075" y="53.154687" transform="rotate(-0 369.7075 53.154687)">AVBL</text>
    </g>
    <g id="line2d_17">
     <path d="M 341.7075 64.332812 
L 351.7075 64.332812 
L 361.7075 64.332812 
" style="fill: none; stroke-dasharray: 2.5,4.125; stroke-dashoffset: 0; stroke: #6b8e23; stroke-width: 2.5"/>
    </g>
    <g id="text_8">
     <text style="font: 10px 'DejaVu Sans', 'Bitstream Vera Sans', 'Computer Modern Sans Serif', 'Lucida Grande', 'Verdana', 'Geneva', 'Lucid', 'Arial', 'Helvetica', 'Avant Garde', sans-serif; text-anchor: start" x="369.7075" y="67.832812" transform="rotate(-0 369.7075 67.832812)">AVBR</text>
    </g>
   </g>
  </g>
  <g id="axes_2">
   <g id="patch_8">
    <path d="M 53.751563 273.312 
L 410.871562 273.312 
L 410.871562 95.904 
L 53.751563 95.904 
z
" style="fill: #ffffff"/>
   </g>
   <g id="matplotlib.axis_3">
    <g id="xtick_7">
     <g id="line2d_18">
      <g>
       <use xlink:href="#me905e8d512" x="69.98429" y="273.312" style="stroke: #000000; stroke-width: 0.8"/>
      </g>
     </g>
     <g id="text_9">
      <text style="font: 10px 'DejaVu Sans', 'Bitstream Vera Sans', 'Computer Modern Sans Serif', 'Lucida Grande', 'Verdana', 'Geneva', 'Lucid', 'Arial', 'Helvetica', 'Avant Garde', sans-serif; text-anchor: middle" x="69.98429" y="287.910437" transform="rotate(-0 69.98429 287.910437)">0</text>
     </g>
    </g>
    <g id="xtick_8">
     <g id="line2d_19">
      <g>
       <use xlink:href="#me905e8d512" x="134.980195" y="273.312" style="stroke: #000000; stroke-width: 0.8"/>
      </g>
     </g>
     <g id="text_10">
      <text style="font: 10px 'DejaVu Sans', 'Bitstream Vera Sans', 'Computer Modern Sans Serif', 'Lucida Grande', 'Verdana', 'Geneva', 'Lucid', 'Arial', 'Helvetica', 'Avant Garde', sans-serif; text-anchor: middle" x="134.980195" y="287.910437" transform="rotate(-0 134.980195 287.910437)">100</text>
     </g>
    </g>
    <g id="xtick_9">
     <g id="line2d_20">
      <g>
       <use xlink:href="#me905e8d512" x="199.9761" y="273.312" style="stroke: #000000; stroke-width: 0.8"/>
      </g>
     </g>
     <g id="text_11">
      <text style="font: 10px 'DejaVu Sans', 'Bitstream Vera Sans', 'Computer Modern Sans Serif', 'Lucida Grande', 'Verdana', 'Geneva', 'Lucid', 'Arial', 'Helvetica', 'Avant Garde', sans-serif; text-anchor: middle" x="199.9761" y="287.910437" transform="rotate(-0 199.9761 287.910437)">200</text>
     </g>
    </g>
    <g id="xtick_10">
     <g id="line2d_21">
      <g>
       <use xlink:href="#me905e8d512" x="264.972005" y="273.312" style="stroke: #000000; stroke-width: 0.8"/>
      </g>
     </g>
     <g id="text_12">
      <text style="font: 10px 'DejaVu Sans', 'Bitstream Vera Sans', 'Computer Modern Sans Serif', 'Lucida Grande', 'Verdana', 'Geneva', 'Lucid', 'Arial', 'Helvetica', 'Avant Garde', sans-serif; text-anchor: middle" x="264.972005" y="287.910437" transform="rotate(-0 264.972005 287.910437)">300</text>
     </g>
    </g>
    <g id="xtick_11">
     <g id="line2d_22">
      <g>
       <use xlink:href="#me905e8d512" x="329.96791" y="273.312" style="stroke: #000000; stroke-width: 0.8"/>
      </g>
     </g>
     <g id="text_13">
      <text style="font: 10px 'DejaVu Sans', 'Bitstream Vera Sans', 'Computer Modern Sans Serif', 'Lucida Grande', 'Verdana', 'Geneva', 'Lucid', 'Arial', 'Helvetica', 'Avant Garde', sans-serif; text-anchor: middle" x="329.96791" y="287.910437" transform="rotate(-0 329.96791 287.910437)">400</text>
     </g>
    </g>
    <g id="xtick_12">
     <g id="line2d_23">
      <g>
       <use xlink:href="#me905e8d512" x="394.963815" y="273.312" style="stroke: #000000; stroke-width: 0.8"/>
      </g>
     </g>
     <g id="text_14">
      <text style="font: 10px 'DejaVu Sans', 'Bitstream Vera Sans', 'Computer Modern Sans Serif', 'Lucida Grande', 'Verdana', 'Geneva', 'Lucid', 'Arial', 'Helvetica', 'Avant Garde', sans-serif; text-anchor: middle" x="394.963815" y="287.910437" transform="rotate(-0 394.963815 287.910437)">500</text>
     </g>
    </g>
    <g id="text_15">
     <text style="font: 10px 'DejaVu Sans', 'Bitstream Vera Sans', 'Computer Modern Sans Serif', 'Lucida Grande', 'Verdana', 'Geneva', 'Lucid', 'Arial', 'Helvetica', 'Avant Garde', sans-serif; text-anchor: middle" x="232.311563" y="301.588562" transform="rotate(-0 232.311563 301.588562)">Time (ms)</text>
    </g>
   </g>
   <g id="matplotlib.axis_4">
    <g id="ytick_4">
     <g id="line2d_24">
      <g>
       <use xlink:href="#m5a09f5c417" x="53.751563" y="261.620869" style="stroke: #000000; stroke-width: 0.8"/>
      </g>
     </g>
     <g id="text_16">
      <text style="font: 10px 'DejaVu Sans', 'Bitstream Vera Sans', 'Computer Modern Sans Serif', 'Lucida Grande', 'Verdana', 'Geneva', 'Lucid', 'Arial', 'Helvetica', 'Avant Garde', sans-serif; text-anchor: end" x="46.751563" y="265.420087" transform="rotate(-0 46.751563 265.420087)">-0.25</text>
     </g>
    </g>
    <g id="ytick_5">
     <g id="line2d_25">
      <g>
       <use xlink:href="#m5a09f5c417" x="53.751563" y="237.336533" style="stroke: #000000; stroke-width: 0.8"/>
      </g>
     </g>
     <g id="text_17">
      <text style="font: 10px 'DejaVu Sans', 'Bitstream Vera Sans', 'Computer Modern Sans Serif', 'Lucida Grande', 'Verdana', 'Geneva', 'Lucid', 'Arial', 'Helvetica', 'Avant Garde', sans-serif; text-anchor: end" x="46.751563" y="241.135752" transform="rotate(-0 46.751563 241.135752)">0.00</text>
     </g>
    </g>
    <g id="ytick_6">
     <g id="line2d_26">
      <g>
       <use xlink:href="#m5a09f5c417" x="53.751563" y="213.052197" style="stroke: #000000; stroke-width: 0.8"/>
      </g>
     </g>
     <g id="text_18">
      <text style="font: 10px 'DejaVu Sans', 'Bitstream Vera Sans', 'Computer Modern Sans Serif', 'Lucida Grande', 'Verdana', 'Geneva', 'Lucid', 'Arial', 'Helvetica', 'Avant Garde', sans-serif; text-anchor: end" x="46.751563" y="216.851416" transform="rotate(-0 46.751563 216.851416)">0.25</text>
     </g>
    </g>
    <g id="ytick_7">
     <g id="line2d_27">
      <g>
       <use xlink:href="#m5a09f5c417" x="53.751563" y="188.767861" style="stroke: #000000; stroke-width: 0.8"/>
      </g>
     </g>
     <g id="text_19">
      <text style="font: 10px 'DejaVu Sans', 'Bitstream Vera Sans', 'Computer Modern Sans Serif', 'Lucida Grande', 'Verdana', 'Geneva', 'Lucid', 'Arial', 'Helvetica', 'Avant Garde', sans-serif; text-anchor: end" x="46.751563" y="192.56708" transform="rotate(-0 46.751563 192.56708)">0.50</text>
     </g>
    </g>
    <g id="ytick_8">
     <g id="line2d_28">
      <g>
       <use xlink:href="#m5a09f5c417" x="53.751563" y="164.483525" style="stroke: #000000; stroke-width: 0.8"/>
      </g>
     </g>
     <g id="text_20">
      <text style="font: 10px 'DejaVu Sans', 'Bitstream Vera Sans', 'Computer Modern Sans Serif', 'Lucida Grande', 'Verdana', 'Geneva', 'Lucid', 'Arial', 'Helvetica', 'Avant Garde', sans-serif; text-anchor: end" x="46.751563" y="168.282744" transform="rotate(-0 46.751563 168.282744)">0.75</text>
     </g>
    </g>
    <g id="ytick_9">
     <g id="line2d_29">
      <g>
       <use xlink:href="#m5a09f5c417" x="53.751563" y="140.19919" style="stroke: #000000; stroke-width: 0.8"/>
      </g>
     </g>
     <g id="text_21">
      <text style="font: 10px 'DejaVu Sans', 'Bitstream Vera Sans', 'Computer Modern Sans Serif', 'Lucida Grande', 'Verdana', 'Geneva', 'Lucid', 'Arial', 'Helvetica', 'Avant Garde', sans-serif; text-anchor: end" x="46.751563" y="143.998408" transform="rotate(-0 46.751563 143.998408)">1.00</text>
     </g>
    </g>
    <g id="ytick_10">
     <g id="line2d_30">
      <g>
       <use xlink:href="#m5a09f5c417" x="53.751563" y="115.914854" style="stroke: #000000; stroke-width: 0.8"/>
      </g>
     </g>
     <g id="text_22">
      <text style="font: 10px 'DejaVu Sans', 'Bitstream Vera Sans', 'Computer Modern Sans Serif', 'Lucida Grande', 'Verdana', 'Geneva', 'Lucid', 'Arial', 'Helvetica', 'Avant Garde', sans-serif; text-anchor: end" x="46.751563" y="119.714073" transform="rotate(-0 46.751563 119.714073)">1.25</text>
     </g>
    </g>
    <g id="text_23">
     <text style="font: 10px 'DejaVu Sans', 'Bitstream Vera Sans', 'Computer Modern Sans Serif', 'Lucida Grande', 'Verdana', 'Geneva', 'Lucid', 'Arial', 'Helvetica', 'Avant Garde', sans-serif; text-anchor: middle" x="14.798438" y="184.608" transform="rotate(-90 14.798438 184.608)">Voltage (V)</text>
    </g>
   </g>
   <g id="line2d_31">
    <path d="M 69.98429 242.270523 
L 70.309269 241.727188 
L 70.959228 241.22006 
L 71.609187 241.045633 
L 73.234085 240.96113 
L 87.858164 240.95501 
L 134.655215 240.95501 
L 134.980195 242.433514 
L 135.305174 242.505019 
L 135.630154 242.123926 
L 136.280113 240.559283 
L 138.55497 233.878053 
L 139.529908 231.595475 
L 140.829826 229.10701 
L 142.129744 227.044462 
L 143.104683 225.841276 
L 144.404601 224.678781 
L 146.029499 223.535145 
L 147.654396 222.564805 
L 147.979376 219.548964 
L 148.304355 218.41597 
L 148.954314 217.200116 
L 149.604273 216.489928 
L 150.254232 216.054157 
L 150.904191 215.910685 
L 154.803946 215.625616 
L 157.078802 215.007679 
L 160.328598 213.909934 
L 167.153168 211.387955 
L 167.478147 207.635816 
L 168.453086 217.822841 
L 169.103045 222.057129 
L 169.753004 224.53679 
L 170.402963 225.978327 
L 171.052922 226.846086 
L 171.702881 227.395683 
L 172.67782 227.924474 
L 174.627697 228.643141 
L 184.377083 232.026424 
L 189.251775 234.017127 
L 196.076345 237.066675 
L 199.65112 238.7866 
L 200.301079 236.786008 
L 201.600997 232.490212 
L 202.575936 229.960255 
L 203.550875 228.034412 
L 204.525813 226.55851 
L 205.825731 225.059207 
L 207.450629 223.620315 
L 209.400506 222.221427 
L 212.325322 220.435342 
L 216.550056 218.086945 
L 222.399687 215.200523 
L 229.549237 212.305985 
L 232.149073 211.394086 
L 232.474052 207.640883 
L 233.448991 217.825146 
L 234.09895 222.058362 
L 234.748909 224.537435 
L 235.398868 225.978663 
L 236.048827 226.846265 
L 236.698786 227.395769 
L 237.673725 227.924506 
L 239.623602 228.643147 
L 249.372988 232.026424 
L 254.24768 234.017127 
L 261.07225 237.066675 
L 264.647025 238.7866 
L 264.972005 236.097066 
L 265.621964 234.218916 
L 266.596902 232.625773 
L 267.89682 231.012036 
L 269.521718 229.44559 
L 271.796575 227.643335 
L 276.671268 224.138712 
L 280.246042 221.774375 
L 285.445715 218.586019 
L 290.320408 215.885018 
L 295.84506 213.15086 
L 297.144978 212.565526 
L 297.469957 211.382866 
L 298.119916 217.740869 
L 298.769875 221.444895 
L 299.419834 223.383873 
L 300.069793 224.426667 
L 300.719753 225.043379 
L 301.694691 225.638621 
L 304.294527 226.829581 
L 310.144159 229.52359 
L 315.343831 232.163028 
L 321.518442 235.56569 
L 327.043094 238.849119 
L 330.292889 240.794934 
L 331.267828 240.924779 
L 334.517623 240.954889 
L 394.638835 240.955009 
L 394.638835 240.955009 
" clip-path="url(#p311bbefdd4)" style="fill: none; stroke: #ff4500; stroke-linecap: square"/>
   </g>
   <g id="line2d_32">
    <path d="M 69.98429 242.646351 
L 70.634249 241.993743 
L 71.284208 241.771712 
L 72.584126 241.672946 
L 80.383635 241.661536 
L 156.103864 241.661536 
L 156.428843 236.17528 
L 156.753823 234.992799 
L 157.078802 232.062678 
L 157.728762 218.786812 
L 158.378721 224.187034 
L 159.02868 213.617815 
L 159.353659 217.036628 
L 159.678639 221.947436 
L 160.328598 212.26254 
L 160.653577 215.607308 
L 160.978557 221.37756 
L 161.628516 211.965498 
L 161.953495 215.066972 
L 162.278475 221.272655 
L 162.928434 211.972435 
L 163.253413 214.801711 
L 163.578393 221.305007 
L 164.228352 212.035685 
L 164.553332 214.633748 
L 164.878311 221.38476 
L 165.52827 212.168815 
L 165.85325 214.487711 
L 166.178229 221.477144 
L 166.828188 212.312726 
L 167.153168 214.353328 
L 167.478147 221.572079 
L 168.128106 212.463331 
L 168.453086 214.225723 
L 168.778065 221.646269 
L 169.428024 212.625386 
L 169.753004 214.105861 
L 170.077983 221.749241 
L 170.727943 212.781529 
L 171.052922 213.98831 
L 171.377902 221.856037 
L 172.027861 212.94019 
L 172.35284 213.874294 
L 172.67782 221.941228 
L 173.327779 213.111645 
L 173.652758 213.768567 
L 173.977738 226.807906 
L 174.302717 226.784777 
L 174.627697 226.375598 
L 174.952676 223.748627 
L 175.277656 231.906443 
L 175.927615 228.429596 
L 176.252594 225.274125 
L 176.577574 232.774988 
L 177.227533 228.86689 
L 177.552513 225.374002 
L 177.877492 232.804532 
L 178.527451 229.043961 
L 178.852431 225.240137 
L 179.17741 232.881451 
L 179.827369 228.967861 
L 180.152349 225.189646 
L 180.477328 233.004607 
L 181.127287 229.047536 
L 181.452267 224.973819 
L 181.777246 232.900224 
L 182.427205 229.154139 
L 182.752185 224.774156 
L 183.077164 232.951598 
L 183.727124 229.067777 
L 184.052103 224.710478 
L 184.377083 233.067701 
L 185.027042 229.149264 
L 185.352021 224.500909 
L 185.677001 232.967272 
L 186.32696 229.263785 
L 186.651939 224.31427 
L 186.976919 233.027221 
L 187.626878 229.433266 
L 187.951857 224.156228 
L 188.276837 233.090951 
L 188.926796 229.272589 
L 189.251775 224.052246 
L 189.576755 233.048549 
L 190.226714 229.403181 
L 190.551694 223.884668 
L 190.876673 233.107737 
L 191.526632 229.573618 
L 191.851612 223.73715 
L 192.176591 233.183249 
L 192.82655 229.424059 
L 193.15153 223.642263 
L 193.476509 233.277697 
L 194.126468 229.522877 
L 194.451448 223.460357 
L 194.776427 233.196337 
L 195.426386 229.731049 
L 195.751366 223.3437 
L 196.076345 233.278584 
L 196.726305 229.595351 
L 197.051284 223.261231 
L 197.376264 233.374109 
L 198.026223 229.698483 
L 198.351202 223.089526 
L 198.676182 233.300112 
L 199.326141 229.82673 
L 199.65112 222.944338 
L 199.9761 231.529559 
L 200.626059 232.725339 
L 200.951038 232.729797 
L 201.276018 235.514036 
L 201.600997 234.711916 
L 201.925977 234.325938 
L 202.250956 234.284273 
L 202.575936 236.139017 
L 202.900915 235.021545 
L 203.225895 234.539093 
L 203.550875 234.628653 
L 203.875854 236.23762 
L 204.200834 235.177206 
L 204.525813 234.528979 
L 204.850793 234.778923 
L 205.175772 236.256127 
L 205.500752 235.20636 
L 205.825731 234.657244 
L 206.150711 234.861987 
L 206.47569 236.293085 
L 206.80067 235.150424 
L 207.125649 234.642701 
L 207.450629 234.997356 
L 207.775608 236.31248 
L 208.100588 235.257568 
L 208.425567 234.604793 
L 208.750547 235.119074 
L 209.075526 236.328327 
L 209.400506 235.28831 
L 209.725486 234.731089 
L 210.050465 235.201146 
L 210.375445 236.328822 
L 210.700424 235.315224 
L 211.025404 234.767673 
L 211.350383 235.367334 
L 211.675363 236.405171 
L 212.000342 235.357872 
L 212.325322 234.702896 
L 212.975281 236.420421 
L 213.30026 235.3944 
L 213.62524 234.837522 
L 214.275199 236.427404 
L 214.600178 235.432288 
L 214.925158 234.888138 
L 215.575117 236.507342 
L 215.900096 235.413995 
L 216.225076 234.911506 
L 216.875035 236.551861 
L 217.200015 235.539494 
L 217.524994 234.980858 
L 218.174953 236.546641 
L 218.499933 235.57794 
L 218.824912 235.040158 
L 219.149892 236.101712 
L 219.474871 236.630889 
L 219.799851 235.569122 
L 220.12483 235.079454 
L 220.44981 236.263725 
L 220.774789 236.686192 
L 221.099769 235.701977 
L 221.424748 235.081877 
L 221.749728 236.402942 
L 222.074707 236.734726 
L 222.399687 235.776867 
L 222.724667 235.241263 
L 223.049646 236.500585 
L 223.374626 236.783291 
L 223.699605 235.75698 
L 224.024585 235.285189 
L 224.349564 236.658752 
L 224.674544 236.845033 
L 224.999523 235.890536 
L 225.324503 235.356106 
L 225.649482 236.782896 
L 225.974462 236.902079 
L 226.299441 235.962838 
L 226.624421 235.438065 
L 226.9494 236.923966 
L 227.27438 236.963888 
L 227.599359 236.043812 
L 227.924339 235.533719 
L 228.249318 237.058377 
L 228.574298 237.027018 
L 228.899277 236.126842 
L 229.224257 235.623522 
L 229.549237 237.20286 
L 229.874216 237.102439 
L 230.199196 236.216957 
L 230.524175 235.722675 
L 230.849155 237.350245 
L 231.174134 237.177813 
L 231.499114 236.312002 
L 231.824093 235.827369 
L 232.149073 237.499415 
L 232.474052 237.259585 
L 232.799032 236.415064 
L 233.124011 235.937727 
L 233.448991 237.65035 
L 233.77397 237.343675 
L 234.09895 236.506783 
L 234.423929 236.047675 
L 234.748909 237.799045 
L 235.073888 237.430358 
L 235.398868 236.615553 
L 235.723848 236.168499 
L 236.048827 237.952497 
L 236.373807 237.522605 
L 236.698786 236.730366 
L 237.023766 236.295747 
L 237.348745 238.107877 
L 237.673725 237.619537 
L 237.998704 236.851411 
L 238.323684 236.418163 
L 238.648663 238.258807 
L 239.623602 236.556159 
L 239.948581 238.416376 
L 240.92352 236.70132 
L 241.248499 238.575948 
L 242.223438 236.85275 
L 242.548418 238.730654 
L 243.198377 237.175556 
L 243.523356 234.355607 
L 243.848336 233.298861 
L 244.173315 235.27589 
L 244.823274 230.649055 
L 245.148254 229.706902 
L 245.473233 233.604599 
L 246.123192 229.547996 
L 246.448172 228.573099 
L 246.773151 233.114003 
L 247.42311 229.238495 
L 247.74809 228.118605 
L 248.073069 232.975364 
L 248.723029 229.130012 
L 249.048008 227.836641 
L 249.372988 232.924162 
L 250.022947 229.077108 
L 250.347926 227.600947 
L 250.672906 232.897888 
L 251.322865 229.055874 
L 251.647844 227.38744 
L 251.972824 232.885304 
L 252.947762 227.173908 
L 253.272742 232.873457 
L 254.24768 226.963642 
L 254.57266 232.863904 
L 255.547599 226.769575 
L 255.872578 232.865447 
L 256.847517 226.568152 
L 257.172496 232.864183 
L 258.147435 226.36935 
L 258.472414 232.86557 
L 259.447353 226.173437 
L 259.772332 232.854824 
L 260.747271 225.984237 
L 261.07225 232.862988 
L 262.047189 225.796966 
L 262.372169 232.858106 
L 263.347107 225.596276 
L 263.672087 232.905534 
L 264.322046 228.953233 
L 264.647025 225.461637 
L 264.972005 232.98811 
L 265.621964 229.00996 
L 265.946943 225.225093 
L 266.271923 232.873301 
L 266.921882 229.211975 
L 267.246861 225.078213 
L 267.571841 232.949225 
L 268.2218 229.029408 
L 268.54678 224.960048 
L 268.871759 233.040113 
L 269.521718 229.099698 
L 269.846698 224.736606 
L 270.171677 232.934636 
L 270.821636 229.301866 
L 271.146616 224.595729 
L 271.471595 233.010936 
L 272.121554 229.132107 
L 272.446534 224.48723 
L 272.771513 233.10874 
L 273.421472 229.21371 
L 273.746452 224.279648 
L 274.071431 233.011928 
L 274.721391 229.335266 
L 275.04637 224.098545 
L 275.37135 233.068507 
L 276.021309 229.260937 
L 276.346288 224.043251 
L 276.671268 233.180933 
L 277.321227 229.358968 
L 277.646206 223.854662 
L 277.971186 233.094687 
L 278.621145 229.482067 
L 278.946124 223.684119 
L 279.271104 233.159488 
L 279.921063 229.653513 
L 280.246042 223.539746 
L 280.571022 233.231042 
L 281.220981 229.509462 
L 281.545961 223.449111 
L 281.87094 233.19183 
L 282.520899 229.648072 
L 282.845879 223.296558 
L 283.170858 233.257746 
L 283.495838 231.17922 
L 283.820817 229.820405 
L 284.145797 223.161449 
L 284.470776 233.331213 
L 285.120735 229.686895 
L 285.445715 223.079799 
L 285.770694 233.424456 
L 286.095674 231.351543 
L 286.420653 227.154956 
L 286.745633 228.021179 
L 287.070612 233.655981 
L 287.720572 233.456556 
L 288.045551 233.547496 
L 288.370531 235.84508 
L 288.69551 234.919174 
L 289.02049 234.456492 
L 289.345469 234.40041 
L 289.670449 236.13953 
L 289.995428 235.121992 
L 290.320408 234.59426 
L 290.645387 234.669574 
L 290.970367 236.255007 
L 291.295346 235.108196 
L 291.620326 234.604206 
L 291.945305 234.826471 
L 292.270285 236.27725 
L 292.595264 235.218417 
L 292.920244 234.664469 
L 293.245223 234.867388 
L 293.570203 236.254404 
L 293.895182 235.225991 
L 294.220162 234.681915 
L 294.545142 235.022621 
L 294.870121 236.324045 
L 295.195101 235.188789 
L 295.52008 234.677659 
L 295.84506 235.166242 
L 296.170039 236.349883 
L 296.495019 235.3006 
L 296.819998 234.646561 
L 297.144978 235.291294 
L 297.469957 236.369963 
L 297.794937 235.33751 
L 298.119916 234.780425 
L 298.444896 235.376157 
L 298.769875 236.409239 
L 299.094855 235.290578 
L 299.419834 234.781314 
L 300.069793 236.440444 
L 300.394773 235.407096 
L 300.719753 234.757733 
L 301.369712 236.469699 
L 301.694691 235.456137 
L 302.019671 234.901853 
L 302.66963 236.482147 
L 302.994609 235.50031 
L 303.319589 234.957969 
L 303.969548 236.565855 
L 304.294527 235.547829 
L 304.619507 234.909288 
L 304.944486 236.021241 
L 305.269466 236.591853 
L 305.594445 235.603025 
L 305.919425 235.054637 
L 306.244404 236.111261 
L 306.569384 236.612098 
L 306.894363 235.659953 
L 307.219343 235.129071 
L 307.544323 236.294484 
L 307.869302 236.701326 
L 308.194282 235.658111 
L 308.519261 235.175474 
L 308.844241 236.45864 
L 309.16922 236.762432 
L 309.4942 235.792948 
L 309.819179 235.250857 
L 310.144159 236.506868 
L 310.469138 236.770214 
L 310.794118 235.851189 
L 311.119097 235.331359 
L 311.444077 236.699977 
L 311.769056 236.86309 
L 312.094036 235.908307 
L 312.419015 235.389867 
L 312.743995 236.829334 
L 313.068974 236.923598 
L 313.393954 235.983397 
L 313.718934 235.474684 
L 314.043913 236.971145 
L 314.368893 236.986528 
L 314.693872 236.069756 
L 315.018852 235.553306 
L 315.343831 237.109964 
L 315.668811 237.055668 
L 315.99379 236.15525 
L 316.31877 235.648224 
L 316.643749 237.255724 
L 316.968729 237.129712 
L 317.293708 236.246966 
L 317.618688 235.74947 
L 317.943667 237.403815 
L 318.268647 237.20644 
L 318.593626 236.34655 
L 318.918606 235.8563 
L 319.243585 237.553797 
L 319.568565 237.289417 
L 319.893544 236.445189 
L 320.218524 235.972334 
L 320.543504 237.694926 
L 320.868483 237.370107 
L 321.193463 236.548563 
L 321.518442 236.088045 
L 321.843422 237.846373 
L 322.168401 237.459391 
L 322.493381 236.659657 
L 322.81836 236.211112 
L 323.14334 238.000674 
L 323.468319 237.553619 
L 323.793299 236.776396 
L 324.118278 236.340238 
L 324.443258 238.156582 
L 324.768237 237.650242 
L 325.093217 236.8874 
L 325.418196 236.469019 
L 325.743176 238.310463 
L 326.718115 236.609407 
L 327.043094 238.46851 
L 328.018033 236.756501 
L 328.343012 238.626743 
L 329.317951 236.903346 
L 329.96791 241.020356 
L 330.617869 239.369099 
L 330.942848 236.812877 
L 331.267828 240.338961 
L 331.917787 238.688039 
L 332.242766 236.087344 
L 332.567746 240.027149 
L 333.217705 238.443631 
L 333.542685 235.797436 
L 333.867664 239.91951 
L 334.517623 238.326005 
L 334.842603 235.583602 
L 335.167582 239.852871 
L 335.817541 238.229659 
L 336.142521 235.382666 
L 336.4675 239.796626 
L 337.117459 238.141163 
L 337.442439 235.189534 
L 337.767418 239.739461 
L 338.417377 238.060373 
L 338.742357 235.000995 
L 339.067336 239.694461 
L 339.717296 237.987153 
L 340.042275 234.815134 
L 340.367255 239.651208 
L 341.017214 237.913854 
L 341.342193 234.6281 
L 341.667173 239.610835 
L 342.317132 237.855221 
L 342.642111 234.450588 
L 342.967091 239.576973 
L 343.61705 237.79288 
L 343.942029 234.269644 
L 344.267009 239.543708 
L 344.916968 237.739882 
L 345.241947 234.090999 
L 345.566927 239.513717 
L 346.216886 237.67596 
L 346.541866 233.925909 
L 346.866845 239.491675 
L 347.516804 237.629777 
L 347.841784 233.752714 
L 348.166763 239.467808 
L 348.816722 237.576364 
L 349.141702 233.592179 
L 349.466681 239.420701 
L 350.11664 237.557449 
L 350.44162 233.379551 
L 350.766599 239.414165 
L 351.416558 237.604074 
L 351.741538 233.206413 
L 352.066517 239.413928 
L 352.716477 237.443736 
L 353.041456 233.090884 
L 353.366436 239.366487 
L 354.016395 237.46433 
L 354.341374 232.90586 
L 354.666354 239.367404 
L 355.316313 237.524032 
L 355.641292 232.742403 
L 355.966272 239.380077 
L 356.616231 237.373504 
L 356.94121 232.633985 
L 357.26619 239.338988 
L 357.916149 237.40335 
L 358.241128 232.457195 
L 358.566108 239.343684 
L 359.216067 237.471317 
L 359.541047 232.300551 
L 359.866026 239.359501 
L 360.515985 237.333468 
L 360.840965 232.19951 
L 361.165944 239.40318 
L 361.815903 237.332058 
L 362.140883 231.99933 
L 362.465862 239.325724 
L 363.115821 237.440499 
L 363.440801 231.8742 
L 363.76578 239.358244 
L 364.415739 237.314735 
L 364.740719 231.782192 
L 365.065698 239.405336 
L 365.715658 237.329981 
L 366.040637 231.593025 
L 366.365617 239.33381 
L 367.015576 237.370267 
L 367.340555 231.425189 
L 367.665535 239.351581 
L 368.315494 237.319708 
L 368.640473 231.381993 
L 368.965453 239.416603 
L 369.615412 237.343562 
L 369.940391 231.20709 
L 370.265371 239.350187 
L 370.91533 237.385137 
L 371.240309 231.046459 
L 371.565289 239.371723 
L 372.215248 237.468923 
L 372.540228 230.912916 
L 372.865207 239.402001 
L 373.190187 234.76067 
L 373.515166 235.69476 
L 373.840146 236.045215 
L 374.165125 238.089593 
L 374.490105 237.663141 
L 374.815084 237.513472 
L 375.140064 237.722006 
L 375.465043 238.711986 
L 375.790023 238.073622 
L 376.115002 237.729219 
L 376.439982 237.990578 
L 376.764961 238.819352 
L 377.089941 238.183477 
L 377.41492 237.847818 
L 377.7399 238.074072 
L 378.064879 238.860725 
L 378.389859 238.25447 
L 378.714839 237.933721 
L 379.039818 238.219256 
L 379.364798 238.918424 
L 379.689777 238.284646 
L 380.014757 237.946776 
L 380.339736 238.310816 
L 380.664716 238.96777 
L 380.989695 238.36333 
L 381.314675 238.047171 
L 381.639654 238.378383 
L 381.964634 239.011181 
L 382.289613 238.443587 
L 382.614593 238.143858 
L 383.264552 239.072574 
L 383.589531 238.482744 
L 383.914511 238.225867 
L 384.56447 239.146927 
L 384.889449 238.574016 
L 385.214429 238.273784 
L 385.864388 239.184456 
L 386.189368 238.656903 
L 386.514347 238.381383 
L 387.164306 239.247231 
L 387.489286 238.705408 
L 387.814265 238.474742 
L 388.464224 239.329507 
L 388.789204 238.802665 
L 389.114183 238.540936 
L 389.439163 239.091294 
L 389.764142 239.410707 
L 390.089122 238.919609 
L 390.414101 238.658363 
L 390.739081 239.166922 
L 391.06406 239.443999 
L 391.38904 238.963839 
L 391.71402 238.759985 
L 392.038999 239.302991 
L 392.363979 239.540424 
L 392.688958 239.066139 
L 393.013938 238.840853 
L 393.338917 239.422565 
L 393.663897 239.630194 
L 393.988876 239.196563 
L 394.313856 238.964744 
L 394.638835 239.500117 
L 394.638835 239.500117 
" clip-path="url(#p311bbefdd4)" style="fill: none; stroke-dasharray: 0.74,0.32; stroke-dashoffset: 0; stroke: #ff4500; stroke-width: 0.2"/>
   </g>
   <g id="line2d_33">
    <path d="M 69.98429 241.132087 
L 70.309269 239.261292 
L 70.634249 238.159746 
L 70.959228 237.51235 
L 71.609187 236.909563 
L 72.259146 236.702746 
L 73.559065 236.607954 
L 81.033594 236.595554 
L 134.655215 236.595554 
L 136.280113 197.668554 
L 137.255051 181.112341 
L 138.22999 168.343239 
L 139.204929 158.857671 
L 140.179867 151.684359 
L 141.154806 146.330858 
L 142.129744 142.574693 
L 143.104683 139.881949 
L 144.079621 138.057758 
L 145.05456 136.821899 
L 146.029499 135.990802 
L 147.004437 135.43741 
L 147.654396 135.263787 
L 147.979376 103.968 
L 149.279294 150.175952 
L 149.929253 165.730138 
L 150.579212 177.053807 
L 151.229171 185.113073 
L 151.87913 190.856116 
L 152.529089 194.943319 
L 153.179048 197.765094 
L 153.829007 199.677483 
L 154.478966 200.935282 
L 155.128925 201.719888 
L 155.778884 202.168789 
L 156.428843 202.380827 
L 157.403782 202.396179 
L 158.378721 202.16068 
L 159.678639 201.595899 
L 160.978557 200.825932 
L 162.603454 199.592007 
L 164.878311 197.577344 
L 167.153168 195.500392 
L 167.478147 167.512239 
L 168.128106 181.212791 
L 168.778065 194.162362 
L 169.428024 202.932302 
L 170.077983 208.238434 
L 170.727943 211.263024 
L 171.377902 212.943377 
L 172.027861 213.859301 
L 172.67782 214.351784 
L 173.652758 214.696053 
L 174.952676 214.863877 
L 177.552513 214.902571 
L 189.576755 214.681481 
L 193.801489 214.48167 
L 199.65112 214.04991 
L 199.9761 215.592216 
L 200.626059 221.492169 
L 200.951038 222.705053 
L 201.276018 223.161362 
L 201.600997 223.076955 
L 201.925977 222.631049 
L 202.575936 221.237744 
L 204.525813 216.61101 
L 205.500752 215.010083 
L 206.47569 213.828527 
L 207.775608 212.690558 
L 209.400506 211.650987 
L 217.200015 207.16106 
L 220.12483 205.183594 
L 226.9494 200.279435 
L 229.549237 197.939941 
L 232.149073 195.520832 
L 232.474052 167.527891 
L 233.124011 181.222054 
L 233.77397 194.167578 
L 234.423929 202.935178 
L 235.073888 208.239998 
L 235.723848 211.263869 
L 236.373807 212.943829 
L 237.023766 213.85954 
L 237.673725 214.351905 
L 238.648663 214.696097 
L 239.948581 214.863889 
L 242.548418 214.902577 
L 254.57266 214.681481 
L 258.797394 214.48167 
L 264.647025 214.04991 
L 264.972005 215.635411 
L 265.621964 223.791028 
L 265.946943 226.042263 
L 266.271923 227.462164 
L 266.596902 228.259577 
L 266.921882 228.619281 
L 267.246861 228.687349 
L 267.89682 228.336521 
L 269.196739 227.004616 
L 271.796575 224.356812 
L 287.395592 209.298525 
L 292.920244 203.922154 
L 297.144978 199.704469 
L 297.469957 182.297902 
L 298.119916 201.573203 
L 298.769875 213.803318 
L 299.419834 220.049574 
L 300.069793 223.029471 
L 300.719753 224.437352 
L 301.369712 225.127916 
L 302.34465 225.637219 
L 304.294527 226.201682 
L 309.16922 227.559552 
L 313.393954 228.973222 
L 318.918606 231.133197 
L 324.118278 233.412349 
L 330.942848 236.508976 
L 332.567746 236.588241 
L 345.566927 236.595553 
L 394.638835 236.595553 
L 394.638835 236.595553 
" clip-path="url(#p311bbefdd4)" style="fill: none; stroke: #c71585; stroke-linecap: square"/>
   </g>
   <g id="line2d_34">
    <path d="M 69.98429 245.353974 
L 70.309269 245.854642 
L 70.959228 246.189826 
L 72.259146 246.270001 
L 97.28257 246.271454 
L 156.103864 246.271454 
L 156.428843 209.194312 
L 156.753823 233.195049 
L 157.078802 197.315822 
L 157.403782 179.076536 
L 157.728762 168.819559 
L 158.053741 221.896208 
L 158.378721 185.927158 
L 158.7037 173.279051 
L 159.02868 166.292223 
L 159.353659 222.157809 
L 159.678639 185.726132 
L 160.003618 173.659618 
L 160.328598 166.912478 
L 160.653577 222.861129 
L 160.978557 186.271152 
L 161.303536 174.282205 
L 161.628516 167.566021 
L 161.953495 223.405866 
L 162.278475 186.759057 
L 162.603454 174.815013 
L 162.928434 168.121675 
L 163.253413 223.881411 
L 163.578393 187.189286 
L 163.903372 175.300921 
L 164.228352 168.65808 
L 164.553332 224.311468 
L 164.878311 187.584084 
L 165.203291 175.765137 
L 165.52827 169.166289 
L 165.85325 224.761911 
L 166.178229 187.99601 
L 166.503209 176.242736 
L 166.828188 169.674887 
L 167.153168 225.212376 
L 167.478147 188.404371 
L 167.803127 176.725667 
L 168.128106 170.186647 
L 168.453086 225.662789 
L 168.778065 188.79756 
L 169.103045 177.162423 
L 169.428024 170.66583 
L 169.753004 226.101107 
L 170.077983 189.209023 
L 170.402963 177.642092 
L 170.727943 171.178661 
L 171.052922 226.549777 
L 171.377902 189.630783 
L 171.702881 178.125973 
L 172.027861 171.698778 
L 172.35284 226.999495 
L 172.67782 190.03699 
L 173.002799 178.629328 
L 173.327779 172.193282 
L 173.652758 227.433044 
L 173.977738 208.535571 
L 174.302717 208.212538 
L 174.627697 208.155062 
L 174.952676 235.314602 
L 175.277656 216.132866 
L 175.602635 211.197924 
L 175.927615 209.064106 
L 176.252594 234.771449 
L 176.577574 216.406511 
L 176.902553 211.474963 
L 177.227533 209.360039 
L 177.552513 234.923663 
L 177.877492 216.520752 
L 178.202472 211.694777 
L 178.527451 209.740557 
L 178.852431 235.233168 
L 179.17741 216.94744 
L 179.50239 212.019422 
L 179.827369 209.901395 
L 180.152349 235.308579 
L 180.477328 217.252638 
L 180.802308 212.484177 
L 181.127287 210.42625 
L 181.452267 235.708563 
L 181.777246 217.463126 
L 182.102226 212.788191 
L 182.427205 210.871353 
L 182.752185 236.069056 
L 183.077164 217.911352 
L 183.402144 213.125994 
L 183.727124 211.041035 
L 184.052103 236.152917 
L 184.377083 218.224028 
L 184.702062 213.597527 
L 185.027042 211.568398 
L 185.352021 236.552931 
L 185.677001 218.437517 
L 186.00198 213.908939 
L 186.32696 212.025323 
L 186.651939 236.914391 
L 186.976919 218.898144 
L 187.301898 214.247207 
L 187.626878 212.36716 
L 187.951857 237.22135 
L 188.276837 219.327826 
L 188.601816 214.780366 
L 188.926796 212.770336 
L 189.251775 237.410207 
L 189.576755 219.433623 
L 189.901734 215.044944 
L 190.226714 213.204617 
L 190.551694 237.760486 
L 190.876673 219.887291 
L 191.201653 215.380203 
L 191.526632 213.545598 
L 191.851612 238.070331 
L 192.176591 220.325091 
L 192.501571 215.915941 
L 192.82655 213.94676 
L 193.15153 238.258637 
L 193.476509 220.705255 
L 193.801489 216.429204 
L 194.126468 214.508136 
L 194.451448 238.669391 
L 194.776427 220.921219 
L 195.101407 216.539297 
L 195.426386 214.750524 
L 195.751366 238.9262 
L 196.076345 221.331789 
L 196.401325 217.063439 
L 196.726305 215.138403 
L 197.051284 239.108856 
L 197.376264 221.712767 
L 197.701243 217.5784 
L 198.026223 215.71158 
L 198.351202 239.519833 
L 198.676182 221.927761 
L 199.001161 217.911892 
L 199.326141 216.197582 
L 199.65112 239.884039 
L 199.9761 247.301378 
L 200.301079 251.140082 
L 200.626059 252.593566 
L 200.951038 248.62674 
L 201.276018 252.011704 
L 201.600997 252.855393 
L 201.925977 253.109463 
L 202.250956 248.88086 
L 202.575936 252.194566 
L 202.900915 252.644496 
L 203.225895 252.707959 
L 203.550875 248.682241 
L 203.875854 251.737924 
L 204.200834 252.458141 
L 204.525813 252.284822 
L 204.850793 248.442101 
L 205.175772 251.243609 
L 205.500752 251.870372 
L 205.825731 252.023353 
L 206.150711 248.315163 
L 206.47569 251.189275 
L 206.80067 251.471788 
L 207.125649 251.476252 
L 207.450629 248.006318 
L 207.775608 250.666719 
L 208.100588 251.23932 
L 208.425567 251.01421 
L 208.750547 247.740181 
L 209.075526 250.158508 
L 209.400506 250.633959 
L 209.725486 250.741969 
L 210.050465 247.606184 
L 210.375445 249.699033 
L 210.700424 250.045121 
L 211.025404 250.104374 
L 211.350383 247.256765 
L 211.675363 249.554417 
L 212.000342 249.984509 
L 212.325322 249.710202 
L 212.650301 247.025275 
L 212.975281 249.062984 
L 213.30026 249.378754 
L 213.62524 249.434702 
L 213.950219 246.891743 
L 214.275199 248.600347 
L 214.600178 248.782742 
L 214.925158 248.790169 
L 215.250137 246.539284 
L 215.575117 248.454571 
L 216.225076 248.210275 
L 216.550056 246.217135 
L 216.875035 247.913956 
L 217.200015 248.089656 
L 217.524994 248.103629 
L 217.849974 246.16742 
L 218.174953 247.484016 
L 218.824912 247.461964 
L 219.149892 245.815627 
L 219.474871 247.334363 
L 220.12483 246.866034 
L 220.44981 245.492694 
L 220.774789 246.788154 
L 221.099769 246.79965 
L 221.424748 246.380146 
L 221.749728 245.219024 
L 222.074707 246.26154 
L 222.724667 246.089773 
L 223.049646 245.079298 
L 223.374626 246.198293 
L 223.699605 245.746249 
L 224.024585 245.505264 
L 224.349564 244.759667 
L 224.674544 245.609532 
L 225.324503 245.107444 
L 225.649482 244.543156 
L 225.974462 245.219993 
L 226.9494 244.285758 
L 227.27438 244.824088 
L 227.924339 244.162165 
L 228.249318 244.048789 
L 228.574298 244.426759 
L 229.224257 243.692378 
L 229.549237 243.78918 
L 229.874216 244.015706 
L 230.524175 243.201817 
L 230.849155 243.527626 
L 231.174134 243.612648 
L 231.499114 243.035858 
L 231.824093 242.708775 
L 232.149073 243.265498 
L 232.474052 243.207461 
L 232.799032 242.571807 
L 233.124011 242.213246 
L 233.448991 243.002804 
L 233.77397 242.839946 
L 234.09895 242.110795 
L 234.423929 241.724285 
L 234.748909 242.742479 
L 235.073888 242.431759 
L 235.398868 241.635835 
L 235.723848 241.224067 
L 236.048827 242.477453 
L 236.373807 242.019958 
L 236.698786 241.157892 
L 237.023766 240.720864 
L 237.348745 242.211129 
L 237.673725 241.607024 
L 237.998704 240.717741 
L 238.323684 240.235612 
L 238.648663 241.95348 
L 239.623602 239.72832 
L 239.948581 241.685817 
L 240.92352 239.21757 
L 241.248499 241.415979 
L 241.898458 239.268136 
L 242.223438 238.727038 
L 242.548418 241.158543 
L 242.873397 239.974119 
L 243.198377 216.770421 
L 243.523356 207.695583 
L 243.848336 231.420183 
L 244.173315 212.252659 
L 244.498295 205.95778 
L 244.823274 203.537279 
L 245.148254 230.44885 
L 245.473233 211.742777 
L 245.798213 206.151116 
L 246.123192 203.984158 
L 246.448172 230.849646 
L 246.773151 212.099712 
L 247.098131 206.556549 
L 247.42311 204.40071 
L 247.74809 231.16605 
L 248.073069 212.43466 
L 248.398049 206.932065 
L 248.723029 204.78238 
L 249.048008 231.461282 
L 249.372988 212.757664 
L 249.697967 207.295891 
L 250.022947 205.150098 
L 250.347926 231.752861 
L 250.672906 213.079283 
L 250.997885 207.648348 
L 251.322865 205.505132 
L 251.647844 232.0341 
L 251.972824 213.397321 
L 252.297803 208.021918 
L 252.622783 205.882751 
L 252.947762 232.325981 
L 253.272742 213.721659 
L 253.597721 208.39364 
L 253.922701 206.264272 
L 254.24768 232.61893 
L 254.57266 214.046717 
L 254.897639 208.768062 
L 255.222619 206.646284 
L 255.547599 232.889338 
L 255.872578 214.362699 
L 256.197558 209.137831 
L 256.522537 207.027589 
L 256.847517 233.181542 
L 257.172496 214.691021 
L 257.497476 209.514328 
L 257.822455 207.411457 
L 258.147435 233.477632 
L 258.472414 215.022334 
L 258.797394 209.893245 
L 259.122373 207.799388 
L 259.447353 233.771691 
L 259.772332 215.328838 
L 260.097312 210.236355 
L 260.422291 208.178433 
L 260.747271 234.059632 
L 261.07225 215.658251 
L 261.39723 210.628701 
L 261.72221 208.570085 
L 262.047189 234.353453 
L 262.372169 215.966893 
L 262.697148 210.911136 
L 263.022128 208.914777 
L 263.347107 234.689277 
L 263.672087 216.399105 
L 263.997066 211.43382 
L 264.322046 209.315821 
L 264.647025 234.877758 
L 264.972005 216.761643 
L 265.296984 211.927281 
L 265.621964 209.853522 
L 265.946943 235.286034 
L 266.271923 216.977294 
L 266.596902 212.035564 
L 266.921882 210.061564 
L 267.246861 235.539504 
L 267.571841 217.370816 
L 267.89682 212.540978 
L 268.2218 210.455011 
L 268.54678 235.72177 
L 268.871759 217.731244 
L 269.196739 213.037045 
L 269.521718 210.99601 
L 269.846698 236.130649 
L 270.171677 217.944992 
L 270.496657 213.14473 
L 270.821636 211.208762 
L 271.146616 236.383772 
L 271.471595 218.345015 
L 271.796575 213.655589 
L 272.121554 211.597894 
L 272.446534 236.566335 
L 272.771513 218.716526 
L 273.096493 214.156965 
L 273.421472 212.149684 
L 273.746452 236.976006 
L 274.071431 218.931808 
L 274.396411 214.473409 
L 274.721391 212.615319 
L 275.04637 237.335204 
L 275.37135 219.392063 
L 275.696329 214.812116 
L 276.021309 212.786779 
L 276.346288 237.419534 
L 276.671268 219.709696 
L 276.996247 215.291984 
L 277.321227 213.328941 
L 277.646206 237.821528 
L 277.971186 219.920754 
L 278.296165 215.611397 
L 278.621145 213.793216 
L 278.946124 238.183178 
L 279.271104 220.386869 
L 279.596083 215.948406 
L 279.921063 214.139522 
L 280.246042 238.495066 
L 280.571022 220.825845 
L 280.896001 216.487822 
L 281.220981 214.538346 
L 281.545961 238.683366 
L 281.87094 220.929427 
L 282.19592 216.760652 
L 282.520899 214.988501 
L 282.845879 239.033501 
L 283.170858 221.390686 
L 283.495838 217.09433 
L 283.820817 215.339064 
L 284.145797 239.345955 
L 284.470776 221.832752 
L 284.795756 217.636779 
L 285.120735 215.741801 
L 285.445715 239.53399 
L 285.770694 222.218074 
L 286.095674 218.156684 
L 286.420653 243.710754 
L 286.745633 245.316421 
L 287.070612 250.411971 
L 287.395592 252.452588 
L 287.720572 252.843509 
L 288.045551 248.696836 
L 288.370531 252.076605 
L 288.69551 252.922043 
L 289.02049 253.163127 
L 289.345469 248.925792 
L 289.670449 251.823677 
L 289.995428 252.484451 
L 290.320408 252.647418 
L 290.645387 248.656469 
L 290.970367 251.726919 
L 291.295346 252.081687 
L 291.620326 252.109633 
L 291.945305 248.356523 
L 292.270285 251.207789 
L 292.595264 251.855319 
L 292.920244 252.016828 
L 293.245223 248.312351 
L 293.570203 250.790018 
L 293.895182 251.289957 
L 294.220162 251.399818 
L 294.545142 247.968798 
L 294.870121 250.649789 
L 295.195101 250.854497 
L 295.52008 250.834409 
L 295.84506 247.650776 
L 296.170039 250.120481 
L 296.495019 250.61764 
L 296.819998 250.369566 
L 297.144978 247.383708 
L 297.469957 249.609585 
L 297.794937 250.00869 
L 298.119916 250.089211 
L 298.444896 247.250122 
L 298.769875 249.551253 
L 299.094855 249.602721 
L 299.419834 249.528966 
L 299.744814 246.936895 
L 300.069793 249.019148 
L 300.394773 249.362637 
L 300.719753 249.056841 
L 301.044732 246.668352 
L 301.369712 248.511485 
L 301.694691 248.745391 
L 302.019671 248.774585 
L 302.34465 246.532423 
L 302.66963 248.045968 
L 302.994609 248.144726 
L 303.319589 248.126982 
L 303.644568 246.177571 
L 303.969548 247.895589 
L 304.294527 248.081349 
L 304.619507 247.732331 
L 304.944486 245.944944 
L 305.269466 247.392001 
L 305.919425 247.44601 
L 306.244404 245.808617 
L 306.569384 246.9232 
L 307.219343 246.782054 
L 307.544323 245.452869 
L 307.869302 246.769516 
L 308.519261 246.186304 
L 308.844241 245.126238 
L 309.16922 246.220434 
L 309.819179 246.082007 
L 310.144159 245.076009 
L 310.469138 245.786636 
L 311.119097 245.381717 
L 311.444077 244.696937 
L 311.769056 245.498943 
L 312.743995 244.460053 
L 313.068974 245.100918 
L 313.718934 244.450981 
L 314.043913 244.202099 
L 314.368893 244.704577 
L 315.018852 244.000669 
L 315.343831 243.951725 
L 315.668811 244.295091 
L 316.31877 243.512392 
L 316.968729 243.889551 
L 317.618688 243.020955 
L 317.943667 243.430062 
L 318.268647 243.486191 
L 318.918606 242.527264 
L 319.243585 243.167468 
L 319.568565 243.080548 
L 319.893544 242.424519 
L 320.218524 242.069286 
L 320.543504 242.926716 
L 320.868483 242.68109 
L 321.193463 241.954152 
L 321.518442 241.572186 
L 321.843422 242.662732 
L 322.168401 242.270469 
L 322.493381 241.477635 
L 322.81836 241.070756 
L 323.14334 242.396958 
L 323.468319 241.858356 
L 323.793299 240.999008 
L 324.118278 240.566674 
L 324.443258 242.130276 
L 324.768237 241.486505 
L 325.093217 240.539297 
L 325.418196 240.069496 
L 325.743176 241.866927 
L 326.718115 239.560783 
L 327.043094 241.598604 
L 328.018033 239.05654 
L 328.343012 241.332968 
L 328.992971 239.109359 
L 329.317951 238.558391 
L 329.64293 241.068845 
L 329.96791 228.151522 
L 330.292889 222.170987 
L 330.617869 219.154899 
L 330.942848 236.152857 
L 331.267828 224.680445 
L 331.592807 220.637263 
L 331.917787 218.662533 
L 332.242766 236.253283 
L 332.567746 224.877038 
L 332.892725 221.044293 
L 333.217705 219.145291 
L 333.542685 236.593116 
L 333.867664 225.320967 
L 334.192644 221.583823 
L 334.517623 219.728961 
L 334.842603 236.966451 
L 335.167582 225.79902 
L 335.492562 222.140251 
L 335.817541 220.319296 
L 336.142521 237.336363 
L 336.4675 226.278458 
L 336.79248 222.711245 
L 337.117459 220.905444 
L 337.442439 237.706504 
L 337.767418 226.717956 
L 338.092398 223.236028 
L 338.417377 221.479588 
L 338.742357 238.065704 
L 339.067336 227.193018 
L 339.392316 223.788049 
L 339.717296 222.070381 
L 340.042275 238.437605 
L 340.367255 227.67274 
L 340.692234 224.330935 
L 341.017214 222.652622 
L 341.342193 238.802047 
L 341.667173 228.150107 
L 341.992152 224.850174 
L 342.317132 223.195593 
L 342.642111 239.152356 
L 342.967091 228.61989 
L 343.29207 225.398833 
L 343.61705 223.774651 
L 343.942029 239.513979 
L 344.267009 229.096889 
L 344.591988 225.95088 
L 344.916968 224.372082 
L 345.241947 239.875543 
L 345.566927 229.574834 
L 345.891906 226.498257 
L 346.216886 224.921977 
L 346.541866 240.20934 
L 346.866845 230.037342 
L 347.191825 227.041271 
L 347.516804 225.49828 
L 347.841784 240.56641 
L 348.166763 230.512932 
L 348.491743 227.589226 
L 348.816722 226.041141 
L 349.141702 240.898023 
L 349.466681 230.813716 
L 349.791661 228.151154 
L 350.11664 226.761444 
L 350.44162 241.354662 
L 350.766599 231.476747 
L 351.091579 228.573958 
L 351.416558 227.296438 
L 351.741538 241.721913 
L 352.066517 232.069101 
L 352.391497 229.314087 
L 352.716477 227.783349 
L 353.041456 241.958543 
L 353.366436 232.196377 
L 353.691415 229.728293 
L 354.016395 228.413966 
L 354.341374 242.368873 
L 354.666354 232.831742 
L 354.991333 230.133689 
L 355.316313 228.940699 
L 355.641292 242.729291 
L 355.966272 233.436609 
L 356.291251 230.870569 
L 356.616231 229.423968 
L 356.94121 242.962393 
L 357.26619 233.55718 
L 357.591169 231.284582 
L 357.916149 230.052287 
L 358.241128 243.37144 
L 358.566108 234.175081 
L 358.891087 231.688175 
L 359.216067 230.577018 
L 359.541047 243.728792 
L 359.866026 234.777952 
L 360.191006 232.421641 
L 360.515985 231.05945 
L 360.840965 243.961697 
L 361.165944 235.306141 
L 361.490924 233.123484 
L 361.815903 231.8192 
L 362.140883 244.433429 
L 362.465862 235.559828 
L 362.790842 233.251583 
L 363.115821 232.207552 
L 363.440801 244.720731 
L 363.76578 236.121374 
L 364.09076 233.966437 
L 364.415739 232.664791 
L 364.740719 244.942249 
L 365.065698 236.649333 
L 365.390678 234.661215 
L 365.715658 233.432408 
L 366.040637 245.412866 
L 366.365617 236.898971 
L 366.690596 235.141291 
L 367.015576 234.095395 
L 367.340555 245.827291 
L 367.665535 237.528512 
L 367.990514 235.534005 
L 368.315494 234.295542 
L 368.640473 245.926237 
L 368.965453 237.99065 
L 369.290432 236.19258 
L 369.615412 235.038136 
L 369.940391 246.384007 
L 370.265371 238.221053 
L 370.59035 236.668814 
L 370.91533 235.689153 
L 371.240309 246.789653 
L 371.565289 238.851635 
L 371.890268 237.056941 
L 372.215248 236.204387 
L 372.540228 247.137362 
L 372.865207 239.452063 
L 373.190187 255.375484 
L 373.515166 261.021651 
L 373.840146 253.890188 
L 374.165125 261.209859 
L 374.490105 264.029008 
L 374.815084 265.248 
L 375.140064 255.630902 
L 375.465043 261.930146 
L 375.790023 264.481409 
L 376.115002 265.070356 
L 376.439982 255.540877 
L 376.764961 261.430892 
L 377.089941 263.819729 
L 377.41492 264.803437 
L 377.7399 255.40627 
L 378.064879 260.877641 
L 378.389859 263.109366 
L 378.714839 264.037716 
L 379.039818 255.027097 
L 379.364798 260.71709 
L 379.689777 263.043459 
L 380.014757 263.548803 
L 380.339736 254.782875 
L 380.664716 260.110481 
L 380.989695 262.301606 
L 381.314675 263.234736 
L 381.639654 254.62479 
L 381.964634 259.539442 
L 382.289613 261.567204 
L 382.614593 262.427357 
L 382.939572 254.234299 
L 383.264552 259.370062 
L 383.589531 261.006563 
L 383.914511 261.713589 
L 384.23949 253.879936 
L 384.56447 258.708514 
L 384.889449 260.721544 
L 385.214429 261.59087 
L 385.539409 253.818657 
L 385.864388 258.167176 
L 386.189368 259.996724 
L 386.514347 260.791912 
L 386.839327 253.424979 
L 387.164306 257.994043 
L 387.489286 259.425727 
L 387.814265 260.057302 
L 388.139245 253.060527 
L 388.464224 257.321917 
L 388.789204 259.132583 
L 389.114183 259.435415 
L 389.439163 252.756087 
L 389.764142 256.673132 
L 390.089122 258.349412 
L 390.414101 259.090596 
L 390.739081 252.583782 
L 391.06406 256.596377 
L 391.38904 257.815594 
L 391.71402 258.362638 
L 392.038999 252.229989 
L 392.363979 255.921027 
L 392.688958 257.517358 
L 393.013938 257.731858 
L 393.338917 251.921784 
L 393.663897 255.281054 
L 393.988876 256.721811 
L 394.313856 257.376167 
L 394.638835 251.743889 
L 394.638835 251.743889 
" clip-path="url(#p311bbefdd4)" style="fill: none; stroke-dasharray: 0.74,0.32; stroke-dashoffset: 0; stroke: #c71585; stroke-width: 0.2"/>
   </g>
   <g id="line2d_35">
    <path d="M 69.98429 240.656817 
L 70.309269 239.405368 
L 70.634249 238.660779 
L 71.284208 237.957717 
L 71.934167 237.712435 
L 73.234085 237.598239 
L 79.408696 237.583019 
L 134.655215 237.583018 
L 136.280113 213.189051 
L 137.255051 202.213674 
L 138.22999 193.370598 
L 139.204929 186.450033 
L 140.179867 181.139184 
L 141.154806 177.088329 
L 142.129744 174.060937 
L 142.779703 172.527948 
L 143.429662 171.385023 
L 144.404601 170.173297 
L 145.37954 169.364398 
L 146.354478 168.834113 
L 147.654396 168.414003 
L 147.979376 134.24807 
L 148.304355 131.139238 
L 148.629335 131.833421 
L 149.279294 136.380002 
L 150.579212 146.697552 
L 151.554151 152.309263 
L 152.20411 154.903394 
L 152.854069 156.738119 
L 153.504028 157.953545 
L 154.153987 158.687899 
L 154.803946 159.052101 
L 155.453905 159.139355 
L 156.103864 159.030611 
L 157.078802 158.625104 
L 158.378721 157.774048 
L 160.003618 156.378738 
L 161.628516 154.719383 
L 164.228352 151.692166 
L 167.153168 148.092509 
L 167.478147 124.621565 
L 167.803127 130.322129 
L 168.778065 152.070985 
L 169.428024 162.266667 
L 170.077983 168.854172 
L 170.727943 172.953188 
L 171.377902 175.489876 
L 172.027861 177.073817 
L 172.67782 178.094536 
L 173.652758 179.061189 
L 174.952676 179.896187 
L 176.902553 180.80731 
L 183.727124 183.573417 
L 189.576755 186.05499 
L 194.776427 188.135322 
L 199.9761 190.218401 
L 200.301079 191.004254 
L 200.626059 191.123636 
L 200.951038 190.707729 
L 201.600997 189.09435 
L 204.200834 181.02744 
L 205.175772 178.798005 
L 206.150711 177.027988 
L 207.450629 175.149135 
L 209.075526 173.244793 
L 211.350383 170.953212 
L 217.849974 164.388972 
L 224.024585 157.764642 
L 226.9494 154.51126 
L 230.524175 150.123158 
L 232.149073 148.111473 
L 232.474052 124.636787 
L 232.799032 130.334465 
L 233.77397 152.076849 
L 234.423929 162.270086 
L 235.073888 168.856149 
L 235.723848 172.954335 
L 236.373807 175.490527 
L 237.023766 177.074186 
L 237.673725 178.094737 
L 238.648663 179.061267 
L 239.948581 179.896215 
L 241.898458 180.80731 
L 248.723029 183.573417 
L 254.57266 186.05499 
L 259.772332 188.135322 
L 264.647025 190.029199 
L 265.296984 218.48344 
L 265.621964 225.077937 
L 265.946943 228.842791 
L 266.271923 230.951254 
L 266.596902 232.056097 
L 266.921882 232.553827 
L 267.246861 232.68466 
L 267.571841 232.596687 
L 268.2218 232.094698 
L 274.396411 226.08387 
L 280.571022 220.582086 
L 291.295346 211.460779 
L 297.144978 206.893513 
L 297.469957 192.579925 
L 298.444896 210.427861 
L 299.094855 216.737442 
L 299.744814 219.905042 
L 300.394773 221.483583 
L 301.044732 222.307882 
L 302.019671 222.977344 
L 303.644568 223.691769 
L 309.819179 226.245392 
L 314.368893 228.404658 
L 319.893544 231.298905 
L 325.093217 234.25244 
L 330.617869 237.451469 
L 331.917787 237.565606 
L 337.767418 237.583018 
L 394.638835 237.583018 
L 394.638835 237.583018 
" clip-path="url(#p311bbefdd4)" style="fill: none; stroke: #4682b4; stroke-linecap: square"/>
   </g>
   <g id="line2d_36">
    <path d="M 69.98429 242.35437 
L 70.634249 241.847456 
L 71.284208 241.653042 
L 72.584126 241.558479 
L 80.383635 241.546528 
L 156.103864 241.546528 
L 156.428843 214.7448 
L 156.753823 226.938652 
L 157.403782 182.624725 
L 157.728762 168.418756 
L 158.053741 203.672472 
L 158.7037 171.176093 
L 159.02868 160.70567 
L 159.353659 198.788187 
L 160.003618 169.595654 
L 160.328598 159.858214 
L 160.653577 197.7513 
L 161.303536 169.888342 
L 161.628516 160.33777 
L 161.953495 197.631259 
L 162.603454 170.574783 
L 162.928434 161.115965 
L 163.253413 197.771544 
L 164.228352 161.901113 
L 164.553332 197.973788 
L 165.52827 162.786862 
L 165.85325 198.217955 
L 166.828188 163.676373 
L 167.153168 198.475399 
L 168.128106 164.574063 
L 168.453086 198.741154 
L 169.428024 165.449857 
L 169.753004 199.002693 
L 170.727943 166.350339 
L 171.052922 199.26968 
L 172.027861 167.253503 
L 172.35284 199.541997 
L 173.327779 168.142316 
L 173.652758 199.809324 
L 173.977738 213.625209 
L 174.302717 215.487388 
L 174.627697 215.378685 
L 174.952676 219.236023 
L 175.277656 225.75193 
L 175.927615 218.832727 
L 176.252594 220.920724 
L 176.577574 227.52073 
L 177.227533 220.099845 
L 177.552513 221.349796 
L 177.877492 227.749883 
L 178.527451 221.042497 
L 178.852431 221.561885 
L 179.17741 228.625231 
L 179.827369 221.128055 
L 180.152349 221.581309 
L 180.477328 229.396009 
L 181.127287 222.074883 
L 181.452267 221.762938 
L 181.777246 229.509019 
L 182.427205 222.960924 
L 182.752185 221.918215 
L 183.077164 230.357605 
L 183.727124 223.034542 
L 184.052103 221.926294 
L 184.377083 231.126336 
L 185.027042 223.977251 
L 185.352021 222.108321 
L 185.677001 231.246567 
L 186.651939 222.277164 
L 186.976919 232.1052 
L 187.301898 228.1921 
L 187.951857 222.42996 
L 188.276837 232.956737 
L 189.251775 222.491763 
L 189.576755 232.997817 
L 190.551694 222.665525 
L 190.876673 233.866745 
L 191.201653 230.084952 
L 191.526632 227.619053 
L 191.851612 222.817724 
L 192.176591 234.713879 
L 193.15153 222.885332 
L 193.476509 235.521717 
L 194.126468 228.822906 
L 194.451448 223.089633 
L 194.776427 235.645347 
L 195.426386 229.570595 
L 195.751366 223.226008 
L 196.076345 236.484105 
L 196.726305 229.810545 
L 197.051284 223.298706 
L 197.376264 237.293507 
L 198.026223 230.790117 
L 198.351202 223.500215 
L 198.676182 237.419295 
L 199.326141 231.688031 
L 199.65112 223.706745 
L 199.9761 250.261118 
L 200.301079 256.142726 
L 200.626059 258.176574 
L 200.951038 242.206145 
L 201.276018 258.607298 
L 201.600997 260.295212 
L 201.925977 260.298684 
L 202.250956 244.071244 
L 202.575936 259.440131 
L 202.900915 260.355575 
L 203.225895 260.110763 
L 203.550875 244.289955 
L 203.875854 259.000025 
L 204.200834 260.340446 
L 204.525813 259.66661 
L 204.850793 244.274877 
L 205.175772 258.450205 
L 205.500752 259.764498 
L 205.825731 259.576391 
L 206.150711 244.268571 
L 206.47569 258.444216 
L 206.80067 259.280994 
L 207.125649 259.030808 
L 207.450629 244.191361 
L 207.775608 257.872012 
L 208.100588 259.175659 
L 208.425567 258.529247 
L 208.750547 244.127131 
L 209.075526 257.307234 
L 209.400506 258.584246 
L 209.725486 258.426895 
L 210.050465 244.113002 
L 210.375445 256.767476 
L 210.700424 257.999507 
L 211.025404 257.858567 
L 211.350383 244.031921 
L 211.675363 256.726042 
L 212.000342 257.994978 
L 212.325322 257.391222 
L 212.650301 243.974212 
L 212.975281 256.170422 
L 213.30026 257.40498 
L 213.62524 257.286626 
L 213.950219 243.959464 
L 214.275199 255.635118 
L 214.600178 256.82204 
L 214.925158 256.700066 
L 215.250137 243.878026 
L 215.575117 255.594615 
L 215.900096 256.338555 
L 216.225076 256.161858 
L 216.550056 243.804056 
L 216.875035 255.032637 
L 217.200015 256.229508 
L 217.524994 256.135446 
L 217.849974 243.808875 
L 218.174953 254.513141 
L 218.499933 255.6498 
L 218.824912 255.564268 
L 219.149892 243.725808 
L 219.474871 254.47033 
L 219.799851 255.171325 
L 220.12483 255.021231 
L 220.44981 243.650107 
L 220.774789 253.913232 
L 221.099769 255.06045 
L 221.424748 254.535685 
L 221.749728 243.587817 
L 222.074707 253.366212 
L 222.399687 254.475852 
L 222.724667 254.430393 
L 223.049646 243.57498 
L 223.374626 253.358969 
L 223.699605 254.011973 
L 224.024585 253.896552 
L 224.349564 243.497228 
L 224.674544 252.757109 
L 224.999523 253.746973 
L 225.324503 253.577573 
L 225.649482 243.456532 
L 225.974462 252.37688 
L 226.299441 253.344987 
L 226.624421 253.170813 
L 226.9494 243.400879 
L 227.27438 251.998583 
L 227.599359 252.94233 
L 227.924339 252.824446 
L 228.249318 243.352703 
L 228.574298 251.621213 
L 228.899277 252.54215 
L 229.224257 252.448996 
L 229.549237 243.297597 
L 229.874216 251.239823 
L 230.199196 252.142612 
L 230.524175 252.060854 
L 230.849155 243.241789 
L 231.174134 250.866224 
L 231.499114 251.74434 
L 231.824093 251.67416 
L 232.149073 243.18566 
L 232.474052 250.493795 
L 232.799032 251.351076 
L 233.124011 251.288883 
L 233.448991 243.12922 
L 233.77397 250.171342 
L 234.09895 250.964984 
L 234.423929 250.908467 
L 234.748909 243.07199 
L 235.073888 249.802366 
L 235.398868 250.571741 
L 235.723848 250.525744 
L 236.048827 243.013482 
L 236.373807 249.435051 
L 236.698786 250.180154 
L 237.023766 250.144569 
L 237.348745 242.954326 
L 237.673725 249.070522 
L 237.998704 249.834375 
L 238.323684 249.774111 
L 238.648663 242.896494 
L 238.973643 248.709513 
L 239.298622 249.446251 
L 239.623602 249.39573 
L 239.948581 242.835133 
L 240.273561 248.347411 
L 240.59854 249.059817 
L 240.92352 249.019081 
L 241.248499 242.772588 
L 241.573479 247.999228 
L 241.898458 248.673388 
L 242.223438 248.668141 
L 242.548418 242.713191 
L 242.873397 247.648907 
L 243.523356 220.998824 
L 243.848336 226.618277 
L 244.173315 222.574592 
L 244.498295 216.479442 
L 244.823274 212.559211 
L 245.148254 221.296424 
L 245.473233 220.269236 
L 246.123192 211.907108 
L 246.448172 220.403509 
L 246.773151 220.268791 
L 247.42311 212.256281 
L 247.74809 220.260141 
L 248.073069 220.717634 
L 248.723029 212.814371 
L 249.048008 220.292345 
L 249.372988 221.255514 
L 250.022947 213.40725 
L 250.347926 220.366054 
L 250.672906 221.81579 
L 251.322865 214.024413 
L 251.647844 220.451527 
L 251.972824 222.384676 
L 252.622783 214.654053 
L 252.947762 220.544916 
L 253.272742 222.959434 
L 253.922701 215.289445 
L 254.24768 220.640548 
L 254.57266 223.536059 
L 255.222619 215.86625 
L 255.872578 224.110198 
L 256.522537 216.506461 
L 257.172496 224.694843 
L 257.822455 217.152597 
L 258.472414 225.282483 
L 259.122373 217.799952 
L 259.447353 221.029946 
L 259.772332 225.797856 
L 260.422291 218.448683 
L 260.747271 221.133449 
L 261.07225 226.389078 
L 261.72221 219.095672 
L 262.047189 221.243708 
L 262.372169 226.910282 
L 262.697148 222.580335 
L 263.022128 219.9666 
L 263.347107 221.38678 
L 263.672087 227.750484 
L 264.322046 220.188116 
L 264.647025 221.427535 
L 264.972005 228.536397 
L 265.621964 221.128537 
L 265.946943 221.597831 
L 266.271923 228.645692 
L 266.596902 224.443565 
L 266.921882 221.852106 
L 267.246861 221.711048 
L 267.571841 229.471387 
L 268.2218 222.082731 
L 268.54678 221.760576 
L 268.871759 230.257316 
L 269.521718 223.027202 
L 269.846698 221.933802 
L 270.171677 230.369731 
L 270.496657 226.313514 
L 271.146616 222.050145 
L 271.471595 231.205608 
L 272.121554 223.986096 
L 272.446534 222.10608 
L 272.771513 232.001671 
L 273.421472 224.939172 
L 273.746452 222.294718 
L 274.071431 232.118481 
L 275.04637 222.474793 
L 275.37135 232.982673 
L 276.346288 222.490108 
L 276.671268 233.762264 
L 277.646206 222.686525 
L 277.971186 233.881712 
L 278.621145 227.782743 
L 278.946124 222.864926 
L 279.271104 234.745503 
L 280.246042 223.019649 
L 280.571022 235.597664 
L 281.220981 228.834771 
L 281.545961 223.089931 
L 281.87094 235.64756 
L 282.520899 229.729182 
L 282.845879 223.272845 
L 283.170858 236.515286 
L 283.820817 230.540527 
L 284.145797 223.424114 
L 284.470776 237.369144 
L 285.120735 230.80329 
L 285.445715 223.501989 
L 285.770694 238.17983 
L 286.095674 234.783172 
L 286.420653 244.284082 
L 286.745633 234.263787 
L 287.070612 255.363264 
L 287.395592 258.766584 
L 287.720572 259.131016 
L 288.045551 243.149634 
L 288.370531 259.028344 
L 288.69551 260.572546 
L 289.02049 260.480469 
L 289.345469 244.222002 
L 289.670449 258.968872 
L 289.995428 260.302892 
L 290.320408 260.113157 
L 290.645387 244.310967 
L 290.970367 259.008086 
L 291.295346 259.860471 
L 291.620326 259.596809 
L 291.945305 244.263808 
L 292.270285 258.443478 
L 292.595264 259.765147 
L 292.920244 259.578576 
L 293.245223 244.271781 
L 293.570203 257.911715 
L 293.895182 259.18224 
L 294.220162 259.002949 
L 294.545142 244.187909 
L 294.870121 257.869472 
L 295.195101 258.690057 
L 295.52008 258.453301 
L 295.84506 244.111978 
L 296.170039 257.298732 
L 296.495019 258.58403 
L 296.819998 257.956395 
L 297.144978 244.049032 
L 297.469957 256.736086 
L 297.794937 257.993774 
L 298.119916 257.860052 
L 298.444896 244.036288 
L 298.769875 256.727754 
L 299.094855 257.513642 
L 299.419834 257.313771 
L 299.744814 243.958481 
L 300.069793 256.159674 
L 300.394773 257.405094 
L 300.719753 256.81741 
L 301.044732 243.895674 
L 301.369712 255.604694 
L 301.694691 256.81643 
L 302.019671 256.701939 
L 302.34465 243.882589 
L 302.66963 255.072846 
L 302.994609 256.234294 
L 303.319589 256.130638 
L 303.644568 243.800716 
L 303.969548 255.030467 
L 304.294527 256.230815 
L 304.619507 255.67795 
L 304.944486 243.745084 
L 305.269466 254.480891 
L 305.594445 255.644077 
L 305.919425 255.566277 
L 306.244404 243.730389 
L 306.569384 253.954604 
L 306.894363 255.065203 
L 307.219343 254.990859 
L 307.544323 243.647238 
L 307.869302 253.911493 
L 308.194282 254.589986 
L 308.519261 254.455106 
L 308.844241 243.572652 
L 309.16922 253.358167 
L 309.4942 254.477044 
L 309.819179 254.433681 
L 310.144159 243.57868 
L 310.469138 252.850165 
L 310.794118 253.903294 
L 311.119097 253.819695 
L 311.444077 243.487021 
L 311.769056 252.650258 
L 312.094036 253.586063 
L 312.419015 253.44382 
L 312.743995 243.438805 
L 313.068974 252.266578 
L 313.393954 253.183566 
L 313.718934 253.050573 
L 314.043913 243.38369 
L 314.368893 251.889132 
L 314.693872 252.82783 
L 315.018852 252.68294 
L 315.343831 243.331112 
L 315.668811 251.506198 
L 315.99379 252.427423 
L 316.31877 252.293947 
L 316.643749 243.275451 
L 316.968729 251.128985 
L 317.293708 252.028254 
L 317.618688 251.906467 
L 317.943667 243.219718 
L 318.268647 250.756101 
L 318.593626 251.633702 
L 318.918606 251.520715 
L 319.243585 243.163684 
L 319.568565 250.384319 
L 319.893544 251.234798 
L 320.218524 251.179417 
L 320.543504 243.113462 
L 320.868483 250.017428 
L 321.193463 250.841212 
L 321.518442 250.795622 
L 321.843422 243.054972 
L 322.168401 249.648724 
L 322.493381 250.448255 
L 322.81836 250.413247 
L 323.14334 242.996294 
L 323.468319 249.282797 
L 323.793299 250.057239 
L 324.118278 250.032449 
L 324.443258 242.936872 
L 324.768237 248.96664 
L 325.093217 249.679998 
L 325.418196 249.656997 
L 325.743176 242.877208 
L 326.068155 248.603226 
L 326.393135 249.29259 
L 326.718115 249.279015 
L 327.043094 242.815279 
L 327.368074 248.243871 
L 327.693053 248.906971 
L 328.018033 248.910633 
L 328.343012 242.754035 
L 328.667992 247.881392 
L 328.992971 248.54757 
L 329.317951 248.545113 
L 329.64293 242.690871 
L 330.292889 220.822188 
L 330.617869 216.017208 
L 330.942848 227.192432 
L 331.592807 216.689518 
L 331.917787 214.077828 
L 332.242766 226.094984 
L 332.892725 216.75459 
L 333.217705 214.28423 
L 333.542685 226.051529 
L 334.192644 217.181638 
L 334.517623 214.745738 
L 334.842603 226.13632 
L 335.492562 217.655923 
L 335.817541 215.243996 
L 336.142521 226.234408 
L 336.79248 218.135919 
L 337.117459 215.744729 
L 337.442439 226.337812 
L 338.092398 218.606351 
L 338.417377 216.25149 
L 338.742357 226.439265 
L 339.717296 216.758768 
L 340.042275 226.543858 
L 341.017214 217.264398 
L 341.342193 226.645949 
L 342.317132 217.751987 
L 342.642111 226.7454 
L 342.967091 224.196645 
L 343.29207 220.528902 
L 343.61705 218.264081 
L 343.942029 226.849127 
L 344.267009 224.63805 
L 344.591988 221.027412 
L 344.916968 218.801327 
L 345.241947 226.954587 
L 345.566927 225.08306 
L 345.891906 221.526109 
L 346.216886 219.269257 
L 346.541866 227.048368 
L 346.866845 225.522207 
L 347.191825 222.025136 
L 347.516804 219.788422 
L 347.841784 227.152871 
L 348.166763 225.970256 
L 348.816722 220.2555 
L 349.141702 227.247033 
L 349.466681 226.201011 
L 350.11664 220.965995 
L 350.44162 227.393764 
L 350.766599 226.849541 
L 351.091579 223.375856 
L 351.416558 221.570778 
L 351.741538 227.508581 
L 352.066517 227.469318 
L 352.716477 221.794339 
L 353.041456 227.555686 
L 353.366436 227.51277 
L 354.016395 222.470465 
L 354.341374 227.694801 
L 354.666354 228.15391 
L 354.991333 224.82845 
L 355.316313 223.080519 
L 355.641292 227.812355 
L 355.966272 228.769588 
L 356.616231 223.305299 
L 356.94121 227.861156 
L 357.26619 228.811744 
L 357.916149 223.986045 
L 358.241128 228.0027 
L 358.566108 229.452493 
L 358.891087 226.292516 
L 359.216067 224.600994 
L 359.541047 228.122252 
L 359.866026 230.087645 
L 360.515985 224.816747 
L 361.165944 230.679861 
L 361.815903 225.569906 
L 362.465862 230.792048 
L 362.790842 227.769362 
L 363.115821 226.127511 
L 363.76578 231.41363 
L 364.415739 226.345211 
L 364.740719 228.488817 
L 365.065698 232.012208 
L 365.715658 227.094913 
L 366.040637 228.649543 
L 366.365617 232.123793 
L 367.015576 227.794102 
L 367.340555 228.79559 
L 367.665535 232.777463 
L 368.315494 227.877368 
L 368.640473 228.811049 
L 368.965453 233.351034 
L 369.615412 228.621961 
L 369.940391 228.975438 
L 370.265371 233.456355 
L 370.91533 229.318722 
L 371.240309 229.124211 
L 371.565289 234.112972 
L 371.890268 231.458412 
L 372.215248 229.942742 
L 372.540228 229.253069 
L 373.515166 243.943775 
L 373.840146 240.062609 
L 374.165125 247.26321 
L 374.490105 248.392852 
L 374.815084 248.84499 
L 375.140064 243.05078 
L 375.465043 248.446219 
L 375.790023 249.198372 
L 376.115002 249.006598 
L 376.439982 243.303371 
L 376.764961 248.243117 
L 377.089941 248.915798 
L 377.41492 249.012567 
L 377.7399 243.332911 
L 378.064879 247.924981 
L 378.389859 248.553669 
L 378.714839 248.649356 
L 379.039818 243.273726 
L 379.364798 247.909744 
L 379.689777 248.560015 
L 380.014757 248.347521 
L 380.339736 243.223662 
L 380.664716 247.562788 
L 380.989695 248.179544 
L 381.314675 248.295179 
L 381.639654 243.217538 
L 381.964634 247.235389 
L 382.289613 247.809249 
L 382.614593 247.915783 
L 382.939572 243.150388 
L 383.264552 247.215616 
L 383.589531 247.497641 
L 383.914511 247.563768 
L 384.23949 243.083114 
L 384.56447 246.869461 
L 384.889449 247.441316 
L 385.214429 247.558192 
L 385.539409 243.089544 
L 385.864388 246.563957 
L 386.189368 247.073717 
L 386.514347 247.188167 
L 386.839327 243.017226 
L 387.164306 246.541462 
L 387.489286 246.765925 
L 387.814265 246.837054 
L 388.139245 242.948197 
L 388.464224 246.196979 
L 388.789204 246.706797 
L 389.114183 246.524569 
L 389.439163 242.890634 
L 389.764142 245.864572 
L 390.089122 246.342807 
L 390.414101 246.461583 
L 390.739081 242.878726 
L 391.06406 245.862986 
L 391.71402 246.116081 
L 392.038999 242.80675 
L 392.363979 245.51986 
L 392.688958 245.98525 
L 393.013938 245.811003 
L 393.338917 242.747335 
L 393.663897 245.201333 
L 393.988876 245.626708 
L 394.313856 245.742828 
L 394.638835 242.731267 
L 394.638835 242.731267 
" clip-path="url(#p311bbefdd4)" style="fill: none; stroke-dasharray: 0.74,0.32; stroke-dashoffset: 0; stroke: #4682b4; stroke-width: 0.2"/>
   </g>
   <g id="line2d_37">
    <path d="M 69.98429 242.268182 
L 70.309269 241.789838 
L 70.959228 241.348726 
L 71.934167 241.16713 
L 74.534003 241.123176 
L 134.655215 241.122596 
L 134.980195 239.581569 
L 136.280113 231.563615 
L 137.255051 226.821842 
L 138.22999 223.16967 
L 139.204929 220.362972 
L 140.179867 218.252247 
L 141.479785 216.082766 
L 142.454724 214.79257 
L 143.429662 213.826654 
L 144.729581 212.871565 
L 146.354478 211.959348 
L 147.654396 211.345465 
L 147.979376 207.798291 
L 148.304355 208.045143 
L 148.954314 208.796221 
L 149.929253 209.440245 
L 151.87913 210.299162 
L 153.179048 210.576564 
L 154.478966 210.639048 
L 156.428843 210.459627 
L 160.003618 209.881833 
L 167.153168 208.62628 
L 167.478147 211.28286 
L 168.128106 219.290222 
L 168.778065 224.078252 
L 169.428024 226.786154 
L 170.077983 228.261535 
L 170.727943 229.091415 
L 171.377902 229.587393 
L 172.35284 230.028965 
L 174.302717 230.573505 
L 182.102226 232.644707 
L 186.651939 234.086448 
L 191.851612 236.001205 
L 197.051284 238.141764 
L 199.65112 239.305061 
L 200.301079 233.014949 
L 200.951038 228.613574 
L 201.600997 225.483276 
L 202.250956 223.212339 
L 202.900915 221.553495 
L 203.875854 219.773329 
L 204.850793 218.525078 
L 206.150711 217.330307 
L 207.775608 216.228012 
L 209.725486 215.184061 
L 212.650301 213.885441 
L 216.225076 212.510222 
L 221.424748 210.826583 
L 224.999523 209.966561 
L 230.524175 208.868623 
L 232.149073 208.631273 
L 232.474052 211.286899 
L 233.124011 219.292561 
L 233.77397 224.079546 
L 234.423929 226.78682 
L 235.073888 228.261879 
L 235.723848 229.091592 
L 236.373807 229.587477 
L 237.348745 230.028995 
L 239.298622 230.573509 
L 247.098131 232.644707 
L 251.647844 234.086448 
L 256.847517 236.001205 
L 262.047189 238.141764 
L 264.647025 239.305061 
L 264.972005 233.621796 
L 265.296984 230.724932 
L 265.946943 227.492892 
L 266.596902 225.722218 
L 267.246861 224.584938 
L 268.2218 223.42751 
L 269.521718 222.332058 
L 271.471595 221.033918 
L 275.696329 218.56431 
L 279.271104 216.667152 
L 284.145797 214.379812 
L 289.02049 212.371136 
L 293.570203 210.778053 
L 297.144978 209.668402 
L 298.119916 220.797533 
L 298.769875 224.319173 
L 299.419834 226.024713 
L 300.069793 226.902382 
L 300.719753 227.407839 
L 302.019671 228.017923 
L 314.043913 232.721103 
L 319.568565 235.303893 
L 324.768237 237.9658 
L 330.617869 241.042305 
L 332.242766 241.117751 
L 350.11664 241.122596 
L 394.638835 241.122596 
L 394.638835 241.122596 
" clip-path="url(#p311bbefdd4)" style="fill: none; stroke: #6b8e23; stroke-linecap: square"/>
   </g>
   <g id="line2d_38">
    <path d="M 69.98429 242.721346 
L 70.634249 242.375259 
L 71.609187 242.218624 
L 74.209024 242.179385 
L 156.103864 242.178953 
L 156.428843 240.653439 
L 156.753823 237.604322 
L 157.078802 238.434494 
L 157.728762 230.78281 
L 158.053741 228.151494 
L 158.378721 233.579975 
L 159.02868 227.307857 
L 159.353659 224.996546 
L 159.678639 232.018961 
L 160.653577 223.946796 
L 160.978557 231.574507 
L 161.953495 223.536296 
L 162.278475 231.456027 
L 163.253413 223.324277 
L 163.578393 231.435758 
L 164.553332 223.184645 
L 164.878311 231.451748 
L 165.85325 223.060233 
L 166.178229 231.476469 
L 167.153168 222.944003 
L 167.478147 231.500821 
L 168.453086 222.832836 
L 168.778065 231.513401 
L 169.753004 222.728279 
L 170.077983 231.54566 
L 171.052922 222.626097 
L 171.377902 231.581361 
L 172.35284 222.5264 
L 172.67782 231.599044 
L 173.652758 222.433622 
L 173.977738 233.500098 
L 174.302717 233.317103 
L 174.627697 232.927198 
L 174.952676 228.647095 
L 175.277656 236.501095 
L 175.927615 234.272986 
L 176.252594 229.736449 
L 176.577574 237.06202 
L 177.227533 234.517692 
L 177.552513 229.793531 
L 177.877492 237.064566 
L 178.527451 234.579304 
L 178.852431 229.678239 
L 179.17741 237.0642 
L 179.827369 234.512923 
L 180.152349 229.641297 
L 180.477328 237.113199 
L 181.127287 234.498564 
L 181.452267 229.466036 
L 181.777246 237.018801 
L 182.427205 234.509394 
L 182.752185 229.303541 
L 183.077164 237.000866 
L 183.727124 234.436723 
L 184.052103 229.257505 
L 184.377083 237.044712 
L 185.027042 234.42475 
L 185.352021 229.088333 
L 185.677001 236.953485 
L 186.32696 234.442536 
L 186.651939 228.936324 
L 186.976919 236.942364 
L 187.626878 234.514833 
L 187.951857 228.808759 
L 188.276837 236.936122 
L 188.926796 234.368773 
L 189.251775 228.730587 
L 189.576755 236.900931 
L 190.226714 234.401245 
L 190.551694 228.593908 
L 190.876673 236.888964 
L 191.526632 234.475332 
L 191.851612 228.47558 
L 192.176591 236.893107 
L 192.82655 234.339363 
L 193.15153 228.404977 
L 193.476509 236.917655 
L 194.126468 234.344919 
L 194.451448 228.259739 
L 194.776427 236.844056 
L 195.426386 234.452996 
L 195.751366 228.164696 
L 196.076345 236.853777 
L 196.726305 234.328676 
L 197.051284 228.103665 
L 197.376264 236.879405 
L 198.026223 234.336579 
L 198.351202 227.96765 
L 198.676182 236.812262 
L 199.326141 234.369279 
L 199.65112 227.849279 
L 199.9761 233.206488 
L 200.301079 233.031046 
L 200.626059 233.125412 
L 201.276018 235.746281 
L 201.600997 234.823135 
L 201.925977 234.341743 
L 202.575936 236.230108 
L 202.900915 235.095236 
L 203.225895 234.54613 
L 203.550875 235.688652 
L 203.875854 236.335639 
L 204.200834 235.222605 
L 204.525813 234.566311 
L 204.850793 235.804875 
L 205.175772 236.374485 
L 205.500752 235.272315 
L 205.825731 234.669181 
L 206.150711 235.866945 
L 206.47569 236.402806 
L 206.80067 235.251872 
L 207.125649 234.686166 
L 207.450629 235.971313 
L 207.775608 236.442373 
L 208.100588 235.338201 
L 208.425567 234.682146 
L 208.750547 236.064722 
L 209.075526 236.47869 
L 209.400506 235.3892 
L 209.725486 234.785174 
L 210.050465 236.126203 
L 210.375445 236.501402 
L 210.700424 235.436797 
L 211.025404 234.841082 
L 211.350383 236.254159 
L 211.675363 236.562792 
L 212.000342 235.469938 
L 212.325322 234.816157 
L 212.650301 236.334939 
L 212.975281 236.599083 
L 213.30026 235.526724 
L 213.62524 234.925644 
L 213.950219 236.398628 
L 214.275199 236.627418 
L 214.600178 235.583855 
L 214.925158 234.996297 
L 215.250137 236.532284 
L 215.575117 236.693001 
L 215.900096 235.594316 
L 216.225076 235.046671 
L 216.550056 236.654264 
L 216.875035 236.753488 
L 217.200015 235.69688 
L 217.524994 235.101524 
L 217.849974 236.687738 
L 218.174953 236.771952 
L 218.499933 235.755072 
L 218.824912 235.179422 
L 219.149892 236.82425 
L 219.474871 236.840677 
L 219.799851 235.773342 
L 220.12483 235.239978 
L 220.44981 236.952238 
L 220.774789 236.910004 
L 221.099769 235.882414 
L 221.424748 235.269273 
L 221.749728 237.061825 
L 222.074707 236.973442 
L 222.399687 235.970606 
L 222.724667 235.401723 
L 223.049646 237.137421 
L 223.374626 237.012018 
L 223.699605 235.979382 
L 224.024585 235.465737 
L 224.349564 237.2631 
L 224.674544 237.088998 
L 224.999523 236.097605 
L 225.324503 235.541237 
L 225.649482 237.360752 
L 225.974462 237.149325 
L 226.299441 236.175203 
L 226.624421 235.628471 
L 226.9494 237.472548 
L 227.27438 237.218495 
L 227.599359 236.259995 
L 227.924339 235.724235 
L 228.249318 237.579084 
L 228.574298 237.286446 
L 228.899277 236.34639 
L 229.224257 235.818237 
L 229.549237 237.693948 
L 229.874216 237.361967 
L 230.199196 236.438568 
L 230.524175 235.919611 
L 230.849155 237.811404 
L 231.174134 237.440762 
L 231.499114 236.534731 
L 231.824093 236.025441 
L 232.149073 237.930503 
L 232.474052 237.523346 
L 232.799032 236.636768 
L 233.124011 236.13585 
L 233.448991 238.05127 
L 233.77397 237.605747 
L 234.09895 236.730401 
L 234.423929 236.245846 
L 234.748909 238.170582 
L 235.073888 237.692413 
L 235.398868 236.837557 
L 235.723848 236.364659 
L 236.048827 238.293882 
L 236.373807 237.783464 
L 236.698786 236.949518 
L 237.023766 236.488586 
L 237.348745 238.41895 
L 237.673725 237.878188 
L 237.998704 237.064021 
L 238.323684 236.608127 
L 238.648663 238.540656 
L 238.973643 237.973564 
L 239.298622 237.182587 
L 239.623602 236.740583 
L 239.948581 238.667982 
L 240.92352 236.878723 
L 241.248499 238.797188 
L 242.223438 237.020383 
L 242.548418 238.922594 
L 242.873397 238.283607 
L 243.198377 239.893036 
L 243.523356 238.738259 
L 243.848336 235.719234 
L 244.173315 239.348987 
L 244.823274 236.612998 
L 245.148254 233.193362 
L 245.473233 238.240197 
L 246.123192 235.783963 
L 246.448172 232.347648 
L 246.773151 237.850945 
L 247.42311 235.501606 
L 247.74809 231.997175 
L 248.073069 237.707343 
L 248.723029 235.363351 
L 249.048008 231.772845 
L 249.372988 237.626824 
L 250.022947 235.267613 
L 250.347926 231.583008 
L 250.672906 237.56475 
L 251.322865 235.195738 
L 251.647844 231.410004 
L 251.972824 237.513236 
L 252.622783 235.119966 
L 252.947762 231.236899 
L 253.272742 237.461893 
L 253.922701 235.049058 
L 254.24768 231.066612 
L 254.57266 237.41242 
L 255.222619 234.969546 
L 255.547599 230.910176 
L 255.872578 237.372585 
L 256.522537 234.908328 
L 256.847517 230.74729 
L 257.172496 237.329544 
L 257.822455 234.851946 
L 258.147435 230.587069 
L 258.472414 237.288613 
L 259.122373 234.796821 
L 259.447353 230.428978 
L 259.772332 237.242812 
L 260.422291 234.749882 
L 260.747271 230.276541 
L 261.07225 237.207457 
L 261.72221 234.706638 
L 262.047189 230.125328 
L 262.372169 237.166188 
L 263.022128 234.765614 
L 263.347107 229.961466 
L 263.672087 237.145163 
L 264.322046 234.579184 
L 264.647025 229.857997 
L 264.972005 237.159546 
L 265.621964 234.546485 
L 265.946943 229.666972 
L 266.271923 237.056848 
L 266.921882 234.649044 
L 267.246861 229.546643 
L 267.571841 237.060566 
L 268.2218 234.483249 
L 268.54678 229.455903 
L 268.871759 237.082152 
L 269.521718 234.46233 
L 269.846698 229.276208 
L 270.171677 236.987325 
L 270.821636 234.565043 
L 271.146616 229.161184 
L 271.471595 236.99076 
L 272.121554 234.410337 
L 272.446534 229.07837 
L 272.771513 237.017502 
L 273.421472 234.399343 
L 273.746452 228.911468 
L 274.071431 236.930286 
L 274.721391 234.422482 
L 275.04637 228.763634 
L 275.37135 236.916513 
L 276.021309 234.36018 
L 276.346288 228.724601 
L 276.671268 236.957101 
L 277.321227 234.362837 
L 277.646206 228.572667 
L 277.971186 236.878731 
L 278.621145 234.388626 
L 278.946124 228.434287 
L 279.271104 236.872225 
L 279.921063 234.46473 
L 280.246042 228.318935 
L 280.571022 236.87314 
L 281.220981 234.333977 
L 281.545961 228.251962 
L 281.87094 236.84072 
L 282.520899 234.373521 
L 282.845879 228.127894 
L 283.170858 236.835305 
L 283.820817 234.450253 
L 284.145797 228.020812 
L 284.470776 236.838174 
L 285.120735 234.327198 
L 285.445715 227.961075 
L 285.770694 236.86247 
L 286.095674 235.466779 
L 286.420653 229.780929 
L 286.745633 231.009861 
L 287.070612 234.462231 
L 287.395592 233.93188 
L 287.720572 233.666431 
L 288.370531 235.995915 
L 288.69551 234.984369 
L 289.02049 234.445846 
L 289.670449 236.254318 
L 289.995428 235.177089 
L 290.320408 234.589824 
L 290.645387 235.719412 
L 290.970367 236.349019 
L 291.295346 235.192491 
L 291.620326 234.627933 
L 291.945305 235.840871 
L 292.270285 236.391035 
L 292.595264 235.28139 
L 292.920244 234.674421 
L 293.245223 235.870758 
L 293.570203 236.39508 
L 293.895182 235.313394 
L 294.220162 234.71653 
L 294.545142 235.989664 
L 294.870121 236.450849 
L 295.195101 235.308195 
L 295.52008 234.743571 
L 295.84506 236.100577 
L 296.170039 236.495647 
L 296.495019 235.398491 
L 296.819998 234.745108 
L 297.144978 236.196852 
L 297.469957 236.535517 
L 297.794937 235.454742 
L 298.119916 234.851046 
L 298.444896 236.260761 
L 298.769875 236.565873 
L 299.094855 235.441708 
L 299.419834 234.881417 
L 299.744814 236.371771 
L 300.069793 236.615534 
L 300.394773 235.536568 
L 300.719753 234.889568 
L 301.044732 236.471794 
L 301.369712 236.663528 
L 301.694691 235.603212 
L 302.019671 235.007135 
L 302.34465 236.539308 
L 302.66963 236.696207 
L 302.994609 235.665567 
L 303.319589 235.083708 
L 303.644568 236.676176 
L 303.969548 236.764183 
L 304.294527 235.703042 
L 304.619507 235.071564 
L 304.944486 236.762226 
L 305.269466 236.80972 
L 305.594445 235.775527 
L 305.919425 235.190948 
L 306.244404 236.831526 
L 306.569384 236.848906 
L 306.894363 235.848597 
L 307.219343 235.279738 
L 307.544323 236.975544 
L 307.869302 236.921682 
L 308.194282 235.872403 
L 308.519261 235.347408 
L 308.844241 237.105446 
L 309.16922 236.99583 
L 309.4942 235.983279 
L 309.819179 235.409116 
L 310.144159 237.142112 
L 310.469138 237.024555 
L 310.794118 236.057716 
L 311.119097 235.505729 
L 311.444077 237.295008 
L 311.769056 237.107982 
L 312.094036 236.119726 
L 312.419015 235.574437 
L 312.743995 237.397458 
L 313.068974 237.17151 
L 313.393954 236.199833 
L 313.718934 235.664404 
L 314.043913 237.509937 
L 314.368893 237.241619 
L 314.693872 236.28646 
L 315.018852 235.749029 
L 315.343831 237.620142 
L 315.668811 237.312357 
L 315.99379 236.374913 
L 316.31877 235.846988 
L 316.643749 237.736165 
L 316.968729 237.388964 
L 317.293708 236.468394 
L 317.618688 235.950036 
L 317.943667 237.854266 
L 318.268647 237.468835 
L 318.593626 236.567656 
L 318.918606 236.057573 
L 319.243585 237.974099 
L 319.568565 237.552409 
L 319.893544 236.667229 
L 320.218524 236.169884 
L 320.543504 238.08697 
L 320.868483 237.634043 
L 321.193463 236.769971 
L 321.518442 236.284568 
L 321.843422 238.208507 
L 322.168401 237.72275 
L 322.493381 236.878978 
L 322.81836 236.405166 
L 323.14334 238.332543 
L 323.468319 237.815335 
L 323.793299 236.992436 
L 324.118278 236.530596 
L 324.443258 238.458109 
L 324.768237 237.907631 
L 325.093217 237.10087 
L 325.418196 236.655594 
L 325.743176 238.582343 
L 326.718115 236.789978 
L 327.043094 238.710174 
L 328.018033 236.929165 
L 328.343012 238.838313 
L 329.317951 237.068141 
L 329.64293 238.966026 
L 329.96791 242.297933 
L 330.292889 242.509937 
L 330.617869 242.260124 
L 330.942848 238.934425 
L 331.267828 242.665375 
L 331.917787 241.96016 
L 332.242766 238.482086 
L 332.567746 242.474986 
L 333.217705 241.763887 
L 333.542685 238.261187 
L 333.867664 242.377425 
L 334.517623 241.641287 
L 334.842603 238.088231 
L 335.167582 242.304506 
L 335.817541 241.53399 
L 336.142521 237.924434 
L 336.4675 242.238917 
L 337.117459 241.432981 
L 337.442439 237.766705 
L 337.767418 242.174468 
L 338.417377 241.338857 
L 338.742357 237.612793 
L 339.067336 242.117536 
L 339.717296 241.249906 
L 340.042275 237.461229 
L 340.367255 242.061945 
L 341.017214 241.161389 
L 341.342193 237.30907 
L 341.667173 242.008656 
L 342.317132 241.085698 
L 342.642111 237.164711 
L 342.967091 241.960692 
L 343.61705 241.004838 
L 343.942029 237.017602 
L 344.267009 241.912918 
L 344.916968 240.929384 
L 345.241947 236.872441 
L 345.566927 241.867606 
L 346.216886 240.850228 
L 346.541866 236.738728 
L 346.866845 241.829248 
L 347.516804 240.782615 
L 347.841784 236.598392 
L 348.166763 241.788912 
L 348.816722 240.710476 
L 349.141702 236.468691 
L 349.466681 241.73935 
L 350.11664 240.653693 
L 350.44162 236.295848 
L 350.766599 241.704533 
L 351.416558 240.656512 
L 351.741538 236.15582 
L 352.066517 241.675044 
L 352.716477 240.514829 
L 353.041456 236.064443 
L 353.366436 241.634219 
L 354.016395 240.492292 
L 354.341374 235.91419 
L 354.666354 241.607084 
L 355.316313 240.50569 
L 355.641292 235.782257 
L 355.966272 241.591077 
L 356.616231 240.373734 
L 356.94121 235.696861 
L 357.26619 241.554041 
L 357.916149 240.358954 
L 358.241128 235.553575 
L 358.566108 241.527336 
L 359.216067 240.379059 
L 359.541047 235.427529 
L 359.866026 241.513666 
L 360.515985 240.258014 
L 360.840965 235.348195 
L 361.165944 241.522124 
L 361.815903 240.214891 
L 362.140883 235.188002 
L 362.465862 241.453561 
L 363.115821 240.270163 
L 363.440801 235.086919 
L 363.76578 241.452169 
L 364.415739 240.158615 
L 364.740719 235.0151 
L 365.065698 241.464628 
L 365.715658 240.130922 
L 366.040637 234.864092 
L 366.365617 241.401336 
L 367.015576 240.12434 
L 367.340555 234.729603 
L 367.665535 241.386892 
L 368.315494 240.0809 
L 368.640473 234.696924 
L 368.965453 241.415443 
L 369.615412 240.060913 
L 369.940391 234.557586 
L 370.265371 241.358585 
L 370.91533 240.056419 
L 371.240309 234.429491 
L 371.565289 241.347449 
L 372.215248 240.090977 
L 372.540228 234.323324 
L 372.865207 241.343306 
L 373.190187 236.83785 
L 373.840146 237.857711 
L 374.165125 239.241535 
L 374.490105 238.89667 
L 374.815084 238.772856 
L 375.140064 239.133379 
L 375.465043 239.750102 
L 375.790023 239.236441 
L 376.115002 238.966701 
L 376.764961 239.845188 
L 377.089941 239.331921 
L 377.41492 239.060331 
L 378.064879 239.883371 
L 378.389859 239.391273 
L 378.714839 239.133209 
L 379.364798 239.927428 
L 379.689777 239.414378 
L 380.014757 239.151182 
L 380.664716 239.970881 
L 380.989695 239.482957 
L 381.314675 239.227972 
L 381.964634 240.00987 
L 382.289613 239.550459 
L 382.614593 239.307281 
L 383.264552 240.056487 
L 383.589531 239.58712 
L 383.914511 239.378527 
L 384.23949 239.849532 
L 384.56447 240.119657 
L 384.889449 239.657411 
L 385.214429 239.415361 
L 385.864388 240.153798 
L 386.189368 239.728261 
L 386.514347 239.505739 
L 386.839327 239.986157 
L 387.164306 240.202057 
L 387.489286 239.772423 
L 387.814265 239.585267 
L 388.139245 240.090028 
L 388.464224 240.272074 
L 388.789204 239.84776 
L 389.114183 239.64374 
L 389.439163 240.179323 
L 389.764142 240.341088 
L 390.089122 239.945213 
L 390.414101 239.734982 
L 390.739081 240.236776 
L 391.06406 240.366738 
L 391.38904 239.986166 
L 391.71402 239.821198 
L 392.038999 240.340906 
L 392.363979 240.447951 
L 392.688958 240.065728 
L 393.013938 239.891012 
L 393.338917 240.432726 
L 393.663897 240.523193 
L 394.313856 239.987782 
L 394.638835 240.492012 
L 394.638835 240.492012 
" clip-path="url(#p311bbefdd4)" style="fill: none; stroke-dasharray: 0.74,0.32; stroke-dashoffset: 0; stroke: #6b8e23; stroke-width: 0.2"/>
   </g>
   <g id="patch_9">
    <path d="M 53.751563 273.312 
L 53.751563 95.904 
" style="fill: none; stroke: #000000; stroke-width: 0.8; stroke-linejoin: miter; stroke-linecap: square"/>
   </g>
   <g id="patch_10">
    <path d="M 410.871562 273.312 
L 410.871562 95.904 
" style="fill: none; stroke: #000000; stroke-width: 0.8; stroke-linejoin: miter; stroke-linecap: square"/>
   </g>
   <g id="patch_11">
    <path d="M 53.751563 273.312 
L 410.871562 273.312 
" style="fill: none; stroke: #000000; stroke-width: 0.8; stroke-linejoin: miter; stroke-linecap: square"/>
   </g>
   <g id="patch_12">
    <path d="M 53.751563 95.904 
L 410.871562 95.904 
" style="fill: none; stroke: #000000; stroke-width: 0.8; stroke-linejoin: miter; stroke-linecap: square"/>
   </g>
   <g id="legend_2">
    <g id="patch_13">
     <path d="M 255.993437 221.329 
L 403.871562 221.329 
Q 405.871562 221.329 405.871562 219.329 
L 405.871562 102.904 
Q 405.871562 100.904 403.871562 100.904 
L 255.993437 100.904 
Q 253.993437 100.904 253.993437 102.904 
L 253.993437 219.329 
Q 253.993437 221.329 255.993437 221.329 
z
" style="fill: #ffffff; opacity: 0.8; stroke: #cccccc; stroke-linejoin: miter"/>
    </g>
    <g id="line2d_39">
     <path d="M 257.993437 109.002437 
L 267.993437 109.002437 
L 277.993437 109.002437 
" style="fill: none; stroke: #ff4500; stroke-linecap: square"/>
    </g>
    <g id="text_24">
     <text style="font: 10px 'DejaVu Sans', 'Bitstream Vera Sans', 'Computer Modern Sans Serif', 'Lucida Grande', 'Verdana', 'Geneva', 'Lucid', 'Arial', 'Helvetica', 'Avant Garde', sans-serif; text-anchor: start" x="285.993437" y="112.502437" transform="rotate(-0 285.993437 112.502437)">Digital prediction DB1</text>
    </g>
    <g id="line2d_40">
     <path d="M 257.993437 123.680562 
L 267.993437 123.680562 
L 277.993437 123.680562 
" style="fill: none; stroke-dasharray: 0.74,0.32; stroke-dashoffset: 0; stroke: #ff4500; stroke-width: 0.2"/>
    </g>
    <g id="text_25">
     <text style="font: 10px 'DejaVu Sans', 'Bitstream Vera Sans', 'Computer Modern Sans Serif', 'Lucida Grande', 'Verdana', 'Geneva', 'Lucid', 'Arial', 'Helvetica', 'Avant Garde', sans-serif; text-anchor: start" x="285.993437" y="127.180562" transform="rotate(-0 285.993437 127.180562)">Analog prediction DB1</text>
    </g>
    <g id="line2d_41">
     <path d="M 257.993437 138.358687 
L 267.993437 138.358687 
L 277.993437 138.358687 
" style="fill: none; stroke: #c71585; stroke-linecap: square"/>
    </g>
    <g id="text_26">
     <text style="font: 10px 'DejaVu Sans', 'Bitstream Vera Sans', 'Computer Modern Sans Serif', 'Lucida Grande', 'Verdana', 'Geneva', 'Lucid', 'Arial', 'Helvetica', 'Avant Garde', sans-serif; text-anchor: start" x="285.993437" y="141.858687" transform="rotate(-0 285.993437 141.858687)">Digital prediction LUAL</text>
    </g>
    <g id="line2d_42">
     <path d="M 257.993437 153.036812 
L 267.993437 153.036812 
L 277.993437 153.036812 
" style="fill: none; stroke-dasharray: 0.74,0.32; stroke-dashoffset: 0; stroke: #c71585; stroke-width: 0.2"/>
    </g>
    <g id="text_27">
     <text style="font: 10px 'DejaVu Sans', 'Bitstream Vera Sans', 'Computer Modern Sans Serif', 'Lucida Grande', 'Verdana', 'Geneva', 'Lucid', 'Arial', 'Helvetica', 'Avant Garde', sans-serif; text-anchor: start" x="285.993437" y="156.536812" transform="rotate(-0 285.993437 156.536812)">Analog prediction LUAL</text>
    </g>
    <g id="line2d_43">
     <path d="M 257.993437 167.714937 
L 267.993437 167.714937 
L 277.993437 167.714937 
" style="fill: none; stroke: #4682b4; stroke-linecap: square"/>
    </g>
    <g id="text_28">
     <text style="font: 10px 'DejaVu Sans', 'Bitstream Vera Sans', 'Computer Modern Sans Serif', 'Lucida Grande', 'Verdana', 'Geneva', 'Lucid', 'Arial', 'Helvetica', 'Avant Garde', sans-serif; text-anchor: start" x="285.993437" y="171.214937" transform="rotate(-0 285.993437 171.214937)">Digital prediction PVR</text>
    </g>
    <g id="line2d_44">
     <path d="M 257.993437 182.393062 
L 267.993437 182.393062 
L 277.993437 182.393062 
" style="fill: none; stroke-dasharray: 0.74,0.32; stroke-dashoffset: 0; stroke: #4682b4; stroke-width: 0.2"/>
    </g>
    <g id="text_29">
     <text style="font: 10px 'DejaVu Sans', 'Bitstream Vera Sans', 'Computer Modern Sans Serif', 'Lucida Grande', 'Verdana', 'Geneva', 'Lucid', 'Arial', 'Helvetica', 'Avant Garde', sans-serif; text-anchor: start" x="285.993437" y="185.893062" transform="rotate(-0 285.993437 185.893062)">Analog prediction PVR</text>
    </g>
    <g id="line2d_45">
     <path d="M 257.993437 197.071187 
L 267.993437 197.071187 
L 277.993437 197.071187 
" style="fill: none; stroke: #6b8e23; stroke-linecap: square"/>
    </g>
    <g id="text_30">
     <text style="font: 10px 'DejaVu Sans', 'Bitstream Vera Sans', 'Computer Modern Sans Serif', 'Lucida Grande', 'Verdana', 'Geneva', 'Lucid', 'Arial', 'Helvetica', 'Avant Garde', sans-serif; text-anchor: start" x="285.993437" y="200.571187" transform="rotate(-0 285.993437 200.571187)">Digital prediction VB1</text>
    </g>
    <g id="line2d_46">
     <path d="M 257.993437 211.749312 
L 267.993437 211.749312 
L 277.993437 211.749312 
" style="fill: none; stroke-dasharray: 0.74,0.32; stroke-dashoffset: 0; stroke: #6b8e23; stroke-width: 0.2"/>
    </g>
    <g id="text_31">
     <text style="font: 10px 'DejaVu Sans', 'Bitstream Vera Sans', 'Computer Modern Sans Serif', 'Lucida Grande', 'Verdana', 'Geneva', 'Lucid', 'Arial', 'Helvetica', 'Avant Garde', sans-serif; text-anchor: start" x="285.993437" y="215.249312" transform="rotate(-0 285.993437 215.249312)">Analog prediction VB1</text>
    </g>
   </g>
  </g>
 </g>
 <defs>
  <clipPath id="pc018c28558">
   <rect x="53.751563" y="7.2" width="357.12" height="88.704"/>
  </clipPath>
  <clipPath id="p311bbefdd4">
   <rect x="53.751563" y="95.904" width="357.12" height="177.408"/>
  </clipPath>
 </defs>
</svg>
