<?xml version="1.0" encoding="utf-8" standalone="no"?>
<!DOCTYPE svg PUBLIC "-//W3C//DTD SVG 1.1//EN"
  "http://www.w3.org/Graphics/SVG/1.1/DTD/svg11.dtd">
<svg xmlns:xlink="http://www.w3.org/1999/xlink" width="408.10125pt" height="310.86825pt" viewBox="0 0 408.10125 310.86825" xmlns="http://www.w3.org/2000/svg" version="1.1">
 <metadata>
  <rdf:RDF xmlns:dc="http://purl.org/dc/elements/1.1/" xmlns:cc="http://creativecommons.org/ns#" xmlns:rdf="http://www.w3.org/1999/02/22-rdf-syntax-ns#">
   <cc:Work>
    <dc:type rdf:resource="http://purl.org/dc/dcmitype/StillImage"/>
    <dc:date>2023-10-29T19:08:29.908167</dc:date>
    <dc:format>image/svg+xml</dc:format>
    <dc:creator>
     <cc:Agent>
      <dc:title>Matplotlib v3.8.0, https://matplotlib.org/</dc:title>
     </cc:Agent>
    </dc:creator>
   </cc:Work>
  </rdf:RDF>
 </metadata>
 <defs>
  <style type="text/css">*{stroke-linejoin: round; stroke-linecap: butt}</style>
 </defs>
 <g id="figure_1">
  <g id="patch_1">
   <path d="M 0 310.86825 
L 408.10125 310.86825 
L 408.10125 0 
L 0 0 
z
" style="fill: #ffffff"/>
  </g>
  <g id="axes_1">
   <g id="patch_2">
    <path d="M 43.78125 140.256 
L 400.90125 140.256 
L 400.90125 7.2 
L 43.78125 7.2 
z
" style="fill: #ffffff"/>
   </g>
   <g id="matplotlib.axis_1">
    <g id="xtick_1">
     <g id="line2d_1">
      <defs>
       <path id="m1097787e75" d="M 0 0 
L 0 3.5 
" style="stroke: #000000; stroke-width: 0.8"/>
      </defs>
      <g>
       <use xlink:href="#m1097787e75" x="60.013977" y="140.256" style="stroke: #000000; stroke-width: 0.8"/>
      </g>
     </g>
    </g>
    <g id="xtick_2">
     <g id="line2d_2">
      <g>
       <use xlink:href="#m1097787e75" x="125.009882" y="140.256" style="stroke: #000000; stroke-width: 0.8"/>
      </g>
     </g>
    </g>
    <g id="xtick_3">
     <g id="line2d_3">
      <g>
       <use xlink:href="#m1097787e75" x="190.005787" y="140.256" style="stroke: #000000; stroke-width: 0.8"/>
      </g>
     </g>
    </g>
    <g id="xtick_4">
     <g id="line2d_4">
      <g>
       <use xlink:href="#m1097787e75" x="255.001692" y="140.256" style="stroke: #000000; stroke-width: 0.8"/>
      </g>
     </g>
    </g>
    <g id="xtick_5">
     <g id="line2d_5">
      <g>
       <use xlink:href="#m1097787e75" x="319.997597" y="140.256" style="stroke: #000000; stroke-width: 0.8"/>
      </g>
     </g>
    </g>
    <g id="xtick_6">
     <g id="line2d_6">
      <g>
       <use xlink:href="#m1097787e75" x="384.993502" y="140.256" style="stroke: #000000; stroke-width: 0.8"/>
      </g>
     </g>
    </g>
   </g>
   <g id="matplotlib.axis_2">
    <g id="ytick_1">
     <g id="line2d_7">
      <defs>
       <path id="me97e3d59fe" d="M 0 0 
L -3.5 0 
" style="stroke: #000000; stroke-width: 0.8"/>
      </defs>
      <g>
       <use xlink:href="#me97e3d59fe" x="43.78125" y="134.208" style="stroke: #000000; stroke-width: 0.8"/>
      </g>
     </g>
     <g id="text_1">
      <text style="font: 10px 'DejaVu Sans', 'Bitstream Vera Sans', 'Computer Modern Sans Serif', 'Lucida Grande', 'Verdana', 'Geneva', 'Lucid', 'Arial', 'Helvetica', 'Avant Garde', sans-serif; text-anchor: end" x="36.78125" y="138.007219" transform="rotate(-0 36.78125 138.007219)">0.0</text>
     </g>
    </g>
    <g id="ytick_2">
     <g id="line2d_8">
      <g>
       <use xlink:href="#me97e3d59fe" x="43.78125" y="107.912348" style="stroke: #000000; stroke-width: 0.8"/>
      </g>
     </g>
     <g id="text_2">
      <text style="font: 10px 'DejaVu Sans', 'Bitstream Vera Sans', 'Computer Modern Sans Serif', 'Lucida Grande', 'Verdana', 'Geneva', 'Lucid', 'Arial', 'Helvetica', 'Avant Garde', sans-serif; text-anchor: end" x="36.78125" y="111.711567" transform="rotate(-0 36.78125 111.711567)">0.5</text>
     </g>
    </g>
    <g id="ytick_3">
     <g id="line2d_9">
      <g>
       <use xlink:href="#me97e3d59fe" x="43.78125" y="81.616696" style="stroke: #000000; stroke-width: 0.8"/>
      </g>
     </g>
     <g id="text_3">
      <text style="font: 10px 'DejaVu Sans', 'Bitstream Vera Sans', 'Computer Modern Sans Serif', 'Lucida Grande', 'Verdana', 'Geneva', 'Lucid', 'Arial', 'Helvetica', 'Avant Garde', sans-serif; text-anchor: end" x="36.78125" y="85.415914" transform="rotate(-0 36.78125 85.415914)">1.0</text>
     </g>
    </g>
    <g id="ytick_4">
     <g id="line2d_10">
      <g>
       <use xlink:href="#me97e3d59fe" x="43.78125" y="55.321043" style="stroke: #000000; stroke-width: 0.8"/>
      </g>
     </g>
     <g id="text_4">
      <text style="font: 10px 'DejaVu Sans', 'Bitstream Vera Sans', 'Computer Modern Sans Serif', 'Lucida Grande', 'Verdana', 'Geneva', 'Lucid', 'Arial', 'Helvetica', 'Avant Garde', sans-serif; text-anchor: end" x="36.78125" y="59.120262" transform="rotate(-0 36.78125 59.120262)">1.5</text>
     </g>
    </g>
    <g id="ytick_5">
     <g id="line2d_11">
      <g>
       <use xlink:href="#me97e3d59fe" x="43.78125" y="29.025391" style="stroke: #000000; stroke-width: 0.8"/>
      </g>
     </g>
     <g id="text_5">
      <text style="font: 10px 'DejaVu Sans', 'Bitstream Vera Sans', 'Computer Modern Sans Serif', 'Lucida Grande', 'Verdana', 'Geneva', 'Lucid', 'Arial', 'Helvetica', 'Avant Garde', sans-serif; text-anchor: end" x="36.78125" y="32.82461" transform="rotate(-0 36.78125 32.82461)">2.0</text>
     </g>
    </g>
    <g id="text_6">
     <text style="font: 10px 'DejaVu Sans', 'Bitstream Vera Sans', 'Computer Modern Sans Serif', 'Lucida Grande', 'Verdana', 'Geneva', 'Lucid', 'Arial', 'Helvetica', 'Avant Garde', sans-serif; text-anchor: middle" x="14.798438" y="73.728" transform="rotate(-90 14.798438 73.728)">Current (nA)</text>
    </g>
   </g>
   <g id="line2d_12">
    <path d="M 60.013977 134.208 
L 124.684903 134.208 
L 125.009882 60.580174 
L 137.684084 60.580174 
L 138.009063 134.208 
L 384.668523 134.208 
L 384.668523 134.208 
" clip-path="url(#pa1f0c10b9e)" style="fill: none; stroke: #ff4500; stroke-width: 1.5; stroke-linecap: square"/>
   </g>
   <g id="line2d_13">
    <path d="M 60.013977 134.208 
L 124.684903 134.208 
L 125.009882 60.580174 
L 254.676713 60.580174 
L 255.001692 134.208 
L 384.668523 134.208 
L 384.668523 134.208 
" clip-path="url(#pa1f0c10b9e)" style="fill: none; stroke-dasharray: 5.55,2.4; stroke-dashoffset: 0; stroke: #c71585; stroke-width: 1.5"/>
   </g>
   <g id="line2d_14">
    <path d="M 60.013977 134.208 
L 124.684903 134.208 
L 125.009882 13.248 
L 157.182855 13.248 
L 157.507835 134.208 
L 189.680808 134.208 
L 190.005787 13.248 
L 222.17876 13.248 
L 222.50374 134.208 
L 254.676713 134.208 
L 255.001692 13.248 
L 287.174665 13.248 
L 287.499645 134.208 
L 384.668523 134.208 
L 384.668523 134.208 
" clip-path="url(#pa1f0c10b9e)" style="fill: none; stroke-dasharray: 9.6,2.4,1.5,2.4; stroke-dashoffset: 0; stroke: #4682b4; stroke-width: 1.5"/>
   </g>
   <g id="line2d_15">
    <path d="M 60.013977 134.208 
L 125.009882 134.183808 
L 157.507835 13.248 
L 190.005787 134.183808 
L 222.50374 13.248 
L 255.001692 134.183808 
L 287.499645 13.248 
L 319.997597 134.208 
L 384.668523 134.208 
L 384.668523 134.208 
" clip-path="url(#pa1f0c10b9e)" style="fill: none; stroke-dasharray: 2.5,4.125; stroke-dashoffset: 0; stroke: #6b8e23; stroke-width: 2.5"/>
   </g>
   <g id="patch_3">
    <path d="M 43.78125 140.256 
L 43.78125 7.2 
" style="fill: none; stroke: #000000; stroke-width: 0.8; stroke-linejoin: miter; stroke-linecap: square"/>
   </g>
   <g id="patch_4">
    <path d="M 400.90125 140.256 
L 400.90125 7.2 
" style="fill: none; stroke: #000000; stroke-width: 0.8; stroke-linejoin: miter; stroke-linecap: square"/>
   </g>
   <g id="patch_5">
    <path d="M 43.78125 140.256 
L 400.90125 140.256 
" style="fill: none; stroke: #000000; stroke-width: 0.8; stroke-linejoin: miter; stroke-linecap: square"/>
   </g>
   <g id="patch_6">
    <path d="M 43.78125 7.2 
L 400.90125 7.2 
" style="fill: none; stroke: #000000; stroke-width: 0.8; stroke-linejoin: miter; stroke-linecap: square"/>
   </g>
   <g id="legend_1">
    <g id="patch_7">
     <path d="M 329.737188 73.9125 
L 393.90125 73.9125 
Q 395.90125 73.9125 395.90125 71.9125 
L 395.90125 14.2 
Q 395.90125 12.2 393.90125 12.2 
L 329.737188 12.2 
Q 327.737188 12.2 327.737188 14.2 
L 327.737188 71.9125 
Q 327.737188 73.9125 329.737188 73.9125 
z
" style="fill: #ffffff; opacity: 0.8; stroke: #cccccc; stroke-linejoin: miter"/>
    </g>
    <g id="line2d_16">
     <path d="M 331.737188 20.298437 
L 341.737188 20.298437 
L 351.737188 20.298437 
" style="fill: none; stroke: #ff4500; stroke-width: 1.5; stroke-linecap: square"/>
    </g>
    <g id="text_7">
     <text style="font: 10px 'DejaVu Sans', 'Bitstream Vera Sans', 'Computer Modern Sans Serif', 'Lucida Grande', 'Verdana', 'Geneva', 'Lucid', 'Arial', 'Helvetica', 'Avant Garde', sans-serif; text-anchor: start" x="359.737188" y="23.798437" transform="rotate(-0 359.737188 23.798437)">PLML2</text>
    </g>
    <g id="line2d_17">
     <path d="M 331.737188 34.976562 
L 341.737188 34.976562 
L 351.737188 34.976562 
" style="fill: none; stroke-dasharray: 5.55,2.4; stroke-dashoffset: 0; stroke: #c71585; stroke-width: 1.5"/>
    </g>
    <g id="text_8">
     <text style="font: 10px 'DejaVu Sans', 'Bitstream Vera Sans', 'Computer Modern Sans Serif', 'Lucida Grande', 'Verdana', 'Geneva', 'Lucid', 'Arial', 'Helvetica', 'Avant Garde', sans-serif; text-anchor: start" x="359.737188" y="38.476562" transform="rotate(-0 359.737188 38.476562)">PLMR</text>
    </g>
    <g id="line2d_18">
     <path d="M 331.737188 49.654687 
L 341.737188 49.654687 
L 351.737188 49.654687 
" style="fill: none; stroke-dasharray: 9.6,2.4,1.5,2.4; stroke-dashoffset: 0; stroke: #4682b4; stroke-width: 1.5"/>
    </g>
    <g id="text_9">
     <text style="font: 10px 'DejaVu Sans', 'Bitstream Vera Sans', 'Computer Modern Sans Serif', 'Lucida Grande', 'Verdana', 'Geneva', 'Lucid', 'Arial', 'Helvetica', 'Avant Garde', sans-serif; text-anchor: start" x="359.737188" y="53.154687" transform="rotate(-0 359.737188 53.154687)">AVBL</text>
    </g>
    <g id="line2d_19">
     <path d="M 331.737188 64.332812 
L 341.737188 64.332812 
L 351.737188 64.332812 
" style="fill: none; stroke-dasharray: 2.5,4.125; stroke-dashoffset: 0; stroke: #6b8e23; stroke-width: 2.5"/>
    </g>
    <g id="text_10">
     <text style="font: 10px 'DejaVu Sans', 'Bitstream Vera Sans', 'Computer Modern Sans Serif', 'Lucida Grande', 'Verdana', 'Geneva', 'Lucid', 'Arial', 'Helvetica', 'Avant Garde', sans-serif; text-anchor: start" x="359.737188" y="67.832812" transform="rotate(-0 359.737188 67.832812)">AVBR</text>
    </g>
   </g>
  </g>
  <g id="axes_2">
   <g id="patch_8">
    <path d="M 43.78125 273.312 
L 400.90125 273.312 
L 400.90125 140.256 
L 43.78125 140.256 
z
" style="fill: #ffffff"/>
   </g>
   <g id="matplotlib.axis_3">
    <g id="xtick_7">
     <g id="line2d_20">
      <g>
       <use xlink:href="#m1097787e75" x="60.013977" y="273.312" style="stroke: #000000; stroke-width: 0.8"/>
      </g>
     </g>
     <g id="text_11">
      <text style="font: 10px 'DejaVu Sans', 'Bitstream Vera Sans', 'Computer Modern Sans Serif', 'Lucida Grande', 'Verdana', 'Geneva', 'Lucid', 'Arial', 'Helvetica', 'Avant Garde', sans-serif; text-anchor: middle" x="60.013977" y="287.910437" transform="rotate(-0 60.013977 287.910437)">0</text>
     </g>
    </g>
    <g id="xtick_8">
     <g id="line2d_21">
      <g>
       <use xlink:href="#m1097787e75" x="125.009882" y="273.312" style="stroke: #000000; stroke-width: 0.8"/>
      </g>
     </g>
     <g id="text_12">
      <text style="font: 10px 'DejaVu Sans', 'Bitstream Vera Sans', 'Computer Modern Sans Serif', 'Lucida Grande', 'Verdana', 'Geneva', 'Lucid', 'Arial', 'Helvetica', 'Avant Garde', sans-serif; text-anchor: middle" x="125.009882" y="287.910437" transform="rotate(-0 125.009882 287.910437)">100</text>
     </g>
    </g>
    <g id="xtick_9">
     <g id="line2d_22">
      <g>
       <use xlink:href="#m1097787e75" x="190.005787" y="273.312" style="stroke: #000000; stroke-width: 0.8"/>
      </g>
     </g>
     <g id="text_13">
      <text style="font: 10px 'DejaVu Sans', 'Bitstream Vera Sans', 'Computer Modern Sans Serif', 'Lucida Grande', 'Verdana', 'Geneva', 'Lucid', 'Arial', 'Helvetica', 'Avant Garde', sans-serif; text-anchor: middle" x="190.005787" y="287.910437" transform="rotate(-0 190.005787 287.910437)">200</text>
     </g>
    </g>
    <g id="xtick_10">
     <g id="line2d_23">
      <g>
       <use xlink:href="#m1097787e75" x="255.001692" y="273.312" style="stroke: #000000; stroke-width: 0.8"/>
      </g>
     </g>
     <g id="text_14">
      <text style="font: 10px 'DejaVu Sans', 'Bitstream Vera Sans', 'Computer Modern Sans Serif', 'Lucida Grande', 'Verdana', 'Geneva', 'Lucid', 'Arial', 'Helvetica', 'Avant Garde', sans-serif; text-anchor: middle" x="255.001692" y="287.910437" transform="rotate(-0 255.001692 287.910437)">300</text>
     </g>
    </g>
    <g id="xtick_11">
     <g id="line2d_24">
      <g>
       <use xlink:href="#m1097787e75" x="319.997597" y="273.312" style="stroke: #000000; stroke-width: 0.8"/>
      </g>
     </g>
     <g id="text_15">
      <text style="font: 10px 'DejaVu Sans', 'Bitstream Vera Sans', 'Computer Modern Sans Serif', 'Lucida Grande', 'Verdana', 'Geneva', 'Lucid', 'Arial', 'Helvetica', 'Avant Garde', sans-serif; text-anchor: middle" x="319.997597" y="287.910437" transform="rotate(-0 319.997597 287.910437)">400</text>
     </g>
    </g>
    <g id="xtick_12">
     <g id="line2d_25">
      <g>
       <use xlink:href="#m1097787e75" x="384.993502" y="273.312" style="stroke: #000000; stroke-width: 0.8"/>
      </g>
     </g>
     <g id="text_16">
      <text style="font: 10px 'DejaVu Sans', 'Bitstream Vera Sans', 'Computer Modern Sans Serif', 'Lucida Grande', 'Verdana', 'Geneva', 'Lucid', 'Arial', 'Helvetica', 'Avant Garde', sans-serif; text-anchor: middle" x="384.993502" y="287.910437" transform="rotate(-0 384.993502 287.910437)">500</text>
     </g>
    </g>
    <g id="text_17">
     <text style="font: 10px 'DejaVu Sans', 'Bitstream Vera Sans', 'Computer Modern Sans Serif', 'Lucida Grande', 'Verdana', 'Geneva', 'Lucid', 'Arial', 'Helvetica', 'Avant Garde', sans-serif; text-anchor: middle" x="222.34125" y="301.588562" transform="rotate(-0 222.34125 301.588562)">Time (ms)</text>
    </g>
   </g>
   <g id="matplotlib.axis_4">
    <g id="ytick_6">
     <g id="line2d_26">
      <g>
       <use xlink:href="#me97e3d59fe" x="43.78125" y="245.961729" style="stroke: #000000; stroke-width: 0.8"/>
      </g>
     </g>
     <g id="text_18">
      <text style="font: 10px 'DejaVu Sans', 'Bitstream Vera Sans', 'Computer Modern Sans Serif', 'Lucida Grande', 'Verdana', 'Geneva', 'Lucid', 'Arial', 'Helvetica', 'Avant Garde', sans-serif; text-anchor: end" x="36.78125" y="249.760947" transform="rotate(-0 36.78125 249.760947)">0.0</text>
     </g>
    </g>
    <g id="ytick_7">
     <g id="line2d_27">
      <g>
       <use xlink:href="#me97e3d59fe" x="43.78125" y="213.189003" style="stroke: #000000; stroke-width: 0.8"/>
      </g>
     </g>
     <g id="text_19">
      <text style="font: 10px 'DejaVu Sans', 'Bitstream Vera Sans', 'Computer Modern Sans Serif', 'Lucida Grande', 'Verdana', 'Geneva', 'Lucid', 'Arial', 'Helvetica', 'Avant Garde', sans-serif; text-anchor: end" x="36.78125" y="216.988222" transform="rotate(-0 36.78125 216.988222)">0.1</text>
     </g>
    </g>
    <g id="ytick_8">
     <g id="line2d_28">
      <g>
       <use xlink:href="#me97e3d59fe" x="43.78125" y="180.416278" style="stroke: #000000; stroke-width: 0.8"/>
      </g>
     </g>
     <g id="text_20">
      <text style="font: 10px 'DejaVu Sans', 'Bitstream Vera Sans', 'Computer Modern Sans Serif', 'Lucida Grande', 'Verdana', 'Geneva', 'Lucid', 'Arial', 'Helvetica', 'Avant Garde', sans-serif; text-anchor: end" x="36.78125" y="184.215497" transform="rotate(-0 36.78125 184.215497)">0.2</text>
     </g>
    </g>
    <g id="ytick_9">
     <g id="line2d_29">
      <g>
       <use xlink:href="#me97e3d59fe" x="43.78125" y="147.643552" style="stroke: #000000; stroke-width: 0.8"/>
      </g>
     </g>
     <g id="text_21">
      <text style="font: 10px 'DejaVu Sans', 'Bitstream Vera Sans', 'Computer Modern Sans Serif', 'Lucida Grande', 'Verdana', 'Geneva', 'Lucid', 'Arial', 'Helvetica', 'Avant Garde', sans-serif; text-anchor: end" x="36.78125" y="151.442771" transform="rotate(-0 36.78125 151.442771)">0.3</text>
     </g>
    </g>
    <g id="text_22">
     <text style="font: 10px 'DejaVu Sans', 'Bitstream Vera Sans', 'Computer Modern Sans Serif', 'Lucida Grande', 'Verdana', 'Geneva', 'Lucid', 'Arial', 'Helvetica', 'Avant Garde', sans-serif; text-anchor: middle" x="14.798438" y="206.784" transform="rotate(-90 14.798438 206.784)">Voltage (V)</text>
    </g>
   </g>
   <g id="line2d_30">
    <path d="M 60.013977 267.264 
L 125.009882 267.264 
L 125.659841 259.581303 
L 126.63478 252.196379 
L 127.934698 244.06478 
L 129.559596 235.297589 
L 131.509473 226.098553 
L 133.45935 217.932488 
L 135.734207 209.407162 
L 138.009063 201.698558 
L 140.28392 195.088004 
L 142.883756 188.172402 
L 145.808572 181.012479 
L 147.433469 177.331578 
L 148.733388 174.708973 
L 153.93306 163.494835 
L 157.507835 155.951078 
L 158.157794 162.155184 
L 158.807753 165.861452 
L 160.107671 171.600382 
L 161.407589 176.432458 
L 163.032487 181.586657 
L 164.657384 185.980234 
L 166.607261 190.564221 
L 168.882118 195.281724 
L 171.481954 200.15411 
L 175.056729 206.360511 
L 180.581381 215.442403 
L 190.005787 230.727678 
L 190.655746 224.20271 
L 191.305705 220.200754 
L 192.605623 213.986386 
L 194.230521 207.385216 
L 195.855419 201.769118 
L 197.480316 196.894011 
L 199.430193 191.748857 
L 201.380071 187.201608 
L 204.304886 181.037976 
L 207.879661 174.066366 
L 211.779415 166.922829 
L 222.50374 148.179026 
L 223.153699 154.632434 
L 223.803658 158.573617 
L 225.103576 164.762058 
L 226.403494 169.992224 
L 228.028392 175.565718 
L 229.653289 180.359745 
L 231.603166 185.389047 
L 233.878023 190.577691 
L 236.477859 195.931443 
L 239.727655 202.10766 
L 244.277368 210.253583 
L 252.726836 224.837878 
L 255.001692 228.73699 
L 255.651651 222.282602 
L 256.30161 218.350439 
L 257.601528 212.186977 
L 258.901447 206.972017 
L 260.526344 201.431526 
L 262.151242 196.715891 
L 264.101119 191.828593 
L 266.050996 187.498136 
L 268.650832 182.329189 
L 271.900628 176.453596 
L 275.475402 170.429904 
L 280.675075 161.988043 
L 287.499645 151.042248 
L 288.149604 157.576965 
L 288.799563 161.610174 
L 290.099481 167.970278 
L 291.724379 174.619176 
L 293.349276 180.237863 
L 294.974174 185.116214 
L 296.924051 190.277132 
L 299.198908 195.641732 
L 301.798744 201.208245 
L 305.048539 207.649986 
L 309.598252 216.145811 
L 317.072782 229.552602 
L 321.622495 237.406841 
L 323.572372 240.252107 
L 325.847229 243.166364 
L 328.122085 245.713733 
L 330.396942 247.951946 
L 332.996778 250.189885 
L 335.596614 252.138607 
L 338.52143 254.039517 
L 341.446246 255.679966 
L 344.696041 257.246223 
L 348.270816 258.708621 
L 352.17057 260.046807 
L 356.395304 261.248881 
L 360.945017 262.310242 
L 366.14469 263.286961 
L 371.994321 264.149955 
L 378.818891 264.916627 
L 384.668523 265.417948 
L 384.668523 265.417948 
" clip-path="url(#p73dd28e09f)" style="fill: none; stroke: #66cdaa; stroke-linecap: square"/>
   </g>
   <g id="line2d_31">
    <path d="M 60.013977 262.600395 
L 60.338957 260.98653 
L 60.663936 260.046042 
L 60.988916 259.498285 
L 61.638875 258.993662 
L 62.613813 258.786161 
L 64.88867 258.736491 
L 124.684903 258.735355 
L 125.009882 253.536153 
L 126.3098 226.484743 
L 127.284739 210.486694 
L 128.259678 198.164796 
L 129.234616 188.695406 
L 130.209555 181.574125 
L 131.184493 175.939514 
L 132.159432 171.245856 
L 133.13437 167.608762 
L 134.109309 164.92229 
L 135.409227 162.086624 
L 136.709145 159.817686 
L 137.684084 158.271649 
L 138.009063 146.304 
L 138.334043 147.136843 
L 138.659022 148.693836 
L 139.633961 151.31943 
L 141.583838 154.385184 
L 142.558777 155.300441 
L 143.208736 155.677491 
L 143.858695 155.867655 
L 144.508654 155.888302 
L 145.483592 155.667135 
L 147.10849 154.987733 
L 149.058367 153.933536 
L 153.93306 150.845087 
L 156.207917 149.549057 
L 157.182855 149.097514 
L 157.507835 158.060429 
L 158.157794 185.076104 
L 158.807753 201.230219 
L 159.457712 210.366285 
L 160.107671 215.344006 
L 160.75763 218.143902 
L 161.407589 219.817257 
L 162.057548 220.894182 
L 163.032487 221.992226 
L 165.307343 223.967353 
L 169.532077 227.653537 
L 173.106852 231.105529 
L 175.706688 233.886003 
L 178.631504 237.328465 
L 182.206279 241.884825 
L 185.781053 246.786855 
L 189.355828 252.102463 
L 189.680808 252.603255 
L 190.330767 231.381335 
L 190.980726 216.531736 
L 191.630685 205.970565 
L 192.280644 198.308754 
L 192.930603 192.712057 
L 193.580562 188.452497 
L 194.555501 183.750522 
L 195.530439 180.314453 
L 196.505378 177.632785 
L 197.805296 174.744653 
L 199.430193 171.764164 
L 201.380071 168.707376 
L 203.979907 165.057094 
L 206.579743 161.825523 
L 210.479497 157.500343 
L 212.104395 155.937097 
L 214.704231 153.86222 
L 217.954026 151.551044 
L 220.553863 149.915145 
L 222.17876 149.11436 
L 222.50374 158.074056 
L 223.153699 185.083995 
L 223.803658 201.234585 
L 224.453617 210.368533 
L 225.103576 215.345168 
L 225.753535 218.144498 
L 226.403494 219.817542 
L 227.053453 220.894333 
L 228.028392 221.992268 
L 230.303248 223.967353 
L 234.527982 227.653537 
L 238.102757 231.105529 
L 240.702593 233.886003 
L 243.627409 237.328465 
L 247.202184 241.884825 
L 250.776958 246.786855 
L 254.351733 252.102463 
L 254.676713 252.603255 
L 255.001692 233.428747 
L 255.326672 223.65515 
L 255.976631 212.750717 
L 256.62659 206.776721 
L 257.276549 202.939704 
L 257.926508 200.176075 
L 258.901447 197.055056 
L 260.201365 193.788864 
L 262.151242 189.61844 
L 265.401037 183.244695 
L 268.325853 177.869575 
L 271.900628 171.992576 
L 274.825443 167.557955 
L 278.400218 162.573046 
L 281.000054 159.341564 
L 284.574829 155.276133 
L 286.849686 152.925706 
L 287.174665 152.613484 
L 288.149604 190.161552 
L 288.799563 202.043052 
L 289.449522 207.797297 
L 290.099481 210.758424 
L 290.74944 212.463762 
L 291.724379 214.082257 
L 293.674256 216.535302 
L 297.89899 221.785564 
L 301.473764 226.620764 
L 304.72356 231.37203 
L 308.623314 237.505856 
L 312.523068 244.053294 
L 316.097843 250.468545 
L 320.322577 258.258553 
L 320.972536 258.581241 
L 321.947474 258.706761 
L 325.522249 258.73529 
L 384.668523 258.735355 
L 384.668523 258.735355 
" clip-path="url(#p73dd28e09f)" style="fill: none; stroke-dasharray: 3.7,1.6; stroke-dashoffset: 0; stroke: #b22222"/>
   </g>
   <g id="line2d_32">
    <path d="M 60.013977 264.129305 
L 60.663936 262.961656 
L 61.313895 262.529757 
L 62.288834 262.343694 
L 64.88867 262.299806 
L 146.133551 262.299349 
L 146.458531 257.152486 
L 146.78351 246.865209 
L 147.10849 249.666089 
L 147.758449 223.850422 
L 148.083429 214.972744 
L 148.408408 233.28765 
L 149.058367 212.126438 
L 149.383347 204.32841 
L 149.708326 228.021016 
L 150.683265 200.786706 
L 151.008244 226.521493 
L 151.983183 199.401737 
L 152.308162 226.121759 
L 153.283101 198.686418 
L 153.60808 226.053374 
L 154.583019 198.215319 
L 154.907999 226.107322 
L 155.882937 197.795571 
L 156.207917 226.190727 
L 157.182855 197.403429 
L 157.507835 226.272887 
L 158.482773 197.028368 
L 158.807753 226.315329 
L 159.782691 196.675607 
L 160.107671 226.424168 
L 161.08261 196.33086 
L 161.407589 226.544618 
L 162.382528 195.994496 
L 162.707507 226.604277 
L 163.682446 195.681477 
L 164.007425 233.018157 
L 164.332405 232.400758 
L 164.657384 231.085275 
L 164.982364 216.64483 
L 165.307343 243.143082 
L 165.957302 235.625768 
L 166.282282 220.320151 
L 166.607261 245.035563 
L 167.257221 236.45137 
L 167.5822 220.512738 
L 167.90718 245.044152 
L 168.557139 236.659241 
L 168.882118 220.123758 
L 169.207098 245.042919 
L 169.857057 236.43528 
L 170.182036 219.999122 
L 170.507016 245.208232 
L 171.156975 236.386833 
L 171.481954 219.40782 
L 171.806934 244.889748 
L 172.456893 236.423373 
L 172.781872 218.859583 
L 173.106852 244.829238 
L 173.756811 236.178193 
L 174.081791 218.704264 
L 174.40677 244.977166 
L 175.056729 236.137796 
L 175.381709 218.133504 
L 175.706688 244.66938 
L 176.356647 236.197806 
L 176.681627 217.620648 
L 177.006606 244.631861 
L 177.656565 236.441724 
L 177.981545 217.190262 
L 178.306524 244.6108 
L 178.956483 235.948939 
L 179.281463 216.926519 
L 179.606442 244.492071 
L 180.256402 236.058494 
L 180.581381 216.465384 
L 180.906361 244.451698 
L 181.55632 236.308453 
L 181.881299 216.066164 
L 182.206279 244.465673 
L 182.856238 235.849715 
L 183.181217 215.827959 
L 183.506197 244.548497 
L 184.156156 235.86846 
L 184.481135 215.337948 
L 184.806115 244.300183 
L 185.456074 236.233094 
L 185.781053 215.017288 
L 186.106033 244.332981 
L 186.755992 235.813656 
L 187.080972 214.811375 
L 187.405951 244.419446 
L 188.05591 235.84032 
L 188.38089 214.352482 
L 188.705869 244.192914 
L 189.355828 235.950646 
L 189.680808 213.953114 
L 190.005787 232.027558 
L 190.330767 231.435641 
L 190.655746 231.75402 
L 191.305705 240.59645 
L 191.630685 237.481889 
L 191.955664 235.857742 
L 192.605623 242.228812 
L 192.930603 238.39992 
L 193.255583 236.547316 
L 193.580562 240.40202 
L 193.905542 242.584859 
L 194.230521 238.829644 
L 194.555501 236.615402 
L 194.88048 240.794139 
L 195.20546 242.715921 
L 195.530439 238.997357 
L 195.855419 236.962471 
L 196.180398 241.003552 
L 196.505378 242.81147 
L 196.830357 238.928387 
L 197.155337 237.019777 
L 197.480316 241.355677 
L 197.805296 242.944963 
L 198.130275 239.219646 
L 198.455255 237.006213 
L 198.780234 241.670823 
L 199.105214 243.067491 
L 199.430193 239.39171 
L 199.755173 237.353816 
L 200.080153 241.878252 
L 200.405132 243.14412 
L 200.730112 239.552296 
L 201.055091 237.542439 
L 201.380071 242.309957 
L 201.70505 243.35124 
L 202.03003 239.664109 
L 202.355009 237.458346 
L 202.679989 242.582497 
L 203.004968 243.473681 
L 203.329948 239.855697 
L 203.654927 237.827739 
L 203.979907 242.797374 
L 204.304886 243.56928 
L 204.629866 240.04845 
L 204.954845 238.066112 
L 205.279825 243.24831 
L 205.604804 243.790545 
L 205.929784 240.083741 
L 206.254764 238.236069 
L 206.579743 243.659853 
L 206.904723 243.99462 
L 207.229702 240.429779 
L 207.554682 238.421135 
L 207.879661 243.772789 
L 208.204641 244.056914 
L 208.52962 240.626111 
L 208.8546 238.683951 
L 209.179579 244.23336 
L 209.504559 244.288784 
L 209.829538 240.687749 
L 210.154518 238.888257 
L 210.479497 244.665172 
L 210.804477 244.522682 
L 211.129456 241.055744 
L 211.454436 238.987095 
L 211.779415 245.034905 
L 212.104395 244.736713 
L 212.429374 241.353291 
L 212.754354 239.433963 
L 213.079334 245.289956 
L 213.404313 244.866861 
L 213.729293 241.3829 
L 214.054272 239.649935 
L 214.379252 245.713977 
L 214.704231 245.126583 
L 215.029211 241.781768 
L 215.35419 239.904663 
L 215.67917 246.043442 
L 216.004149 245.330117 
L 216.329129 242.043572 
L 216.654108 240.198977 
L 216.979088 246.420623 
L 217.304067 245.563487 
L 217.629047 242.329645 
L 217.954026 240.52207 
L 218.279006 246.780062 
L 218.603985 245.792744 
L 218.928965 242.62113 
L 219.253945 240.839218 
L 219.578924 247.167597 
L 219.903904 246.047538 
L 220.228883 242.932127 
L 220.553863 241.181239 
L 220.878842 247.563874 
L 221.203822 246.313384 
L 221.528801 243.256567 
L 221.853781 241.538296 
L 222.17876 247.965697 
L 222.50374 246.592009 
L 222.828719 243.600822 
L 223.153699 241.910799 
L 223.478678 248.373147 
L 223.803658 246.870016 
L 224.128637 243.916728 
L 224.453617 242.281909 
L 224.778596 248.775689 
L 225.103576 247.162415 
L 225.428555 244.278258 
L 225.753535 242.682767 
L 226.078515 249.191685 
L 226.403494 247.46961 
L 226.728474 244.655996 
L 227.053453 243.10088 
L 227.378433 249.613646 
L 227.703412 247.789195 
L 228.028392 245.042313 
L 228.353371 243.504193 
L 228.678351 250.024264 
L 229.00333 248.110977 
L 229.32831 245.442336 
L 229.653289 243.951082 
L 229.978269 250.453846 
L 230.953207 244.417144 
L 231.278187 250.889768 
L 232.253126 244.895084 
L 232.578105 251.312868 
L 232.903085 249.157018 
L 233.228064 254.586997 
L 233.553044 250.690949 
L 233.878023 240.505199 
L 234.203003 252.751457 
L 234.852962 243.520628 
L 235.177941 231.983273 
L 235.502921 249.010558 
L 236.15288 240.723584 
L 236.477859 229.129958 
L 236.802839 247.69728 
L 237.452798 239.770951 
L 237.777777 227.947511 
L 238.102757 247.212786 
L 238.752716 239.304499 
L 239.077696 227.190655 
L 239.402675 246.941129 
L 240.052634 238.981493 
L 240.377614 226.550173 
L 240.702593 246.731699 
L 241.352552 238.738998 
L 241.677532 225.966483 
L 242.002511 246.557898 
L 242.65247 238.483356 
L 242.97745 225.382451 
L 243.302429 246.384676 
L 243.952388 238.244122 
L 244.277368 224.807929 
L 244.602347 246.21776 
L 245.252307 237.975858 
L 245.577286 224.280137 
L 245.902266 246.083365 
L 246.552225 237.769318 
L 246.877204 223.730583 
L 247.202184 245.93815 
L 247.852143 237.579095 
L 248.177122 223.190019 
L 248.502102 245.800052 
L 249.152061 237.393112 
L 249.47704 222.656643 
L 249.80202 245.645527 
L 250.451979 237.234744 
L 250.776958 222.142343 
L 251.101938 245.526246 
L 251.751897 237.088845 
L 252.076877 221.632173 
L 252.401856 245.387009 
L 253.051815 237.287823 
L 253.376795 221.079325 
L 253.701774 245.316076 
L 254.351733 236.658834 
L 254.676713 220.730238 
L 255.001692 245.364599 
L 255.651651 236.548515 
L 255.976631 220.085748 
L 256.30161 245.018111 
L 256.951569 236.894534 
L 257.276549 219.679775 
L 257.601528 245.030655 
L 258.251488 236.335165 
L 258.576467 219.373632 
L 258.901447 245.103486 
L 259.551406 236.264586 
L 259.876385 218.767367 
L 260.201365 244.783553 
L 260.851324 236.611124 
L 261.176303 218.379293 
L 261.501283 244.795142 
L 262.151242 236.089171 
L 262.476221 218.09989 
L 262.801201 244.885364 
L 263.45116 236.052076 
L 263.776139 217.536785 
L 264.101119 244.591112 
L 264.751078 236.130145 
L 265.076058 217.038014 
L 265.401037 244.544643 
L 266.050996 235.919948 
L 266.375976 216.906323 
L 266.700955 244.681582 
L 267.350914 235.928913 
L 267.675894 216.393721 
L 268.000873 244.417173 
L 268.650832 236.015922 
L 268.975812 215.926847 
L 269.300791 244.395221 
L 269.95075 236.272684 
L 270.27573 215.537667 
L 270.600709 244.398307 
L 271.250669 235.831541 
L 271.575648 215.311709 
L 271.900628 244.288929 
L 272.550587 235.964958 
L 272.875566 214.893123 
L 273.200546 244.270659 
L 273.850505 236.22384 
L 274.175484 214.531843 
L 274.500464 244.280339 
L 275.150423 235.808669 
L 275.475402 214.3303 
L 275.800382 244.362308 
L 276.125361 239.653451 
L 276.450341 220.470222 
L 276.77532 224.616459 
L 277.1003 236.264251 
L 277.425279 234.474925 
L 277.750259 233.579338 
L 278.400218 241.438681 
L 278.725198 238.025872 
L 279.050177 236.208972 
L 279.700136 242.310495 
L 280.025116 238.676079 
L 280.350095 236.694733 
L 280.675075 240.505798 
L 281.000054 242.630001 
L 281.325034 238.728045 
L 281.650013 236.823307 
L 281.974993 240.915584 
L 282.299972 242.771756 
L 282.624952 239.027977 
L 282.949931 236.980151 
L 283.274911 241.016418 
L 283.59989 242.785404 
L 283.92487 239.135953 
L 284.24985 237.12222 
L 284.574829 241.41759 
L 284.899809 242.973562 
L 285.224788 239.118411 
L 285.549768 237.213452 
L 285.874747 241.791793 
L 286.199727 243.124701 
L 286.524706 239.423059 
L 286.849686 237.218638 
L 287.174665 242.116612 
L 287.499645 243.259218 
L 287.824624 239.612842 
L 288.149604 237.576057 
L 288.474583 242.332232 
L 288.799563 243.361634 
L 289.124542 239.568866 
L 289.449522 237.678524 
L 289.774501 242.706761 
L 290.099481 243.529184 
L 290.42446 239.88891 
L 290.74944 237.706025 
L 291.07442 243.044224 
L 291.399399 243.691107 
L 291.724379 240.113756 
L 292.049358 238.102678 
L 292.374338 243.272007 
L 292.699317 243.801362 
L 293.024297 240.324133 
L 293.349276 238.361026 
L 293.674256 243.73378 
L 293.999235 244.030704 
L 294.324215 240.45057 
L 294.649194 238.320055 
L 294.974174 244.0241 
L 295.299153 244.184338 
L 295.624133 240.695121 
L 295.949112 238.722836 
L 296.274092 244.257909 
L 296.599071 244.316545 
L 296.924051 240.941649 
L 297.249031 239.022401 
L 297.57401 244.743804 
L 297.89899 244.562082 
L 298.223969 241.021968 
L 298.548949 239.250711 
L 298.873928 245.182077 
L 299.198908 244.812247 
L 299.523887 241.396049 
L 299.848867 239.458906 
L 300.173846 245.30578 
L 300.498826 244.90916 
L 300.823805 241.647186 
L 301.148785 239.784862 
L 301.473764 245.821631 
L 301.798744 245.19063 
L 302.123723 241.856398 
L 302.448703 240.016673 
L 302.773682 246.167283 
L 303.098662 245.404965 
L 303.423641 242.126668 
L 303.748621 240.320208 
L 304.073601 246.546768 
L 304.39858 245.641503 
L 304.72356 242.418937 
L 305.048539 240.605722 
L 305.373519 246.918583 
L 305.698498 245.880162 
L 306.023478 242.717362 
L 306.348457 240.936221 
L 306.673437 247.310028 
L 306.998416 246.138623 
L 307.323396 243.032754 
L 307.648375 241.283892 
L 307.973355 247.708485 
L 308.298334 246.408098 
L 308.623314 243.36765 
L 308.948293 241.646703 
L 309.273273 248.112785 
L 309.598252 246.690063 
L 309.923232 243.703596 
L 310.248212 242.025626 
L 310.573191 248.493593 
L 310.898171 246.965483 
L 311.22315 244.050232 
L 311.54813 242.412552 
L 311.873109 248.903642 
L 312.198089 247.264769 
L 312.523068 244.418006 
L 312.848048 242.819433 
L 313.173027 249.322122 
L 313.498007 247.577136 
L 313.822986 244.800797 
L 314.147966 243.242616 
L 314.472945 249.745762 
L 314.797925 247.888531 
L 315.122904 245.166636 
L 315.447884 243.664339 
L 315.772863 250.164911 
L 316.097843 248.218045 
L 316.422822 245.574233 
L 316.747802 244.117733 
L 317.072782 250.596194 
L 318.04772 244.587327 
L 318.3727 251.028515 
L 319.347638 245.056212 
L 319.672618 251.459401 
L 319.997597 262.700772 
L 320.322577 263.416041 
L 320.647556 262.573208 
L 320.972536 251.352783 
L 321.297515 263.940465 
L 321.622495 262.970698 
L 321.947474 261.561174 
L 322.272454 249.826659 
L 322.597433 263.298121 
L 322.922413 262.298876 
L 323.247393 260.898977 
L 323.572372 249.081375 
L 323.897352 262.968965 
L 324.222331 261.918331 
L 324.547311 260.485344 
L 324.87229 248.497848 
L 325.19727 262.722948 
L 325.847229 260.123337 
L 326.172208 247.945221 
L 326.497188 262.50166 
L 327.147147 259.782549 
L 327.472126 247.413065 
L 327.797106 262.284217 
L 328.447065 259.464986 
L 328.772044 246.893791 
L 329.097024 262.092139 
L 329.746983 259.16488 
L 330.071963 246.382435 
L 330.396942 261.90458 
L 331.046901 258.866235 
L 331.371881 245.869074 
L 331.69686 261.724793 
L 332.346819 258.610865 
L 332.671799 245.382027 
L 332.996778 261.56297 
L 333.646737 258.338057 
L 333.971717 244.885703 
L 334.296696 261.401787 
L 334.946655 258.083487 
L 335.271635 244.395951 
L 335.596614 261.24891 
L 336.246574 257.816425 
L 336.571553 243.944821 
L 336.896533 261.119495 
L 337.546492 257.588308 
L 337.871471 243.47135 
L 338.196451 260.983406 
L 338.84641 257.344922 
L 339.171389 243.033756 
L 339.496369 260.816192 
L 339.821348 259.260385 
L 340.146328 257.153345 
L 340.471307 242.450611 
L 340.796287 260.698724 
L 341.446246 257.162854 
L 341.771225 241.978176 
L 342.096205 260.599232 
L 342.746164 256.684836 
L 343.071144 241.669882 
L 343.396123 260.461498 
L 344.046082 256.608801 
L 344.371062 241.16295 
L 344.696041 260.369945 
L 345.346 256.654002 
L 345.67098 240.717827 
L 345.995959 260.31594 
L 346.645918 256.208802 
L 346.970898 240.429716 
L 347.295877 260.190987 
L 347.945836 256.158939 
L 348.270816 239.946287 
L 348.595795 260.100887 
L 349.245755 256.226769 
L 349.570734 239.521029 
L 349.895714 260.054767 
L 350.545673 255.818379 
L 350.870652 239.253365 
L 351.195632 260.083303 
L 351.845591 255.672889 
L 352.17057 238.712897 
L 352.49555 259.851983 
L 353.145509 255.85937 
L 353.470488 238.371858 
L 353.795468 259.847286 
L 354.445427 255.483023 
L 354.770406 238.129553 
L 355.095386 259.889322 
L 355.745345 255.389592 
L 356.070325 237.620073 
L 356.395304 259.675782 
L 357.045263 255.367386 
L 357.370243 237.166327 
L 357.695222 259.627052 
L 358.345181 255.220825 
L 358.670161 237.056073 
L 358.99514 259.723378 
L 359.645099 255.15339 
L 359.970079 236.585966 
L 360.295058 259.531548 
L 360.945017 255.138229 
L 361.269997 236.153793 
L 361.594976 259.493975 
L 362.244936 255.254822 
L 362.569915 235.7956 
L 362.894895 259.479996 
L 363.219874 244.279246 
L 363.869833 247.720107 
L 364.194813 252.388929 
L 364.519792 251.225405 
L 364.844772 250.807675 
L 365.169751 252.024025 
L 365.494731 254.10476 
L 365.81971 252.371742 
L 366.14469 251.46168 
L 366.794649 254.425564 
L 367.119628 252.693879 
L 367.444608 251.777572 
L 367.769587 252.953946 
L 368.094567 254.55439 
L 368.419546 252.894123 
L 368.744526 252.023452 
L 369.394485 254.703031 
L 369.719465 252.972076 
L 370.044444 252.084089 
L 370.694403 254.849636 
L 371.019383 253.20345 
L 371.344362 252.34317 
L 371.994321 254.98118 
L 372.319301 253.431192 
L 372.64428 252.610747 
L 373.294239 255.138458 
L 373.619219 253.554883 
L 373.944198 252.851118 
L 374.269178 254.440223 
L 374.594157 255.351583 
L 374.919137 253.792034 
L 375.244117 252.975391 
L 375.569096 254.521677 
L 375.894076 255.466772 
L 376.219055 254.03107 
L 376.544035 253.280313 
L 376.869014 254.901175 
L 377.193994 255.629591 
L 377.518973 254.180069 
L 377.843953 253.548631 
L 378.168932 255.25162 
L 378.493912 255.865816 
L 378.818891 254.434242 
L 379.143871 253.745909 
L 379.46885 255.552888 
L 379.79383 256.09866 
L 380.118809 254.763037 
L 380.443789 254.053745 
L 380.768768 255.746726 
L 381.093748 256.185199 
L 381.418727 254.901204 
L 381.743707 254.344627 
L 382.068687 256.098045 
L 382.393666 256.459199 
L 382.718646 255.169635 
L 383.043625 254.580169 
L 383.368605 256.407834 
L 383.693584 256.713056 
L 384.018564 255.537011 
L 384.343543 254.906656 
L 384.668523 256.607856 
L 384.668523 256.607856 
" clip-path="url(#p73dd28e09f)" style="fill: none; stroke-dasharray: 0.64,0.16,0.1,0.16; stroke-dashoffset: 0; stroke: #000080; stroke-width: 0.1"/>
   </g>
   <g id="patch_9">
    <path d="M 43.78125 273.312 
L 43.78125 140.256 
" style="fill: none; stroke: #000000; stroke-width: 0.8; stroke-linejoin: miter; stroke-linecap: square"/>
   </g>
   <g id="patch_10">
    <path d="M 400.90125 273.312 
L 400.90125 140.256 
" style="fill: none; stroke: #000000; stroke-width: 0.8; stroke-linejoin: miter; stroke-linecap: square"/>
   </g>
   <g id="patch_11">
    <path d="M 43.78125 273.312 
L 400.90125 273.312 
" style="fill: none; stroke: #000000; stroke-width: 0.8; stroke-linejoin: miter; stroke-linecap: square"/>
   </g>
   <g id="patch_12">
    <path d="M 43.78125 140.256 
L 400.90125 140.256 
" style="fill: none; stroke: #000000; stroke-width: 0.8; stroke-linejoin: miter; stroke-linecap: square"/>
   </g>
   <g id="legend_2">
    <g id="patch_13">
     <path d="M 250.762187 192.290375 
L 393.90125 192.290375 
Q 395.90125 192.290375 395.90125 190.290375 
L 395.90125 147.256 
Q 395.90125 145.256 393.90125 145.256 
L 250.762187 145.256 
Q 248.762187 145.256 248.762187 147.256 
L 248.762187 190.290375 
Q 248.762187 192.290375 250.762187 192.290375 
z
" style="fill: #ffffff; opacity: 0.8; stroke: #cccccc; stroke-linejoin: miter"/>
    </g>
    <g id="line2d_33">
     <path d="M 252.762187 153.354437 
L 262.762187 153.354437 
L 272.762187 153.354437 
" style="fill: none; stroke: #66cdaa; stroke-linecap: square"/>
    </g>
    <g id="text_23">
     <text style="font: 10px 'DejaVu Sans', 'Bitstream Vera Sans', 'Computer Modern Sans Serif', 'Lucida Grande', 'Verdana', 'Geneva', 'Lucid', 'Arial', 'Helvetica', 'Avant Garde', sans-serif; text-anchor: start" x="280.762187" y="156.854437" transform="rotate(-0 280.762187 156.854437)">Target response VB1</text>
    </g>
    <g id="line2d_34">
     <path d="M 252.762187 168.032562 
L 262.762187 168.032562 
L 272.762187 168.032562 
" style="fill: none; stroke-dasharray: 3.7,1.6; stroke-dashoffset: 0; stroke: #b22222"/>
    </g>
    <g id="text_24">
     <text style="font: 10px 'DejaVu Sans', 'Bitstream Vera Sans', 'Computer Modern Sans Serif', 'Lucida Grande', 'Verdana', 'Geneva', 'Lucid', 'Arial', 'Helvetica', 'Avant Garde', sans-serif; text-anchor: start" x="280.762187" y="171.532562" transform="rotate(-0 280.762187 171.532562)">Digital prediction VB1</text>
    </g>
    <g id="line2d_35">
     <path d="M 252.762187 182.710687 
L 262.762187 182.710687 
L 272.762187 182.710687 
" style="fill: none; stroke-dasharray: 0.64,0.16,0.1,0.16; stroke-dashoffset: 0; stroke: #000080; stroke-width: 0.1"/>
    </g>
    <g id="text_25">
     <text style="font: 10px 'DejaVu Sans', 'Bitstream Vera Sans', 'Computer Modern Sans Serif', 'Lucida Grande', 'Verdana', 'Geneva', 'Lucid', 'Arial', 'Helvetica', 'Avant Garde', sans-serif; text-anchor: start" x="280.762187" y="186.210687" transform="rotate(-0 280.762187 186.210687)">Analog prediction VB1</text>
    </g>
   </g>
  </g>
 </g>
 <defs>
  <clipPath id="pa1f0c10b9e">
   <rect x="43.78125" y="7.2" width="357.12" height="133.056"/>
  </clipPath>
  <clipPath id="p73dd28e09f">
   <rect x="43.78125" y="140.256" width="357.12" height="133.056"/>
  </clipPath>
 </defs>
</svg>
