<?xml version="1.0" encoding="utf-8" standalone="no"?>
<!DOCTYPE svg PUBLIC "-//W3C//DTD SVG 1.1//EN"
  "http://www.w3.org/Graphics/SVG/1.1/DTD/svg11.dtd">
<svg xmlns:xlink="http://www.w3.org/1999/xlink" width="398.030937pt" height="297.190125pt" viewBox="0 0 398.030937 297.190125" xmlns="http://www.w3.org/2000/svg" version="1.1">
 <metadata>
  <rdf:RDF xmlns:dc="http://purl.org/dc/elements/1.1/" xmlns:cc="http://creativecommons.org/ns#" xmlns:rdf="http://www.w3.org/1999/02/22-rdf-syntax-ns#">
   <cc:Work>
    <dc:type rdf:resource="http://purl.org/dc/dcmitype/StillImage"/>
    <dc:date>2023-10-23T15:57:06.077888</dc:date>
    <dc:format>image/svg+xml</dc:format>
    <dc:creator>
     <cc:Agent>
      <dc:title>Matplotlib v3.8.0, https://matplotlib.org/</dc:title>
     </cc:Agent>
    </dc:creator>
   </cc:Work>
  </rdf:RDF>
 </metadata>
 <defs>
  <style type="text/css">*{stroke-linejoin: round; stroke-linecap: butt}</style>
 </defs>
 <g id="figure_1">
  <g id="patch_1">
   <path d="M 0 297.190125 
L 398.030937 297.190125 
L 398.030937 0 
L 0 0 
z
" style="fill: #ffffff"/>
  </g>
  <g id="axes_1">
   <g id="patch_2">
    <path d="M 33.710938 273.312 
L 390.830938 273.312 
L 390.830938 7.2 
L 33.710938 7.2 
z
" style="fill: #ffffff"/>
   </g>
   <g id="matplotlib.axis_1">
    <g id="xtick_1">
     <g id="line2d_1">
      <defs>
       <path id="ma69282070c" d="M 0 0 
L 0 3.5 
" style="stroke: #000000; stroke-width: 0.8"/>
      </defs>
      <g>
       <use xlink:href="#ma69282070c" x="49.943665" y="273.312" style="stroke: #000000; stroke-width: 0.8"/>
      </g>
     </g>
     <g id="text_1">
      <text style="font: 10px 'DejaVu Sans', 'Bitstream Vera Sans', 'Computer Modern Sans Serif', 'Lucida Grande', 'Verdana', 'Geneva', 'Lucid', 'Arial', 'Helvetica', 'Avant Garde', sans-serif; text-anchor: middle" x="49.943665" y="287.910437" transform="rotate(-0 49.943665 287.910437)">0</text>
     </g>
    </g>
    <g id="xtick_2">
     <g id="line2d_2">
      <g>
       <use xlink:href="#ma69282070c" x="114.93957" y="273.312" style="stroke: #000000; stroke-width: 0.8"/>
      </g>
     </g>
     <g id="text_2">
      <text style="font: 10px 'DejaVu Sans', 'Bitstream Vera Sans', 'Computer Modern Sans Serif', 'Lucida Grande', 'Verdana', 'Geneva', 'Lucid', 'Arial', 'Helvetica', 'Avant Garde', sans-serif; text-anchor: middle" x="114.93957" y="287.910437" transform="rotate(-0 114.93957 287.910437)">100</text>
     </g>
    </g>
    <g id="xtick_3">
     <g id="line2d_3">
      <g>
       <use xlink:href="#ma69282070c" x="179.935475" y="273.312" style="stroke: #000000; stroke-width: 0.8"/>
      </g>
     </g>
     <g id="text_3">
      <text style="font: 10px 'DejaVu Sans', 'Bitstream Vera Sans', 'Computer Modern Sans Serif', 'Lucida Grande', 'Verdana', 'Geneva', 'Lucid', 'Arial', 'Helvetica', 'Avant Garde', sans-serif; text-anchor: middle" x="179.935475" y="287.910437" transform="rotate(-0 179.935475 287.910437)">200</text>
     </g>
    </g>
    <g id="xtick_4">
     <g id="line2d_4">
      <g>
       <use xlink:href="#ma69282070c" x="244.93138" y="273.312" style="stroke: #000000; stroke-width: 0.8"/>
      </g>
     </g>
     <g id="text_4">
      <text style="font: 10px 'DejaVu Sans', 'Bitstream Vera Sans', 'Computer Modern Sans Serif', 'Lucida Grande', 'Verdana', 'Geneva', 'Lucid', 'Arial', 'Helvetica', 'Avant Garde', sans-serif; text-anchor: middle" x="244.93138" y="287.910437" transform="rotate(-0 244.93138 287.910437)">300</text>
     </g>
    </g>
    <g id="xtick_5">
     <g id="line2d_5">
      <g>
       <use xlink:href="#ma69282070c" x="309.927285" y="273.312" style="stroke: #000000; stroke-width: 0.8"/>
      </g>
     </g>
     <g id="text_5">
      <text style="font: 10px 'DejaVu Sans', 'Bitstream Vera Sans', 'Computer Modern Sans Serif', 'Lucida Grande', 'Verdana', 'Geneva', 'Lucid', 'Arial', 'Helvetica', 'Avant Garde', sans-serif; text-anchor: middle" x="309.927285" y="287.910437" transform="rotate(-0 309.927285 287.910437)">400</text>
     </g>
    </g>
    <g id="xtick_6">
     <g id="line2d_6">
      <g>
       <use xlink:href="#ma69282070c" x="374.92319" y="273.312" style="stroke: #000000; stroke-width: 0.8"/>
      </g>
     </g>
     <g id="text_6">
      <text style="font: 10px 'DejaVu Sans', 'Bitstream Vera Sans', 'Computer Modern Sans Serif', 'Lucida Grande', 'Verdana', 'Geneva', 'Lucid', 'Arial', 'Helvetica', 'Avant Garde', sans-serif; text-anchor: middle" x="374.92319" y="287.910437" transform="rotate(-0 374.92319 287.910437)">500</text>
     </g>
    </g>
   </g>
   <g id="matplotlib.axis_2">
    <g id="ytick_1">
     <g id="line2d_7">
      <defs>
       <path id="m8b79762eff" d="M 0 0 
L -3.5 0 
" style="stroke: #000000; stroke-width: 0.8"/>
      </defs>
      <g>
       <use xlink:href="#m8b79762eff" x="33.710938" y="236.739945" style="stroke: #000000; stroke-width: 0.8"/>
      </g>
     </g>
     <g id="text_7">
      <text style="font: 10px 'DejaVu Sans', 'Bitstream Vera Sans', 'Computer Modern Sans Serif', 'Lucida Grande', 'Verdana', 'Geneva', 'Lucid', 'Arial', 'Helvetica', 'Avant Garde', sans-serif; text-anchor: end" x="26.710938" y="240.539164" transform="rotate(-0 26.710938 240.539164)">-0.5</text>
     </g>
    </g>
    <g id="ytick_2">
     <g id="line2d_8">
      <g>
       <use xlink:href="#m8b79762eff" x="33.710938" y="183.524074" style="stroke: #000000; stroke-width: 0.8"/>
      </g>
     </g>
     <g id="text_8">
      <text style="font: 10px 'DejaVu Sans', 'Bitstream Vera Sans', 'Computer Modern Sans Serif', 'Lucida Grande', 'Verdana', 'Geneva', 'Lucid', 'Arial', 'Helvetica', 'Avant Garde', sans-serif; text-anchor: end" x="26.710938" y="187.323293" transform="rotate(-0 26.710938 187.323293)">0.0</text>
     </g>
    </g>
    <g id="ytick_3">
     <g id="line2d_9">
      <g>
       <use xlink:href="#m8b79762eff" x="33.710938" y="130.308203" style="stroke: #000000; stroke-width: 0.8"/>
      </g>
     </g>
     <g id="text_9">
      <text style="font: 10px 'DejaVu Sans', 'Bitstream Vera Sans', 'Computer Modern Sans Serif', 'Lucida Grande', 'Verdana', 'Geneva', 'Lucid', 'Arial', 'Helvetica', 'Avant Garde', sans-serif; text-anchor: end" x="26.710938" y="134.107422" transform="rotate(-0 26.710938 134.107422)">0.5</text>
     </g>
    </g>
    <g id="ytick_4">
     <g id="line2d_10">
      <g>
       <use xlink:href="#m8b79762eff" x="33.710938" y="77.092332" style="stroke: #000000; stroke-width: 0.8"/>
      </g>
     </g>
     <g id="text_10">
      <text style="font: 10px 'DejaVu Sans', 'Bitstream Vera Sans', 'Computer Modern Sans Serif', 'Lucida Grande', 'Verdana', 'Geneva', 'Lucid', 'Arial', 'Helvetica', 'Avant Garde', sans-serif; text-anchor: end" x="26.710938" y="80.89155" transform="rotate(-0 26.710938 80.89155)">1.0</text>
     </g>
    </g>
    <g id="ytick_5">
     <g id="line2d_11">
      <g>
       <use xlink:href="#m8b79762eff" x="33.710938" y="23.87646" style="stroke: #000000; stroke-width: 0.8"/>
      </g>
     </g>
     <g id="text_11">
      <text style="font: 10px 'DejaVu Sans', 'Bitstream Vera Sans', 'Computer Modern Sans Serif', 'Lucida Grande', 'Verdana', 'Geneva', 'Lucid', 'Arial', 'Helvetica', 'Avant Garde', sans-serif; text-anchor: end" x="26.710938" y="27.675679" transform="rotate(-0 26.710938 27.675679)">1.5</text>
     </g>
    </g>
   </g>
   <g id="line2d_12">
    <path d="M 49.943665 188.329564 
L 50.593624 187.770867 
L 51.243583 187.592592 
L 52.86848 187.512324 
L 69.442436 187.507043 
L 115.264549 187.429088 
L 116.564467 186.849323 
L 124.688956 182.803783 
L 129.563648 180.66361 
L 134.113362 178.876675 
L 138.338096 177.443994 
L 142.887809 176.133763 
L 147.437522 175.04722 
L 152.312215 174.135713 
L 155.56201 173.716912 
L 162.38658 173.127268 
L 171.161028 172.623746 
L 174.410823 172.246622 
L 176.3607 171.840709 
L 178.960536 171.158449 
L 179.610495 170.891311 
L 179.935475 158.525015 
L 180.260454 169.361288 
L 180.585434 176.373165 
L 180.910413 180.784873 
L 181.235393 183.478977 
L 181.560372 185.113258 
L 181.885352 186.091953 
L 182.210331 186.673414 
L 182.86029 187.219573 
L 183.51025 187.408465 
L 184.810168 187.495594 
L 192.934656 187.507043 
L 374.59821 187.507043 
L 374.59821 187.507043 
" clip-path="url(#p561321b426)" style="fill: none; stroke: #ff4500; stroke-linecap: square"/>
   </g>
   <g id="line2d_13">
    <path d="M 49.943665 184.895442 
L 50.268644 183.731921 
L 50.593624 183.156245 
L 51.243583 182.710617 
L 52.218521 182.577606 
L 56.443255 182.55735 
L 136.713198 182.556229 
L 137.363157 182.06531 
L 137.688137 181.716003 
L 138.013116 182.136348 
L 138.663075 181.05008 
L 138.988055 180.614206 
L 139.313034 181.585695 
L 139.962993 180.014627 
L 140.287973 179.516945 
L 140.612952 181.05244 
L 140.937932 179.709963 
L 141.587891 178.285665 
L 141.91287 180.441774 
L 142.23785 178.828642 
L 142.887809 177.135139 
L 143.212788 179.886198 
L 143.537768 177.981801 
L 144.187727 175.908969 
L 144.512707 179.299701 
L 144.837686 176.998983 
L 145.487645 174.798374 
L 145.812625 178.774993 
L 146.137604 176.142106 
L 146.787563 173.60475 
L 147.112543 178.221372 
L 147.437522 175.024278 
L 148.087481 172.39128 
L 148.412461 177.656777 
L 148.73744 174.118945 
L 149.387399 171.173506 
L 149.712379 177.102786 
L 150.037358 173.131721 
L 150.687318 169.963016 
L 151.012297 176.553056 
L 151.337277 172.220307 
L 151.662256 170.03636 
L 151.987236 168.754001 
L 152.312215 176.003533 
L 152.637195 171.197718 
L 152.962174 168.816831 
L 153.287154 167.415858 
L 153.612133 175.408364 
L 153.937113 170.245632 
L 154.262092 167.724591 
L 154.587072 166.243107 
L 154.912051 174.89192 
L 155.237031 169.333976 
L 155.56201 166.544525 
L 155.88699 164.755438 
L 156.211969 174.256332 
L 156.536949 168.238158 
L 156.861928 165.367233 
L 157.186908 163.510418 
L 157.511888 173.71808 
L 157.836867 167.295107 
L 158.161847 164.154055 
L 158.486826 162.141272 
L 158.811806 173.134522 
L 159.136785 166.21089 
L 159.461765 162.967973 
L 159.786744 160.872971 
L 160.111724 172.59771 
L 160.436703 165.101616 
L 161.086662 159.490925 
L 161.411642 172.023315 
L 161.736621 164.004058 
L 162.061601 160.455789 
L 162.38658 158.14141 
L 162.71156 171.457958 
L 163.036539 163.006581 
L 163.361519 159.289933 
L 163.686499 156.863206 
L 164.011478 170.931696 
L 164.336458 161.924012 
L 164.661437 157.803071 
L 164.986417 155.314146 
L 165.311396 170.3 
L 165.636376 160.860166 
L 165.961355 156.580271 
L 166.286335 153.990334 
L 166.611314 169.758686 
L 166.936294 159.746087 
L 167.261273 155.221508 
L 167.586253 152.454024 
L 167.911232 169.140799 
L 168.236212 158.674345 
L 168.561191 153.978233 
L 168.886171 150.92233 
L 169.21115 168.541092 
L 169.53613 157.609391 
L 169.861109 152.625704 
L 170.186089 149.378178 
L 170.511069 167.930847 
L 170.836048 156.417881 
L 171.161028 151.307023 
L 171.486007 147.949132 
L 171.810987 167.37169 
L 172.135966 155.356554 
L 172.785925 146.433716 
L 173.110905 166.785804 
L 173.435884 153.997379 
L 174.085843 144.875576 
L 174.410823 166.174519 
L 174.735802 152.986376 
L 175.060782 147.508199 
L 175.385761 143.930982 
L 175.710741 165.805668 
L 176.03572 152.376114 
L 176.3607 145.697726 
L 176.68568 141.427564 
L 177.010659 164.862803 
L 177.335639 150.22043 
L 177.660618 143.934001 
L 177.985598 140.005426 
L 178.310577 164.288149 
L 178.635557 149.428752 
L 178.960536 143.115931 
L 179.285516 139.167538 
L 179.610495 163.976185 
L 179.935475 147.767923 
L 180.260454 140.709015 
L 180.585434 136.208782 
L 180.910413 162.862524 
L 181.235393 146.502365 
L 181.885352 134.916233 
L 182.210331 162.388792 
L 182.535311 145.777122 
L 183.18527 134.085063 
L 183.51025 162.08786 
L 183.835229 144.093786 
L 184.485188 131.040868 
L 184.810168 160.962986 
L 185.135147 142.783297 
L 185.785106 129.886918 
L 186.110086 160.528459 
L 186.435065 141.88933 
L 187.085024 128.97899 
L 187.410004 160.201515 
L 187.734983 140.165623 
L 188.384942 125.835942 
L 188.709922 159.059368 
L 189.034901 138.776464 
L 189.684861 124.602664 
L 190.00984 158.599958 
L 190.33482 138.017519 
L 190.984779 123.619368 
L 191.309758 158.247868 
L 191.634738 136.247427 
L 192.284697 120.374458 
L 192.609676 157.082716 
L 192.934656 134.798817 
L 193.584615 119.075649 
L 193.909594 156.600011 
L 194.234574 134.006196 
L 194.884533 116.631843 
L 195.209512 155.834601 
L 195.534492 131.799335 
L 196.184451 114.323016 
L 196.509431 154.928345 
L 196.83441 130.584119 
L 197.484369 113.121316 
L 197.809349 154.494887 
L 198.134328 129.800836 
L 198.784287 111.088928 
L 199.109267 153.845644 
L 199.434246 127.85248 
L 200.084205 109.44323 
L 200.409185 153.143399 
L 200.734164 127.171861 
L 201.384123 106.747458 
L 201.709103 152.435004 
L 202.034082 124.610186 
L 202.684042 103.582474 
L 203.009021 151.277495 
L 203.334001 122.341733 
L 203.98396 101.630545 
L 204.308939 150.454443 
L 204.633919 121.509553 
L 205.283878 101.1445 
L 205.608857 150.241214 
L 205.933837 121.30296 
L 206.583796 98.943461 
L 206.908775 149.49884 
L 207.233755 119.390763 
L 207.883714 95.509368 
L 208.208693 148.52005 
L 208.533673 116.459842 
L 209.183632 93.38261 
L 209.508612 147.620026 
L 209.833591 115.57504 
L 210.48355 90.725386 
L 210.80853 146.702638 
L 211.133509 113.455024 
L 211.783468 89.525311 
L 212.108448 146.189489 
L 212.433427 112.930482 
L 213.083386 89.199112 
L 213.408366 146.057686 
L 213.733345 112.788182 
L 214.383304 87.456179 
L 214.708284 145.887314 
L 215.033263 111.423096 
L 215.683223 86.802488 
L 216.008202 145.6128 
L 216.333182 111.143294 
L 216.983141 86.632156 
L 217.30812 145.552771 
L 217.6331 115.547096 
L 218.283059 96.565402 
L 218.608038 149.150214 
L 218.933018 119.009555 
L 219.582977 98.42004 
L 219.907956 149.860333 
L 220.232936 126.02583 
L 220.882895 111.677809 
L 221.207874 154.347564 
L 221.532854 136.790256 
L 222.182813 126.359696 
L 222.507793 159.178287 
L 222.832772 140.665893 
L 223.157752 165.344149 
L 223.482731 173.378426 
L 223.807711 177.667821 
L 224.13269 179.934276 
L 224.45767 181.159518 
L 224.782649 181.813429 
L 225.107629 182.164346 
L 225.757588 182.451418 
L 227.057506 182.559103 
L 235.181994 182.569474 
L 374.59821 182.569474 
L 374.59821 182.569474 
" clip-path="url(#p561321b426)" style="fill: none; stroke-dasharray: 0.74,0.32; stroke-dashoffset: 0; stroke: #ff4500; stroke-width: 0.2"/>
   </g>
   <g id="line2d_14">
    <path d="M 49.943665 185.2986 
L 50.268644 183.895106 
L 50.593624 183.071459 
L 50.918603 182.589267 
L 51.568562 182.142977 
L 52.543501 181.958797 
L 55.143337 181.914314 
L 114.93957 181.908872 
L 115.264549 181.664241 
L 115.914508 180.796387 
L 117.539406 178.014243 
L 121.76414 170.739981 
L 125.663894 164.484545 
L 129.238669 159.1551 
L 132.488464 154.631384 
L 135.738259 150.479981 
L 138.988055 146.672804 
L 142.23785 143.176188 
L 145.487645 140.004586 
L 148.73744 137.096558 
L 151.662256 134.793754 
L 154.262092 132.983464 
L 157.511888 130.95213 
L 163.686499 127.353959 
L 166.611314 125.782214 
L 169.861109 124.089141 
L 172.785925 122.435936 
L 174.085843 121.527485 
L 176.68568 119.488639 
L 178.310577 118.283848 
L 179.610495 117.004799 
L 179.935475 19.296 
L 180.585434 115.703586 
L 180.910413 141.879177 
L 181.235393 158.065891 
L 181.560372 167.811933 
L 181.885352 173.615259 
L 182.210331 177.046624 
L 182.535311 179.065987 
L 182.86029 180.25049 
L 183.18527 180.943637 
L 183.835229 181.584614 
L 184.485188 181.802352 
L 185.785106 181.901024 
L 193.259635 181.913732 
L 374.59821 181.913732 
L 374.59821 181.913732 
" clip-path="url(#p561321b426)" style="fill: none; stroke: #c71585; stroke-linecap: square"/>
   </g>
   <g id="line2d_15">
    <path d="M 49.943665 187.412668 
L 50.268644 186.841735 
L 50.593624 186.552553 
L 51.243583 186.346375 
L 52.86848 186.278137 
L 86.341372 186.275944 
L 137.038177 186.188426 
L 137.688137 185.924321 
L 138.013116 186.095945 
L 138.988055 185.493512 
L 139.313034 185.874204 
L 139.962993 185.288529 
L 140.287973 185.11489 
L 140.612952 185.681025 
L 140.937932 185.193854 
L 141.587891 184.728193 
L 141.91287 185.474537 
L 142.23785 184.934765 
L 142.887809 184.422246 
L 143.212788 185.301543 
L 143.537768 184.700951 
L 144.187727 184.143877 
L 144.512707 185.145147 
L 144.837686 184.470129 
L 145.487645 183.930687 
L 145.812625 185.023594 
L 146.137604 184.305405 
L 146.787563 183.743857 
L 147.112543 184.911924 
L 147.437522 184.124297 
L 147.762502 183.777404 
L 148.087481 183.607906 
L 148.412461 184.817647 
L 148.73744 184.003118 
L 149.06242 183.662786 
L 149.387399 183.521409 
L 149.712379 184.741092 
L 150.037358 183.923306 
L 150.362338 183.587483 
L 150.687318 183.477811 
L 151.012297 184.684381 
L 151.337277 183.87141 
L 151.662256 183.567654 
L 151.987236 183.476602 
L 152.312215 184.633646 
L 152.637195 183.848384 
L 152.962174 183.581486 
L 153.287154 183.530629 
L 153.612133 184.609607 
L 153.937113 183.874443 
L 154.262092 183.645516 
L 154.587072 183.634277 
L 154.912051 184.604748 
L 155.237031 183.927028 
L 155.56201 183.749637 
L 155.88699 183.818709 
L 156.211969 184.615324 
L 156.536949 184.025757 
L 156.861928 183.910304 
L 157.186908 184.025892 
L 157.511888 184.646646 
L 157.836867 184.150964 
L 158.161847 184.107559 
L 158.486826 184.301924 
L 158.811806 184.698877 
L 159.136785 184.327772 
L 159.461765 184.358216 
L 160.111724 184.762699 
L 160.436703 184.562601 
L 160.761683 184.649619 
L 161.086662 184.995887 
L 161.411642 184.852682 
L 161.736621 184.831439 
L 162.061601 185.01202 
L 162.38658 185.426136 
L 162.71156 184.953118 
L 163.361519 185.385014 
L 163.686499 185.883965 
L 164.011478 185.060902 
L 164.661437 185.92087 
L 164.986417 186.48869 
L 165.311396 185.21679 
L 166.286335 187.070502 
L 166.611314 185.357216 
L 167.586253 187.771433 
L 167.911232 185.535446 
L 168.561191 187.575262 
L 168.886171 188.549276 
L 169.21115 185.715615 
L 169.861109 188.258654 
L 170.186089 189.391705 
L 170.511069 185.929691 
L 170.836048 187.795937 
L 171.486007 190.222762 
L 171.810987 186.138356 
L 172.135966 188.356236 
L 172.785925 191.150466 
L 173.110905 186.373696 
L 173.435884 189.131982 
L 174.085843 192.167012 
L 174.410823 186.633673 
L 174.735802 189.751435 
L 175.385761 192.816652 
L 175.710741 186.775845 
L 176.3607 192.511951 
L 176.68568 194.590843 
L 177.010659 187.242662 
L 177.335639 191.558047 
L 177.985598 195.661875 
L 178.310577 187.50313 
L 178.635557 192.124839 
L 179.285516 196.323011 
L 179.610495 187.63462 
L 179.935475 193.347337 
L 180.585434 198.717553 
L 180.910413 188.275436 
L 181.235393 194.343978 
L 181.885352 199.818956 
L 182.210331 188.4946 
L 182.535311 194.928465 
L 183.18527 200.569944 
L 183.51025 188.639902 
L 183.835229 196.346749 
L 184.485188 203.360061 
L 184.810168 189.367291 
L 185.135147 197.50237 
L 185.785106 204.409945 
L 186.110086 189.585325 
L 186.435065 198.327182 
L 187.085024 205.302456 
L 187.410004 189.75843 
L 187.734983 199.963511 
L 188.384942 208.485607 
L 188.709922 190.569704 
L 189.034901 201.275147 
L 189.684861 209.687889 
L 190.00984 190.820123 
L 190.33482 202.016762 
L 190.984779 210.740741 
L 191.309758 191.020848 
L 191.634738 203.88607 
L 192.284697 214.325281 
L 192.609676 191.904326 
L 192.934656 205.386247 
L 193.584615 215.690665 
L 193.909594 192.177795 
L 194.234574 206.245626 
L 194.884533 218.650719 
L 195.209512 192.81138 
L 195.534492 208.795756 
L 196.184451 221.26856 
L 196.509431 193.41889 
L 196.83441 210.097404 
L 197.484369 222.634467 
L 197.809349 193.670941 
L 198.134328 210.972505 
L 198.784287 225.229796 
L 199.109267 194.267804 
L 199.434246 213.414768 
L 200.084205 227.07128 
L 200.409185 194.744114 
L 200.734164 214.049508 
L 201.384123 230.844621 
L 201.709103 195.244324 
L 202.034082 217.590589 
L 202.684042 235.137416 
L 203.009021 196.251561 
L 203.334001 220.593555 
L 203.98396 237.397108 
L 204.308939 196.811763 
L 204.633919 221.415189 
L 205.283878 237.786629 
L 205.608857 196.88341 
L 205.933837 221.56031 
L 206.583796 240.876572 
L 206.908775 197.638663 
L 207.233755 224.198489 
L 207.883714 246.028958 
L 208.208693 198.360457 
L 208.533673 228.577822 
L 209.183632 248.85879 
L 209.508612 199.007365 
L 209.833591 229.664994 
L 210.48355 252.712762 
L 210.80853 199.89134 
L 211.133509 232.763976 
L 211.783468 254.036314 
L 212.108448 200.180206 
L 212.433427 233.257528 
L 213.083386 254.316854 
L 213.408366 200.22972 
L 213.733345 233.361421 
L 214.058325 249.903332 
L 214.383304 260.644383 
L 214.708284 200.841237 
L 215.033263 237.965501 
L 215.683223 261.163291 
L 216.008202 200.716598 
L 216.333182 238.1327 
L 216.983141 261.216 
L 217.30812 200.638815 
L 217.6331 236.25435 
L 218.283059 252.563672 
L 218.608038 197.186575 
L 218.933018 231.150824 
L 219.582977 249.596331 
L 219.907956 196.259297 
L 220.232936 225.607129 
L 220.882895 238.388233 
L 221.207874 195.203484 
L 221.532854 217.390177 
L 222.182813 226.556133 
L 222.507793 194.570293 
L 222.832772 214.297338 
L 223.157752 191.889425 
L 223.482731 188.936963 
L 223.807711 187.534562 
L 224.13269 186.864179 
L 224.45767 186.555213 
L 225.107629 186.333218 
L 226.732526 186.283493 
L 292.70337 186.282433 
L 374.59821 186.282433 
L 374.59821 186.282433 
" clip-path="url(#p561321b426)" style="fill: none; stroke-dasharray: 0.74,0.32; stroke-dashoffset: 0; stroke: #c71585; stroke-width: 0.2"/>
   </g>
   <g id="line2d_16">
    <path d="M 49.943665 185.130524 
L 50.593624 184.321033 
L 51.243583 184.01689 
L 52.218521 183.881418 
L 55.143337 183.845796 
L 114.93957 183.84218 
L 115.589529 183.417721 
L 116.889447 182.069658 
L 121.76414 176.821965 
L 125.663894 172.977254 
L 129.563648 169.436273 
L 133.463403 166.164971 
L 137.363157 163.193399 
L 141.587891 160.255116 
L 146.462584 157.155238 
L 151.987236 153.932452 
L 161.736621 148.42102 
L 166.611314 145.144424 
L 169.861109 142.557275 
L 171.486007 141.070694 
L 173.110905 139.323826 
L 174.735802 137.266146 
L 177.010659 133.93755 
L 178.635557 131.22524 
L 179.610495 129.351073 
L 179.935475 119.008872 
L 180.585434 155.925227 
L 180.910413 166.480566 
L 181.235393 173.227654 
L 181.560372 177.430365 
L 181.885352 180.00121 
L 182.210331 181.555268 
L 182.535311 182.487056 
L 182.86029 183.042483 
L 183.51025 183.566928 
L 184.160209 183.749468 
L 185.785106 183.838912 
L 199.434246 183.845498 
L 374.59821 183.845498 
L 374.59821 183.845498 
" clip-path="url(#p561321b426)" style="fill: none; stroke: #4682b4; stroke-linecap: square"/>
   </g>
   <g id="line2d_17">
    <path d="M 49.943665 183.031747 
L 50.268644 181.83889 
L 50.593624 181.232868 
L 51.243583 180.768998 
L 52.218521 180.628683 
L 56.118276 180.607064 
L 136.713198 180.607375 
L 137.363157 180.253423 
L 137.688137 179.998268 
L 138.013116 180.293486 
L 138.988055 179.195866 
L 139.313034 179.8861 
L 139.962993 178.768101 
L 140.287973 178.401736 
L 140.612952 179.492752 
L 141.262911 177.957357 
L 141.587891 177.495918 
L 141.91287 179.040572 
L 142.562829 177.222508 
L 142.887809 176.665733 
L 143.212788 178.622289 
L 143.862747 176.412694 
L 144.187727 175.766671 
L 144.512707 178.183262 
L 144.837686 176.615758 
L 145.487645 174.948843 
L 145.812625 177.790579 
L 146.137604 176.005887 
L 146.787563 174.062364 
L 147.112543 177.378015 
L 147.437522 175.205494 
L 148.087481 173.163708 
L 148.412461 176.951646 
L 148.73744 174.540724 
L 149.387399 172.263744 
L 149.712379 176.528696 
L 150.037358 173.803498 
L 150.687318 171.360473 
L 151.012297 176.111919 
L 151.337277 173.163103 
L 151.662256 171.471821 
L 151.987236 170.462006 
L 152.312215 175.689399 
L 152.637195 172.415859 
L 152.962174 170.561057 
L 153.287154 169.455772 
L 153.612133 175.234392 
L 153.937113 171.727819 
L 154.262092 169.758928 
L 154.587072 168.590302 
L 154.912051 174.841698 
L 155.237031 171.070536 
L 155.56201 168.882156 
L 155.88699 167.497752 
L 156.211969 174.354443 
L 156.536949 170.26582 
L 156.861928 168.01674 
L 157.186908 166.574764 
L 157.511888 173.94548 
L 157.836867 169.586566 
L 158.161847 167.112439 
L 158.486826 165.548575 
L 158.811806 173.499124 
L 159.136785 168.792018 
L 159.461765 166.24243 
L 159.786744 164.610584 
L 160.111724 173.0915 
L 160.436703 168.016023 
L 161.086662 163.58041 
L 161.411642 172.656262 
L 161.736621 167.217875 
L 162.061601 164.381071 
L 162.38658 162.574189 
L 162.71156 172.224865 
L 163.036539 166.501101 
L 163.361519 163.529035 
L 163.686499 161.636194 
L 164.011478 171.825418 
L 164.336458 165.715305 
L 164.661437 162.454592 
L 164.986417 160.475087 
L 165.311396 171.344498 
L 165.636376 164.953934 
L 165.961355 161.5657 
L 166.286335 159.510895 
L 166.611314 170.933545 
L 166.936294 164.145053 
L 167.261273 160.554386 
L 167.586253 158.352902 
L 167.911232 170.464347 
L 168.236212 163.377784 
L 168.561191 159.652497 
L 168.886171 157.27151 
L 169.21115 170.007088 
L 169.53613 162.622262 
L 169.861109 158.65421 
L 170.186089 156.122176 
L 170.511069 169.543709 
L 170.836048 161.76292 
L 171.161028 157.705587 
L 171.486007 155.086477 
L 171.810987 169.119632 
L 172.135966 161.009664 
L 172.785925 153.963594 
L 173.110905 168.679433 
L 173.435884 160.064629 
L 173.760864 155.681906 
L 174.085843 152.827281 
L 174.410823 168.227578 
L 174.735802 159.382566 
L 175.060782 155.014239 
L 175.385761 152.251965 
L 175.710741 167.960754 
L 176.03572 159.032214 
L 176.3607 153.550284 
L 176.68568 150.214023 
L 177.010659 167.214738 
L 177.335639 157.349075 
L 177.660618 152.390046 
L 177.985598 149.30833 
L 178.310577 166.814947 
L 178.635557 156.893341 
L 178.960536 151.921442 
L 179.285516 148.833195 
L 179.610495 166.593421 
L 179.935475 155.591776 
L 180.260454 149.987966 
L 180.585434 146.455304 
L 180.910413 165.742387 
L 181.235393 154.771396 
L 181.560372 149.292116 
L 181.885352 145.735851 
L 182.210331 165.413914 
L 182.535311 154.377974 
L 182.86029 148.86294 
L 183.18527 145.281049 
L 183.51025 165.197983 
L 183.835229 153.062037 
L 184.160209 146.891809 
L 184.485188 142.846776 
L 184.810168 164.341449 
L 185.135147 152.215531 
L 185.785106 142.198836 
L 186.110086 164.047867 
L 186.435065 151.767588 
L 187.085024 141.700017 
L 187.410004 163.81751 
L 187.734983 150.408413 
L 188.384942 139.210423 
L 188.709922 162.956793 
L 189.034901 149.549277 
L 189.684861 138.518423 
L 190.00984 162.657571 
L 190.33482 149.16887 
L 190.984779 137.996818 
L 191.309758 162.405622 
L 191.634738 147.787417 
L 192.284697 135.451096 
L 192.609676 161.534393 
L 192.934656 146.908774 
L 193.584615 134.757421 
L 193.909594 161.21996 
L 194.234574 146.528843 
L 194.884533 132.889737 
L 195.209512 160.634343 
L 195.534492 144.837897 
L 196.184451 131.438094 
L 196.509431 160.012605 
L 196.83441 144.182802 
L 197.484369 130.830641 
L 197.809349 159.724619 
L 198.134328 143.824225 
L 198.784287 129.114652 
L 199.109267 159.241624 
L 199.434246 142.259748 
L 200.084205 128.010105 
L 200.409185 158.793807 
L 200.734164 141.865849 
L 201.384123 126.997682 
L 201.709103 158.2515 
L 202.034082 140.774727 
L 202.684042 124.44837 
L 203.009021 157.387508 
L 203.334001 138.961839 
L 203.98396 123.197977 
L 204.308939 156.876629 
L 204.633919 138.524349 
L 205.283878 122.975864 
L 205.608857 156.778254 
L 205.933837 138.444862 
L 206.583796 121.01391 
L 206.908775 156.25775 
L 207.233755 136.838001 
L 207.883714 119.643263 
L 208.208693 155.540636 
L 208.533673 135.645291 
L 209.183632 118.336442 
L 209.508612 154.920314 
L 209.833591 135.163484 
L 210.48355 116.139055 
L 210.80853 154.303411 
L 211.133509 133.498023 
L 211.783468 115.459563 
L 212.108448 154.021713 
L 212.433427 133.225407 
L 213.083386 115.350076 
L 213.408366 153.969728 
L 213.733345 133.185095 
L 214.383304 112.416275 
L 214.708284 152.732531 
L 215.033263 130.621313 
L 215.683223 110.526636 
L 216.008202 151.943639 
L 216.333182 129.798875 
L 216.983141 109.996667 
L 217.30812 151.736226 
L 217.6331 135.235234 
L 218.283059 121.743672 
L 218.608038 155.464956 
L 218.933018 138.790817 
L 219.582977 123.687708 
L 219.907956 156.209196 
L 220.232936 146.982116 
L 220.882895 139.079714 
L 221.207874 161.524311 
L 221.532854 157.017632 
L 221.857833 154.658087 
L 222.182813 153.194749 
L 222.507793 167.595199 
L 222.832772 161.676385 
L 223.157752 171.398585 
L 223.482731 176.107186 
L 223.807711 178.433465 
L 224.13269 179.567701 
L 224.45767 180.127873 
L 225.107629 180.51819 
L 226.082567 180.621953 
L 233.232117 180.628693 
L 374.59821 180.628693 
L 374.59821 180.628693 
" clip-path="url(#p561321b426)" style="fill: none; stroke-dasharray: 0.74,0.32; stroke-dashoffset: 0; stroke: #4682b4; stroke-width: 0.2"/>
   </g>
   <g id="line2d_18">
    <path d="M 49.943665 188.008724 
L 50.593624 187.501862 
L 51.568562 187.319796 
L 54.168399 187.282483 
L 115.264549 187.196423 
L 116.564467 186.571548 
L 132.488464 177.915796 
L 139.962993 174.190072 
L 147.112543 170.843018 
L 156.861928 166.569022 
L 171.810987 160.12562 
L 175.060782 158.494635 
L 176.68568 157.525837 
L 179.610495 155.705632 
L 179.935475 153.564121 
L 180.260454 167.639095 
L 180.585434 176.018348 
L 180.910413 180.875416 
L 181.235393 183.641695 
L 181.560372 185.217928 
L 181.885352 186.111755 
L 182.210331 186.617821 
L 182.86029 187.066909 
L 183.835229 187.241924 
L 186.435065 187.281614 
L 364.523845 187.282094 
L 374.59821 187.282094 
L 374.59821 187.282094 
" clip-path="url(#p561321b426)" style="fill: none; stroke: #6b8e23; stroke-linecap: square"/>
   </g>
   <g id="line2d_19">
    <path d="M 49.943665 189.000511 
L 50.268644 188.035463 
L 50.593624 187.55794 
L 51.243583 187.186373 
L 52.218521 187.074301 
L 57.093214 187.057016 
L 136.713198 187.055879 
L 137.363157 186.621627 
L 137.688137 186.313209 
L 138.013116 186.68623 
L 138.663075 185.724687 
L 138.988055 185.339908 
L 139.313034 186.201746 
L 139.962993 184.807889 
L 140.287973 184.369093 
L 140.612952 185.734489 
L 140.937932 184.532778 
L 141.587891 183.280117 
L 141.91287 185.199334 
L 142.23785 183.753021 
L 142.887809 182.264632 
L 143.212788 184.717451 
L 143.537768 183.004735 
L 144.187727 181.180442 
L 144.512707 184.208213 
L 144.837686 182.133667 
L 145.487645 180.20057 
L 145.812625 183.754731 
L 146.137604 181.375466 
L 146.787563 179.147028 
L 147.112543 183.27751 
L 147.437522 180.387305 
L 148.087481 178.079003 
L 148.412461 182.793571 
L 148.73744 179.586204 
L 149.387399 177.004625 
L 149.712379 182.320884 
L 150.037358 178.716332 
L 150.687318 175.940233 
L 151.012297 181.853112 
L 151.337277 177.910876 
L 151.662256 176.002621 
L 151.987236 174.880927 
L 152.312215 181.389486 
L 152.637195 177.009838 
L 152.962174 174.929584 
L 153.287154 173.704618 
L 153.612133 180.886897 
L 153.937113 176.171345 
L 154.262092 173.969676 
L 154.587072 172.674932 
L 154.912051 180.453722 
L 155.237031 175.368697 
L 155.56201 172.931951 
L 155.88699 171.366018 
L 156.211969 179.92399 
L 156.536949 174.405435 
L 156.861928 171.899805 
L 157.186908 170.275329 
L 157.511888 179.476221 
L 157.836867 173.576478 
L 158.161847 170.835042 
L 158.486826 169.075591 
L 158.811806 178.992505 
L 159.136785 172.623553 
L 159.461765 169.796358 
L 159.786744 167.966155 
L 160.111724 178.549854 
L 160.436703 171.647829 
L 161.086662 166.758362 
L 161.411642 178.078723 
L 161.736621 170.684849 
L 162.061601 167.602868 
L 162.38658 165.581684 
L 162.71156 177.616557 
L 163.036539 169.810765 
L 163.686499 164.466608 
L 164.011478 177.189028 
L 164.336458 168.861629 
L 164.661437 165.281218 
L 164.986417 163.120222 
L 165.311396 176.677791 
L 165.636376 167.932691 
L 165.961355 164.215702 
L 166.286335 161.967775 
L 166.611314 176.242411 
L 166.936294 166.958584 
L 167.261273 163.032254 
L 167.586253 160.632794 
L 167.911232 175.745652 
L 168.236212 166.024001 
L 168.561191 161.950641 
L 168.886171 159.292764 
L 169.21115 175.269985 
L 169.53613 165.097431 
L 169.861109 160.775095 
L 170.186089 157.953908 
L 170.511069 174.785067 
L 170.836048 164.059149 
L 171.486007 156.715241 
L 171.810987 174.343876 
L 172.135966 163.135953 
L 172.785925 155.401899 
L 173.110905 173.88265 
L 173.435884 161.947837 
L 174.085843 154.059367 
L 174.410823 173.403939 
L 174.735802 161.070258 
L 175.060782 156.343691 
L 175.385761 153.239523 
L 175.710741 173.121468 
L 176.03572 160.53794 
L 176.3607 154.770204 
L 176.68568 151.082118 
L 177.010659 172.385551 
L 177.335639 158.674996 
L 177.660618 153.24925 
L 177.985598 149.863737 
L 178.310577 171.942202 
L 178.635557 157.988214 
L 178.960536 152.538655 
L 179.285516 149.135195 
L 179.610495 171.70966 
L 179.935475 156.547475 
L 180.260454 150.472639 
L 180.585434 146.605035 
L 180.910413 170.84824 
L 181.235393 155.464099 
L 181.885352 145.471716 
L 182.210331 170.49326 
L 182.535311 154.834397 
L 183.18527 144.749029 
L 183.51025 170.274489 
L 183.835229 153.380573 
L 184.485188 142.156967 
L 184.810168 169.417864 
L 185.135147 152.263097 
L 185.785106 141.159622 
L 186.110086 169.095269 
L 186.435065 151.474124 
L 187.085024 140.373238 
L 187.410004 168.860626 
L 187.734983 149.993566 
L 188.384942 137.710534 
L 188.709922 168.004352 
L 189.034901 148.809147 
L 189.684861 136.646235 
L 190.00984 167.66604 
L 190.33482 148.147416 
L 190.984779 135.798358 
L 191.309758 167.418216 
L 191.634738 146.633592 
L 192.284697 133.061671 
L 192.609676 166.557279 
L 192.934656 145.404185 
L 193.584615 131.943503 
L 193.909594 166.207893 
L 194.234574 144.715359 
L 194.884533 129.837269 
L 195.209512 165.661832 
L 195.534492 142.849109 
L 196.184451 127.899254 
L 196.509431 164.998981 
L 196.83441 141.809853 
L 197.484369 126.860824 
L 197.809349 164.693864 
L 198.134328 141.124304 
L 198.784287 125.158018 
L 199.109267 164.233928 
L 199.434246 139.497317 
L 200.084205 123.820383 
L 200.409185 163.711236 
L 200.734164 138.933658 
L 201.384123 121.260252 
L 201.709103 163.237598 
L 202.034082 136.617672 
L 202.684042 118.745874 
L 203.009021 162.454717 
L 203.334001 134.781418 
L 203.98396 117.169014 
L 204.308939 161.858769 
L 204.633919 134.095633 
L 205.283878 116.764442 
L 205.608857 161.698734 
L 205.933837 133.9214 
L 206.583796 114.963826 
L 206.908775 161.164014 
L 207.233755 132.358693 
L 207.883714 111.762342 
L 208.208693 160.505158 
L 208.533673 129.712585 
L 209.183632 110.125864 
L 209.508612 159.919189 
L 209.833591 129.022461 
L 210.48355 107.978993 
L 210.80853 159.282794 
L 211.133509 127.30158 
L 211.783468 107.003535 
L 212.108448 158.910269 
L 212.433427 126.870462 
L 213.083386 106.732427 
L 213.408366 158.813748 
L 213.733345 126.750104 
L 214.383304 105.280355 
L 214.708284 158.937909 
L 215.033263 125.695485 
L 215.683223 105.003538 
L 216.008202 158.889035 
L 216.333182 125.580751 
L 216.983141 104.941081 
L 217.30812 158.892692 
L 217.6331 129.497413 
L 218.283059 113.543081 
L 218.608038 161.747514 
L 218.933018 132.428992 
L 219.582977 115.107349 
L 219.907956 162.307084 
L 220.232936 137.906597 
L 220.882895 125.322024 
L 221.207874 165.245652 
L 221.532854 146.708104 
L 222.182813 137.235691 
L 222.507793 168.313042 
L 222.832772 149.601921 
L 223.157752 173.139011 
L 223.482731 179.552345 
L 223.807711 183.016258 
L 224.13269 184.863171 
L 224.45767 185.874637 
L 224.782649 186.419631 
L 225.432608 186.875683 
L 226.407547 187.034865 
L 229.657342 187.066066 
L 374.59821 187.066152 
L 374.59821 187.066152 
" clip-path="url(#p561321b426)" style="fill: none; stroke-dasharray: 0.74,0.32; stroke-dashoffset: 0; stroke: #6b8e23; stroke-width: 0.2"/>
   </g>
   <g id="patch_3">
    <path d="M 33.710938 273.312 
L 33.710938 7.2 
" style="fill: none; stroke: #000000; stroke-width: 0.8; stroke-linejoin: miter; stroke-linecap: square"/>
   </g>
   <g id="patch_4">
    <path d="M 390.830938 273.312 
L 390.830938 7.2 
" style="fill: none; stroke: #000000; stroke-width: 0.8; stroke-linejoin: miter; stroke-linecap: square"/>
   </g>
   <g id="patch_5">
    <path d="M 33.710938 273.312 
L 390.830937 273.312 
" style="fill: none; stroke: #000000; stroke-width: 0.8; stroke-linejoin: miter; stroke-linecap: square"/>
   </g>
   <g id="patch_6">
    <path d="M 33.710938 7.2 
L 390.830937 7.2 
" style="fill: none; stroke: #000000; stroke-width: 0.8; stroke-linejoin: miter; stroke-linecap: square"/>
   </g>
   <g id="legend_1">
    <g id="patch_7">
     <path d="M 235.952812 132.625 
L 383.830938 132.625 
Q 385.830938 132.625 385.830938 130.625 
L 385.830938 14.2 
Q 385.830938 12.2 383.830938 12.2 
L 235.952812 12.2 
Q 233.952812 12.2 233.952812 14.2 
L 233.952812 130.625 
Q 233.952812 132.625 235.952812 132.625 
z
" style="fill: #ffffff; opacity: 0.8; stroke: #cccccc; stroke-linejoin: miter"/>
    </g>
    <g id="line2d_20">
     <path d="M 237.952812 20.298437 
L 247.952812 20.298437 
L 257.952812 20.298437 
" style="fill: none; stroke: #ff4500; stroke-linecap: square"/>
    </g>
    <g id="text_12">
     <text style="font: 10px 'DejaVu Sans', 'Bitstream Vera Sans', 'Computer Modern Sans Serif', 'Lucida Grande', 'Verdana', 'Geneva', 'Lucid', 'Arial', 'Helvetica', 'Avant Garde', sans-serif; text-anchor: start" x="265.952812" y="23.798437" transform="rotate(-0 265.952812 23.798437)">Digital prediction DB1</text>
    </g>
    <g id="line2d_21">
     <path d="M 237.952812 34.976562 
L 247.952812 34.976562 
L 257.952812 34.976562 
" style="fill: none; stroke-dasharray: 0.74,0.32; stroke-dashoffset: 0; stroke: #ff4500; stroke-width: 0.2"/>
    </g>
    <g id="text_13">
     <text style="font: 10px 'DejaVu Sans', 'Bitstream Vera Sans', 'Computer Modern Sans Serif', 'Lucida Grande', 'Verdana', 'Geneva', 'Lucid', 'Arial', 'Helvetica', 'Avant Garde', sans-serif; text-anchor: start" x="265.952812" y="38.476562" transform="rotate(-0 265.952812 38.476562)">Analog prediction DB1</text>
    </g>
    <g id="line2d_22">
     <path d="M 237.952812 49.654687 
L 247.952812 49.654687 
L 257.952812 49.654687 
" style="fill: none; stroke: #c71585; stroke-linecap: square"/>
    </g>
    <g id="text_14">
     <text style="font: 10px 'DejaVu Sans', 'Bitstream Vera Sans', 'Computer Modern Sans Serif', 'Lucida Grande', 'Verdana', 'Geneva', 'Lucid', 'Arial', 'Helvetica', 'Avant Garde', sans-serif; text-anchor: start" x="265.952812" y="53.154687" transform="rotate(-0 265.952812 53.154687)">Digital prediction LUAL</text>
    </g>
    <g id="line2d_23">
     <path d="M 237.952812 64.332812 
L 247.952812 64.332812 
L 257.952812 64.332812 
" style="fill: none; stroke-dasharray: 0.74,0.32; stroke-dashoffset: 0; stroke: #c71585; stroke-width: 0.2"/>
    </g>
    <g id="text_15">
     <text style="font: 10px 'DejaVu Sans', 'Bitstream Vera Sans', 'Computer Modern Sans Serif', 'Lucida Grande', 'Verdana', 'Geneva', 'Lucid', 'Arial', 'Helvetica', 'Avant Garde', sans-serif; text-anchor: start" x="265.952812" y="67.832812" transform="rotate(-0 265.952812 67.832812)">Analog prediction LUAL</text>
    </g>
    <g id="line2d_24">
     <path d="M 237.952812 79.010937 
L 247.952812 79.010937 
L 257.952812 79.010937 
" style="fill: none; stroke: #4682b4; stroke-linecap: square"/>
    </g>
    <g id="text_16">
     <text style="font: 10px 'DejaVu Sans', 'Bitstream Vera Sans', 'Computer Modern Sans Serif', 'Lucida Grande', 'Verdana', 'Geneva', 'Lucid', 'Arial', 'Helvetica', 'Avant Garde', sans-serif; text-anchor: start" x="265.952812" y="82.510937" transform="rotate(-0 265.952812 82.510937)">Digital prediction PVR</text>
    </g>
    <g id="line2d_25">
     <path d="M 237.952812 93.689062 
L 247.952812 93.689062 
L 257.952812 93.689062 
" style="fill: none; stroke-dasharray: 0.74,0.32; stroke-dashoffset: 0; stroke: #4682b4; stroke-width: 0.2"/>
    </g>
    <g id="text_17">
     <text style="font: 10px 'DejaVu Sans', 'Bitstream Vera Sans', 'Computer Modern Sans Serif', 'Lucida Grande', 'Verdana', 'Geneva', 'Lucid', 'Arial', 'Helvetica', 'Avant Garde', sans-serif; text-anchor: start" x="265.952812" y="97.189062" transform="rotate(-0 265.952812 97.189062)">Analog prediction PVR</text>
    </g>
    <g id="line2d_26">
     <path d="M 237.952812 108.367187 
L 247.952812 108.367187 
L 257.952812 108.367187 
" style="fill: none; stroke: #6b8e23; stroke-linecap: square"/>
    </g>
    <g id="text_18">
     <text style="font: 10px 'DejaVu Sans', 'Bitstream Vera Sans', 'Computer Modern Sans Serif', 'Lucida Grande', 'Verdana', 'Geneva', 'Lucid', 'Arial', 'Helvetica', 'Avant Garde', sans-serif; text-anchor: start" x="265.952812" y="111.867187" transform="rotate(-0 265.952812 111.867187)">Digital prediction VB1</text>
    </g>
    <g id="line2d_27">
     <path d="M 237.952812 123.045312 
L 247.952812 123.045312 
L 257.952812 123.045312 
" style="fill: none; stroke-dasharray: 0.74,0.32; stroke-dashoffset: 0; stroke: #6b8e23; stroke-width: 0.2"/>
    </g>
    <g id="text_19">
     <text style="font: 10px 'DejaVu Sans', 'Bitstream Vera Sans', 'Computer Modern Sans Serif', 'Lucida Grande', 'Verdana', 'Geneva', 'Lucid', 'Arial', 'Helvetica', 'Avant Garde', sans-serif; text-anchor: start" x="265.952812" y="126.545312" transform="rotate(-0 265.952812 126.545312)">Analog prediction VB1</text>
    </g>
   </g>
  </g>
 </g>
 <defs>
  <clipPath id="p561321b426">
   <rect x="33.710938" y="7.2" width="357.12" height="266.112"/>
  </clipPath>
 </defs>
</svg>
