<?xml version="1.0" encoding="utf-8" standalone="no"?>
<!DOCTYPE svg PUBLIC "-//W3C//DTD SVG 1.1//EN"
  "http://www.w3.org/Graphics/SVG/1.1/DTD/svg11.dtd">
<svg xmlns:xlink="http://www.w3.org/1999/xlink" width="398.030937pt" height="297.190125pt" viewBox="0 0 398.030937 297.190125" xmlns="http://www.w3.org/2000/svg" version="1.1">
 <metadata>
  <rdf:RDF xmlns:dc="http://purl.org/dc/elements/1.1/" xmlns:cc="http://creativecommons.org/ns#" xmlns:rdf="http://www.w3.org/1999/02/22-rdf-syntax-ns#">
   <cc:Work>
    <dc:type rdf:resource="http://purl.org/dc/dcmitype/StillImage"/>
    <dc:date>2023-10-23T13:39:55.145847</dc:date>
    <dc:format>image/svg+xml</dc:format>
    <dc:creator>
     <cc:Agent>
      <dc:title>Matplotlib v3.8.0, https://matplotlib.org/</dc:title>
     </cc:Agent>
    </dc:creator>
   </cc:Work>
  </rdf:RDF>
 </metadata>
 <defs>
  <style type="text/css">*{stroke-linejoin: round; stroke-linecap: butt}</style>
 </defs>
 <g id="figure_1">
  <g id="patch_1">
   <path d="M 0 297.190125 
L 398.030937 297.190125 
L 398.030937 0 
L 0 0 
z
" style="fill: #ffffff"/>
  </g>
  <g id="axes_1">
   <g id="patch_2">
    <path d="M 33.710938 140.256 
L 390.830938 140.256 
L 390.830938 7.2 
L 33.710938 7.2 
z
" style="fill: #ffffff"/>
   </g>
   <g id="matplotlib.axis_1">
    <g id="xtick_1">
     <g id="line2d_1">
      <defs>
       <path id="m400c3c8d1b" d="M 0 0 
L 0 3.5 
" style="stroke: #000000; stroke-width: 0.8"/>
      </defs>
      <g>
       <use xlink:href="#m400c3c8d1b" x="49.943665" y="140.256" style="stroke: #000000; stroke-width: 0.8"/>
      </g>
     </g>
    </g>
    <g id="xtick_2">
     <g id="line2d_2">
      <g>
       <use xlink:href="#m400c3c8d1b" x="114.93957" y="140.256" style="stroke: #000000; stroke-width: 0.8"/>
      </g>
     </g>
    </g>
    <g id="xtick_3">
     <g id="line2d_3">
      <g>
       <use xlink:href="#m400c3c8d1b" x="179.935475" y="140.256" style="stroke: #000000; stroke-width: 0.8"/>
      </g>
     </g>
    </g>
    <g id="xtick_4">
     <g id="line2d_4">
      <g>
       <use xlink:href="#m400c3c8d1b" x="244.93138" y="140.256" style="stroke: #000000; stroke-width: 0.8"/>
      </g>
     </g>
    </g>
    <g id="xtick_5">
     <g id="line2d_5">
      <g>
       <use xlink:href="#m400c3c8d1b" x="309.927285" y="140.256" style="stroke: #000000; stroke-width: 0.8"/>
      </g>
     </g>
    </g>
    <g id="xtick_6">
     <g id="line2d_6">
      <g>
       <use xlink:href="#m400c3c8d1b" x="374.92319" y="140.256" style="stroke: #000000; stroke-width: 0.8"/>
      </g>
     </g>
    </g>
   </g>
   <g id="matplotlib.axis_2">
    <g id="ytick_1">
     <g id="line2d_7">
      <defs>
       <path id="m4061526ef7" d="M 0 0 
L -3.5 0 
" style="stroke: #000000; stroke-width: 0.8"/>
      </defs>
      <g>
       <use xlink:href="#m4061526ef7" x="33.710938" y="134.208" style="stroke: #000000; stroke-width: 0.8"/>
      </g>
     </g>
     <g id="text_1">
      <text style="font: 10px 'DejaVu Sans', 'Bitstream Vera Sans', 'Computer Modern Sans Serif', 'Lucida Grande', 'Verdana', 'Geneva', 'Lucid', 'Arial', 'Helvetica', 'Avant Garde', sans-serif; text-anchor: end" x="26.710938" y="138.007219" transform="rotate(-0 26.710938 138.007219)">0.0</text>
     </g>
    </g>
    <g id="ytick_2">
     <g id="line2d_8">
      <g>
       <use xlink:href="#m4061526ef7" x="33.710938" y="107.912348" style="stroke: #000000; stroke-width: 0.8"/>
      </g>
     </g>
     <g id="text_2">
      <text style="font: 10px 'DejaVu Sans', 'Bitstream Vera Sans', 'Computer Modern Sans Serif', 'Lucida Grande', 'Verdana', 'Geneva', 'Lucid', 'Arial', 'Helvetica', 'Avant Garde', sans-serif; text-anchor: end" x="26.710938" y="111.711567" transform="rotate(-0 26.710938 111.711567)">0.5</text>
     </g>
    </g>
    <g id="ytick_3">
     <g id="line2d_9">
      <g>
       <use xlink:href="#m4061526ef7" x="33.710938" y="81.616696" style="stroke: #000000; stroke-width: 0.8"/>
      </g>
     </g>
     <g id="text_3">
      <text style="font: 10px 'DejaVu Sans', 'Bitstream Vera Sans', 'Computer Modern Sans Serif', 'Lucida Grande', 'Verdana', 'Geneva', 'Lucid', 'Arial', 'Helvetica', 'Avant Garde', sans-serif; text-anchor: end" x="26.710938" y="85.415914" transform="rotate(-0 26.710938 85.415914)">1.0</text>
     </g>
    </g>
    <g id="ytick_4">
     <g id="line2d_10">
      <g>
       <use xlink:href="#m4061526ef7" x="33.710938" y="55.321043" style="stroke: #000000; stroke-width: 0.8"/>
      </g>
     </g>
     <g id="text_4">
      <text style="font: 10px 'DejaVu Sans', 'Bitstream Vera Sans', 'Computer Modern Sans Serif', 'Lucida Grande', 'Verdana', 'Geneva', 'Lucid', 'Arial', 'Helvetica', 'Avant Garde', sans-serif; text-anchor: end" x="26.710938" y="59.120262" transform="rotate(-0 26.710938 59.120262)">1.5</text>
     </g>
    </g>
    <g id="ytick_5">
     <g id="line2d_11">
      <g>
       <use xlink:href="#m4061526ef7" x="33.710938" y="29.025391" style="stroke: #000000; stroke-width: 0.8"/>
      </g>
     </g>
     <g id="text_5">
      <text style="font: 10px 'DejaVu Sans', 'Bitstream Vera Sans', 'Computer Modern Sans Serif', 'Lucida Grande', 'Verdana', 'Geneva', 'Lucid', 'Arial', 'Helvetica', 'Avant Garde', sans-serif; text-anchor: end" x="26.710938" y="32.82461" transform="rotate(-0 26.710938 32.82461)">2.0</text>
     </g>
    </g>
   </g>
   <g id="line2d_12">
    <path d="M 49.943665 134.208 
L 114.61459 134.208 
L 114.93957 60.580174 
L 127.613771 60.580174 
L 127.938751 134.208 
L 374.59821 134.208 
L 374.59821 134.208 
" clip-path="url(#p58e7969c10)" style="fill: none; stroke: #ff4500; stroke-width: 1.5; stroke-linecap: square"/>
   </g>
   <g id="line2d_13">
    <path d="M 49.943665 134.208 
L 114.61459 134.208 
L 114.93957 60.580174 
L 244.6064 60.580174 
L 244.93138 134.208 
L 374.59821 134.208 
L 374.59821 134.208 
" clip-path="url(#p58e7969c10)" style="fill: none; stroke-dasharray: 5.55,2.4; stroke-dashoffset: 0; stroke: #c71585; stroke-width: 1.5"/>
   </g>
   <g id="line2d_14">
    <path d="M 49.943665 134.208 
L 114.61459 134.208 
L 114.93957 13.248 
L 147.112543 13.248 
L 147.437522 134.208 
L 179.610495 134.208 
L 179.935475 13.248 
L 212.108448 13.248 
L 212.433427 134.208 
L 244.6064 134.208 
L 244.93138 13.248 
L 277.104353 13.248 
L 277.429332 134.208 
L 374.59821 134.208 
L 374.59821 134.208 
" clip-path="url(#p58e7969c10)" style="fill: none; stroke-dasharray: 9.6,2.4,1.5,2.4; stroke-dashoffset: 0; stroke: #4682b4; stroke-width: 1.5"/>
   </g>
   <g id="line2d_15">
    <path d="M 49.943665 134.208 
L 114.93957 134.183808 
L 147.437522 13.248 
L 179.935475 134.183808 
L 212.433427 13.248 
L 244.93138 134.183808 
L 277.429332 13.248 
L 309.927285 134.208 
L 374.59821 134.208 
L 374.59821 134.208 
" clip-path="url(#p58e7969c10)" style="fill: none; stroke-dasharray: 2.5,4.125; stroke-dashoffset: 0; stroke: #6b8e23; stroke-width: 2.5"/>
   </g>
   <g id="patch_3">
    <path d="M 33.710938 140.256 
L 33.710938 7.2 
" style="fill: none; stroke: #000000; stroke-width: 0.8; stroke-linejoin: miter; stroke-linecap: square"/>
   </g>
   <g id="patch_4">
    <path d="M 390.830938 140.256 
L 390.830938 7.2 
" style="fill: none; stroke: #000000; stroke-width: 0.8; stroke-linejoin: miter; stroke-linecap: square"/>
   </g>
   <g id="patch_5">
    <path d="M 33.710938 140.256 
L 390.830938 140.256 
" style="fill: none; stroke: #000000; stroke-width: 0.8; stroke-linejoin: miter; stroke-linecap: square"/>
   </g>
   <g id="patch_6">
    <path d="M 33.710938 7.2 
L 390.830938 7.2 
" style="fill: none; stroke: #000000; stroke-width: 0.8; stroke-linejoin: miter; stroke-linecap: square"/>
   </g>
   <g id="legend_1">
    <g id="patch_7">
     <path d="M 319.666875 73.9125 
L 383.830938 73.9125 
Q 385.830938 73.9125 385.830938 71.9125 
L 385.830938 14.2 
Q 385.830938 12.2 383.830938 12.2 
L 319.666875 12.2 
Q 317.666875 12.2 317.666875 14.2 
L 317.666875 71.9125 
Q 317.666875 73.9125 319.666875 73.9125 
z
" style="fill: #ffffff; opacity: 0.8; stroke: #cccccc; stroke-linejoin: miter"/>
    </g>
    <g id="line2d_16">
     <path d="M 321.666875 20.298437 
L 331.666875 20.298437 
L 341.666875 20.298437 
" style="fill: none; stroke: #ff4500; stroke-width: 1.5; stroke-linecap: square"/>
    </g>
    <g id="text_6">
     <text style="font: 10px 'DejaVu Sans', 'Bitstream Vera Sans', 'Computer Modern Sans Serif', 'Lucida Grande', 'Verdana', 'Geneva', 'Lucid', 'Arial', 'Helvetica', 'Avant Garde', sans-serif; text-anchor: start" x="349.666875" y="23.798437" transform="rotate(-0 349.666875 23.798437)">PLML2</text>
    </g>
    <g id="line2d_17">
     <path d="M 321.666875 34.976562 
L 331.666875 34.976562 
L 341.666875 34.976562 
" style="fill: none; stroke-dasharray: 5.55,2.4; stroke-dashoffset: 0; stroke: #c71585; stroke-width: 1.5"/>
    </g>
    <g id="text_7">
     <text style="font: 10px 'DejaVu Sans', 'Bitstream Vera Sans', 'Computer Modern Sans Serif', 'Lucida Grande', 'Verdana', 'Geneva', 'Lucid', 'Arial', 'Helvetica', 'Avant Garde', sans-serif; text-anchor: start" x="349.666875" y="38.476562" transform="rotate(-0 349.666875 38.476562)">PLMR</text>
    </g>
    <g id="line2d_18">
     <path d="M 321.666875 49.654687 
L 331.666875 49.654687 
L 341.666875 49.654687 
" style="fill: none; stroke-dasharray: 9.6,2.4,1.5,2.4; stroke-dashoffset: 0; stroke: #4682b4; stroke-width: 1.5"/>
    </g>
    <g id="text_8">
     <text style="font: 10px 'DejaVu Sans', 'Bitstream Vera Sans', 'Computer Modern Sans Serif', 'Lucida Grande', 'Verdana', 'Geneva', 'Lucid', 'Arial', 'Helvetica', 'Avant Garde', sans-serif; text-anchor: start" x="349.666875" y="53.154687" transform="rotate(-0 349.666875 53.154687)">AVBL</text>
    </g>
    <g id="line2d_19">
     <path d="M 321.666875 64.332812 
L 331.666875 64.332812 
L 341.666875 64.332812 
" style="fill: none; stroke-dasharray: 2.5,4.125; stroke-dashoffset: 0; stroke: #6b8e23; stroke-width: 2.5"/>
    </g>
    <g id="text_9">
     <text style="font: 10px 'DejaVu Sans', 'Bitstream Vera Sans', 'Computer Modern Sans Serif', 'Lucida Grande', 'Verdana', 'Geneva', 'Lucid', 'Arial', 'Helvetica', 'Avant Garde', sans-serif; text-anchor: start" x="349.666875" y="67.832812" transform="rotate(-0 349.666875 67.832812)">AVBR</text>
    </g>
   </g>
  </g>
  <g id="axes_2">
   <g id="patch_8">
    <path d="M 33.710938 273.312 
L 390.830938 273.312 
L 390.830938 140.256 
L 33.710938 140.256 
z
" style="fill: #ffffff"/>
   </g>
   <g id="matplotlib.axis_3">
    <g id="xtick_7">
     <g id="line2d_20">
      <g>
       <use xlink:href="#m400c3c8d1b" x="49.943665" y="273.312" style="stroke: #000000; stroke-width: 0.8"/>
      </g>
     </g>
     <g id="text_10">
      <text style="font: 10px 'DejaVu Sans', 'Bitstream Vera Sans', 'Computer Modern Sans Serif', 'Lucida Grande', 'Verdana', 'Geneva', 'Lucid', 'Arial', 'Helvetica', 'Avant Garde', sans-serif; text-anchor: middle" x="49.943665" y="287.910437" transform="rotate(-0 49.943665 287.910437)">0.0</text>
     </g>
    </g>
    <g id="xtick_8">
     <g id="line2d_21">
      <g>
       <use xlink:href="#m400c3c8d1b" x="114.93957" y="273.312" style="stroke: #000000; stroke-width: 0.8"/>
      </g>
     </g>
     <g id="text_11">
      <text style="font: 10px 'DejaVu Sans', 'Bitstream Vera Sans', 'Computer Modern Sans Serif', 'Lucida Grande', 'Verdana', 'Geneva', 'Lucid', 'Arial', 'Helvetica', 'Avant Garde', sans-serif; text-anchor: middle" x="114.93957" y="287.910437" transform="rotate(-0 114.93957 287.910437)">0.1</text>
     </g>
    </g>
    <g id="xtick_9">
     <g id="line2d_22">
      <g>
       <use xlink:href="#m400c3c8d1b" x="179.935475" y="273.312" style="stroke: #000000; stroke-width: 0.8"/>
      </g>
     </g>
     <g id="text_12">
      <text style="font: 10px 'DejaVu Sans', 'Bitstream Vera Sans', 'Computer Modern Sans Serif', 'Lucida Grande', 'Verdana', 'Geneva', 'Lucid', 'Arial', 'Helvetica', 'Avant Garde', sans-serif; text-anchor: middle" x="179.935475" y="287.910437" transform="rotate(-0 179.935475 287.910437)">0.2</text>
     </g>
    </g>
    <g id="xtick_10">
     <g id="line2d_23">
      <g>
       <use xlink:href="#m400c3c8d1b" x="244.93138" y="273.312" style="stroke: #000000; stroke-width: 0.8"/>
      </g>
     </g>
     <g id="text_13">
      <text style="font: 10px 'DejaVu Sans', 'Bitstream Vera Sans', 'Computer Modern Sans Serif', 'Lucida Grande', 'Verdana', 'Geneva', 'Lucid', 'Arial', 'Helvetica', 'Avant Garde', sans-serif; text-anchor: middle" x="244.93138" y="287.910437" transform="rotate(-0 244.93138 287.910437)">0.3</text>
     </g>
    </g>
    <g id="xtick_11">
     <g id="line2d_24">
      <g>
       <use xlink:href="#m400c3c8d1b" x="309.927285" y="273.312" style="stroke: #000000; stroke-width: 0.8"/>
      </g>
     </g>
     <g id="text_14">
      <text style="font: 10px 'DejaVu Sans', 'Bitstream Vera Sans', 'Computer Modern Sans Serif', 'Lucida Grande', 'Verdana', 'Geneva', 'Lucid', 'Arial', 'Helvetica', 'Avant Garde', sans-serif; text-anchor: middle" x="309.927285" y="287.910437" transform="rotate(-0 309.927285 287.910437)">0.4</text>
     </g>
    </g>
    <g id="xtick_12">
     <g id="line2d_25">
      <g>
       <use xlink:href="#m400c3c8d1b" x="374.92319" y="273.312" style="stroke: #000000; stroke-width: 0.8"/>
      </g>
     </g>
     <g id="text_15">
      <text style="font: 10px 'DejaVu Sans', 'Bitstream Vera Sans', 'Computer Modern Sans Serif', 'Lucida Grande', 'Verdana', 'Geneva', 'Lucid', 'Arial', 'Helvetica', 'Avant Garde', sans-serif; text-anchor: middle" x="374.92319" y="287.910437" transform="rotate(-0 374.92319 287.910437)">0.5</text>
     </g>
    </g>
   </g>
   <g id="matplotlib.axis_4">
    <g id="ytick_6">
     <g id="line2d_26">
      <g>
       <use xlink:href="#m4061526ef7" x="33.710938" y="253.802783" style="stroke: #000000; stroke-width: 0.8"/>
      </g>
     </g>
     <g id="text_16">
      <text style="font: 10px 'DejaVu Sans', 'Bitstream Vera Sans', 'Computer Modern Sans Serif', 'Lucida Grande', 'Verdana', 'Geneva', 'Lucid', 'Arial', 'Helvetica', 'Avant Garde', sans-serif; text-anchor: end" x="26.710938" y="257.602001" transform="rotate(-0 26.710938 257.602001)">-0.5</text>
     </g>
    </g>
    <g id="ytick_7">
     <g id="line2d_27">
      <g>
       <use xlink:href="#m4061526ef7" x="33.710938" y="221.748553" style="stroke: #000000; stroke-width: 0.8"/>
      </g>
     </g>
     <g id="text_17">
      <text style="font: 10px 'DejaVu Sans', 'Bitstream Vera Sans', 'Computer Modern Sans Serif', 'Lucida Grande', 'Verdana', 'Geneva', 'Lucid', 'Arial', 'Helvetica', 'Avant Garde', sans-serif; text-anchor: end" x="26.710938" y="225.547772" transform="rotate(-0 26.710938 225.547772)">0.0</text>
     </g>
    </g>
    <g id="ytick_8">
     <g id="line2d_28">
      <g>
       <use xlink:href="#m4061526ef7" x="33.710938" y="189.694323" style="stroke: #000000; stroke-width: 0.8"/>
      </g>
     </g>
     <g id="text_18">
      <text style="font: 10px 'DejaVu Sans', 'Bitstream Vera Sans', 'Computer Modern Sans Serif', 'Lucida Grande', 'Verdana', 'Geneva', 'Lucid', 'Arial', 'Helvetica', 'Avant Garde', sans-serif; text-anchor: end" x="26.710938" y="193.493542" transform="rotate(-0 26.710938 193.493542)">0.5</text>
     </g>
    </g>
    <g id="ytick_9">
     <g id="line2d_29">
      <g>
       <use xlink:href="#m4061526ef7" x="33.710938" y="157.640094" style="stroke: #000000; stroke-width: 0.8"/>
      </g>
     </g>
     <g id="text_19">
      <text style="font: 10px 'DejaVu Sans', 'Bitstream Vera Sans', 'Computer Modern Sans Serif', 'Lucida Grande', 'Verdana', 'Geneva', 'Lucid', 'Arial', 'Helvetica', 'Avant Garde', sans-serif; text-anchor: end" x="26.710938" y="161.439312" transform="rotate(-0 26.710938 161.439312)">1.0</text>
     </g>
    </g>
   </g>
   <g id="line2d_30">
    <path d="M 49.943665 225.915603 
L 116.889447 225.816797 
L 118.839324 225.463415 
L 120.789201 224.850866 
L 122.739078 223.997649 
L 125.013935 222.735001 
L 127.288792 221.222945 
L 129.888628 219.245787 
L 132.813444 216.716393 
L 136.388218 213.300885 
L 140.287973 209.231658 
L 144.512707 204.696344 
L 152.962174 194.386191 
L 160.436703 184.910839 
L 170.836048 171.283066 
L 179.935475 158.970607 
L 180.260454 159.29029 
L 180.910413 160.794691 
L 182.210331 164.83807 
L 186.435065 178.552273 
L 188.384942 184.053824 
L 190.33482 188.917162 
L 192.284697 193.191158 
L 194.234574 196.941368 
L 196.184451 200.232562 
L 198.134328 203.123404 
L 200.084205 205.665414 
L 202.359062 208.249536 
L 204.633919 210.480312 
L 206.908775 212.409124 
L 209.508612 214.299208 
L 212.108448 215.905922 
L 215.033263 217.430735 
L 217.958079 218.706877 
L 221.207874 219.88539 
L 224.782649 220.945369 
L 228.682404 221.876309 
L 233.232117 222.730484 
L 238.431789 223.474606 
L 244.6064 224.123455 
L 252.080929 224.671283 
L 261.180356 225.107831 
L 273.204598 225.451227 
L 290.103534 225.696485 
L 317.726793 225.84818 
L 374.59821 225.908955 
L 374.59821 225.908955 
" clip-path="url(#pff358c4440)" style="fill: none; stroke: #c71585; stroke-linecap: square"/>
   </g>
   <g id="line2d_31">
    <path d="M 49.943665 209.03008 
L 50.593624 191.01318 
L 51.243583 182.100683 
L 51.893542 177.588944 
L 52.543501 175.285562 
L 53.19346 174.100793 
L 53.843419 173.485032 
L 54.493378 173.159476 
L 55.468317 172.924925 
L 57.418194 172.759591 
L 63.592805 172.581831 
L 77.241945 172.379061 
L 94.46586 172.385873 
L 109.414918 172.538778 
L 114.61459 172.673271 
L 114.93957 170.537321 
L 115.589529 174.550424 
L 115.914508 175.543155 
L 116.239488 176.106539 
L 116.564467 176.377402 
L 116.889447 176.423911 
L 117.539406 176.118742 
L 120.139242 174.455002 
L 121.114181 174.149822 
L 121.43916 161.832176 
L 121.76414 162.478273 
L 123.389037 168.883865 
L 124.038996 170.334712 
L 124.688956 171.199341 
L 125.338915 171.681757 
L 125.988874 171.931401 
L 126.963812 172.064286 
L 127.613771 172.069549 
L 127.938751 179.429104 
L 128.26373 181.494053 
L 128.58871 182.676316 
L 128.913689 183.141447 
L 129.238669 183.134653 
L 129.563648 182.891104 
L 130.213607 181.995515 
L 131.513526 179.498251 
L 132.813444 177.168383 
L 134.113362 175.321534 
L 134.438341 157.968217 
L 134.763321 157.276054 
L 135.0883 158.158129 
L 136.713198 165.672952 
L 137.363157 167.529093 
L 138.013116 168.715811 
L 138.663075 169.428065 
L 139.313034 169.827016 
L 140.287973 170.074831 
L 140.612952 170.099156 
L 140.937932 180.954853 
L 141.262911 184.216954 
L 141.587891 185.99288 
L 141.91287 186.848001 
L 142.23785 186.979176 
L 142.562829 186.530911 
L 143.212788 184.881272 
L 144.187727 181.670848 
L 146.787563 172.651872 
L 147.112543 171.673937 
L 147.437522 148.954827 
L 147.762502 146.304 
L 148.087481 146.348639 
L 148.412461 147.70693 
L 150.362338 159.723599 
L 151.012297 162.387543 
L 151.662256 164.297887 
L 152.312215 165.641729 
L 152.962174 166.587038 
L 153.937113 167.528634 
L 154.912051 168.132642 
L 156.211969 168.677237 
L 158.486826 169.329355 
L 162.061601 170.09038 
L 166.611314 170.813497 
L 179.285516 172.415388 
L 179.610495 172.448414 
L 180.260454 200.778163 
L 180.585434 209.219321 
L 180.910413 214.111607 
L 181.235393 216.937628 
L 181.560372 218.56712 
L 181.885352 219.505616 
L 182.210331 220.045658 
L 182.86029 220.535443 
L 183.835229 220.732007 
L 186.110086 220.777576 
L 272.554639 220.778574 
L 374.59821 220.778574 
L 374.59821 220.778574 
" clip-path="url(#pff358c4440)" style="fill: none; stroke-dasharray: 3.7,1.6; stroke-dashoffset: 0; stroke: #c71585"/>
   </g>
   <g id="line2d_32">
    <path d="M 49.943665 224.090822 
L 50.268644 223.746924 
L 50.918603 223.490832 
L 52.218521 223.411427 
L 66.192641 223.406124 
L 136.063239 223.406124 
L 136.388218 229.426158 
L 136.713198 221.911116 
L 137.363157 242.007548 
L 137.688137 249.498689 
L 138.013116 223.909684 
L 138.338096 242.78505 
L 138.988055 255.988165 
L 139.313034 225.021027 
L 139.638014 245.706538 
L 140.287973 258.247331 
L 140.612952 225.533186 
L 140.937932 246.912003 
L 141.587891 259.461827 
L 141.91287 225.901454 
L 142.23785 247.693779 
L 142.887809 260.412689 
L 143.212788 226.23581 
L 143.537768 248.370499 
L 144.187727 261.279781 
L 144.512707 226.547745 
L 144.837686 249.000646 
L 145.487645 262.147641 
L 145.812625 226.863675 
L 146.137604 249.643414 
L 146.787563 263.008412 
L 147.112543 227.190144 
L 147.437522 250.283162 
L 148.087481 263.88282 
L 148.412461 227.518758 
L 148.73744 250.894876 
L 149.387399 264.707164 
L 149.712379 227.832949 
L 150.037358 251.529553 
L 150.687318 265.566258 
L 151.012297 228.157786 
L 151.337277 252.16874 
L 151.987236 266.436827 
L 152.312215 228.485632 
L 152.637195 252.817788 
L 153.287154 267.264 
L 153.612133 228.800032 
L 153.937113 234.338517 
L 154.262092 234.605215 
L 154.587072 235.062142 
L 154.912051 226.435978 
L 155.237031 229.979552 
L 155.88699 233.067082 
L 156.211969 226.100386 
L 156.536949 229.539116 
L 157.186908 233.274607 
L 157.511888 226.333436 
L 157.836867 229.677845 
L 158.486826 233.701813 
L 158.811806 226.583161 
L 159.136785 230.05979 
L 159.786744 233.951396 
L 160.111724 226.689869 
L 160.436703 230.339818 
L 161.086662 234.481379 
L 161.411642 226.974446 
L 162.061601 232.940759 
L 162.38658 234.950784 
L 162.71156 227.224684 
L 163.036539 230.977156 
L 163.686499 235.207753 
L 164.011478 227.331178 
L 164.336458 231.268773 
L 164.986417 235.746962 
L 165.311396 227.619849 
L 165.961355 234.084261 
L 166.286335 236.226037 
L 166.611314 227.880001 
L 166.936294 231.931219 
L 167.586253 236.6363 
L 167.911232 228.114059 
L 168.236212 232.328315 
L 168.886171 237.086465 
L 169.21115 228.303358 
L 169.861109 235.268708 
L 170.186089 237.541182 
L 170.511069 228.553427 
L 170.836048 232.894617 
L 171.486007 237.950112 
L 171.810987 228.789697 
L 172.135966 233.309128 
L 172.785925 238.40762 
L 173.110905 228.981917 
L 173.435884 233.683494 
L 174.085843 239.010968 
L 174.410823 229.297603 
L 174.735802 233.944615 
L 175.385761 239.309181 
L 175.710741 229.48719 
L 176.03572 234.312563 
L 176.68568 239.738867 
L 177.010659 229.670702 
L 177.335639 234.685492 
L 177.985598 240.347008 
L 178.310577 229.990248 
L 178.960536 238.255251 
L 179.285516 240.855244 
L 179.610495 230.269848 
L 179.935475 226.469306 
L 180.260454 226.01155 
L 180.585434 225.927359 
L 180.910413 226.293648 
L 181.235393 224.943318 
L 181.885352 225.802335 
L 182.210331 226.161766 
L 182.535311 224.979762 
L 182.86029 225.484888 
L 183.51025 226.070372 
L 183.835229 224.888044 
L 184.160209 225.415293 
L 184.810168 225.963095 
L 185.135147 224.7772 
L 185.460127 225.262344 
L 186.110086 225.884802 
L 186.435065 224.743444 
L 186.760045 225.183672 
L 187.410004 225.756346 
L 187.734983 224.624153 
L 188.059963 225.088313 
L 188.709922 225.645525 
L 189.034901 224.516366 
L 189.684861 225.193743 
L 190.00984 225.576726 
L 190.33482 224.422488 
L 191.309758 225.426204 
L 191.634738 224.362749 
L 191.959717 224.771746 
L 192.284697 224.97438 
L 192.609676 225.341325 
L 192.934656 224.269636 
L 193.909594 225.275067 
L 194.234574 224.185946 
L 195.209512 225.139758 
L 195.534492 224.12888 
L 196.509431 225.025368 
L 196.83441 224.029927 
L 197.809349 224.989715 
L 198.134328 223.967782 
L 199.109267 224.867939 
L 199.434246 223.912728 
L 200.409185 224.762479 
L 200.734164 223.825166 
L 201.709103 224.674661 
L 202.034082 223.743998 
L 203.009021 224.615695 
L 203.334001 223.716657 
L 203.98396 224.064501 
L 204.308939 224.52357 
L 204.633919 223.634548 
L 205.283878 223.991694 
L 205.608857 224.451461 
L 205.933837 223.575232 
L 206.583796 223.903107 
L 206.908775 224.378126 
L 207.233755 223.517595 
L 207.883714 223.827646 
L 208.208693 224.305567 
L 208.533673 223.463849 
L 209.183632 223.746585 
L 209.508612 224.235494 
L 209.833591 223.409881 
L 210.48355 223.673511 
L 210.80853 224.163359 
L 211.133509 223.359112 
L 211.783468 223.602122 
L 212.108448 224.095645 
L 212.433427 223.310633 
L 213.083386 223.532529 
L 213.408366 224.03488 
L 213.733345 223.268026 
L 214.383304 223.468702 
L 214.708284 223.97015 
L 215.033263 223.223785 
L 215.683223 223.405424 
L 216.008202 223.910622 
L 216.333182 223.181847 
L 216.983141 223.343734 
L 217.30812 223.853653 
L 217.6331 223.143024 
L 218.283059 223.288119 
L 218.608038 223.799859 
L 218.933018 223.10689 
L 219.582977 223.237062 
L 219.907956 223.749134 
L 220.232936 223.073845 
L 220.882895 223.181017 
L 221.207874 223.699492 
L 221.532854 223.042516 
L 222.182813 223.132785 
L 222.507793 223.654293 
L 222.832772 223.01442 
L 223.157752 223.660329 
L 223.482731 224.789919 
L 223.807711 222.881038 
L 224.782649 226.77526 
L 225.107629 223.23714 
L 225.432608 225.240828 
L 226.082567 227.577567 
L 226.407547 223.528853 
L 226.732526 225.656413 
L 227.382485 228.04209 
L 227.707465 223.739702 
L 228.032444 225.96145 
L 228.682404 228.442577 
L 229.007383 223.934569 
L 229.332363 226.243066 
L 229.982322 228.838446 
L 230.307301 224.132007 
L 230.632281 226.52774 
L 231.28224 229.220123 
L 231.607219 224.324189 
L 231.932199 226.808525 
L 232.582158 229.615227 
L 232.907137 224.521582 
L 233.232117 227.099653 
L 233.882076 230.013098 
L 234.207055 224.723333 
L 234.532035 227.39098 
L 235.181994 230.408126 
L 235.506974 224.916818 
L 235.831953 227.679191 
L 236.481912 230.815961 
L 236.806892 225.120806 
L 237.131871 227.981413 
L 237.78183 231.221427 
L 238.10681 225.328467 
L 238.431789 228.277478 
L 239.081748 231.647002 
L 239.406728 225.538194 
L 239.731707 228.567285 
L 240.381666 232.045231 
L 240.706646 225.743978 
L 241.031625 228.86478 
L 241.681585 232.464336 
L 242.006564 225.956631 
L 242.331544 229.154822 
L 242.981503 232.856505 
L 243.306482 226.180542 
L 243.631462 229.525338 
L 244.281421 233.286016 
L 244.6064 226.358559 
L 244.93138 229.867632 
L 245.581339 233.850189 
L 245.906318 226.648764 
L 246.231298 230.116301 
L 246.881257 234.126584 
L 247.206236 226.822724 
L 247.531216 230.449605 
L 248.181175 234.53916 
L 248.506155 226.998304 
L 248.831134 230.78499 
L 249.481093 235.105744 
L 249.806073 227.288072 
L 250.131052 231.032526 
L 250.781011 235.383835 
L 251.105991 227.471154 
L 251.43097 231.38541 
L 252.080929 235.804352 
L 252.405909 227.643778 
L 252.730888 231.73504 
L 253.380847 236.382438 
L 253.705827 227.944265 
L 254.355786 234.662922 
L 254.680766 236.866576 
L 255.005745 228.21107 
L 255.330725 232.412263 
L 255.980684 237.131665 
L 256.305663 228.322261 
L 256.630643 232.714414 
L 257.280602 237.693739 
L 257.605581 228.617503 
L 258.25554 235.845808 
L 258.58052 238.186988 
L 258.905499 228.88798 
L 259.230479 233.393676 
L 259.880438 238.608072 
L 260.205417 229.12942 
L 260.530397 233.800052 
L 261.180356 239.076048 
L 261.505336 229.322976 
L 262.155295 237.057237 
L 262.480274 239.523636 
L 262.805254 229.576053 
L 263.130233 234.388519 
L 263.780192 239.944948 
L 264.105172 229.820424 
L 264.430151 234.801573 
L 265.08011 240.407463 
L 265.40509 230.015876 
L 265.730069 235.18492 
L 266.055049 238.485172 
L 266.380028 228.288405 
L 266.705008 227.517497 
L 267.029987 225.3322 
L 268.004926 226.155396 
L 268.329906 224.926252 
L 268.654885 225.490587 
L 269.304844 226.17789 
L 269.629824 224.921058 
L 269.954803 225.430492 
L 270.604762 226.050279 
L 270.929742 224.880167 
L 271.254721 225.350521 
L 271.90468 225.914224 
L 272.22966 224.757014 
L 272.554639 225.250643 
L 273.204598 225.88054 
L 273.529578 224.675273 
L 274.179537 225.374893 
L 274.504517 225.732157 
L 274.829496 224.613301 
L 275.154476 225.025693 
L 275.479455 225.24492 
L 275.804435 225.602156 
L 276.129414 224.497906 
L 276.454394 224.928623 
L 276.779373 225.139327 
L 277.104353 225.494493 
L 277.429332 224.391522 
L 278.404271 225.419327 
L 278.72925 224.359362 
L 279.704189 225.302591 
L 280.029168 224.252659 
L 280.354148 224.631022 
L 280.679128 224.820223 
L 281.004107 225.20255 
L 281.329087 224.155958 
L 282.304025 225.132822 
L 282.629005 224.072484 
L 283.603943 224.999383 
L 283.928923 224.02036 
L 284.253902 224.349494 
L 284.578882 224.517674 
L 284.903861 224.923285 
L 285.228841 223.937503 
L 286.203779 224.862071 
L 286.528759 223.867878 
L 287.503698 224.743082 
L 287.828677 223.816027 
L 288.803616 224.640694 
L 289.128595 223.728871 
L 290.103534 224.612308 
L 290.428513 223.676415 
L 291.078472 224.033124 
L 291.403452 224.501842 
L 291.728431 223.617405 
L 292.37839 223.959557 
L 292.70337 224.425916 
L 293.028349 223.556685 
L 293.678309 223.874518 
L 294.003288 224.350126 
L 294.328268 223.499554 
L 294.978227 223.801728 
L 295.303206 224.279273 
L 295.628186 223.446021 
L 296.278145 223.722907 
L 296.603124 224.207753 
L 296.928104 223.392958 
L 297.578063 223.649621 
L 297.903042 224.137828 
L 298.228022 223.342353 
L 298.877981 223.578176 
L 299.20296 224.07134 
L 299.52794 223.294678 
L 300.177899 223.512336 
L 300.502879 224.01226 
L 300.827858 223.251592 
L 301.477817 223.447435 
L 301.802797 223.951218 
L 302.127776 223.208236 
L 302.777735 223.38524 
L 303.102715 223.892405 
L 303.427694 223.167976 
L 304.077653 223.322733 
L 304.402633 223.834926 
L 304.727612 223.13077 
L 305.377571 223.268883 
L 305.702551 223.782368 
L 306.02753 223.095792 
L 306.67749 223.21751 
L 307.002469 223.731473 
L 307.327449 223.062866 
L 307.977408 223.163726 
L 308.302387 223.68432 
L 308.627367 223.032914 
L 309.277326 223.11752 
L 309.602305 223.639358 
L 309.927285 221.313335 
L 310.252264 220.589631 
L 311.227203 220.709842 
L 311.552182 220.617474 
L 311.877162 220.909444 
L 312.202141 220.825101 
L 312.527121 220.920823 
L 312.8521 220.870516 
L 313.17708 221.177778 
L 313.50206 220.94743 
L 313.827039 221.089145 
L 314.152019 221.077284 
L 314.476998 221.411015 
L 314.801978 221.072307 
L 315.126957 221.249603 
L 315.451937 221.27877 
L 315.776916 221.641416 
L 316.101896 221.197065 
L 316.426875 221.410286 
L 316.751855 221.481534 
L 317.076834 221.874245 
L 317.401814 221.32348 
L 318.376752 222.101549 
L 318.701732 221.448729 
L 319.676671 222.341292 
L 320.00165 221.57949 
L 320.976589 222.584307 
L 321.301568 221.713905 
L 322.276507 222.824244 
L 322.601486 221.844753 
L 323.576425 223.07505 
L 323.901404 221.982355 
L 324.876343 223.332056 
L 325.201322 222.123119 
L 326.176261 223.584222 
L 326.501241 222.259408 
L 327.476179 223.85151 
L 327.801159 222.40428 
L 328.776097 224.114071 
L 329.101077 222.54261 
L 330.076015 224.421224 
L 330.400995 222.722139 
L 331.375933 224.658076 
L 331.700913 222.876379 
L 332.675852 224.964945 
L 333.000831 223.002246 
L 333.97577 225.229949 
L 334.300749 223.168123 
L 335.275688 225.472606 
L 335.600667 223.325557 
L 336.575606 225.78491 
L 336.900585 223.454747 
L 337.875524 226.065088 
L 338.200503 223.627673 
L 339.175442 226.315239 
L 339.500422 223.792276 
L 340.47536 226.629999 
L 340.80034 223.925588 
L 341.775278 227.023081 
L 342.100258 224.150084 
L 343.075196 227.201609 
L 343.400176 224.281017 
L 344.375114 227.514079 
L 344.700094 224.411233 
L 345.675033 227.916891 
L 346.000012 224.644407 
L 346.974951 228.249253 
L 347.29993 224.847094 
L 348.274869 228.437536 
L 348.599848 224.926403 
L 349.574787 228.827318 
L 349.899766 225.155403 
L 350.874705 229.166018 
L 351.199684 225.363215 
L 352.174623 229.442201 
L 352.499603 225.54901 
L 352.824582 227.097679 
L 353.149562 222.270164 
L 353.474541 221.931693 
L 353.799521 223.728072 
L 354.1245 222.317712 
L 354.774459 222.37096 
L 355.099439 223.700578 
L 355.424418 222.577757 
L 356.074377 222.539954 
L 356.399357 223.708506 
L 356.724336 222.629783 
L 357.374295 222.531859 
L 357.699275 223.689112 
L 358.024254 222.640757 
L 358.674214 222.524755 
L 358.999193 223.625458 
L 359.324173 222.627263 
L 359.974132 222.547059 
L 360.299111 223.587333 
L 360.624091 222.629251 
L 361.27405 222.517364 
L 361.599029 223.561418 
L 361.924009 222.638099 
L 362.573968 222.517388 
L 362.898947 223.506709 
L 363.223927 222.626455 
L 363.873886 222.527386 
L 364.198865 223.46151 
L 364.523845 222.63307 
L 365.173804 222.517835 
L 365.498784 223.45371 
L 365.823763 222.651379 
L 366.473722 222.526547 
L 366.798702 223.408722 
L 367.123681 222.642338 
L 367.77364 222.544187 
L 368.09862 223.380245 
L 368.423599 222.663633 
L 369.073558 222.57508 
L 369.398538 223.353536 
L 369.723517 222.683414 
L 370.373476 222.56031 
L 370.698456 223.337563 
L 371.023435 222.681697 
L 371.673395 222.584405 
L 371.998374 223.310593 
L 372.323354 222.70561 
L 372.973313 222.620542 
L 373.298292 223.290058 
L 373.623272 222.726775 
L 374.273231 222.618743 
L 374.59821 223.277216 
L 374.59821 223.277216 
" clip-path="url(#pff358c4440)" style="fill: none; stroke-dasharray: 0.64,0.16,0.1,0.16; stroke-dashoffset: 0; stroke: #c71585; stroke-width: 0.1"/>
   </g>
   <g id="patch_9">
    <path d="M 33.710938 273.312 
L 33.710938 140.256 
" style="fill: none; stroke: #000000; stroke-width: 0.8; stroke-linejoin: miter; stroke-linecap: square"/>
   </g>
   <g id="patch_10">
    <path d="M 390.830938 273.312 
L 390.830938 140.256 
" style="fill: none; stroke: #000000; stroke-width: 0.8; stroke-linejoin: miter; stroke-linecap: square"/>
   </g>
   <g id="patch_11">
    <path d="M 33.710938 273.312 
L 390.830938 273.312 
" style="fill: none; stroke: #000000; stroke-width: 0.8; stroke-linejoin: miter; stroke-linecap: square"/>
   </g>
   <g id="patch_12">
    <path d="M 33.710938 140.256 
L 390.830938 140.256 
" style="fill: none; stroke: #000000; stroke-width: 0.8; stroke-linejoin: miter; stroke-linecap: square"/>
   </g>
   <g id="legend_2">
    <g id="patch_13">
     <path d="M 235.952812 192.290375 
L 383.830938 192.290375 
Q 385.830938 192.290375 385.830938 190.290375 
L 385.830938 147.256 
Q 385.830938 145.256 383.830938 145.256 
L 235.952812 145.256 
Q 233.952812 145.256 233.952812 147.256 
L 233.952812 190.290375 
Q 233.952812 192.290375 235.952812 192.290375 
z
" style="fill: #ffffff; opacity: 0.8; stroke: #cccccc; stroke-linejoin: miter"/>
    </g>
    <g id="line2d_33">
     <path d="M 237.952812 153.354437 
L 247.952812 153.354437 
L 257.952812 153.354437 
" style="fill: none; stroke: #c71585; stroke-linecap: square"/>
    </g>
    <g id="text_20">
     <text style="font: 10px 'DejaVu Sans', 'Bitstream Vera Sans', 'Computer Modern Sans Serif', 'Lucida Grande', 'Verdana', 'Geneva', 'Lucid', 'Arial', 'Helvetica', 'Avant Garde', sans-serif; text-anchor: start" x="265.952812" y="156.854437" transform="rotate(-0 265.952812 156.854437)">Target response LUAL</text>
    </g>
    <g id="line2d_34">
     <path d="M 237.952812 168.032562 
L 247.952812 168.032562 
L 257.952812 168.032562 
" style="fill: none; stroke-dasharray: 3.7,1.6; stroke-dashoffset: 0; stroke: #c71585"/>
    </g>
    <g id="text_21">
     <text style="font: 10px 'DejaVu Sans', 'Bitstream Vera Sans', 'Computer Modern Sans Serif', 'Lucida Grande', 'Verdana', 'Geneva', 'Lucid', 'Arial', 'Helvetica', 'Avant Garde', sans-serif; text-anchor: start" x="265.952812" y="171.532562" transform="rotate(-0 265.952812 171.532562)">Digital prediction LUAL</text>
    </g>
    <g id="line2d_35">
     <path d="M 237.952812 182.710687 
L 247.952812 182.710687 
L 257.952812 182.710687 
" style="fill: none; stroke-dasharray: 0.64,0.16,0.1,0.16; stroke-dashoffset: 0; stroke: #c71585; stroke-width: 0.1"/>
    </g>
    <g id="text_22">
     <text style="font: 10px 'DejaVu Sans', 'Bitstream Vera Sans', 'Computer Modern Sans Serif', 'Lucida Grande', 'Verdana', 'Geneva', 'Lucid', 'Arial', 'Helvetica', 'Avant Garde', sans-serif; text-anchor: start" x="265.952812" y="186.210687" transform="rotate(-0 265.952812 186.210687)">Analog prediction LUAL</text>
    </g>
   </g>
  </g>
 </g>
 <defs>
  <clipPath id="p58e7969c10">
   <rect x="33.710938" y="7.2" width="357.12" height="133.056"/>
  </clipPath>
  <clipPath id="pff358c4440">
   <rect x="33.710938" y="140.256" width="357.12" height="133.056"/>
  </clipPath>
 </defs>
</svg>
