<?xml version="1.0" encoding="utf-8" standalone="no"?>
<!DOCTYPE svg PUBLIC "-//W3C//DTD SVG 1.1//EN"
  "http://www.w3.org/Graphics/SVG/1.1/DTD/svg11.dtd">
<svg xmlns:xlink="http://www.w3.org/1999/xlink" width="394.423125pt" height="297.190125pt" viewBox="0 0 394.423125 297.190125" xmlns="http://www.w3.org/2000/svg" version="1.1">
 <metadata>
  <rdf:RDF xmlns:dc="http://purl.org/dc/elements/1.1/" xmlns:cc="http://creativecommons.org/ns#" xmlns:rdf="http://www.w3.org/1999/02/22-rdf-syntax-ns#">
   <cc:Work>
    <dc:type rdf:resource="http://purl.org/dc/dcmitype/StillImage"/>
    <dc:date>2023-10-23T15:57:13.919312</dc:date>
    <dc:format>image/svg+xml</dc:format>
    <dc:creator>
     <cc:Agent>
      <dc:title>Matplotlib v3.8.0, https://matplotlib.org/</dc:title>
     </cc:Agent>
    </dc:creator>
   </cc:Work>
  </rdf:RDF>
 </metadata>
 <defs>
  <style type="text/css">*{stroke-linejoin: round; stroke-linecap: butt}</style>
 </defs>
 <g id="figure_1">
  <g id="patch_1">
   <path d="M 0 297.190125 
L 394.423125 297.190125 
L 394.423125 0 
L 0 0 
z
" style="fill: #ffffff"/>
  </g>
  <g id="axes_1">
   <g id="patch_2">
    <path d="M 30.103125 140.256 
L 387.223125 140.256 
L 387.223125 7.2 
L 30.103125 7.2 
z
" style="fill: #ffffff"/>
   </g>
   <g id="matplotlib.axis_1">
    <g id="xtick_1">
     <g id="line2d_1">
      <defs>
       <path id="mbc3c9e905e" d="M 0 0 
L 0 3.5 
" style="stroke: #000000; stroke-width: 0.8"/>
      </defs>
      <g>
       <use xlink:href="#mbc3c9e905e" x="46.335852" y="140.256" style="stroke: #000000; stroke-width: 0.8"/>
      </g>
     </g>
    </g>
    <g id="xtick_2">
     <g id="line2d_2">
      <g>
       <use xlink:href="#mbc3c9e905e" x="111.331757" y="140.256" style="stroke: #000000; stroke-width: 0.8"/>
      </g>
     </g>
    </g>
    <g id="xtick_3">
     <g id="line2d_3">
      <g>
       <use xlink:href="#mbc3c9e905e" x="176.327662" y="140.256" style="stroke: #000000; stroke-width: 0.8"/>
      </g>
     </g>
    </g>
    <g id="xtick_4">
     <g id="line2d_4">
      <g>
       <use xlink:href="#mbc3c9e905e" x="241.323567" y="140.256" style="stroke: #000000; stroke-width: 0.8"/>
      </g>
     </g>
    </g>
    <g id="xtick_5">
     <g id="line2d_5">
      <g>
       <use xlink:href="#mbc3c9e905e" x="306.319472" y="140.256" style="stroke: #000000; stroke-width: 0.8"/>
      </g>
     </g>
    </g>
    <g id="xtick_6">
     <g id="line2d_6">
      <g>
       <use xlink:href="#mbc3c9e905e" x="371.315377" y="140.256" style="stroke: #000000; stroke-width: 0.8"/>
      </g>
     </g>
    </g>
   </g>
   <g id="matplotlib.axis_2">
    <g id="ytick_1">
     <g id="line2d_7">
      <defs>
       <path id="m7628a19ad3" d="M 0 0 
L -3.5 0 
" style="stroke: #000000; stroke-width: 0.8"/>
      </defs>
      <g>
       <use xlink:href="#m7628a19ad3" x="30.103125" y="134.208" style="stroke: #000000; stroke-width: 0.8"/>
      </g>
     </g>
     <g id="text_1">
      <text style="font: 10px 'DejaVu Sans', 'Bitstream Vera Sans', 'Computer Modern Sans Serif', 'Lucida Grande', 'Verdana', 'Geneva', 'Lucid', 'Arial', 'Helvetica', 'Avant Garde', sans-serif; text-anchor: end" x="23.103125" y="138.007219" transform="rotate(-0 23.103125 138.007219)">0.0</text>
     </g>
    </g>
    <g id="ytick_2">
     <g id="line2d_8">
      <g>
       <use xlink:href="#m7628a19ad3" x="30.103125" y="107.782865" style="stroke: #000000; stroke-width: 0.8"/>
      </g>
     </g>
     <g id="text_2">
      <text style="font: 10px 'DejaVu Sans', 'Bitstream Vera Sans', 'Computer Modern Sans Serif', 'Lucida Grande', 'Verdana', 'Geneva', 'Lucid', 'Arial', 'Helvetica', 'Avant Garde', sans-serif; text-anchor: end" x="23.103125" y="111.582083" transform="rotate(-0 23.103125 111.582083)">0.5</text>
     </g>
    </g>
    <g id="ytick_3">
     <g id="line2d_9">
      <g>
       <use xlink:href="#m7628a19ad3" x="30.103125" y="81.357729" style="stroke: #000000; stroke-width: 0.8"/>
      </g>
     </g>
     <g id="text_3">
      <text style="font: 10px 'DejaVu Sans', 'Bitstream Vera Sans', 'Computer Modern Sans Serif', 'Lucida Grande', 'Verdana', 'Geneva', 'Lucid', 'Arial', 'Helvetica', 'Avant Garde', sans-serif; text-anchor: end" x="23.103125" y="85.156948" transform="rotate(-0 23.103125 85.156948)">1.0</text>
     </g>
    </g>
    <g id="ytick_4">
     <g id="line2d_10">
      <g>
       <use xlink:href="#m7628a19ad3" x="30.103125" y="54.932594" style="stroke: #000000; stroke-width: 0.8"/>
      </g>
     </g>
     <g id="text_4">
      <text style="font: 10px 'DejaVu Sans', 'Bitstream Vera Sans', 'Computer Modern Sans Serif', 'Lucida Grande', 'Verdana', 'Geneva', 'Lucid', 'Arial', 'Helvetica', 'Avant Garde', sans-serif; text-anchor: end" x="23.103125" y="58.731813" transform="rotate(-0 23.103125 58.731813)">1.5</text>
     </g>
    </g>
    <g id="ytick_5">
     <g id="line2d_11">
      <g>
       <use xlink:href="#m7628a19ad3" x="30.103125" y="28.507459" style="stroke: #000000; stroke-width: 0.8"/>
      </g>
     </g>
     <g id="text_5">
      <text style="font: 10px 'DejaVu Sans', 'Bitstream Vera Sans', 'Computer Modern Sans Serif', 'Lucida Grande', 'Verdana', 'Geneva', 'Lucid', 'Arial', 'Helvetica', 'Avant Garde', sans-serif; text-anchor: end" x="23.103125" y="32.306677" transform="rotate(-0 23.103125 32.306677)">2.0</text>
     </g>
    </g>
   </g>
   <g id="line2d_12">
    <path d="M 46.335852 134.208 
L 111.331757 134.200601 
L 176.002683 60.580174 
L 176.327662 134.208 
L 370.990398 134.208 
L 370.990398 134.208 
" clip-path="url(#pcdc5e48192)" style="fill: none; stroke: #ff4500; stroke-width: 1.5; stroke-linecap: square"/>
   </g>
   <g id="line2d_13">
    <path d="M 46.335852 134.208 
L 111.331757 134.200601 
L 176.002683 60.580174 
L 176.327662 134.208 
L 370.990398 134.208 
L 370.990398 134.208 
" clip-path="url(#pcdc5e48192)" style="fill: none; stroke-dasharray: 5.55,2.4; stroke-dashoffset: 0; stroke: #c71585; stroke-width: 1.5"/>
   </g>
   <g id="line2d_14">
    <path d="M 46.335852 134.208 
L 111.331757 134.195844 
L 176.002683 13.248 
L 176.327662 134.208 
L 370.990398 134.208 
L 370.990398 134.208 
" clip-path="url(#pcdc5e48192)" style="fill: none; stroke-dasharray: 9.6,2.4,1.5,2.4; stroke-dashoffset: 0; stroke: #4682b4; stroke-width: 1.5"/>
   </g>
   <g id="line2d_15">
    <path d="M 46.335852 134.208 
L 111.331757 134.195844 
L 176.002683 13.248 
L 176.327662 134.208 
L 370.990398 134.208 
L 370.990398 134.208 
" clip-path="url(#pcdc5e48192)" style="fill: none; stroke-dasharray: 2.5,4.125; stroke-dashoffset: 0; stroke: #6b8e23; stroke-width: 2.5"/>
   </g>
   <g id="patch_3">
    <path d="M 30.103125 140.256 
L 30.103125 7.2 
" style="fill: none; stroke: #000000; stroke-width: 0.8; stroke-linejoin: miter; stroke-linecap: square"/>
   </g>
   <g id="patch_4">
    <path d="M 387.223125 140.256 
L 387.223125 7.2 
" style="fill: none; stroke: #000000; stroke-width: 0.8; stroke-linejoin: miter; stroke-linecap: square"/>
   </g>
   <g id="patch_5">
    <path d="M 30.103125 140.256 
L 387.223125 140.256 
" style="fill: none; stroke: #000000; stroke-width: 0.8; stroke-linejoin: miter; stroke-linecap: square"/>
   </g>
   <g id="patch_6">
    <path d="M 30.103125 7.2 
L 387.223125 7.2 
" style="fill: none; stroke: #000000; stroke-width: 0.8; stroke-linejoin: miter; stroke-linecap: square"/>
   </g>
   <g id="legend_1">
    <g id="patch_7">
     <path d="M 316.059062 73.9125 
L 380.223125 73.9125 
Q 382.223125 73.9125 382.223125 71.9125 
L 382.223125 14.2 
Q 382.223125 12.2 380.223125 12.2 
L 316.059062 12.2 
Q 314.059062 12.2 314.059062 14.2 
L 314.059062 71.9125 
Q 314.059062 73.9125 316.059062 73.9125 
z
" style="fill: #ffffff; opacity: 0.8; stroke: #cccccc; stroke-linejoin: miter"/>
    </g>
    <g id="line2d_16">
     <path d="M 318.059062 20.298437 
L 328.059062 20.298437 
L 338.059062 20.298437 
" style="fill: none; stroke: #ff4500; stroke-width: 1.5; stroke-linecap: square"/>
    </g>
    <g id="text_6">
     <text style="font: 10px 'DejaVu Sans', 'Bitstream Vera Sans', 'Computer Modern Sans Serif', 'Lucida Grande', 'Verdana', 'Geneva', 'Lucid', 'Arial', 'Helvetica', 'Avant Garde', sans-serif; text-anchor: start" x="346.059062" y="23.798437" transform="rotate(-0 346.059062 23.798437)">PLML2</text>
    </g>
    <g id="line2d_17">
     <path d="M 318.059062 34.976562 
L 328.059062 34.976562 
L 338.059062 34.976562 
" style="fill: none; stroke-dasharray: 5.55,2.4; stroke-dashoffset: 0; stroke: #c71585; stroke-width: 1.5"/>
    </g>
    <g id="text_7">
     <text style="font: 10px 'DejaVu Sans', 'Bitstream Vera Sans', 'Computer Modern Sans Serif', 'Lucida Grande', 'Verdana', 'Geneva', 'Lucid', 'Arial', 'Helvetica', 'Avant Garde', sans-serif; text-anchor: start" x="346.059062" y="38.476562" transform="rotate(-0 346.059062 38.476562)">PLMR</text>
    </g>
    <g id="line2d_18">
     <path d="M 318.059062 49.654687 
L 328.059062 49.654687 
L 338.059062 49.654687 
" style="fill: none; stroke-dasharray: 9.6,2.4,1.5,2.4; stroke-dashoffset: 0; stroke: #4682b4; stroke-width: 1.5"/>
    </g>
    <g id="text_8">
     <text style="font: 10px 'DejaVu Sans', 'Bitstream Vera Sans', 'Computer Modern Sans Serif', 'Lucida Grande', 'Verdana', 'Geneva', 'Lucid', 'Arial', 'Helvetica', 'Avant Garde', sans-serif; text-anchor: start" x="346.059062" y="53.154687" transform="rotate(-0 346.059062 53.154687)">AVBL</text>
    </g>
    <g id="line2d_19">
     <path d="M 318.059062 64.332812 
L 328.059062 64.332812 
L 338.059062 64.332812 
" style="fill: none; stroke-dasharray: 2.5,4.125; stroke-dashoffset: 0; stroke: #6b8e23; stroke-width: 2.5"/>
    </g>
    <g id="text_9">
     <text style="font: 10px 'DejaVu Sans', 'Bitstream Vera Sans', 'Computer Modern Sans Serif', 'Lucida Grande', 'Verdana', 'Geneva', 'Lucid', 'Arial', 'Helvetica', 'Avant Garde', sans-serif; text-anchor: start" x="346.059062" y="67.832812" transform="rotate(-0 346.059062 67.832812)">AVBR</text>
    </g>
   </g>
  </g>
  <g id="axes_2">
   <g id="patch_8">
    <path d="M 30.103125 273.312 
L 387.223125 273.312 
L 387.223125 140.256 
L 30.103125 140.256 
z
" style="fill: #ffffff"/>
   </g>
   <g id="matplotlib.axis_3">
    <g id="xtick_7">
     <g id="line2d_20">
      <g>
       <use xlink:href="#mbc3c9e905e" x="46.335852" y="273.312" style="stroke: #000000; stroke-width: 0.8"/>
      </g>
     </g>
     <g id="text_10">
      <text style="font: 10px 'DejaVu Sans', 'Bitstream Vera Sans', 'Computer Modern Sans Serif', 'Lucida Grande', 'Verdana', 'Geneva', 'Lucid', 'Arial', 'Helvetica', 'Avant Garde', sans-serif; text-anchor: middle" x="46.335852" y="287.910437" transform="rotate(-0 46.335852 287.910437)">0</text>
     </g>
    </g>
    <g id="xtick_8">
     <g id="line2d_21">
      <g>
       <use xlink:href="#mbc3c9e905e" x="111.331757" y="273.312" style="stroke: #000000; stroke-width: 0.8"/>
      </g>
     </g>
     <g id="text_11">
      <text style="font: 10px 'DejaVu Sans', 'Bitstream Vera Sans', 'Computer Modern Sans Serif', 'Lucida Grande', 'Verdana', 'Geneva', 'Lucid', 'Arial', 'Helvetica', 'Avant Garde', sans-serif; text-anchor: middle" x="111.331757" y="287.910437" transform="rotate(-0 111.331757 287.910437)">100</text>
     </g>
    </g>
    <g id="xtick_9">
     <g id="line2d_22">
      <g>
       <use xlink:href="#mbc3c9e905e" x="176.327662" y="273.312" style="stroke: #000000; stroke-width: 0.8"/>
      </g>
     </g>
     <g id="text_12">
      <text style="font: 10px 'DejaVu Sans', 'Bitstream Vera Sans', 'Computer Modern Sans Serif', 'Lucida Grande', 'Verdana', 'Geneva', 'Lucid', 'Arial', 'Helvetica', 'Avant Garde', sans-serif; text-anchor: middle" x="176.327662" y="287.910437" transform="rotate(-0 176.327662 287.910437)">200</text>
     </g>
    </g>
    <g id="xtick_10">
     <g id="line2d_23">
      <g>
       <use xlink:href="#mbc3c9e905e" x="241.323567" y="273.312" style="stroke: #000000; stroke-width: 0.8"/>
      </g>
     </g>
     <g id="text_13">
      <text style="font: 10px 'DejaVu Sans', 'Bitstream Vera Sans', 'Computer Modern Sans Serif', 'Lucida Grande', 'Verdana', 'Geneva', 'Lucid', 'Arial', 'Helvetica', 'Avant Garde', sans-serif; text-anchor: middle" x="241.323567" y="287.910437" transform="rotate(-0 241.323567 287.910437)">300</text>
     </g>
    </g>
    <g id="xtick_11">
     <g id="line2d_24">
      <g>
       <use xlink:href="#mbc3c9e905e" x="306.319472" y="273.312" style="stroke: #000000; stroke-width: 0.8"/>
      </g>
     </g>
     <g id="text_14">
      <text style="font: 10px 'DejaVu Sans', 'Bitstream Vera Sans', 'Computer Modern Sans Serif', 'Lucida Grande', 'Verdana', 'Geneva', 'Lucid', 'Arial', 'Helvetica', 'Avant Garde', sans-serif; text-anchor: middle" x="306.319472" y="287.910437" transform="rotate(-0 306.319472 287.910437)">400</text>
     </g>
    </g>
    <g id="xtick_12">
     <g id="line2d_25">
      <g>
       <use xlink:href="#mbc3c9e905e" x="371.315377" y="273.312" style="stroke: #000000; stroke-width: 0.8"/>
      </g>
     </g>
     <g id="text_15">
      <text style="font: 10px 'DejaVu Sans', 'Bitstream Vera Sans', 'Computer Modern Sans Serif', 'Lucida Grande', 'Verdana', 'Geneva', 'Lucid', 'Arial', 'Helvetica', 'Avant Garde', sans-serif; text-anchor: middle" x="371.315377" y="287.910437" transform="rotate(-0 371.315377 287.910437)">500</text>
     </g>
    </g>
   </g>
   <g id="matplotlib.axis_4">
    <g id="ytick_6">
     <g id="line2d_26">
      <g>
       <use xlink:href="#m7628a19ad3" x="30.103125" y="259.203032" style="stroke: #000000; stroke-width: 0.8"/>
      </g>
     </g>
     <g id="text_16">
      <text style="font: 10px 'DejaVu Sans', 'Bitstream Vera Sans', 'Computer Modern Sans Serif', 'Lucida Grande', 'Verdana', 'Geneva', 'Lucid', 'Arial', 'Helvetica', 'Avant Garde', sans-serif; text-anchor: end" x="23.103125" y="263.002251" transform="rotate(-0 23.103125 263.002251)">0.0</text>
     </g>
    </g>
    <g id="ytick_7">
     <g id="line2d_27">
      <g>
       <use xlink:href="#m7628a19ad3" x="30.103125" y="234.400054" style="stroke: #000000; stroke-width: 0.8"/>
      </g>
     </g>
     <g id="text_17">
      <text style="font: 10px 'DejaVu Sans', 'Bitstream Vera Sans', 'Computer Modern Sans Serif', 'Lucida Grande', 'Verdana', 'Geneva', 'Lucid', 'Arial', 'Helvetica', 'Avant Garde', sans-serif; text-anchor: end" x="23.103125" y="238.199272" transform="rotate(-0 23.103125 238.199272)">0.2</text>
     </g>
    </g>
    <g id="ytick_8">
     <g id="line2d_28">
      <g>
       <use xlink:href="#m7628a19ad3" x="30.103125" y="209.597075" style="stroke: #000000; stroke-width: 0.8"/>
      </g>
     </g>
     <g id="text_18">
      <text style="font: 10px 'DejaVu Sans', 'Bitstream Vera Sans', 'Computer Modern Sans Serif', 'Lucida Grande', 'Verdana', 'Geneva', 'Lucid', 'Arial', 'Helvetica', 'Avant Garde', sans-serif; text-anchor: end" x="23.103125" y="213.396294" transform="rotate(-0 23.103125 213.396294)">0.4</text>
     </g>
    </g>
    <g id="ytick_9">
     <g id="line2d_29">
      <g>
       <use xlink:href="#m7628a19ad3" x="30.103125" y="184.794097" style="stroke: #000000; stroke-width: 0.8"/>
      </g>
     </g>
     <g id="text_19">
      <text style="font: 10px 'DejaVu Sans', 'Bitstream Vera Sans', 'Computer Modern Sans Serif', 'Lucida Grande', 'Verdana', 'Geneva', 'Lucid', 'Arial', 'Helvetica', 'Avant Garde', sans-serif; text-anchor: end" x="23.103125" y="188.593316" transform="rotate(-0 23.103125 188.593316)">0.6</text>
     </g>
    </g>
    <g id="ytick_10">
     <g id="line2d_30">
      <g>
       <use xlink:href="#m7628a19ad3" x="30.103125" y="159.991118" style="stroke: #000000; stroke-width: 0.8"/>
      </g>
     </g>
     <g id="text_20">
      <text style="font: 10px 'DejaVu Sans', 'Bitstream Vera Sans', 'Computer Modern Sans Serif', 'Lucida Grande', 'Verdana', 'Geneva', 'Lucid', 'Arial', 'Helvetica', 'Avant Garde', sans-serif; text-anchor: end" x="23.103125" y="163.790337" transform="rotate(-0 23.103125 163.790337)">0.8</text>
     </g>
    </g>
   </g>
   <g id="line2d_31">
    <path d="M 46.335852 267.264 
L 112.956655 267.170417 
L 115.881471 266.778049 
L 119.131266 266.109277 
L 122.381061 265.217695 
L 125.955836 263.996105 
L 129.85559 262.412224 
L 133.755344 260.600192 
L 137.980078 258.41148 
L 142.529792 255.821306 
L 148.379423 252.206448 
L 155.203993 247.684659 
L 161.053625 243.593712 
L 171.12799 236.244998 
L 176.327662 232.394534 
L 177.302601 236.446895 
L 177.95256 237.546981 
L 179.252478 238.824285 
L 184.77713 243.632528 
L 189.001864 247.025871 
L 192.576639 249.625026 
L 196.151413 251.954834 
L 199.726188 254.018088 
L 203.300963 255.829244 
L 207.200717 257.541726 
L 211.100471 259.008551 
L 215.325205 260.355346 
L 219.874919 261.564341 
L 224.749611 262.626861 
L 230.274263 263.592969 
L 236.448874 264.434748 
L 243.598424 265.168775 
L 251.722912 265.771804 
L 261.472298 266.26822 
L 273.82152 266.664858 
L 290.395476 266.958939 
L 315.093919 267.151093 
L 360.916032 267.245664 
L 370.990398 267.251665 
L 370.990398 267.251665 
" clip-path="url(#p54d39c582f)" style="fill: none; stroke: #ff4500; stroke-linecap: square"/>
   </g>
   <g id="line2d_32">
    <path d="M 46.335852 264.802418 
L 46.660832 264.385857 
L 47.310791 264.018867 
L 48.285729 263.876589 
L 51.535525 263.84414 
L 111.656737 263.753178 
L 112.631675 263.267574 
L 122.706041 257.501451 
L 127.580734 255.093819 
L 131.805467 253.244966 
L 136.030201 251.652794 
L 139.929955 250.393268 
L 143.50473 249.406171 
L 148.054444 248.393068 
L 150.979259 247.898481 
L 156.828891 247.248288 
L 159.753706 247.038322 
L 167.553215 246.501906 
L 170.80301 246.062479 
L 172.427908 245.679276 
L 175.352724 244.794533 
L 176.002683 244.483262 
L 176.327662 230.073981 
L 176.652642 242.700471 
L 176.977621 250.87075 
L 177.302601 256.011298 
L 177.62758 259.150485 
L 177.95256 261.054759 
L 178.277539 262.195139 
L 178.602519 262.872662 
L 179.252478 263.509049 
L 179.902437 263.729147 
L 181.202355 263.830671 
L 188.351905 263.84401 
L 370.990398 263.84401 
L 370.990398 263.84401 
" clip-path="url(#p54d39c582f)" style="fill: none; stroke-dasharray: 3.7,1.6; stroke-dashoffset: 0; stroke: #ff4500"/>
   </g>
   <g id="line2d_33">
    <path d="M 46.335852 260.800958 
L 46.660832 259.445216 
L 46.985811 258.774436 
L 47.310791 258.427444 
L 47.96075 258.167506 
L 49.260668 258.082745 
L 61.934869 258.076596 
L 133.105385 258.075294 
L 133.755344 257.503272 
L 134.080324 257.096257 
L 134.405304 257.586045 
L 135.055263 256.32032 
L 135.380242 255.812436 
L 135.705222 256.944422 
L 136.355181 255.113804 
L 136.68016 254.533901 
L 137.00514 256.32307 
L 137.330119 254.758808 
L 137.980078 253.099207 
L 138.305058 255.611518 
L 138.630037 253.731887 
L 139.279996 251.758608 
L 139.604976 254.964157 
L 139.929955 252.745143 
L 140.579915 250.329867 
L 140.904894 254.280767 
L 141.229874 251.599957 
L 141.879833 249.035795 
L 142.204812 253.669374 
L 142.529792 250.60152 
L 143.179751 247.644978 
L 143.50473 253.024292 
L 143.82971 249.29902 
L 144.479669 246.231035 
L 144.804648 252.366423 
L 145.129628 248.24412 
L 145.779587 244.812077 
L 146.104566 251.72091 
L 146.429546 247.093801 
L 147.079505 243.401608 
L 147.404485 251.08036 
L 147.729464 246.031816 
L 148.054444 243.487068 
L 148.379423 241.992856 
L 148.704403 250.440053 
L 149.029382 244.840289 
L 149.354362 242.066066 
L 149.679341 240.433644 
L 150.004321 249.746559 
L 150.3293 243.730913 
L 150.65428 240.793381 
L 150.979259 239.067147 
L 151.304239 249.144795 
L 151.629218 242.668646 
L 151.954198 239.418362 
L 152.279177 237.333707 
L 152.604157 248.404204 
L 152.929136 241.391793 
L 153.254116 238.046574 
L 153.579096 235.883003 
L 153.904075 247.77703 
L 154.229055 240.292944 
L 154.554034 236.632972 
L 154.879014 234.287666 
L 155.203993 247.097065 
L 155.528973 239.029608 
L 155.853952 235.250942 
L 156.178932 232.809834 
L 156.503911 246.471568 
L 156.828891 237.737076 
L 157.47885 231.199465 
L 157.803829 245.80228 
L 158.128809 236.458195 
L 158.453788 232.32373 
L 158.778768 229.627003 
L 159.103747 245.143523 
L 159.428727 235.295928 
L 159.753706 230.965268 
L 160.078686 228.137632 
L 160.403666 244.530319 
L 160.728645 234.034512 
L 161.053625 229.232768 
L 161.378604 226.332658 
L 161.703584 243.794263 
L 162.028563 232.794913 
L 162.353543 227.807954 
L 162.678522 224.790144 
L 163.003502 243.16352 
L 163.328481 231.496782 
L 163.653461 226.224716 
L 163.97844 223.000027 
L 164.30342 242.443555 
L 164.628399 230.247982 
L 164.953379 224.776044 
L 165.278358 221.215288 
L 165.603338 241.744774 
L 165.928317 229.007091 
L 166.253297 223.20007 
L 166.578277 219.416034 
L 166.903256 241.033713 
L 167.228236 227.618737 
L 167.553215 221.663535 
L 167.878195 217.750901 
L 168.203174 240.382179 
L 168.528154 226.382072 
L 169.178113 215.985129 
L 169.503092 239.699502 
L 169.828072 224.798353 
L 170.478031 214.169575 
L 170.80301 238.987229 
L 171.12799 223.620326 
L 171.452969 217.237123 
L 171.777949 213.068928 
L 172.102928 238.557441 
L 172.427908 222.909245 
L 172.752887 215.127548 
L 173.077867 210.151931 
L 173.402847 237.458809 
L 173.727826 220.39743 
L 174.052806 213.072446 
L 174.377785 208.494847 
L 174.702765 236.789219 
L 175.027744 219.474962 
L 175.352724 212.119226 
L 175.677703 207.518535 
L 176.002683 236.425717 
L 176.327662 217.539754 
L 176.652642 209.314674 
L 176.977621 204.070976 
L 177.302601 235.128073 
L 177.62758 216.065118 
L 178.277539 202.56489 
L 178.602519 234.576077 
L 178.927498 215.220061 
L 179.577458 201.596406 
L 179.902437 234.225429 
L 180.227417 213.258629 
L 180.877376 198.049292 
L 181.202355 232.914719 
L 181.527335 211.731639 
L 182.177294 196.704702 
L 182.502273 232.408406 
L 182.827253 210.689983 
L 183.477212 195.64678 
L 183.802191 232.027449 
L 184.127171 208.68151 
L 184.77713 191.984482 
L 185.102109 230.696613 
L 185.427089 207.062854 
L 186.077048 190.547459 
L 186.402028 230.161306 
L 186.727007 206.178527 
L 187.376966 189.401717 
L 187.701946 229.751049 
L 188.026925 204.116005 
L 188.676884 185.620728 
L 189.001864 228.393406 
L 189.326843 202.428076 
L 189.976802 184.107348 
L 190.301782 227.830955 
L 190.626761 201.504509 
L 191.27672 181.259811 
L 191.6017 226.939095 
L 191.926679 198.933062 
L 192.576639 178.569552 
L 192.901618 225.883121 
L 193.226598 197.517085 
L 193.876557 177.169324 
L 194.201536 225.378052 
L 194.526516 196.604399 
L 195.176475 174.801174 
L 195.501454 224.621551 
L 195.826434 194.334163 
L 196.476393 172.883597 
L 196.801372 223.80329 
L 197.126352 193.541102 
L 197.776311 169.742468 
L 198.10129 222.977864 
L 198.42627 190.556223 
L 199.076229 166.05461 
L 199.401209 221.629128 
L 199.726188 187.913009 
L 200.376147 163.780211 
L 200.701127 220.670104 
L 201.026106 186.943347 
L 201.676065 163.213868 
L 202.001045 220.421648 
L 202.326024 186.702624 
L 202.975983 160.649205 
L 203.300963 219.55663 
L 203.625942 184.474521 
L 204.275901 156.64778 
L 204.600881 218.416138 
L 204.92586 181.059395 
L 205.57582 154.169668 
L 205.900799 217.367424 
L 206.225779 180.028418 
L 206.875738 151.073455 
L 207.200717 216.298478 
L 207.525697 177.558162 
L 208.175656 149.675121 
L 208.500635 215.700554 
L 208.825615 176.946964 
L 209.475574 149.295031 
L 209.800553 215.546977 
L 210.125533 176.781155 
L 210.775492 147.264156 
L 211.100471 215.348458 
L 211.425451 175.190548 
L 212.07541 146.502471 
L 212.40039 215.028593 
L 212.725369 174.864522 
L 213.375328 146.304 
L 213.700308 214.958647 
L 214.025287 179.995858 
L 214.675246 157.878276 
L 215.000226 219.150408 
L 215.325205 184.030335 
L 215.975164 160.039311 
L 216.300144 219.977843 
L 216.625123 192.20574 
L 217.275082 175.487341 
L 217.600062 225.206391 
L 217.925041 204.748513 
L 218.575001 192.594762 
L 218.89998 230.835177 
L 219.22496 209.264427 
L 219.549939 238.019677 
L 219.874919 247.381263 
L 220.199898 252.379292 
L 220.524878 255.020178 
L 220.849857 256.447838 
L 221.174837 257.209778 
L 221.499816 257.618669 
L 222.149775 257.953167 
L 223.124714 258.068591 
L 227.349448 258.090718 
L 370.990398 258.090727 
L 370.990398 258.090727 
" clip-path="url(#p54d39c582f)" style="fill: none; stroke-dasharray: 0.64,0.16,0.1,0.16; stroke-dashoffset: 0; stroke: #ff4500; stroke-width: 0.1"/>
   </g>
   <g id="patch_9">
    <path d="M 30.103125 273.312 
L 30.103125 140.256 
" style="fill: none; stroke: #000000; stroke-width: 0.8; stroke-linejoin: miter; stroke-linecap: square"/>
   </g>
   <g id="patch_10">
    <path d="M 387.223125 273.312 
L 387.223125 140.256 
" style="fill: none; stroke: #000000; stroke-width: 0.8; stroke-linejoin: miter; stroke-linecap: square"/>
   </g>
   <g id="patch_11">
    <path d="M 30.103125 273.312 
L 387.223125 273.312 
" style="fill: none; stroke: #000000; stroke-width: 0.8; stroke-linejoin: miter; stroke-linecap: square"/>
   </g>
   <g id="patch_12">
    <path d="M 30.103125 140.256 
L 387.223125 140.256 
" style="fill: none; stroke: #000000; stroke-width: 0.8; stroke-linejoin: miter; stroke-linecap: square"/>
   </g>
   <g id="legend_2">
    <g id="patch_13">
     <path d="M 236.224687 192.290375 
L 380.223125 192.290375 
Q 382.223125 192.290375 382.223125 190.290375 
L 382.223125 147.256 
Q 382.223125 145.256 380.223125 145.256 
L 236.224687 145.256 
Q 234.224687 145.256 234.224687 147.256 
L 234.224687 190.290375 
Q 234.224687 192.290375 236.224687 192.290375 
z
" style="fill: #ffffff; opacity: 0.8; stroke: #cccccc; stroke-linejoin: miter"/>
    </g>
    <g id="line2d_34">
     <path d="M 238.224687 153.354437 
L 248.224687 153.354437 
L 258.224687 153.354437 
" style="fill: none; stroke: #ff4500; stroke-linecap: square"/>
    </g>
    <g id="text_21">
     <text style="font: 10px 'DejaVu Sans', 'Bitstream Vera Sans', 'Computer Modern Sans Serif', 'Lucida Grande', 'Verdana', 'Geneva', 'Lucid', 'Arial', 'Helvetica', 'Avant Garde', sans-serif; text-anchor: start" x="266.224687" y="156.854437" transform="rotate(-0 266.224687 156.854437)">Target response DB1</text>
    </g>
    <g id="line2d_35">
     <path d="M 238.224687 168.032562 
L 248.224687 168.032562 
L 258.224687 168.032562 
" style="fill: none; stroke-dasharray: 3.7,1.6; stroke-dashoffset: 0; stroke: #ff4500"/>
    </g>
    <g id="text_22">
     <text style="font: 10px 'DejaVu Sans', 'Bitstream Vera Sans', 'Computer Modern Sans Serif', 'Lucida Grande', 'Verdana', 'Geneva', 'Lucid', 'Arial', 'Helvetica', 'Avant Garde', sans-serif; text-anchor: start" x="266.224687" y="171.532562" transform="rotate(-0 266.224687 171.532562)">Digital prediction DB1</text>
    </g>
    <g id="line2d_36">
     <path d="M 238.224687 182.710687 
L 248.224687 182.710687 
L 258.224687 182.710687 
" style="fill: none; stroke-dasharray: 0.64,0.16,0.1,0.16; stroke-dashoffset: 0; stroke: #ff4500; stroke-width: 0.1"/>
    </g>
    <g id="text_23">
     <text style="font: 10px 'DejaVu Sans', 'Bitstream Vera Sans', 'Computer Modern Sans Serif', 'Lucida Grande', 'Verdana', 'Geneva', 'Lucid', 'Arial', 'Helvetica', 'Avant Garde', sans-serif; text-anchor: start" x="266.224687" y="186.210687" transform="rotate(-0 266.224687 186.210687)">Analog prediction DB1</text>
    </g>
   </g>
  </g>
 </g>
 <defs>
  <clipPath id="pcdc5e48192">
   <rect x="30.103125" y="7.2" width="357.12" height="133.056"/>
  </clipPath>
  <clipPath id="p54d39c582f">
   <rect x="30.103125" y="140.256" width="357.12" height="133.056"/>
  </clipPath>
 </defs>
</svg>
