<?xml version="1.0" encoding="utf-8" standalone="no"?>
<!DOCTYPE svg PUBLIC "-//W3C//DTD SVG 1.1//EN"
  "http://www.w3.org/Graphics/SVG/1.1/DTD/svg11.dtd">
<svg xmlns:xlink="http://www.w3.org/1999/xlink" width="414.46375pt" height="310.86825pt" viewBox="0 0 414.46375 310.86825" xmlns="http://www.w3.org/2000/svg" version="1.1">
 <metadata>
  <rdf:RDF xmlns:dc="http://purl.org/dc/elements/1.1/" xmlns:cc="http://creativecommons.org/ns#" xmlns:rdf="http://www.w3.org/1999/02/22-rdf-syntax-ns#">
   <cc:Work>
    <dc:type rdf:resource="http://purl.org/dc/dcmitype/StillImage"/>
    <dc:date>2023-10-25T16:21:18.910481</dc:date>
    <dc:format>image/svg+xml</dc:format>
    <dc:creator>
     <cc:Agent>
      <dc:title>Matplotlib v3.8.0, https://matplotlib.org/</dc:title>
     </cc:Agent>
    </dc:creator>
   </cc:Work>
  </rdf:RDF>
 </metadata>
 <defs>
  <style type="text/css">*{stroke-linejoin: round; stroke-linecap: butt}</style>
 </defs>
 <g id="figure_1">
  <g id="patch_1">
   <path d="M 0 310.86825 
L 414.46375 310.86825 
L 414.46375 0 
L 0 0 
z
" style="fill: #ffffff"/>
  </g>
  <g id="axes_1">
   <g id="patch_2">
    <path d="M 50.14375 95.904 
L 407.26375 95.904 
L 407.26375 7.2 
L 50.14375 7.2 
z
" style="fill: #ffffff"/>
   </g>
   <g id="matplotlib.axis_1">
    <g id="xtick_1">
     <g id="line2d_1">
      <defs>
       <path id="m78582f5ee0" d="M 0 0 
L 0 3.5 
" style="stroke: #000000; stroke-width: 0.8"/>
      </defs>
      <g>
       <use xlink:href="#m78582f5ee0" x="66.376477" y="95.904" style="stroke: #000000; stroke-width: 0.8"/>
      </g>
     </g>
    </g>
    <g id="xtick_2">
     <g id="line2d_2">
      <g>
       <use xlink:href="#m78582f5ee0" x="131.372382" y="95.904" style="stroke: #000000; stroke-width: 0.8"/>
      </g>
     </g>
    </g>
    <g id="xtick_3">
     <g id="line2d_3">
      <g>
       <use xlink:href="#m78582f5ee0" x="196.368287" y="95.904" style="stroke: #000000; stroke-width: 0.8"/>
      </g>
     </g>
    </g>
    <g id="xtick_4">
     <g id="line2d_4">
      <g>
       <use xlink:href="#m78582f5ee0" x="261.364192" y="95.904" style="stroke: #000000; stroke-width: 0.8"/>
      </g>
     </g>
    </g>
    <g id="xtick_5">
     <g id="line2d_5">
      <g>
       <use xlink:href="#m78582f5ee0" x="326.360097" y="95.904" style="stroke: #000000; stroke-width: 0.8"/>
      </g>
     </g>
    </g>
    <g id="xtick_6">
     <g id="line2d_6">
      <g>
       <use xlink:href="#m78582f5ee0" x="391.356002" y="95.904" style="stroke: #000000; stroke-width: 0.8"/>
      </g>
     </g>
    </g>
   </g>
   <g id="matplotlib.axis_2">
    <g id="ytick_1">
     <g id="line2d_7">
      <defs>
       <path id="m53d0070e32" d="M 0 0 
L -3.5 0 
" style="stroke: #000000; stroke-width: 0.8"/>
      </defs>
      <g>
       <use xlink:href="#m53d0070e32" x="50.14375" y="91.872" style="stroke: #000000; stroke-width: 0.8"/>
      </g>
     </g>
     <g id="text_1">
      <text style="font: 10px 'DejaVu Sans', 'Bitstream Vera Sans', 'Computer Modern Sans Serif', 'Lucida Grande', 'Verdana', 'Geneva', 'Lucid', 'Arial', 'Helvetica', 'Avant Garde', sans-serif; text-anchor: end" x="43.14375" y="95.671219" transform="rotate(-0 43.14375 95.671219)">0</text>
     </g>
    </g>
    <g id="ytick_2">
     <g id="line2d_8">
      <g>
       <use xlink:href="#m53d0070e32" x="50.14375" y="56.638486" style="stroke: #000000; stroke-width: 0.8"/>
      </g>
     </g>
     <g id="text_2">
      <text style="font: 10px 'DejaVu Sans', 'Bitstream Vera Sans', 'Computer Modern Sans Serif', 'Lucida Grande', 'Verdana', 'Geneva', 'Lucid', 'Arial', 'Helvetica', 'Avant Garde', sans-serif; text-anchor: end" x="43.14375" y="60.437705" transform="rotate(-0 43.14375 60.437705)">1</text>
     </g>
    </g>
    <g id="ytick_3">
     <g id="line2d_9">
      <g>
       <use xlink:href="#m53d0070e32" x="50.14375" y="21.404972" style="stroke: #000000; stroke-width: 0.8"/>
      </g>
     </g>
     <g id="text_3">
      <text style="font: 10px 'DejaVu Sans', 'Bitstream Vera Sans', 'Computer Modern Sans Serif', 'Lucida Grande', 'Verdana', 'Geneva', 'Lucid', 'Arial', 'Helvetica', 'Avant Garde', sans-serif; text-anchor: end" x="43.14375" y="25.204191" transform="rotate(-0 43.14375 25.204191)">2</text>
     </g>
    </g>
    <g id="text_4">
     <text style="font: 10px 'DejaVu Sans', 'Bitstream Vera Sans', 'Computer Modern Sans Serif', 'Lucida Grande', 'Verdana', 'Geneva', 'Lucid', 'Arial', 'Helvetica', 'Avant Garde', sans-serif; text-anchor: middle" x="30.701563" y="51.552" transform="rotate(-90 30.701563 51.552)">Current (nA)</text>
    </g>
   </g>
   <g id="line2d_10">
    <path d="M 66.376477 91.872 
L 131.372382 91.867067 
L 196.043308 42.786783 
L 196.368287 91.872 
L 391.031023 91.872 
L 391.031023 91.872 
" clip-path="url(#pacd584f586)" style="fill: none; stroke: #ff4500; stroke-width: 1.5; stroke-linecap: square"/>
   </g>
   <g id="line2d_11">
    <path d="M 66.376477 91.872 
L 131.372382 91.867067 
L 196.043308 42.786783 
L 196.368287 91.872 
L 391.031023 91.872 
L 391.031023 91.872 
" clip-path="url(#pacd584f586)" style="fill: none; stroke-dasharray: 5.55,2.4; stroke-dashoffset: 0; stroke: #c71585; stroke-width: 1.5"/>
   </g>
   <g id="line2d_12">
    <path d="M 66.376477 91.872 
L 131.372382 91.863896 
L 196.043308 11.232 
L 196.368287 91.872 
L 391.031023 91.872 
L 391.031023 91.872 
" clip-path="url(#pacd584f586)" style="fill: none; stroke-dasharray: 9.6,2.4,1.5,2.4; stroke-dashoffset: 0; stroke: #4682b4; stroke-width: 1.5"/>
   </g>
   <g id="line2d_13">
    <path d="M 66.376477 91.872 
L 131.372382 91.863896 
L 196.043308 11.232 
L 196.368287 91.872 
L 391.031023 91.872 
L 391.031023 91.872 
" clip-path="url(#pacd584f586)" style="fill: none; stroke-dasharray: 2.5,4.125; stroke-dashoffset: 0; stroke: #6b8e23; stroke-width: 2.5"/>
   </g>
   <g id="patch_3">
    <path d="M 50.14375 95.904 
L 50.14375 7.2 
" style="fill: none; stroke: #000000; stroke-width: 0.8; stroke-linejoin: miter; stroke-linecap: square"/>
   </g>
   <g id="patch_4">
    <path d="M 407.26375 95.904 
L 407.26375 7.2 
" style="fill: none; stroke: #000000; stroke-width: 0.8; stroke-linejoin: miter; stroke-linecap: square"/>
   </g>
   <g id="patch_5">
    <path d="M 50.14375 95.904 
L 407.26375 95.904 
" style="fill: none; stroke: #000000; stroke-width: 0.8; stroke-linejoin: miter; stroke-linecap: square"/>
   </g>
   <g id="patch_6">
    <path d="M 50.14375 7.2 
L 407.26375 7.2 
" style="fill: none; stroke: #000000; stroke-width: 0.8; stroke-linejoin: miter; stroke-linecap: square"/>
   </g>
   <g id="legend_1">
    <g id="patch_7">
     <path d="M 336.099688 73.9125 
L 400.26375 73.9125 
Q 402.26375 73.9125 402.26375 71.9125 
L 402.26375 14.2 
Q 402.26375 12.2 400.26375 12.2 
L 336.099688 12.2 
Q 334.099688 12.2 334.099688 14.2 
L 334.099688 71.9125 
Q 334.099688 73.9125 336.099688 73.9125 
z
" style="fill: #ffffff; opacity: 0.8; stroke: #cccccc; stroke-linejoin: miter"/>
    </g>
    <g id="line2d_14">
     <path d="M 338.099688 20.298437 
L 348.099688 20.298437 
L 358.099688 20.298437 
" style="fill: none; stroke: #ff4500; stroke-width: 1.5; stroke-linecap: square"/>
    </g>
    <g id="text_5">
     <text style="font: 10px 'DejaVu Sans', 'Bitstream Vera Sans', 'Computer Modern Sans Serif', 'Lucida Grande', 'Verdana', 'Geneva', 'Lucid', 'Arial', 'Helvetica', 'Avant Garde', sans-serif; text-anchor: start" x="366.099688" y="23.798437" transform="rotate(-0 366.099688 23.798437)">PLML2</text>
    </g>
    <g id="line2d_15">
     <path d="M 338.099688 34.976562 
L 348.099688 34.976562 
L 358.099688 34.976562 
" style="fill: none; stroke-dasharray: 5.55,2.4; stroke-dashoffset: 0; stroke: #c71585; stroke-width: 1.5"/>
    </g>
    <g id="text_6">
     <text style="font: 10px 'DejaVu Sans', 'Bitstream Vera Sans', 'Computer Modern Sans Serif', 'Lucida Grande', 'Verdana', 'Geneva', 'Lucid', 'Arial', 'Helvetica', 'Avant Garde', sans-serif; text-anchor: start" x="366.099688" y="38.476562" transform="rotate(-0 366.099688 38.476562)">PLMR</text>
    </g>
    <g id="line2d_16">
     <path d="M 338.099688 49.654687 
L 348.099688 49.654687 
L 358.099688 49.654687 
" style="fill: none; stroke-dasharray: 9.6,2.4,1.5,2.4; stroke-dashoffset: 0; stroke: #4682b4; stroke-width: 1.5"/>
    </g>
    <g id="text_7">
     <text style="font: 10px 'DejaVu Sans', 'Bitstream Vera Sans', 'Computer Modern Sans Serif', 'Lucida Grande', 'Verdana', 'Geneva', 'Lucid', 'Arial', 'Helvetica', 'Avant Garde', sans-serif; text-anchor: start" x="366.099688" y="53.154687" transform="rotate(-0 366.099688 53.154687)">AVBL</text>
    </g>
    <g id="line2d_17">
     <path d="M 338.099688 64.332812 
L 348.099688 64.332812 
L 358.099688 64.332812 
" style="fill: none; stroke-dasharray: 2.5,4.125; stroke-dashoffset: 0; stroke: #6b8e23; stroke-width: 2.5"/>
    </g>
    <g id="text_8">
     <text style="font: 10px 'DejaVu Sans', 'Bitstream Vera Sans', 'Computer Modern Sans Serif', 'Lucida Grande', 'Verdana', 'Geneva', 'Lucid', 'Arial', 'Helvetica', 'Avant Garde', sans-serif; text-anchor: start" x="366.099688" y="67.832812" transform="rotate(-0 366.099688 67.832812)">AVBR</text>
    </g>
   </g>
  </g>
  <g id="axes_2">
   <g id="patch_8">
    <path d="M 50.14375 273.312 
L 407.26375 273.312 
L 407.26375 95.904 
L 50.14375 95.904 
z
" style="fill: #ffffff"/>
   </g>
   <g id="matplotlib.axis_3">
    <g id="xtick_7">
     <g id="line2d_18">
      <g>
       <use xlink:href="#m78582f5ee0" x="66.376477" y="273.312" style="stroke: #000000; stroke-width: 0.8"/>
      </g>
     </g>
     <g id="text_9">
      <text style="font: 10px 'DejaVu Sans', 'Bitstream Vera Sans', 'Computer Modern Sans Serif', 'Lucida Grande', 'Verdana', 'Geneva', 'Lucid', 'Arial', 'Helvetica', 'Avant Garde', sans-serif; text-anchor: middle" x="66.376477" y="287.910437" transform="rotate(-0 66.376477 287.910437)">0</text>
     </g>
    </g>
    <g id="xtick_8">
     <g id="line2d_19">
      <g>
       <use xlink:href="#m78582f5ee0" x="131.372382" y="273.312" style="stroke: #000000; stroke-width: 0.8"/>
      </g>
     </g>
     <g id="text_10">
      <text style="font: 10px 'DejaVu Sans', 'Bitstream Vera Sans', 'Computer Modern Sans Serif', 'Lucida Grande', 'Verdana', 'Geneva', 'Lucid', 'Arial', 'Helvetica', 'Avant Garde', sans-serif; text-anchor: middle" x="131.372382" y="287.910437" transform="rotate(-0 131.372382 287.910437)">100</text>
     </g>
    </g>
    <g id="xtick_9">
     <g id="line2d_20">
      <g>
       <use xlink:href="#m78582f5ee0" x="196.368287" y="273.312" style="stroke: #000000; stroke-width: 0.8"/>
      </g>
     </g>
     <g id="text_11">
      <text style="font: 10px 'DejaVu Sans', 'Bitstream Vera Sans', 'Computer Modern Sans Serif', 'Lucida Grande', 'Verdana', 'Geneva', 'Lucid', 'Arial', 'Helvetica', 'Avant Garde', sans-serif; text-anchor: middle" x="196.368287" y="287.910437" transform="rotate(-0 196.368287 287.910437)">200</text>
     </g>
    </g>
    <g id="xtick_10">
     <g id="line2d_21">
      <g>
       <use xlink:href="#m78582f5ee0" x="261.364192" y="273.312" style="stroke: #000000; stroke-width: 0.8"/>
      </g>
     </g>
     <g id="text_12">
      <text style="font: 10px 'DejaVu Sans', 'Bitstream Vera Sans', 'Computer Modern Sans Serif', 'Lucida Grande', 'Verdana', 'Geneva', 'Lucid', 'Arial', 'Helvetica', 'Avant Garde', sans-serif; text-anchor: middle" x="261.364192" y="287.910437" transform="rotate(-0 261.364192 287.910437)">300</text>
     </g>
    </g>
    <g id="xtick_11">
     <g id="line2d_22">
      <g>
       <use xlink:href="#m78582f5ee0" x="326.360097" y="273.312" style="stroke: #000000; stroke-width: 0.8"/>
      </g>
     </g>
     <g id="text_13">
      <text style="font: 10px 'DejaVu Sans', 'Bitstream Vera Sans', 'Computer Modern Sans Serif', 'Lucida Grande', 'Verdana', 'Geneva', 'Lucid', 'Arial', 'Helvetica', 'Avant Garde', sans-serif; text-anchor: middle" x="326.360097" y="287.910437" transform="rotate(-0 326.360097 287.910437)">400</text>
     </g>
    </g>
    <g id="xtick_12">
     <g id="line2d_23">
      <g>
       <use xlink:href="#m78582f5ee0" x="391.356002" y="273.312" style="stroke: #000000; stroke-width: 0.8"/>
      </g>
     </g>
     <g id="text_14">
      <text style="font: 10px 'DejaVu Sans', 'Bitstream Vera Sans', 'Computer Modern Sans Serif', 'Lucida Grande', 'Verdana', 'Geneva', 'Lucid', 'Arial', 'Helvetica', 'Avant Garde', sans-serif; text-anchor: middle" x="391.356002" y="287.910437" transform="rotate(-0 391.356002 287.910437)">500</text>
     </g>
    </g>
    <g id="text_15">
     <text style="font: 10px 'DejaVu Sans', 'Bitstream Vera Sans', 'Computer Modern Sans Serif', 'Lucida Grande', 'Verdana', 'Geneva', 'Lucid', 'Arial', 'Helvetica', 'Avant Garde', sans-serif; text-anchor: middle" x="228.70375" y="301.588562" transform="rotate(-0 228.70375 301.588562)">Time (ms)</text>
    </g>
   </g>
   <g id="matplotlib.axis_4">
    <g id="ytick_4">
     <g id="line2d_24">
      <g>
       <use xlink:href="#m53d0070e32" x="50.14375" y="256.52635" style="stroke: #000000; stroke-width: 0.8"/>
      </g>
     </g>
     <g id="text_16">
      <text style="font: 10px 'DejaVu Sans', 'Bitstream Vera Sans', 'Computer Modern Sans Serif', 'Lucida Grande', 'Verdana', 'Geneva', 'Lucid', 'Arial', 'Helvetica', 'Avant Garde', sans-serif; text-anchor: end" x="43.14375" y="260.325569" transform="rotate(-0 43.14375 260.325569)">0.00</text>
     </g>
    </g>
    <g id="ytick_5">
     <g id="line2d_25">
      <g>
       <use xlink:href="#m53d0070e32" x="50.14375" y="232.893332" style="stroke: #000000; stroke-width: 0.8"/>
      </g>
     </g>
     <g id="text_17">
      <text style="font: 10px 'DejaVu Sans', 'Bitstream Vera Sans', 'Computer Modern Sans Serif', 'Lucida Grande', 'Verdana', 'Geneva', 'Lucid', 'Arial', 'Helvetica', 'Avant Garde', sans-serif; text-anchor: end" x="43.14375" y="236.692551" transform="rotate(-0 43.14375 236.692551)">0.25</text>
     </g>
    </g>
    <g id="ytick_6">
     <g id="line2d_26">
      <g>
       <use xlink:href="#m53d0070e32" x="50.14375" y="209.260315" style="stroke: #000000; stroke-width: 0.8"/>
      </g>
     </g>
     <g id="text_18">
      <text style="font: 10px 'DejaVu Sans', 'Bitstream Vera Sans', 'Computer Modern Sans Serif', 'Lucida Grande', 'Verdana', 'Geneva', 'Lucid', 'Arial', 'Helvetica', 'Avant Garde', sans-serif; text-anchor: end" x="43.14375" y="213.059534" transform="rotate(-0 43.14375 213.059534)">0.50</text>
     </g>
    </g>
    <g id="ytick_7">
     <g id="line2d_27">
      <g>
       <use xlink:href="#m53d0070e32" x="50.14375" y="185.627298" style="stroke: #000000; stroke-width: 0.8"/>
      </g>
     </g>
     <g id="text_19">
      <text style="font: 10px 'DejaVu Sans', 'Bitstream Vera Sans', 'Computer Modern Sans Serif', 'Lucida Grande', 'Verdana', 'Geneva', 'Lucid', 'Arial', 'Helvetica', 'Avant Garde', sans-serif; text-anchor: end" x="43.14375" y="189.426516" transform="rotate(-0 43.14375 189.426516)">0.75</text>
     </g>
    </g>
    <g id="ytick_8">
     <g id="line2d_28">
      <g>
       <use xlink:href="#m53d0070e32" x="50.14375" y="161.99428" style="stroke: #000000; stroke-width: 0.8"/>
      </g>
     </g>
     <g id="text_20">
      <text style="font: 10px 'DejaVu Sans', 'Bitstream Vera Sans', 'Computer Modern Sans Serif', 'Lucida Grande', 'Verdana', 'Geneva', 'Lucid', 'Arial', 'Helvetica', 'Avant Garde', sans-serif; text-anchor: end" x="43.14375" y="165.793499" transform="rotate(-0 43.14375 165.793499)">1.00</text>
     </g>
    </g>
    <g id="ytick_9">
     <g id="line2d_29">
      <g>
       <use xlink:href="#m53d0070e32" x="50.14375" y="138.361263" style="stroke: #000000; stroke-width: 0.8"/>
      </g>
     </g>
     <g id="text_21">
      <text style="font: 10px 'DejaVu Sans', 'Bitstream Vera Sans', 'Computer Modern Sans Serif', 'Lucida Grande', 'Verdana', 'Geneva', 'Lucid', 'Arial', 'Helvetica', 'Avant Garde', sans-serif; text-anchor: end" x="43.14375" y="142.160481" transform="rotate(-0 43.14375 142.160481)">1.25</text>
     </g>
    </g>
    <g id="ytick_10">
     <g id="line2d_30">
      <g>
       <use xlink:href="#m53d0070e32" x="50.14375" y="114.728245" style="stroke: #000000; stroke-width: 0.8"/>
      </g>
     </g>
     <g id="text_22">
      <text style="font: 10px 'DejaVu Sans', 'Bitstream Vera Sans', 'Computer Modern Sans Serif', 'Lucida Grande', 'Verdana', 'Geneva', 'Lucid', 'Arial', 'Helvetica', 'Avant Garde', sans-serif; text-anchor: end" x="43.14375" y="118.527464" transform="rotate(-0 43.14375 118.527464)">1.50</text>
     </g>
    </g>
    <g id="text_23">
     <text style="font: 10px 'DejaVu Sans', 'Bitstream Vera Sans', 'Computer Modern Sans Serif', 'Lucida Grande', 'Verdana', 'Geneva', 'Lucid', 'Arial', 'Helvetica', 'Avant Garde', sans-serif; text-anchor: middle" x="14.798438" y="184.608" transform="rotate(-90 14.798438 184.608)">Voltage (V)</text>
    </g>
   </g>
   <g id="line2d_31">
    <path d="M 66.376477 261.328008 
L 66.701457 260.799245 
L 67.351416 260.305718 
L 68.326354 260.099285 
L 70.601211 260.048953 
L 132.022341 259.885045 
L 133.647239 259.164513 
L 141.121768 255.672296 
L 146.971399 253.168472 
L 153.47099 250.695049 
L 158.670662 248.912746 
L 163.545355 247.394272 
L 171.994823 245.145099 
L 180.119311 243.373613 
L 187.59384 241.905925 
L 192.793512 240.631822 
L 193.768451 240.360096 
L 195.718328 239.904165 
L 196.043308 239.792824 
L 196.368287 224.688881 
L 197.018246 244.642831 
L 197.343226 250.40556 
L 197.668205 254.08461 
L 197.993185 256.398768 
L 198.318164 257.832679 
L 198.643144 258.711207 
L 199.293103 259.567963 
L 199.943062 259.877914 
L 200.918001 260.012647 
L 204.167796 260.047609 
L 391.031023 260.047777 
L 391.031023 260.047777 
" clip-path="url(#p1bb899569d)" style="fill: none; stroke: #ff4500; stroke-linecap: square"/>
   </g>
   <g id="line2d_32">
    <path d="M 66.376477 261.693756 
L 67.026436 261.058651 
L 67.676395 260.842575 
L 68.976313 260.746459 
L 77.100802 260.735355 
L 153.795969 260.647122 
L 154.445929 260.608736 
L 156.720785 260.090499 
L 157.045765 260.245628 
L 157.370744 260.190337 
L 158.020703 259.827821 
L 158.345683 260.035727 
L 158.670662 260.00031 
L 159.320621 259.568217 
L 159.645601 259.826611 
L 159.97058 259.81934 
L 160.62054 259.308785 
L 160.945519 259.603453 
L 161.270499 259.633551 
L 161.920458 259.055662 
L 162.245437 259.391731 
L 162.570417 259.45699 
L 163.220376 258.812371 
L 163.545355 259.163364 
L 163.870335 259.24653 
L 164.520294 258.527012 
L 164.845273 258.920069 
L 165.170253 259.067161 
L 165.820212 258.273187 
L 166.145191 258.677425 
L 166.470171 258.884782 
L 167.12013 257.99361 
L 167.770089 258.692463 
L 168.420048 257.709274 
L 169.070007 258.506676 
L 169.719966 257.429627 
L 170.369925 258.313505 
L 171.019884 257.160187 
L 171.669843 258.130817 
L 172.319802 256.853696 
L 172.969761 257.921453 
L 173.619721 256.561912 
L 173.9447 257.018229 
L 174.26968 257.731077 
L 174.919639 256.277375 
L 175.244618 256.708489 
L 175.569598 257.53395 
L 176.219557 255.983517 
L 176.544536 256.415482 
L 176.869516 257.306367 
L 177.519475 255.696068 
L 177.844454 256.091698 
L 178.169434 257.106173 
L 178.819393 255.373686 
L 179.144372 255.765541 
L 179.469352 256.900615 
L 180.119311 255.083825 
L 180.444291 255.457043 
L 180.76927 256.712568 
L 181.419229 254.745343 
L 181.744209 255.080229 
L 182.069188 256.481126 
L 182.719147 254.439948 
L 183.044127 254.751843 
L 183.369106 256.286355 
L 184.019065 254.116184 
L 184.344045 254.381487 
L 184.669024 256.060934 
L 185.318983 253.766234 
L 185.643963 254.001368 
L 185.968942 255.833321 
L 186.618902 253.44988 
L 186.943881 253.616565 
L 187.268861 255.615008 
L 187.91882 253.111816 
L 188.243799 253.254819 
L 188.568779 255.396691 
L 189.218738 252.81528 
L 189.543717 252.873238 
L 189.868697 255.146378 
L 190.518656 252.435248 
L 190.843635 252.472404 
L 191.168615 254.896872 
L 191.818574 252.10083 
L 192.143553 252.213299 
L 192.468533 254.691282 
L 193.118492 251.836143 
L 193.443472 251.600509 
L 193.768451 254.451497 
L 194.41841 251.318126 
L 194.74339 251.202363 
L 195.068369 254.174978 
L 195.718328 251.019376 
L 196.043308 250.969226 
L 196.368287 254.134813 
L 197.018246 250.629136 
L 197.343226 250.228341 
L 197.668205 253.689227 
L 198.318164 250.19322 
L 198.643144 249.8813 
L 198.968123 253.43407 
L 199.618083 249.898222 
L 199.943062 249.646681 
L 200.268042 253.399772 
L 200.918001 249.500685 
L 201.24298 248.881801 
L 201.56796 252.93536 
L 202.217919 249.099044 
L 202.542898 248.551707 
L 202.867878 252.641416 
L 203.517837 248.769733 
L 203.842816 248.293994 
L 204.167796 252.602919 
L 204.817755 248.372008 
L 205.142734 247.493579 
L 205.467714 252.122775 
L 206.117673 247.949146 
L 206.442653 247.153454 
L 206.767632 251.864012 
L 207.417591 247.589637 
L 207.742571 246.870012 
L 208.06755 251.820063 
L 208.717509 247.190342 
L 209.042489 246.038813 
L 209.367468 251.323495 
L 210.017427 246.748141 
L 210.342407 245.682245 
L 210.667386 251.0523 
L 211.317345 246.671952 
L 211.642325 245.081036 
L 211.967304 250.86221 
L 212.617264 245.880354 
L 212.942243 244.449128 
L 213.267223 250.459382 
L 213.917182 245.476427 
L 214.242161 244.119877 
L 214.567141 250.196287 
L 214.89212 247.359052 
L 215.542079 243.60798 
L 215.867059 250.111489 
L 216.517018 244.996121 
L 216.841997 243.159945 
L 217.166977 249.911766 
L 217.816936 244.260275 
L 218.141915 242.558304 
L 218.466895 249.041218 
L 218.791874 245.833204 
L 219.441834 241.618225 
L 219.766813 248.817563 
L 220.416772 243.133333 
L 220.741752 241.085368 
L 221.066731 248.581113 
L 221.71669 243.006637 
L 222.04167 240.95947 
L 222.366649 248.529802 
L 223.341588 240.424716 
L 223.666567 248.511656 
L 224.641506 239.652704 
L 224.966485 247.514013 
L 225.616445 241.215502 
L 225.941424 238.944699 
L 226.266404 247.198042 
L 227.241342 238.275643 
L 227.566322 247.12639 
L 228.216281 240.878691 
L 228.54126 237.977053 
L 228.86624 247.003967 
L 229.516199 240.805296 
L 229.841178 237.908645 
L 230.166158 246.974487 
L 230.816117 240.299158 
L 231.141096 238.268727 
L 231.466076 246.400651 
L 232.116035 240.416682 
L 232.441015 238.841146 
L 232.765994 246.52245 
L 233.415953 240.527824 
L 233.740933 239.037591 
L 234.065912 247.179131 
L 234.715871 242.068852 
L 235.040851 240.729358 
L 235.36583 247.675978 
L 236.015789 242.436768 
L 236.340769 241.23216 
L 236.665748 248.487738 
L 237.315707 244.314501 
L 237.640687 243.349785 
L 237.965666 250.790904 
L 238.290646 248.931449 
L 238.940605 246.13783 
L 239.265585 251.75566 
L 239.590564 249.995468 
L 239.915544 255.056281 
L 240.240523 257.733934 
L 240.565503 259.143754 
L 240.890482 259.898903 
L 241.215462 260.295137 
L 241.865421 260.616119 
L 242.840359 260.723987 
L 247.390073 260.743677 
L 391.031023 260.743681 
L 391.031023 260.743681 
" clip-path="url(#p1bb899569d)" style="fill: none; stroke-dasharray: 0.74,0.32; stroke-dashoffset: 0; stroke: #ff4500; stroke-width: 0.2"/>
   </g>
   <g id="line2d_33">
    <path d="M 66.376477 260.220106 
L 66.701457 258.399486 
L 67.026436 257.327484 
L 67.351416 256.697451 
L 68.001375 256.110831 
L 68.651334 255.909562 
L 69.951252 255.817311 
L 77.750761 255.805244 
L 131.372382 255.800382 
L 131.697362 255.55582 
L 132.347321 254.664579 
L 133.972218 251.726068 
L 138.846911 242.767666 
L 142.746666 236.066708 
L 146.64642 229.810306 
L 151.196133 222.992588 
L 154.770908 218.002889 
L 159.320621 212.160041 
L 164.195314 206.271003 
L 171.994823 197.377199 
L 184.344045 183.529949 
L 187.59384 179.412391 
L 189.868697 176.856083 
L 191.493594 175.143852 
L 193.118492 173.414116 
L 195.718328 171.18708 
L 196.043308 171.002515 
L 196.368287 103.968 
L 197.018246 189.231664 
L 197.343226 214.673067 
L 197.668205 230.832997 
L 197.993185 240.771206 
L 198.318164 246.807587 
L 198.643144 250.442899 
L 198.968123 252.621087 
L 199.293103 253.920123 
L 199.618083 254.691963 
L 200.268042 255.419298 
L 200.918001 255.672283 
L 202.217919 255.789671 
L 208.39253 255.805244 
L 391.031023 255.805244 
L 391.031023 255.805244 
" clip-path="url(#p1bb899569d)" style="fill: none; stroke: #c71585; stroke-linecap: square"/>
   </g>
   <g id="line2d_34">
    <path d="M 66.376477 264.328759 
L 66.701457 264.815999 
L 67.351416 265.142193 
L 68.651334 265.220218 
L 94.324716 265.221632 
L 153.795969 265.148574 
L 155.420867 264.891636 
L 155.745847 265.010858 
L 156.720785 264.67132 
L 157.045765 264.870221 
L 158.020703 264.449022 
L 158.345683 264.7403 
L 159.320621 264.164955 
L 159.645601 264.573299 
L 160.29556 264.130623 
L 160.62054 263.91712 
L 160.945519 264.437264 
L 161.920458 263.654214 
L 162.245437 264.29756 
L 163.220376 263.377977 
L 163.545355 264.1608 
L 164.195314 263.355188 
L 164.520294 263.066387 
L 164.845273 264.00701 
L 165.495232 263.081428 
L 165.820212 262.754851 
L 166.145191 263.87015 
L 166.79515 262.797556 
L 167.12013 262.436338 
L 167.44511 263.718678 
L 168.095069 262.426645 
L 168.420048 262.052174 
L 168.745028 263.545504 
L 169.394987 262.100229 
L 169.719966 261.691785 
L 170.044946 263.396958 
L 170.694905 261.769972 
L 171.019884 261.320483 
L 171.344864 263.24268 
L 171.994823 261.414748 
L 172.319802 260.844041 
L 172.644782 263.047584 
L 173.294741 261.040296 
L 173.619721 260.4305 
L 173.9447 262.887075 
L 174.594659 260.646195 
L 174.919639 259.986127 
L 175.244618 262.732609 
L 175.894577 260.252061 
L 176.219557 259.54361 
L 176.544536 262.574583 
L 176.869516 260.8653 
L 177.519475 259.024384 
L 177.844454 262.404337 
L 178.169434 260.493044 
L 178.819393 258.546322 
L 179.144372 262.241317 
L 179.469352 260.131528 
L 180.119311 258.048747 
L 180.444291 262.078936 
L 180.76927 259.734166 
L 181.09425 258.304308 
L 181.419229 257.43406 
L 181.744209 261.89708 
L 182.069188 259.325224 
L 182.394168 257.81215 
L 182.719147 256.889389 
L 183.044127 261.731121 
L 183.369106 258.892402 
L 183.694086 257.270387 
L 184.019065 256.275133 
L 184.344045 261.573775 
L 184.669024 258.467323 
L 185.318983 255.596917 
L 185.643963 261.361309 
L 185.968942 257.998468 
L 186.293922 256.14936 
L 186.618902 254.945819 
L 186.943881 261.197547 
L 187.268861 257.501677 
L 187.91882 254.302432 
L 188.243799 261.035669 
L 188.568779 257.031137 
L 189.218738 253.592903 
L 189.543717 260.872281 
L 189.868697 256.395018 
L 190.518656 252.876962 
L 190.843635 260.713567 
L 191.168615 255.929351 
L 191.493594 253.77703 
L 191.818574 252.393759 
L 192.143553 260.540337 
L 192.468533 255.572442 
L 192.793512 252.737738 
L 193.118492 251.164246 
L 193.443472 260.372712 
L 193.768451 254.637347 
L 194.093431 252.069971 
L 194.41841 250.577661 
L 194.74339 260.193324 
L 195.068369 254.239323 
L 195.393349 251.61 
L 195.718328 250.083843 
L 196.043308 260.016719 
L 196.368287 253.259725 
L 196.693267 250.343939 
L 197.018246 248.641508 
L 197.343226 259.884656 
L 197.668205 252.778689 
L 197.993185 249.83137 
L 198.318164 247.993937 
L 198.643144 259.677727 
L 198.968123 252.350755 
L 199.293103 249.340098 
L 199.618083 247.456724 
L 199.943062 259.501209 
L 200.268042 251.257081 
L 200.593021 247.919201 
L 200.918001 245.854296 
L 201.24298 259.372278 
L 201.56796 250.746182 
L 201.892939 247.37496 
L 202.217919 245.27805 
L 202.542898 259.198759 
L 202.867878 250.198182 
L 203.192857 246.800126 
L 203.517837 244.703308 
L 203.842816 259.027593 
L 204.167796 248.965846 
L 204.492775 245.214319 
L 204.817755 242.912055 
L 205.142734 258.894277 
L 205.467714 248.413095 
L 205.792693 244.635739 
L 206.117673 242.315027 
L 206.442653 258.737218 
L 206.767632 247.975574 
L 207.092612 243.968819 
L 207.417591 241.654903 
L 207.742571 258.536865 
L 208.06755 246.604948 
L 208.39253 242.202673 
L 208.717509 239.680101 
L 209.042489 258.414724 
L 209.367468 246.016445 
L 209.692448 241.591862 
L 210.017427 239.052689 
L 210.342407 258.265237 
L 210.667386 245.554422 
L 211.317345 236.996437 
L 211.642325 258.0632 
L 211.967304 243.943477 
L 212.292284 239.051011 
L 212.617264 236.082697 
L 212.942243 257.947088 
L 213.267223 243.398607 
L 213.592202 238.446969 
L 213.917182 235.443777 
L 214.242161 257.799187 
L 214.567141 242.916695 
L 215.2171 233.5559 
L 215.542079 257.691438 
L 215.867059 241.419048 
L 216.192038 236.178032 
L 216.517018 233.179793 
L 216.841997 257.738211 
L 217.166977 241.334001 
L 217.816936 231.458345 
L 218.141915 257.284623 
L 218.466895 239.211567 
L 219.116854 228.323703 
L 219.441834 256.970421 
L 219.766813 237.440144 
L 220.091793 231.356427 
L 220.416772 227.873092 
L 220.741752 257.041192 
L 221.066731 237.347289 
L 221.391711 231.324503 
L 221.71669 227.869085 
L 222.04167 257.067513 
L 222.366649 237.350832 
L 222.691629 229.802499 
L 223.016608 225.997767 
L 223.341588 257.101088 
L 223.666567 235.867574 
L 224.316526 223.985077 
L 224.641506 256.689979 
L 224.966485 233.512997 
L 225.291465 226.359046 
L 225.616445 222.291402 
L 225.941424 256.412445 
L 226.266404 233.091265 
L 226.591383 224.464703 
L 226.916363 220.103186 
L 227.241342 256.467223 
L 227.566322 231.429379 
L 227.891301 224.136459 
L 228.216281 219.969459 
L 228.54126 256.539938 
L 228.86624 231.408935 
L 229.191219 224.136815 
L 229.516199 219.991522 
L 229.841178 256.558753 
L 230.166158 231.413931 
L 230.491137 220.883898 
L 230.816117 214.709987 
L 231.141096 254.852927 
L 231.466076 226.412985 
L 231.791055 217.906811 
L 232.116035 213.132341 
L 232.441015 254.544849 
L 232.765994 225.985978 
L 233.090974 217.673987 
L 233.415953 213.014155 
L 233.740933 254.574831 
L 234.065912 226.987193 
L 234.390892 219.035969 
L 234.715871 214.513526 
L 235.040851 254.28171 
L 235.36583 227.146574 
L 235.69081 219.10468 
L 236.015789 214.547564 
L 236.340769 254.235439 
L 236.665748 231.657914 
L 236.990728 225.488768 
L 237.315707 221.928193 
L 237.640687 255.049908 
L 237.965666 238.171247 
L 238.290646 234.056066 
L 238.615626 231.627417 
L 238.940605 257.18617 
L 239.265585 240.785199 
L 239.590564 259.172953 
L 239.915544 262.114166 
L 240.240523 263.636688 
L 240.565503 264.407623 
L 240.890482 264.812859 
L 241.540441 265.129172 
L 242.51538 265.230624 
L 247.390073 265.247998 
L 391.031023 265.248 
L 391.031023 265.248 
" clip-path="url(#p1bb899569d)" style="fill: none; stroke-dasharray: 0.74,0.32; stroke-dashoffset: 0; stroke: #c71585; stroke-width: 0.2"/>
   </g>
   <g id="line2d_35">
    <path d="M 66.376477 259.757583 
L 66.701457 258.539698 
L 67.026436 257.815079 
L 67.676395 257.130874 
L 68.326354 256.892171 
L 69.626273 256.781037 
L 76.125863 256.766225 
L 131.372382 256.763144 
L 132.022341 256.353721 
L 132.99728 255.308731 
L 143.721604 242.640666 
L 147.946338 238.099263 
L 152.821031 233.19331 
L 156.395806 229.855735 
L 161.595478 225.305069 
L 165.495232 222.199604 
L 173.619721 216.108934 
L 179.144372 212.243798 
L 185.643963 207.912982 
L 188.568779 205.853181 
L 192.143553 203.619558 
L 193.768451 202.590529 
L 196.043308 201.400934 
L 196.368287 154.785841 
L 197.018246 211.457858 
L 197.343226 228.517724 
L 197.668205 239.442207 
L 197.993185 246.249653 
L 198.318164 250.42903 
L 198.643144 252.967714 
L 198.968123 254.499733 
L 199.293103 255.418863 
L 199.618083 255.967724 
L 200.268042 256.487848 
L 200.918001 256.669921 
L 202.542898 256.759597 
L 216.192038 256.766224 
L 391.031023 256.766224 
L 391.031023 256.766224 
" clip-path="url(#p1bb899569d)" style="fill: none; stroke: #4682b4; stroke-linecap: square"/>
   </g>
   <g id="line2d_36">
    <path d="M 66.376477 261.409606 
L 67.026436 260.916287 
L 67.676395 260.727088 
L 68.976313 260.635061 
L 77.100802 260.623431 
L 153.47099 260.573024 
L 154.120949 260.381226 
L 154.445929 260.447532 
L 155.420867 260.026109 
L 155.745847 260.206665 
L 156.395806 259.846838 
L 156.720785 259.658181 
L 157.045765 259.947914 
L 157.370744 259.794689 
L 158.020703 259.262628 
L 158.345683 259.661644 
L 158.670662 259.516612 
L 159.320621 258.872837 
L 159.645601 259.37212 
L 159.97058 259.253984 
L 160.62054 258.46335 
L 160.945519 259.06911 
L 161.270499 258.961001 
L 161.920458 258.072295 
L 162.245437 258.779692 
L 162.570417 258.673426 
L 163.220376 257.681277 
L 163.545355 258.469046 
L 163.870335 258.344512 
L 164.520294 257.2333 
L 164.845273 258.137538 
L 165.170253 258.051504 
L 165.820212 256.81763 
L 166.145191 257.809343 
L 166.470171 257.767182 
L 167.12013 256.371985 
L 167.44511 257.472928 
L 167.770089 257.477413 
L 168.420048 255.904975 
L 168.745028 257.121147 
L 169.070007 257.17056 
L 169.719966 255.43477 
L 170.044946 256.743786 
L 170.369925 256.849146 
L 171.019884 254.985153 
L 171.344864 256.396266 
L 171.669843 256.549548 
L 172.319802 254.460539 
L 172.644782 255.964649 
L 172.969761 256.19775 
L 173.619721 253.96614 
L 173.9447 255.585537 
L 174.26968 255.889377 
L 174.919639 253.461216 
L 175.244618 255.178647 
L 175.569598 255.543163 
L 176.219557 252.95285 
L 176.544536 254.791073 
L 176.869516 255.166882 
L 177.519475 252.408939 
L 177.844454 254.363741 
L 178.169434 254.812209 
L 178.819393 251.854746 
L 179.144372 253.936673 
L 179.469352 254.459718 
L 180.119311 251.334684 
L 180.444291 253.532846 
L 180.76927 254.11458 
L 181.419229 250.700485 
L 181.744209 253.042478 
L 182.069188 253.724058 
L 182.719147 250.129953 
L 183.044127 252.614158 
L 183.369106 253.352459 
L 184.019065 249.511145 
L 184.344045 252.139533 
L 184.669024 252.956005 
L 185.318983 248.86699 
L 185.643963 251.647178 
L 185.968942 252.544815 
L 186.618902 248.252461 
L 186.943881 251.156922 
L 187.268861 252.129524 
L 187.91882 247.611046 
L 188.243799 250.692978 
L 188.568779 251.728639 
L 189.218738 246.981047 
L 189.543717 250.210477 
L 189.868697 251.254645 
L 190.518656 246.255147 
L 190.843635 249.694723 
L 191.168615 250.817769 
L 191.818574 245.706938 
L 192.143553 249.348062 
L 192.468533 250.484131 
L 193.118492 244.865176 
L 193.443472 248.604664 
L 193.768451 249.870831 
L 194.41841 244.042255 
L 194.74339 248.103218 
L 195.068369 249.434702 
L 195.718328 243.535249 
L 196.043308 247.775964 
L 196.368287 249.058812 
L 197.018246 242.43149 
L 197.343226 246.907104 
L 197.668205 248.370602 
L 198.318164 241.734074 
L 198.643144 246.456778 
L 198.968123 247.955979 
L 199.618083 241.199364 
L 199.943062 246.13747 
L 200.268042 247.549943 
L 200.918001 240.045688 
L 201.24298 245.243659 
L 201.56796 246.848739 
L 202.217919 239.360261 
L 202.542898 244.824189 
L 202.867878 246.374519 
L 203.517837 238.772385 
L 203.842816 244.477114 
L 204.167796 245.916409 
L 204.817755 237.527004 
L 205.142734 243.544546 
L 205.467714 245.165217 
L 206.117673 236.836567 
L 206.442653 243.125287 
L 206.767632 244.745775 
L 207.417591 236.163758 
L 207.742571 242.752693 
L 208.06755 244.232192 
L 208.717509 234.838944 
L 209.042489 241.799274 
L 209.367468 243.447293 
L 210.017427 234.095938 
L 210.342407 241.358264 
L 210.667386 243.003713 
L 211.317345 233.182781 
L 211.642325 240.650589 
L 211.967304 242.217756 
L 212.617264 231.8721 
L 212.942243 239.910423 
L 213.267223 241.570331 
L 213.917182 231.172612 
L 214.242161 239.50193 
L 214.567141 241.129953 
L 215.2171 230.425741 
L 215.542079 238.912935 
L 215.867059 240.481407 
L 216.517018 229.583117 
L 216.841997 238.429074 
L 217.166977 240.185897 
L 217.816936 228.343455 
L 218.141915 237.693321 
L 218.466895 238.705195 
L 219.116854 226.269113 
L 219.441834 236.503391 
L 219.766813 237.683023 
L 220.416772 225.271854 
L 220.741752 235.936238 
L 221.066731 237.343827 
L 221.71669 225.120053 
L 222.04167 235.8137 
L 222.366649 237.287069 
L 223.016608 224.390347 
L 223.341588 235.262802 
L 223.666567 236.699931 
L 224.316526 222.761107 
L 224.641506 234.361363 
L 224.966485 234.984233 
L 225.616445 220.8017 
L 225.941424 233.416412 
L 226.266404 234.331549 
L 226.916363 219.756974 
L 227.241342 232.711864 
L 227.566322 233.610219 
L 228.216281 219.306891 
L 228.54126 232.425602 
L 228.86624 233.453207 
L 229.516199 219.257239 
L 229.841178 232.347708 
L 230.166158 233.423415 
L 230.816117 217.329828 
L 231.141096 232.085959 
L 231.466076 231.615829 
L 232.116035 216.541196 
L 232.441015 232.458484 
L 232.765994 231.472684 
L 233.415953 216.570831 
L 233.740933 232.656345 
L 234.065912 233.198796 
L 234.715871 219.991553 
L 235.040851 234.837193 
L 235.36583 234.142721 
L 236.015789 220.52666 
L 236.340769 235.398615 
L 236.665748 237.020457 
L 237.315707 226.614837 
L 237.640687 238.547039 
L 237.965666 241.039054 
L 238.615626 233.664503 
L 238.940605 242.365859 
L 239.265585 243.825342 
L 239.590564 248.058703 
L 239.915544 254.000402 
L 240.240523 257.14302 
L 240.565503 258.784572 
L 240.890482 259.664086 
L 241.215462 260.129968 
L 241.865421 260.500075 
L 242.840359 260.62492 
L 246.740114 260.647708 
L 391.031023 260.647722 
L 391.031023 260.647722 
" clip-path="url(#p1bb899569d)" style="fill: none; stroke-dasharray: 0.74,0.32; stroke-dashoffset: 0; stroke: #4682b4; stroke-width: 0.2"/>
   </g>
   <g id="line2d_37">
    <path d="M 66.376477 261.32573 
L 66.701457 260.860215 
L 67.351416 260.430934 
L 68.326354 260.254209 
L 70.926191 260.211434 
L 131.697362 260.131387 
L 132.6723 259.689548 
L 147.946338 251.570227 
L 154.445929 248.547497 
L 161.270499 245.612822 
L 167.770089 243.01685 
L 172.644782 241.196448 
L 185.318983 236.546924 
L 189.868697 234.710633 
L 195.393349 232.076993 
L 196.043308 231.711646 
L 196.368287 223.746755 
L 197.018246 245.295401 
L 197.343226 251.085948 
L 197.668205 254.679888 
L 197.993185 256.883487 
L 198.318164 258.220022 
L 198.643144 259.024495 
L 199.293103 259.793329 
L 199.943062 260.065211 
L 201.24298 260.193464 
L 206.767632 260.210867 
L 391.031023 260.210869 
L 391.031023 260.210869 
" clip-path="url(#p1bb899569d)" style="fill: none; stroke: #6b8e23; stroke-linecap: square"/>
   </g>
   <g id="line2d_38">
    <path d="M 66.376477 261.76674 
L 67.026436 261.429935 
L 68.001375 261.277501 
L 70.926191 261.23913 
L 153.795969 261.160052 
L 155.420867 260.892215 
L 155.745847 260.984014 
L 157.045765 260.831587 
L 157.695724 260.595094 
L 158.020703 260.464408 
L 158.345683 260.660116 
L 158.670662 260.609578 
L 159.320621 260.249008 
L 159.645601 260.490065 
L 159.97058 260.461801 
L 160.62054 260.03872 
L 160.945519 260.310601 
L 161.270499 260.311577 
L 161.920458 259.835711 
L 162.245437 260.141205 
L 162.570417 260.168427 
L 163.220376 259.643146 
L 163.545355 259.96009 
L 163.870335 260.003275 
L 164.520294 259.419659 
L 164.845273 259.767702 
L 165.170253 259.864043 
L 165.820212 259.224698 
L 166.145191 259.577401 
L 166.470171 259.724621 
L 167.12013 259.01163 
L 167.44511 259.381469 
L 167.770089 259.582956 
L 168.420048 258.796151 
L 169.070007 259.44479 
L 169.719966 258.589965 
L 170.369925 259.300138 
L 171.019884 258.392047 
L 171.669843 259.167886 
L 172.319802 258.172092 
L 172.644782 258.512294 
L 172.969761 259.020147 
L 173.619721 257.962842 
L 173.9447 258.29516 
L 174.26968 258.888818 
L 174.919639 257.765174 
L 175.244618 258.060132 
L 175.569598 258.753323 
L 176.219557 257.55976 
L 176.544536 257.837977 
L 176.869516 258.59685 
L 177.519475 257.363506 
L 177.844454 257.593881 
L 178.169434 258.465899 
L 178.819393 257.144886 
L 179.144372 257.349008 
L 179.469352 258.32939 
L 180.119311 256.949105 
L 180.444291 257.117636 
L 180.76927 258.211586 
L 181.419229 256.72623 
L 181.744209 256.836671 
L 182.069188 258.059816 
L 182.719147 256.523455 
L 183.044127 256.592173 
L 183.369106 257.943209 
L 184.019065 256.320541 
L 184.344045 256.31842 
L 184.669024 257.800602 
L 185.318983 256.095398 
L 185.643963 256.036414 
L 185.968942 257.657532 
L 186.618902 255.899841 
L 186.943881 255.753609 
L 187.268861 257.529384 
L 187.91882 255.686759 
L 188.243799 255.487959 
L 188.568779 257.397185 
L 189.218738 255.509912 
L 189.543717 255.208993 
L 189.868697 257.253845 
L 190.518656 255.27249 
L 190.843635 254.917476 
L 191.168615 257.09699 
L 191.818574 255.043587 
L 192.143553 254.72567 
L 192.468533 256.956406 
L 193.443472 254.287022 
L 193.768451 256.871254 
L 194.41841 254.601569 
L 194.74339 253.996333 
L 195.068369 256.684767 
L 195.718328 254.400017 
L 196.043308 253.824568 
L 196.368287 256.738083 
L 197.018246 254.2388 
L 197.343226 253.298482 
L 197.668205 256.443031 
L 198.318164 253.951494 
L 198.643144 253.045035 
L 198.968123 256.273613 
L 199.618083 253.755517 
L 199.943062 252.872685 
L 200.268042 256.342183 
L 200.918001 253.607009 
L 201.24298 252.334321 
L 201.56796 256.038908 
L 202.217919 253.341569 
L 202.542898 252.094456 
L 202.867878 255.851162 
L 203.517837 253.127185 
L 203.842816 251.906635 
L 204.167796 255.925787 
L 205.142734 251.345783 
L 205.467714 255.617125 
L 206.442653 251.101289 
L 206.767632 255.450572 
L 207.742571 250.894851 
L 208.06755 255.530064 
L 209.042489 250.317269 
L 209.367468 255.215004 
L 210.342407 250.061736 
L 210.667386 255.042666 
L 210.992366 253.270187 
L 211.317345 252.176758 
L 211.642325 249.641167 
L 211.967304 255.038525 
L 212.942243 249.200183 
L 213.267223 254.785077 
L 214.242161 248.964799 
L 214.567141 254.620512 
L 214.89212 252.744166 
L 215.2171 251.619077 
L 215.542079 248.610824 
L 215.867059 254.688669 
L 216.517018 251.276159 
L 216.841997 248.303794 
L 217.166977 254.561138 
L 217.816936 250.855924 
L 218.141915 247.874628 
L 218.466895 254.047344 
L 218.791874 251.962322 
L 219.116854 250.695565 
L 219.441834 247.221058 
L 219.766813 254.030355 
L 220.416772 250.302457 
L 220.741752 246.855212 
L 221.066731 253.878565 
L 221.71669 250.217114 
L 222.04167 246.766123 
L 222.366649 253.843287 
L 223.016608 250.443071 
L 223.341588 246.407783 
L 223.666567 253.96589 
L 224.316526 249.890577 
L 224.641506 245.868146 
L 224.966485 253.384454 
L 225.616445 249.326705 
L 225.941424 245.372845 
L 226.266404 253.186989 
L 226.916363 249.478905 
L 227.241342 244.920768 
L 227.566322 253.277981 
L 228.216281 249.294684 
L 228.54126 244.716044 
L 228.86624 253.200109 
L 229.516199 249.243162 
L 229.841178 244.669381 
L 230.166158 253.179985 
L 230.816117 248.937867 
L 231.141096 244.982189 
L 231.466076 252.832696 
L 232.116035 249.129415 
L 232.441015 245.429286 
L 232.765994 252.95576 
L 233.415953 249.222619 
L 233.740933 245.574232 
L 234.065912 253.293085 
L 234.715871 250.209086 
L 235.040851 246.877124 
L 235.36583 253.684684 
L 236.015789 250.502761 
L 236.340769 247.262928 
L 236.665748 253.960749 
L 237.315707 251.394511 
L 237.640687 248.774301 
L 237.965666 255.327649 
L 238.615626 253.464259 
L 238.940605 250.811271 
L 239.265585 255.928478 
L 239.590564 253.558507 
L 239.915544 257.174957 
L 240.240523 259.091156 
L 240.565503 260.100624 
L 240.890482 260.639896 
L 241.540441 261.073429 
L 242.51538 261.217965 
L 246.090155 261.244191 
L 391.031023 261.244222 
L 391.031023 261.244222 
" clip-path="url(#p1bb899569d)" style="fill: none; stroke-dasharray: 0.74,0.32; stroke-dashoffset: 0; stroke: #6b8e23; stroke-width: 0.2"/>
   </g>
   <g id="patch_9">
    <path d="M 50.14375 273.312 
L 50.14375 95.904 
" style="fill: none; stroke: #000000; stroke-width: 0.8; stroke-linejoin: miter; stroke-linecap: square"/>
   </g>
   <g id="patch_10">
    <path d="M 407.26375 273.312 
L 407.26375 95.904 
" style="fill: none; stroke: #000000; stroke-width: 0.8; stroke-linejoin: miter; stroke-linecap: square"/>
   </g>
   <g id="patch_11">
    <path d="M 50.14375 273.312 
L 407.26375 273.312 
" style="fill: none; stroke: #000000; stroke-width: 0.8; stroke-linejoin: miter; stroke-linecap: square"/>
   </g>
   <g id="patch_12">
    <path d="M 50.14375 95.904 
L 407.26375 95.904 
" style="fill: none; stroke: #000000; stroke-width: 0.8; stroke-linejoin: miter; stroke-linecap: square"/>
   </g>
   <g id="legend_2">
    <g id="patch_13">
     <path d="M 252.385625 221.329 
L 400.26375 221.329 
Q 402.26375 221.329 402.26375 219.329 
L 402.26375 102.904 
Q 402.26375 100.904 400.26375 100.904 
L 252.385625 100.904 
Q 250.385625 100.904 250.385625 102.904 
L 250.385625 219.329 
Q 250.385625 221.329 252.385625 221.329 
z
" style="fill: #ffffff; opacity: 0.8; stroke: #cccccc; stroke-linejoin: miter"/>
    </g>
    <g id="line2d_39">
     <path d="M 254.385625 109.002437 
L 264.385625 109.002437 
L 274.385625 109.002437 
" style="fill: none; stroke: #ff4500; stroke-linecap: square"/>
    </g>
    <g id="text_24">
     <text style="font: 10px 'DejaVu Sans', 'Bitstream Vera Sans', 'Computer Modern Sans Serif', 'Lucida Grande', 'Verdana', 'Geneva', 'Lucid', 'Arial', 'Helvetica', 'Avant Garde', sans-serif; text-anchor: start" x="282.385625" y="112.502437" transform="rotate(-0 282.385625 112.502437)">Digital prediction DB1</text>
    </g>
    <g id="line2d_40">
     <path d="M 254.385625 123.680562 
L 264.385625 123.680562 
L 274.385625 123.680562 
" style="fill: none; stroke-dasharray: 0.74,0.32; stroke-dashoffset: 0; stroke: #ff4500; stroke-width: 0.2"/>
    </g>
    <g id="text_25">
     <text style="font: 10px 'DejaVu Sans', 'Bitstream Vera Sans', 'Computer Modern Sans Serif', 'Lucida Grande', 'Verdana', 'Geneva', 'Lucid', 'Arial', 'Helvetica', 'Avant Garde', sans-serif; text-anchor: start" x="282.385625" y="127.180562" transform="rotate(-0 282.385625 127.180562)">Analog prediction DB1</text>
    </g>
    <g id="line2d_41">
     <path d="M 254.385625 138.358687 
L 264.385625 138.358687 
L 274.385625 138.358687 
" style="fill: none; stroke: #c71585; stroke-linecap: square"/>
    </g>
    <g id="text_26">
     <text style="font: 10px 'DejaVu Sans', 'Bitstream Vera Sans', 'Computer Modern Sans Serif', 'Lucida Grande', 'Verdana', 'Geneva', 'Lucid', 'Arial', 'Helvetica', 'Avant Garde', sans-serif; text-anchor: start" x="282.385625" y="141.858687" transform="rotate(-0 282.385625 141.858687)">Digital prediction LUAL</text>
    </g>
    <g id="line2d_42">
     <path d="M 254.385625 153.036812 
L 264.385625 153.036812 
L 274.385625 153.036812 
" style="fill: none; stroke-dasharray: 0.74,0.32; stroke-dashoffset: 0; stroke: #c71585; stroke-width: 0.2"/>
    </g>
    <g id="text_27">
     <text style="font: 10px 'DejaVu Sans', 'Bitstream Vera Sans', 'Computer Modern Sans Serif', 'Lucida Grande', 'Verdana', 'Geneva', 'Lucid', 'Arial', 'Helvetica', 'Avant Garde', sans-serif; text-anchor: start" x="282.385625" y="156.536812" transform="rotate(-0 282.385625 156.536812)">Analog prediction LUAL</text>
    </g>
    <g id="line2d_43">
     <path d="M 254.385625 167.714937 
L 264.385625 167.714937 
L 274.385625 167.714937 
" style="fill: none; stroke: #4682b4; stroke-linecap: square"/>
    </g>
    <g id="text_28">
     <text style="font: 10px 'DejaVu Sans', 'Bitstream Vera Sans', 'Computer Modern Sans Serif', 'Lucida Grande', 'Verdana', 'Geneva', 'Lucid', 'Arial', 'Helvetica', 'Avant Garde', sans-serif; text-anchor: start" x="282.385625" y="171.214937" transform="rotate(-0 282.385625 171.214937)">Digital prediction PVR</text>
    </g>
    <g id="line2d_44">
     <path d="M 254.385625 182.393062 
L 264.385625 182.393062 
L 274.385625 182.393062 
" style="fill: none; stroke-dasharray: 0.74,0.32; stroke-dashoffset: 0; stroke: #4682b4; stroke-width: 0.2"/>
    </g>
    <g id="text_29">
     <text style="font: 10px 'DejaVu Sans', 'Bitstream Vera Sans', 'Computer Modern Sans Serif', 'Lucida Grande', 'Verdana', 'Geneva', 'Lucid', 'Arial', 'Helvetica', 'Avant Garde', sans-serif; text-anchor: start" x="282.385625" y="185.893062" transform="rotate(-0 282.385625 185.893062)">Analog prediction PVR</text>
    </g>
    <g id="line2d_45">
     <path d="M 254.385625 197.071187 
L 264.385625 197.071187 
L 274.385625 197.071187 
" style="fill: none; stroke: #6b8e23; stroke-linecap: square"/>
    </g>
    <g id="text_30">
     <text style="font: 10px 'DejaVu Sans', 'Bitstream Vera Sans', 'Computer Modern Sans Serif', 'Lucida Grande', 'Verdana', 'Geneva', 'Lucid', 'Arial', 'Helvetica', 'Avant Garde', sans-serif; text-anchor: start" x="282.385625" y="200.571187" transform="rotate(-0 282.385625 200.571187)">Digital prediction VB1</text>
    </g>
    <g id="line2d_46">
     <path d="M 254.385625 211.749312 
L 264.385625 211.749312 
L 274.385625 211.749312 
" style="fill: none; stroke-dasharray: 0.74,0.32; stroke-dashoffset: 0; stroke: #6b8e23; stroke-width: 0.2"/>
    </g>
    <g id="text_31">
     <text style="font: 10px 'DejaVu Sans', 'Bitstream Vera Sans', 'Computer Modern Sans Serif', 'Lucida Grande', 'Verdana', 'Geneva', 'Lucid', 'Arial', 'Helvetica', 'Avant Garde', sans-serif; text-anchor: start" x="282.385625" y="215.249312" transform="rotate(-0 282.385625 215.249312)">Analog prediction VB1</text>
    </g>
   </g>
  </g>
 </g>
 <defs>
  <clipPath id="pacd584f586">
   <rect x="50.14375" y="7.2" width="357.12" height="88.704"/>
  </clipPath>
  <clipPath id="p1bb899569d">
   <rect x="50.14375" y="95.904" width="357.12" height="177.408"/>
  </clipPath>
 </defs>
</svg>
