<?xml version="1.0" encoding="utf-8" standalone="no"?>
<!DOCTYPE svg PUBLIC "-//W3C//DTD SVG 1.1//EN"
  "http://www.w3.org/Graphics/SVG/1.1/DTD/svg11.dtd">
<svg xmlns:xlink="http://www.w3.org/1999/xlink" width="394.423125pt" height="297.190125pt" viewBox="0 0 394.423125 297.190125" xmlns="http://www.w3.org/2000/svg" version="1.1">
 <metadata>
  <rdf:RDF xmlns:dc="http://purl.org/dc/elements/1.1/" xmlns:cc="http://creativecommons.org/ns#" xmlns:rdf="http://www.w3.org/1999/02/22-rdf-syntax-ns#">
   <cc:Work>
    <dc:type rdf:resource="http://purl.org/dc/dcmitype/StillImage"/>
    <dc:date>2023-10-24T18:22:55.159398</dc:date>
    <dc:format>image/svg+xml</dc:format>
    <dc:creator>
     <cc:Agent>
      <dc:title>Matplotlib v3.8.0, https://matplotlib.org/</dc:title>
     </cc:Agent>
    </dc:creator>
   </cc:Work>
  </rdf:RDF>
 </metadata>
 <defs>
  <style type="text/css">*{stroke-linejoin: round; stroke-linecap: butt}</style>
 </defs>
 <g id="figure_1">
  <g id="patch_1">
   <path d="M 0 297.190125 
L 394.423125 297.190125 
L 394.423125 0 
L 0 0 
z
" style="fill: #ffffff"/>
  </g>
  <g id="axes_1">
   <g id="patch_2">
    <path d="M 30.103125 140.256 
L 387.223125 140.256 
L 387.223125 7.2 
L 30.103125 7.2 
z
" style="fill: #ffffff"/>
   </g>
   <g id="matplotlib.axis_1">
    <g id="xtick_1">
     <g id="line2d_1">
      <defs>
       <path id="m5c6ea2d197" d="M 0 0 
L 0 3.5 
" style="stroke: #000000; stroke-width: 0.8"/>
      </defs>
      <g>
       <use xlink:href="#m5c6ea2d197" x="46.335852" y="140.256" style="stroke: #000000; stroke-width: 0.8"/>
      </g>
     </g>
    </g>
    <g id="xtick_2">
     <g id="line2d_2">
      <g>
       <use xlink:href="#m5c6ea2d197" x="111.331757" y="140.256" style="stroke: #000000; stroke-width: 0.8"/>
      </g>
     </g>
    </g>
    <g id="xtick_3">
     <g id="line2d_3">
      <g>
       <use xlink:href="#m5c6ea2d197" x="176.327662" y="140.256" style="stroke: #000000; stroke-width: 0.8"/>
      </g>
     </g>
    </g>
    <g id="xtick_4">
     <g id="line2d_4">
      <g>
       <use xlink:href="#m5c6ea2d197" x="241.323567" y="140.256" style="stroke: #000000; stroke-width: 0.8"/>
      </g>
     </g>
    </g>
    <g id="xtick_5">
     <g id="line2d_5">
      <g>
       <use xlink:href="#m5c6ea2d197" x="306.319472" y="140.256" style="stroke: #000000; stroke-width: 0.8"/>
      </g>
     </g>
    </g>
    <g id="xtick_6">
     <g id="line2d_6">
      <g>
       <use xlink:href="#m5c6ea2d197" x="371.315377" y="140.256" style="stroke: #000000; stroke-width: 0.8"/>
      </g>
     </g>
    </g>
   </g>
   <g id="matplotlib.axis_2">
    <g id="ytick_1">
     <g id="line2d_7">
      <defs>
       <path id="md6595103f1" d="M 0 0 
L -3.5 0 
" style="stroke: #000000; stroke-width: 0.8"/>
      </defs>
      <g>
       <use xlink:href="#md6595103f1" x="30.103125" y="134.208" style="stroke: #000000; stroke-width: 0.8"/>
      </g>
     </g>
     <g id="text_1">
      <text style="font: 10px 'DejaVu Sans', 'Bitstream Vera Sans', 'Computer Modern Sans Serif', 'Lucida Grande', 'Verdana', 'Geneva', 'Lucid', 'Arial', 'Helvetica', 'Avant Garde', sans-serif; text-anchor: end" x="23.103125" y="138.007219" transform="rotate(-0 23.103125 138.007219)">0.0</text>
     </g>
    </g>
    <g id="ytick_2">
     <g id="line2d_8">
      <g>
       <use xlink:href="#md6595103f1" x="30.103125" y="107.912348" style="stroke: #000000; stroke-width: 0.8"/>
      </g>
     </g>
     <g id="text_2">
      <text style="font: 10px 'DejaVu Sans', 'Bitstream Vera Sans', 'Computer Modern Sans Serif', 'Lucida Grande', 'Verdana', 'Geneva', 'Lucid', 'Arial', 'Helvetica', 'Avant Garde', sans-serif; text-anchor: end" x="23.103125" y="111.711567" transform="rotate(-0 23.103125 111.711567)">0.5</text>
     </g>
    </g>
    <g id="ytick_3">
     <g id="line2d_9">
      <g>
       <use xlink:href="#md6595103f1" x="30.103125" y="81.616696" style="stroke: #000000; stroke-width: 0.8"/>
      </g>
     </g>
     <g id="text_3">
      <text style="font: 10px 'DejaVu Sans', 'Bitstream Vera Sans', 'Computer Modern Sans Serif', 'Lucida Grande', 'Verdana', 'Geneva', 'Lucid', 'Arial', 'Helvetica', 'Avant Garde', sans-serif; text-anchor: end" x="23.103125" y="85.415914" transform="rotate(-0 23.103125 85.415914)">1.0</text>
     </g>
    </g>
    <g id="ytick_4">
     <g id="line2d_10">
      <g>
       <use xlink:href="#md6595103f1" x="30.103125" y="55.321043" style="stroke: #000000; stroke-width: 0.8"/>
      </g>
     </g>
     <g id="text_4">
      <text style="font: 10px 'DejaVu Sans', 'Bitstream Vera Sans', 'Computer Modern Sans Serif', 'Lucida Grande', 'Verdana', 'Geneva', 'Lucid', 'Arial', 'Helvetica', 'Avant Garde', sans-serif; text-anchor: end" x="23.103125" y="59.120262" transform="rotate(-0 23.103125 59.120262)">1.5</text>
     </g>
    </g>
    <g id="ytick_5">
     <g id="line2d_11">
      <g>
       <use xlink:href="#md6595103f1" x="30.103125" y="29.025391" style="stroke: #000000; stroke-width: 0.8"/>
      </g>
     </g>
     <g id="text_5">
      <text style="font: 10px 'DejaVu Sans', 'Bitstream Vera Sans', 'Computer Modern Sans Serif', 'Lucida Grande', 'Verdana', 'Geneva', 'Lucid', 'Arial', 'Helvetica', 'Avant Garde', sans-serif; text-anchor: end" x="23.103125" y="32.82461" transform="rotate(-0 23.103125 32.82461)">2.0</text>
     </g>
    </g>
   </g>
   <g id="line2d_12">
    <path d="M 46.335852 134.208 
L 111.006778 134.208 
L 111.331757 60.580174 
L 124.005959 60.580174 
L 124.330938 134.208 
L 370.990398 134.208 
L 370.990398 134.208 
" clip-path="url(#pbf28f9cb0f)" style="fill: none; stroke: #ff4500; stroke-width: 1.5; stroke-linecap: square"/>
   </g>
   <g id="line2d_13">
    <path d="M 46.335852 134.208 
L 111.006778 134.208 
L 111.331757 60.580174 
L 240.998588 60.580174 
L 241.323567 134.208 
L 370.990398 134.208 
L 370.990398 134.208 
" clip-path="url(#pbf28f9cb0f)" style="fill: none; stroke-dasharray: 5.55,2.4; stroke-dashoffset: 0; stroke: #c71585; stroke-width: 1.5"/>
   </g>
   <g id="line2d_14">
    <path d="M 46.335852 134.208 
L 111.006778 134.208 
L 111.331757 13.248 
L 143.50473 13.248 
L 143.82971 134.208 
L 176.002683 134.208 
L 176.327662 13.248 
L 208.500635 13.248 
L 208.825615 134.208 
L 240.998588 134.208 
L 241.323567 13.248 
L 273.49654 13.248 
L 273.82152 134.208 
L 370.990398 134.208 
L 370.990398 134.208 
" clip-path="url(#pbf28f9cb0f)" style="fill: none; stroke-dasharray: 9.6,2.4,1.5,2.4; stroke-dashoffset: 0; stroke: #4682b4; stroke-width: 1.5"/>
   </g>
   <g id="line2d_15">
    <path d="M 46.335852 134.208 
L 111.331757 134.183808 
L 143.82971 13.248 
L 176.327662 134.183808 
L 208.825615 13.248 
L 241.323567 134.183808 
L 273.82152 13.248 
L 306.319472 134.208 
L 370.990398 134.208 
L 370.990398 134.208 
" clip-path="url(#pbf28f9cb0f)" style="fill: none; stroke-dasharray: 2.5,4.125; stroke-dashoffset: 0; stroke: #6b8e23; stroke-width: 2.5"/>
   </g>
   <g id="patch_3">
    <path d="M 30.103125 140.256 
L 30.103125 7.2 
" style="fill: none; stroke: #000000; stroke-width: 0.8; stroke-linejoin: miter; stroke-linecap: square"/>
   </g>
   <g id="patch_4">
    <path d="M 387.223125 140.256 
L 387.223125 7.2 
" style="fill: none; stroke: #000000; stroke-width: 0.8; stroke-linejoin: miter; stroke-linecap: square"/>
   </g>
   <g id="patch_5">
    <path d="M 30.103125 140.256 
L 387.223125 140.256 
" style="fill: none; stroke: #000000; stroke-width: 0.8; stroke-linejoin: miter; stroke-linecap: square"/>
   </g>
   <g id="patch_6">
    <path d="M 30.103125 7.2 
L 387.223125 7.2 
" style="fill: none; stroke: #000000; stroke-width: 0.8; stroke-linejoin: miter; stroke-linecap: square"/>
   </g>
   <g id="legend_1">
    <g id="patch_7">
     <path d="M 316.059062 73.9125 
L 380.223125 73.9125 
Q 382.223125 73.9125 382.223125 71.9125 
L 382.223125 14.2 
Q 382.223125 12.2 380.223125 12.2 
L 316.059062 12.2 
Q 314.059062 12.2 314.059062 14.2 
L 314.059062 71.9125 
Q 314.059062 73.9125 316.059062 73.9125 
z
" style="fill: #ffffff; opacity: 0.8; stroke: #cccccc; stroke-linejoin: miter"/>
    </g>
    <g id="line2d_16">
     <path d="M 318.059062 20.298437 
L 328.059062 20.298437 
L 338.059062 20.298437 
" style="fill: none; stroke: #ff4500; stroke-width: 1.5; stroke-linecap: square"/>
    </g>
    <g id="text_6">
     <text style="font: 10px 'DejaVu Sans', 'Bitstream Vera Sans', 'Computer Modern Sans Serif', 'Lucida Grande', 'Verdana', 'Geneva', 'Lucid', 'Arial', 'Helvetica', 'Avant Garde', sans-serif; text-anchor: start" x="346.059062" y="23.798437" transform="rotate(-0 346.059062 23.798437)">PLML2</text>
    </g>
    <g id="line2d_17">
     <path d="M 318.059062 34.976562 
L 328.059062 34.976562 
L 338.059062 34.976562 
" style="fill: none; stroke-dasharray: 5.55,2.4; stroke-dashoffset: 0; stroke: #c71585; stroke-width: 1.5"/>
    </g>
    <g id="text_7">
     <text style="font: 10px 'DejaVu Sans', 'Bitstream Vera Sans', 'Computer Modern Sans Serif', 'Lucida Grande', 'Verdana', 'Geneva', 'Lucid', 'Arial', 'Helvetica', 'Avant Garde', sans-serif; text-anchor: start" x="346.059062" y="38.476562" transform="rotate(-0 346.059062 38.476562)">PLMR</text>
    </g>
    <g id="line2d_18">
     <path d="M 318.059062 49.654687 
L 328.059062 49.654687 
L 338.059062 49.654687 
" style="fill: none; stroke-dasharray: 9.6,2.4,1.5,2.4; stroke-dashoffset: 0; stroke: #4682b4; stroke-width: 1.5"/>
    </g>
    <g id="text_8">
     <text style="font: 10px 'DejaVu Sans', 'Bitstream Vera Sans', 'Computer Modern Sans Serif', 'Lucida Grande', 'Verdana', 'Geneva', 'Lucid', 'Arial', 'Helvetica', 'Avant Garde', sans-serif; text-anchor: start" x="346.059062" y="53.154687" transform="rotate(-0 346.059062 53.154687)">AVBL</text>
    </g>
    <g id="line2d_19">
     <path d="M 318.059062 64.332812 
L 328.059062 64.332812 
L 338.059062 64.332812 
" style="fill: none; stroke-dasharray: 2.5,4.125; stroke-dashoffset: 0; stroke: #6b8e23; stroke-width: 2.5"/>
    </g>
    <g id="text_9">
     <text style="font: 10px 'DejaVu Sans', 'Bitstream Vera Sans', 'Computer Modern Sans Serif', 'Lucida Grande', 'Verdana', 'Geneva', 'Lucid', 'Arial', 'Helvetica', 'Avant Garde', sans-serif; text-anchor: start" x="346.059062" y="67.832812" transform="rotate(-0 346.059062 67.832812)">AVBR</text>
    </g>
   </g>
  </g>
  <g id="axes_2">
   <g id="patch_8">
    <path d="M 30.103125 273.312 
L 387.223125 273.312 
L 387.223125 140.256 
L 30.103125 140.256 
z
" style="fill: #ffffff"/>
   </g>
   <g id="matplotlib.axis_3">
    <g id="xtick_7">
     <g id="line2d_20">
      <g>
       <use xlink:href="#m5c6ea2d197" x="46.335852" y="273.312" style="stroke: #000000; stroke-width: 0.8"/>
      </g>
     </g>
     <g id="text_10">
      <text style="font: 10px 'DejaVu Sans', 'Bitstream Vera Sans', 'Computer Modern Sans Serif', 'Lucida Grande', 'Verdana', 'Geneva', 'Lucid', 'Arial', 'Helvetica', 'Avant Garde', sans-serif; text-anchor: middle" x="46.335852" y="287.910437" transform="rotate(-0 46.335852 287.910437)">0</text>
     </g>
    </g>
    <g id="xtick_8">
     <g id="line2d_21">
      <g>
       <use xlink:href="#m5c6ea2d197" x="111.331757" y="273.312" style="stroke: #000000; stroke-width: 0.8"/>
      </g>
     </g>
     <g id="text_11">
      <text style="font: 10px 'DejaVu Sans', 'Bitstream Vera Sans', 'Computer Modern Sans Serif', 'Lucida Grande', 'Verdana', 'Geneva', 'Lucid', 'Arial', 'Helvetica', 'Avant Garde', sans-serif; text-anchor: middle" x="111.331757" y="287.910437" transform="rotate(-0 111.331757 287.910437)">100</text>
     </g>
    </g>
    <g id="xtick_9">
     <g id="line2d_22">
      <g>
       <use xlink:href="#m5c6ea2d197" x="176.327662" y="273.312" style="stroke: #000000; stroke-width: 0.8"/>
      </g>
     </g>
     <g id="text_12">
      <text style="font: 10px 'DejaVu Sans', 'Bitstream Vera Sans', 'Computer Modern Sans Serif', 'Lucida Grande', 'Verdana', 'Geneva', 'Lucid', 'Arial', 'Helvetica', 'Avant Garde', sans-serif; text-anchor: middle" x="176.327662" y="287.910437" transform="rotate(-0 176.327662 287.910437)">200</text>
     </g>
    </g>
    <g id="xtick_10">
     <g id="line2d_23">
      <g>
       <use xlink:href="#m5c6ea2d197" x="241.323567" y="273.312" style="stroke: #000000; stroke-width: 0.8"/>
      </g>
     </g>
     <g id="text_13">
      <text style="font: 10px 'DejaVu Sans', 'Bitstream Vera Sans', 'Computer Modern Sans Serif', 'Lucida Grande', 'Verdana', 'Geneva', 'Lucid', 'Arial', 'Helvetica', 'Avant Garde', sans-serif; text-anchor: middle" x="241.323567" y="287.910437" transform="rotate(-0 241.323567 287.910437)">300</text>
     </g>
    </g>
    <g id="xtick_11">
     <g id="line2d_24">
      <g>
       <use xlink:href="#m5c6ea2d197" x="306.319472" y="273.312" style="stroke: #000000; stroke-width: 0.8"/>
      </g>
     </g>
     <g id="text_14">
      <text style="font: 10px 'DejaVu Sans', 'Bitstream Vera Sans', 'Computer Modern Sans Serif', 'Lucida Grande', 'Verdana', 'Geneva', 'Lucid', 'Arial', 'Helvetica', 'Avant Garde', sans-serif; text-anchor: middle" x="306.319472" y="287.910437" transform="rotate(-0 306.319472 287.910437)">400</text>
     </g>
    </g>
    <g id="xtick_12">
     <g id="line2d_25">
      <g>
       <use xlink:href="#m5c6ea2d197" x="371.315377" y="273.312" style="stroke: #000000; stroke-width: 0.8"/>
      </g>
     </g>
     <g id="text_15">
      <text style="font: 10px 'DejaVu Sans', 'Bitstream Vera Sans', 'Computer Modern Sans Serif', 'Lucida Grande', 'Verdana', 'Geneva', 'Lucid', 'Arial', 'Helvetica', 'Avant Garde', sans-serif; text-anchor: middle" x="371.315377" y="287.910437" transform="rotate(-0 371.315377 287.910437)">500</text>
     </g>
    </g>
   </g>
   <g id="matplotlib.axis_4">
    <g id="ytick_6">
     <g id="line2d_26">
      <g>
       <use xlink:href="#md6595103f1" x="30.103125" y="256.676536" style="stroke: #000000; stroke-width: 0.8"/>
      </g>
     </g>
     <g id="text_16">
      <text style="font: 10px 'DejaVu Sans', 'Bitstream Vera Sans', 'Computer Modern Sans Serif', 'Lucida Grande', 'Verdana', 'Geneva', 'Lucid', 'Arial', 'Helvetica', 'Avant Garde', sans-serif; text-anchor: end" x="23.103125" y="260.475754" transform="rotate(-0 23.103125 260.475754)">0.0</text>
     </g>
    </g>
    <g id="ytick_7">
     <g id="line2d_27">
      <g>
       <use xlink:href="#md6595103f1" x="30.103125" y="230.862429" style="stroke: #000000; stroke-width: 0.8"/>
      </g>
     </g>
     <g id="text_17">
      <text style="font: 10px 'DejaVu Sans', 'Bitstream Vera Sans', 'Computer Modern Sans Serif', 'Lucida Grande', 'Verdana', 'Geneva', 'Lucid', 'Arial', 'Helvetica', 'Avant Garde', sans-serif; text-anchor: end" x="23.103125" y="234.661648" transform="rotate(-0 23.103125 234.661648)">0.2</text>
     </g>
    </g>
    <g id="ytick_8">
     <g id="line2d_28">
      <g>
       <use xlink:href="#md6595103f1" x="30.103125" y="205.048322" style="stroke: #000000; stroke-width: 0.8"/>
      </g>
     </g>
     <g id="text_18">
      <text style="font: 10px 'DejaVu Sans', 'Bitstream Vera Sans', 'Computer Modern Sans Serif', 'Lucida Grande', 'Verdana', 'Geneva', 'Lucid', 'Arial', 'Helvetica', 'Avant Garde', sans-serif; text-anchor: end" x="23.103125" y="208.847541" transform="rotate(-0 23.103125 208.847541)">0.4</text>
     </g>
    </g>
    <g id="ytick_9">
     <g id="line2d_29">
      <g>
       <use xlink:href="#md6595103f1" x="30.103125" y="179.234215" style="stroke: #000000; stroke-width: 0.8"/>
      </g>
     </g>
     <g id="text_19">
      <text style="font: 10px 'DejaVu Sans', 'Bitstream Vera Sans', 'Computer Modern Sans Serif', 'Lucida Grande', 'Verdana', 'Geneva', 'Lucid', 'Arial', 'Helvetica', 'Avant Garde', sans-serif; text-anchor: end" x="23.103125" y="183.033434" transform="rotate(-0 23.103125 183.033434)">0.6</text>
     </g>
    </g>
    <g id="ytick_10">
     <g id="line2d_30">
      <g>
       <use xlink:href="#md6595103f1" x="30.103125" y="153.420108" style="stroke: #000000; stroke-width: 0.8"/>
      </g>
     </g>
     <g id="text_20">
      <text style="font: 10px 'DejaVu Sans', 'Bitstream Vera Sans', 'Computer Modern Sans Serif', 'Lucida Grande', 'Verdana', 'Geneva', 'Lucid', 'Arial', 'Helvetica', 'Avant Garde', sans-serif; text-anchor: end" x="23.103125" y="157.219327" transform="rotate(-0 23.103125 157.219327)">0.8</text>
     </g>
    </g>
   </g>
   <g id="line2d_31">
    <path d="M 46.335852 265.06612 
L 112.956655 264.968722 
L 115.881471 264.560359 
L 118.806286 263.944572 
L 122.056082 263.039278 
L 125.305877 261.913913 
L 128.880652 260.452042 
L 132.780406 258.621911 
L 137.00514 256.395533 
L 141.554853 253.755597 
L 147.079505 250.255793 
L 152.929136 246.296619 
L 160.403666 240.914016 
L 170.153051 233.547586 
L 176.327662 228.775152 
L 177.302601 232.992712 
L 177.95256 234.137645 
L 178.927498 235.160491 
L 183.802191 239.612559 
L 188.026925 243.218235 
L 191.6017 245.997822 
L 195.176475 248.499464 
L 198.751249 250.721383 
L 202.326024 252.675994 
L 205.900799 254.383382 
L 209.800553 255.991702 
L 213.700308 257.365391 
L 217.925041 258.624041 
L 222.474755 259.752182 
L 227.674427 260.801634 
L 233.199079 261.689256 
L 239.69867 262.497768 
L 247.173199 263.188477 
L 255.947646 263.763272 
L 266.67197 264.229804 
L 280.32111 264.587993 
L 299.169923 264.843407 
L 328.743059 264.997945 
L 370.990398 265.053283 
L 370.990398 265.053283 
" clip-path="url(#pf0547a20d5)" style="fill: none; stroke: #ff4500; stroke-linecap: square"/>
   </g>
   <g id="line2d_32">
    <path d="M 46.335852 262.504188 
L 46.660832 262.070646 
L 47.310791 261.688695 
L 48.285729 261.540616 
L 51.535525 261.506845 
L 111.006778 261.50671 
L 111.331757 265.66355 
L 111.656737 266.985781 
L 111.981716 267.264 
L 112.306696 266.986512 
L 112.956655 265.577202 
L 113.931593 262.439933 
L 116.856409 252.53316 
L 118.481307 248.113853 
L 120.106204 244.356477 
L 121.406123 241.799464 
L 123.03102 239.124031 
L 124.005959 237.723644 
L 124.330938 215.632426 
L 124.655918 215.933377 
L 124.980897 216.583791 
L 125.305877 217.60198 
L 126.605795 224.579434 
L 127.580734 229.394768 
L 128.230693 231.785407 
L 128.880652 233.544815 
L 129.530611 234.782959 
L 130.18057 235.593816 
L 130.830529 236.07898 
L 131.480488 236.317672 
L 132.130447 236.36981 
L 133.105385 236.193266 
L 134.405304 235.653527 
L 136.030201 234.70564 
L 138.630037 232.954755 
L 142.204812 230.251933 
L 143.50473 229.225101 
L 143.82971 220.525183 
L 145.779587 230.914256 
L 146.429546 232.911273 
L 147.404485 234.99934 
L 148.379423 236.482085 
L 149.679341 238.021425 
L 151.629218 239.972525 
L 154.879014 242.87919 
L 159.428727 246.629095 
L 165.603338 251.407887 
L 172.427908 256.376479 
L 176.002683 258.898672 
L 176.327662 259.30947 
L 176.977621 255.916596 
L 177.62758 253.350174 
L 178.277539 251.503852 
L 178.927498 250.168238 
L 179.902437 248.766896 
L 180.877376 247.77431 
L 182.177294 246.759084 
L 184.45215 245.319806 
L 195.501454 238.670135 
L 200.051168 235.591554 
L 206.225779 231.022133 
L 208.500635 229.230405 
L 208.825615 220.530131 
L 210.775492 230.91549 
L 211.425451 232.912022 
L 212.40039 234.999701 
L 213.375328 236.482254 
L 214.675246 238.021487 
L 216.625123 239.972533 
L 219.874919 242.879194 
L 224.424632 246.629095 
L 230.599243 251.407887 
L 237.423813 256.376479 
L 240.998588 258.898672 
L 241.648547 252.883566 
L 241.973526 251.394976 
L 242.623485 249.807609 
L 243.273444 248.985869 
L 244.248383 248.272602 
L 245.873281 247.473112 
L 252.697851 244.557085 
L 268.621847 237.775355 
L 273.49654 235.601878 
L 273.82152 233.661099 
L 274.471479 238.466093 
L 275.121438 241.475425 
L 275.771397 243.152069 
L 276.421356 244.129479 
L 277.396295 245.02874 
L 279.021192 246.065966 
L 285.195803 249.506153 
L 305.994493 261.107914 
L 306.644452 261.392237 
L 307.94437 261.497181 
L 316.718817 261.506709 
L 370.990398 261.506709 
L 370.990398 261.506709 
" clip-path="url(#pf0547a20d5)" style="fill: none; stroke-dasharray: 3.7,1.6; stroke-dashoffset: 0; stroke: #ff4500"/>
   </g>
   <g id="line2d_33">
    <path d="M 46.335852 258.339603 
L 46.660832 256.928593 
L 46.985811 256.230467 
L 47.310791 255.869329 
L 47.96075 255.598795 
L 49.260668 255.510578 
L 61.28491 255.504179 
L 132.455426 255.504179 
L 132.780406 220.680045 
L 133.105385 242.899287 
L 133.430365 209.147385 
L 134.080324 176.169675 
L 134.405304 225.164638 
L 134.730283 191.184444 
L 135.380242 164.596261 
L 135.705222 220.44132 
L 136.030201 185.83831 
L 136.68016 160.551669 
L 137.00514 218.812463 
L 137.330119 183.696171 
L 137.980078 158.48661 
L 138.305058 218.007605 
L 138.630037 182.408829 
L 139.279996 156.962237 
L 139.604976 217.431647 
L 139.929955 181.361157 
L 140.579915 155.633868 
L 140.904894 216.933415 
L 141.229874 180.396718 
L 141.879833 154.316198 
L 142.204812 216.447301 
L 142.529792 179.441223 
L 143.179751 152.987272 
L 143.50473 215.953484 
L 143.82971 178.474459 
L 144.479669 151.648808 
L 144.804648 215.461848 
L 145.129628 177.541979 
L 145.779587 150.349965 
L 146.104566 214.976453 
L 146.429546 176.601571 
L 147.079505 149.005471 
L 147.404485 214.476501 
L 147.729464 175.615009 
L 148.379423 147.631001 
L 148.704403 213.968627 
L 149.029382 174.615727 
L 149.679341 146.304 
L 150.004321 213.474933 
L 150.3293 195.318285 
L 150.979259 185.537217 
L 151.304239 225.681006 
L 151.629218 204.028068 
L 152.279177 189.347012 
L 152.604157 227.504085 
L 152.929136 204.825792 
L 153.579096 188.75952 
L 153.904075 227.322555 
L 154.229055 204.596445 
L 154.879014 187.639473 
L 155.203993 226.878116 
L 155.528973 203.587036 
L 156.178932 187.11369 
L 156.503911 226.653719 
L 156.828891 202.810732 
L 157.47885 185.685459 
L 157.803829 226.07929 
L 158.128809 202.246964 
L 158.778768 184.365254 
L 159.103747 225.539729 
L 159.428727 201.156279 
L 160.078686 183.788187 
L 160.403666 225.289661 
L 160.728645 200.352331 
L 161.378604 182.327448 
L 161.703584 224.694765 
L 162.028563 199.798313 
L 162.678522 180.98039 
L 163.003502 224.148959 
L 163.328481 198.690574 
L 163.97844 179.765158 
L 164.30342 223.666562 
L 164.628399 197.633367 
L 165.278358 178.763476 
L 165.603338 223.236935 
L 165.928317 197.237414 
L 166.578277 177.492009 
L 166.903256 222.723699 
L 167.228236 196.144888 
L 167.878195 176.288247 
L 168.203174 222.232577 
L 168.528154 195.078365 
L 169.178113 175.264342 
L 169.503092 221.795968 
L 169.828072 194.079356 
L 170.478031 173.650052 
L 170.80301 221.142162 
L 171.12799 193.452086 
L 171.777949 172.664908 
L 172.102928 220.754674 
L 172.427908 192.472563 
L 173.077867 171.680342 
L 173.402847 220.332817 
L 173.727826 191.483775 
L 174.377785 170.058154 
L 174.702765 219.669694 
L 175.027744 190.837624 
L 175.677703 168.606407 
L 176.002683 219.083596 
L 176.327662 209.562131 
L 176.652642 207.340005 
L 176.977621 206.268977 
L 177.302601 232.781194 
L 177.62758 219.502262 
L 177.95256 214.328546 
L 178.277539 211.40545 
L 178.602519 235.297918 
L 178.927498 221.293375 
L 179.252478 216.148032 
L 179.577458 213.195801 
L 179.902437 236.124126 
L 180.227417 222.51705 
L 180.552396 216.875672 
L 180.877376 214.300993 
L 181.202355 236.609371 
L 181.527335 223.492735 
L 181.852314 218.076489 
L 182.177294 214.99484 
L 182.502273 236.92989 
L 182.827253 223.719163 
L 183.152232 218.858071 
L 183.477212 216.080532 
L 183.802191 237.400298 
L 184.127171 224.676859 
L 184.45215 219.401571 
L 184.77713 217.06162 
L 185.102109 237.826589 
L 185.427089 225.598858 
L 185.752068 220.554572 
L 186.077048 217.718153 
L 186.402028 238.139272 
L 186.727007 226.433063 
L 187.051987 221.656999 
L 187.376966 218.984816 
L 187.701946 238.689226 
L 188.026925 226.819007 
L 188.351905 221.891547 
L 188.676884 219.767375 
L 189.001864 239.0243 
L 189.326843 227.668637 
L 189.651823 222.995672 
L 189.976802 220.389247 
L 190.301782 239.319343 
L 190.626761 228.486689 
L 190.951741 224.076505 
L 191.27672 221.629887 
L 191.6017 239.870178 
L 191.926679 228.863292 
L 192.251659 224.926689 
L 192.576639 222.730125 
L 192.901618 240.356562 
L 193.226598 229.808446 
L 193.551577 225.454484 
L 193.876557 223.045332 
L 194.201536 240.497789 
L 194.526516 230.521807 
L 194.851495 226.46284 
L 195.176475 224.231729 
L 195.501454 241.027015 
L 195.826434 230.873801 
L 196.151413 227.290842 
L 196.476393 225.310395 
L 196.801372 241.507083 
L 197.126352 231.806308 
L 197.451331 227.806995 
L 197.776311 226.232344 
L 198.10129 241.914851 
L 198.42627 232.68109 
L 198.751249 228.901284 
L 199.076229 226.83836 
L 199.401209 242.204456 
L 199.726188 232.874001 
L 200.051168 229.624107 
L 200.376147 227.844063 
L 200.701127 242.652777 
L 201.026106 233.831598 
L 201.351086 230.331898 
L 201.676065 228.621688 
L 202.001045 243.002645 
L 202.326024 234.478774 
L 202.651004 231.113096 
L 202.975983 229.470227 
L 203.300963 243.394653 
L 203.625942 235.151374 
L 203.950922 231.906982 
L 204.275901 230.272184 
L 204.600881 243.756612 
L 204.92586 235.805887 
L 205.25084 232.685698 
L 205.57582 231.117069 
L 205.900799 244.147924 
L 206.225779 236.472136 
L 206.550758 233.468402 
L 206.875738 231.969645 
L 207.200717 244.533583 
L 207.525697 237.136705 
L 207.850676 234.246059 
L 208.175656 232.815084 
L 208.500635 244.922304 
L 208.825615 237.798556 
L 209.150594 235.021162 
L 209.475574 233.651224 
L 209.800553 245.31114 
L 210.125533 238.397791 
L 210.450512 235.760132 
L 210.775492 234.466776 
L 211.100471 245.685221 
L 211.425451 239.04617 
L 211.75043 236.518154 
L 212.07541 235.292326 
L 212.40039 246.067593 
L 212.725369 239.695447 
L 213.050349 237.278391 
L 213.375328 236.116449 
L 213.700308 246.448942 
L 214.025287 240.341902 
L 214.350267 237.977165 
L 214.675246 236.902788 
L 215.000226 246.814553 
L 215.325205 240.975773 
L 215.650185 238.724158 
L 215.975164 237.71268 
L 216.300144 247.191978 
L 216.625123 241.614301 
L 216.950103 239.47102 
L 217.275082 238.511746 
L 217.600062 247.569763 
L 217.925041 242.238997 
L 218.250021 240.214378 
L 218.575001 239.278527 
L 218.89998 247.930214 
L 219.22496 242.856277 
L 219.549939 225.283388 
L 219.874919 215.895553 
L 220.199898 239.107459 
L 220.524878 220.821017 
L 221.174837 206.66316 
L 221.499816 234.889634 
L 221.824796 216.912525 
L 222.474755 204.029388 
L 222.799734 233.706841 
L 223.124714 215.552289 
L 223.774673 202.69088 
L 224.099652 233.11821 
L 224.424632 214.663091 
L 225.074591 201.59021 
L 225.399571 232.654188 
L 225.72455 213.849951 
L 226.374509 200.538368 
L 226.699489 232.215712 
L 227.024468 213.078958 
L 227.674427 199.536209 
L 227.999407 231.797489 
L 228.324386 212.32007 
L 228.974345 198.493251 
L 229.299325 231.364276 
L 229.624304 211.529951 
L 230.274263 197.429792 
L 230.599243 230.92555 
L 230.924222 210.755099 
L 231.574182 196.414913 
L 231.899161 230.503185 
L 232.224141 209.973211 
L 232.8741 195.345737 
L 233.199079 230.060091 
L 233.524059 209.175671 
L 234.174018 194.2557 
L 234.498997 229.610667 
L 234.823977 208.36834 
L 235.473936 193.162567 
L 235.798915 229.156782 
L 236.123895 207.616285 
L 236.773854 192.081094 
L 237.098833 228.711057 
L 237.423813 206.797704 
L 238.073772 190.971098 
L 238.398752 228.253671 
L 238.723731 206.029835 
L 239.37369 189.799506 
L 239.69867 227.780752 
L 240.023649 205.001292 
L 240.673608 188.85759 
L 240.998588 227.37689 
L 241.323567 204.064124 
L 241.973526 187.365782 
L 242.298506 226.764141 
L 242.623485 203.482158 
L 243.273444 186.460543 
L 243.598424 226.404321 
L 243.923403 202.56159 
L 244.573363 185.550128 
L 244.898342 226.020511 
L 245.223322 201.619598 
L 245.873281 184.032831 
L 246.19826 225.395825 
L 246.52324 201.02441 
L 247.173199 183.110003 
L 247.498178 225.0306 
L 247.823158 200.109065 
L 248.473117 182.185922 
L 248.798096 224.63354 
L 249.123076 199.163731 
L 249.773035 180.640755 
L 250.098014 224.00333 
L 250.422994 198.557489 
L 251.072953 179.259538 
L 251.397933 223.450782 
L 251.722912 197.431814 
L 252.372871 178.656886 
L 252.697851 223.190177 
L 253.02283 196.60817 
L 253.672789 177.162815 
L 253.997769 222.577195 
L 254.322748 196.014269 
L 254.972707 175.764638 
L 255.297687 222.012989 
L 255.622666 194.872256 
L 256.272625 174.51253 
L 256.597605 221.511545 
L 256.922584 193.789221 
L 257.572544 173.500399 
L 257.897523 221.073545 
L 258.222503 193.389103 
L 258.872462 172.179712 
L 259.197441 220.547909 
L 259.522421 192.277675 
L 260.17238 170.945485 
L 260.497359 220.04937 
L 260.822339 191.189666 
L 261.472298 169.897471 
L 261.797277 219.599378 
L 262.122257 190.171641 
L 262.447236 177.34034 
L 262.772216 193.394066 
L 263.097195 226.261477 
L 263.422175 214.385094 
L 263.747154 210.414187 
L 264.072134 208.920016 
L 264.397114 234.057037 
L 264.722093 220.40571 
L 265.047073 214.914911 
L 265.372052 211.790102 
L 265.697032 235.494777 
L 266.022011 222.066606 
L 266.346991 216.590026 
L 266.67197 213.470175 
L 266.99695 236.255429 
L 267.321929 222.610132 
L 267.646909 217.579851 
L 267.971888 214.68802 
L 268.296868 236.785392 
L 268.621847 223.618002 
L 268.946827 218.153755 
L 269.271806 215.04302 
L 269.596786 236.952972 
L 269.921765 224.363172 
L 270.246745 219.210037 
L 270.571725 216.294347 
L 270.896704 237.500325 
L 271.221684 224.746418 
L 271.546663 220.082304 
L 271.871643 217.434021 
L 272.196622 238.000668 
L 272.521602 225.719132 
L 272.846581 220.628026 
L 273.171561 218.405582 
L 273.49654 238.42146 
L 273.82152 226.632192 
L 274.146499 221.777569 
L 274.471479 219.059573 
L 274.796458 238.72547 
L 275.121438 226.844056 
L 275.446417 222.537778 
L 275.771397 220.114423 
L 276.096376 239.188712 
L 276.421356 227.780455 
L 276.746335 223.063368 
L 277.071315 221.064837 
L 277.396295 239.604168 
L 277.721274 228.680802 
L 278.046254 224.193418 
L 278.371233 221.700519 
L 278.696213 239.903211 
L 279.021192 229.497724 
L 279.346172 225.269793 
L 279.671151 222.933873 
L 279.996131 240.444579 
L 280.32111 229.874003 
L 280.64609 225.494104 
L 280.971069 223.695909 
L 281.296049 240.77276 
L 281.621028 230.703021 
L 281.946008 226.572863 
L 282.270987 224.297675 
L 282.595967 241.058496 
L 282.920946 231.507183 
L 283.245926 227.628812 
L 283.570906 225.509228 
L 283.895885 241.601645 
L 284.220865 231.869613 
L 284.545844 228.457931 
L 284.870824 226.579381 
L 285.195803 242.07975 
L 285.520783 232.790547 
L 285.845762 228.966407 
L 286.170742 226.877243 
L 286.495721 242.223192 
L 286.820701 233.489038 
L 287.14568 229.952087 
L 287.47066 228.095737 
L 287.795639 242.777054 
L 288.120619 234.030419 
L 288.445598 230.623301 
L 288.770578 228.899976 
L 289.095557 243.131225 
L 289.420537 234.682664 
L 289.745516 231.40649 
L 290.070496 229.749085 
L 290.395476 243.52064 
L 290.720455 235.354784 
L 291.045435 232.139536 
L 291.370414 230.581104 
L 291.695394 243.896384 
L 292.020373 236.015353 
L 292.345353 232.920524 
L 292.670332 231.428788 
L 292.995312 244.28474 
L 293.320291 236.681023 
L 293.645271 233.700817 
L 293.97025 232.277537 
L 294.29523 244.675277 
L 294.620209 237.345763 
L 294.945189 234.479259 
L 295.270168 233.120315 
L 295.595148 245.062756 
L 295.920127 238.005784 
L 296.245107 235.252614 
L 296.570087 233.896219 
L 296.895066 245.422161 
L 297.220046 238.645402 
L 297.545025 236.011414 
L 297.870005 234.721832 
L 298.194984 245.803724 
L 298.519964 239.295755 
L 298.844943 236.769772 
L 299.169923 235.547044 
L 299.494902 246.186074 
L 299.819882 239.944447 
L 300.144861 237.529054 
L 300.469841 236.369067 
L 300.79482 246.566932 
L 301.1198 240.531934 
L 301.444779 238.253494 
L 301.769759 237.167654 
L 302.094738 246.938494 
L 302.419718 241.168614 
L 302.744697 239.00106 
L 303.069677 237.976702 
L 303.394657 247.316076 
L 303.719636 241.806469 
L 304.044616 239.746611 
L 304.369595 238.76315 
L 304.694575 247.68831 
L 305.019554 242.444106 
L 305.344534 240.455576 
L 305.669513 239.539521 
L 305.994493 248.052479 
L 306.319472 236.473741 
L 306.644452 231.060072 
L 306.969431 227.68961 
L 307.294411 242.70534 
L 307.61939 233.002182 
L 307.94437 228.543362 
L 308.269349 225.697882 
L 308.594329 241.674729 
L 308.919308 231.936283 
L 309.244288 227.504455 
L 309.569268 224.716162 
L 309.894247 241.214322 
L 310.219227 231.234256 
L 310.544206 226.696909 
L 310.869186 223.837681 
L 311.194165 240.8225 
L 311.519145 230.571291 
L 311.844124 225.913758 
L 312.169104 222.972884 
L 312.494083 240.440246 
L 312.819063 229.910152 
L 313.144042 225.129768 
L 313.469022 222.104384 
L 313.794001 240.054588 
L 314.118981 229.296593 
L 314.44396 224.372816 
L 314.76894 221.249889 
L 315.093919 239.679606 
L 315.418899 228.636751 
L 315.743878 223.583306 
L 316.068858 220.371015 
L 316.393838 239.294205 
L 316.718817 227.965785 
L 317.043797 222.78326 
L 317.368776 219.480252 
L 317.693756 238.90538 
L 318.018735 227.28912 
L 318.343715 222.029331 
L 318.668694 218.617178 
L 318.993674 238.527694 
L 319.318653 226.618618 
L 319.643633 221.22412 
L 319.968612 217.716623 
L 320.293592 238.135403 
L 320.618571 225.933414 
L 320.943551 220.405408 
L 321.26853 216.804232 
L 321.59351 237.738509 
L 321.918489 225.243501 
L 322.243469 219.580524 
L 322.568449 215.937495 
L 322.893428 237.362059 
L 323.218408 224.563961 
L 323.543387 218.763004 
L 323.868367 215.019622 
L 324.193346 236.962865 
L 324.518326 223.864759 
L 324.843305 217.926481 
L 325.168285 214.141956 
L 325.493264 236.579506 
L 325.818244 223.392555 
L 326.143223 217.012151 
L 326.468203 213.00152 
L 326.793182 236.08865 
L 327.118162 222.448613 
L 327.768121 212.020123 
L 328.0931 235.672935 
L 328.41808 221.562353 
L 328.743059 215.264861 
L 329.068039 211.264724 
L 329.393019 235.336502 
L 329.717998 221.29028 
L 330.042978 214.530742 
L 330.367957 210.221729 
L 330.692937 234.893894 
L 331.017916 220.3743 
L 331.667875 209.242199 
L 331.992855 234.481195 
L 332.317834 219.479738 
L 332.642814 212.772954 
L 332.967793 208.475387 
L 333.292773 234.137893 
L 333.617752 219.199831 
L 333.942732 212.027377 
L 334.267711 207.407376 
L 334.592691 233.688272 
L 334.91767 218.267229 
L 335.56763 206.410949 
L 335.892609 233.269426 
L 336.217589 217.359083 
L 336.542568 210.235335 
L 336.867548 205.628312 
L 337.192527 232.917572 
L 337.517507 216.510334 
L 337.842486 209.095585 
L 338.167466 204.286326 
L 338.492445 232.347707 
L 338.817425 216.029057 
L 339.467384 203.478488 
L 339.792363 232.009556 
L 340.117343 215.176542 
L 340.442322 207.616176 
L 340.767302 202.69767 
L 341.092281 231.664405 
L 341.417261 214.311739 
L 341.74224 206.46558 
L 342.06722 201.331703 
L 342.3922 231.090243 
L 342.717179 213.823529 
L 343.042159 205.540616 
L 343.367138 200.12022 
L 343.692118 230.578664 
L 344.017097 212.816749 
L 344.342077 204.861868 
L 344.667056 199.643816 
L 344.992036 230.364685 
L 345.317015 212.068679 
L 345.641995 203.768247 
L 345.966974 198.308139 
L 346.291954 229.802523 
L 346.616933 211.57212 
L 347.266892 197.078157 
L 347.591872 229.28905 
L 347.916851 210.552623 
L 348.566811 195.977333 
L 348.89179 228.834928 
L 349.21677 209.585398 
L 349.541749 220.668481 
L 349.866729 223.41137 
L 350.191708 239.374752 
L 350.516688 233.192122 
L 350.841667 231.068684 
L 351.166647 229.891673 
L 351.491626 242.785769 
L 351.816606 235.77788 
L 352.141585 232.527936 
L 352.466565 231.366429 
L 352.791544 243.519885 
L 353.116524 236.816176 
L 353.441503 233.700407 
L 353.766483 231.993751 
L 354.091462 243.839289 
L 354.416442 237.608326 
L 354.741421 234.724035 
L 355.066401 233.15192 
L 355.391381 244.389196 
L 355.71636 237.932148 
L 356.04134 234.90691 
L 356.366319 233.873445 
L 356.691299 244.721502 
L 357.016278 238.726081 
L 357.341258 235.926518 
L 357.666237 234.403168 
L 357.991217 244.989908 
L 358.316196 239.480922 
L 358.641176 236.916731 
L 358.966155 235.533837 
L 359.291135 245.530385 
L 359.616114 239.794495 
L 359.941094 237.695505 
L 360.266073 236.541325 
L 360.591053 246.010745 
L 360.916032 240.665293 
L 361.241012 238.146742 
L 361.565992 236.786342 
L 361.890971 246.137546 
L 362.215951 241.330394 
L 362.54093 239.083016 
L 362.86591 237.873863 
L 363.190889 246.66084 
L 363.515869 241.629862 
L 363.840848 239.844796 
L 364.165828 238.862621 
L 364.490807 247.146028 
L 364.815787 242.50475 
L 365.140766 240.290265 
L 365.465746 239.706423 
L 365.790725 247.549102 
L 366.115705 243.317677 
L 366.440684 241.299562 
L 366.765664 240.228797 
L 367.090643 247.815232 
L 367.415623 243.469376 
L 367.740602 241.971165 
L 368.065582 241.156262 
L 368.390562 248.265454 
L 368.715541 244.296633 
L 369.040521 242.398955 
L 369.3655 241.982406 
L 369.69048 248.660952 
L 370.015459 245.093753 
L 370.340439 243.398864 
L 370.665418 242.502281 
L 370.990398 248.923488 
L 370.990398 248.923488 
" clip-path="url(#pf0547a20d5)" style="fill: none; stroke-dasharray: 0.64,0.16,0.1,0.16; stroke-dashoffset: 0; stroke: #ff4500; stroke-width: 0.1"/>
   </g>
   <g id="patch_9">
    <path d="M 30.103125 273.312 
L 30.103125 140.256 
" style="fill: none; stroke: #000000; stroke-width: 0.8; stroke-linejoin: miter; stroke-linecap: square"/>
   </g>
   <g id="patch_10">
    <path d="M 387.223125 273.312 
L 387.223125 140.256 
" style="fill: none; stroke: #000000; stroke-width: 0.8; stroke-linejoin: miter; stroke-linecap: square"/>
   </g>
   <g id="patch_11">
    <path d="M 30.103125 273.312 
L 387.223125 273.312 
" style="fill: none; stroke: #000000; stroke-width: 0.8; stroke-linejoin: miter; stroke-linecap: square"/>
   </g>
   <g id="patch_12">
    <path d="M 30.103125 140.256 
L 387.223125 140.256 
" style="fill: none; stroke: #000000; stroke-width: 0.8; stroke-linejoin: miter; stroke-linecap: square"/>
   </g>
   <g id="legend_2">
    <g id="patch_13">
     <path d="M 236.224687 192.290375 
L 380.223125 192.290375 
Q 382.223125 192.290375 382.223125 190.290375 
L 382.223125 147.256 
Q 382.223125 145.256 380.223125 145.256 
L 236.224687 145.256 
Q 234.224687 145.256 234.224687 147.256 
L 234.224687 190.290375 
Q 234.224687 192.290375 236.224687 192.290375 
z
" style="fill: #ffffff; opacity: 0.8; stroke: #cccccc; stroke-linejoin: miter"/>
    </g>
    <g id="line2d_34">
     <path d="M 238.224687 153.354437 
L 248.224687 153.354437 
L 258.224687 153.354437 
" style="fill: none; stroke: #ff4500; stroke-linecap: square"/>
    </g>
    <g id="text_21">
     <text style="font: 10px 'DejaVu Sans', 'Bitstream Vera Sans', 'Computer Modern Sans Serif', 'Lucida Grande', 'Verdana', 'Geneva', 'Lucid', 'Arial', 'Helvetica', 'Avant Garde', sans-serif; text-anchor: start" x="266.224687" y="156.854437" transform="rotate(-0 266.224687 156.854437)">Target response DB1</text>
    </g>
    <g id="line2d_35">
     <path d="M 238.224687 168.032562 
L 248.224687 168.032562 
L 258.224687 168.032562 
" style="fill: none; stroke-dasharray: 3.7,1.6; stroke-dashoffset: 0; stroke: #ff4500"/>
    </g>
    <g id="text_22">
     <text style="font: 10px 'DejaVu Sans', 'Bitstream Vera Sans', 'Computer Modern Sans Serif', 'Lucida Grande', 'Verdana', 'Geneva', 'Lucid', 'Arial', 'Helvetica', 'Avant Garde', sans-serif; text-anchor: start" x="266.224687" y="171.532562" transform="rotate(-0 266.224687 171.532562)">Digital prediction DB1</text>
    </g>
    <g id="line2d_36">
     <path d="M 238.224687 182.710687 
L 248.224687 182.710687 
L 258.224687 182.710687 
" style="fill: none; stroke-dasharray: 0.64,0.16,0.1,0.16; stroke-dashoffset: 0; stroke: #ff4500; stroke-width: 0.1"/>
    </g>
    <g id="text_23">
     <text style="font: 10px 'DejaVu Sans', 'Bitstream Vera Sans', 'Computer Modern Sans Serif', 'Lucida Grande', 'Verdana', 'Geneva', 'Lucid', 'Arial', 'Helvetica', 'Avant Garde', sans-serif; text-anchor: start" x="266.224687" y="186.210687" transform="rotate(-0 266.224687 186.210687)">Analog prediction DB1</text>
    </g>
   </g>
  </g>
 </g>
 <defs>
  <clipPath id="pbf28f9cb0f">
   <rect x="30.103125" y="7.2" width="357.12" height="133.056"/>
  </clipPath>
  <clipPath id="pf0547a20d5">
   <rect x="30.103125" y="140.256" width="357.12" height="133.056"/>
  </clipPath>
 </defs>
</svg>
