<?xml version="1.0" encoding="utf-8" standalone="no"?>
<!DOCTYPE svg PUBLIC "-//W3C//DTD SVG 1.1//EN"
  "http://www.w3.org/Graphics/SVG/1.1/DTD/svg11.dtd">
<svg xmlns:xlink="http://www.w3.org/1999/xlink" width="400.785625pt" height="297.190125pt" viewBox="0 0 400.785625 297.190125" xmlns="http://www.w3.org/2000/svg" version="1.1">
 <metadata>
  <rdf:RDF xmlns:dc="http://purl.org/dc/elements/1.1/" xmlns:cc="http://creativecommons.org/ns#" xmlns:rdf="http://www.w3.org/1999/02/22-rdf-syntax-ns#">
   <cc:Work>
    <dc:type rdf:resource="http://purl.org/dc/dcmitype/StillImage"/>
    <dc:date>2023-10-25T12:46:41.310237</dc:date>
    <dc:format>image/svg+xml</dc:format>
    <dc:creator>
     <cc:Agent>
      <dc:title>Matplotlib v3.8.0, https://matplotlib.org/</dc:title>
     </cc:Agent>
    </dc:creator>
   </cc:Work>
  </rdf:RDF>
 </metadata>
 <defs>
  <style type="text/css">*{stroke-linejoin: round; stroke-linecap: butt}</style>
 </defs>
 <g id="figure_1">
  <g id="patch_1">
   <path d="M 0 297.190125 
L 400.785625 297.190125 
L 400.785625 0 
L 0 0 
z
" style="fill: #ffffff"/>
  </g>
  <g id="axes_1">
   <g id="patch_2">
    <path d="M 36.465625 273.312 
L 393.585625 273.312 
L 393.585625 7.2 
L 36.465625 7.2 
z
" style="fill: #ffffff"/>
   </g>
   <g id="matplotlib.axis_1">
    <g id="xtick_1">
     <g id="line2d_1">
      <defs>
       <path id="m05a05acc58" d="M 0 0 
L 0 3.5 
" style="stroke: #000000; stroke-width: 0.8"/>
      </defs>
      <g>
       <use xlink:href="#m05a05acc58" x="52.698352" y="273.312" style="stroke: #000000; stroke-width: 0.8"/>
      </g>
     </g>
     <g id="text_1">
      <text style="font: 10px 'DejaVu Sans', 'Bitstream Vera Sans', 'Computer Modern Sans Serif', 'Lucida Grande', 'Verdana', 'Geneva', 'Lucid', 'Arial', 'Helvetica', 'Avant Garde', sans-serif; text-anchor: middle" x="52.698352" y="287.910437" transform="rotate(-0 52.698352 287.910437)">0</text>
     </g>
    </g>
    <g id="xtick_2">
     <g id="line2d_2">
      <g>
       <use xlink:href="#m05a05acc58" x="117.694257" y="273.312" style="stroke: #000000; stroke-width: 0.8"/>
      </g>
     </g>
     <g id="text_2">
      <text style="font: 10px 'DejaVu Sans', 'Bitstream Vera Sans', 'Computer Modern Sans Serif', 'Lucida Grande', 'Verdana', 'Geneva', 'Lucid', 'Arial', 'Helvetica', 'Avant Garde', sans-serif; text-anchor: middle" x="117.694257" y="287.910437" transform="rotate(-0 117.694257 287.910437)">100</text>
     </g>
    </g>
    <g id="xtick_3">
     <g id="line2d_3">
      <g>
       <use xlink:href="#m05a05acc58" x="182.690162" y="273.312" style="stroke: #000000; stroke-width: 0.8"/>
      </g>
     </g>
     <g id="text_3">
      <text style="font: 10px 'DejaVu Sans', 'Bitstream Vera Sans', 'Computer Modern Sans Serif', 'Lucida Grande', 'Verdana', 'Geneva', 'Lucid', 'Arial', 'Helvetica', 'Avant Garde', sans-serif; text-anchor: middle" x="182.690162" y="287.910437" transform="rotate(-0 182.690162 287.910437)">200</text>
     </g>
    </g>
    <g id="xtick_4">
     <g id="line2d_4">
      <g>
       <use xlink:href="#m05a05acc58" x="247.686067" y="273.312" style="stroke: #000000; stroke-width: 0.8"/>
      </g>
     </g>
     <g id="text_4">
      <text style="font: 10px 'DejaVu Sans', 'Bitstream Vera Sans', 'Computer Modern Sans Serif', 'Lucida Grande', 'Verdana', 'Geneva', 'Lucid', 'Arial', 'Helvetica', 'Avant Garde', sans-serif; text-anchor: middle" x="247.686067" y="287.910437" transform="rotate(-0 247.686067 287.910437)">300</text>
     </g>
    </g>
    <g id="xtick_5">
     <g id="line2d_5">
      <g>
       <use xlink:href="#m05a05acc58" x="312.681972" y="273.312" style="stroke: #000000; stroke-width: 0.8"/>
      </g>
     </g>
     <g id="text_5">
      <text style="font: 10px 'DejaVu Sans', 'Bitstream Vera Sans', 'Computer Modern Sans Serif', 'Lucida Grande', 'Verdana', 'Geneva', 'Lucid', 'Arial', 'Helvetica', 'Avant Garde', sans-serif; text-anchor: middle" x="312.681972" y="287.910437" transform="rotate(-0 312.681972 287.910437)">400</text>
     </g>
    </g>
    <g id="xtick_6">
     <g id="line2d_6">
      <g>
       <use xlink:href="#m05a05acc58" x="377.677877" y="273.312" style="stroke: #000000; stroke-width: 0.8"/>
      </g>
     </g>
     <g id="text_6">
      <text style="font: 10px 'DejaVu Sans', 'Bitstream Vera Sans', 'Computer Modern Sans Serif', 'Lucida Grande', 'Verdana', 'Geneva', 'Lucid', 'Arial', 'Helvetica', 'Avant Garde', sans-serif; text-anchor: middle" x="377.677877" y="287.910437" transform="rotate(-0 377.677877 287.910437)">500</text>
     </g>
    </g>
   </g>
   <g id="matplotlib.axis_2">
    <g id="ytick_1">
     <g id="line2d_7">
      <defs>
       <path id="m857f4ec201" d="M 0 0 
L -3.5 0 
" style="stroke: #000000; stroke-width: 0.8"/>
      </defs>
      <g>
       <use xlink:href="#m857f4ec201" x="36.465625" y="248.133525" style="stroke: #000000; stroke-width: 0.8"/>
      </g>
     </g>
     <g id="text_7">
      <text style="font: 10px 'DejaVu Sans', 'Bitstream Vera Sans', 'Computer Modern Sans Serif', 'Lucida Grande', 'Verdana', 'Geneva', 'Lucid', 'Arial', 'Helvetica', 'Avant Garde', sans-serif; text-anchor: end" x="29.465625" y="251.932744" transform="rotate(-0 29.465625 251.932744)">0.00</text>
     </g>
    </g>
    <g id="ytick_2">
     <g id="line2d_8">
      <g>
       <use xlink:href="#m857f4ec201" x="36.465625" y="212.683999" style="stroke: #000000; stroke-width: 0.8"/>
      </g>
     </g>
     <g id="text_8">
      <text style="font: 10px 'DejaVu Sans', 'Bitstream Vera Sans', 'Computer Modern Sans Serif', 'Lucida Grande', 'Verdana', 'Geneva', 'Lucid', 'Arial', 'Helvetica', 'Avant Garde', sans-serif; text-anchor: end" x="29.465625" y="216.483217" transform="rotate(-0 29.465625 216.483217)">0.25</text>
     </g>
    </g>
    <g id="ytick_3">
     <g id="line2d_9">
      <g>
       <use xlink:href="#m857f4ec201" x="36.465625" y="177.234473" style="stroke: #000000; stroke-width: 0.8"/>
      </g>
     </g>
     <g id="text_9">
      <text style="font: 10px 'DejaVu Sans', 'Bitstream Vera Sans', 'Computer Modern Sans Serif', 'Lucida Grande', 'Verdana', 'Geneva', 'Lucid', 'Arial', 'Helvetica', 'Avant Garde', sans-serif; text-anchor: end" x="29.465625" y="181.033691" transform="rotate(-0 29.465625 181.033691)">0.50</text>
     </g>
    </g>
    <g id="ytick_4">
     <g id="line2d_10">
      <g>
       <use xlink:href="#m857f4ec201" x="36.465625" y="141.784946" style="stroke: #000000; stroke-width: 0.8"/>
      </g>
     </g>
     <g id="text_10">
      <text style="font: 10px 'DejaVu Sans', 'Bitstream Vera Sans', 'Computer Modern Sans Serif', 'Lucida Grande', 'Verdana', 'Geneva', 'Lucid', 'Arial', 'Helvetica', 'Avant Garde', sans-serif; text-anchor: end" x="29.465625" y="145.584165" transform="rotate(-0 29.465625 145.584165)">0.75</text>
     </g>
    </g>
    <g id="ytick_5">
     <g id="line2d_11">
      <g>
       <use xlink:href="#m857f4ec201" x="36.465625" y="106.33542" style="stroke: #000000; stroke-width: 0.8"/>
      </g>
     </g>
     <g id="text_11">
      <text style="font: 10px 'DejaVu Sans', 'Bitstream Vera Sans', 'Computer Modern Sans Serif', 'Lucida Grande', 'Verdana', 'Geneva', 'Lucid', 'Arial', 'Helvetica', 'Avant Garde', sans-serif; text-anchor: end" x="29.465625" y="110.134639" transform="rotate(-0 29.465625 110.134639)">1.00</text>
     </g>
    </g>
    <g id="ytick_6">
     <g id="line2d_12">
      <g>
       <use xlink:href="#m857f4ec201" x="36.465625" y="70.885894" style="stroke: #000000; stroke-width: 0.8"/>
      </g>
     </g>
     <g id="text_12">
      <text style="font: 10px 'DejaVu Sans', 'Bitstream Vera Sans', 'Computer Modern Sans Serif', 'Lucida Grande', 'Verdana', 'Geneva', 'Lucid', 'Arial', 'Helvetica', 'Avant Garde', sans-serif; text-anchor: end" x="29.465625" y="74.685113" transform="rotate(-0 29.465625 74.685113)">1.25</text>
     </g>
    </g>
    <g id="ytick_7">
     <g id="line2d_13">
      <g>
       <use xlink:href="#m857f4ec201" x="36.465625" y="35.436368" style="stroke: #000000; stroke-width: 0.8"/>
      </g>
     </g>
     <g id="text_13">
      <text style="font: 10px 'DejaVu Sans', 'Bitstream Vera Sans', 'Computer Modern Sans Serif', 'Lucida Grande', 'Verdana', 'Geneva', 'Lucid', 'Arial', 'Helvetica', 'Avant Garde', sans-serif; text-anchor: end" x="29.465625" y="39.235587" transform="rotate(-0 29.465625 39.235587)">1.50</text>
     </g>
    </g>
   </g>
   <g id="line2d_14">
    <path d="M 52.698352 255.336012 
L 53.023332 254.542868 
L 53.673291 253.802578 
L 54.32325 253.547956 
L 55.623168 253.430999 
L 61.797779 253.415666 
L 118.019237 253.322361 
L 118.994175 252.775469 
L 122.56895 250.205098 
L 127.118663 247.070615 
L 132.643315 243.487939 
L 138.167967 240.276439 
L 144.017599 237.2022 
L 148.892292 234.861036 
L 152.792046 233.244168 
L 156.6918 231.650213 
L 163.84135 229.166486 
L 170.990899 227.093789 
L 173.915715 226.202887 
L 178.790408 224.488824 
L 179.765347 223.995255 
L 182.365183 223.033235 
L 182.690162 200.377321 
L 183.340121 230.308247 
L 183.665101 238.952339 
L 183.99008 244.470915 
L 184.31506 247.942152 
L 184.640039 250.093018 
L 184.965019 251.41081 
L 185.289998 252.211973 
L 185.939958 252.986805 
L 186.589917 253.264669 
L 187.564855 253.384619 
L 191.13963 253.41558 
L 377.352898 253.415665 
L 377.352898 253.415665 
" clip-path="url(#pe25d7fd473)" style="fill: none; stroke: #ff4500; stroke-linecap: square"/>
   </g>
   <g id="line2d_15">
    <path d="M 52.698352 255.884634 
L 53.348311 254.931977 
L 53.99827 254.607863 
L 54.973209 254.476697 
L 58.223004 254.447122 
L 139.792865 254.401633 
L 140.442824 254.207935 
L 140.767804 254.257105 
L 141.417763 254.014915 
L 141.742742 253.84928 
L 142.067722 253.984993 
L 142.392701 253.894722 
L 143.04266 253.479749 
L 143.36764 253.712442 
L 143.692619 253.629505 
L 144.342578 253.085731 
L 144.667558 253.397591 
L 144.992537 253.344464 
L 145.642496 252.696326 
L 145.967476 253.083917 
L 146.292455 253.073009 
L 146.942415 252.307177 
L 147.267394 252.749179 
L 147.592374 252.794327 
L 148.242333 251.927494 
L 148.567312 252.431597 
L 148.892292 252.529486 
L 149.542251 251.562556 
L 149.86723 252.089045 
L 150.19221 252.213795 
L 150.842169 251.134518 
L 151.167148 251.724103 
L 151.492128 251.944742 
L 152.142087 250.75378 
L 152.467066 251.360138 
L 152.792046 251.671173 
L 153.442005 250.334415 
L 153.766985 250.984854 
L 154.091964 251.382695 
L 154.741923 249.907911 
L 155.391882 251.104013 
L 156.041841 249.48844 
L 156.6918 250.814257 
L 157.341759 249.084281 
L 157.991718 250.540225 
L 158.641677 248.624543 
L 159.291636 250.226179 
L 159.941596 248.186868 
L 160.266575 248.871344 
L 160.591555 249.940616 
L 161.241514 247.760063 
L 161.566493 248.406734 
L 161.891473 249.644925 
L 162.541432 247.319276 
L 162.866411 247.967224 
L 163.191391 249.303551 
L 163.84135 246.888102 
L 164.166329 247.481547 
L 164.491309 249.00326 
L 165.141268 246.40453 
L 165.466247 246.992311 
L 165.791227 248.694923 
L 166.441186 245.969738 
L 166.766166 246.529565 
L 167.091145 248.412852 
L 167.741104 245.462015 
L 168.066084 245.964344 
L 168.391063 248.065688 
L 169.041022 245.003923 
L 169.366002 245.471764 
L 169.690981 247.773533 
L 170.34094 244.518276 
L 170.66592 244.916231 
L 170.990899 247.435401 
L 171.640858 243.993351 
L 171.965838 244.346052 
L 172.290817 247.093982 
L 172.940777 243.51882 
L 173.265756 243.768847 
L 173.590736 246.766512 
L 174.240695 243.011725 
L 174.565674 243.226229 
L 174.890654 246.439037 
L 175.540613 242.566921 
L 175.865592 242.653857 
L 176.190572 246.063566 
L 176.840531 241.996872 
L 177.16551 242.052606 
L 177.49049 245.689308 
L 178.140449 241.495244 
L 178.465428 241.663948 
L 178.790408 245.380922 
L 179.440367 241.098214 
L 179.765347 240.744763 
L 180.090326 245.021246 
L 180.740285 240.321189 
L 181.065265 240.147544 
L 181.390244 244.606467 
L 182.040203 239.873064 
L 182.365183 239.797839 
L 182.690162 244.54622 
L 183.340121 239.287703 
L 183.665101 238.686512 
L 183.99008 243.87784 
L 184.640039 238.63383 
L 184.965019 238.16595 
L 185.289998 243.495105 
L 185.939958 238.191333 
L 186.264937 237.814022 
L 186.589917 243.443658 
L 187.239876 237.595028 
L 187.564855 236.666701 
L 187.889835 242.747041 
L 188.539794 236.992566 
L 188.864773 236.17156 
L 189.189753 242.306123 
L 189.839712 236.498599 
L 190.164691 235.784992 
L 190.489671 242.248379 
L 191.13963 235.902012 
L 191.464609 234.584369 
L 191.789589 241.528163 
L 192.439548 235.267719 
L 192.764528 234.074182 
L 193.089507 241.140019 
L 193.739466 234.728456 
L 194.064446 233.649018 
L 194.389425 241.074094 
L 195.039384 234.129513 
L 195.364364 232.40222 
L 195.689343 240.329243 
L 196.339302 233.466212 
L 196.664282 231.867367 
L 196.989261 239.922451 
L 197.63922 233.351929 
L 197.9642 230.965554 
L 198.289179 239.637315 
L 198.939139 232.164531 
L 199.264118 230.017693 
L 199.589098 239.033073 
L 200.239057 231.55864 
L 200.564036 229.523816 
L 200.889016 238.63843 
L 201.213995 234.382578 
L 201.863954 228.75597 
L 202.188934 238.511234 
L 202.838893 230.838181 
L 203.163872 228.083918 
L 203.488852 238.211649 
L 204.138811 229.734412 
L 204.46379 227.181455 
L 204.78877 236.905827 
L 205.113749 232.093806 
L 205.763709 225.771338 
L 206.088688 236.570344 
L 206.738647 228.044 
L 207.063627 224.972052 
L 207.388606 236.21567 
L 208.038565 227.853955 
L 208.363545 224.783206 
L 208.688524 236.138702 
L 209.663463 223.981074 
L 209.988442 236.111484 
L 210.963381 222.823056 
L 211.28836 234.61502 
L 211.93832 225.167253 
L 212.263299 221.761048 
L 212.588279 234.141063 
L 213.563217 220.757465 
L 213.888197 234.033585 
L 214.538156 224.662036 
L 214.863135 220.30958 
L 215.188115 233.84995 
L 215.838074 224.551943 
L 216.163053 220.206968 
L 216.488033 233.80573 
L 217.137992 223.792737 
L 217.462971 220.74709 
L 217.787951 232.944977 
L 218.43791 223.969023 
L 218.76289 221.60572 
L 219.087869 233.127676 
L 219.737828 224.135736 
L 220.062808 221.900386 
L 220.387787 234.112696 
L 221.037746 226.447277 
L 221.362726 224.438038 
L 221.687705 234.857967 
L 222.337664 226.999152 
L 222.662644 225.19224 
L 222.987623 236.075608 
L 223.637582 229.815751 
L 223.962562 228.368677 
L 224.287541 239.530357 
L 224.612521 236.741173 
L 225.26248 232.550745 
L 225.58746 240.977491 
L 225.912439 238.337203 
L 226.237419 245.928421 
L 226.562398 249.944901 
L 226.887378 252.059632 
L 227.212357 253.192354 
L 227.537337 253.786706 
L 228.187296 254.268178 
L 229.162234 254.42998 
L 232.41203 254.459457 
L 377.352898 254.459521 
L 377.352898 254.459521 
" clip-path="url(#pe25d7fd473)" style="fill: none; stroke-dasharray: 0.74,0.32; stroke-dashoffset: 0; stroke: #ff4500; stroke-width: 0.2"/>
   </g>
   <g id="line2d_16">
    <path d="M 52.698352 253.674159 
L 53.023332 250.943229 
L 53.348311 249.335226 
L 53.673291 248.390177 
L 53.99827 247.835463 
L 54.648229 247.319783 
L 55.298188 247.143197 
L 56.923086 247.058006 
L 71.547165 247.051867 
L 117.694257 247.044573 
L 118.019237 246.67773 
L 118.669196 245.340868 
L 119.969114 241.848864 
L 125.168786 227.495498 
L 129.068541 217.444062 
L 132.643315 208.814073 
L 136.868049 199.262644 
L 140.117844 192.305541 
L 144.017599 184.647873 
L 148.567312 176.204348 
L 153.766985 167.122268 
L 162.866411 151.640524 
L 170.990899 137.996626 
L 173.265756 133.617829 
L 176.190572 128.628124 
L 177.815469 126.059778 
L 179.440367 123.465174 
L 182.040203 120.124619 
L 182.365183 119.847773 
L 182.690162 19.296 
L 183.340121 147.191495 
L 183.665101 185.353601 
L 183.99008 209.593495 
L 184.31506 224.500809 
L 184.640039 233.555381 
L 184.965019 239.008349 
L 185.289998 242.27563 
L 185.614978 244.224185 
L 185.939958 245.381944 
L 186.264937 246.067747 
L 186.914896 246.711841 
L 187.564855 246.935022 
L 188.864773 247.038228 
L 195.689343 247.051866 
L 377.352898 247.051866 
L 377.352898 247.051866 
" clip-path="url(#pe25d7fd473)" style="fill: none; stroke: #c71585; stroke-linecap: square"/>
   </g>
   <g id="line2d_17">
    <path d="M 52.698352 259.837139 
L 53.023332 260.567999 
L 53.348311 260.900345 
L 53.99827 261.126052 
L 55.623168 261.177304 
L 140.117844 261.066861 
L 140.442824 260.981129 
L 140.767804 261.040418 
L 141.742742 260.681454 
L 142.067722 260.860286 
L 143.04266 260.350979 
L 143.36764 260.649332 
L 144.342578 260.017532 
L 144.667558 260.45445 
L 145.642496 259.591433 
L 145.967476 260.203949 
L 146.292455 259.950602 
L 146.942415 259.21968 
L 147.267394 259.999896 
L 147.917353 259.185882 
L 148.242333 258.825321 
L 148.567312 259.79034 
L 149.542251 258.410966 
L 149.86723 259.585199 
L 150.517189 258.376782 
L 150.842169 257.943581 
L 151.167148 259.354515 
L 151.817107 257.966142 
L 152.142087 257.476277 
L 152.467066 259.149225 
L 153.117025 257.540334 
L 153.442005 256.998508 
L 153.766985 258.922017 
L 154.416944 256.983967 
L 154.741923 256.422261 
L 155.066903 258.662256 
L 155.716862 256.494344 
L 156.041841 255.881677 
L 156.366821 258.439437 
L 157.01678 255.998958 
L 157.341759 255.324724 
L 157.666739 258.20802 
L 158.316698 255.466122 
L 158.641677 254.610061 
L 158.966657 257.915376 
L 159.616616 254.904444 
L 159.941596 253.98975 
L 160.266575 257.674612 
L 160.916534 254.313293 
L 161.241514 253.323191 
L 161.566493 257.442914 
L 162.216452 253.722091 
L 162.541432 252.659415 
L 162.866411 257.205875 
L 163.191391 254.64195 
L 163.84135 251.880576 
L 164.166329 256.950505 
L 164.491309 254.083566 
L 165.141268 251.163483 
L 165.466247 256.705975 
L 165.791227 253.541293 
L 166.441186 250.417121 
L 166.766166 256.462404 
L 167.091145 252.945249 
L 167.416125 250.800463 
L 167.741104 249.49509 
L 168.066084 256.18962 
L 168.391063 252.331836 
L 168.716043 250.062224 
L 169.041022 248.678084 
L 169.366002 255.940681 
L 169.690981 251.682603 
L 170.015961 249.24958 
L 170.34094 247.7567 
L 170.66592 255.704662 
L 170.990899 251.044984 
L 171.640858 246.739376 
L 171.965838 255.385964 
L 172.290817 250.341703 
L 172.615797 247.56804 
L 172.940777 245.762728 
L 173.265756 255.140321 
L 173.590736 249.596515 
L 174.240695 244.797648 
L 174.565674 254.897503 
L 174.890654 248.890706 
L 175.540613 243.733355 
L 175.865592 254.652422 
L 176.190572 247.936527 
L 176.840531 242.659443 
L 177.16551 254.414351 
L 177.49049 247.238026 
L 177.815469 244.009545 
L 178.140449 241.934639 
L 178.465428 254.154505 
L 178.790408 246.702662 
L 179.115387 242.450606 
L 179.440367 240.09037 
L 179.765347 253.903067 
L 180.090326 245.300021 
L 180.415306 241.448956 
L 180.740285 239.210492 
L 181.065265 253.633986 
L 181.390244 244.702984 
L 181.715224 240.759001 
L 182.040203 238.469764 
L 182.365183 253.369079 
L 182.690162 243.233588 
L 183.015142 238.859909 
L 183.340121 236.306262 
L 183.665101 253.170984 
L 183.99008 242.512033 
L 184.31506 238.091055 
L 184.640039 235.334905 
L 184.965019 252.86059 
L 185.289998 241.870132 
L 185.614978 237.354147 
L 185.939958 234.529086 
L 186.264937 252.595814 
L 186.589917 240.229622 
L 186.914896 235.222801 
L 187.239876 232.125444 
L 187.564855 252.402417 
L 187.889835 239.463273 
L 188.214814 234.406439 
L 188.539794 231.261075 
L 188.864773 252.142138 
L 189.189753 238.641273 
L 189.514732 233.544188 
L 189.839712 230.398962 
L 190.164691 251.88539 
L 190.489671 236.792769 
L 190.81465 231.165479 
L 191.13963 227.712083 
L 191.464609 251.685415 
L 191.789589 235.963643 
L 192.114568 230.297608 
L 192.439548 226.81654 
L 192.764528 251.449827 
L 193.089507 235.307361 
L 193.414487 229.297228 
L 193.739466 225.826354 
L 194.064446 251.149297 
L 194.389425 233.251422 
L 194.714405 226.648009 
L 195.039384 222.864151 
L 195.364364 250.966086 
L 195.689343 232.368668 
L 196.014323 225.731792 
L 196.339302 221.923034 
L 196.664282 250.741856 
L 196.989261 231.675633 
L 197.63922 218.838656 
L 197.9642 250.4388 
L 198.289179 229.259216 
L 198.614159 221.920516 
L 198.939139 217.468045 
L 199.264118 250.264632 
L 199.589098 228.44191 
L 199.914077 221.014454 
L 200.239057 216.509665 
L 200.564036 250.042781 
L 200.889016 227.719043 
L 201.538975 213.67785 
L 201.863954 249.881156 
L 202.188934 225.472571 
L 202.513913 217.611048 
L 202.838893 213.113689 
L 203.163872 249.951317 
L 203.488852 225.345002 
L 204.138811 210.531518 
L 204.46379 249.270934 
L 204.78877 222.161351 
L 205.438729 205.829555 
L 205.763709 248.799632 
L 206.088688 219.504216 
L 206.413668 210.378641 
L 206.738647 205.153638 
L 207.063627 248.905788 
L 207.388606 219.364933 
L 207.713586 210.330755 
L 208.038565 205.147628 
L 208.363545 248.945269 
L 208.688524 219.370248 
L 209.013504 208.047748 
L 209.338483 202.34065 
L 209.663463 248.995632 
L 209.988442 217.14536 
L 210.638401 199.321615 
L 210.963381 248.378969 
L 211.28836 213.613496 
L 211.61334 202.882569 
L 211.93832 196.781104 
L 212.263299 247.962667 
L 212.588279 212.980898 
L 212.913258 200.041055 
L 213.238238 193.498779 
L 213.563217 248.044835 
L 213.888197 210.488068 
L 214.213176 199.548688 
L 214.538156 193.298189 
L 214.863135 248.153907 
L 215.188115 210.457403 
L 215.513094 199.549223 
L 215.838074 193.331283 
L 216.163053 248.18213 
L 216.488033 210.464896 
L 216.813012 194.669847 
L 217.137992 185.408981 
L 217.462971 245.62339 
L 217.787951 202.963477 
L 218.11293 190.204216 
L 218.43791 183.042511 
L 218.76289 245.161273 
L 219.087869 202.322967 
L 219.412849 189.85498 
L 219.737828 182.865233 
L 220.062808 245.206247 
L 220.387787 203.82479 
L 220.712767 191.897954 
L 221.037746 185.11429 
L 221.362726 244.766564 
L 221.687705 204.063861 
L 222.012685 192.001019 
L 222.337664 185.165345 
L 222.662644 244.697159 
L 222.987623 210.830871 
L 223.312603 201.577153 
L 223.637582 196.236289 
L 223.962562 245.918862 
L 224.287541 220.60087 
L 224.612521 214.4281 
L 224.937501 210.785125 
L 225.26248 249.123255 
L 225.58746 224.521799 
L 225.912439 252.103429 
L 226.237419 256.515249 
L 226.562398 258.799031 
L 226.887378 259.955435 
L 227.212357 260.563289 
L 227.537337 260.885041 
L 228.187296 261.122216 
L 229.487214 261.208412 
L 239.561579 261.216 
L 377.352898 261.216 
L 377.352898 261.216 
" clip-path="url(#pe25d7fd473)" style="fill: none; stroke-dasharray: 0.74,0.32; stroke-dashoffset: 0; stroke: #c71585; stroke-width: 0.2"/>
   </g>
   <g id="line2d_18">
    <path d="M 52.698352 252.980374 
L 53.023332 251.153547 
L 53.348311 250.066619 
L 53.673291 249.421852 
L 54.32325 248.815025 
L 54.973209 248.604143 
L 56.273127 248.50632 
L 63.422677 248.493337 
L 117.694257 248.488715 
L 118.019237 248.256368 
L 118.669196 247.400348 
L 119.969114 245.131209 
L 126.143725 233.959836 
L 131.018418 225.682332 
L 134.593193 219.988206 
L 139.142906 213.133965 
L 142.392701 208.568163 
L 147.267394 202.12466 
L 150.517189 198.15984 
L 157.666739 189.949839 
L 164.491309 182.654719 
L 171.965838 175.213472 
L 174.565674 172.449184 
L 176.190572 170.970249 
L 178.465428 168.773337 
L 179.765347 167.482279 
L 182.365183 165.445401 
L 182.690162 95.522762 
L 183.340121 180.530786 
L 183.665101 206.120586 
L 183.99008 222.507311 
L 184.31506 232.71848 
L 184.640039 238.987546 
L 184.965019 242.795572 
L 185.289998 245.0936 
L 185.614978 246.472295 
L 185.939958 247.295587 
L 186.589917 248.075772 
L 187.239876 248.348881 
L 188.539794 248.476325 
L 194.389425 248.493336 
L 377.352898 248.493337 
L 377.352898 248.493337 
" clip-path="url(#pe25d7fd473)" style="fill: none; stroke: #4682b4; stroke-linecap: square"/>
   </g>
   <g id="line2d_19">
    <path d="M 52.698352 255.458409 
L 53.348311 254.718431 
L 53.99827 254.434632 
L 54.973209 254.309379 
L 58.547984 254.279203 
L 139.792865 254.203536 
L 140.442824 253.915839 
L 140.767804 254.015298 
L 141.417763 253.621632 
L 141.742742 253.383163 
L 142.067722 253.653998 
L 142.717681 253.114257 
L 143.04266 252.831271 
L 143.36764 253.26587 
L 143.692619 253.036034 
L 144.342578 252.237942 
L 144.667558 252.836467 
L 144.992537 252.618918 
L 145.642496 251.653255 
L 145.967476 252.402179 
L 146.292455 252.224976 
L 146.942415 251.039025 
L 147.267394 251.947666 
L 147.592374 251.785502 
L 148.242333 250.452442 
L 148.567312 251.513538 
L 148.892292 251.35414 
L 149.542251 249.865915 
L 149.86723 251.047569 
L 150.19221 250.860767 
L 150.842169 249.19395 
L 151.167148 250.550308 
L 151.492128 250.421256 
L 152.142087 248.570445 
L 152.467066 250.058014 
L 152.792046 249.994772 
L 153.442005 247.901978 
L 153.766985 249.553391 
L 154.091964 249.56012 
L 154.741923 247.201462 
L 155.066903 249.025721 
L 155.391882 249.099839 
L 156.041841 246.496155 
L 156.366821 248.459679 
L 156.6918 248.617718 
L 157.341759 245.82173 
L 157.666739 247.938398 
L 157.991718 248.168323 
L 158.641677 245.034809 
L 158.966657 247.290974 
L 159.291636 247.640625 
L 159.941596 244.29321 
L 160.266575 246.722305 
L 160.591555 247.178065 
L 161.241514 243.535823 
L 161.566493 246.11197 
L 161.891473 246.658745 
L 162.541432 242.773275 
L 162.866411 245.530609 
L 163.191391 246.094322 
L 163.84135 241.957408 
L 164.166329 244.889611 
L 164.491309 245.562313 
L 165.141268 241.126118 
L 165.466247 244.24901 
L 165.791227 245.033577 
L 166.441186 240.346026 
L 166.766166 243.643269 
L 167.091145 244.515869 
L 167.741104 239.394728 
L 168.066084 242.907717 
L 168.391063 243.930087 
L 169.041022 238.53893 
L 169.366002 242.265238 
L 169.690981 243.372689 
L 170.34094 237.610718 
L 170.66592 241.5533 
L 170.990899 242.778007 
L 171.640858 236.644485 
L 171.965838 240.814767 
L 172.290817 242.161222 
L 172.940777 235.722692 
L 173.265756 240.079383 
L 173.590736 241.538286 
L 174.240695 234.76057 
L 174.565674 239.383467 
L 174.890654 240.936959 
L 175.540613 233.81557 
L 175.865592 238.659715 
L 176.190572 240.225967 
L 176.840531 232.72672 
L 177.16551 237.886084 
L 177.49049 239.570653 
L 178.140449 231.904407 
L 178.465428 237.366093 
L 178.790408 239.070196 
L 179.440367 230.641765 
L 179.765347 236.250997 
L 180.090326 238.150247 
L 180.740285 229.407383 
L 181.065265 235.498827 
L 181.390244 237.496053 
L 182.040203 228.646873 
L 182.365183 235.007945 
L 182.690162 236.932217 
L 183.340121 226.991235 
L 183.665101 233.704657 
L 183.99008 235.899904 
L 184.640039 225.945111 
L 184.965019 233.029167 
L 185.289998 235.277969 
L 185.939958 225.143046 
L 186.264937 232.550205 
L 186.589917 234.668914 
L 187.239876 223.412531 
L 187.564855 231.209488 
L 187.889835 233.617108 
L 188.539794 222.384392 
L 188.864773 230.580284 
L 189.189753 232.905778 
L 189.839712 221.502578 
L 190.164691 230.059671 
L 190.489671 232.218613 
L 191.13963 219.634506 
L 191.464609 228.660818 
L 191.789589 231.091825 
L 192.439548 218.598851 
L 192.764528 228.031931 
L 193.089507 230.462662 
L 193.739466 217.589637 
L 194.064446 227.47304 
L 194.389425 229.692288 
L 195.039384 215.602417 
L 195.364364 226.042911 
L 195.689343 228.514939 
L 196.339302 214.487907 
L 196.664282 225.381396 
L 196.989261 227.84957 
L 197.63922 213.118171 
L 197.9642 224.319884 
L 198.289179 226.670633 
L 198.939139 211.15215 
L 199.264118 223.209634 
L 199.589098 225.699496 
L 200.239057 210.102917 
L 200.564036 222.596895 
L 200.889016 225.03893 
L 201.538975 208.982611 
L 201.863954 221.713403 
L 202.188934 224.06611 
L 202.838893 207.718676 
L 203.163872 220.987611 
L 203.488852 223.622845 
L 204.138811 205.859182 
L 204.46379 219.883981 
L 204.78877 221.401792 
L 205.438729 202.74767 
L 205.763709 218.099087 
L 206.088688 219.868535 
L 206.738647 201.251781 
L 207.063627 217.248357 
L 207.388606 219.35974 
L 208.038565 201.02408 
L 208.363545 217.06455 
L 208.688524 219.274604 
L 209.338483 199.92952 
L 209.663463 216.238203 
L 209.988442 218.393896 
L 210.638401 197.48566 
L 210.963381 214.886045 
L 211.28836 215.82035 
L 211.93832 194.546551 
L 212.263299 213.468618 
L 212.588279 214.841323 
L 213.238238 192.979462 
L 213.563217 212.411796 
L 213.888197 213.759328 
L 214.538156 192.304337 
L 214.863135 211.982403 
L 215.188115 213.52381 
L 215.838074 192.229859 
L 216.163053 211.865562 
L 216.488033 213.479123 
L 217.137992 189.338742 
L 217.462971 211.472939 
L 217.787951 210.767743 
L 218.43791 188.155795 
L 218.76289 212.031726 
L 219.087869 210.553026 
L 219.737828 188.200246 
L 220.062808 212.328517 
L 220.387787 213.142194 
L 221.037746 193.331329 
L 221.362726 215.599789 
L 221.687705 214.558082 
L 222.337664 194.133989 
L 222.662644 216.441922 
L 222.987623 218.874685 
L 223.637582 203.266256 
L 223.962562 221.164558 
L 224.287541 224.902582 
L 224.937501 213.840755 
L 225.26248 226.892788 
L 225.58746 229.082013 
L 225.912439 235.432054 
L 226.237419 244.344603 
L 226.562398 249.05853 
L 226.887378 251.520857 
L 227.212357 252.840129 
L 227.537337 253.538952 
L 227.862316 253.90102 
L 228.512275 254.197158 
L 229.812193 254.305738 
L 238.586641 254.315584 
L 377.352898 254.315584 
L 377.352898 254.315584 
" clip-path="url(#pe25d7fd473)" style="fill: none; stroke-dasharray: 0.74,0.32; stroke-dashoffset: 0; stroke: #4682b4; stroke-width: 0.2"/>
   </g>
   <g id="line2d_20">
    <path d="M 52.698352 255.332595 
L 53.023332 254.634322 
L 53.673291 253.990401 
L 54.32325 253.772066 
L 55.623168 253.673083 
L 63.097697 253.660304 
L 117.694257 253.657979 
L 118.344216 253.354653 
L 119.644134 252.345325 
L 127.443643 245.904631 
L 132.968295 241.647039 
L 138.817926 237.494816 
L 144.667558 233.613837 
L 150.19221 230.185182 
L 158.966657 225.138672 
L 168.066084 220.128798 
L 170.990899 218.519364 
L 174.240695 216.60226 
L 178.790408 213.595778 
L 180.090326 212.576658 
L 182.040203 211.18653 
L 182.365183 210.911468 
L 182.690162 198.964133 
L 183.340121 231.287102 
L 183.665101 239.972922 
L 183.99008 245.363832 
L 184.31506 248.66923 
L 184.640039 250.674034 
L 184.965019 251.880743 
L 185.289998 252.603206 
L 185.939958 253.290037 
L 186.589917 253.531589 
L 187.889835 253.644998 
L 194.064446 253.660303 
L 377.352898 253.660304 
L 377.352898 253.660304 
" clip-path="url(#pe25d7fd473)" style="fill: none; stroke: #6b8e23; stroke-linecap: square"/>
   </g>
   <g id="line2d_21">
    <path d="M 52.698352 255.99411 
L 53.348311 255.488902 
L 53.99827 255.302032 
L 55.298188 255.213241 
L 63.747656 255.202341 
L 139.792865 255.159681 
L 141.742742 254.682323 
L 142.067722 254.820021 
L 142.717681 254.530496 
L 143.04266 254.369477 
L 143.36764 254.59138 
L 143.692619 254.496061 
L 144.342578 254.040612 
L 144.667558 254.334174 
L 144.992537 254.258367 
L 145.642496 253.717513 
L 145.967476 254.079098 
L 146.292455 254.036701 
L 146.942415 253.40208 
L 147.267394 253.809901 
L 147.592374 253.811366 
L 148.242333 253.097567 
L 148.567312 253.555807 
L 148.892292 253.596641 
L 149.542251 252.808719 
L 149.86723 253.284136 
L 150.19221 253.348913 
L 150.842169 252.473489 
L 151.167148 252.995552 
L 151.492128 253.140064 
L 152.142087 252.181047 
L 152.467066 252.710102 
L 152.792046 252.930931 
L 153.442005 251.861445 
L 153.766985 252.416203 
L 154.091964 252.718434 
L 154.741923 251.538227 
L 155.391882 252.511185 
L 156.041841 251.228947 
L 156.6918 252.294207 
L 157.341759 250.932071 
L 157.991718 252.095829 
L 158.641677 250.602139 
L 158.966657 251.112441 
L 159.291636 251.874221 
L 159.941596 250.288263 
L 160.266575 250.786741 
L 160.591555 251.677227 
L 161.241514 249.991761 
L 161.566493 250.434197 
L 161.891473 251.473985 
L 162.541432 249.683641 
L 162.866411 250.100966 
L 163.191391 251.239275 
L 163.84135 249.38926 
L 164.166329 249.734822 
L 164.491309 251.042849 
L 165.141268 249.06133 
L 165.466247 249.367512 
L 165.791227 250.838084 
L 166.441186 248.767658 
L 166.766166 249.020454 
L 167.091145 250.66138 
L 167.741104 248.433344 
L 168.066084 248.599006 
L 168.391063 250.433723 
L 169.041022 248.129183 
L 169.366002 248.232259 
L 169.690981 250.258813 
L 170.34094 247.824811 
L 170.66592 247.82163 
L 170.990899 250.044904 
L 171.640858 247.487097 
L 171.965838 247.398621 
L 172.290817 249.830299 
L 172.940777 247.193762 
L 173.265756 246.974414 
L 173.590736 249.638076 
L 174.240695 246.874138 
L 174.565674 246.575938 
L 174.890654 249.439777 
L 175.540613 246.608868 
L 175.865592 246.157489 
L 176.190572 249.224767 
L 176.840531 246.252735 
L 177.16551 245.720214 
L 177.49049 248.989485 
L 178.140449 245.90938 
L 178.465428 245.432506 
L 178.790408 248.77861 
L 179.765347 244.774533 
L 180.090326 248.650881 
L 180.740285 245.246353 
L 181.065265 244.3385 
L 181.390244 248.371151 
L 182.040203 244.944026 
L 182.365183 244.080851 
L 182.690162 248.451124 
L 183.340121 244.702201 
L 183.665101 243.291723 
L 183.99008 248.008546 
L 184.640039 244.27124 
L 184.965019 242.911553 
L 185.289998 247.75442 
L 185.939958 243.977276 
L 186.264937 242.653028 
L 186.589917 247.857275 
L 187.239876 243.754514 
L 187.564855 241.845481 
L 187.889835 247.402361 
L 188.539794 243.356353 
L 188.864773 241.485684 
L 189.189753 247.120743 
L 189.839712 243.034777 
L 190.164691 241.203953 
L 190.489671 247.232681 
L 191.464609 240.362674 
L 191.789589 246.769687 
L 192.764528 239.995933 
L 193.089507 246.519858 
L 194.064446 239.686276 
L 194.389425 246.639095 
L 195.364364 238.819903 
L 195.689343 246.166506 
L 196.664282 238.436604 
L 196.989261 245.907999 
L 197.314241 243.249281 
L 197.63922 241.609137 
L 197.9642 237.80575 
L 198.289179 245.901787 
L 199.264118 237.144274 
L 199.589098 245.521616 
L 200.564036 236.791198 
L 200.889016 245.274768 
L 201.213995 242.460249 
L 201.538975 240.772616 
L 201.863954 236.260236 
L 202.188934 245.377004 
L 202.838893 240.258239 
L 203.163872 235.799691 
L 203.488852 245.185706 
L 204.138811 239.627886 
L 204.46379 235.155942 
L 204.78877 244.415016 
L 205.113749 241.287483 
L 205.438729 239.387348 
L 205.763709 234.175588 
L 206.088688 244.389532 
L 206.738647 238.797686 
L 207.063627 233.626818 
L 207.388606 244.161848 
L 208.038565 238.66967 
L 208.363545 233.493185 
L 208.688524 244.10893 
L 209.338483 239.008607 
L 209.663463 232.955674 
L 209.988442 244.292834 
L 210.638401 238.179866 
L 210.963381 232.146219 
L 211.28836 243.420681 
L 211.93832 237.334057 
L 212.263299 231.403268 
L 212.588279 243.124484 
L 213.238238 237.562357 
L 213.563217 230.725153 
L 213.888197 243.260972 
L 214.538156 237.286025 
L 214.863135 230.418066 
L 215.188115 243.144164 
L 215.838074 237.208743 
L 216.163053 230.348071 
L 216.488033 243.113978 
L 217.137992 236.7508 
L 217.462971 230.817283 
L 217.787951 242.593044 
L 218.43791 237.038122 
L 218.76289 231.487929 
L 219.087869 242.77764 
L 219.737828 237.177928 
L 220.062808 231.705348 
L 220.387787 243.283628 
L 221.037746 238.657629 
L 221.362726 233.659686 
L 221.687705 243.871026 
L 222.337664 239.098141 
L 222.662644 234.238392 
L 222.987623 244.285123 
L 223.637582 240.435767 
L 223.962562 236.505452 
L 224.287541 246.335474 
L 224.612521 244.641586 
L 224.937501 243.540389 
L 225.26248 239.560907 
L 225.58746 247.236717 
L 225.912439 243.68176 
L 226.237419 249.106436 
L 226.562398 251.980734 
L 226.887378 253.494936 
L 227.212357 254.303843 
L 227.537337 254.728359 
L 228.187296 255.073293 
L 229.162234 255.189198 
L 233.386968 255.210325 
L 377.352898 255.210333 
L 377.352898 255.210333 
" clip-path="url(#pe25d7fd473)" style="fill: none; stroke-dasharray: 0.74,0.32; stroke-dashoffset: 0; stroke: #6b8e23; stroke-width: 0.2"/>
   </g>
   <g id="patch_3">
    <path d="M 36.465625 273.312 
L 36.465625 7.2 
" style="fill: none; stroke: #000000; stroke-width: 0.8; stroke-linejoin: miter; stroke-linecap: square"/>
   </g>
   <g id="patch_4">
    <path d="M 393.585625 273.312 
L 393.585625 7.2 
" style="fill: none; stroke: #000000; stroke-width: 0.8; stroke-linejoin: miter; stroke-linecap: square"/>
   </g>
   <g id="patch_5">
    <path d="M 36.465625 273.312 
L 393.585625 273.312 
" style="fill: none; stroke: #000000; stroke-width: 0.8; stroke-linejoin: miter; stroke-linecap: square"/>
   </g>
   <g id="patch_6">
    <path d="M 36.465625 7.2 
L 393.585625 7.2 
" style="fill: none; stroke: #000000; stroke-width: 0.8; stroke-linejoin: miter; stroke-linecap: square"/>
   </g>
   <g id="legend_1">
    <g id="patch_7">
     <path d="M 238.7075 132.625 
L 386.585625 132.625 
Q 388.585625 132.625 388.585625 130.625 
L 388.585625 14.2 
Q 388.585625 12.2 386.585625 12.2 
L 238.7075 12.2 
Q 236.7075 12.2 236.7075 14.2 
L 236.7075 130.625 
Q 236.7075 132.625 238.7075 132.625 
z
" style="fill: #ffffff; opacity: 0.8; stroke: #cccccc; stroke-linejoin: miter"/>
    </g>
    <g id="line2d_22">
     <path d="M 240.7075 20.298437 
L 250.7075 20.298437 
L 260.7075 20.298437 
" style="fill: none; stroke: #ff4500; stroke-linecap: square"/>
    </g>
    <g id="text_14">
     <text style="font: 10px 'DejaVu Sans', 'Bitstream Vera Sans', 'Computer Modern Sans Serif', 'Lucida Grande', 'Verdana', 'Geneva', 'Lucid', 'Arial', 'Helvetica', 'Avant Garde', sans-serif; text-anchor: start" x="268.7075" y="23.798437" transform="rotate(-0 268.7075 23.798437)">Digital prediction DB1</text>
    </g>
    <g id="line2d_23">
     <path d="M 240.7075 34.976562 
L 250.7075 34.976562 
L 260.7075 34.976562 
" style="fill: none; stroke-dasharray: 0.74,0.32; stroke-dashoffset: 0; stroke: #ff4500; stroke-width: 0.2"/>
    </g>
    <g id="text_15">
     <text style="font: 10px 'DejaVu Sans', 'Bitstream Vera Sans', 'Computer Modern Sans Serif', 'Lucida Grande', 'Verdana', 'Geneva', 'Lucid', 'Arial', 'Helvetica', 'Avant Garde', sans-serif; text-anchor: start" x="268.7075" y="38.476562" transform="rotate(-0 268.7075 38.476562)">Analog prediction DB1</text>
    </g>
    <g id="line2d_24">
     <path d="M 240.7075 49.654687 
L 250.7075 49.654687 
L 260.7075 49.654687 
" style="fill: none; stroke: #c71585; stroke-linecap: square"/>
    </g>
    <g id="text_16">
     <text style="font: 10px 'DejaVu Sans', 'Bitstream Vera Sans', 'Computer Modern Sans Serif', 'Lucida Grande', 'Verdana', 'Geneva', 'Lucid', 'Arial', 'Helvetica', 'Avant Garde', sans-serif; text-anchor: start" x="268.7075" y="53.154687" transform="rotate(-0 268.7075 53.154687)">Digital prediction LUAL</text>
    </g>
    <g id="line2d_25">
     <path d="M 240.7075 64.332812 
L 250.7075 64.332812 
L 260.7075 64.332812 
" style="fill: none; stroke-dasharray: 0.74,0.32; stroke-dashoffset: 0; stroke: #c71585; stroke-width: 0.2"/>
    </g>
    <g id="text_17">
     <text style="font: 10px 'DejaVu Sans', 'Bitstream Vera Sans', 'Computer Modern Sans Serif', 'Lucida Grande', 'Verdana', 'Geneva', 'Lucid', 'Arial', 'Helvetica', 'Avant Garde', sans-serif; text-anchor: start" x="268.7075" y="67.832812" transform="rotate(-0 268.7075 67.832812)">Analog prediction LUAL</text>
    </g>
    <g id="line2d_26">
     <path d="M 240.7075 79.010937 
L 250.7075 79.010937 
L 260.7075 79.010937 
" style="fill: none; stroke: #4682b4; stroke-linecap: square"/>
    </g>
    <g id="text_18">
     <text style="font: 10px 'DejaVu Sans', 'Bitstream Vera Sans', 'Computer Modern Sans Serif', 'Lucida Grande', 'Verdana', 'Geneva', 'Lucid', 'Arial', 'Helvetica', 'Avant Garde', sans-serif; text-anchor: start" x="268.7075" y="82.510937" transform="rotate(-0 268.7075 82.510937)">Digital prediction PVR</text>
    </g>
    <g id="line2d_27">
     <path d="M 240.7075 93.689062 
L 250.7075 93.689062 
L 260.7075 93.689062 
" style="fill: none; stroke-dasharray: 0.74,0.32; stroke-dashoffset: 0; stroke: #4682b4; stroke-width: 0.2"/>
    </g>
    <g id="text_19">
     <text style="font: 10px 'DejaVu Sans', 'Bitstream Vera Sans', 'Computer Modern Sans Serif', 'Lucida Grande', 'Verdana', 'Geneva', 'Lucid', 'Arial', 'Helvetica', 'Avant Garde', sans-serif; text-anchor: start" x="268.7075" y="97.189062" transform="rotate(-0 268.7075 97.189062)">Analog prediction PVR</text>
    </g>
    <g id="line2d_28">
     <path d="M 240.7075 108.367187 
L 250.7075 108.367187 
L 260.7075 108.367187 
" style="fill: none; stroke: #6b8e23; stroke-linecap: square"/>
    </g>
    <g id="text_20">
     <text style="font: 10px 'DejaVu Sans', 'Bitstream Vera Sans', 'Computer Modern Sans Serif', 'Lucida Grande', 'Verdana', 'Geneva', 'Lucid', 'Arial', 'Helvetica', 'Avant Garde', sans-serif; text-anchor: start" x="268.7075" y="111.867187" transform="rotate(-0 268.7075 111.867187)">Digital prediction VB1</text>
    </g>
    <g id="line2d_29">
     <path d="M 240.7075 123.045312 
L 250.7075 123.045312 
L 260.7075 123.045312 
" style="fill: none; stroke-dasharray: 0.74,0.32; stroke-dashoffset: 0; stroke: #6b8e23; stroke-width: 0.2"/>
    </g>
    <g id="text_21">
     <text style="font: 10px 'DejaVu Sans', 'Bitstream Vera Sans', 'Computer Modern Sans Serif', 'Lucida Grande', 'Verdana', 'Geneva', 'Lucid', 'Arial', 'Helvetica', 'Avant Garde', sans-serif; text-anchor: start" x="268.7075" y="126.545312" transform="rotate(-0 268.7075 126.545312)">Analog prediction VB1</text>
    </g>
   </g>
  </g>
 </g>
 <defs>
  <clipPath id="pe25d7fd473">
   <rect x="36.465625" y="7.2" width="357.12" height="266.112"/>
  </clipPath>
 </defs>
</svg>
