<?xml version="1.0" encoding="utf-8" standalone="no"?>
<!DOCTYPE svg PUBLIC "-//W3C//DTD SVG 1.1//EN"
  "http://www.w3.org/Graphics/SVG/1.1/DTD/svg11.dtd">
<svg xmlns:xlink="http://www.w3.org/1999/xlink" width="394.423125pt" height="297.190125pt" viewBox="0 0 394.423125 297.190125" xmlns="http://www.w3.org/2000/svg" version="1.1">
 <metadata>
  <rdf:RDF xmlns:dc="http://purl.org/dc/elements/1.1/" xmlns:cc="http://creativecommons.org/ns#" xmlns:rdf="http://www.w3.org/1999/02/22-rdf-syntax-ns#">
   <cc:Work>
    <dc:type rdf:resource="http://purl.org/dc/dcmitype/StillImage"/>
    <dc:date>2023-10-23T15:57:16.328605</dc:date>
    <dc:format>image/svg+xml</dc:format>
    <dc:creator>
     <cc:Agent>
      <dc:title>Matplotlib v3.8.0, https://matplotlib.org/</dc:title>
     </cc:Agent>
    </dc:creator>
   </cc:Work>
  </rdf:RDF>
 </metadata>
 <defs>
  <style type="text/css">*{stroke-linejoin: round; stroke-linecap: butt}</style>
 </defs>
 <g id="figure_1">
  <g id="patch_1">
   <path d="M 0 297.190125 
L 394.423125 297.190125 
L 394.423125 0 
L 0 0 
z
" style="fill: #ffffff"/>
  </g>
  <g id="axes_1">
   <g id="patch_2">
    <path d="M 30.103125 140.256 
L 387.223125 140.256 
L 387.223125 7.2 
L 30.103125 7.2 
z
" style="fill: #ffffff"/>
   </g>
   <g id="matplotlib.axis_1">
    <g id="xtick_1">
     <g id="line2d_1">
      <defs>
       <path id="m127e3dfbfe" d="M 0 0 
L 0 3.5 
" style="stroke: #000000; stroke-width: 0.8"/>
      </defs>
      <g>
       <use xlink:href="#m127e3dfbfe" x="46.335852" y="140.256" style="stroke: #000000; stroke-width: 0.8"/>
      </g>
     </g>
    </g>
    <g id="xtick_2">
     <g id="line2d_2">
      <g>
       <use xlink:href="#m127e3dfbfe" x="111.331757" y="140.256" style="stroke: #000000; stroke-width: 0.8"/>
      </g>
     </g>
    </g>
    <g id="xtick_3">
     <g id="line2d_3">
      <g>
       <use xlink:href="#m127e3dfbfe" x="176.327662" y="140.256" style="stroke: #000000; stroke-width: 0.8"/>
      </g>
     </g>
    </g>
    <g id="xtick_4">
     <g id="line2d_4">
      <g>
       <use xlink:href="#m127e3dfbfe" x="241.323567" y="140.256" style="stroke: #000000; stroke-width: 0.8"/>
      </g>
     </g>
    </g>
    <g id="xtick_5">
     <g id="line2d_5">
      <g>
       <use xlink:href="#m127e3dfbfe" x="306.319472" y="140.256" style="stroke: #000000; stroke-width: 0.8"/>
      </g>
     </g>
    </g>
    <g id="xtick_6">
     <g id="line2d_6">
      <g>
       <use xlink:href="#m127e3dfbfe" x="371.315377" y="140.256" style="stroke: #000000; stroke-width: 0.8"/>
      </g>
     </g>
    </g>
   </g>
   <g id="matplotlib.axis_2">
    <g id="ytick_1">
     <g id="line2d_7">
      <defs>
       <path id="m3ddfae7328" d="M 0 0 
L -3.5 0 
" style="stroke: #000000; stroke-width: 0.8"/>
      </defs>
      <g>
       <use xlink:href="#m3ddfae7328" x="30.103125" y="134.208" style="stroke: #000000; stroke-width: 0.8"/>
      </g>
     </g>
     <g id="text_1">
      <text style="font: 10px 'DejaVu Sans', 'Bitstream Vera Sans', 'Computer Modern Sans Serif', 'Lucida Grande', 'Verdana', 'Geneva', 'Lucid', 'Arial', 'Helvetica', 'Avant Garde', sans-serif; text-anchor: end" x="23.103125" y="138.007219" transform="rotate(-0 23.103125 138.007219)">0.0</text>
     </g>
    </g>
    <g id="ytick_2">
     <g id="line2d_8">
      <g>
       <use xlink:href="#m3ddfae7328" x="30.103125" y="107.782865" style="stroke: #000000; stroke-width: 0.8"/>
      </g>
     </g>
     <g id="text_2">
      <text style="font: 10px 'DejaVu Sans', 'Bitstream Vera Sans', 'Computer Modern Sans Serif', 'Lucida Grande', 'Verdana', 'Geneva', 'Lucid', 'Arial', 'Helvetica', 'Avant Garde', sans-serif; text-anchor: end" x="23.103125" y="111.582083" transform="rotate(-0 23.103125 111.582083)">0.5</text>
     </g>
    </g>
    <g id="ytick_3">
     <g id="line2d_9">
      <g>
       <use xlink:href="#m3ddfae7328" x="30.103125" y="81.357729" style="stroke: #000000; stroke-width: 0.8"/>
      </g>
     </g>
     <g id="text_3">
      <text style="font: 10px 'DejaVu Sans', 'Bitstream Vera Sans', 'Computer Modern Sans Serif', 'Lucida Grande', 'Verdana', 'Geneva', 'Lucid', 'Arial', 'Helvetica', 'Avant Garde', sans-serif; text-anchor: end" x="23.103125" y="85.156948" transform="rotate(-0 23.103125 85.156948)">1.0</text>
     </g>
    </g>
    <g id="ytick_4">
     <g id="line2d_10">
      <g>
       <use xlink:href="#m3ddfae7328" x="30.103125" y="54.932594" style="stroke: #000000; stroke-width: 0.8"/>
      </g>
     </g>
     <g id="text_4">
      <text style="font: 10px 'DejaVu Sans', 'Bitstream Vera Sans', 'Computer Modern Sans Serif', 'Lucida Grande', 'Verdana', 'Geneva', 'Lucid', 'Arial', 'Helvetica', 'Avant Garde', sans-serif; text-anchor: end" x="23.103125" y="58.731813" transform="rotate(-0 23.103125 58.731813)">1.5</text>
     </g>
    </g>
    <g id="ytick_5">
     <g id="line2d_11">
      <g>
       <use xlink:href="#m3ddfae7328" x="30.103125" y="28.507459" style="stroke: #000000; stroke-width: 0.8"/>
      </g>
     </g>
     <g id="text_5">
      <text style="font: 10px 'DejaVu Sans', 'Bitstream Vera Sans', 'Computer Modern Sans Serif', 'Lucida Grande', 'Verdana', 'Geneva', 'Lucid', 'Arial', 'Helvetica', 'Avant Garde', sans-serif; text-anchor: end" x="23.103125" y="32.306677" transform="rotate(-0 23.103125 32.306677)">2.0</text>
     </g>
    </g>
   </g>
   <g id="line2d_12">
    <path d="M 46.335852 134.208 
L 111.331757 134.200601 
L 176.002683 60.580174 
L 176.327662 134.208 
L 370.990398 134.208 
L 370.990398 134.208 
" clip-path="url(#p4213d49045)" style="fill: none; stroke: #ff4500; stroke-width: 1.5; stroke-linecap: square"/>
   </g>
   <g id="line2d_13">
    <path d="M 46.335852 134.208 
L 111.331757 134.200601 
L 176.002683 60.580174 
L 176.327662 134.208 
L 370.990398 134.208 
L 370.990398 134.208 
" clip-path="url(#p4213d49045)" style="fill: none; stroke-dasharray: 5.55,2.4; stroke-dashoffset: 0; stroke: #c71585; stroke-width: 1.5"/>
   </g>
   <g id="line2d_14">
    <path d="M 46.335852 134.208 
L 111.331757 134.195844 
L 176.002683 13.248 
L 176.327662 134.208 
L 370.990398 134.208 
L 370.990398 134.208 
" clip-path="url(#p4213d49045)" style="fill: none; stroke-dasharray: 9.6,2.4,1.5,2.4; stroke-dashoffset: 0; stroke: #4682b4; stroke-width: 1.5"/>
   </g>
   <g id="line2d_15">
    <path d="M 46.335852 134.208 
L 111.331757 134.195844 
L 176.002683 13.248 
L 176.327662 134.208 
L 370.990398 134.208 
L 370.990398 134.208 
" clip-path="url(#p4213d49045)" style="fill: none; stroke-dasharray: 2.5,4.125; stroke-dashoffset: 0; stroke: #6b8e23; stroke-width: 2.5"/>
   </g>
   <g id="patch_3">
    <path d="M 30.103125 140.256 
L 30.103125 7.2 
" style="fill: none; stroke: #000000; stroke-width: 0.8; stroke-linejoin: miter; stroke-linecap: square"/>
   </g>
   <g id="patch_4">
    <path d="M 387.223125 140.256 
L 387.223125 7.2 
" style="fill: none; stroke: #000000; stroke-width: 0.8; stroke-linejoin: miter; stroke-linecap: square"/>
   </g>
   <g id="patch_5">
    <path d="M 30.103125 140.256 
L 387.223125 140.256 
" style="fill: none; stroke: #000000; stroke-width: 0.8; stroke-linejoin: miter; stroke-linecap: square"/>
   </g>
   <g id="patch_6">
    <path d="M 30.103125 7.2 
L 387.223125 7.2 
" style="fill: none; stroke: #000000; stroke-width: 0.8; stroke-linejoin: miter; stroke-linecap: square"/>
   </g>
   <g id="legend_1">
    <g id="patch_7">
     <path d="M 316.059062 73.9125 
L 380.223125 73.9125 
Q 382.223125 73.9125 382.223125 71.9125 
L 382.223125 14.2 
Q 382.223125 12.2 380.223125 12.2 
L 316.059062 12.2 
Q 314.059062 12.2 314.059062 14.2 
L 314.059062 71.9125 
Q 314.059062 73.9125 316.059062 73.9125 
z
" style="fill: #ffffff; opacity: 0.8; stroke: #cccccc; stroke-linejoin: miter"/>
    </g>
    <g id="line2d_16">
     <path d="M 318.059062 20.298437 
L 328.059062 20.298437 
L 338.059062 20.298437 
" style="fill: none; stroke: #ff4500; stroke-width: 1.5; stroke-linecap: square"/>
    </g>
    <g id="text_6">
     <text style="font: 10px 'DejaVu Sans', 'Bitstream Vera Sans', 'Computer Modern Sans Serif', 'Lucida Grande', 'Verdana', 'Geneva', 'Lucid', 'Arial', 'Helvetica', 'Avant Garde', sans-serif; text-anchor: start" x="346.059062" y="23.798437" transform="rotate(-0 346.059062 23.798437)">PLML2</text>
    </g>
    <g id="line2d_17">
     <path d="M 318.059062 34.976562 
L 328.059062 34.976562 
L 338.059062 34.976562 
" style="fill: none; stroke-dasharray: 5.55,2.4; stroke-dashoffset: 0; stroke: #c71585; stroke-width: 1.5"/>
    </g>
    <g id="text_7">
     <text style="font: 10px 'DejaVu Sans', 'Bitstream Vera Sans', 'Computer Modern Sans Serif', 'Lucida Grande', 'Verdana', 'Geneva', 'Lucid', 'Arial', 'Helvetica', 'Avant Garde', sans-serif; text-anchor: start" x="346.059062" y="38.476562" transform="rotate(-0 346.059062 38.476562)">PLMR</text>
    </g>
    <g id="line2d_18">
     <path d="M 318.059062 49.654687 
L 328.059062 49.654687 
L 338.059062 49.654687 
" style="fill: none; stroke-dasharray: 9.6,2.4,1.5,2.4; stroke-dashoffset: 0; stroke: #4682b4; stroke-width: 1.5"/>
    </g>
    <g id="text_8">
     <text style="font: 10px 'DejaVu Sans', 'Bitstream Vera Sans', 'Computer Modern Sans Serif', 'Lucida Grande', 'Verdana', 'Geneva', 'Lucid', 'Arial', 'Helvetica', 'Avant Garde', sans-serif; text-anchor: start" x="346.059062" y="53.154687" transform="rotate(-0 346.059062 53.154687)">AVBL</text>
    </g>
    <g id="line2d_19">
     <path d="M 318.059062 64.332812 
L 328.059062 64.332812 
L 338.059062 64.332812 
" style="fill: none; stroke-dasharray: 2.5,4.125; stroke-dashoffset: 0; stroke: #6b8e23; stroke-width: 2.5"/>
    </g>
    <g id="text_9">
     <text style="font: 10px 'DejaVu Sans', 'Bitstream Vera Sans', 'Computer Modern Sans Serif', 'Lucida Grande', 'Verdana', 'Geneva', 'Lucid', 'Arial', 'Helvetica', 'Avant Garde', sans-serif; text-anchor: start" x="346.059062" y="67.832812" transform="rotate(-0 346.059062 67.832812)">AVBR</text>
    </g>
   </g>
  </g>
  <g id="axes_2">
   <g id="patch_8">
    <path d="M 30.103125 273.312 
L 387.223125 273.312 
L 387.223125 140.256 
L 30.103125 140.256 
z
" style="fill: #ffffff"/>
   </g>
   <g id="matplotlib.axis_3">
    <g id="xtick_7">
     <g id="line2d_20">
      <g>
       <use xlink:href="#m127e3dfbfe" x="46.335852" y="273.312" style="stroke: #000000; stroke-width: 0.8"/>
      </g>
     </g>
     <g id="text_10">
      <text style="font: 10px 'DejaVu Sans', 'Bitstream Vera Sans', 'Computer Modern Sans Serif', 'Lucida Grande', 'Verdana', 'Geneva', 'Lucid', 'Arial', 'Helvetica', 'Avant Garde', sans-serif; text-anchor: middle" x="46.335852" y="287.910437" transform="rotate(-0 46.335852 287.910437)">0</text>
     </g>
    </g>
    <g id="xtick_8">
     <g id="line2d_21">
      <g>
       <use xlink:href="#m127e3dfbfe" x="111.331757" y="273.312" style="stroke: #000000; stroke-width: 0.8"/>
      </g>
     </g>
     <g id="text_11">
      <text style="font: 10px 'DejaVu Sans', 'Bitstream Vera Sans', 'Computer Modern Sans Serif', 'Lucida Grande', 'Verdana', 'Geneva', 'Lucid', 'Arial', 'Helvetica', 'Avant Garde', sans-serif; text-anchor: middle" x="111.331757" y="287.910437" transform="rotate(-0 111.331757 287.910437)">100</text>
     </g>
    </g>
    <g id="xtick_9">
     <g id="line2d_22">
      <g>
       <use xlink:href="#m127e3dfbfe" x="176.327662" y="273.312" style="stroke: #000000; stroke-width: 0.8"/>
      </g>
     </g>
     <g id="text_12">
      <text style="font: 10px 'DejaVu Sans', 'Bitstream Vera Sans', 'Computer Modern Sans Serif', 'Lucida Grande', 'Verdana', 'Geneva', 'Lucid', 'Arial', 'Helvetica', 'Avant Garde', sans-serif; text-anchor: middle" x="176.327662" y="287.910437" transform="rotate(-0 176.327662 287.910437)">200</text>
     </g>
    </g>
    <g id="xtick_10">
     <g id="line2d_23">
      <g>
       <use xlink:href="#m127e3dfbfe" x="241.323567" y="273.312" style="stroke: #000000; stroke-width: 0.8"/>
      </g>
     </g>
     <g id="text_13">
      <text style="font: 10px 'DejaVu Sans', 'Bitstream Vera Sans', 'Computer Modern Sans Serif', 'Lucida Grande', 'Verdana', 'Geneva', 'Lucid', 'Arial', 'Helvetica', 'Avant Garde', sans-serif; text-anchor: middle" x="241.323567" y="287.910437" transform="rotate(-0 241.323567 287.910437)">300</text>
     </g>
    </g>
    <g id="xtick_11">
     <g id="line2d_24">
      <g>
       <use xlink:href="#m127e3dfbfe" x="306.319472" y="273.312" style="stroke: #000000; stroke-width: 0.8"/>
      </g>
     </g>
     <g id="text_14">
      <text style="font: 10px 'DejaVu Sans', 'Bitstream Vera Sans', 'Computer Modern Sans Serif', 'Lucida Grande', 'Verdana', 'Geneva', 'Lucid', 'Arial', 'Helvetica', 'Avant Garde', sans-serif; text-anchor: middle" x="306.319472" y="287.910437" transform="rotate(-0 306.319472 287.910437)">400</text>
     </g>
    </g>
    <g id="xtick_12">
     <g id="line2d_25">
      <g>
       <use xlink:href="#m127e3dfbfe" x="371.315377" y="273.312" style="stroke: #000000; stroke-width: 0.8"/>
      </g>
     </g>
     <g id="text_15">
      <text style="font: 10px 'DejaVu Sans', 'Bitstream Vera Sans', 'Computer Modern Sans Serif', 'Lucida Grande', 'Verdana', 'Geneva', 'Lucid', 'Arial', 'Helvetica', 'Avant Garde', sans-serif; text-anchor: middle" x="371.315377" y="287.910437" transform="rotate(-0 371.315377 287.910437)">500</text>
     </g>
    </g>
   </g>
   <g id="matplotlib.axis_4">
    <g id="ytick_6">
     <g id="line2d_26">
      <g>
       <use xlink:href="#m3ddfae7328" x="30.103125" y="257.476882" style="stroke: #000000; stroke-width: 0.8"/>
      </g>
     </g>
     <g id="text_16">
      <text style="font: 10px 'DejaVu Sans', 'Bitstream Vera Sans', 'Computer Modern Sans Serif', 'Lucida Grande', 'Verdana', 'Geneva', 'Lucid', 'Arial', 'Helvetica', 'Avant Garde', sans-serif; text-anchor: end" x="23.103125" y="261.276101" transform="rotate(-0 23.103125 261.276101)">0.0</text>
     </g>
    </g>
    <g id="ytick_7">
     <g id="line2d_27">
      <g>
       <use xlink:href="#m3ddfae7328" x="30.103125" y="227.362673" style="stroke: #000000; stroke-width: 0.8"/>
      </g>
     </g>
     <g id="text_17">
      <text style="font: 10px 'DejaVu Sans', 'Bitstream Vera Sans', 'Computer Modern Sans Serif', 'Lucida Grande', 'Verdana', 'Geneva', 'Lucid', 'Arial', 'Helvetica', 'Avant Garde', sans-serif; text-anchor: end" x="23.103125" y="231.161891" transform="rotate(-0 23.103125 231.161891)">0.2</text>
     </g>
    </g>
    <g id="ytick_8">
     <g id="line2d_28">
      <g>
       <use xlink:href="#m3ddfae7328" x="30.103125" y="197.248463" style="stroke: #000000; stroke-width: 0.8"/>
      </g>
     </g>
     <g id="text_18">
      <text style="font: 10px 'DejaVu Sans', 'Bitstream Vera Sans', 'Computer Modern Sans Serif', 'Lucida Grande', 'Verdana', 'Geneva', 'Lucid', 'Arial', 'Helvetica', 'Avant Garde', sans-serif; text-anchor: end" x="23.103125" y="201.047682" transform="rotate(-0 23.103125 201.047682)">0.4</text>
     </g>
    </g>
    <g id="ytick_9">
     <g id="line2d_29">
      <g>
       <use xlink:href="#m3ddfae7328" x="30.103125" y="167.134254" style="stroke: #000000; stroke-width: 0.8"/>
      </g>
     </g>
     <g id="text_19">
      <text style="font: 10px 'DejaVu Sans', 'Bitstream Vera Sans', 'Computer Modern Sans Serif', 'Lucida Grande', 'Verdana', 'Geneva', 'Lucid', 'Arial', 'Helvetica', 'Avant Garde', sans-serif; text-anchor: end" x="23.103125" y="170.933473" transform="rotate(-0 23.103125 170.933473)">0.6</text>
     </g>
    </g>
   </g>
   <g id="line2d_30">
    <path d="M 46.335852 267.264 
L 112.631675 267.168887 
L 114.581553 266.785627 
L 116.53143 266.181226 
L 118.806286 265.245095 
L 121.406123 263.929052 
L 124.330938 262.191343 
L 127.580734 260.001727 
L 131.480488 257.090468 
L 136.030201 253.385082 
L 140.904894 249.080107 
L 146.429546 243.885311 
L 152.929136 237.523674 
L 164.953379 225.228087 
L 171.777949 217.79048 
L 176.327662 212.814754 
L 176.977621 217.242717 
L 177.62758 220.002971 
L 178.927498 224.418843 
L 180.552396 229.05092 
L 182.177294 232.936331 
L 183.802191 236.240688 
L 185.427089 239.086044 
L 187.376966 242.020975 
L 189.326843 244.54036 
L 191.27672 246.727823 
L 193.551577 248.941798 
L 195.826434 250.859848 
L 198.42627 252.757522 
L 201.351086 254.586928 
L 204.275901 256.152748 
L 207.525697 257.64012 
L 211.100471 259.025129 
L 215.000226 260.291884 
L 219.22496 261.431417 
L 224.099652 262.505217 
L 229.624304 263.475861 
L 235.798915 264.321262 
L 242.948465 265.061948 
L 251.072953 265.676197 
L 261.147318 266.202625 
L 273.49654 266.614194 
L 289.745516 266.921981 
L 313.469022 267.129275 
L 355.066401 267.237436 
L 370.990398 267.2497 
L 370.990398 267.2497 
" clip-path="url(#p9d488919e2)" style="fill: none; stroke: #6b8e23; stroke-linecap: square"/>
   </g>
   <g id="line2d_31">
    <path d="M 46.335852 263.821403 
L 46.660832 263.357445 
L 47.310791 262.965534 
L 48.285729 262.823269 
L 51.535525 262.793528 
L 111.331757 262.791058 
L 111.981716 262.489969 
L 113.606614 261.278628 
L 123.680979 253.414972 
L 131.155508 247.900705 
L 137.655099 243.385939 
L 143.82971 239.329736 
L 152.604157 233.8754 
L 163.97844 227.050726 
L 170.80301 222.544315 
L 172.427908 221.253888 
L 176.002683 218.121593 
L 176.327662 215.091956 
L 176.652642 235.004095 
L 176.977621 246.858387 
L 177.302601 253.729775 
L 177.62758 257.643283 
L 177.95256 259.873211 
L 178.277539 261.137724 
L 178.602519 261.853665 
L 179.252478 262.488999 
L 179.902437 262.694084 
L 181.202355 262.782701 
L 189.651823 262.793426 
L 370.990398 262.793426 
L 370.990398 262.793426 
" clip-path="url(#p9d488919e2)" style="fill: none; stroke-dasharray: 3.7,1.6; stroke-dashoffset: 0; stroke: #6b8e23"/>
   </g>
   <g id="line2d_32">
    <path d="M 46.335852 265.224503 
L 46.660832 263.859231 
L 46.985811 263.18367 
L 47.310791 262.832991 
L 47.96075 262.568492 
L 49.260668 262.481424 
L 61.28491 262.475002 
L 133.105385 262.473395 
L 133.755344 261.859051 
L 134.080324 261.422726 
L 134.405304 261.950446 
L 135.055263 260.590131 
L 135.380242 260.045777 
L 135.705222 261.265037 
L 136.355181 259.29312 
L 136.68016 258.672347 
L 137.00514 260.603999 
L 137.330119 258.903915 
L 137.980078 257.131751 
L 138.305058 259.846904 
L 138.630037 257.800778 
L 139.279996 255.695125 
L 139.604976 259.165175 
L 139.929955 256.742163 
L 140.579915 254.1613 
L 140.904894 258.444747 
L 141.229874 255.509846 
L 141.879833 252.775057 
L 142.204812 257.803197 
L 142.529792 254.437204 
L 143.179751 251.28459 
L 143.50473 257.128063 
L 143.82971 253.039234 
L 144.479669 249.773634 
L 144.804648 256.443425 
L 145.129628 251.905901 
L 145.779587 248.253691 
L 146.104566 255.774705 
L 146.429546 250.675276 
L 147.079505 246.747875 
L 147.404485 255.11294 
L 147.729464 249.535782 
L 148.054444 246.836137 
L 148.379423 245.249254 
L 148.704403 254.457039 
L 149.029382 248.261066 
L 149.354362 245.318091 
L 149.679341 243.585107 
L 150.004321 253.746017 
L 150.3293 247.074834 
L 150.65428 243.96009 
L 150.979259 242.12839 
L 151.304239 253.133196 
L 151.629218 245.939312 
L 151.954198 242.492 
L 152.279177 240.276645 
L 152.604157 252.383773 
L 152.929136 244.576566 
L 153.254116 241.031803 
L 153.579096 238.733626 
L 153.904075 251.750306 
L 154.229055 243.403825 
L 154.554034 239.525463 
L 154.879014 237.036334 
L 155.203993 251.065983 
L 155.528973 242.055703 
L 155.853952 238.056016 
L 156.178932 235.466793 
L 156.503911 250.439757 
L 156.828891 240.675328 
L 157.47885 233.758105 
L 157.803829 249.773238 
L 158.128809 239.312982 
L 158.453788 234.952844 
L 158.778768 232.093435 
L 159.103747 249.119404 
L 159.428727 238.076398 
L 159.753706 233.512434 
L 160.078686 230.515916 
L 160.403666 248.51457 
L 160.728645 236.733637 
L 161.053625 231.66836 
L 161.378604 228.611157 
L 161.703584 247.791314 
L 162.028563 235.41945 
L 162.353543 230.160954 
L 162.678522 226.980768 
L 163.003502 247.175372 
L 163.328481 234.041363 
L 163.653461 228.486707 
L 163.97844 225.092145 
L 164.30342 246.472597 
L 164.628399 232.719189 
L 164.953379 226.956528 
L 165.278358 223.196378 
L 165.603338 245.799662 
L 165.928317 231.408353 
L 166.253297 225.293461 
L 166.578277 221.302273 
L 166.903256 245.113639 
L 167.228236 229.939476 
L 167.878195 219.549907 
L 168.203174 244.489478 
L 168.528154 228.633413 
L 169.178113 217.691897 
L 169.503092 243.836972 
L 169.828072 226.952562 
L 170.478031 215.79259 
L 170.80301 243.159731 
L 171.12799 225.711034 
L 171.452969 219.024268 
L 171.777949 214.632741 
L 172.102928 242.760114 
L 172.427908 224.957954 
L 172.752887 216.798225 
L 173.077867 211.580618 
L 173.402847 241.718997 
L 173.727826 222.32241 
L 174.052806 214.646503 
L 174.377785 209.856952 
L 174.702765 241.091784 
L 175.027744 221.350807 
L 175.352724 213.64121 
L 175.677703 208.826269 
L 176.002683 240.762801 
L 176.327662 219.312565 
L 176.652642 210.718378 
L 176.977621 205.246803 
L 177.302601 239.544135 
L 177.62758 217.779892 
L 178.277539 203.643475 
L 178.602519 239.041938 
L 178.927498 216.889041 
L 179.577458 202.621076 
L 179.902437 238.732437 
L 180.227417 214.832287 
L 180.877376 198.954035 
L 181.202355 237.520553 
L 181.527335 213.251373 
L 182.177294 197.543072 
L 182.502273 237.064172 
L 182.827253 212.135198 
L 183.477212 196.430559 
L 183.802191 236.732218 
L 184.127171 210.040623 
L 184.77713 192.66358 
L 185.102109 235.520831 
L 185.427089 208.365003 
L 186.077048 191.157895 
L 186.402028 235.042214 
L 186.727007 207.428839 
L 187.376966 189.958388 
L 187.701946 234.691613 
L 188.026925 205.287203 
L 188.676884 186.086743 
L 189.001864 233.473628 
L 189.326843 203.547937 
L 189.976802 184.50485 
L 190.301782 232.979346 
L 190.626761 202.573442 
L 191.27672 181.52512 
L 191.6017 232.206822 
L 191.926679 199.933221 
L 192.576639 178.783372 
L 192.901618 231.269075 
L 193.226598 198.462965 
L 193.876557 177.314286 
L 194.201536 230.837419 
L 194.526516 197.493107 
L 195.176475 174.905293 
L 195.501454 230.186739 
L 195.826434 195.191377 
L 196.476393 173.012914 
L 196.801372 229.447277 
L 197.126352 194.393958 
L 197.776311 169.391047 
L 198.10129 228.777212 
L 198.42627 191.117487 
L 199.076229 165.833908 
L 199.401209 227.669654 
L 199.726188 188.519703 
L 200.376147 163.603094 
L 200.701127 226.826556 
L 201.026106 187.54951 
L 201.676065 163.030739 
L 202.001045 226.60015 
L 202.326024 187.303019 
L 202.975983 160.483371 
L 203.300963 225.843672 
L 203.625942 185.092227 
L 204.275901 155.95417 
L 204.600881 224.911575 
L 204.92586 181.348727 
L 205.57582 153.639013 
L 205.900799 224.082594 
L 206.225779 180.372394 
L 206.875738 150.601794 
L 207.200717 223.182274 
L 207.525697 177.937831 
L 208.175656 149.221794 
L 208.500635 222.655256 
L 208.825615 177.32792 
L 209.475574 148.838252 
L 209.800553 222.518706 
L 210.125533 177.157648 
L 210.775492 146.783978 
L 211.100471 222.694359 
L 211.425451 175.665657 
L 212.07541 146.392359 
L 212.40039 222.625215 
L 212.725369 175.50334 
L 213.375328 146.304 
L 213.700308 222.630389 
L 214.025287 181.044319 
L 214.675246 158.473416 
L 215.000226 226.669161 
L 215.325205 185.19168 
L 215.975164 160.686416 
L 216.300144 227.460796 
L 216.625123 192.940955 
L 217.275082 175.137315 
L 217.600062 231.618045 
L 217.925041 205.392616 
L 218.575001 191.99181 
L 218.89998 235.95754 
L 219.22496 209.486555 
L 219.549939 242.784932 
L 219.874919 251.858 
L 220.199898 256.758465 
L 220.524878 259.371328 
L 220.849857 260.802269 
L 221.174837 261.573282 
L 221.499816 261.993925 
L 222.149775 262.340365 
L 223.124714 262.463403 
L 227.024468 262.487907 
L 370.990398 262.487928 
L 370.990398 262.487928 
" clip-path="url(#p9d488919e2)" style="fill: none; stroke-dasharray: 0.64,0.16,0.1,0.16; stroke-dashoffset: 0; stroke: #6b8e23; stroke-width: 0.1"/>
   </g>
   <g id="patch_9">
    <path d="M 30.103125 273.312 
L 30.103125 140.256 
" style="fill: none; stroke: #000000; stroke-width: 0.8; stroke-linejoin: miter; stroke-linecap: square"/>
   </g>
   <g id="patch_10">
    <path d="M 387.223125 273.312 
L 387.223125 140.256 
" style="fill: none; stroke: #000000; stroke-width: 0.8; stroke-linejoin: miter; stroke-linecap: square"/>
   </g>
   <g id="patch_11">
    <path d="M 30.103125 273.312 
L 387.223125 273.312 
" style="fill: none; stroke: #000000; stroke-width: 0.8; stroke-linejoin: miter; stroke-linecap: square"/>
   </g>
   <g id="patch_12">
    <path d="M 30.103125 140.256 
L 387.223125 140.256 
" style="fill: none; stroke: #000000; stroke-width: 0.8; stroke-linejoin: miter; stroke-linecap: square"/>
   </g>
   <g id="legend_2">
    <g id="patch_13">
     <path d="M 237.084062 192.290375 
L 380.223125 192.290375 
Q 382.223125 192.290375 382.223125 190.290375 
L 382.223125 147.256 
Q 382.223125 145.256 380.223125 145.256 
L 237.084062 145.256 
Q 235.084062 145.256 235.084062 147.256 
L 235.084062 190.290375 
Q 235.084062 192.290375 237.084062 192.290375 
z
" style="fill: #ffffff; opacity: 0.8; stroke: #cccccc; stroke-linejoin: miter"/>
    </g>
    <g id="line2d_33">
     <path d="M 239.084062 153.354437 
L 249.084062 153.354437 
L 259.084062 153.354437 
" style="fill: none; stroke: #6b8e23; stroke-linecap: square"/>
    </g>
    <g id="text_20">
     <text style="font: 10px 'DejaVu Sans', 'Bitstream Vera Sans', 'Computer Modern Sans Serif', 'Lucida Grande', 'Verdana', 'Geneva', 'Lucid', 'Arial', 'Helvetica', 'Avant Garde', sans-serif; text-anchor: start" x="267.084062" y="156.854437" transform="rotate(-0 267.084062 156.854437)">Target response VB1</text>
    </g>
    <g id="line2d_34">
     <path d="M 239.084062 168.032562 
L 249.084062 168.032562 
L 259.084062 168.032562 
" style="fill: none; stroke-dasharray: 3.7,1.6; stroke-dashoffset: 0; stroke: #6b8e23"/>
    </g>
    <g id="text_21">
     <text style="font: 10px 'DejaVu Sans', 'Bitstream Vera Sans', 'Computer Modern Sans Serif', 'Lucida Grande', 'Verdana', 'Geneva', 'Lucid', 'Arial', 'Helvetica', 'Avant Garde', sans-serif; text-anchor: start" x="267.084062" y="171.532562" transform="rotate(-0 267.084062 171.532562)">Digital prediction VB1</text>
    </g>
    <g id="line2d_35">
     <path d="M 239.084062 182.710687 
L 249.084062 182.710687 
L 259.084062 182.710687 
" style="fill: none; stroke-dasharray: 0.64,0.16,0.1,0.16; stroke-dashoffset: 0; stroke: #6b8e23; stroke-width: 0.1"/>
    </g>
    <g id="text_22">
     <text style="font: 10px 'DejaVu Sans', 'Bitstream Vera Sans', 'Computer Modern Sans Serif', 'Lucida Grande', 'Verdana', 'Geneva', 'Lucid', 'Arial', 'Helvetica', 'Avant Garde', sans-serif; text-anchor: start" x="267.084062" y="186.210687" transform="rotate(-0 267.084062 186.210687)">Analog prediction VB1</text>
    </g>
   </g>
  </g>
 </g>
 <defs>
  <clipPath id="p4213d49045">
   <rect x="30.103125" y="7.2" width="357.12" height="133.056"/>
  </clipPath>
  <clipPath id="p9d488919e2">
   <rect x="30.103125" y="140.256" width="357.12" height="133.056"/>
  </clipPath>
 </defs>
</svg>
