<?xml version="1.0" encoding="utf-8" standalone="no"?>
<!DOCTYPE svg PUBLIC "-//W3C//DTD SVG 1.1//EN"
  "http://www.w3.org/Graphics/SVG/1.1/DTD/svg11.dtd">
<svg xmlns:xlink="http://www.w3.org/1999/xlink" width="398.030937pt" height="297.190125pt" viewBox="0 0 398.030937 297.190125" xmlns="http://www.w3.org/2000/svg" version="1.1">
 <metadata>
  <rdf:RDF xmlns:dc="http://purl.org/dc/elements/1.1/" xmlns:cc="http://creativecommons.org/ns#" xmlns:rdf="http://www.w3.org/1999/02/22-rdf-syntax-ns#">
   <cc:Work>
    <dc:type rdf:resource="http://purl.org/dc/dcmitype/StillImage"/>
    <dc:date>2023-10-24T18:22:18.816544</dc:date>
    <dc:format>image/svg+xml</dc:format>
    <dc:creator>
     <cc:Agent>
      <dc:title>Matplotlib v3.8.0, https://matplotlib.org/</dc:title>
     </cc:Agent>
    </dc:creator>
   </cc:Work>
  </rdf:RDF>
 </metadata>
 <defs>
  <style type="text/css">*{stroke-linejoin: round; stroke-linecap: butt}</style>
 </defs>
 <g id="figure_1">
  <g id="patch_1">
   <path d="M 0 297.190125 
L 398.030937 297.190125 
L 398.030937 0 
L 0 0 
z
" style="fill: #ffffff"/>
  </g>
  <g id="axes_1">
   <g id="patch_2">
    <path d="M 33.710938 273.312 
L 390.830938 273.312 
L 390.830938 7.2 
L 33.710938 7.2 
z
" style="fill: #ffffff"/>
   </g>
   <g id="matplotlib.axis_1">
    <g id="xtick_1">
     <g id="line2d_1">
      <defs>
       <path id="m4ef53b98d1" d="M 0 0 
L 0 3.5 
" style="stroke: #000000; stroke-width: 0.8"/>
      </defs>
      <g>
       <use xlink:href="#m4ef53b98d1" x="49.943665" y="273.312" style="stroke: #000000; stroke-width: 0.8"/>
      </g>
     </g>
     <g id="text_1">
      <text style="font: 10px 'DejaVu Sans', 'Bitstream Vera Sans', 'Computer Modern Sans Serif', 'Lucida Grande', 'Verdana', 'Geneva', 'Lucid', 'Arial', 'Helvetica', 'Avant Garde', sans-serif; text-anchor: middle" x="49.943665" y="287.910437" transform="rotate(-0 49.943665 287.910437)">0</text>
     </g>
    </g>
    <g id="xtick_2">
     <g id="line2d_2">
      <g>
       <use xlink:href="#m4ef53b98d1" x="114.93957" y="273.312" style="stroke: #000000; stroke-width: 0.8"/>
      </g>
     </g>
     <g id="text_2">
      <text style="font: 10px 'DejaVu Sans', 'Bitstream Vera Sans', 'Computer Modern Sans Serif', 'Lucida Grande', 'Verdana', 'Geneva', 'Lucid', 'Arial', 'Helvetica', 'Avant Garde', sans-serif; text-anchor: middle" x="114.93957" y="287.910437" transform="rotate(-0 114.93957 287.910437)">100</text>
     </g>
    </g>
    <g id="xtick_3">
     <g id="line2d_3">
      <g>
       <use xlink:href="#m4ef53b98d1" x="179.935475" y="273.312" style="stroke: #000000; stroke-width: 0.8"/>
      </g>
     </g>
     <g id="text_3">
      <text style="font: 10px 'DejaVu Sans', 'Bitstream Vera Sans', 'Computer Modern Sans Serif', 'Lucida Grande', 'Verdana', 'Geneva', 'Lucid', 'Arial', 'Helvetica', 'Avant Garde', sans-serif; text-anchor: middle" x="179.935475" y="287.910437" transform="rotate(-0 179.935475 287.910437)">200</text>
     </g>
    </g>
    <g id="xtick_4">
     <g id="line2d_4">
      <g>
       <use xlink:href="#m4ef53b98d1" x="244.93138" y="273.312" style="stroke: #000000; stroke-width: 0.8"/>
      </g>
     </g>
     <g id="text_4">
      <text style="font: 10px 'DejaVu Sans', 'Bitstream Vera Sans', 'Computer Modern Sans Serif', 'Lucida Grande', 'Verdana', 'Geneva', 'Lucid', 'Arial', 'Helvetica', 'Avant Garde', sans-serif; text-anchor: middle" x="244.93138" y="287.910437" transform="rotate(-0 244.93138 287.910437)">300</text>
     </g>
    </g>
    <g id="xtick_5">
     <g id="line2d_5">
      <g>
       <use xlink:href="#m4ef53b98d1" x="309.927285" y="273.312" style="stroke: #000000; stroke-width: 0.8"/>
      </g>
     </g>
     <g id="text_5">
      <text style="font: 10px 'DejaVu Sans', 'Bitstream Vera Sans', 'Computer Modern Sans Serif', 'Lucida Grande', 'Verdana', 'Geneva', 'Lucid', 'Arial', 'Helvetica', 'Avant Garde', sans-serif; text-anchor: middle" x="309.927285" y="287.910437" transform="rotate(-0 309.927285 287.910437)">400</text>
     </g>
    </g>
    <g id="xtick_6">
     <g id="line2d_6">
      <g>
       <use xlink:href="#m4ef53b98d1" x="374.92319" y="273.312" style="stroke: #000000; stroke-width: 0.8"/>
      </g>
     </g>
     <g id="text_6">
      <text style="font: 10px 'DejaVu Sans', 'Bitstream Vera Sans', 'Computer Modern Sans Serif', 'Lucida Grande', 'Verdana', 'Geneva', 'Lucid', 'Arial', 'Helvetica', 'Avant Garde', sans-serif; text-anchor: middle" x="374.92319" y="287.910437" transform="rotate(-0 374.92319 287.910437)">500</text>
     </g>
    </g>
   </g>
   <g id="matplotlib.axis_2">
    <g id="ytick_1">
     <g id="line2d_7">
      <defs>
       <path id="m361361b096" d="M 0 0 
L -3.5 0 
" style="stroke: #000000; stroke-width: 0.8"/>
      </defs>
      <g>
       <use xlink:href="#m361361b096" x="33.710938" y="238.057806" style="stroke: #000000; stroke-width: 0.8"/>
      </g>
     </g>
     <g id="text_7">
      <text style="font: 10px 'DejaVu Sans', 'Bitstream Vera Sans', 'Computer Modern Sans Serif', 'Lucida Grande', 'Verdana', 'Geneva', 'Lucid', 'Arial', 'Helvetica', 'Avant Garde', sans-serif; text-anchor: end" x="26.710938" y="241.857025" transform="rotate(-0 26.710938 241.857025)">-0.5</text>
     </g>
    </g>
    <g id="ytick_2">
     <g id="line2d_8">
      <g>
       <use xlink:href="#m361361b096" x="33.710938" y="182.912864" style="stroke: #000000; stroke-width: 0.8"/>
      </g>
     </g>
     <g id="text_8">
      <text style="font: 10px 'DejaVu Sans', 'Bitstream Vera Sans', 'Computer Modern Sans Serif', 'Lucida Grande', 'Verdana', 'Geneva', 'Lucid', 'Arial', 'Helvetica', 'Avant Garde', sans-serif; text-anchor: end" x="26.710938" y="186.712083" transform="rotate(-0 26.710938 186.712083)">0.0</text>
     </g>
    </g>
    <g id="ytick_3">
     <g id="line2d_9">
      <g>
       <use xlink:href="#m361361b096" x="33.710938" y="127.767922" style="stroke: #000000; stroke-width: 0.8"/>
      </g>
     </g>
     <g id="text_9">
      <text style="font: 10px 'DejaVu Sans', 'Bitstream Vera Sans', 'Computer Modern Sans Serif', 'Lucida Grande', 'Verdana', 'Geneva', 'Lucid', 'Arial', 'Helvetica', 'Avant Garde', sans-serif; text-anchor: end" x="26.710938" y="131.56714" transform="rotate(-0 26.710938 131.56714)">0.5</text>
     </g>
    </g>
    <g id="ytick_4">
     <g id="line2d_10">
      <g>
       <use xlink:href="#m361361b096" x="33.710938" y="72.622979" style="stroke: #000000; stroke-width: 0.8"/>
      </g>
     </g>
     <g id="text_10">
      <text style="font: 10px 'DejaVu Sans', 'Bitstream Vera Sans', 'Computer Modern Sans Serif', 'Lucida Grande', 'Verdana', 'Geneva', 'Lucid', 'Arial', 'Helvetica', 'Avant Garde', sans-serif; text-anchor: end" x="26.710938" y="76.422198" transform="rotate(-0 26.710938 76.422198)">1.0</text>
     </g>
    </g>
    <g id="ytick_5">
     <g id="line2d_11">
      <g>
       <use xlink:href="#m361361b096" x="33.710938" y="17.478037" style="stroke: #000000; stroke-width: 0.8"/>
      </g>
     </g>
     <g id="text_11">
      <text style="font: 10px 'DejaVu Sans', 'Bitstream Vera Sans', 'Computer Modern Sans Serif', 'Lucida Grande', 'Verdana', 'Geneva', 'Lucid', 'Arial', 'Helvetica', 'Avant Garde', sans-serif; text-anchor: end" x="26.710938" y="21.277255" transform="rotate(-0 26.710938 21.277255)">1.5</text>
     </g>
    </g>
   </g>
   <g id="line2d_12">
    <path d="M 49.943665 187.892553 
L 50.593624 187.313603 
L 51.243583 187.128865 
L 52.86848 187.045687 
L 69.117457 187.040215 
L 114.61459 187.040215 
L 114.93957 190.592206 
L 115.264549 191.722044 
L 115.589529 191.95978 
L 115.914508 191.722668 
L 116.564467 190.518422 
L 117.539406 187.837647 
L 120.464222 179.372378 
L 122.089119 175.596111 
L 123.714017 172.385458 
L 125.013935 170.200509 
L 126.638833 167.914369 
L 127.613771 166.717748 
L 127.938751 147.840954 
L 128.26373 148.098115 
L 128.58871 148.653889 
L 128.913689 149.523925 
L 130.213607 155.486111 
L 131.188546 159.600781 
L 131.838505 161.643566 
L 132.488464 163.146968 
L 133.138423 164.204953 
L 133.788382 164.897825 
L 134.438341 165.312394 
L 135.0883 165.516355 
L 136.063239 165.535607 
L 137.038177 165.317068 
L 138.338096 164.802731 
L 140.612952 163.601719 
L 143.862747 161.618688 
L 147.112543 159.455801 
L 147.437522 152.021781 
L 149.387399 160.899173 
L 150.037358 162.60561 
L 151.012297 164.389849 
L 151.987236 165.656845 
L 153.287154 166.9722 
L 155.56201 168.899609 
L 159.136785 171.59623 
L 164.011478 174.98842 
L 170.186089 179.031851 
L 177.660618 183.641398 
L 179.610495 184.811664 
L 179.935475 185.162688 
L 180.585434 182.263501 
L 181.235393 180.070511 
L 181.885352 178.492841 
L 182.535311 177.351569 
L 183.51025 176.154132 
L 184.485188 175.305973 
L 186.110086 174.248247 
L 189.034901 172.721266 
L 196.184451 169.109731 
L 201.709103 166.063411 
L 206.908775 162.890807 
L 211.458489 159.905721 
L 212.108448 159.460334 
L 212.433427 152.02601 
L 214.383304 160.900227 
L 215.033263 162.606251 
L 216.008202 164.390158 
L 216.983141 165.656989 
L 218.283059 166.972253 
L 220.557915 168.899619 
L 224.13269 171.596233 
L 229.007383 174.98842 
L 235.181994 179.031851 
L 242.656523 183.641398 
L 244.6064 184.811664 
L 245.256359 179.671798 
L 245.581339 178.399808 
L 246.231298 177.043413 
L 246.881257 176.341242 
L 247.856195 175.731761 
L 249.806073 174.925029 
L 258.25554 171.860296 
L 272.879619 166.517488 
L 277.104353 164.904714 
L 277.429332 163.246331 
L 278.079291 167.352166 
L 278.72925 169.923619 
L 279.379209 171.356301 
L 280.029168 172.191491 
L 281.004107 172.959903 
L 282.629005 173.846205 
L 289.453575 177.092387 
L 310.577244 186.98771 
L 312.527121 187.038947 
L 374.59821 187.040214 
L 374.59821 187.040214 
" clip-path="url(#pe6cf386113)" style="fill: none; stroke: #ff4500; stroke-linecap: square"/>
   </g>
   <g id="line2d_13">
    <path d="M 49.943665 184.333944 
L 50.268644 183.128245 
L 50.593624 182.531702 
L 50.918603 182.223112 
L 51.568562 181.991942 
L 52.86848 181.916561 
L 66.8426 181.911093 
L 136.063239 181.911093 
L 136.388218 152.15411 
L 136.713198 171.140299 
L 137.038177 142.299532 
L 137.688137 114.120305 
L 138.013116 155.986164 
L 138.338096 126.950322 
L 138.988055 104.230902 
L 139.313034 151.950121 
L 139.638014 122.382087 
L 140.287973 100.774826 
L 140.612952 150.558274 
L 140.937932 120.551644 
L 141.587891 99.010247 
L 141.91287 149.870528 
L 142.23785 119.451619 
L 142.887809 97.707681 
L 143.212788 149.378376 
L 143.537768 118.55639 
L 144.187727 96.572599 
L 144.512707 148.95264 
L 144.837686 117.732284 
L 145.487645 95.446659 
L 145.812625 148.537259 
L 146.137604 116.91582 
L 146.787563 94.3111 
L 147.112543 148.115296 
L 147.437522 116.089727 
L 148.087481 93.167392 
L 148.412461 147.695197 
L 148.73744 115.292929 
L 149.387399 92.05754 
L 149.712379 147.280429 
L 150.037358 114.489356 
L 150.687318 90.908678 
L 151.012297 146.853224 
L 151.337277 113.646346 
L 151.987236 89.734204 
L 152.312215 146.41925 
L 152.637195 112.792467 
L 153.287154 88.60029 
L 153.612133 145.997391 
L 153.937113 130.48266 
L 154.587072 122.124805 
L 154.912051 156.427397 
L 155.237031 137.92511 
L 155.88699 125.380248 
L 156.211969 157.985205 
L 156.536949 138.60676 
L 157.186908 124.878241 
L 157.511888 157.830089 
L 157.836867 138.410784 
L 158.486826 123.921168 
L 158.811806 157.450319 
L 159.136785 137.548251 
L 159.786744 123.47189 
L 160.111724 157.258573 
L 160.436703 136.884905 
L 161.086662 122.251477 
L 161.411642 156.767728 
L 161.736621 136.403169 
L 162.38658 121.12337 
L 162.71156 156.306676 
L 163.036539 135.471186 
L 163.686499 120.630271 
L 164.011478 156.092995 
L 164.336458 134.784218 
L 164.986417 119.382079 
L 165.311396 155.584661 
L 165.636376 134.310813 
L 166.286335 118.231028 
L 166.611314 155.118273 
L 166.936294 133.364258 
L 167.586253 117.19262 
L 167.911232 154.706069 
L 168.236212 132.460882 
L 168.886171 116.33669 
L 169.21115 154.338955 
L 169.53613 132.122543 
L 170.186089 115.25023 
L 170.511069 153.900398 
L 170.836048 131.188987 
L 171.486007 114.221623 
L 171.810987 153.480738 
L 172.135966 130.27765 
L 172.785925 113.346704 
L 173.110905 153.107658 
L 173.435884 129.424004 
L 174.085843 111.967304 
L 174.410823 152.548986 
L 174.735802 128.888006 
L 175.385761 111.125505 
L 175.710741 152.21788 
L 176.03572 128.051011 
L 176.68568 110.2842 
L 177.010659 151.857406 
L 177.335639 127.206098 
L 177.985598 108.898052 
L 178.310577 151.290772 
L 178.635557 126.653967 
L 179.285516 107.657544 
L 179.610495 150.789955 
L 179.935475 142.653929 
L 180.260454 140.755137 
L 180.585434 139.839952 
L 180.910413 162.494459 
L 181.235393 151.147703 
L 181.560372 146.726798 
L 181.885352 144.229032 
L 182.210331 164.644982 
L 182.535311 152.678196 
L 182.86029 148.281536 
L 183.18527 145.758875 
L 183.51025 165.350972 
L 183.835229 153.723818 
L 184.160209 148.9033 
L 184.485188 146.703254 
L 184.810168 165.76561 
L 185.135147 154.557535 
L 185.460127 149.929389 
L 185.785106 147.296142 
L 186.110086 166.039491 
L 186.435065 154.751015 
L 186.760045 150.597245 
L 187.085024 148.223858 
L 187.410004 166.441452 
L 187.734983 155.56936 
L 188.059963 151.061663 
L 188.384942 149.062191 
L 188.709922 166.805714 
L 189.034901 156.357202 
L 189.359881 152.046894 
L 189.684861 149.623194 
L 190.00984 167.0729 
L 190.33482 157.070025 
L 190.659799 152.988911 
L 190.984779 150.705548 
L 191.309758 167.542832 
L 191.634738 157.399811 
L 191.959717 153.18933 
L 192.284697 151.37424 
L 192.609676 167.82915 
L 192.934656 158.125814 
L 193.259635 154.132797 
L 193.584615 151.905625 
L 193.909594 168.081262 
L 194.234574 158.824834 
L 194.559553 155.056362 
L 194.884533 152.965743 
L 195.209512 168.551947 
L 195.534492 159.146638 
L 195.859471 155.782838 
L 196.184451 153.905889 
L 196.509431 168.967559 
L 196.83441 159.954266 
L 197.15939 156.233835 
L 197.484369 154.175231 
L 197.809349 169.088236 
L 198.134328 160.563828 
L 198.459308 157.095469 
L 198.784287 155.189 
L 199.109267 169.540456 
L 199.434246 160.864604 
L 199.759226 157.802991 
L 200.084205 156.110713 
L 200.409185 169.950671 
L 200.734164 161.661426 
L 201.059144 158.24404 
L 201.384123 156.898512 
L 201.709103 170.299106 
L 202.034082 162.408921 
L 202.359062 159.179102 
L 202.684042 157.416348 
L 203.009021 170.546571 
L 203.334001 162.573762 
L 203.65898 159.796749 
L 203.98396 158.275714 
L 204.308939 170.929659 
L 204.633919 163.392022 
L 204.958898 160.401552 
L 205.283878 158.94019 
L 205.608857 171.228619 
L 205.933837 163.945029 
L 206.258816 161.06908 
L 206.583796 159.66526 
L 206.908775 171.563587 
L 207.233755 164.519762 
L 207.558734 161.747451 
L 207.883714 160.350527 
L 208.208693 171.872878 
L 208.533673 165.079038 
L 208.858652 162.412858 
L 209.183632 161.072475 
L 209.508612 172.207251 
L 209.833591 165.648343 
L 210.158571 163.081673 
L 210.48355 161.800996 
L 210.80853 172.536794 
L 211.133509 166.216213 
L 211.458489 163.746176 
L 211.783468 162.523418 
L 212.108448 172.868954 
L 212.433427 166.78176 
L 212.758407 164.408496 
L 213.083386 163.237893 
L 213.408366 173.201212 
L 213.733345 167.293802 
L 214.058325 165.03994 
L 214.383304 163.934777 
L 214.708284 173.520861 
L 215.033263 167.847837 
L 215.358243 165.687666 
L 215.683223 164.640204 
L 216.008202 173.847596 
L 216.333182 168.402641 
L 216.658161 166.337283 
L 216.983141 165.344412 
L 217.30812 174.173455 
L 217.6331 168.955032 
L 217.958079 166.93438 
L 218.283059 166.016332 
L 218.608038 174.485868 
L 218.933018 169.49667 
L 219.257997 167.572681 
L 219.582977 166.70838 
L 219.907956 174.808375 
L 220.232936 170.042288 
L 220.557915 168.210869 
L 220.882895 167.391176 
L 221.207874 175.131189 
L 221.532854 170.576086 
L 221.857833 168.846063 
L 222.182813 168.046385 
L 222.507793 175.439193 
L 222.832772 171.103548 
L 223.157752 156.087635 
L 223.482731 148.065794 
L 223.807711 167.900208 
L 224.13269 152.27457 
L 224.782649 140.176778 
L 225.107629 164.296106 
L 225.432608 148.93479 
L 226.082567 137.926238 
L 226.407547 163.285417 
L 226.732526 147.772478 
L 227.382485 136.782492 
L 227.707465 162.782436 
L 228.032444 147.012664 
L 228.682404 135.841977 
L 229.007383 162.385933 
L 229.332363 146.317842 
L 229.982322 134.943186 
L 230.307301 162.011258 
L 230.632281 145.659033 
L 231.28224 134.086848 
L 231.607219 161.653889 
L 231.932199 145.010569 
L 232.582158 133.195647 
L 232.907137 161.283712 
L 233.232117 144.335418 
L 233.882076 132.286929 
L 234.207055 160.908824 
L 234.532035 143.673312 
L 235.181994 131.419721 
L 235.506974 160.547916 
L 235.831953 143.005194 
L 236.481912 130.506118 
L 236.806892 160.169295 
L 237.131871 142.323702 
L 237.78183 129.574689 
L 238.10681 159.785265 
L 238.431789 141.633843 
L 239.081748 128.640614 
L 239.406728 159.397423 
L 239.731707 140.991217 
L 240.381666 127.716503 
L 240.706646 159.016554 
L 241.031625 140.291745 
L 241.681585 126.768019 
L 242.006564 158.625722 
L 242.331544 139.635606 
L 242.981503 125.766902 
L 243.306482 158.221615 
L 243.631462 138.756723 
L 244.281421 124.962041 
L 244.6064 157.876518 
L 244.93138 137.95592 
L 245.581339 123.687301 
L 245.906318 157.352928 
L 246.231298 137.458633 
L 246.881257 122.913781 
L 247.206236 157.045464 
L 247.531216 136.672015 
L 248.181175 122.135837 
L 248.506155 156.717502 
L 248.831134 135.867089 
L 249.481093 120.839318 
L 249.806073 156.183711 
L 250.131052 135.358505 
L 250.781011 120.050767 
L 251.105991 155.87163 
L 251.43097 134.576349 
L 252.080929 119.261146 
L 252.405909 155.532344 
L 252.730888 133.768568 
L 253.380847 117.940812 
L 253.705827 154.993834 
L 254.030806 133.250537 
L 254.680766 116.760571 
L 255.005745 154.521686 
L 255.330725 132.288656 
L 255.980684 116.24561 
L 256.305663 154.299001 
L 256.630643 131.584858 
L 257.280602 114.968936 
L 257.605581 153.775212 
L 257.930561 131.077374 
L 258.58052 113.774203 
L 258.905499 153.293102 
L 259.230479 130.101532 
L 259.880438 112.704285 
L 260.205417 152.864621 
L 260.530397 129.176086 
L 261.180356 111.839427 
L 261.505336 152.490353 
L 261.830315 128.834188 
L 262.480274 110.710908 
L 262.805254 152.041201 
L 263.130233 127.88448 
L 263.780192 109.65627 
L 264.105172 151.615202 
L 264.430151 126.954783 
L 265.08011 108.760749 
L 265.40509 151.230688 
L 265.730069 126.084888 
L 266.055049 115.120629 
L 266.380028 128.838428 
L 266.705008 156.923406 
L 267.029987 146.775117 
L 267.354967 143.382005 
L 267.679947 142.105246 
L 268.004926 163.584658 
L 268.329906 151.919693 
L 268.654885 147.227842 
L 268.979865 144.557715 
L 269.304844 164.813197 
L 269.629824 153.338917 
L 269.954803 148.659217 
L 270.279783 145.993325 
L 270.604762 165.463168 
L 270.929742 153.803356 
L 271.254721 149.505016 
L 271.579701 147.033965 
L 271.90468 165.916019 
L 272.22966 154.664574 
L 272.554639 149.995413 
L 272.879619 147.33731 
L 273.204598 166.059214 
L 273.529578 155.301317 
L 273.854557 150.897998 
L 274.179537 148.406561 
L 274.504517 166.526924 
L 274.829496 155.628797 
L 275.154476 151.643344 
L 275.479455 149.380405 
L 275.804435 166.954463 
L 276.129414 156.459975 
L 276.454394 152.10966 
L 276.779373 150.210597 
L 277.104353 167.314028 
L 277.429332 157.240179 
L 277.754312 153.091937 
L 278.079291 150.769427 
L 278.404271 167.573802 
L 278.72925 157.421215 
L 279.05423 153.74153 
L 279.379209 151.67079 
L 279.704189 167.969639 
L 280.029168 158.221362 
L 280.354148 154.190643 
L 280.679128 152.482912 
L 281.004107 168.324643 
L 281.329087 158.990702 
L 281.654066 155.156263 
L 281.979046 153.026098 
L 282.304025 168.580174 
L 282.629005 159.688756 
L 282.953984 156.076018 
L 283.278964 154.07999 
L 283.603943 169.042768 
L 283.928923 160.010284 
L 284.253902 156.26769 
L 284.578882 154.731145 
L 284.903861 169.323197 
L 285.228841 160.718675 
L 285.55382 157.189482 
L 285.8788 155.24535 
L 286.203779 169.567357 
L 286.528759 161.405825 
L 286.853738 158.091784 
L 287.178718 156.280614 
L 287.503698 170.031474 
L 287.828677 161.715519 
L 288.153657 158.80026 
L 288.478636 157.195052 
L 288.803616 170.440011 
L 289.128595 162.502451 
L 289.453575 159.234749 
L 289.778554 157.449573 
L 290.103534 170.562581 
L 290.428513 163.099307 
L 290.753493 160.077006 
L 291.078472 158.490768 
L 291.403452 171.035852 
L 291.728431 163.561913 
L 292.053411 160.650554 
L 292.37839 159.177985 
L 292.70337 171.338489 
L 293.028349 164.119252 
L 293.353329 161.319783 
L 293.678309 159.903542 
L 294.003288 171.671241 
L 294.328268 164.693574 
L 294.653247 161.946166 
L 294.978227 160.614497 
L 295.303206 171.992312 
L 295.628186 165.258025 
L 295.953165 162.613515 
L 296.278145 161.338837 
L 296.603124 172.32416 
L 296.928104 165.826836 
L 297.253083 163.28027 
L 297.578063 162.064087 
L 297.903042 172.657871 
L 298.228022 166.394852 
L 298.553001 163.945444 
L 298.877981 162.784235 
L 299.20296 172.988969 
L 299.52794 166.958835 
L 299.852919 164.60627 
L 300.177899 163.44724 
L 300.502879 173.296078 
L 300.827858 167.505384 
L 301.152838 165.254659 
L 301.477817 164.15272 
L 301.802797 173.622121 
L 302.127776 168.061106 
L 302.452756 165.902671 
L 302.777735 164.857859 
L 303.102715 173.948837 
L 303.427694 168.615409 
L 303.752674 166.551473 
L 304.077653 165.560272 
L 304.402633 174.274277 
L 304.727612 169.117413 
L 305.052592 167.170502 
L 305.377571 166.242658 
L 305.702551 174.591775 
L 306.02753 169.661452 
L 306.35251 167.809291 
L 306.67749 166.933985 
L 307.002469 174.914416 
L 307.327449 170.206494 
L 307.652428 168.446359 
L 307.977408 167.605999 
L 308.302387 175.232487 
L 308.627367 170.751351 
L 308.952346 169.052165 
L 309.277326 168.269402 
L 309.602305 175.543667 
L 309.927285 165.649715 
L 310.252264 161.023772 
L 310.577244 158.143735 
L 310.902223 170.974574 
L 311.227203 162.683292 
L 311.552182 158.87326 
L 311.877162 156.441817 
L 312.202141 170.093923 
L 312.527121 161.772488 
L 312.8521 157.985522 
L 313.17708 155.602944 
L 313.50206 169.700509 
L 313.827039 161.17261 
L 314.152019 157.295479 
L 314.476998 154.852288 
L 314.801978 169.3657 
L 315.126957 160.606112 
L 315.451937 156.626282 
L 315.776916 154.113325 
L 316.101896 169.039066 
L 316.426875 160.041173 
L 316.751855 155.956368 
L 317.076834 153.371198 
L 317.401814 168.709524 
L 317.726793 159.516891 
L 318.051773 155.309558 
L 318.376752 152.641038 
L 318.701732 168.389105 
L 319.026711 158.95306 
L 319.351691 154.634927 
L 319.676671 151.890046 
L 320.00165 168.059782 
L 320.32663 158.379725 
L 320.651609 153.951292 
L 320.976589 151.128896 
L 321.301568 167.727533 
L 321.626548 157.80152 
L 321.951527 153.307066 
L 322.276507 150.391404 
L 322.601486 167.404804 
L 322.926466 157.22858 
L 323.251445 152.619019 
L 323.576425 149.621887 
L 323.901404 167.069594 
L 324.226384 156.643078 
L 324.551363 151.919435 
L 324.876343 148.842255 
L 325.201322 166.73045 
L 325.526302 156.053552 
L 325.851281 151.214577 
L 326.176261 148.101634 
L 326.501241 166.408777 
L 326.82622 155.47289 
L 327.1512 150.516012 
L 327.476179 147.317317 
L 327.801159 166.067668 
L 328.126138 154.875426 
L 328.451118 149.801208 
L 328.776097 146.567358 
L 329.101077 165.74009 
L 329.426056 154.471931 
L 329.751036 149.01992 
L 330.076015 145.592863 
L 330.400995 165.320657 
L 330.725974 153.665339 
L 331.375933 144.754267 
L 331.700913 164.965432 
L 332.025892 152.908036 
L 332.350872 147.526873 
L 332.675852 144.108783 
L 333.000831 164.677952 
L 333.325811 152.675551 
L 333.65079 146.899573 
L 333.97577 143.217551 
L 334.300749 164.299746 
L 334.625729 151.892853 
L 335.275688 142.380549 
L 335.600667 163.947098 
L 335.925647 151.128456 
L 336.250626 145.397555 
L 336.575606 141.725314 
L 336.900585 163.653749 
L 337.225565 150.889277 
L 337.550544 144.760465 
L 337.875524 140.812706 
L 338.200503 163.26955 
L 338.525483 150.092375 
L 339.175442 139.961265 
L 339.500422 162.91165 
L 339.825401 149.316371 
L 340.150381 143.229177 
L 340.47536 139.292508 
L 340.80034 162.610993 
L 341.125319 148.591121 
L 341.450299 142.255269 
L 341.775278 138.14579 
L 342.100258 162.124047 
L 342.425237 148.179873 
L 343.075196 137.455498 
L 343.400176 161.835099 
L 343.725155 147.451404 
L 344.050135 140.991124 
L 344.375114 136.788294 
L 344.700094 161.54017 
L 345.025073 146.712436 
L 345.350053 140.007948 
L 345.675033 135.621085 
L 346.000012 161.049553 
L 346.324992 146.295264 
L 346.649971 139.217572 
L 346.974951 134.585881 
L 347.29993 160.612412 
L 347.62491 145.434977 
L 347.949889 138.637587 
L 348.274869 134.178797 
L 348.599848 160.429568 
L 348.924828 144.795757 
L 349.574787 133.03747 
L 349.899766 159.949204 
L 350.224746 144.371451 
L 350.874705 131.986459 
L 351.199684 159.510446 
L 351.524664 143.500297 
L 352.174623 131.045812 
L 352.499603 159.122402 
L 352.824582 142.67381 
L 353.149562 152.144228 
L 353.474541 154.488008 
L 353.799521 168.128609 
L 354.1245 162.845594 
L 354.44948 161.031131 
L 354.774459 160.025383 
L 355.099439 171.043299 
L 355.424418 165.055106 
L 355.749398 162.278052 
L 356.074377 161.285552 
L 356.399357 171.670596 
L 356.724336 165.942323 
L 357.049316 163.27992 
L 357.374295 161.821594 
L 357.699275 171.943525 
L 358.024254 166.61921 
L 358.349234 164.154603 
L 358.674214 162.811241 
L 358.999193 172.413417 
L 359.324173 166.895914 
L 359.649152 164.310868 
L 359.974132 163.42778 
L 360.299111 172.69737 
L 360.624091 167.574324 
L 360.94907 165.182116 
L 361.27405 163.880424 
L 361.599029 172.926721 
L 361.924009 168.21933 
L 362.248988 166.028247 
L 362.573968 164.846573 
L 362.898947 173.388555 
L 363.223927 168.487276 
L 363.548906 166.693704 
L 363.873886 165.707465 
L 364.198865 173.799019 
L 364.523845 169.231367 
L 364.848824 167.079282 
L 365.173804 165.91683 
L 365.498784 173.90737 
L 365.823763 169.799691 
L 366.148743 167.879322 
L 366.473722 166.846109 
L 366.798702 174.354521 
L 367.123681 170.055585 
L 367.448661 168.530258 
L 367.77364 167.690996 
L 368.09862 174.76911 
L 368.423599 170.803171 
L 368.748579 168.910908 
L 369.073558 168.412019 
L 369.398538 175.113535 
L 369.723517 171.497811 
L 370.048497 169.773346 
L 370.373476 168.858384 
L 370.698456 175.340941 
L 371.023435 171.627437 
L 371.348415 170.347226 
L 371.673395 169.650896 
L 371.998374 175.725653 
L 372.323354 172.334322 
L 372.648333 170.712769 
L 372.973313 170.356831 
L 373.298292 176.063603 
L 373.623272 173.015456 
L 373.948251 171.567185 
L 374.273231 170.801061 
L 374.59821 176.287938 
L 374.59821 176.287938 
" clip-path="url(#pe6cf386113)" style="fill: none; stroke-dasharray: 0.74,0.32; stroke-dashoffset: 0; stroke: #ff4500; stroke-width: 0.2"/>
   </g>
   <g id="line2d_14">
    <path d="M 49.943665 184.751717 
L 50.268644 183.297346 
L 50.593624 182.443842 
L 50.918603 181.944171 
L 51.568562 181.481702 
L 52.543501 181.290846 
L 55.143337 181.24475 
L 114.61459 181.244148 
L 114.93957 183.031708 
L 115.264549 180.989841 
L 115.914508 173.089171 
L 118.839324 128.963691 
L 120.139242 114.114861 
L 121.43916 102.776583 
L 122.739078 93.723975 
L 123.714017 88.157243 
L 124.688956 83.68689 
L 125.988874 78.921998 
L 127.288792 75.192215 
L 127.613771 74.38365 
L 127.938751 19.296 
L 129.888628 104.858456 
L 130.538587 122.311418 
L 131.188546 134.843288 
L 131.838505 143.602961 
L 132.488464 149.666684 
L 133.138423 153.846983 
L 133.788382 156.712905 
L 134.438341 158.665958 
L 135.0883 159.985012 
L 135.738259 160.872637 
L 136.388218 161.446625 
L 137.363157 161.916361 
L 138.338096 162.089913 
L 139.638014 162.062319 
L 141.587891 161.780787 
L 144.187727 161.170283 
L 147.112543 160.368158 
L 147.437522 133.015909 
L 147.762502 131.627673 
L 148.087481 132.862283 
L 149.387399 140.045548 
L 150.037358 142.315547 
L 150.687318 143.819449 
L 151.337277 144.839669 
L 152.312215 145.860278 
L 153.612133 146.776041 
L 155.56201 147.81348 
L 159.136785 149.40595 
L 164.986417 151.728625 
L 174.735802 155.379566 
L 179.610495 157.253113 
L 179.935475 170.520676 
L 180.260454 173.514924 
L 180.585434 174.507868 
L 180.910413 174.340459 
L 181.560372 172.865458 
L 182.535311 170.415732 
L 183.18527 169.173999 
L 183.835229 168.25239 
L 184.810168 167.30886 
L 185.785106 166.701853 
L 187.085024 166.175743 
L 189.034901 165.659638 
L 194.559553 164.60119 
L 201.709103 163.118194 
L 208.858652 161.295622 
L 212.108448 160.376319 
L 212.433427 133.023005 
L 212.758407 131.633323 
L 213.083386 132.866711 
L 214.383304 140.047185 
L 215.033263 142.316523 
L 215.683223 143.820034 
L 216.333182 144.840024 
L 217.30812 145.860433 
L 218.608038 146.7761 
L 220.557915 147.813486 
L 224.13269 149.405953 
L 229.982322 151.728625 
L 239.731707 155.379566 
L 244.6064 157.253113 
L 244.93138 165.232755 
L 245.256359 168.780074 
L 245.581339 170.763012 
L 245.906318 171.938454 
L 246.231298 172.646978 
L 246.881257 173.339123 
L 247.531216 173.576661 
L 248.506155 173.609132 
L 250.456032 173.346176 
L 256.630643 172.416105 
L 262.480274 171.811819 
L 267.029987 171.550362 
L 273.529578 171.427205 
L 277.104353 171.448856 
L 277.429332 161.74846 
L 278.404271 168.508293 
L 279.05423 171.209523 
L 279.704189 172.608755 
L 280.354148 173.309626 
L 281.004107 173.675674 
L 282.304025 174.038658 
L 288.153657 175.055707 
L 293.678309 176.19543 
L 298.877981 177.488159 
L 303.752674 178.934002 
L 308.952346 180.718488 
L 310.252264 181.153291 
L 311.552182 181.235391 
L 321.301568 181.244147 
L 374.59821 181.244147 
L 374.59821 181.244147 
" clip-path="url(#pe6cf386113)" style="fill: none; stroke: #c71585; stroke-linecap: square"/>
   </g>
   <g id="line2d_15">
    <path d="M 49.943665 186.942419 
L 50.268644 186.35079 
L 50.593624 186.051125 
L 51.243583 185.837473 
L 52.86848 185.766762 
L 85.041453 185.764489 
L 136.063239 185.764489 
L 136.388218 196.12114 
L 136.713198 183.192532 
L 137.363157 217.76571 
L 137.688137 230.653199 
L 138.013116 186.630797 
L 138.338096 219.103295 
L 138.988055 241.81746 
L 139.313034 188.54271 
L 139.638014 224.129318 
L 140.287973 245.704047 
L 140.612952 189.423811 
L 140.937932 226.203157 
L 141.587891 247.793422 
L 141.91287 190.057365 
L 142.23785 227.548097 
L 142.887809 249.429251 
L 143.212788 190.63258 
L 143.537768 228.712302 
L 144.187727 250.920965 
L 144.512707 191.169221 
L 144.837686 229.796383 
L 145.487645 252.414 
L 145.812625 191.712736 
L 146.137604 230.902178 
L 146.787563 253.894839 
L 147.112543 192.274381 
L 147.437522 232.002778 
L 148.087481 255.39914 
L 148.412461 192.839717 
L 148.73744 233.055148 
L 149.387399 256.817311 
L 149.712379 193.38024 
L 150.037358 234.147025 
L 150.687318 258.295265 
L 151.012297 193.939078 
L 151.337277 235.246658 
L 151.987236 259.792961 
L 152.312215 194.503092 
L 152.637195 236.363256 
L 153.287154 261.216 
L 153.612133 195.043975 
L 153.937113 204.572185 
L 154.262092 205.031003 
L 154.587072 205.817084 
L 154.912051 190.976941 
L 155.237031 197.073178 
L 155.88699 202.384854 
L 156.211969 190.399601 
L 156.536949 196.315467 
L 157.186908 202.741872 
L 157.511888 190.800531 
L 157.836867 196.554133 
L 158.486826 203.476822 
L 158.811806 191.23015 
L 159.136785 197.211218 
L 159.786744 203.906196 
L 160.111724 191.413725 
L 160.436703 197.692967 
L 161.086662 204.817958 
L 161.411642 191.903303 
L 162.061601 202.167532 
L 162.38658 205.625507 
L 162.71156 192.333803 
L 163.036539 198.789421 
L 163.686499 206.067587 
L 164.011478 192.51701 
L 164.336458 199.291108 
L 164.986417 206.995222 
L 165.311396 193.01363 
L 165.961355 204.134772 
L 166.286335 207.819406 
L 166.611314 193.461186 
L 166.936294 200.430756 
L 167.586253 208.525207 
L 167.911232 193.863851 
L 168.236212 201.113905 
L 168.886171 209.299656 
L 169.21115 194.189515 
L 169.861109 206.172452 
L 170.186089 210.081934 
L 170.511069 194.619724 
L 170.836048 202.088152 
L 171.486007 210.785442 
L 171.810987 195.026194 
L 172.135966 202.80126 
L 172.785925 211.572522 
L 173.110905 195.356883 
L 173.435884 203.445307 
L 174.085843 212.6105 
L 174.410823 195.899977 
L 174.735802 203.894531 
L 175.385761 213.123536 
L 175.710741 196.226136 
L 176.03572 204.527534 
L 176.68568 213.862753 
L 177.010659 196.541844 
L 177.335639 205.169108 
L 177.985598 214.908976 
L 178.310577 197.091579 
L 178.960536 211.310394 
L 179.285516 215.783328 
L 179.610495 197.572593 
L 179.935475 191.034277 
L 180.260454 190.24677 
L 180.585434 190.101931 
L 180.910413 190.732082 
L 181.235393 188.409023 
L 181.560372 189.329692 
L 182.210331 190.505197 
L 182.535311 188.47172 
L 182.86029 189.34072 
L 183.51025 190.347966 
L 183.835229 188.313932 
L 184.160209 189.220991 
L 184.810168 190.16341 
L 185.135147 188.123239 
L 185.460127 188.957864 
L 186.110086 190.028717 
L 186.435065 188.065166 
L 186.760045 188.82252 
L 187.085024 189.216492 
L 187.410004 189.807727 
L 187.734983 187.859943 
L 188.059963 188.658466 
L 188.384942 189.037207 
L 188.709922 189.617074 
L 189.034901 187.67451 
L 189.359881 188.402058 
L 189.684861 188.839844 
L 190.00984 189.498715 
L 190.33482 187.513006 
L 190.659799 188.174445 
L 190.984779 188.57846 
L 191.309758 189.239762 
L 191.634738 187.410232 
L 191.959717 188.113857 
L 192.284697 188.46246 
L 192.609676 189.09374 
L 192.934656 187.250044 
L 193.259635 187.888678 
L 193.584615 188.281945 
L 193.909594 188.979752 
L 194.234574 187.106067 
L 195.209512 188.746971 
L 195.534492 187.007893 
L 195.859471 187.541822 
L 196.184451 187.832874 
L 196.509431 188.550179 
L 196.83441 186.837658 
L 197.809349 188.488842 
L 198.134328 186.730746 
L 199.109267 188.279344 
L 199.434246 186.636033 
L 199.759226 187.094565 
L 200.084205 187.347255 
L 200.409185 188.097914 
L 200.734164 186.485394 
L 201.059144 186.960105 
L 201.384123 187.209476 
L 201.709103 187.946835 
L 202.034082 186.345756 
L 202.684042 187.046293 
L 203.009021 187.845392 
L 203.334001 186.298719 
L 203.98396 186.897137 
L 204.308939 187.686903 
L 204.633919 186.157461 
L 205.283878 186.771883 
L 205.608857 187.562849 
L 205.933837 186.055416 
L 206.583796 186.619481 
L 206.908775 187.436687 
L 207.233755 185.956261 
L 207.883714 186.489661 
L 208.208693 187.31186 
L 208.533673 185.863798 
L 209.183632 186.350206 
L 209.508612 187.191308 
L 209.833591 185.770952 
L 210.48355 186.224493 
L 210.80853 187.06721 
L 211.133509 185.683611 
L 211.783468 186.101677 
L 212.108448 186.950716 
L 212.433427 185.600209 
L 213.083386 185.981952 
L 213.408366 186.846178 
L 213.733345 185.526911 
L 214.383304 185.872147 
L 214.708284 186.73482 
L 215.033263 185.450799 
L 215.683223 185.763285 
L 216.008202 186.632409 
L 216.333182 185.378651 
L 216.983141 185.657156 
L 217.30812 186.534403 
L 217.6331 185.311861 
L 218.283059 185.561478 
L 218.608038 186.441857 
L 218.933018 185.249699 
L 219.582977 185.47364 
L 219.907956 186.354592 
L 220.232936 185.192848 
L 220.882895 185.377224 
L 221.207874 186.269189 
L 221.532854 185.138951 
L 222.182813 185.294247 
L 222.507793 186.191431 
L 222.832772 185.090616 
L 223.157752 186.201814 
L 223.482731 188.145121 
L 223.807711 184.86115 
L 224.782649 191.56063 
L 225.107629 185.473775 
L 225.432608 188.920847 
L 226.082567 192.94089 
L 226.407547 185.975629 
L 226.732526 189.635806 
L 227.382485 193.740038 
L 227.707465 186.338366 
L 228.032444 190.16058 
L 228.682404 194.429022 
L 229.007383 186.673607 
L 229.332363 190.645062 
L 229.982322 195.110061 
L 230.307301 187.013273 
L 230.632281 191.134805 
L 231.28224 195.766683 
L 231.607219 187.343895 
L 231.932199 191.617858 
L 232.582158 196.446406 
L 232.907137 187.683483 
L 233.232117 192.118703 
L 233.882076 197.130889 
L 234.207055 188.030568 
L 234.532035 192.619892 
L 235.181994 197.810482 
L 235.506974 188.363433 
L 235.831953 193.11572 
L 236.481912 198.512106 
L 236.806892 188.714367 
L 237.131871 193.635652 
L 237.78183 199.209655 
L 238.10681 189.07162 
L 238.431789 194.144992 
L 239.081748 199.941799 
L 239.406728 189.432427 
L 239.731707 194.643565 
L 240.381666 200.626899 
L 240.706646 189.78645 
L 241.031625 195.155365 
L 241.681585 201.34791 
L 242.006564 190.152289 
L 242.331544 195.654343 
L 242.981503 202.022585 
L 243.306482 190.537498 
L 243.631462 196.291765 
L 244.281421 202.7615 
L 244.6064 190.843753 
L 244.93138 196.880636 
L 245.581339 203.732083 
L 245.906318 191.34301 
L 246.231298 197.308437 
L 246.881257 204.207582 
L 247.206236 191.642285 
L 247.531216 197.88184 
L 248.181175 204.917363 
L 248.506155 191.944347 
L 248.831134 198.458824 
L 249.481093 205.892094 
L 249.806073 192.442853 
L 250.131052 198.884678 
L 250.781011 206.370513 
L 251.105991 192.757821 
L 251.43097 199.491766 
L 252.080929 207.093954 
L 252.405909 193.054797 
L 252.730888 200.093257 
L 253.380847 208.088472 
L 253.705827 193.571744 
L 254.355786 205.13028 
L 254.680766 208.921367 
L 255.005745 194.030746 
L 255.330725 201.258327 
L 255.980684 209.377417 
L 256.305663 194.222034 
L 256.630643 201.778137 
L 257.280602 210.344387 
L 257.605581 194.729957 
L 258.25554 207.165273 
L 258.58052 211.192955 
L 258.905499 195.195277 
L 259.230479 202.946714 
L 259.880438 211.917373 
L 260.205417 195.610641 
L 260.530397 203.645829 
L 261.180356 212.722462 
L 261.505336 195.943628 
L 262.155295 209.249372 
L 262.480274 213.492477 
L 262.805254 196.379012 
L 263.130233 204.658206 
L 263.780192 214.217286 
L 264.105172 196.79942 
L 264.430151 205.368809 
L 265.08011 215.012981 
L 265.40509 197.135668 
L 265.730069 206.028306 
L 266.055049 211.705941 
L 266.380028 194.16379 
L 266.705008 192.837548 
L 267.029987 189.078042 
L 268.004926 190.494238 
L 268.329906 188.379663 
L 268.654885 189.350524 
L 269.304844 190.532936 
L 269.629824 188.370728 
L 269.954803 189.247139 
L 270.604762 190.313398 
L 270.929742 188.300381 
L 271.254721 189.10956 
L 271.90468 190.079335 
L 272.22966 188.088512 
L 272.554639 188.937734 
L 273.204598 190.021385 
L 273.529578 187.947888 
L 273.854557 188.707506 
L 274.504517 189.766114 
L 274.829496 187.841273 
L 275.154476 188.550738 
L 275.479455 188.927888 
L 275.804435 189.542464 
L 276.129414 187.642751 
L 276.454394 188.383742 
L 276.779373 188.746229 
L 277.104353 189.357243 
L 277.429332 187.459732 
L 277.754312 188.14286 
L 278.079291 188.55667 
L 278.404271 189.227932 
L 278.72925 187.404406 
L 279.05423 188.023087 
L 279.379209 188.357687 
L 279.704189 189.027103 
L 280.029168 187.220839 
L 280.354148 187.87176 
L 280.679128 188.197254 
L 281.004107 188.854996 
L 281.329087 187.054476 
L 282.304025 188.735039 
L 282.629005 186.910872 
L 283.603943 188.505475 
L 283.928923 186.821198 
L 284.253902 187.387429 
L 284.578882 187.676761 
L 284.903861 188.374559 
L 285.228841 186.678655 
L 286.203779 188.269249 
L 286.528759 186.558874 
L 287.503698 188.064543 
L 287.828677 186.469672 
L 288.153657 186.88834 
L 288.478636 187.119245 
L 288.803616 187.888399 
L 289.128595 186.319731 
L 289.778554 187.036408 
L 290.103534 187.839565 
L 290.428513 186.229488 
L 291.078472 186.843157 
L 291.403452 187.649522 
L 291.728431 186.12797 
L 292.37839 186.716595 
L 292.70337 187.518902 
L 293.028349 186.02351 
L 293.678309 186.570297 
L 294.003288 187.388516 
L 294.328268 185.925223 
L 294.978227 186.445072 
L 295.303206 187.266624 
L 295.628186 185.833128 
L 296.278145 186.309471 
L 296.603124 187.143583 
L 296.928104 185.741838 
L 297.578063 186.183392 
L 297.903042 187.023286 
L 298.228022 185.654781 
L 298.877981 186.060482 
L 299.20296 186.908902 
L 299.52794 185.572762 
L 300.177899 185.947213 
L 300.502879 186.807265 
L 300.827858 185.498638 
L 301.477817 185.835559 
L 301.802797 186.70225 
L 302.127776 185.424049 
L 302.777735 185.728561 
L 303.102715 186.60107 
L 303.427694 185.354788 
L 304.077653 185.621027 
L 304.402633 186.502185 
L 304.727612 185.29078 
L 305.377571 185.528385 
L 305.702551 186.411767 
L 306.02753 185.230605 
L 306.67749 185.440005 
L 307.002469 186.324207 
L 307.327449 185.173961 
L 307.977408 185.347476 
L 308.302387 186.243088 
L 308.627367 185.122433 
L 309.277326 185.267986 
L 309.602305 186.165736 
L 309.927285 182.164131 
L 310.252264 180.919097 
L 310.577244 181.00271 
L 310.902223 181.278381 
L 311.552182 180.966997 
L 311.877162 181.469291 
L 312.202141 181.324191 
L 312.527121 181.488868 
L 312.8521 181.402321 
L 313.17708 181.930923 
L 313.50206 181.53464 
L 313.827039 181.778441 
L 314.152019 181.758037 
L 314.476998 182.332176 
L 314.801978 181.749476 
L 315.126957 182.054489 
L 315.451937 182.104666 
L 315.776916 182.728549 
L 316.101896 181.964103 
L 316.426875 182.330922 
L 316.751855 182.453493 
L 317.076834 183.129099 
L 317.401814 182.181584 
L 317.726793 182.598912 
L 318.051773 182.787703 
L 318.376752 183.520145 
L 318.701732 182.397058 
L 319.026711 182.880072 
L 319.351691 183.146252 
L 319.676671 183.932591 
L 320.00165 182.622014 
L 320.976589 184.350665 
L 321.301568 182.853257 
L 322.276507 184.763444 
L 322.601486 183.078362 
L 323.576425 185.194921 
L 323.901404 183.315088 
L 324.876343 185.637066 
L 325.201322 183.557254 
L 326.176261 186.070884 
L 326.501241 183.79172 
L 327.476179 186.530715 
L 327.801159 184.040953 
L 328.776097 186.982415 
L 329.101077 184.278931 
L 330.076015 187.510831 
L 330.400995 184.587785 
L 331.375933 187.918302 
L 331.700913 184.853135 
L 332.675852 188.446229 
L 333.000831 185.069672 
L 333.97577 188.902132 
L 334.300749 185.355041 
L 335.275688 189.319591 
L 335.600667 185.625884 
L 336.575606 189.856868 
L 336.900585 185.848139 
L 337.875524 190.338875 
L 338.200503 186.145634 
L 339.175442 190.769226 
L 339.500422 186.428811 
L 340.47536 191.310728 
L 340.80034 186.658157 
L 341.775278 191.986972 
L 342.100258 187.044372 
L 343.075196 192.294105 
L 343.400176 187.269625 
L 344.375114 192.831666 
L 344.700094 187.493643 
L 345.675033 193.524651 
L 346.000012 187.894787 
L 346.974951 194.096434 
L 347.29993 188.243483 
L 348.274869 194.420349 
L 348.599848 188.379922 
L 349.574787 195.090916 
L 349.899766 188.773887 
L 350.874705 195.673604 
L 351.199684 189.131399 
L 352.174623 196.148738 
L 352.499603 189.451034 
L 352.824582 192.115308 
L 353.149562 183.810224 
L 353.474541 183.227932 
L 353.799521 186.318358 
L 354.1245 183.892024 
L 354.774459 183.98363 
L 355.099439 186.271057 
L 355.424418 184.339396 
L 356.074377 184.274362 
L 356.399357 186.284696 
L 356.724336 184.428901 
L 357.374295 184.260436 
L 357.699275 186.251332 
L 358.024254 184.447779 
L 358.674214 184.248214 
L 358.999193 186.141823 
L 359.324173 184.424565 
L 359.974132 184.286585 
L 360.299111 186.076234 
L 360.624091 184.427986 
L 361.27405 184.235498 
L 361.599029 186.031651 
L 361.924009 184.443207 
L 362.573968 184.235539 
L 362.898947 185.937532 
L 363.223927 184.423174 
L 363.873886 184.25274 
L 364.198865 185.859774 
L 364.523845 184.434556 
L 365.173804 184.236308 
L 365.498784 185.846354 
L 365.823763 184.466053 
L 366.473722 184.251297 
L 366.798702 185.76896 
L 367.123681 184.4505 
L 367.77364 184.281644 
L 368.09862 185.719969 
L 368.423599 184.487134 
L 369.073558 184.334792 
L 369.398538 185.674019 
L 369.723517 184.521164 
L 370.373476 184.309381 
L 370.698456 185.64654 
L 371.023435 184.518211 
L 371.673395 184.350834 
L 371.998374 185.600142 
L 372.323354 184.55935 
L 372.648333 184.420697 
L 372.973313 184.413003 
L 373.298292 185.564814 
L 373.623272 184.595761 
L 374.273231 184.409908 
L 374.59821 185.542721 
L 374.59821 185.542721 
" clip-path="url(#pe6cf386113)" style="fill: none; stroke-dasharray: 0.74,0.32; stroke-dashoffset: 0; stroke: #c71585; stroke-width: 0.2"/>
   </g>
   <g id="line2d_16">
    <path d="M 49.943665 184.577547 
L 50.593624 183.738713 
L 51.243583 183.423545 
L 52.218521 183.283161 
L 55.143337 183.246248 
L 114.61459 183.24594 
L 114.93957 174.906613 
L 115.589529 164.937716 
L 116.889447 148.954936 
L 118.189365 136.080475 
L 119.489283 126.122147 
L 120.789201 118.747102 
L 121.76414 114.358006 
L 122.739078 110.978963 
L 124.038996 107.382193 
L 125.013935 105.312868 
L 126.313853 103.352818 
L 127.613771 101.867902 
L 127.938751 83.287585 
L 128.26373 79.403185 
L 128.58871 79.654383 
L 128.913689 81.612653 
L 129.563648 87.972607 
L 130.863566 101.777144 
L 131.513526 107.14079 
L 132.163485 111.196569 
L 132.813444 114.111177 
L 133.463403 116.127817 
L 134.113362 117.436792 
L 134.763321 118.214707 
L 135.41328 118.592292 
L 136.063239 118.671966 
L 136.713198 118.532511 
L 137.688137 118.029931 
L 138.988055 116.986788 
L 140.612952 115.330586 
L 142.562829 112.985113 
L 144.512707 110.277633 
L 147.112543 106.282595 
L 147.437522 82.113214 
L 147.762502 81.878612 
L 148.412461 86.044856 
L 149.387399 92.612282 
L 150.362338 97.44077 
L 151.337277 100.832148 
L 152.312215 103.350844 
L 153.612133 106.002764 
L 155.237031 108.769722 
L 157.186908 111.652066 
L 159.461765 114.627036 
L 162.061601 117.677273 
L 164.986417 120.739908 
L 167.586253 123.178815 
L 170.186089 125.338617 
L 173.110905 127.480437 
L 176.68568 129.798604 
L 179.610495 131.446835 
L 179.935475 139.688289 
L 180.260454 140.073066 
L 180.585434 139.672775 
L 182.86029 134.608767 
L 183.835229 133.289957 
L 184.810168 132.345316 
L 186.110086 131.389359 
L 188.709922 129.834274 
L 192.934656 127.307953 
L 195.534492 125.450069 
L 198.134328 123.29125 
L 201.059144 120.513285 
L 203.65898 117.771092 
L 206.583796 114.318804 
L 208.858652 111.259032 
L 211.458489 107.324986 
L 212.108448 106.291261 
L 212.433427 82.121265 
L 212.758407 81.885448 
L 213.408366 86.049482 
L 214.383304 92.614807 
L 215.358243 97.442045 
L 216.333182 100.832794 
L 217.30812 103.351158 
L 218.608038 106.002868 
L 220.232936 108.769761 
L 222.182813 111.652077 
L 224.45767 114.627036 
L 227.057506 117.677273 
L 229.982322 120.739908 
L 232.582158 123.178815 
L 235.181994 125.338617 
L 238.10681 127.480437 
L 241.681585 129.798604 
L 244.6064 131.446835 
L 244.93138 153.683098 
L 245.256359 163.224255 
L 245.581339 168.562235 
L 245.906318 171.674853 
L 246.231298 173.526832 
L 246.556277 174.642783 
L 246.881257 175.317274 
L 247.531216 175.956867 
L 248.181175 176.145223 
L 249.156114 176.110317 
L 251.105991 175.717318 
L 255.005745 174.665404 
L 259.555458 173.223656 
L 263.780192 171.650918 
L 268.004926 169.83433 
L 271.579701 168.076048 
L 275.154476 166.069622 
L 277.104353 164.873623 
L 277.429332 159.545728 
L 278.079291 165.204196 
L 278.72925 168.754104 
L 279.379209 170.814931 
L 280.029168 172.022979 
L 280.679128 172.780891 
L 281.654066 173.528417 
L 283.278964 174.41808 
L 286.528759 175.900063 
L 291.078472 177.724068 
L 295.953165 179.427942 
L 301.152838 180.995335 
L 306.67749 182.422317 
L 310.252264 183.201506 
L 312.527121 183.245356 
L 374.59821 183.24594 
L 374.59821 183.24594 
" clip-path="url(#pe6cf386113)" style="fill: none; stroke: #4682b4; stroke-linecap: square"/>
   </g>
   <g id="line2d_17">
    <path d="M 49.943665 182.402691 
L 50.268644 181.166592 
L 50.593624 180.538602 
L 50.918603 180.219181 
L 51.568562 179.975897 
L 52.86848 179.895963 
L 65.867661 179.890105 
L 136.063239 179.890105 
L 136.388218 165.451194 
L 136.713198 170.911918 
L 137.363157 152.093186 
L 137.688137 146.066169 
L 138.013116 160.835352 
L 138.663075 146.493648 
L 138.988055 141.603928 
L 139.313034 158.74666 
L 139.962993 144.762767 
L 140.287973 139.936631 
L 140.612952 158.096777 
L 141.262911 143.656131 
L 141.587891 138.713567 
L 141.91287 157.708043 
L 142.562829 142.633124 
L 142.887809 137.528676 
L 143.212788 157.359555 
L 143.862747 141.584235 
L 144.187727 136.402254 
L 144.512707 157.030179 
L 145.162666 140.543928 
L 145.487645 135.201295 
L 145.812625 156.685014 
L 146.462584 139.466046 
L 146.787563 133.951423 
L 147.112543 156.335145 
L 147.762502 138.389304 
L 148.087481 132.708247 
L 148.412461 155.98324 
L 149.06242 137.322725 
L 149.387399 131.483387 
L 149.712379 155.633872 
L 150.362338 136.228507 
L 150.687318 130.216306 
L 151.012297 155.277606 
L 151.662256 135.112062 
L 151.987236 128.924618 
L 152.312215 154.914411 
L 152.962174 134.067076 
L 153.287154 127.663868 
L 153.612133 154.570257 
L 153.937113 142.401202 
L 154.262092 136.519631 
L 154.587072 132.759656 
L 154.912051 160.009342 
L 155.237031 144.901519 
L 155.56201 137.861386 
L 155.88699 133.582303 
L 156.211969 160.674964 
L 156.536949 144.321562 
L 156.861928 136.786757 
L 157.186908 132.150195 
L 157.511888 160.314038 
L 157.836867 143.948726 
L 158.161847 135.662527 
L 158.486826 130.67298 
L 158.811806 159.892993 
L 159.136785 142.72221 
L 159.461765 135.028451 
L 159.786744 130.279394 
L 160.111724 159.761553 
L 160.436703 141.753398 
L 160.761683 133.64854 
L 161.086662 128.611814 
L 161.411642 159.288203 
L 161.736621 141.310961 
L 162.061601 132.449464 
L 162.38658 127.056683 
L 162.71156 158.838868 
L 163.036539 140.053221 
L 163.361519 131.790782 
L 163.686499 126.647029 
L 164.011478 158.700367 
L 164.336458 139.070556 
L 164.661437 130.382032 
L 164.986417 124.948848 
L 165.311396 158.218653 
L 165.636376 138.603474 
L 165.961355 129.160615 
L 166.286335 123.363441 
L 166.611314 157.779129 
L 166.936294 137.32159 
L 167.586253 121.949923 
L 167.911232 157.406863 
L 168.236212 136.092999 
L 168.561191 126.917136 
L 168.886171 121.12357 
L 169.21115 157.13206 
L 169.53613 135.827783 
L 169.861109 125.800795 
L 170.186089 119.593612 
L 170.511069 156.720962 
L 170.836048 134.546486 
L 171.486007 118.153188 
L 171.810987 156.350363 
L 172.135966 133.310616 
L 172.460946 123.530071 
L 172.785925 117.31501 
L 173.110905 156.074908 
L 173.435884 132.141123 
L 173.760864 121.977161 
L 174.085843 115.488364 
L 174.410823 155.583219 
L 174.735802 131.646173 
L 175.385761 114.268779 
L 175.710741 155.292599 
L 176.03572 130.462526 
L 176.3607 120.090618 
L 176.68568 113.445574 
L 177.010659 155.028776 
L 177.335639 129.286855 
L 177.660618 118.514235 
L 177.985598 111.591203 
L 178.310577 154.534298 
L 178.635557 128.784991 
L 178.960536 117.193724 
L 179.285516 109.895633 
L 179.610495 154.098715 
L 179.935475 136.70796 
L 180.260454 129.124596 
L 180.585434 124.706935 
L 180.910413 155.890259 
L 181.235393 137.961693 
L 181.560372 130.278565 
L 181.885352 125.924121 
L 182.210331 156.232591 
L 182.535311 138.042998 
L 182.86029 131.184597 
L 183.18527 127.220307 
L 183.51025 156.656597 
L 183.835229 139.186499 
L 184.160209 131.67668 
L 184.485188 128.433419 
L 184.810168 157.070502 
L 185.135147 140.339152 
L 185.460127 133.131818 
L 185.785106 129.102734 
L 186.110086 157.339092 
L 186.435065 140.513604 
L 186.760045 134.159353 
L 187.085024 130.504298 
L 187.410004 157.843972 
L 187.734983 141.719866 
L 188.059963 134.707322 
L 188.384942 131.754956 
L 188.709922 158.284755 
L 189.034901 142.876801 
L 189.359881 136.153311 
L 189.684861 132.421687 
L 190.00984 158.576155 
L 190.33482 143.921865 
L 190.659799 137.537993 
L 190.984779 134.002662 
L 191.309758 159.148573 
L 191.634738 144.288913 
L 191.959717 137.732982 
L 192.284697 135.040292 
L 192.609676 159.513063 
L 192.934656 145.370902 
L 193.259635 139.130964 
L 193.584615 135.678782 
L 193.909594 159.795214 
L 194.234574 146.390973 
L 194.559553 140.487108 
L 194.884533 137.224691 
L 195.209512 160.387447 
L 195.534492 146.761616 
L 195.859471 141.568657 
L 196.184451 138.616103 
L 196.509431 160.917007 
L 196.83441 147.925693 
L 197.15939 142.10203 
L 197.484369 138.894175 
L 197.809349 161.027925 
L 198.134328 148.82854 
L 198.459308 143.379485 
L 198.784287 140.382153 
L 199.109267 161.609436 
L 199.434246 149.177164 
L 199.759226 144.430496 
L 200.084205 141.744897 
L 200.409185 162.142044 
L 200.734164 150.323553 
L 201.059144 144.956492 
L 201.384123 142.899083 
L 201.709103 162.585593 
L 202.034082 151.394021 
L 202.359062 146.303161 
L 202.684042 143.51565 
L 203.009021 162.867021 
L 203.334001 151.559606 
L 203.65898 147.231566 
L 203.98396 144.796044 
L 204.308939 163.374068 
L 204.633919 152.740588 
L 204.958898 148.027152 
L 205.283878 145.715815 
L 205.608857 163.743064 
L 205.933837 153.504605 
L 206.258816 148.965354 
L 206.583796 146.728576 
L 206.908775 164.173266 
L 207.233755 154.300428 
L 207.558734 149.914515 
L 207.883714 147.682803 
L 208.208693 164.561832 
L 208.533673 155.073525 
L 208.858652 150.84522 
L 209.183632 148.687366 
L 209.508612 164.992201 
L 209.833591 155.856157 
L 210.158571 151.775758 
L 210.48355 149.704901 
L 210.80853 165.411473 
L 211.133509 156.634343 
L 211.458489 152.696245 
L 211.783468 150.713525 
L 212.108448 165.840592 
L 212.433427 157.408308 
L 212.758407 153.611698 
L 213.083386 151.703174 
L 213.408366 166.272266 
L 213.733345 158.099404 
L 214.058325 154.484055 
L 214.383304 152.669491 
L 214.708284 166.683078 
L 215.033263 158.85215 
L 215.358243 155.368782 
L 215.683223 153.639928 
L 216.008202 167.105809 
L 216.333182 159.602047 
L 216.658161 156.256362 
L 216.983141 154.608893 
L 217.30812 167.528908 
L 217.6331 160.346151 
L 217.958079 157.060454 
L 218.283059 155.523286 
L 218.608038 167.93176 
L 218.933018 161.072296 
L 219.257997 157.92606 
L 219.582977 156.469199 
L 219.907956 168.352524 
L 220.232936 161.801796 
L 220.557915 158.787923 
L 220.882895 157.387132 
L 221.207874 168.770685 
L 221.532854 162.508807 
L 221.857833 159.64115 
L 222.182813 158.264565 
L 222.507793 169.169078 
L 222.832772 163.205449 
L 223.157752 154.024159 
L 223.482731 149.961643 
L 223.807711 166.09581 
L 224.13269 156.490059 
L 224.45767 151.560486 
L 224.782649 148.552375 
L 225.107629 165.428961 
L 225.432608 155.89617 
L 225.757588 150.880692 
L 226.082567 147.802724 
L 226.407547 165.226925 
L 226.732526 155.352092 
L 227.057506 150.107751 
L 227.382485 146.872386 
L 227.707465 164.930871 
L 228.032444 154.620486 
L 228.357424 149.167507 
L 228.682404 145.803281 
L 229.007383 164.587645 
L 229.332363 153.814877 
L 229.657342 148.17976 
L 229.982322 144.69478 
L 230.307301 164.231022 
L 230.632281 152.980085 
L 230.95726 147.254981 
L 231.28224 143.617084 
L 231.607219 163.885125 
L 231.932199 152.160169 
L 232.257178 146.241838 
L 232.582158 142.46896 
L 232.907137 163.52046 
L 233.232117 151.318113 
L 233.557096 145.21588 
L 233.882076 141.322547 
L 234.207055 163.155859 
L 234.532035 150.449355 
L 234.857014 144.176425 
L 235.181994 140.250525 
L 235.506974 162.814089 
L 235.831953 149.61513 
L 236.156933 143.141504 
L 236.481912 139.082279 
L 236.806892 162.448725 
L 237.131871 148.753714 
L 237.456851 142.084882 
L 237.78183 137.896359 
L 238.10681 162.081783 
L 238.431789 147.865307 
L 238.756769 141.01879 
L 239.081748 136.705205 
L 239.406728 161.712444 
L 239.731707 147.057833 
L 240.056687 139.981372 
L 240.381666 135.520184 
L 240.706646 161.350088 
L 241.031625 146.170965 
L 241.356605 138.907729 
L 241.681585 134.308298 
L 242.006564 160.983498 
L 242.331544 145.348573 
L 242.981503 132.895123 
L 243.306482 160.583128 
L 243.631462 144.174936 
L 243.956441 136.705095 
L 244.281421 132.103325 
L 244.6064 160.306861 
L 244.93138 143.097743 
L 245.256359 135.259132 
L 245.581339 130.419517 
L 245.906318 159.80653 
L 246.231298 142.641435 
L 246.881257 129.296752 
L 247.206236 159.5138 
L 247.531216 141.529053 
L 247.856195 133.502077 
L 248.181175 128.521831 
L 248.506155 159.257941 
L 248.831134 140.436712 
L 249.156114 132.030776 
L 249.481093 126.791866 
L 249.806073 158.745533 
L 250.131052 139.963042 
L 250.781011 125.643129 
L 251.105991 158.456081 
L 251.43097 138.829993 
L 251.75595 130.237465 
L 252.080929 124.856984 
L 252.405909 158.189778 
L 252.730888 137.712117 
L 253.055868 128.736725 
L 253.380847 123.094334 
L 253.705827 157.688452 
L 254.030806 137.234704 
L 254.355786 127.49487 
L 254.680766 121.488948 
L 255.005745 157.251454 
L 255.330725 135.942717 
L 255.655704 126.8241 
L 255.980684 121.067322 
L 256.305663 157.115249 
L 256.630643 134.933204 
L 256.955622 125.37909 
L 257.280602 119.319366 
L 257.605581 156.630813 
L 257.930561 134.460527 
L 258.25554 124.121014 
L 258.58052 117.69186 
L 258.905499 156.19454 
L 259.230479 133.156613 
L 259.880438 116.22996 
L 260.205417 155.819689 
L 260.530397 131.889346 
L 260.855376 121.816528 
L 261.180356 115.400645 
L 261.505336 155.552617 
L 261.830315 131.615977 
L 262.155295 120.67278 
L 262.480274 113.822069 
L 262.805254 155.144156 
L 263.130233 130.312823 
L 263.780192 112.340483 
L 264.105172 154.778856 
L 264.430151 129.030958 
L 264.755131 118.350938 
L 265.08011 111.488499 
L 265.40509 154.50331 
L 265.730069 127.841458 
L 266.055049 116.753266 
L 266.380028 123.762408 
L 266.705008 155.502245 
L 267.029987 137.248343 
L 267.354967 129.246824 
L 267.679947 125.654969 
L 268.004926 156.152438 
L 268.329906 138.068526 
L 268.654885 130.287767 
L 268.979865 125.898309 
L 269.304844 156.215436 
L 269.629824 138.910343 
L 269.954803 131.541417 
L 270.279783 127.405031 
L 270.604762 156.731436 
L 270.929742 139.232581 
L 271.254721 132.649442 
L 271.579701 128.843141 
L 271.90468 157.232937 
L 272.22966 140.446792 
L 272.554639 133.186978 
L 272.879619 129.130409 
L 273.204598 157.350087 
L 273.529578 141.40037 
L 273.854557 134.538727 
L 274.179537 130.703765 
L 274.504517 157.928451 
L 274.829496 141.774112 
L 275.154476 135.663348 
L 275.479455 132.16761 
L 275.804435 158.457939 
L 276.129414 142.98735 
L 276.454394 136.210836 
L 276.779373 133.399716 
L 277.104353 158.897302 
L 277.429332 144.126787 
L 277.754312 137.649754 
L 278.079291 134.0597 
L 278.404271 159.174925 
L 278.72925 144.304924 
L 279.05423 138.651143 
L 279.379209 135.42554 
L 279.704189 159.684123 
L 280.029168 145.476934 
L 280.354148 139.186015 
L 280.679128 136.634706 
L 281.004107 160.129249 
L 281.329087 146.599146 
L 281.654066 140.596613 
L 281.979046 137.281082 
L 282.304025 160.410483 
L 282.629005 147.607458 
L 282.953984 141.939343 
L 283.278964 138.811494 
L 283.603943 160.991969 
L 283.928923 147.979768 
L 284.253902 142.129248 
L 284.578882 139.813239 
L 284.903861 161.354942 
L 285.228841 149.023263 
L 285.55382 143.484221 
L 285.8788 140.435879 
L 286.203779 161.633155 
L 286.528759 150.016055 
L 286.853738 144.797062 
L 287.178718 141.937091 
L 287.503698 162.228087 
L 287.828677 150.374422 
L 288.153657 145.841423 
L 288.478636 143.281045 
L 288.803616 162.758675 
L 289.128595 151.496971 
L 289.453575 146.355701 
L 289.778554 143.5413 
L 290.103534 162.878596 
L 290.428513 152.366154 
L 290.753493 147.588694 
L 291.078472 145.067321 
L 291.403452 163.498551 
L 291.728431 152.967344 
L 292.053411 148.381879 
L 292.37839 146.040866 
L 292.70337 163.880943 
L 293.028349 153.742233 
L 293.353329 149.323955 
L 293.678309 147.061394 
L 294.003288 164.306474 
L 294.328268 154.537694 
L 294.653247 150.189639 
L 294.978227 148.061952 
L 295.303206 164.717326 
L 295.628186 155.318113 
L 295.953165 151.121732 
L 296.278145 149.069693 
L 296.603124 165.140942 
L 296.928104 156.098782 
L 297.253083 152.048056 
L 297.578063 150.082934 
L 297.903042 165.57066 
L 298.228022 156.877427 
L 298.553001 152.969568 
L 298.877981 151.082793 
L 299.20296 165.997068 
L 299.52794 157.647387 
L 299.852919 153.881574 
L 300.177899 151.990265 
L 300.502879 166.390429 
L 300.827858 158.391411 
L 301.152838 154.77498 
L 301.477817 152.964937 
L 301.802797 166.812462 
L 302.127776 159.14488 
L 302.452756 155.658694 
L 302.777735 153.934243 
L 303.102715 167.23517 
L 303.427694 159.89279 
L 303.752674 156.543976 
L 304.077653 154.894536 
L 304.402633 167.655529 
L 304.727612 160.560496 
L 305.052592 157.386437 
L 305.377571 155.828255 
L 305.702551 168.068434 
L 306.02753 161.290304 
L 306.35251 158.251731 
L 306.67749 156.768028 
L 307.002469 168.487873 
L 307.327449 162.016947 
L 307.652428 159.109689 
L 307.977408 157.672075 
L 308.302387 168.90092 
L 308.627367 162.740178 
L 308.952346 159.915773 
L 309.277326 158.563595 
L 309.602305 169.305394 
L 309.927285 167.672901 
L 310.577244 167.865188 
L 310.902223 174.292475 
L 311.227203 171.420271 
L 311.552182 169.884776 
L 311.877162 168.888092 
L 312.202141 174.853351 
L 312.527121 171.431399 
L 312.8521 169.521068 
L 313.17708 168.327153 
L 313.50206 174.679633 
L 313.827039 170.849967 
L 314.152019 168.744926 
L 314.476998 167.422155 
L 314.801978 174.357797 
L 315.126957 170.144791 
L 315.451937 167.881082 
L 315.776916 166.453286 
L 316.101896 174.007928 
L 316.426875 169.411195 
L 316.751855 166.99227 
L 317.076834 165.462215 
L 317.401814 173.650181 
L 317.726793 168.72609 
L 318.051773 166.12432 
L 318.376752 164.476891 
L 318.701732 173.299444 
L 319.026711 167.977608 
L 319.351691 165.214986 
L 319.676671 163.460787 
L 320.00165 172.939015 
L 320.32663 167.213254 
L 320.651609 164.289743 
L 320.976589 162.416112 
L 321.301568 172.576634 
L 321.626548 166.439293 
L 322.276507 161.408919 
L 322.601486 172.224144 
L 322.926466 165.666282 
L 323.576425 160.352469 
L 323.901404 171.857895 
L 324.226384 164.873652 
L 324.876343 159.280112 
L 325.201322 171.488018 
L 325.526302 164.074272 
L 325.851281 160.551111 
L 326.176261 158.2655 
L 326.501241 171.141379 
L 326.82622 163.279095 
L 327.1512 159.588061 
L 327.476179 157.183218 
L 327.801159 170.771503 
L 328.126138 162.460165 
L 328.451118 158.593729 
L 328.776097 156.162673 
L 329.101077 170.41654 
L 329.426056 161.93488 
L 329.751036 157.442232 
L 330.076015 154.758945 
L 330.400995 169.951167 
L 330.725974 160.801447 
L 331.375933 153.534571 
L 331.700913 169.563748 
L 332.025892 159.723254 
L 332.350872 155.419629 
L 332.675852 152.75399 
L 333.000831 169.271945 
L 333.325811 159.459995 
L 333.65079 154.462432 
L 333.97577 151.433076 
L 334.300749 168.851312 
L 334.625729 158.336721 
L 335.275688 150.193242 
L 335.600667 168.467376 
L 335.925647 157.232671 
L 336.250626 152.414897 
L 336.575606 149.387637 
L 336.900585 168.171785 
L 337.225565 156.960614 
L 337.550544 151.427103 
L 337.875524 148.023099 
L 338.200503 167.746954 
L 338.525483 155.803986 
L 339.175442 146.748506 
L 339.500422 167.360376 
L 339.825401 154.674158 
L 340.150381 149.312611 
L 340.47536 145.916028 
L 340.80034 167.060154 
L 341.125319 153.606585 
L 341.450299 147.888497 
L 341.775278 144.242736 
L 342.100258 166.534586 
L 342.425237 153.113 
L 343.075196 143.149209 
L 343.400176 166.219434 
L 343.725155 152.021207 
L 344.050135 146.107903 
L 344.375114 142.327313 
L 344.700094 165.925825 
L 345.025073 150.93603 
L 345.350053 144.640502 
L 345.675033 140.607606 
L 346.000012 165.399454 
L 346.324992 150.417838 
L 346.649971 143.430143 
L 346.974951 139.046052 
L 347.29993 164.933366 
L 347.62491 149.150904 
L 347.949889 142.721676 
L 348.274869 138.579024 
L 348.599848 164.768938 
L 348.924828 148.156209 
L 349.249807 141.300252 
L 349.574787 136.863241 
L 349.899766 164.254136 
L 350.224746 147.653747 
L 350.549725 140.068521 
L 350.874705 135.266119 
L 351.199684 163.784323 
L 351.524664 146.354235 
L 352.174623 133.825299 
L 352.499603 163.376133 
L 352.824582 145.109155 
L 353.149562 148.448749 
L 353.474541 147.313593 
L 353.799521 165.570277 
L 354.1245 155.496149 
L 354.44948 152.062976 
L 354.774459 150.008961 
L 355.099439 166.41517 
L 355.424418 156.942543 
L 355.749398 152.770268 
L 356.074377 151.260339 
L 356.399357 166.859047 
L 356.724336 158.047281 
L 357.049316 154.155181 
L 357.374295 151.949145 
L 357.699275 167.163218 
L 358.024254 159.040468 
L 358.349234 155.468851 
L 358.674214 153.453636 
L 358.999193 167.77346 
L 359.324173 159.431549 
L 359.649152 155.687305 
L 359.974132 154.414744 
L 360.299111 168.142923 
L 360.624091 160.449525 
L 360.94907 157.006731 
L 361.27405 155.069341 
L 361.599029 168.443581 
L 361.924009 161.412105 
L 362.248988 158.278134 
L 362.573968 156.529665 
L 362.898947 169.05044 
L 363.223927 161.792646 
L 363.548906 159.283623 
L 363.873886 157.82676 
L 364.198865 169.588814 
L 364.523845 162.887813 
L 364.848824 159.83067 
L 365.173804 158.122393 
L 365.498784 169.72866 
L 365.823763 163.723906 
L 366.148743 161.016024 
L 366.473722 159.507098 
L 366.798702 170.315763 
L 367.123681 164.085109 
L 367.448661 161.981962 
L 367.77364 160.758439 
L 368.09862 170.8646 
L 368.423599 165.159218 
L 368.748579 162.519269 
L 369.073558 161.827538 
L 369.398538 171.313806 
L 369.723517 166.156729 
L 370.048497 163.770636 
L 370.373476 162.457111 
L 370.698456 171.611845 
L 371.023435 166.336473 
L 371.348415 164.606909 
L 371.673395 163.607178 
L 371.998374 172.11088 
L 372.323354 167.357747 
L 372.648333 165.115355 
L 372.973313 164.630712 
L 373.298292 172.550793 
L 373.623272 168.311578 
L 373.948251 166.337471 
L 374.273231 165.257178 
L 374.59821 172.840191 
L 374.59821 172.840191 
" clip-path="url(#pe6cf386113)" style="fill: none; stroke-dasharray: 0.74,0.32; stroke-dashoffset: 0; stroke: #4682b4; stroke-width: 0.2"/>
   </g>
   <g id="line2d_18">
    <path d="M 49.943665 187.560082 
L 50.593624 187.034847 
L 51.568562 186.846181 
L 54.168399 186.807515 
L 114.61459 186.807112 
L 114.93957 184.673281 
L 115.589529 179.290005 
L 116.239488 175.666702 
L 116.889447 173.233068 
L 117.864385 170.557615 
L 119.164304 167.881875 
L 121.114181 164.612953 
L 124.363976 160.116093 
L 127.288792 156.865627 
L 127.613771 156.545126 
L 127.938751 144.247944 
L 128.26373 146.52766 
L 128.913689 148.933492 
L 129.888628 151.93416 
L 130.863566 154.427155 
L 131.838505 156.179372 
L 132.488464 156.960122 
L 133.138423 157.484618 
L 133.788382 157.78934 
L 134.763321 157.943719 
L 135.738259 157.839426 
L 137.038177 157.433392 
L 138.663075 156.679572 
L 141.91287 154.855274 
L 146.137604 152.219792 
L 147.437522 151.343984 
L 148.087481 157.332691 
L 148.73744 160.891958 
L 149.387399 163.169095 
L 150.037358 164.730016 
L 151.012297 166.34133 
L 151.987236 167.495116 
L 153.612133 168.985715 
L 156.211969 171.000248 
L 160.761683 174.190872 
L 167.261273 178.439215 
L 175.060782 183.278174 
L 179.610495 186.030215 
L 180.260454 178.188799 
L 180.910413 173.673338 
L 181.560372 171.226243 
L 182.210331 169.76713 
L 182.86029 168.810449 
L 183.835229 167.834665 
L 185.135147 166.903768 
L 187.410004 165.613615 
L 202.359062 157.628243 
L 208.858652 153.679438 
L 212.433427 151.34748 
L 213.083386 157.334919 
L 213.733345 160.893352 
L 214.383304 163.169983 
L 215.033263 164.730554 
L 216.008202 166.341597 
L 216.983141 167.495237 
L 218.608038 168.985749 
L 221.207874 171.00025 
L 225.757588 174.190872 
L 232.257178 178.439215 
L 240.056687 183.278174 
L 244.6064 186.030215 
L 244.93138 179.197114 
L 245.256359 175.36388 
L 245.581339 173.122704 
L 246.231298 170.772163 
L 246.881257 169.652779 
L 247.531216 169.031056 
L 248.506155 168.458094 
L 250.781011 167.526762 
L 257.930561 164.934204 
L 277.104353 158.172499 
L 278.079291 167.116222 
L 278.72925 170.05761 
L 279.379209 171.529198 
L 280.029168 172.341183 
L 281.004107 173.070052 
L 282.629005 173.909771 
L 291.403452 177.910478 
L 305.052592 184.270565 
L 310.252264 186.709715 
L 311.552182 186.799046 
L 321.626548 186.807112 
L 374.59821 186.807112 
L 374.59821 186.807112 
" clip-path="url(#pe6cf386113)" style="fill: none; stroke: #6b8e23; stroke-linecap: square"/>
   </g>
   <g id="line2d_19">
    <path d="M 49.943665 188.587821 
L 50.268644 187.587791 
L 50.593624 187.092957 
L 51.243583 186.707921 
L 52.218521 186.591787 
L 56.768235 186.573876 
L 136.063239 186.573874 
L 136.388218 161.173199 
L 136.713198 179.128285 
L 137.038177 152.820489 
L 137.688137 129.025332 
L 138.013116 168.454671 
L 138.338096 139.687353 
L 138.988055 120.45101 
L 139.313034 165.462398 
L 139.638014 135.670725 
L 140.287973 117.387637 
L 140.612952 164.366041 
L 140.937932 134.036355 
L 141.587891 115.821871 
L 141.91287 163.797117 
L 142.23785 133.0576 
L 142.887809 114.680437 
L 143.212788 163.382175 
L 143.537768 132.270713 
L 144.187727 113.691065 
L 144.512707 163.021927 
L 144.837686 131.551578 
L 145.487645 112.718 
L 145.812625 162.670655 
L 146.137604 130.843503 
L 146.787563 111.738974 
L 147.112543 162.313761 
L 147.437522 130.127373 
L 148.087481 110.752878 
L 148.412461 161.959943 
L 148.73744 129.430695 
L 149.387399 109.796409 
L 149.712379 161.608849 
L 150.037358 128.734958 
L 150.687318 108.806595 
L 151.012297 161.246844 
L 151.337277 128.007502 
L 151.987236 107.793877 
L 152.312215 160.879916 
L 152.637195 127.26555 
L 153.287154 106.818772 
L 153.612133 160.52141 
L 153.937113 143.907263 
L 154.587072 135.259484 
L 154.912051 165.972168 
L 155.237031 148.207225 
L 155.88699 137.021452 
L 156.211969 166.67261 
L 156.536949 148.393697 
L 157.186908 136.359442 
L 157.511888 166.398779 
L 157.836867 148.134638 
L 158.486826 135.45442 
L 158.811806 166.024195 
L 159.136785 147.330864 
L 159.786744 135.031499 
L 160.111724 165.840998 
L 160.436703 146.722733 
L 161.086662 133.920055 
L 161.411642 165.3833 
L 161.736621 146.274815 
L 162.38658 132.89437 
L 162.71156 164.955603 
L 163.036539 145.420037 
L 163.686499 132.436114 
L 164.011478 164.755436 
L 164.336458 144.792225 
L 164.986417 131.300721 
L 165.311396 164.282926 
L 165.636376 144.354525 
L 166.286335 130.254932 
L 166.611314 163.849005 
L 166.936294 143.487824 
L 167.586253 129.311989 
L 167.911232 163.464488 
L 168.236212 142.660759 
L 168.886171 128.520133 
L 169.21115 163.121499 
L 169.53613 142.344637 
L 170.186089 127.53504 
L 170.511069 162.712695 
L 170.836048 141.490069 
L 171.486007 126.602917 
L 171.810987 162.320385 
L 172.135966 140.65603 
L 172.785925 125.794594 
L 173.110905 161.971638 
L 173.435884 139.876745 
L 174.085843 124.540348 
L 174.410823 161.449156 
L 174.735802 139.379077 
L 175.385761 123.781123 
L 175.710741 161.138816 
L 176.03572 138.61505 
L 176.68568 123.002574 
L 177.010659 160.801006 
L 177.335639 137.844865 
L 177.985598 121.743698 
L 178.310577 160.270961 
L 178.635557 137.331059 
L 179.285516 120.61991 
L 179.610495 159.802189 
L 179.935475 150.846721 
L 180.260454 148.579362 
L 180.585434 147.394289 
L 180.910413 168.73583 
L 181.235393 157.706264 
L 181.560372 153.527959 
L 181.885352 151.136289 
L 182.210331 170.535207 
L 182.535311 159.039766 
L 182.86029 154.946803 
L 183.18527 152.566332 
L 183.51025 171.186365 
L 183.835229 160.04074 
L 184.160209 155.543272 
L 184.485188 153.483356 
L 184.810168 171.585027 
L 185.135147 160.850797 
L 185.460127 156.54077 
L 185.785106 154.059421 
L 186.110086 171.85213 
L 186.435065 161.041741 
L 186.760045 157.192002 
L 187.085024 154.962475 
L 187.410004 172.240228 
L 187.734983 161.837112 
L 188.059963 157.643001 
L 188.384942 155.77953 
L 188.709922 172.592074 
L 189.034901 162.602748 
L 189.359881 158.601084 
L 189.684861 156.324235 
L 190.00984 172.851365 
L 190.33482 163.2957 
L 190.659799 159.516145 
L 190.984779 157.375108 
L 191.309758 173.306322 
L 191.634738 163.619495 
L 191.959717 159.713537 
L 192.284697 158.027647 
L 192.609676 173.581526 
L 192.934656 164.324605 
L 193.259635 160.628799 
L 193.584615 158.543092 
L 193.909594 173.825268 
L 194.234574 165.004408 
L 194.559553 161.524978 
L 194.884533 159.572634 
L 195.209512 174.277889 
L 195.534492 165.317978 
L 195.859471 162.232693 
L 196.184451 160.485927 
L 196.509431 174.677343 
L 196.83441 166.102398 
L 197.15939 162.670145 
L 197.484369 160.749483 
L 197.809349 174.797424 
L 198.134328 166.695381 
L 198.459308 163.505532 
L 198.784287 161.732442 
L 199.109267 175.230849 
L 199.434246 166.988784 
L 199.759226 164.194263 
L 200.084205 162.626513 
L 200.409185 175.623516 
L 200.734164 167.761229 
L 201.059144 164.621175 
L 201.384123 163.392975 
L 201.709103 175.957469 
L 202.034082 168.486898 
L 202.359062 165.527502 
L 202.684042 163.894811 
L 203.009021 176.196245 
L 203.334001 168.648538 
L 203.65898 166.128597 
L 203.98396 164.726514 
L 204.308939 176.561604 
L 204.633919 169.441297 
L 204.958898 166.712842 
L 205.283878 165.370324 
L 205.608857 176.848443 
L 205.933837 169.978987 
L 206.258816 167.359733 
L 206.583796 166.074541 
L 206.908775 177.16774 
L 207.233755 170.536217 
L 207.558734 168.01649 
L 207.883714 166.737235 
L 208.208693 177.46431 
L 208.533673 171.078489 
L 208.858652 168.660657 
L 209.183632 167.438168 
L 209.508612 177.782926 
L 209.833591 171.630339 
L 210.158571 169.307992 
L 210.48355 168.141682 
L 210.80853 178.097843 
L 211.133509 172.180239 
L 211.458489 169.951003 
L 211.783468 168.840571 
L 212.108448 178.414223 
L 212.433427 172.727561 
L 212.758407 170.591311 
L 213.083386 169.532232 
L 213.408366 178.730136 
L 213.733345 173.223159 
L 214.058325 171.201933 
L 214.383304 170.205869 
L 214.708284 179.034731 
L 215.033263 173.759046 
L 215.358243 171.828846 
L 215.683223 170.887457 
L 216.008202 179.345323 
L 216.333182 174.29538 
L 216.658161 172.456021 
L 216.983141 171.566091 
L 217.30812 179.654496 
L 217.6331 174.828989 
L 217.958079 173.031996 
L 218.283059 172.21554 
L 218.608038 179.9512 
L 218.933018 175.352267 
L 219.257997 173.647732 
L 219.582977 172.882163 
L 219.907956 180.256633 
L 220.232936 175.878742 
L 220.557915 174.262728 
L 220.882895 173.542848 
L 221.207874 180.56259 
L 221.532854 176.393836 
L 221.857833 174.874837 
L 222.182813 174.173957 
L 222.507793 180.854163 
L 222.832772 176.902487 
L 223.157752 163.831197 
L 223.482731 157.065973 
L 223.807711 175.193692 
L 224.13269 160.788134 
L 224.782649 150.331171 
L 225.107629 172.313064 
L 225.432608 157.838918 
L 226.082567 148.281833 
L 226.407547 171.419558 
L 226.732526 156.756091 
L 227.382485 147.219268 
L 227.707465 170.954808 
L 228.032444 156.047606 
L 228.682404 146.352273 
L 229.007383 170.587139 
L 229.332363 155.403873 
L 229.982322 145.52739 
L 230.307301 170.240847 
L 230.632281 154.797426 
L 231.28224 144.741921 
L 231.607219 169.910745 
L 231.932199 154.199384 
L 232.582158 143.928306 
L 232.907137 169.569674 
L 233.232117 153.576399 
L 233.882076 143.0963 
L 234.207055 169.223309 
L 234.532035 152.96822 
L 235.181994 142.302157 
L 235.506974 168.889693 
L 235.831953 152.352912 
L 236.481912 141.466904 
L 236.806892 168.539854 
L 237.131871 151.72377 
L 237.78183 140.614848 
L 238.10681 168.184641 
L 238.431789 151.090854 
L 239.081748 139.761829 
L 239.406728 167.825704 
L 239.731707 150.49904 
L 240.381666 138.915633 
L 240.706646 167.472882 
L 241.031625 149.855548 
L 241.681585 138.049259 
L 242.006564 167.110554 
L 242.331544 149.251925 
L 242.981503 137.139315 
L 243.306482 166.735886 
L 243.631462 148.443502 
L 244.281421 136.395405 
L 244.6064 166.415064 
L 244.93138 147.707277 
L 245.581339 135.232177 
L 245.906318 165.929083 
L 246.231298 147.245208 
L 246.881257 134.53093 
L 247.206236 165.642897 
L 247.531216 146.525154 
L 248.181175 133.812437 
L 248.506155 165.336308 
L 248.831134 145.787302 
L 249.481093 132.63159 
L 249.806073 164.841211 
L 250.131052 145.315419 
L 250.781011 131.917511 
L 251.105991 164.550533 
L 251.43097 144.602196 
L 252.080929 131.188239 
L 252.405909 164.233996 
L 252.730888 143.862844 
L 253.380847 129.986392 
L 253.705827 163.732242 
L 254.030806 143.381259 
L 254.680766 128.913528 
L 255.005745 163.292707 
L 255.330725 142.500556 
L 255.980684 128.434618 
L 256.305663 163.083663 
L 256.630643 141.857558 
L 257.280602 127.274224 
L 257.605581 162.59554 
L 257.930561 141.386152 
L 258.58052 126.190409 
L 258.905499 162.145478 
L 259.230479 140.492259 
L 259.880438 125.221747 
L 260.205417 161.745156 
L 260.530397 139.647275 
L 261.180356 124.419952 
L 261.505336 161.39388 
L 261.830315 139.328081 
L 262.480274 123.397795 
L 262.805254 160.973286 
L 263.130233 138.459774 
L 263.780192 122.443983 
L 264.105172 160.574425 
L 264.430151 137.611788 
L 265.08011 121.615411 
L 265.40509 160.214258 
L 265.730069 136.818259 
L 266.055049 127.197395 
L 266.380028 138.885993 
L 266.705008 164.506029 
L 267.029987 154.133827 
L 267.354967 150.69544 
L 267.679947 149.324792 
L 268.004926 169.646292 
L 268.329906 158.376356 
L 268.654885 153.966853 
L 268.979865 151.42834 
L 269.304844 170.681535 
L 269.629824 159.672829 
L 269.954803 155.30793 
L 270.279783 152.79241 
L 270.604762 171.294279 
L 270.929742 160.118546 
L 271.254721 156.127798 
L 271.579701 153.803264 
L 271.90468 171.731219 
L 272.22966 160.95582 
L 272.554639 156.606229 
L 272.879619 154.100593 
L 273.204598 171.871915 
L 273.529578 161.575844 
L 273.854557 157.482008 
L 274.179537 155.140705 
L 274.504517 172.323703 
L 274.829496 161.895824 
L 275.154476 158.20882 
L 275.479455 156.085716 
L 275.804435 172.735987 
L 276.129414 162.703462 
L 276.454394 158.663157 
L 276.779373 156.895971 
L 277.104353 173.083638 
L 277.429332 163.462659 
L 277.754312 159.616992 
L 278.079291 157.438709 
L 278.404271 173.336814 
L 278.72925 163.640869 
L 279.05423 160.250088 
L 279.379209 158.313819 
L 279.704189 173.716561 
L 280.029168 164.417899 
L 280.354148 160.685799 
L 280.679128 159.105237 
L 281.004107 174.05812 
L 281.329087 165.165483 
L 281.654066 161.622826 
L 281.979046 159.632308 
L 282.304025 174.305983 
L 282.629005 165.844838 
L 282.953984 162.515316 
L 283.278964 160.655165 
L 283.603943 174.75242 
L 283.928923 166.157791 
L 284.253902 162.703941 
L 284.578882 161.290225 
L 284.903861 175.021533 
L 285.228841 166.846038 
L 285.55382 163.597402 
L 285.8788 161.788018 
L 286.203779 175.257353 
L 286.528759 167.513116 
L 286.853738 164.472102 
L 287.178718 162.791328 
L 287.503698 175.701725 
L 287.828677 167.814407 
L 288.153657 165.161225 
L 288.478636 163.678431 
L 288.803616 176.092675 
L 289.128595 168.578103 
L 289.453575 165.582251 
L 289.778554 163.927864 
L 290.103534 176.212124 
L 290.428513 169.157996 
L 290.753493 166.397466 
L 291.078472 164.934846 
L 291.403452 176.662451 
L 291.728431 169.606423 
L 292.053411 166.954386 
L 292.37839 165.601562 
L 292.70337 176.953637 
L 293.028349 170.148067 
L 293.353329 167.602763 
L 293.678309 166.305769 
L 294.003288 177.271799 
L 294.328268 170.704963 
L 294.653247 168.209045 
L 294.978227 166.993127 
L 295.303206 177.578255 
L 295.628186 171.251909 
L 295.953165 168.854995 
L 296.278145 167.694929 
L 296.603124 177.894967 
L 296.928104 171.803091 
L 297.253083 169.500398 
L 297.578063 168.396917 
L 297.903042 178.213109 
L 298.228022 172.353081 
L 298.553001 170.143742 
L 298.877981 169.093523 
L 299.20296 178.528506 
L 299.52794 172.898948 
L 299.852919 170.78258 
L 300.177899 169.734711 
L 300.502879 178.821053 
L 300.827858 173.427891 
L 301.152838 171.409147 
L 301.477817 170.416443 
L 301.802797 179.131078 
L 302.127776 173.965233 
L 302.452756 172.036201 
L 302.777735 171.097622 
L 303.102715 179.441558 
L 303.427694 174.501039 
L 303.752674 172.662497 
L 304.077653 171.775267 
L 304.402633 179.750593 
L 304.727612 174.986104 
L 305.052592 173.260128 
L 305.377571 172.433746 
L 305.702551 180.051701 
L 306.02753 175.511405 
L 306.35251 173.876074 
L 306.67749 173.100495 
L 307.002469 180.357432 
L 307.327449 176.037394 
L 307.652428 174.489969 
L 307.977408 173.749628 
L 308.302387 180.658588 
L 308.627367 176.562948 
L 308.952346 175.073517 
L 309.277326 174.388845 
L 309.602305 180.953096 
L 309.927285 172.746223 
L 310.252264 169.199855 
L 310.577244 166.986178 
L 310.902223 177.898925 
L 311.227203 170.727147 
L 311.552182 167.673718 
L 311.877162 165.705638 
L 312.202141 177.234798 
L 312.527121 169.977305 
L 312.8521 166.915971 
L 313.17708 164.975357 
L 313.50206 176.888937 
L 313.827039 169.440617 
L 314.152019 166.297315 
L 314.476998 164.30285 
L 314.801978 176.583849 
L 315.126957 168.928125 
L 315.451937 165.694367 
L 315.776916 163.639425 
L 316.101896 176.285456 
L 316.426875 168.417216 
L 316.751855 165.090985 
L 317.076834 162.973356 
L 317.401814 175.984287 
L 317.726793 167.942996 
L 318.051773 164.508526 
L 318.376752 162.31829 
L 318.701732 175.69134 
L 319.026711 167.432973 
L 319.351691 163.900933 
L 319.676671 161.644311 
L 320.00165 175.390067 
L 320.32663 166.914372 
L 320.651609 163.285244 
L 320.976589 160.960576 
L 321.301568 175.085639 
L 321.626548 166.391219 
L 321.951527 162.704462 
L 322.276507 160.298913 
L 322.601486 174.790216 
L 322.926466 165.873225 
L 323.251445 162.084982 
L 323.576425 159.608554 
L 323.901404 174.48305 
L 324.226384 165.343794 
L 324.551363 161.455168 
L 324.876343 158.908969 
L 325.201322 174.172073 
L 325.526302 164.810452 
L 325.851281 160.820541 
L 326.176261 158.244001 
L 326.501241 173.876469 
L 326.82622 164.2855 
L 327.1512 160.190629 
L 327.476179 157.539896 
L 327.801159 173.563385 
L 328.126138 163.745444 
L 328.451118 159.547312 
L 328.776097 156.86644 
L 329.101077 173.262641 
L 329.426056 163.379769 
L 329.751036 158.848817 
L 330.076015 155.993982 
L 330.400995 172.877574 
L 330.725974 162.651567 
L 331.375933 155.245435 
L 331.700913 172.550859 
L 332.025892 161.968118 
L 332.350872 157.501055 
L 332.675852 154.658967 
L 333.000831 172.285871 
L 333.325811 161.755885 
L 333.65079 156.939301 
L 333.97577 153.863251 
L 334.300749 171.938171 
L 334.625729 161.050018 
L 335.275688 153.116198 
L 335.600667 171.613227 
L 335.925647 160.36063 
L 336.250626 155.583616 
L 336.575606 152.521673 
L 336.900585 171.342422 
L 337.225565 160.142203 
L 337.550544 155.01442 
L 337.875524 151.70754 
L 338.200503 170.988637 
L 338.525483 159.423986 
L 339.175442 150.947807 
L 339.500422 170.658077 
L 339.825401 158.723752 
L 340.150381 153.633727 
L 340.47536 150.341707 
L 340.80034 170.380255 
L 341.125319 158.070376 
L 341.450299 152.758743 
L 341.775278 149.315646 
L 342.100258 169.930882 
L 342.425237 157.695944 
L 343.075196 148.702903 
L 343.400176 169.664089 
L 343.725155 157.040543 
L 344.050135 151.621085 
L 344.375114 148.098948 
L 344.700094 169.39134 
L 345.025073 156.374043 
L 345.350053 150.740153 
L 345.675033 147.055542 
L 346.000012 168.937854 
L 346.324992 155.995995 
L 346.649971 150.034236 
L 346.974951 146.132423 
L 347.29993 168.533537 
L 347.62491 155.221623 
L 347.949889 149.505771 
L 348.274869 145.760613 
L 348.599848 168.363359 
L 348.924828 154.648586 
L 349.249807 148.66988 
L 349.574787 144.742047 
L 349.899766 167.919071 
L 350.224746 154.26077 
L 350.874705 143.805848 
L 351.199684 167.513413 
L 351.524664 153.477858 
L 352.174623 142.967584 
L 352.499603 167.153778 
L 352.824582 152.734475 
L 353.149562 160.378445 
L 353.474541 161.740886 
L 353.799521 174.03886 
L 354.1245 168.809291 
L 354.44948 166.962706 
L 354.774459 165.929876 
L 355.099439 176.327838 
L 355.424418 170.595215 
L 355.749398 167.966536 
L 356.074377 167.025333 
L 356.399357 176.8804 
L 356.724336 171.411355 
L 357.049316 168.904526 
L 357.374295 167.525978 
L 357.699275 177.138139 
L 358.024254 172.055508 
L 358.349234 169.738016 
L 358.674214 168.469502 
L 358.999193 177.586757 
L 359.324173 172.320362 
L 359.649152 169.888391 
L 359.974132 169.058938 
L 360.299111 177.857492 
L 360.624091 172.96795 
L 360.94907 170.719097 
L 361.27405 169.490715 
L 361.599029 178.077618 
L 361.924009 173.584244 
L 362.248988 171.526748 
L 362.573968 170.411777 
L 362.898947 178.517954 
L 363.223927 173.840613 
L 363.548906 172.162404 
L 363.873886 171.23237 
L 364.198865 178.908852 
L 364.523845 174.550578 
L 364.848824 172.529614 
L 365.173804 171.433741 
L 365.498784 179.013367 
L 365.823763 175.093038 
L 366.148743 173.291381 
L 366.473722 172.318413 
L 366.798702 179.43869 
L 367.123681 175.337367 
L 367.448661 173.912511 
L 367.77364 173.122845 
L 368.09862 179.831646 
L 368.423599 176.049142 
L 368.748579 174.273855 
L 369.073558 173.809128 
L 369.398538 180.158674 
L 369.723517 176.710754 
L 370.048497 175.094209 
L 370.373476 174.232957 
L 370.698456 180.375783 
L 371.023435 176.834983 
L 371.348415 175.641335 
L 371.673395 174.9872 
L 371.998374 180.740728 
L 372.323354 177.506455 
L 372.648333 175.988455 
L 372.973313 175.658427 
L 373.298292 181.060517 
L 373.623272 178.155199 
L 373.948251 176.799053 
L 374.273231 176.078618 
L 374.59821 181.27465 
L 374.59821 181.27465 
" clip-path="url(#pe6cf386113)" style="fill: none; stroke-dasharray: 0.74,0.32; stroke-dashoffset: 0; stroke: #6b8e23; stroke-width: 0.2"/>
   </g>
   <g id="patch_3">
    <path d="M 33.710938 273.312 
L 33.710938 7.2 
" style="fill: none; stroke: #000000; stroke-width: 0.8; stroke-linejoin: miter; stroke-linecap: square"/>
   </g>
   <g id="patch_4">
    <path d="M 390.830938 273.312 
L 390.830938 7.2 
" style="fill: none; stroke: #000000; stroke-width: 0.8; stroke-linejoin: miter; stroke-linecap: square"/>
   </g>
   <g id="patch_5">
    <path d="M 33.710938 273.312 
L 390.830937 273.312 
" style="fill: none; stroke: #000000; stroke-width: 0.8; stroke-linejoin: miter; stroke-linecap: square"/>
   </g>
   <g id="patch_6">
    <path d="M 33.710938 7.2 
L 390.830937 7.2 
" style="fill: none; stroke: #000000; stroke-width: 0.8; stroke-linejoin: miter; stroke-linecap: square"/>
   </g>
   <g id="legend_1">
    <g id="patch_7">
     <path d="M 235.952812 132.625 
L 383.830938 132.625 
Q 385.830938 132.625 385.830938 130.625 
L 385.830938 14.2 
Q 385.830938 12.2 383.830938 12.2 
L 235.952812 12.2 
Q 233.952812 12.2 233.952812 14.2 
L 233.952812 130.625 
Q 233.952812 132.625 235.952812 132.625 
z
" style="fill: #ffffff; opacity: 0.8; stroke: #cccccc; stroke-linejoin: miter"/>
    </g>
    <g id="line2d_20">
     <path d="M 237.952812 20.298437 
L 247.952812 20.298437 
L 257.952812 20.298437 
" style="fill: none; stroke: #ff4500; stroke-linecap: square"/>
    </g>
    <g id="text_12">
     <text style="font: 10px 'DejaVu Sans', 'Bitstream Vera Sans', 'Computer Modern Sans Serif', 'Lucida Grande', 'Verdana', 'Geneva', 'Lucid', 'Arial', 'Helvetica', 'Avant Garde', sans-serif; text-anchor: start" x="265.952812" y="23.798437" transform="rotate(-0 265.952812 23.798437)">Digital prediction DB1</text>
    </g>
    <g id="line2d_21">
     <path d="M 237.952812 34.976562 
L 247.952812 34.976562 
L 257.952812 34.976562 
" style="fill: none; stroke-dasharray: 0.74,0.32; stroke-dashoffset: 0; stroke: #ff4500; stroke-width: 0.2"/>
    </g>
    <g id="text_13">
     <text style="font: 10px 'DejaVu Sans', 'Bitstream Vera Sans', 'Computer Modern Sans Serif', 'Lucida Grande', 'Verdana', 'Geneva', 'Lucid', 'Arial', 'Helvetica', 'Avant Garde', sans-serif; text-anchor: start" x="265.952812" y="38.476562" transform="rotate(-0 265.952812 38.476562)">Analog prediction DB1</text>
    </g>
    <g id="line2d_22">
     <path d="M 237.952812 49.654687 
L 247.952812 49.654687 
L 257.952812 49.654687 
" style="fill: none; stroke: #c71585; stroke-linecap: square"/>
    </g>
    <g id="text_14">
     <text style="font: 10px 'DejaVu Sans', 'Bitstream Vera Sans', 'Computer Modern Sans Serif', 'Lucida Grande', 'Verdana', 'Geneva', 'Lucid', 'Arial', 'Helvetica', 'Avant Garde', sans-serif; text-anchor: start" x="265.952812" y="53.154687" transform="rotate(-0 265.952812 53.154687)">Digital prediction LUAL</text>
    </g>
    <g id="line2d_23">
     <path d="M 237.952812 64.332812 
L 247.952812 64.332812 
L 257.952812 64.332812 
" style="fill: none; stroke-dasharray: 0.74,0.32; stroke-dashoffset: 0; stroke: #c71585; stroke-width: 0.2"/>
    </g>
    <g id="text_15">
     <text style="font: 10px 'DejaVu Sans', 'Bitstream Vera Sans', 'Computer Modern Sans Serif', 'Lucida Grande', 'Verdana', 'Geneva', 'Lucid', 'Arial', 'Helvetica', 'Avant Garde', sans-serif; text-anchor: start" x="265.952812" y="67.832812" transform="rotate(-0 265.952812 67.832812)">Analog prediction LUAL</text>
    </g>
    <g id="line2d_24">
     <path d="M 237.952812 79.010937 
L 247.952812 79.010937 
L 257.952812 79.010937 
" style="fill: none; stroke: #4682b4; stroke-linecap: square"/>
    </g>
    <g id="text_16">
     <text style="font: 10px 'DejaVu Sans', 'Bitstream Vera Sans', 'Computer Modern Sans Serif', 'Lucida Grande', 'Verdana', 'Geneva', 'Lucid', 'Arial', 'Helvetica', 'Avant Garde', sans-serif; text-anchor: start" x="265.952812" y="82.510937" transform="rotate(-0 265.952812 82.510937)">Digital prediction PVR</text>
    </g>
    <g id="line2d_25">
     <path d="M 237.952812 93.689062 
L 247.952812 93.689062 
L 257.952812 93.689062 
" style="fill: none; stroke-dasharray: 0.74,0.32; stroke-dashoffset: 0; stroke: #4682b4; stroke-width: 0.2"/>
    </g>
    <g id="text_17">
     <text style="font: 10px 'DejaVu Sans', 'Bitstream Vera Sans', 'Computer Modern Sans Serif', 'Lucida Grande', 'Verdana', 'Geneva', 'Lucid', 'Arial', 'Helvetica', 'Avant Garde', sans-serif; text-anchor: start" x="265.952812" y="97.189062" transform="rotate(-0 265.952812 97.189062)">Analog prediction PVR</text>
    </g>
    <g id="line2d_26">
     <path d="M 237.952812 108.367187 
L 247.952812 108.367187 
L 257.952812 108.367187 
" style="fill: none; stroke: #6b8e23; stroke-linecap: square"/>
    </g>
    <g id="text_18">
     <text style="font: 10px 'DejaVu Sans', 'Bitstream Vera Sans', 'Computer Modern Sans Serif', 'Lucida Grande', 'Verdana', 'Geneva', 'Lucid', 'Arial', 'Helvetica', 'Avant Garde', sans-serif; text-anchor: start" x="265.952812" y="111.867187" transform="rotate(-0 265.952812 111.867187)">Digital prediction VB1</text>
    </g>
    <g id="line2d_27">
     <path d="M 237.952812 123.045312 
L 247.952812 123.045312 
L 257.952812 123.045312 
" style="fill: none; stroke-dasharray: 0.74,0.32; stroke-dashoffset: 0; stroke: #6b8e23; stroke-width: 0.2"/>
    </g>
    <g id="text_19">
     <text style="font: 10px 'DejaVu Sans', 'Bitstream Vera Sans', 'Computer Modern Sans Serif', 'Lucida Grande', 'Verdana', 'Geneva', 'Lucid', 'Arial', 'Helvetica', 'Avant Garde', sans-serif; text-anchor: start" x="265.952812" y="126.545312" transform="rotate(-0 265.952812 126.545312)">Analog prediction VB1</text>
    </g>
   </g>
  </g>
 </g>
 <defs>
  <clipPath id="pe6cf386113">
   <rect x="33.710938" y="7.2" width="357.12" height="266.112"/>
  </clipPath>
 </defs>
</svg>
