<?xml version="1.0" encoding="utf-8" standalone="no"?>
<!DOCTYPE svg PUBLIC "-//W3C//DTD SVG 1.1//EN"
  "http://www.w3.org/Graphics/SVG/1.1/DTD/svg11.dtd">
<svg xmlns:xlink="http://www.w3.org/1999/xlink" width="398.030937pt" height="297.190125pt" viewBox="0 0 398.030937 297.190125" xmlns="http://www.w3.org/2000/svg" version="1.1">
 <metadata>
  <rdf:RDF xmlns:dc="http://purl.org/dc/elements/1.1/" xmlns:cc="http://creativecommons.org/ns#" xmlns:rdf="http://www.w3.org/1999/02/22-rdf-syntax-ns#">
   <cc:Work>
    <dc:type rdf:resource="http://purl.org/dc/dcmitype/StillImage"/>
    <dc:date>2023-10-23T15:57:14.743032</dc:date>
    <dc:format>image/svg+xml</dc:format>
    <dc:creator>
     <cc:Agent>
      <dc:title>Matplotlib v3.8.0, https://matplotlib.org/</dc:title>
     </cc:Agent>
    </dc:creator>
   </cc:Work>
  </rdf:RDF>
 </metadata>
 <defs>
  <style type="text/css">*{stroke-linejoin: round; stroke-linecap: butt}</style>
 </defs>
 <g id="figure_1">
  <g id="patch_1">
   <path d="M 0 297.190125 
L 398.030937 297.190125 
L 398.030937 0 
L 0 0 
z
" style="fill: #ffffff"/>
  </g>
  <g id="axes_1">
   <g id="patch_2">
    <path d="M 33.710938 140.256 
L 390.830938 140.256 
L 390.830938 7.2 
L 33.710938 7.2 
z
" style="fill: #ffffff"/>
   </g>
   <g id="matplotlib.axis_1">
    <g id="xtick_1">
     <g id="line2d_1">
      <defs>
       <path id="m205c0dbf14" d="M 0 0 
L 0 3.5 
" style="stroke: #000000; stroke-width: 0.8"/>
      </defs>
      <g>
       <use xlink:href="#m205c0dbf14" x="49.943665" y="140.256" style="stroke: #000000; stroke-width: 0.8"/>
      </g>
     </g>
    </g>
    <g id="xtick_2">
     <g id="line2d_2">
      <g>
       <use xlink:href="#m205c0dbf14" x="114.93957" y="140.256" style="stroke: #000000; stroke-width: 0.8"/>
      </g>
     </g>
    </g>
    <g id="xtick_3">
     <g id="line2d_3">
      <g>
       <use xlink:href="#m205c0dbf14" x="179.935475" y="140.256" style="stroke: #000000; stroke-width: 0.8"/>
      </g>
     </g>
    </g>
    <g id="xtick_4">
     <g id="line2d_4">
      <g>
       <use xlink:href="#m205c0dbf14" x="244.93138" y="140.256" style="stroke: #000000; stroke-width: 0.8"/>
      </g>
     </g>
    </g>
    <g id="xtick_5">
     <g id="line2d_5">
      <g>
       <use xlink:href="#m205c0dbf14" x="309.927285" y="140.256" style="stroke: #000000; stroke-width: 0.8"/>
      </g>
     </g>
    </g>
    <g id="xtick_6">
     <g id="line2d_6">
      <g>
       <use xlink:href="#m205c0dbf14" x="374.92319" y="140.256" style="stroke: #000000; stroke-width: 0.8"/>
      </g>
     </g>
    </g>
   </g>
   <g id="matplotlib.axis_2">
    <g id="ytick_1">
     <g id="line2d_7">
      <defs>
       <path id="md9de51a0ff" d="M 0 0 
L -3.5 0 
" style="stroke: #000000; stroke-width: 0.8"/>
      </defs>
      <g>
       <use xlink:href="#md9de51a0ff" x="33.710938" y="134.208" style="stroke: #000000; stroke-width: 0.8"/>
      </g>
     </g>
     <g id="text_1">
      <text style="font: 10px 'DejaVu Sans', 'Bitstream Vera Sans', 'Computer Modern Sans Serif', 'Lucida Grande', 'Verdana', 'Geneva', 'Lucid', 'Arial', 'Helvetica', 'Avant Garde', sans-serif; text-anchor: end" x="26.710938" y="138.007219" transform="rotate(-0 26.710938 138.007219)">0.0</text>
     </g>
    </g>
    <g id="ytick_2">
     <g id="line2d_8">
      <g>
       <use xlink:href="#md9de51a0ff" x="33.710938" y="107.782865" style="stroke: #000000; stroke-width: 0.8"/>
      </g>
     </g>
     <g id="text_2">
      <text style="font: 10px 'DejaVu Sans', 'Bitstream Vera Sans', 'Computer Modern Sans Serif', 'Lucida Grande', 'Verdana', 'Geneva', 'Lucid', 'Arial', 'Helvetica', 'Avant Garde', sans-serif; text-anchor: end" x="26.710938" y="111.582083" transform="rotate(-0 26.710938 111.582083)">0.5</text>
     </g>
    </g>
    <g id="ytick_3">
     <g id="line2d_9">
      <g>
       <use xlink:href="#md9de51a0ff" x="33.710938" y="81.357729" style="stroke: #000000; stroke-width: 0.8"/>
      </g>
     </g>
     <g id="text_3">
      <text style="font: 10px 'DejaVu Sans', 'Bitstream Vera Sans', 'Computer Modern Sans Serif', 'Lucida Grande', 'Verdana', 'Geneva', 'Lucid', 'Arial', 'Helvetica', 'Avant Garde', sans-serif; text-anchor: end" x="26.710938" y="85.156948" transform="rotate(-0 26.710938 85.156948)">1.0</text>
     </g>
    </g>
    <g id="ytick_4">
     <g id="line2d_10">
      <g>
       <use xlink:href="#md9de51a0ff" x="33.710938" y="54.932594" style="stroke: #000000; stroke-width: 0.8"/>
      </g>
     </g>
     <g id="text_4">
      <text style="font: 10px 'DejaVu Sans', 'Bitstream Vera Sans', 'Computer Modern Sans Serif', 'Lucida Grande', 'Verdana', 'Geneva', 'Lucid', 'Arial', 'Helvetica', 'Avant Garde', sans-serif; text-anchor: end" x="26.710938" y="58.731813" transform="rotate(-0 26.710938 58.731813)">1.5</text>
     </g>
    </g>
    <g id="ytick_5">
     <g id="line2d_11">
      <g>
       <use xlink:href="#md9de51a0ff" x="33.710938" y="28.507459" style="stroke: #000000; stroke-width: 0.8"/>
      </g>
     </g>
     <g id="text_5">
      <text style="font: 10px 'DejaVu Sans', 'Bitstream Vera Sans', 'Computer Modern Sans Serif', 'Lucida Grande', 'Verdana', 'Geneva', 'Lucid', 'Arial', 'Helvetica', 'Avant Garde', sans-serif; text-anchor: end" x="26.710938" y="32.306677" transform="rotate(-0 26.710938 32.306677)">2.0</text>
     </g>
    </g>
   </g>
   <g id="line2d_12">
    <path d="M 49.943665 134.208 
L 114.93957 134.200601 
L 179.610495 60.580174 
L 179.935475 134.208 
L 374.59821 134.208 
L 374.59821 134.208 
" clip-path="url(#p038bd00e82)" style="fill: none; stroke: #ff4500; stroke-width: 1.5; stroke-linecap: square"/>
   </g>
   <g id="line2d_13">
    <path d="M 49.943665 134.208 
L 114.93957 134.200601 
L 179.610495 60.580174 
L 179.935475 134.208 
L 374.59821 134.208 
L 374.59821 134.208 
" clip-path="url(#p038bd00e82)" style="fill: none; stroke-dasharray: 5.55,2.4; stroke-dashoffset: 0; stroke: #c71585; stroke-width: 1.5"/>
   </g>
   <g id="line2d_14">
    <path d="M 49.943665 134.208 
L 114.93957 134.195844 
L 179.610495 13.248 
L 179.935475 134.208 
L 374.59821 134.208 
L 374.59821 134.208 
" clip-path="url(#p038bd00e82)" style="fill: none; stroke-dasharray: 9.6,2.4,1.5,2.4; stroke-dashoffset: 0; stroke: #4682b4; stroke-width: 1.5"/>
   </g>
   <g id="line2d_15">
    <path d="M 49.943665 134.208 
L 114.93957 134.195844 
L 179.610495 13.248 
L 179.935475 134.208 
L 374.59821 134.208 
L 374.59821 134.208 
" clip-path="url(#p038bd00e82)" style="fill: none; stroke-dasharray: 2.5,4.125; stroke-dashoffset: 0; stroke: #6b8e23; stroke-width: 2.5"/>
   </g>
   <g id="patch_3">
    <path d="M 33.710938 140.256 
L 33.710938 7.2 
" style="fill: none; stroke: #000000; stroke-width: 0.8; stroke-linejoin: miter; stroke-linecap: square"/>
   </g>
   <g id="patch_4">
    <path d="M 390.830938 140.256 
L 390.830938 7.2 
" style="fill: none; stroke: #000000; stroke-width: 0.8; stroke-linejoin: miter; stroke-linecap: square"/>
   </g>
   <g id="patch_5">
    <path d="M 33.710938 140.256 
L 390.830937 140.256 
" style="fill: none; stroke: #000000; stroke-width: 0.8; stroke-linejoin: miter; stroke-linecap: square"/>
   </g>
   <g id="patch_6">
    <path d="M 33.710938 7.2 
L 390.830937 7.2 
" style="fill: none; stroke: #000000; stroke-width: 0.8; stroke-linejoin: miter; stroke-linecap: square"/>
   </g>
   <g id="legend_1">
    <g id="patch_7">
     <path d="M 319.666875 73.9125 
L 383.830938 73.9125 
Q 385.830938 73.9125 385.830938 71.9125 
L 385.830938 14.2 
Q 385.830938 12.2 383.830938 12.2 
L 319.666875 12.2 
Q 317.666875 12.2 317.666875 14.2 
L 317.666875 71.9125 
Q 317.666875 73.9125 319.666875 73.9125 
z
" style="fill: #ffffff; opacity: 0.8; stroke: #cccccc; stroke-linejoin: miter"/>
    </g>
    <g id="line2d_16">
     <path d="M 321.666875 20.298437 
L 331.666875 20.298437 
L 341.666875 20.298437 
" style="fill: none; stroke: #ff4500; stroke-width: 1.5; stroke-linecap: square"/>
    </g>
    <g id="text_6">
     <text style="font: 10px 'DejaVu Sans', 'Bitstream Vera Sans', 'Computer Modern Sans Serif', 'Lucida Grande', 'Verdana', 'Geneva', 'Lucid', 'Arial', 'Helvetica', 'Avant Garde', sans-serif; text-anchor: start" x="349.666875" y="23.798437" transform="rotate(-0 349.666875 23.798437)">PLML2</text>
    </g>
    <g id="line2d_17">
     <path d="M 321.666875 34.976562 
L 331.666875 34.976562 
L 341.666875 34.976562 
" style="fill: none; stroke-dasharray: 5.55,2.4; stroke-dashoffset: 0; stroke: #c71585; stroke-width: 1.5"/>
    </g>
    <g id="text_7">
     <text style="font: 10px 'DejaVu Sans', 'Bitstream Vera Sans', 'Computer Modern Sans Serif', 'Lucida Grande', 'Verdana', 'Geneva', 'Lucid', 'Arial', 'Helvetica', 'Avant Garde', sans-serif; text-anchor: start" x="349.666875" y="38.476562" transform="rotate(-0 349.666875 38.476562)">PLMR</text>
    </g>
    <g id="line2d_18">
     <path d="M 321.666875 49.654687 
L 331.666875 49.654687 
L 341.666875 49.654687 
" style="fill: none; stroke-dasharray: 9.6,2.4,1.5,2.4; stroke-dashoffset: 0; stroke: #4682b4; stroke-width: 1.5"/>
    </g>
    <g id="text_8">
     <text style="font: 10px 'DejaVu Sans', 'Bitstream Vera Sans', 'Computer Modern Sans Serif', 'Lucida Grande', 'Verdana', 'Geneva', 'Lucid', 'Arial', 'Helvetica', 'Avant Garde', sans-serif; text-anchor: start" x="349.666875" y="53.154687" transform="rotate(-0 349.666875 53.154687)">AVBL</text>
    </g>
    <g id="line2d_19">
     <path d="M 321.666875 64.332812 
L 331.666875 64.332812 
L 341.666875 64.332812 
" style="fill: none; stroke-dasharray: 2.5,4.125; stroke-dashoffset: 0; stroke: #6b8e23; stroke-width: 2.5"/>
    </g>
    <g id="text_9">
     <text style="font: 10px 'DejaVu Sans', 'Bitstream Vera Sans', 'Computer Modern Sans Serif', 'Lucida Grande', 'Verdana', 'Geneva', 'Lucid', 'Arial', 'Helvetica', 'Avant Garde', sans-serif; text-anchor: start" x="349.666875" y="67.832812" transform="rotate(-0 349.666875 67.832812)">AVBR</text>
    </g>
   </g>
  </g>
  <g id="axes_2">
   <g id="patch_8">
    <path d="M 33.710938 273.312 
L 390.830938 273.312 
L 390.830938 140.256 
L 33.710938 140.256 
z
" style="fill: #ffffff"/>
   </g>
   <g id="matplotlib.axis_3">
    <g id="xtick_7">
     <g id="line2d_20">
      <g>
       <use xlink:href="#m205c0dbf14" x="49.943665" y="273.312" style="stroke: #000000; stroke-width: 0.8"/>
      </g>
     </g>
     <g id="text_10">
      <text style="font: 10px 'DejaVu Sans', 'Bitstream Vera Sans', 'Computer Modern Sans Serif', 'Lucida Grande', 'Verdana', 'Geneva', 'Lucid', 'Arial', 'Helvetica', 'Avant Garde', sans-serif; text-anchor: middle" x="49.943665" y="287.910437" transform="rotate(-0 49.943665 287.910437)">0</text>
     </g>
    </g>
    <g id="xtick_8">
     <g id="line2d_21">
      <g>
       <use xlink:href="#m205c0dbf14" x="114.93957" y="273.312" style="stroke: #000000; stroke-width: 0.8"/>
      </g>
     </g>
     <g id="text_11">
      <text style="font: 10px 'DejaVu Sans', 'Bitstream Vera Sans', 'Computer Modern Sans Serif', 'Lucida Grande', 'Verdana', 'Geneva', 'Lucid', 'Arial', 'Helvetica', 'Avant Garde', sans-serif; text-anchor: middle" x="114.93957" y="287.910437" transform="rotate(-0 114.93957 287.910437)">100</text>
     </g>
    </g>
    <g id="xtick_9">
     <g id="line2d_22">
      <g>
       <use xlink:href="#m205c0dbf14" x="179.935475" y="273.312" style="stroke: #000000; stroke-width: 0.8"/>
      </g>
     </g>
     <g id="text_12">
      <text style="font: 10px 'DejaVu Sans', 'Bitstream Vera Sans', 'Computer Modern Sans Serif', 'Lucida Grande', 'Verdana', 'Geneva', 'Lucid', 'Arial', 'Helvetica', 'Avant Garde', sans-serif; text-anchor: middle" x="179.935475" y="287.910437" transform="rotate(-0 179.935475 287.910437)">200</text>
     </g>
    </g>
    <g id="xtick_10">
     <g id="line2d_23">
      <g>
       <use xlink:href="#m205c0dbf14" x="244.93138" y="273.312" style="stroke: #000000; stroke-width: 0.8"/>
      </g>
     </g>
     <g id="text_13">
      <text style="font: 10px 'DejaVu Sans', 'Bitstream Vera Sans', 'Computer Modern Sans Serif', 'Lucida Grande', 'Verdana', 'Geneva', 'Lucid', 'Arial', 'Helvetica', 'Avant Garde', sans-serif; text-anchor: middle" x="244.93138" y="287.910437" transform="rotate(-0 244.93138 287.910437)">300</text>
     </g>
    </g>
    <g id="xtick_11">
     <g id="line2d_24">
      <g>
       <use xlink:href="#m205c0dbf14" x="309.927285" y="273.312" style="stroke: #000000; stroke-width: 0.8"/>
      </g>
     </g>
     <g id="text_14">
      <text style="font: 10px 'DejaVu Sans', 'Bitstream Vera Sans', 'Computer Modern Sans Serif', 'Lucida Grande', 'Verdana', 'Geneva', 'Lucid', 'Arial', 'Helvetica', 'Avant Garde', sans-serif; text-anchor: middle" x="309.927285" y="287.910437" transform="rotate(-0 309.927285 287.910437)">400</text>
     </g>
    </g>
    <g id="xtick_12">
     <g id="line2d_25">
      <g>
       <use xlink:href="#m205c0dbf14" x="374.92319" y="273.312" style="stroke: #000000; stroke-width: 0.8"/>
      </g>
     </g>
     <g id="text_15">
      <text style="font: 10px 'DejaVu Sans', 'Bitstream Vera Sans', 'Computer Modern Sans Serif', 'Lucida Grande', 'Verdana', 'Geneva', 'Lucid', 'Arial', 'Helvetica', 'Avant Garde', sans-serif; text-anchor: middle" x="374.92319" y="287.910437" transform="rotate(-0 374.92319 287.910437)">500</text>
     </g>
    </g>
   </g>
   <g id="matplotlib.axis_4">
    <g id="ytick_6">
     <g id="line2d_26">
      <g>
       <use xlink:href="#md9de51a0ff" x="33.710938" y="255.025973" style="stroke: #000000; stroke-width: 0.8"/>
      </g>
     </g>
     <g id="text_16">
      <text style="font: 10px 'DejaVu Sans', 'Bitstream Vera Sans', 'Computer Modern Sans Serif', 'Lucida Grande', 'Verdana', 'Geneva', 'Lucid', 'Arial', 'Helvetica', 'Avant Garde', sans-serif; text-anchor: end" x="26.710938" y="258.825191" transform="rotate(-0 26.710938 258.825191)">-0.5</text>
     </g>
    </g>
    <g id="ytick_7">
     <g id="line2d_27">
      <g>
       <use xlink:href="#md9de51a0ff" x="33.710938" y="228.418037" style="stroke: #000000; stroke-width: 0.8"/>
      </g>
     </g>
     <g id="text_17">
      <text style="font: 10px 'DejaVu Sans', 'Bitstream Vera Sans', 'Computer Modern Sans Serif', 'Lucida Grande', 'Verdana', 'Geneva', 'Lucid', 'Arial', 'Helvetica', 'Avant Garde', sans-serif; text-anchor: end" x="26.710938" y="232.217256" transform="rotate(-0 26.710938 232.217256)">0.0</text>
     </g>
    </g>
    <g id="ytick_8">
     <g id="line2d_28">
      <g>
       <use xlink:href="#md9de51a0ff" x="33.710938" y="201.810101" style="stroke: #000000; stroke-width: 0.8"/>
      </g>
     </g>
     <g id="text_18">
      <text style="font: 10px 'DejaVu Sans', 'Bitstream Vera Sans', 'Computer Modern Sans Serif', 'Lucida Grande', 'Verdana', 'Geneva', 'Lucid', 'Arial', 'Helvetica', 'Avant Garde', sans-serif; text-anchor: end" x="26.710938" y="205.60932" transform="rotate(-0 26.710938 205.60932)">0.5</text>
     </g>
    </g>
    <g id="ytick_9">
     <g id="line2d_29">
      <g>
       <use xlink:href="#md9de51a0ff" x="33.710938" y="175.202166" style="stroke: #000000; stroke-width: 0.8"/>
      </g>
     </g>
     <g id="text_19">
      <text style="font: 10px 'DejaVu Sans', 'Bitstream Vera Sans', 'Computer Modern Sans Serif', 'Lucida Grande', 'Verdana', 'Geneva', 'Lucid', 'Arial', 'Helvetica', 'Avant Garde', sans-serif; text-anchor: end" x="26.710938" y="179.001385" transform="rotate(-0 26.710938 179.001385)">1.0</text>
     </g>
    </g>
    <g id="ytick_10">
     <g id="line2d_30">
      <g>
       <use xlink:href="#md9de51a0ff" x="33.710938" y="148.59423" style="stroke: #000000; stroke-width: 0.8"/>
      </g>
     </g>
     <g id="text_20">
      <text style="font: 10px 'DejaVu Sans', 'Bitstream Vera Sans', 'Computer Modern Sans Serif', 'Lucida Grande', 'Verdana', 'Geneva', 'Lucid', 'Arial', 'Helvetica', 'Avant Garde', sans-serif; text-anchor: end" x="26.710938" y="152.393449" transform="rotate(-0 26.710938 152.393449)">1.5</text>
     </g>
    </g>
   </g>
   <g id="line2d_31">
    <path d="M 49.943665 231.877069 
L 116.889447 231.795051 
L 118.839324 231.501711 
L 120.789201 230.99324 
L 123.064058 230.149176 
L 125.338915 229.069525 
L 127.938751 227.592608 
L 130.863566 225.667318 
L 134.113362 223.242293 
L 137.688137 220.309865 
L 144.187727 214.585306 
L 151.987236 206.708803 
L 159.786744 198.535633 
L 170.186089 187.24338 
L 177.985598 178.507377 
L 179.935475 176.306613 
L 180.260454 176.57198 
L 180.910413 177.82077 
L 182.210331 181.177143 
L 186.435065 192.561183 
L 188.384942 197.127972 
L 190.33482 201.164987 
L 192.284697 204.712793 
L 194.234574 207.82581 
L 196.184451 210.557801 
L 198.134328 212.957464 
L 200.409185 215.393777 
L 202.684042 217.494043 
L 204.958898 219.307533 
L 207.558734 221.08207 
L 210.158571 222.588297 
L 213.083386 224.015494 
L 216.333182 225.327845 
L 219.907956 226.502681 
L 223.807711 227.529312 
L 228.032444 228.407014 
L 232.907137 229.188285 
L 238.756769 229.883871 
L 245.581339 230.459338 
L 254.030806 230.936504 
L 264.755131 231.309386 
L 279.704189 231.58927 
L 302.452756 231.770352 
L 346.649971 231.860062 
L 374.59821 231.87155 
L 374.59821 231.87155 
" clip-path="url(#peebd707752)" style="fill: none; stroke: #c71585; stroke-linecap: square"/>
   </g>
   <g id="line2d_32">
    <path d="M 49.943665 229.3053 
L 50.268644 228.603553 
L 50.918603 227.950634 
L 51.568562 227.727488 
L 52.86848 227.625955 
L 60.01803 227.612867 
L 114.93957 227.610436 
L 115.589529 227.292198 
L 116.889447 226.235476 
L 123.064058 220.958028 
L 127.288792 217.663833 
L 131.838505 214.409395 
L 135.738259 211.895991 
L 139.962993 209.451142 
L 143.862747 207.442104 
L 148.087481 205.483013 
L 151.662256 204.052877 
L 155.237031 202.82508 
L 158.486826 201.861218 
L 164.011478 200.238596 
L 168.886171 198.940941 
L 172.785925 197.873968 
L 174.735802 197.145851 
L 176.3607 196.507731 
L 178.310577 195.797924 
L 179.610495 195.1584 
L 179.935475 146.304 
L 180.585434 194.507793 
L 180.910413 207.595588 
L 181.235393 215.688945 
L 181.560372 220.561966 
L 181.885352 223.463629 
L 182.210331 225.179312 
L 182.535311 226.188994 
L 182.86029 226.781245 
L 183.51025 227.330233 
L 184.160209 227.517113 
L 185.785106 227.606512 
L 200.084205 227.612866 
L 374.59821 227.612866 
L 374.59821 227.612866 
" clip-path="url(#peebd707752)" style="fill: none; stroke-dasharray: 3.7,1.6; stroke-dashoffset: 0; stroke: #c71585"/>
   </g>
   <g id="line2d_33">
    <path d="M 49.943665 230.362334 
L 50.593624 229.932276 
L 51.568562 229.811627 
L 56.118276 229.793973 
L 137.363157 229.690376 
L 137.688137 229.61816 
L 138.013116 229.703973 
L 138.988055 229.402756 
L 139.313034 229.593102 
L 139.962993 229.300264 
L 140.287973 229.213445 
L 140.612952 229.496512 
L 141.262911 229.116967 
L 141.587891 229.020096 
L 141.91287 229.393268 
L 142.562829 228.972317 
L 142.887809 228.867123 
L 143.212788 229.306771 
L 143.862747 228.832403 
L 144.187727 228.727939 
L 144.512707 229.228573 
L 144.837686 228.891065 
L 145.487645 228.621344 
L 145.812625 229.167797 
L 146.137604 228.808702 
L 146.787563 228.527929 
L 147.112543 229.111962 
L 147.437522 228.718149 
L 148.087481 228.459953 
L 148.412461 229.064823 
L 148.73744 228.657559 
L 149.387399 228.416705 
L 149.712379 229.026546 
L 150.037358 228.617653 
L 150.687318 228.394906 
L 151.012297 228.998191 
L 151.337277 228.591705 
L 151.987236 228.394301 
L 152.312215 228.972823 
L 152.637195 228.580192 
L 153.287154 228.421314 
L 153.612133 228.960803 
L 153.937113 228.593221 
L 154.587072 228.473138 
L 154.912051 228.958374 
L 155.237031 228.619514 
L 155.56201 228.530819 
L 155.88699 228.565354 
L 156.211969 228.963662 
L 156.536949 228.668879 
L 156.861928 228.611152 
L 157.186908 228.668946 
L 157.511888 228.979323 
L 157.836867 228.731482 
L 158.161847 228.70978 
L 158.811806 229.005439 
L 159.136785 228.819886 
L 159.786744 228.960953 
L 160.111724 229.03735 
L 160.436703 228.9373 
L 160.761683 228.980809 
L 161.086662 229.153944 
L 161.736621 229.07172 
L 162.061601 229.16201 
L 162.38658 229.369068 
L 162.71156 229.132559 
L 163.361519 229.348507 
L 163.686499 229.597983 
L 164.011478 229.186451 
L 164.986417 229.900345 
L 165.311396 229.264395 
L 166.286335 230.191251 
L 166.611314 229.334608 
L 167.586253 230.541717 
L 167.911232 229.423723 
L 168.561191 230.443631 
L 168.886171 230.930638 
L 169.21115 229.513808 
L 169.861109 230.785327 
L 170.186089 231.351853 
L 170.511069 229.620845 
L 170.836048 230.553969 
L 171.486007 231.767381 
L 171.810987 229.725178 
L 172.135966 230.834118 
L 172.785925 232.231233 
L 173.110905 229.842848 
L 173.435884 231.221991 
L 174.085843 232.739506 
L 174.410823 229.972836 
L 174.735802 231.531717 
L 175.385761 233.064326 
L 175.710741 230.043923 
L 176.3607 232.911975 
L 176.68568 233.951421 
L 177.010659 230.277331 
L 177.335639 232.435024 
L 177.985598 234.486938 
L 178.310577 230.407565 
L 178.635557 232.718419 
L 179.285516 234.817506 
L 179.610495 230.47331 
L 179.935475 233.329669 
L 180.585434 236.014776 
L 180.910413 230.793718 
L 181.235393 233.827989 
L 181.885352 236.565478 
L 182.210331 230.9033 
L 182.535311 234.120233 
L 183.18527 236.940972 
L 183.51025 230.975951 
L 183.835229 234.829375 
L 184.485188 238.33603 
L 184.810168 231.339646 
L 185.135147 235.407185 
L 185.785106 238.860973 
L 186.110086 231.448662 
L 186.435065 235.819591 
L 187.085024 239.307228 
L 187.410004 231.535215 
L 187.734983 236.637756 
L 188.384942 240.898804 
L 188.709922 231.940852 
L 189.034901 237.293573 
L 189.684861 241.499944 
L 190.00984 232.066061 
L 190.33482 237.664381 
L 190.984779 242.02637 
L 191.309758 232.166424 
L 191.634738 238.599035 
L 192.284697 243.818641 
L 192.609676 232.608163 
L 192.934656 239.349123 
L 193.584615 244.501332 
L 193.909594 232.744898 
L 194.234574 239.778813 
L 194.884533 245.981359 
L 195.209512 233.06169 
L 195.534492 241.053878 
L 196.184451 247.29028 
L 196.509431 233.365445 
L 196.83441 241.704702 
L 197.484369 247.973233 
L 197.809349 233.491471 
L 198.134328 242.142252 
L 198.784287 249.270898 
L 199.109267 233.789902 
L 199.434246 243.363384 
L 200.084205 250.19164 
L 200.409185 234.028057 
L 200.734164 243.680754 
L 201.384123 252.078311 
L 201.709103 234.278162 
L 202.034082 245.451295 
L 202.684042 254.224708 
L 203.009021 234.781781 
L 203.334001 246.952777 
L 203.98396 255.354554 
L 204.308939 235.061882 
L 204.633919 247.363595 
L 205.283878 255.549315 
L 205.608857 235.097705 
L 205.933837 247.436155 
L 206.583796 257.094286 
L 206.908775 235.475331 
L 207.233755 248.755244 
L 207.883714 259.670479 
L 208.208693 235.836229 
L 208.533673 250.944911 
L 209.183632 261.085395 
L 209.508612 236.159683 
L 209.833591 251.488497 
L 210.48355 263.012381 
L 210.80853 236.60167 
L 211.133509 253.037988 
L 211.783468 263.674157 
L 212.108448 236.746103 
L 212.433427 253.284764 
L 213.083386 263.814427 
L 213.408366 236.77086 
L 213.733345 253.33671 
L 214.058325 261.607666 
L 214.383304 266.978192 
L 214.708284 237.076618 
L 215.033263 255.638751 
L 215.683223 267.237645 
L 216.008202 237.014299 
L 216.333182 255.72235 
L 216.983141 267.264 
L 217.30812 236.975407 
L 217.6331 254.783175 
L 218.283059 262.937836 
L 218.608038 235.249287 
L 218.933018 252.231412 
L 219.582977 261.454165 
L 219.907956 234.785649 
L 220.232936 249.459564 
L 220.882895 255.850117 
L 221.207874 234.257742 
L 221.532854 245.351088 
L 222.182813 249.934066 
L 222.507793 233.941146 
L 222.832772 243.804669 
L 223.157752 232.600712 
L 223.482731 231.124482 
L 223.807711 230.423281 
L 224.13269 230.08809 
L 224.782649 229.860646 
L 226.082567 229.800049 
L 253.705827 229.797216 
L 374.59821 229.797216 
L 374.59821 229.797216 
" clip-path="url(#peebd707752)" style="fill: none; stroke-dasharray: 0.64,0.16,0.1,0.16; stroke-dashoffset: 0; stroke: #c71585; stroke-width: 0.1"/>
   </g>
   <g id="patch_9">
    <path d="M 33.710938 273.312 
L 33.710938 140.256 
" style="fill: none; stroke: #000000; stroke-width: 0.8; stroke-linejoin: miter; stroke-linecap: square"/>
   </g>
   <g id="patch_10">
    <path d="M 390.830938 273.312 
L 390.830938 140.256 
" style="fill: none; stroke: #000000; stroke-width: 0.8; stroke-linejoin: miter; stroke-linecap: square"/>
   </g>
   <g id="patch_11">
    <path d="M 33.710938 273.312 
L 390.830937 273.312 
" style="fill: none; stroke: #000000; stroke-width: 0.8; stroke-linejoin: miter; stroke-linecap: square"/>
   </g>
   <g id="patch_12">
    <path d="M 33.710938 140.256 
L 390.830937 140.256 
" style="fill: none; stroke: #000000; stroke-width: 0.8; stroke-linejoin: miter; stroke-linecap: square"/>
   </g>
   <g id="legend_2">
    <g id="patch_13">
     <path d="M 235.952812 192.290375 
L 383.830938 192.290375 
Q 385.830938 192.290375 385.830938 190.290375 
L 385.830938 147.256 
Q 385.830938 145.256 383.830938 145.256 
L 235.952812 145.256 
Q 233.952812 145.256 233.952812 147.256 
L 233.952812 190.290375 
Q 233.952812 192.290375 235.952812 192.290375 
z
" style="fill: #ffffff; opacity: 0.8; stroke: #cccccc; stroke-linejoin: miter"/>
    </g>
    <g id="line2d_34">
     <path d="M 237.952812 153.354437 
L 247.952812 153.354437 
L 257.952812 153.354437 
" style="fill: none; stroke: #c71585; stroke-linecap: square"/>
    </g>
    <g id="text_21">
     <text style="font: 10px 'DejaVu Sans', 'Bitstream Vera Sans', 'Computer Modern Sans Serif', 'Lucida Grande', 'Verdana', 'Geneva', 'Lucid', 'Arial', 'Helvetica', 'Avant Garde', sans-serif; text-anchor: start" x="265.952812" y="156.854437" transform="rotate(-0 265.952812 156.854437)">Target response LUAL</text>
    </g>
    <g id="line2d_35">
     <path d="M 237.952812 168.032562 
L 247.952812 168.032562 
L 257.952812 168.032562 
" style="fill: none; stroke-dasharray: 3.7,1.6; stroke-dashoffset: 0; stroke: #c71585"/>
    </g>
    <g id="text_22">
     <text style="font: 10px 'DejaVu Sans', 'Bitstream Vera Sans', 'Computer Modern Sans Serif', 'Lucida Grande', 'Verdana', 'Geneva', 'Lucid', 'Arial', 'Helvetica', 'Avant Garde', sans-serif; text-anchor: start" x="265.952812" y="171.532562" transform="rotate(-0 265.952812 171.532562)">Digital prediction LUAL</text>
    </g>
    <g id="line2d_36">
     <path d="M 237.952812 182.710687 
L 247.952812 182.710687 
L 257.952812 182.710687 
" style="fill: none; stroke-dasharray: 0.64,0.16,0.1,0.16; stroke-dashoffset: 0; stroke: #c71585; stroke-width: 0.1"/>
    </g>
    <g id="text_23">
     <text style="font: 10px 'DejaVu Sans', 'Bitstream Vera Sans', 'Computer Modern Sans Serif', 'Lucida Grande', 'Verdana', 'Geneva', 'Lucid', 'Arial', 'Helvetica', 'Avant Garde', sans-serif; text-anchor: start" x="265.952812" y="186.210687" transform="rotate(-0 265.952812 186.210687)">Analog prediction LUAL</text>
    </g>
   </g>
  </g>
 </g>
 <defs>
  <clipPath id="p038bd00e82">
   <rect x="33.710938" y="7.2" width="357.12" height="133.056"/>
  </clipPath>
  <clipPath id="peebd707752">
   <rect x="33.710938" y="140.256" width="357.12" height="133.056"/>
  </clipPath>
 </defs>
</svg>
