<?xml version="1.0" encoding="utf-8" standalone="no"?>
<!DOCTYPE svg PUBLIC "-//W3C//DTD SVG 1.1//EN"
  "http://www.w3.org/Graphics/SVG/1.1/DTD/svg11.dtd">
<svg xmlns:xlink="http://www.w3.org/1999/xlink" width="394.423125pt" height="297.190125pt" viewBox="0 0 394.423125 297.190125" xmlns="http://www.w3.org/2000/svg" version="1.1">
 <metadata>
  <rdf:RDF xmlns:dc="http://purl.org/dc/elements/1.1/" xmlns:cc="http://creativecommons.org/ns#" xmlns:rdf="http://www.w3.org/1999/02/22-rdf-syntax-ns#">
   <cc:Work>
    <dc:type rdf:resource="http://purl.org/dc/dcmitype/StillImage"/>
    <dc:date>2023-10-23T15:57:15.524216</dc:date>
    <dc:format>image/svg+xml</dc:format>
    <dc:creator>
     <cc:Agent>
      <dc:title>Matplotlib v3.8.0, https://matplotlib.org/</dc:title>
     </cc:Agent>
    </dc:creator>
   </cc:Work>
  </rdf:RDF>
 </metadata>
 <defs>
  <style type="text/css">*{stroke-linejoin: round; stroke-linecap: butt}</style>
 </defs>
 <g id="figure_1">
  <g id="patch_1">
   <path d="M 0 297.190125 
L 394.423125 297.190125 
L 394.423125 0 
L 0 0 
z
" style="fill: #ffffff"/>
  </g>
  <g id="axes_1">
   <g id="patch_2">
    <path d="M 30.103125 140.256 
L 387.223125 140.256 
L 387.223125 7.2 
L 30.103125 7.2 
z
" style="fill: #ffffff"/>
   </g>
   <g id="matplotlib.axis_1">
    <g id="xtick_1">
     <g id="line2d_1">
      <defs>
       <path id="m0c1d133273" d="M 0 0 
L 0 3.5 
" style="stroke: #000000; stroke-width: 0.8"/>
      </defs>
      <g>
       <use xlink:href="#m0c1d133273" x="46.335852" y="140.256" style="stroke: #000000; stroke-width: 0.8"/>
      </g>
     </g>
    </g>
    <g id="xtick_2">
     <g id="line2d_2">
      <g>
       <use xlink:href="#m0c1d133273" x="111.331757" y="140.256" style="stroke: #000000; stroke-width: 0.8"/>
      </g>
     </g>
    </g>
    <g id="xtick_3">
     <g id="line2d_3">
      <g>
       <use xlink:href="#m0c1d133273" x="176.327662" y="140.256" style="stroke: #000000; stroke-width: 0.8"/>
      </g>
     </g>
    </g>
    <g id="xtick_4">
     <g id="line2d_4">
      <g>
       <use xlink:href="#m0c1d133273" x="241.323567" y="140.256" style="stroke: #000000; stroke-width: 0.8"/>
      </g>
     </g>
    </g>
    <g id="xtick_5">
     <g id="line2d_5">
      <g>
       <use xlink:href="#m0c1d133273" x="306.319472" y="140.256" style="stroke: #000000; stroke-width: 0.8"/>
      </g>
     </g>
    </g>
    <g id="xtick_6">
     <g id="line2d_6">
      <g>
       <use xlink:href="#m0c1d133273" x="371.315377" y="140.256" style="stroke: #000000; stroke-width: 0.8"/>
      </g>
     </g>
    </g>
   </g>
   <g id="matplotlib.axis_2">
    <g id="ytick_1">
     <g id="line2d_7">
      <defs>
       <path id="m9cb0684b43" d="M 0 0 
L -3.5 0 
" style="stroke: #000000; stroke-width: 0.8"/>
      </defs>
      <g>
       <use xlink:href="#m9cb0684b43" x="30.103125" y="134.208" style="stroke: #000000; stroke-width: 0.8"/>
      </g>
     </g>
     <g id="text_1">
      <text style="font: 10px 'DejaVu Sans', 'Bitstream Vera Sans', 'Computer Modern Sans Serif', 'Lucida Grande', 'Verdana', 'Geneva', 'Lucid', 'Arial', 'Helvetica', 'Avant Garde', sans-serif; text-anchor: end" x="23.103125" y="138.007219" transform="rotate(-0 23.103125 138.007219)">0.0</text>
     </g>
    </g>
    <g id="ytick_2">
     <g id="line2d_8">
      <g>
       <use xlink:href="#m9cb0684b43" x="30.103125" y="107.782865" style="stroke: #000000; stroke-width: 0.8"/>
      </g>
     </g>
     <g id="text_2">
      <text style="font: 10px 'DejaVu Sans', 'Bitstream Vera Sans', 'Computer Modern Sans Serif', 'Lucida Grande', 'Verdana', 'Geneva', 'Lucid', 'Arial', 'Helvetica', 'Avant Garde', sans-serif; text-anchor: end" x="23.103125" y="111.582083" transform="rotate(-0 23.103125 111.582083)">0.5</text>
     </g>
    </g>
    <g id="ytick_3">
     <g id="line2d_9">
      <g>
       <use xlink:href="#m9cb0684b43" x="30.103125" y="81.357729" style="stroke: #000000; stroke-width: 0.8"/>
      </g>
     </g>
     <g id="text_3">
      <text style="font: 10px 'DejaVu Sans', 'Bitstream Vera Sans', 'Computer Modern Sans Serif', 'Lucida Grande', 'Verdana', 'Geneva', 'Lucid', 'Arial', 'Helvetica', 'Avant Garde', sans-serif; text-anchor: end" x="23.103125" y="85.156948" transform="rotate(-0 23.103125 85.156948)">1.0</text>
     </g>
    </g>
    <g id="ytick_4">
     <g id="line2d_10">
      <g>
       <use xlink:href="#m9cb0684b43" x="30.103125" y="54.932594" style="stroke: #000000; stroke-width: 0.8"/>
      </g>
     </g>
     <g id="text_4">
      <text style="font: 10px 'DejaVu Sans', 'Bitstream Vera Sans', 'Computer Modern Sans Serif', 'Lucida Grande', 'Verdana', 'Geneva', 'Lucid', 'Arial', 'Helvetica', 'Avant Garde', sans-serif; text-anchor: end" x="23.103125" y="58.731813" transform="rotate(-0 23.103125 58.731813)">1.5</text>
     </g>
    </g>
    <g id="ytick_5">
     <g id="line2d_11">
      <g>
       <use xlink:href="#m9cb0684b43" x="30.103125" y="28.507459" style="stroke: #000000; stroke-width: 0.8"/>
      </g>
     </g>
     <g id="text_5">
      <text style="font: 10px 'DejaVu Sans', 'Bitstream Vera Sans', 'Computer Modern Sans Serif', 'Lucida Grande', 'Verdana', 'Geneva', 'Lucid', 'Arial', 'Helvetica', 'Avant Garde', sans-serif; text-anchor: end" x="23.103125" y="32.306677" transform="rotate(-0 23.103125 32.306677)">2.0</text>
     </g>
    </g>
   </g>
   <g id="line2d_12">
    <path d="M 46.335852 134.208 
L 111.331757 134.200601 
L 176.002683 60.580174 
L 176.327662 134.208 
L 370.990398 134.208 
L 370.990398 134.208 
" clip-path="url(#p0d5da8cd46)" style="fill: none; stroke: #ff4500; stroke-width: 1.5; stroke-linecap: square"/>
   </g>
   <g id="line2d_13">
    <path d="M 46.335852 134.208 
L 111.331757 134.200601 
L 176.002683 60.580174 
L 176.327662 134.208 
L 370.990398 134.208 
L 370.990398 134.208 
" clip-path="url(#p0d5da8cd46)" style="fill: none; stroke-dasharray: 5.55,2.4; stroke-dashoffset: 0; stroke: #c71585; stroke-width: 1.5"/>
   </g>
   <g id="line2d_14">
    <path d="M 46.335852 134.208 
L 111.331757 134.195844 
L 176.002683 13.248 
L 176.327662 134.208 
L 370.990398 134.208 
L 370.990398 134.208 
" clip-path="url(#p0d5da8cd46)" style="fill: none; stroke-dasharray: 9.6,2.4,1.5,2.4; stroke-dashoffset: 0; stroke: #4682b4; stroke-width: 1.5"/>
   </g>
   <g id="line2d_15">
    <path d="M 46.335852 134.208 
L 111.331757 134.195844 
L 176.002683 13.248 
L 176.327662 134.208 
L 370.990398 134.208 
L 370.990398 134.208 
" clip-path="url(#p0d5da8cd46)" style="fill: none; stroke-dasharray: 2.5,4.125; stroke-dashoffset: 0; stroke: #6b8e23; stroke-width: 2.5"/>
   </g>
   <g id="patch_3">
    <path d="M 30.103125 140.256 
L 30.103125 7.2 
" style="fill: none; stroke: #000000; stroke-width: 0.8; stroke-linejoin: miter; stroke-linecap: square"/>
   </g>
   <g id="patch_4">
    <path d="M 387.223125 140.256 
L 387.223125 7.2 
" style="fill: none; stroke: #000000; stroke-width: 0.8; stroke-linejoin: miter; stroke-linecap: square"/>
   </g>
   <g id="patch_5">
    <path d="M 30.103125 140.256 
L 387.223125 140.256 
" style="fill: none; stroke: #000000; stroke-width: 0.8; stroke-linejoin: miter; stroke-linecap: square"/>
   </g>
   <g id="patch_6">
    <path d="M 30.103125 7.2 
L 387.223125 7.2 
" style="fill: none; stroke: #000000; stroke-width: 0.8; stroke-linejoin: miter; stroke-linecap: square"/>
   </g>
   <g id="legend_1">
    <g id="patch_7">
     <path d="M 316.059062 73.9125 
L 380.223125 73.9125 
Q 382.223125 73.9125 382.223125 71.9125 
L 382.223125 14.2 
Q 382.223125 12.2 380.223125 12.2 
L 316.059062 12.2 
Q 314.059062 12.2 314.059062 14.2 
L 314.059062 71.9125 
Q 314.059062 73.9125 316.059062 73.9125 
z
" style="fill: #ffffff; opacity: 0.8; stroke: #cccccc; stroke-linejoin: miter"/>
    </g>
    <g id="line2d_16">
     <path d="M 318.059062 20.298437 
L 328.059062 20.298437 
L 338.059062 20.298437 
" style="fill: none; stroke: #ff4500; stroke-width: 1.5; stroke-linecap: square"/>
    </g>
    <g id="text_6">
     <text style="font: 10px 'DejaVu Sans', 'Bitstream Vera Sans', 'Computer Modern Sans Serif', 'Lucida Grande', 'Verdana', 'Geneva', 'Lucid', 'Arial', 'Helvetica', 'Avant Garde', sans-serif; text-anchor: start" x="346.059062" y="23.798437" transform="rotate(-0 346.059062 23.798437)">PLML2</text>
    </g>
    <g id="line2d_17">
     <path d="M 318.059062 34.976562 
L 328.059062 34.976562 
L 338.059062 34.976562 
" style="fill: none; stroke-dasharray: 5.55,2.4; stroke-dashoffset: 0; stroke: #c71585; stroke-width: 1.5"/>
    </g>
    <g id="text_7">
     <text style="font: 10px 'DejaVu Sans', 'Bitstream Vera Sans', 'Computer Modern Sans Serif', 'Lucida Grande', 'Verdana', 'Geneva', 'Lucid', 'Arial', 'Helvetica', 'Avant Garde', sans-serif; text-anchor: start" x="346.059062" y="38.476562" transform="rotate(-0 346.059062 38.476562)">PLMR</text>
    </g>
    <g id="line2d_18">
     <path d="M 318.059062 49.654687 
L 328.059062 49.654687 
L 338.059062 49.654687 
" style="fill: none; stroke-dasharray: 9.6,2.4,1.5,2.4; stroke-dashoffset: 0; stroke: #4682b4; stroke-width: 1.5"/>
    </g>
    <g id="text_8">
     <text style="font: 10px 'DejaVu Sans', 'Bitstream Vera Sans', 'Computer Modern Sans Serif', 'Lucida Grande', 'Verdana', 'Geneva', 'Lucid', 'Arial', 'Helvetica', 'Avant Garde', sans-serif; text-anchor: start" x="346.059062" y="53.154687" transform="rotate(-0 346.059062 53.154687)">AVBL</text>
    </g>
    <g id="line2d_19">
     <path d="M 318.059062 64.332812 
L 328.059062 64.332812 
L 338.059062 64.332812 
" style="fill: none; stroke-dasharray: 2.5,4.125; stroke-dashoffset: 0; stroke: #6b8e23; stroke-width: 2.5"/>
    </g>
    <g id="text_9">
     <text style="font: 10px 'DejaVu Sans', 'Bitstream Vera Sans', 'Computer Modern Sans Serif', 'Lucida Grande', 'Verdana', 'Geneva', 'Lucid', 'Arial', 'Helvetica', 'Avant Garde', sans-serif; text-anchor: start" x="346.059062" y="67.832812" transform="rotate(-0 346.059062 67.832812)">AVBR</text>
    </g>
   </g>
  </g>
  <g id="axes_2">
   <g id="patch_8">
    <path d="M 30.103125 273.312 
L 387.223125 273.312 
L 387.223125 140.256 
L 30.103125 140.256 
z
" style="fill: #ffffff"/>
   </g>
   <g id="matplotlib.axis_3">
    <g id="xtick_7">
     <g id="line2d_20">
      <g>
       <use xlink:href="#m0c1d133273" x="46.335852" y="273.312" style="stroke: #000000; stroke-width: 0.8"/>
      </g>
     </g>
     <g id="text_10">
      <text style="font: 10px 'DejaVu Sans', 'Bitstream Vera Sans', 'Computer Modern Sans Serif', 'Lucida Grande', 'Verdana', 'Geneva', 'Lucid', 'Arial', 'Helvetica', 'Avant Garde', sans-serif; text-anchor: middle" x="46.335852" y="287.910437" transform="rotate(-0 46.335852 287.910437)">0</text>
     </g>
    </g>
    <g id="xtick_8">
     <g id="line2d_21">
      <g>
       <use xlink:href="#m0c1d133273" x="111.331757" y="273.312" style="stroke: #000000; stroke-width: 0.8"/>
      </g>
     </g>
     <g id="text_11">
      <text style="font: 10px 'DejaVu Sans', 'Bitstream Vera Sans', 'Computer Modern Sans Serif', 'Lucida Grande', 'Verdana', 'Geneva', 'Lucid', 'Arial', 'Helvetica', 'Avant Garde', sans-serif; text-anchor: middle" x="111.331757" y="287.910437" transform="rotate(-0 111.331757 287.910437)">100</text>
     </g>
    </g>
    <g id="xtick_9">
     <g id="line2d_22">
      <g>
       <use xlink:href="#m0c1d133273" x="176.327662" y="273.312" style="stroke: #000000; stroke-width: 0.8"/>
      </g>
     </g>
     <g id="text_12">
      <text style="font: 10px 'DejaVu Sans', 'Bitstream Vera Sans', 'Computer Modern Sans Serif', 'Lucida Grande', 'Verdana', 'Geneva', 'Lucid', 'Arial', 'Helvetica', 'Avant Garde', sans-serif; text-anchor: middle" x="176.327662" y="287.910437" transform="rotate(-0 176.327662 287.910437)">200</text>
     </g>
    </g>
    <g id="xtick_10">
     <g id="line2d_23">
      <g>
       <use xlink:href="#m0c1d133273" x="241.323567" y="273.312" style="stroke: #000000; stroke-width: 0.8"/>
      </g>
     </g>
     <g id="text_13">
      <text style="font: 10px 'DejaVu Sans', 'Bitstream Vera Sans', 'Computer Modern Sans Serif', 'Lucida Grande', 'Verdana', 'Geneva', 'Lucid', 'Arial', 'Helvetica', 'Avant Garde', sans-serif; text-anchor: middle" x="241.323567" y="287.910437" transform="rotate(-0 241.323567 287.910437)">300</text>
     </g>
    </g>
    <g id="xtick_11">
     <g id="line2d_24">
      <g>
       <use xlink:href="#m0c1d133273" x="306.319472" y="273.312" style="stroke: #000000; stroke-width: 0.8"/>
      </g>
     </g>
     <g id="text_14">
      <text style="font: 10px 'DejaVu Sans', 'Bitstream Vera Sans', 'Computer Modern Sans Serif', 'Lucida Grande', 'Verdana', 'Geneva', 'Lucid', 'Arial', 'Helvetica', 'Avant Garde', sans-serif; text-anchor: middle" x="306.319472" y="287.910437" transform="rotate(-0 306.319472 287.910437)">400</text>
     </g>
    </g>
    <g id="xtick_12">
     <g id="line2d_25">
      <g>
       <use xlink:href="#m0c1d133273" x="371.315377" y="273.312" style="stroke: #000000; stroke-width: 0.8"/>
      </g>
     </g>
     <g id="text_15">
      <text style="font: 10px 'DejaVu Sans', 'Bitstream Vera Sans', 'Computer Modern Sans Serif', 'Lucida Grande', 'Verdana', 'Geneva', 'Lucid', 'Arial', 'Helvetica', 'Avant Garde', sans-serif; text-anchor: middle" x="371.315377" y="287.910437" transform="rotate(-0 371.315377 287.910437)">500</text>
     </g>
    </g>
   </g>
   <g id="matplotlib.axis_4">
    <g id="ytick_6">
     <g id="line2d_26">
      <g>
       <use xlink:href="#m9cb0684b43" x="30.103125" y="256.861812" style="stroke: #000000; stroke-width: 0.8"/>
      </g>
     </g>
     <g id="text_16">
      <text style="font: 10px 'DejaVu Sans', 'Bitstream Vera Sans', 'Computer Modern Sans Serif', 'Lucida Grande', 'Verdana', 'Geneva', 'Lucid', 'Arial', 'Helvetica', 'Avant Garde', sans-serif; text-anchor: end" x="23.103125" y="260.66103" transform="rotate(-0 23.103125 260.66103)">0.0</text>
     </g>
    </g>
    <g id="ytick_7">
     <g id="line2d_27">
      <g>
       <use xlink:href="#m9cb0684b43" x="30.103125" y="224.855078" style="stroke: #000000; stroke-width: 0.8"/>
      </g>
     </g>
     <g id="text_17">
      <text style="font: 10px 'DejaVu Sans', 'Bitstream Vera Sans', 'Computer Modern Sans Serif', 'Lucida Grande', 'Verdana', 'Geneva', 'Lucid', 'Arial', 'Helvetica', 'Avant Garde', sans-serif; text-anchor: end" x="23.103125" y="228.654297" transform="rotate(-0 23.103125 228.654297)">0.2</text>
     </g>
    </g>
    <g id="ytick_8">
     <g id="line2d_28">
      <g>
       <use xlink:href="#m9cb0684b43" x="30.103125" y="192.848345" style="stroke: #000000; stroke-width: 0.8"/>
      </g>
     </g>
     <g id="text_18">
      <text style="font: 10px 'DejaVu Sans', 'Bitstream Vera Sans', 'Computer Modern Sans Serif', 'Lucida Grande', 'Verdana', 'Geneva', 'Lucid', 'Arial', 'Helvetica', 'Avant Garde', sans-serif; text-anchor: end" x="23.103125" y="196.647563" transform="rotate(-0 23.103125 196.647563)">0.4</text>
     </g>
    </g>
    <g id="ytick_9">
     <g id="line2d_29">
      <g>
       <use xlink:href="#m9cb0684b43" x="30.103125" y="160.841611" style="stroke: #000000; stroke-width: 0.8"/>
      </g>
     </g>
     <g id="text_19">
      <text style="font: 10px 'DejaVu Sans', 'Bitstream Vera Sans', 'Computer Modern Sans Serif', 'Lucida Grande', 'Verdana', 'Geneva', 'Lucid', 'Arial', 'Helvetica', 'Avant Garde', sans-serif; text-anchor: end" x="23.103125" y="164.64083" transform="rotate(-0 23.103125 164.64083)">0.6</text>
     </g>
    </g>
   </g>
   <g id="line2d_30">
    <path d="M 46.335852 267.264 
L 112.631675 267.158527 
L 114.256573 266.790148 
L 115.881471 266.188995 
L 117.506368 265.353436 
L 119.456245 264.050404 
L 121.406123 262.435218 
L 123.356 260.499894 
L 125.630856 257.929908 
L 127.905713 255.001003 
L 131.155508 250.374586 
L 134.405304 245.085091 
L 137.980078 238.67829 
L 141.229874 232.455349 
L 145.454607 223.827886 
L 150.3293 213.314634 
L 155.853952 200.83252 
L 162.353543 185.547577 
L 164.30342 180.911193 
L 165.278358 179.289828 
L 166.253297 176.900334 
L 170.478031 166.048995 
L 176.327662 151.443602 
L 177.62758 158.297412 
L 188.026925 195.196951 
L 190.626761 203.440237 
L 193.226598 210.951209 
L 195.501454 216.912079 
L 197.776311 222.31712 
L 200.051168 227.19349 
L 202.326024 231.575436 
L 204.600881 235.500758 
L 206.875738 239.008296 
L 209.150594 242.136386 
L 211.425451 244.921775 
L 214.025287 247.729721 
L 216.625123 250.182797 
L 219.22496 252.324127 
L 221.824796 254.192365 
L 224.749611 256.010335 
L 227.674427 257.568993 
L 230.924222 259.04172 
L 234.498997 260.396613 
L 238.398752 261.612872 
L 242.623485 262.680133 
L 247.173199 263.597043 
L 252.372871 264.414397 
L 258.222503 265.110387 
L 265.372052 265.726627 
L 273.82152 266.224439 
L 284.545844 266.624781 
L 298.844943 266.924359 
L 319.968612 267.126784 
L 357.991217 267.235511 
L 370.990398 267.247155 
L 370.990398 267.247155 
" clip-path="url(#p27463d5f20)" style="fill: none; stroke: #4682b4; stroke-linecap: square"/>
   </g>
   <g id="line2d_31">
    <path d="M 46.335852 259.277313 
L 46.660832 258.52492 
L 47.310791 257.775553 
L 47.96075 257.498721 
L 48.935688 257.37701 
L 52.185484 257.345267 
L 111.331757 257.340125 
L 111.981716 256.701896 
L 113.281634 254.674913 
L 117.831348 247.288042 
L 121.406123 241.933498 
L 124.980897 236.971381 
L 128.880652 231.947207 
L 132.130447 228.102481 
L 135.705222 224.21214 
L 139.279996 220.60055 
L 144.479669 215.753291 
L 149.679341 211.292137 
L 156.503911 205.581574 
L 160.728645 201.552416 
L 163.003502 199.153124 
L 165.928317 195.668656 
L 167.553215 193.503675 
L 169.178113 190.967136 
L 170.80301 187.965692 
L 172.752887 183.789479 
L 174.702765 179.113711 
L 176.002683 175.405811 
L 176.327662 159.854996 
L 176.977621 215.363433 
L 177.302601 231.234729 
L 177.62758 241.379835 
L 177.95256 247.699145 
L 178.277539 251.564737 
L 178.602519 253.901461 
L 178.927498 255.302523 
L 179.252478 256.137679 
L 179.577458 256.63334 
L 180.227417 257.099014 
L 181.202355 257.295567 
L 183.477212 257.343964 
L 259.522421 257.345114 
L 370.990398 257.345114 
L 370.990398 257.345114 
" clip-path="url(#p27463d5f20)" style="fill: none; stroke-dasharray: 3.7,1.6; stroke-dashoffset: 0; stroke: #4682b4"/>
   </g>
   <g id="line2d_32">
    <path d="M 46.335852 256.121536 
L 46.660832 254.327922 
L 46.985811 253.416692 
L 47.310791 252.953204 
L 47.96075 252.600191 
L 48.935688 252.492308 
L 53.810381 252.475705 
L 133.105385 252.476184 
L 133.755344 251.943971 
L 134.080324 251.560313 
L 134.405304 252.004212 
L 135.380242 250.353799 
L 135.705222 251.391654 
L 136.355181 249.710602 
L 136.68016 249.159725 
L 137.00514 250.800206 
L 137.655099 248.491544 
L 137.980078 247.797712 
L 138.305058 250.120296 
L 138.630037 248.462612 
L 139.279996 246.549423 
L 139.604976 249.491354 
L 140.254935 246.168947 
L 140.579915 245.197569 
L 140.904894 248.831221 
L 141.229874 246.474279 
L 141.879833 243.967861 
L 142.204812 248.240773 
L 142.529792 245.557261 
L 143.179751 242.634927 
L 143.50473 247.62043 
L 143.82971 244.353769 
L 144.479669 241.283683 
L 144.804648 246.979329 
L 145.129628 243.354202 
L 145.779587 239.930473 
L 146.104566 246.343371 
L 146.429546 242.245689 
L 147.079505 238.57229 
L 147.404485 245.716693 
L 147.729464 241.282773 
L 148.054444 238.739715 
L 148.379423 237.22133 
L 148.704403 245.081381 
L 149.029382 240.159197 
L 149.354362 237.370267 
L 149.679341 235.70833 
L 150.004321 244.39722 
L 150.3293 239.124641 
L 150.65428 236.164162 
L 150.979259 234.406985 
L 151.304239 243.806755 
L 151.629218 238.136333 
L 151.954198 234.845825 
L 152.279177 232.764198 
L 152.604157 243.074105 
L 152.929136 236.92634 
L 153.254116 233.544562 
L 153.579096 231.376368 
L 153.904075 242.459176 
L 154.229055 235.904995 
L 154.554034 232.184831 
L 154.879014 229.833362 
L 155.203993 241.788024 
L 155.528973 234.710291 
L 155.853952 230.876661 
L 156.178932 228.422973 
L 156.503911 241.175109 
L 156.828891 233.543483 
L 157.47885 226.873975 
L 157.803829 240.520673 
L 158.128809 232.343367 
L 158.453788 228.077871 
L 158.778768 225.360994 
L 159.103747 239.872013 
L 159.428727 231.265605 
L 159.753706 226.796726 
L 160.078686 223.950598 
L 160.403666 239.271394 
L 160.728645 230.084061 
L 161.053625 225.181165 
L 161.378604 222.204727 
L 161.703584 238.548269 
L 162.028563 228.939244 
L 162.353543 223.844602 
L 162.678522 220.754942 
L 163.003502 237.930349 
L 163.328481 227.722988 
L 163.653461 222.323963 
L 163.97844 219.013752 
L 164.30342 237.224851 
L 164.628399 226.569301 
L 164.953379 220.967858 
L 165.278358 217.387741 
L 165.603338 236.537303 
L 165.928317 225.433277 
L 166.253297 219.466806 
L 166.578277 215.659571 
L 166.903256 235.840553 
L 167.228236 224.141148 
L 167.553215 218.040431 
L 167.878195 214.102266 
L 168.203174 235.202901 
L 168.528154 223.008532 
L 169.178113 212.413868 
L 169.503092 234.541006 
L 169.828072 221.58755 
L 170.153051 214.99757 
L 170.478031 210.705278 
L 170.80301 233.861584 
L 171.12799 220.561983 
L 171.452969 213.993647 
L 171.777949 209.840217 
L 172.102928 233.46038 
L 172.427908 220.035184 
L 172.752887 211.792405 
L 173.077867 206.775912 
L 173.402847 232.33865 
L 173.727826 217.50437 
L 174.052806 210.047839 
L 174.377785 205.414087 
L 174.702765 231.737513 
L 175.027744 216.819116 
L 175.352724 209.343234 
L 175.677703 204.699662 
L 176.002683 231.40442 
L 176.327662 214.862047 
L 176.652642 206.436006 
L 176.977621 201.124199 
L 177.302601 230.124782 
L 177.62758 213.628501 
L 177.95256 205.389707 
L 178.277539 200.04241 
L 178.602519 229.630882 
L 178.927498 213.036942 
L 179.252478 204.744387 
L 179.577458 199.358557 
L 179.902437 229.306202 
L 180.227417 211.058263 
L 180.552396 201.780539 
L 180.877376 195.698318 
L 181.202355 228.018295 
L 181.527335 209.785433 
L 182.177294 194.724058 
L 182.502273 227.576856 
L 182.827253 209.111894 
L 183.477212 193.97402 
L 183.802191 227.230485 
L 184.127171 207.068201 
L 184.77713 190.230599 
L 185.102109 225.936288 
L 185.427089 205.776382 
L 186.077048 189.190088 
L 186.402028 225.486369 
L 186.727007 205.20439 
L 187.376966 188.40579 
L 187.701946 225.107532 
L 188.026925 203.127201 
L 188.676884 184.577972 
L 189.001864 223.797528 
L 189.326843 201.806049 
L 189.976802 183.534944 
L 190.301782 223.324738 
L 190.626761 201.234775 
L 191.27672 180.726644 
L 191.6017 222.444188 
L 191.926679 198.692222 
L 192.576639 178.543913 
L 192.901618 221.509327 
L 193.226598 197.707204 
L 193.876557 177.63053 
L 194.201536 221.076303 
L 194.526516 197.168037 
L 195.176475 175.050322 
L 195.501454 220.350059 
L 195.826434 194.815648 
L 196.476393 173.389496 
L 196.801372 219.676708 
L 197.126352 194.22337 
L 197.776311 171.867189 
L 198.10129 218.861281 
L 198.42627 192.582729 
L 199.076229 168.033974 
L 199.401209 217.562159 
L 199.726188 189.856821 
L 200.376147 166.153849 
L 200.701127 216.793987 
L 201.026106 189.199 
L 201.676065 165.819873 
L 202.001045 216.646067 
L 202.326024 189.07948 
L 202.975983 162.869826 
L 203.300963 215.863425 
L 203.625942 186.66336 
L 204.275901 160.808884 
L 204.600881 214.785152 
L 204.92586 184.869969 
L 205.57582 158.843912 
L 205.900799 213.852419 
L 206.225779 184.145512 
L 206.875738 155.539861 
L 207.200717 212.924826 
L 207.525697 181.641279 
L 208.175656 154.518158 
L 208.500635 212.501258 
L 208.825615 181.231365 
L 209.475574 154.35353 
L 209.800553 212.423092 
L 210.125533 181.170751 
L 210.775492 149.942188 
L 211.100471 210.562808 
L 211.425451 177.31578 
L 212.07541 147.100875 
L 212.40039 209.37661 
L 212.725369 176.079139 
L 213.375328 146.304 
L 213.700308 209.064738 
L 214.025287 184.253396 
L 214.675246 163.967116 
L 215.000226 214.671358 
L 215.325205 189.599668 
L 215.975164 166.890222 
L 216.300144 215.790417 
L 216.625123 201.916328 
L 217.275082 190.034062 
L 217.600062 223.782369 
L 217.925041 217.006003 
L 218.250021 213.458127 
L 218.575001 211.257812 
L 218.89998 232.910721 
L 219.22496 224.011032 
L 219.549939 238.629596 
L 219.874919 245.709577 
L 220.199898 249.207434 
L 220.524878 250.912902 
L 220.849857 251.755191 
L 221.174837 252.154444 
L 221.824796 252.437018 
L 223.124714 252.507786 
L 259.8474 252.508238 
L 370.990398 252.508238 
L 370.990398 252.508238 
" clip-path="url(#p27463d5f20)" style="fill: none; stroke-dasharray: 0.64,0.16,0.1,0.16; stroke-dashoffset: 0; stroke: #4682b4; stroke-width: 0.1"/>
   </g>
   <g id="patch_9">
    <path d="M 30.103125 273.312 
L 30.103125 140.256 
" style="fill: none; stroke: #000000; stroke-width: 0.8; stroke-linejoin: miter; stroke-linecap: square"/>
   </g>
   <g id="patch_10">
    <path d="M 387.223125 273.312 
L 387.223125 140.256 
" style="fill: none; stroke: #000000; stroke-width: 0.8; stroke-linejoin: miter; stroke-linecap: square"/>
   </g>
   <g id="patch_11">
    <path d="M 30.103125 273.312 
L 387.223125 273.312 
" style="fill: none; stroke: #000000; stroke-width: 0.8; stroke-linejoin: miter; stroke-linecap: square"/>
   </g>
   <g id="patch_12">
    <path d="M 30.103125 140.256 
L 387.223125 140.256 
" style="fill: none; stroke: #000000; stroke-width: 0.8; stroke-linejoin: miter; stroke-linecap: square"/>
   </g>
   <g id="legend_2">
    <g id="patch_13">
     <path d="M 237.329375 192.290375 
L 380.223125 192.290375 
Q 382.223125 192.290375 382.223125 190.290375 
L 382.223125 147.256 
Q 382.223125 145.256 380.223125 145.256 
L 237.329375 145.256 
Q 235.329375 145.256 235.329375 147.256 
L 235.329375 190.290375 
Q 235.329375 192.290375 237.329375 192.290375 
z
" style="fill: #ffffff; opacity: 0.8; stroke: #cccccc; stroke-linejoin: miter"/>
    </g>
    <g id="line2d_33">
     <path d="M 239.329375 153.354437 
L 249.329375 153.354437 
L 259.329375 153.354437 
" style="fill: none; stroke: #4682b4; stroke-linecap: square"/>
    </g>
    <g id="text_20">
     <text style="font: 10px 'DejaVu Sans', 'Bitstream Vera Sans', 'Computer Modern Sans Serif', 'Lucida Grande', 'Verdana', 'Geneva', 'Lucid', 'Arial', 'Helvetica', 'Avant Garde', sans-serif; text-anchor: start" x="267.329375" y="156.854437" transform="rotate(-0 267.329375 156.854437)">Target response PVR</text>
    </g>
    <g id="line2d_34">
     <path d="M 239.329375 168.032562 
L 249.329375 168.032562 
L 259.329375 168.032562 
" style="fill: none; stroke-dasharray: 3.7,1.6; stroke-dashoffset: 0; stroke: #4682b4"/>
    </g>
    <g id="text_21">
     <text style="font: 10px 'DejaVu Sans', 'Bitstream Vera Sans', 'Computer Modern Sans Serif', 'Lucida Grande', 'Verdana', 'Geneva', 'Lucid', 'Arial', 'Helvetica', 'Avant Garde', sans-serif; text-anchor: start" x="267.329375" y="171.532562" transform="rotate(-0 267.329375 171.532562)">Digital prediction PVR</text>
    </g>
    <g id="line2d_35">
     <path d="M 239.329375 182.710687 
L 249.329375 182.710687 
L 259.329375 182.710687 
" style="fill: none; stroke-dasharray: 0.64,0.16,0.1,0.16; stroke-dashoffset: 0; stroke: #4682b4; stroke-width: 0.1"/>
    </g>
    <g id="text_22">
     <text style="font: 10px 'DejaVu Sans', 'Bitstream Vera Sans', 'Computer Modern Sans Serif', 'Lucida Grande', 'Verdana', 'Geneva', 'Lucid', 'Arial', 'Helvetica', 'Avant Garde', sans-serif; text-anchor: start" x="267.329375" y="186.210687" transform="rotate(-0 267.329375 186.210687)">Analog prediction PVR</text>
    </g>
   </g>
  </g>
 </g>
 <defs>
  <clipPath id="p0d5da8cd46">
   <rect x="30.103125" y="7.2" width="357.12" height="133.056"/>
  </clipPath>
  <clipPath id="p27463d5f20">
   <rect x="30.103125" y="140.256" width="357.12" height="133.056"/>
  </clipPath>
 </defs>
</svg>
