<?xml version="1.0" encoding="utf-8" standalone="no"?>
<!DOCTYPE svg PUBLIC "-//W3C//DTD SVG 1.1//EN"
  "http://www.w3.org/Graphics/SVG/1.1/DTD/svg11.dtd">
<svg xmlns:xlink="http://www.w3.org/1999/xlink" width="394.423125pt" height="297.190125pt" viewBox="0 0 394.423125 297.190125" xmlns="http://www.w3.org/2000/svg" version="1.1">
 <metadata>
  <rdf:RDF xmlns:dc="http://purl.org/dc/elements/1.1/" xmlns:cc="http://creativecommons.org/ns#" xmlns:rdf="http://www.w3.org/1999/02/22-rdf-syntax-ns#">
   <cc:Work>
    <dc:type rdf:resource="http://purl.org/dc/dcmitype/StillImage"/>
    <dc:date>2023-10-23T11:46:24.969902</dc:date>
    <dc:format>image/svg+xml</dc:format>
    <dc:creator>
     <cc:Agent>
      <dc:title>Matplotlib v3.8.0, https://matplotlib.org/</dc:title>
     </cc:Agent>
    </dc:creator>
   </cc:Work>
  </rdf:RDF>
 </metadata>
 <defs>
  <style type="text/css">*{stroke-linejoin: round; stroke-linecap: butt}</style>
 </defs>
 <g id="figure_1">
  <g id="patch_1">
   <path d="M 0 297.190125 
L 394.423125 297.190125 
L 394.423125 0 
L 0 0 
z
" style="fill: #ffffff"/>
  </g>
  <g id="axes_1">
   <g id="patch_2">
    <path d="M 30.103125 273.312 
L 387.223125 273.312 
L 387.223125 7.2 
L 30.103125 7.2 
z
" style="fill: #ffffff"/>
   </g>
   <g id="matplotlib.axis_1">
    <g id="xtick_1">
     <g id="line2d_1">
      <defs>
       <path id="m11629f5c6f" d="M 0 0 
L 0 3.5 
" style="stroke: #000000; stroke-width: 0.8"/>
      </defs>
      <g>
       <use xlink:href="#m11629f5c6f" x="46.335852" y="273.312" style="stroke: #000000; stroke-width: 0.8"/>
      </g>
     </g>
     <g id="text_1">
      <text style="font: 10px 'DejaVu Sans', 'Bitstream Vera Sans', 'Computer Modern Sans Serif', 'Lucida Grande', 'Verdana', 'Geneva', 'Lucid', 'Arial', 'Helvetica', 'Avant Garde', sans-serif; text-anchor: middle" x="46.335852" y="287.910437" transform="rotate(-0 46.335852 287.910437)">0.0</text>
     </g>
    </g>
    <g id="xtick_2">
     <g id="line2d_2">
      <g>
       <use xlink:href="#m11629f5c6f" x="111.331757" y="273.312" style="stroke: #000000; stroke-width: 0.8"/>
      </g>
     </g>
     <g id="text_2">
      <text style="font: 10px 'DejaVu Sans', 'Bitstream Vera Sans', 'Computer Modern Sans Serif', 'Lucida Grande', 'Verdana', 'Geneva', 'Lucid', 'Arial', 'Helvetica', 'Avant Garde', sans-serif; text-anchor: middle" x="111.331757" y="287.910437" transform="rotate(-0 111.331757 287.910437)">0.1</text>
     </g>
    </g>
    <g id="xtick_3">
     <g id="line2d_3">
      <g>
       <use xlink:href="#m11629f5c6f" x="176.327662" y="273.312" style="stroke: #000000; stroke-width: 0.8"/>
      </g>
     </g>
     <g id="text_3">
      <text style="font: 10px 'DejaVu Sans', 'Bitstream Vera Sans', 'Computer Modern Sans Serif', 'Lucida Grande', 'Verdana', 'Geneva', 'Lucid', 'Arial', 'Helvetica', 'Avant Garde', sans-serif; text-anchor: middle" x="176.327662" y="287.910437" transform="rotate(-0 176.327662 287.910437)">0.2</text>
     </g>
    </g>
    <g id="xtick_4">
     <g id="line2d_4">
      <g>
       <use xlink:href="#m11629f5c6f" x="241.323567" y="273.312" style="stroke: #000000; stroke-width: 0.8"/>
      </g>
     </g>
     <g id="text_4">
      <text style="font: 10px 'DejaVu Sans', 'Bitstream Vera Sans', 'Computer Modern Sans Serif', 'Lucida Grande', 'Verdana', 'Geneva', 'Lucid', 'Arial', 'Helvetica', 'Avant Garde', sans-serif; text-anchor: middle" x="241.323567" y="287.910437" transform="rotate(-0 241.323567 287.910437)">0.3</text>
     </g>
    </g>
    <g id="xtick_5">
     <g id="line2d_5">
      <g>
       <use xlink:href="#m11629f5c6f" x="306.319472" y="273.312" style="stroke: #000000; stroke-width: 0.8"/>
      </g>
     </g>
     <g id="text_5">
      <text style="font: 10px 'DejaVu Sans', 'Bitstream Vera Sans', 'Computer Modern Sans Serif', 'Lucida Grande', 'Verdana', 'Geneva', 'Lucid', 'Arial', 'Helvetica', 'Avant Garde', sans-serif; text-anchor: middle" x="306.319472" y="287.910437" transform="rotate(-0 306.319472 287.910437)">0.4</text>
     </g>
    </g>
    <g id="xtick_6">
     <g id="line2d_6">
      <g>
       <use xlink:href="#m11629f5c6f" x="371.315377" y="273.312" style="stroke: #000000; stroke-width: 0.8"/>
      </g>
     </g>
     <g id="text_6">
      <text style="font: 10px 'DejaVu Sans', 'Bitstream Vera Sans', 'Computer Modern Sans Serif', 'Lucida Grande', 'Verdana', 'Geneva', 'Lucid', 'Arial', 'Helvetica', 'Avant Garde', sans-serif; text-anchor: middle" x="371.315377" y="287.910437" transform="rotate(-0 371.315377 287.910437)">0.5</text>
     </g>
    </g>
   </g>
   <g id="matplotlib.axis_2">
    <g id="ytick_1">
     <g id="line2d_7">
      <defs>
       <path id="ma1ddb26899" d="M 0 0 
L -3.5 0 
" style="stroke: #000000; stroke-width: 0.8"/>
      </defs>
      <g>
       <use xlink:href="#ma1ddb26899" x="30.103125" y="245.094064" style="stroke: #000000; stroke-width: 0.8"/>
      </g>
     </g>
     <g id="text_7">
      <text style="font: 10px 'DejaVu Sans', 'Bitstream Vera Sans', 'Computer Modern Sans Serif', 'Lucida Grande', 'Verdana', 'Geneva', 'Lucid', 'Arial', 'Helvetica', 'Avant Garde', sans-serif; text-anchor: end" x="23.103125" y="248.893283" transform="rotate(-0 23.103125 248.893283)">0.0</text>
     </g>
    </g>
    <g id="ytick_2">
     <g id="line2d_8">
      <g>
       <use xlink:href="#ma1ddb26899" x="30.103125" y="195.488107" style="stroke: #000000; stroke-width: 0.8"/>
      </g>
     </g>
     <g id="text_8">
      <text style="font: 10px 'DejaVu Sans', 'Bitstream Vera Sans', 'Computer Modern Sans Serif', 'Lucida Grande', 'Verdana', 'Geneva', 'Lucid', 'Arial', 'Helvetica', 'Avant Garde', sans-serif; text-anchor: end" x="23.103125" y="199.287326" transform="rotate(-0 23.103125 199.287326)">0.2</text>
     </g>
    </g>
    <g id="ytick_3">
     <g id="line2d_9">
      <g>
       <use xlink:href="#ma1ddb26899" x="30.103125" y="145.88215" style="stroke: #000000; stroke-width: 0.8"/>
      </g>
     </g>
     <g id="text_9">
      <text style="font: 10px 'DejaVu Sans', 'Bitstream Vera Sans', 'Computer Modern Sans Serif', 'Lucida Grande', 'Verdana', 'Geneva', 'Lucid', 'Arial', 'Helvetica', 'Avant Garde', sans-serif; text-anchor: end" x="23.103125" y="149.681369" transform="rotate(-0 23.103125 149.681369)">0.4</text>
     </g>
    </g>
    <g id="ytick_4">
     <g id="line2d_10">
      <g>
       <use xlink:href="#ma1ddb26899" x="30.103125" y="96.276194" style="stroke: #000000; stroke-width: 0.8"/>
      </g>
     </g>
     <g id="text_10">
      <text style="font: 10px 'DejaVu Sans', 'Bitstream Vera Sans', 'Computer Modern Sans Serif', 'Lucida Grande', 'Verdana', 'Geneva', 'Lucid', 'Arial', 'Helvetica', 'Avant Garde', sans-serif; text-anchor: end" x="23.103125" y="100.075412" transform="rotate(-0 23.103125 100.075412)">0.6</text>
     </g>
    </g>
    <g id="ytick_5">
     <g id="line2d_11">
      <g>
       <use xlink:href="#ma1ddb26899" x="30.103125" y="46.670237" style="stroke: #000000; stroke-width: 0.8"/>
      </g>
     </g>
     <g id="text_11">
      <text style="font: 10px 'DejaVu Sans', 'Bitstream Vera Sans', 'Computer Modern Sans Serif', 'Lucida Grande', 'Verdana', 'Geneva', 'Lucid', 'Arial', 'Helvetica', 'Avant Garde', sans-serif; text-anchor: end" x="23.103125" y="50.469455" transform="rotate(-0 23.103125 50.469455)">0.8</text>
     </g>
    </g>
   </g>
   <g id="line2d_12">
    <path d="M 46.335852 261.216 
L 112.306696 261.141581 
L 114.256573 260.73071 
L 116.53143 260.0153 
L 118.806286 259.060765 
L 121.081143 257.888792 
L 123.680979 256.288814 
L 126.605795 254.186995 
L 129.530611 251.793718 
L 132.455426 249.142456 
L 136.030201 245.586105 
L 139.929955 241.348814 
L 143.82971 236.769778 
L 148.704403 230.681969 
L 154.554034 222.938846 
L 160.403666 214.803848 
L 169.503092 201.626224 
L 176.327662 191.477069 
L 177.302601 199.581789 
L 177.95256 201.781962 
L 178.927498 203.747524 
L 183.152232 211.188665 
L 187.051987 217.687368 
L 190.301782 222.691282 
L 193.226598 226.825579 
L 196.151413 230.597668 
L 199.076229 234.012465 
L 202.001045 237.085195 
L 204.92586 239.837172 
L 207.850676 242.292865 
L 210.775492 244.47791 
L 214.025287 246.6193 
L 217.275082 248.491556 
L 220.849857 250.277425 
L 224.424632 251.813295 
L 228.324386 253.243254 
L 232.54912 254.546382 
L 237.098833 255.710235 
L 241.973526 256.730101 
L 247.498178 257.656475 
L 253.672789 258.464206 
L 260.822339 259.170203 
L 269.271806 259.771854 
L 279.346172 260.259932 
L 292.020373 260.64473 
L 309.244288 260.930565 
L 334.91767 261.113497 
L 370.990398 261.191331 
L 370.990398 261.191331 
" clip-path="url(#p0511d10801)" style="fill: none; stroke: #ff4500; stroke-linecap: square"/>
   </g>
   <g id="line2d_13">
    <path d="M 46.335852 256.292835 
L 46.660832 255.459714 
L 46.985811 254.99084 
L 47.63577 254.575386 
L 48.610709 254.413358 
L 51.535525 254.37628 
L 111.331757 254.37247 
L 111.981716 253.918017 
L 113.281634 252.454533 
L 118.806286 245.929123 
L 122.706041 241.690903 
L 126.605795 237.799494 
L 129.85559 234.823844 
L 133.105385 232.146016 
L 136.355181 229.76634 
L 139.279996 227.871597 
L 142.529792 225.999226 
L 145.779587 224.423277 
L 149.029382 223.093001 
L 151.304239 222.400601 
L 155.203993 221.525815 
L 159.428727 220.797096 
L 162.678522 220.364458 
L 166.253297 219.844625 
L 167.878195 219.625359 
L 169.828072 219.141435 
L 171.777949 218.436636 
L 174.052806 217.161835 
L 175.027744 216.545 
L 176.002683 215.654523 
L 176.327662 186.835963 
L 176.652642 212.088942 
L 176.977621 228.429501 
L 177.302601 238.710597 
L 177.62758 244.988969 
L 177.95256 248.797518 
L 178.277539 251.078279 
L 178.602519 252.433323 
L 178.927498 253.234284 
L 179.577458 253.983342 
L 180.227417 254.241775 
L 181.527335 254.360468 
L 187.701946 254.37602 
L 370.990398 254.376021 
L 370.990398 254.376021 
" clip-path="url(#p0511d10801)" style="fill: none; stroke-dasharray: 3.7,1.6; stroke-dashoffset: 0; stroke: #ff4500"/>
   </g>
   <g id="line2d_14">
    <path d="M 46.335852 248.289915 
L 46.660832 245.578432 
L 46.985811 244.236872 
L 47.310791 243.542888 
L 47.63577 243.198374 
L 48.285729 242.933705 
L 49.585648 242.847481 
L 61.934869 242.841192 
L 133.105385 242.838588 
L 133.755344 241.694543 
L 134.080324 240.880514 
L 134.405304 241.860091 
L 135.055263 239.32864 
L 135.380242 238.312873 
L 135.705222 240.576843 
L 136.355181 236.915608 
L 136.68016 235.755802 
L 137.00514 239.33414 
L 137.330119 236.205616 
L 137.980078 232.886414 
L 138.305058 237.911036 
L 138.630037 234.151774 
L 139.279996 230.205216 
L 139.604976 236.616315 
L 139.929955 232.178286 
L 140.579915 227.347734 
L 140.904894 235.249535 
L 141.229874 229.887915 
L 141.879833 224.75959 
L 142.204812 234.026749 
L 142.529792 227.89104 
L 143.179751 221.977955 
L 143.50473 232.736585 
L 143.82971 225.28604 
L 144.479669 219.15007 
L 144.804648 231.420846 
L 145.129628 223.176241 
L 145.779587 216.312154 
L 146.104566 230.12982 
L 146.429546 220.875602 
L 147.079505 213.491215 
L 147.404485 228.848721 
L 147.729464 218.751632 
L 148.054444 213.662136 
L 148.379423 210.673711 
L 148.704403 227.568106 
L 149.029382 216.368578 
L 149.354362 210.820133 
L 149.679341 207.555288 
L 150.004321 226.181118 
L 150.3293 214.149827 
L 150.65428 208.274762 
L 150.979259 204.822294 
L 151.304239 224.977591 
L 151.629218 212.025293 
L 151.954198 205.524723 
L 152.279177 201.355414 
L 152.604157 223.496409 
L 152.929136 209.471586 
L 153.254116 202.781147 
L 153.579096 198.454005 
L 153.904075 222.242061 
L 154.229055 207.273888 
L 154.554034 199.953945 
L 154.879014 195.263332 
L 155.203993 220.88213 
L 155.528973 204.747216 
L 155.853952 197.189884 
L 156.178932 192.307668 
L 156.503911 219.631136 
L 156.828891 202.162152 
L 157.47885 189.086931 
L 157.803829 218.29256 
L 158.128809 199.604389 
L 158.453788 191.335461 
L 158.778768 185.942005 
L 159.103747 216.975045 
L 159.428727 197.279856 
L 159.753706 188.618536 
L 160.078686 182.963264 
L 160.403666 215.748638 
L 160.728645 194.757025 
L 161.053625 185.153536 
L 161.378604 179.353315 
L 161.703584 214.276526 
L 162.028563 192.277826 
L 162.353543 182.303909 
L 162.678522 176.268289 
L 163.003502 213.015041 
L 163.328481 189.681564 
L 163.653461 179.137432 
L 163.97844 172.688055 
L 164.30342 211.575111 
L 164.628399 187.183964 
L 164.953379 176.240088 
L 165.278358 169.118576 
L 165.603338 210.177547 
L 165.928317 184.702182 
L 166.253297 173.08814 
L 166.578277 165.520067 
L 166.903256 208.755425 
L 167.228236 181.925474 
L 167.553215 170.01507 
L 167.878195 162.189801 
L 168.203174 207.452358 
L 168.528154 179.452143 
L 169.178113 158.658258 
L 169.503092 206.087004 
L 169.828072 176.284707 
L 170.478031 155.027149 
L 170.80301 204.662458 
L 171.12799 173.928653 
L 171.452969 161.162246 
L 171.777949 152.825856 
L 172.102928 203.802882 
L 172.427908 172.506491 
L 172.752887 156.943097 
L 173.077867 146.991862 
L 173.402847 201.605619 
L 173.727826 167.482861 
L 174.052806 152.832893 
L 174.377785 143.677694 
L 174.702765 200.266437 
L 175.027744 165.637924 
L 175.352724 150.926452 
L 175.677703 141.725071 
L 176.002683 199.539434 
L 176.327662 161.767509 
L 176.652642 145.317347 
L 176.977621 134.829952 
L 177.302601 196.944145 
L 177.62758 158.818237 
L 178.277539 131.817779 
L 178.602519 195.840154 
L 178.927498 157.128123 
L 179.577458 129.880812 
L 179.902437 195.138858 
L 180.227417 153.205258 
L 180.877376 122.786584 
L 181.202355 192.517439 
L 181.527335 150.151279 
L 182.177294 120.097405 
L 182.502273 191.504813 
L 182.827253 148.067967 
L 183.477212 117.98156 
L 183.802191 190.742899 
L 184.127171 144.051019 
L 184.77713 110.656964 
L 185.102109 188.081226 
L 185.427089 140.813708 
L 186.077048 107.782917 
L 186.402028 187.010612 
L 186.727007 139.045054 
L 187.376966 105.491433 
L 187.701946 186.190097 
L 188.026925 134.92001 
L 188.676884 97.929455 
L 189.001864 183.474811 
L 189.326843 131.544152 
L 189.976802 94.902696 
L 190.301782 182.34991 
L 190.626761 129.697018 
L 191.27672 89.207623 
L 191.6017 180.56619 
L 191.926679 124.554124 
L 192.576639 83.827104 
L 192.901618 178.454241 
L 193.226598 121.72217 
L 193.876557 81.026648 
L 194.201536 177.444104 
L 194.526516 119.896798 
L 195.176475 76.290347 
L 195.501454 175.931102 
L 195.826434 115.356326 
L 196.476393 72.455193 
L 196.801372 174.294581 
L 197.126352 113.770204 
L 197.776311 66.172935 
L 198.10129 172.643729 
L 198.42627 107.800446 
L 199.076229 58.79722 
L 199.401209 169.946257 
L 199.726188 102.514018 
L 200.376147 54.248421 
L 200.701127 168.028208 
L 201.026106 100.574694 
L 201.676065 53.115736 
L 202.001045 167.531296 
L 202.326024 100.093249 
L 202.975983 47.98641 
L 203.300963 165.80126 
L 203.625942 95.637042 
L 204.275901 39.983559 
L 204.600881 163.520276 
L 204.92586 88.806789 
L 205.57582 35.027337 
L 205.900799 161.422848 
L 206.225779 86.744836 
L 206.875738 28.83491 
L 207.200717 159.284957 
L 207.525697 81.804325 
L 208.175656 26.038241 
L 208.500635 158.089107 
L 208.825615 80.581927 
L 209.475574 25.278062 
L 209.800553 157.781954 
L 210.125533 80.250309 
L 210.775492 21.216311 
L 211.100471 157.384915 
L 211.425451 77.069096 
L 212.07541 19.692942 
L 212.40039 156.745186 
L 212.725369 76.417043 
L 213.375328 19.296 
L 213.700308 156.605293 
L 214.025287 86.679716 
L 214.675246 42.444553 
L 215.000226 164.988815 
L 215.325205 94.748669 
L 215.975164 46.766622 
L 216.300144 166.643687 
L 216.625123 111.099479 
L 217.275082 77.662683 
L 217.600062 177.100781 
L 217.925041 136.185026 
L 218.575001 111.877525 
L 218.89998 188.358355 
L 219.22496 145.216854 
L 219.549939 202.727353 
L 219.874919 221.450527 
L 220.199898 231.446584 
L 220.524878 236.728357 
L 220.849857 239.583675 
L 221.174837 241.107557 
L 221.499816 241.925338 
L 221.824796 242.360369 
L 222.474755 242.720566 
L 223.449693 242.845284 
L 227.349448 242.869435 
L 370.990398 242.869454 
L 370.990398 242.869454 
" clip-path="url(#p0511d10801)" style="fill: none; stroke-dasharray: 0.64,0.16,0.1,0.16; stroke-dashoffset: 0; stroke: #ff4500; stroke-width: 0.1"/>
   </g>
   <g id="patch_3">
    <path d="M 30.103125 273.312 
L 30.103125 7.2 
" style="fill: none; stroke: #000000; stroke-width: 0.8; stroke-linejoin: miter; stroke-linecap: square"/>
   </g>
   <g id="patch_4">
    <path d="M 387.223125 273.312 
L 387.223125 7.2 
" style="fill: none; stroke: #000000; stroke-width: 0.8; stroke-linejoin: miter; stroke-linecap: square"/>
   </g>
   <g id="patch_5">
    <path d="M 30.103125 273.312 
L 387.223125 273.312 
" style="fill: none; stroke: #000000; stroke-width: 0.8; stroke-linejoin: miter; stroke-linecap: square"/>
   </g>
   <g id="patch_6">
    <path d="M 30.103125 7.2 
L 387.223125 7.2 
" style="fill: none; stroke: #000000; stroke-width: 0.8; stroke-linejoin: miter; stroke-linecap: square"/>
   </g>
   <g id="legend_1">
    <g id="patch_7">
     <path d="M 236.224687 59.234375 
L 380.223125 59.234375 
Q 382.223125 59.234375 382.223125 57.234375 
L 382.223125 14.2 
Q 382.223125 12.2 380.223125 12.2 
L 236.224687 12.2 
Q 234.224687 12.2 234.224687 14.2 
L 234.224687 57.234375 
Q 234.224687 59.234375 236.224687 59.234375 
z
" style="fill: #ffffff; opacity: 0.8; stroke: #cccccc; stroke-linejoin: miter"/>
    </g>
    <g id="line2d_15">
     <path d="M 238.224687 20.298437 
L 248.224687 20.298437 
L 258.224687 20.298437 
" style="fill: none; stroke: #ff4500; stroke-linecap: square"/>
    </g>
    <g id="text_12">
     <text style="font: 10px 'DejaVu Sans', 'Bitstream Vera Sans', 'Computer Modern Sans Serif', 'Lucida Grande', 'Verdana', 'Geneva', 'Lucid', 'Arial', 'Helvetica', 'Avant Garde', sans-serif; text-anchor: start" x="266.224687" y="23.798437" transform="rotate(-0 266.224687 23.798437)">Target response DB1</text>
    </g>
    <g id="line2d_16">
     <path d="M 238.224687 34.976562 
L 248.224687 34.976562 
L 258.224687 34.976562 
" style="fill: none; stroke-dasharray: 3.7,1.6; stroke-dashoffset: 0; stroke: #ff4500"/>
    </g>
    <g id="text_13">
     <text style="font: 10px 'DejaVu Sans', 'Bitstream Vera Sans', 'Computer Modern Sans Serif', 'Lucida Grande', 'Verdana', 'Geneva', 'Lucid', 'Arial', 'Helvetica', 'Avant Garde', sans-serif; text-anchor: start" x="266.224687" y="38.476562" transform="rotate(-0 266.224687 38.476562)">Digital prediction DB1</text>
    </g>
    <g id="line2d_17">
     <path d="M 238.224687 49.654687 
L 248.224687 49.654687 
L 258.224687 49.654687 
" style="fill: none; stroke-dasharray: 0.64,0.16,0.1,0.16; stroke-dashoffset: 0; stroke: #ff4500; stroke-width: 0.1"/>
    </g>
    <g id="text_14">
     <text style="font: 10px 'DejaVu Sans', 'Bitstream Vera Sans', 'Computer Modern Sans Serif', 'Lucida Grande', 'Verdana', 'Geneva', 'Lucid', 'Arial', 'Helvetica', 'Avant Garde', sans-serif; text-anchor: start" x="266.224687" y="53.154687" transform="rotate(-0 266.224687 53.154687)">Analog prediction DB1</text>
    </g>
   </g>
  </g>
 </g>
 <defs>
  <clipPath id="p0511d10801">
   <rect x="30.103125" y="7.2" width="357.12" height="266.112"/>
  </clipPath>
 </defs>
</svg>
