<?xml version="1.0" encoding="utf-8" standalone="no"?>
<!DOCTYPE svg PUBLIC "-//W3C//DTD SVG 1.1//EN"
  "http://www.w3.org/Graphics/SVG/1.1/DTD/svg11.dtd">
<svg xmlns:xlink="http://www.w3.org/1999/xlink" width="404.393438pt" height="298.275386pt" viewBox="0 0 404.393438 298.275386" xmlns="http://www.w3.org/2000/svg" version="1.1">
 <metadata>
  <rdf:RDF xmlns:dc="http://purl.org/dc/elements/1.1/" xmlns:cc="http://creativecommons.org/ns#" xmlns:rdf="http://www.w3.org/1999/02/22-rdf-syntax-ns#">
   <cc:Work>
    <dc:type rdf:resource="http://purl.org/dc/dcmitype/StillImage"/>
    <dc:date>2023-10-23T13:39:43.560711</dc:date>
    <dc:format>image/svg+xml</dc:format>
    <dc:creator>
     <cc:Agent>
      <dc:title>Matplotlib v3.8.0, https://matplotlib.org/</dc:title>
     </cc:Agent>
    </dc:creator>
   </cc:Work>
  </rdf:RDF>
 </metadata>
 <defs>
  <style type="text/css">*{stroke-linejoin: round; stroke-linecap: butt}</style>
 </defs>
 <g id="figure_1">
  <g id="patch_1">
   <path d="M 0 298.275386 
L 404.393438 298.275386 
L 404.393438 0 
L 0 0 
z
" style="fill: #ffffff"/>
  </g>
  <g id="axes_1">
   <g id="patch_2">
    <path d="M 40.073438 274.397261 
L 397.193438 274.397261 
L 397.193438 8.285261 
L 40.073438 8.285261 
z
" style="fill: #ffffff"/>
   </g>
   <g id="matplotlib.axis_1">
    <g id="xtick_1">
     <g id="line2d_1">
      <defs>
       <path id="md050e73e0b" d="M 0 0 
L 0 3.5 
" style="stroke: #000000; stroke-width: 0.8"/>
      </defs>
      <g>
       <use xlink:href="#md050e73e0b" x="56.306165" y="274.397261" style="stroke: #000000; stroke-width: 0.8"/>
      </g>
     </g>
     <g id="text_1">
      <text style="font: 10px 'DejaVu Sans', 'Bitstream Vera Sans', 'Computer Modern Sans Serif', 'Lucida Grande', 'Verdana', 'Geneva', 'Lucid', 'Arial', 'Helvetica', 'Avant Garde', sans-serif; text-anchor: middle" x="56.306165" y="288.995698" transform="rotate(-0 56.306165 288.995698)">0.0</text>
     </g>
    </g>
    <g id="xtick_2">
     <g id="line2d_2">
      <g>
       <use xlink:href="#md050e73e0b" x="121.30207" y="274.397261" style="stroke: #000000; stroke-width: 0.8"/>
      </g>
     </g>
     <g id="text_2">
      <text style="font: 10px 'DejaVu Sans', 'Bitstream Vera Sans', 'Computer Modern Sans Serif', 'Lucida Grande', 'Verdana', 'Geneva', 'Lucid', 'Arial', 'Helvetica', 'Avant Garde', sans-serif; text-anchor: middle" x="121.30207" y="288.995698" transform="rotate(-0 121.30207 288.995698)">0.1</text>
     </g>
    </g>
    <g id="xtick_3">
     <g id="line2d_3">
      <g>
       <use xlink:href="#md050e73e0b" x="186.297975" y="274.397261" style="stroke: #000000; stroke-width: 0.8"/>
      </g>
     </g>
     <g id="text_3">
      <text style="font: 10px 'DejaVu Sans', 'Bitstream Vera Sans', 'Computer Modern Sans Serif', 'Lucida Grande', 'Verdana', 'Geneva', 'Lucid', 'Arial', 'Helvetica', 'Avant Garde', sans-serif; text-anchor: middle" x="186.297975" y="288.995698" transform="rotate(-0 186.297975 288.995698)">0.2</text>
     </g>
    </g>
    <g id="xtick_4">
     <g id="line2d_4">
      <g>
       <use xlink:href="#md050e73e0b" x="251.29388" y="274.397261" style="stroke: #000000; stroke-width: 0.8"/>
      </g>
     </g>
     <g id="text_4">
      <text style="font: 10px 'DejaVu Sans', 'Bitstream Vera Sans', 'Computer Modern Sans Serif', 'Lucida Grande', 'Verdana', 'Geneva', 'Lucid', 'Arial', 'Helvetica', 'Avant Garde', sans-serif; text-anchor: middle" x="251.29388" y="288.995698" transform="rotate(-0 251.29388 288.995698)">0.3</text>
     </g>
    </g>
    <g id="xtick_5">
     <g id="line2d_5">
      <g>
       <use xlink:href="#md050e73e0b" x="316.289785" y="274.397261" style="stroke: #000000; stroke-width: 0.8"/>
      </g>
     </g>
     <g id="text_5">
      <text style="font: 10px 'DejaVu Sans', 'Bitstream Vera Sans', 'Computer Modern Sans Serif', 'Lucida Grande', 'Verdana', 'Geneva', 'Lucid', 'Arial', 'Helvetica', 'Avant Garde', sans-serif; text-anchor: middle" x="316.289785" y="288.995698" transform="rotate(-0 316.289785 288.995698)">0.4</text>
     </g>
    </g>
    <g id="xtick_6">
     <g id="line2d_6">
      <g>
       <use xlink:href="#md050e73e0b" x="381.28569" y="274.397261" style="stroke: #000000; stroke-width: 0.8"/>
      </g>
     </g>
     <g id="text_6">
      <text style="font: 10px 'DejaVu Sans', 'Bitstream Vera Sans', 'Computer Modern Sans Serif', 'Lucida Grande', 'Verdana', 'Geneva', 'Lucid', 'Arial', 'Helvetica', 'Avant Garde', sans-serif; text-anchor: middle" x="381.28569" y="288.995698" transform="rotate(-0 381.28569 288.995698)">0.5</text>
     </g>
    </g>
   </g>
   <g id="matplotlib.axis_2">
    <g id="ytick_1">
     <g id="line2d_7">
      <defs>
       <path id="m7eeb80398a" d="M 0 0 
L -3.5 0 
" style="stroke: #000000; stroke-width: 0.8"/>
      </defs>
      <g>
       <use xlink:href="#m7eeb80398a" x="40.073438" y="267.433056" style="stroke: #000000; stroke-width: 0.8"/>
      </g>
     </g>
     <g id="text_7">
      <text style="font: 10px 'DejaVu Sans', 'Bitstream Vera Sans', 'Computer Modern Sans Serif', 'Lucida Grande', 'Verdana', 'Geneva', 'Lucid', 'Arial', 'Helvetica', 'Avant Garde', sans-serif; text-anchor: end" x="33.073438" y="271.232275" transform="rotate(-0 33.073438 271.232275)">-0.75</text>
     </g>
    </g>
    <g id="ytick_2">
     <g id="line2d_8">
      <g>
       <use xlink:href="#m7eeb80398a" x="40.073438" y="235.378826" style="stroke: #000000; stroke-width: 0.8"/>
      </g>
     </g>
     <g id="text_8">
      <text style="font: 10px 'DejaVu Sans', 'Bitstream Vera Sans', 'Computer Modern Sans Serif', 'Lucida Grande', 'Verdana', 'Geneva', 'Lucid', 'Arial', 'Helvetica', 'Avant Garde', sans-serif; text-anchor: end" x="33.073438" y="239.178045" transform="rotate(-0 33.073438 239.178045)">-0.50</text>
     </g>
    </g>
    <g id="ytick_3">
     <g id="line2d_9">
      <g>
       <use xlink:href="#m7eeb80398a" x="40.073438" y="203.324597" style="stroke: #000000; stroke-width: 0.8"/>
      </g>
     </g>
     <g id="text_9">
      <text style="font: 10px 'DejaVu Sans', 'Bitstream Vera Sans', 'Computer Modern Sans Serif', 'Lucida Grande', 'Verdana', 'Geneva', 'Lucid', 'Arial', 'Helvetica', 'Avant Garde', sans-serif; text-anchor: end" x="33.073438" y="207.123815" transform="rotate(-0 33.073438 207.123815)">-0.25</text>
     </g>
    </g>
    <g id="ytick_4">
     <g id="line2d_10">
      <g>
       <use xlink:href="#m7eeb80398a" x="40.073438" y="171.270367" style="stroke: #000000; stroke-width: 0.8"/>
      </g>
     </g>
     <g id="text_10">
      <text style="font: 10px 'DejaVu Sans', 'Bitstream Vera Sans', 'Computer Modern Sans Serif', 'Lucida Grande', 'Verdana', 'Geneva', 'Lucid', 'Arial', 'Helvetica', 'Avant Garde', sans-serif; text-anchor: end" x="33.073438" y="175.069586" transform="rotate(-0 33.073438 175.069586)">0.00</text>
     </g>
    </g>
    <g id="ytick_5">
     <g id="line2d_11">
      <g>
       <use xlink:href="#m7eeb80398a" x="40.073438" y="139.216137" style="stroke: #000000; stroke-width: 0.8"/>
      </g>
     </g>
     <g id="text_11">
      <text style="font: 10px 'DejaVu Sans', 'Bitstream Vera Sans', 'Computer Modern Sans Serif', 'Lucida Grande', 'Verdana', 'Geneva', 'Lucid', 'Arial', 'Helvetica', 'Avant Garde', sans-serif; text-anchor: end" x="33.073438" y="143.015356" transform="rotate(-0 33.073438 143.015356)">0.25</text>
     </g>
    </g>
    <g id="ytick_6">
     <g id="line2d_12">
      <g>
       <use xlink:href="#m7eeb80398a" x="40.073438" y="107.161908" style="stroke: #000000; stroke-width: 0.8"/>
      </g>
     </g>
     <g id="text_12">
      <text style="font: 10px 'DejaVu Sans', 'Bitstream Vera Sans', 'Computer Modern Sans Serif', 'Lucida Grande', 'Verdana', 'Geneva', 'Lucid', 'Arial', 'Helvetica', 'Avant Garde', sans-serif; text-anchor: end" x="33.073438" y="110.961126" transform="rotate(-0 33.073438 110.961126)">0.50</text>
     </g>
    </g>
    <g id="ytick_7">
     <g id="line2d_13">
      <g>
       <use xlink:href="#m7eeb80398a" x="40.073438" y="75.107678" style="stroke: #000000; stroke-width: 0.8"/>
      </g>
     </g>
     <g id="text_13">
      <text style="font: 10px 'DejaVu Sans', 'Bitstream Vera Sans', 'Computer Modern Sans Serif', 'Lucida Grande', 'Verdana', 'Geneva', 'Lucid', 'Arial', 'Helvetica', 'Avant Garde', sans-serif; text-anchor: end" x="33.073438" y="78.906897" transform="rotate(-0 33.073438 78.906897)">0.75</text>
     </g>
    </g>
    <g id="ytick_8">
     <g id="line2d_14">
      <g>
       <use xlink:href="#m7eeb80398a" x="40.073438" y="43.053448" style="stroke: #000000; stroke-width: 0.8"/>
      </g>
     </g>
     <g id="text_14">
      <text style="font: 10px 'DejaVu Sans', 'Bitstream Vera Sans', 'Computer Modern Sans Serif', 'Lucida Grande', 'Verdana', 'Geneva', 'Lucid', 'Arial', 'Helvetica', 'Avant Garde', sans-serif; text-anchor: end" x="33.073438" y="46.852667" transform="rotate(-0 33.073438 46.852667)">1.00</text>
     </g>
    </g>
    <g id="ytick_9">
     <g id="line2d_15">
      <g>
       <use xlink:href="#m7eeb80398a" x="40.073438" y="10.999219" style="stroke: #000000; stroke-width: 0.8"/>
      </g>
     </g>
     <g id="text_15">
      <text style="font: 10px 'DejaVu Sans', 'Bitstream Vera Sans', 'Computer Modern Sans Serif', 'Lucida Grande', 'Verdana', 'Geneva', 'Lucid', 'Arial', 'Helvetica', 'Avant Garde', sans-serif; text-anchor: end" x="33.073438" y="14.798438" transform="rotate(-0 33.073438 14.798438)">1.25</text>
     </g>
    </g>
   </g>
   <g id="line2d_16">
    <path d="M 56.306165 175.511683 
L 56.956124 172.827229 
L 57.606083 171.264644 
L 58.256042 170.36146 
L 58.906001 169.81712 
L 59.88094 169.333785 
L 61.505837 168.862073 
L 66.38053 167.835004 
L 81.979547 164.770933 
L 103.103216 160.899658 
L 120.97709 157.79338 
L 121.30207 161.180781 
L 121.627049 162.797426 
L 121.952029 163.778495 
L 122.601988 164.792824 
L 123.251947 165.172288 
L 124.226885 165.250981 
L 127.476681 165.2269 
L 127.80166 162.025604 
L 128.451619 165.825184 
L 129.101578 167.943915 
L 129.751537 169.099169 
L 130.401496 169.729675 
L 131.051456 170.085773 
L 132.026394 170.366566 
L 133.976271 170.603982 
L 134.301251 172.715212 
L 136.251128 170.231778 
L 137.551046 168.752759 
L 138.525985 167.91565 
L 139.825903 167.076878 
L 140.475862 166.756378 
L 140.800841 160.843221 
L 141.4508 164.570696 
L 142.100759 167.014409 
L 142.750718 168.620946 
L 143.400677 169.622171 
L 144.050637 170.234166 
L 145.025575 170.731193 
L 146.325493 171.014658 
L 146.975452 171.082327 
L 147.300432 174.964215 
L 147.625411 175.097986 
L 147.950391 174.940057 
L 148.27537 174.623344 
L 148.925329 173.570213 
L 150.875207 169.643793 
L 153.475043 164.653336 
L 153.800022 155.642471 
L 154.774961 161.329422 
L 155.42492 164.335244 
L 156.074879 166.565671 
L 156.724838 168.087846 
L 157.374797 169.081375 
L 158.024756 169.728256 
L 158.999695 170.289921 
L 159.974633 170.574676 
L 161.599531 170.768323 
L 164.524347 170.822438 
L 170.698958 170.660107 
L 181.098302 170.134092 
L 185.972995 169.823917 
L 186.297975 170.014231 
L 186.622954 172.256379 
L 186.947934 173.703899 
L 187.272913 174.618842 
L 187.922872 175.536967 
L 188.572831 175.877819 
L 189.54777 176.028743 
L 192.472586 176.068267 
L 380.96071 176.068597 
L 380.96071 176.068597 
" clip-path="url(#pcc94cad9aa)" style="fill: none; stroke: #ff4500; stroke-linecap: square"/>
   </g>
   <g id="line2d_17">
    <path d="M 56.306165 172.922436 
L 56.631144 171.520757 
L 56.956124 170.827249 
L 57.281103 170.468499 
L 57.931062 170.199754 
L 59.23098 170.112121 
L 71.255223 170.105764 
L 142.425739 170.105764 
L 142.750718 135.511941 
L 143.075698 157.584235 
L 143.400677 124.055554 
L 144.050637 91.295943 
L 144.375616 139.966875 
L 144.700596 106.211411 
L 145.350555 79.799071 
L 145.675534 135.274795 
L 146.000514 100.900634 
L 146.650473 75.781228 
L 146.975452 133.656711 
L 147.300432 98.772662 
L 147.950391 73.729826 
L 148.27537 132.857175 
L 148.60035 97.493834 
L 149.250309 72.215535 
L 149.575288 132.285026 
L 149.900268 96.453091 
L 150.550227 70.895951 
L 150.875207 131.790089 
L 151.200186 95.49503 
L 151.850145 69.586996 
L 152.175125 131.30719 
L 152.500104 94.545854 
L 153.150063 68.266858 
L 153.475043 130.81664 
L 153.800022 93.585484 
L 154.449981 66.937247 
L 154.774961 130.328255 
L 155.09994 92.659172 
L 155.749899 65.646993 
L 156.074879 129.84607 
L 156.399858 91.724982 
L 157.049818 64.311391 
L 157.374797 129.349425 
L 157.699777 90.744945 
L 158.349736 62.946011 
L 158.674715 128.84491 
L 158.999695 89.752272 
L 159.649654 61.627787 
L 159.974633 128.35448 
L 160.299613 110.317912 
L 160.949572 100.601533 
L 161.274551 140.479828 
L 161.599531 118.970093 
L 162.24949 104.386131 
L 162.574469 142.29085 
L 162.899449 119.762541 
L 163.549408 103.802525 
L 163.874388 142.11052 
L 164.199367 119.534711 
L 164.849326 102.689885 
L 165.174306 141.669021 
L 165.499285 118.531978 
L 166.149244 102.167579 
L 166.474224 141.446108 
L 166.799203 117.760808 
L 167.449162 100.748794 
L 167.774142 140.875478 
L 168.099121 117.200769 
L 168.74908 99.43732 
L 169.07406 140.339485 
L 169.399039 116.117297 
L 170.048999 98.86407 
L 170.373978 140.091071 
L 170.698958 115.318666 
L 171.348917 97.412991 
L 171.673896 139.50011 
L 171.998876 114.768312 
L 172.648835 96.074842 
L 172.973814 138.957913 
L 173.298794 113.667899 
L 173.948753 94.867647 
L 174.273732 138.478707 
L 174.598712 112.617684 
L 175.248671 93.87259 
L 175.57365 138.051921 
L 175.89863 112.224349 
L 176.548589 92.609532 
L 176.873569 137.54208 
L 177.198548 111.139049 
L 177.848507 91.413731 
L 178.173487 137.054205 
L 178.498466 110.07958 
L 179.148425 90.396598 
L 179.473405 136.620484 
L 179.798384 109.087178 
L 180.448343 88.792984 
L 180.773323 135.971002 
L 181.098302 108.464056 
L 181.748261 87.814355 
L 182.073241 135.586077 
L 182.39822 107.491011 
L 183.04818 86.8363 
L 183.373159 135.16701 
L 183.698139 106.508762 
L 184.348098 85.224841 
L 184.673077 134.508272 
L 184.998057 105.866885 
L 185.648016 83.782696 
L 185.972995 133.926051 
L 186.297975 124.467557 
L 186.622954 122.260126 
L 186.947934 121.196182 
L 187.272913 147.533059 
L 187.597893 134.341948 
L 187.922872 129.202448 
L 188.247852 126.298684 
L 188.572831 150.033138 
L 188.897811 136.121215 
L 189.22279 131.009901 
L 189.54777 128.077195 
L 189.87275 150.853882 
L 190.197729 137.336797 
L 190.522709 131.732729 
L 190.847688 129.175077 
L 191.172668 151.335918 
L 191.497647 138.30603 
L 191.822627 132.925604 
L 192.147606 129.864336 
L 192.472586 151.654317 
L 192.797565 138.53096 
L 193.122545 133.702017 
L 193.447524 130.942848 
L 193.772504 152.121614 
L 194.097483 139.482322 
L 194.422463 134.241923 
L 194.747442 131.917447 
L 195.072422 152.545085 
L 195.397401 140.398224 
L 195.722381 135.387298 
L 196.047361 132.569638 
L 196.37234 152.855701 
L 196.69732 141.226912 
L 197.022299 136.482435 
L 197.347279 133.827923 
L 197.672258 153.402018 
L 197.997238 141.610302 
L 198.322217 136.715431 
L 198.647197 134.605307 
L 198.972176 153.734876 
L 199.297156 142.454314 
L 199.622135 137.812253 
L 199.947115 135.223066 
L 200.272094 154.027967 
L 200.597074 143.266956 
L 200.922053 138.885938 
L 201.247033 136.455501 
L 201.572012 154.575159 
L 201.896992 143.641068 
L 202.221971 139.730499 
L 202.546951 137.548463 
L 202.871931 155.058327 
L 203.19691 144.579971 
L 203.52189 140.254804 
L 203.846869 137.861585 
L 204.171849 155.19862 
L 204.496828 145.288614 
L 204.821808 141.256492 
L 205.146787 139.040136 
L 205.471767 155.724345 
L 205.796746 145.63828 
L 206.121726 142.079018 
L 206.446705 140.111669 
L 206.771685 156.201238 
L 207.096664 146.56462 
L 207.421644 142.591757 
L 207.746623 141.02752 
L 208.071603 156.60631 
L 208.396582 147.433617 
L 208.721562 143.678809 
L 209.046542 141.629528 
L 209.371521 156.893999 
L 209.696501 147.625252 
L 210.02148 144.396851 
L 210.34646 142.628579 
L 210.671439 157.339355 
L 210.996419 148.576516 
L 211.321398 145.099961 
L 211.646378 143.401062 
L 211.971357 157.68691 
L 212.296337 149.219412 
L 212.621316 145.875993 
L 212.946296 144.243989 
L 213.271275 158.076325 
L 213.596255 149.887564 
L 213.921234 146.664628 
L 214.246214 145.040642 
L 214.571193 158.43589 
L 214.896173 150.537747 
L 215.221152 147.438194 
L 215.546132 145.879939 
L 215.871112 158.824614 
L 216.196091 151.19959 
L 216.521071 148.215721 
L 216.84605 146.726877 
L 217.17103 159.207722 
L 217.496009 151.859764 
L 217.820989 148.988236 
L 218.145968 147.566725 
L 218.470948 159.593873 
L 218.795927 152.517238 
L 219.120907 149.758213 
L 219.445886 148.397334 
L 219.770866 159.980137 
L 220.095845 153.11251 
L 220.420825 150.492295 
L 220.745804 149.207493 
L 221.070784 160.351744 
L 221.395763 153.756601 
L 221.720743 151.245304 
L 222.045723 150.027583 
L 222.370702 160.731587 
L 222.695682 154.401584 
L 223.020661 152.000514 
L 223.345641 150.846256 
L 223.67062 161.110414 
L 223.9956 155.043764 
L 224.320579 152.694666 
L 224.645559 151.627394 
L 224.970538 161.473607 
L 225.295518 155.673442 
L 225.620497 153.436719 
L 225.945477 152.43193 
L 226.270456 161.848536 
L 226.595436 156.307747 
L 226.920415 154.178641 
L 227.245395 153.225712 
L 227.570374 162.223822 
L 227.895354 156.928312 
L 228.220333 154.917082 
L 228.545313 153.987421 
L 228.870293 162.58189 
L 229.195272 157.54151 
L 229.520252 140.08484 
L 229.845231 130.759091 
L 230.170211 153.817484 
L 230.49519 135.651981 
L 231.145149 121.587758 
L 231.470129 149.627554 
L 231.795108 131.769338 
L 232.445067 118.971404 
L 232.770047 148.452583 
L 233.095026 130.418098 
L 233.744985 117.641749 
L 234.069965 147.867846 
L 234.394944 129.534781 
L 235.044904 116.548358 
L 235.369883 147.406892 
L 235.694863 128.727019 
L 236.344822 115.503473 
L 236.669801 146.971317 
L 236.994781 127.961124 
L 237.64474 114.507942 
L 237.969719 146.555859 
L 238.294699 127.207256 
L 238.944658 113.471881 
L 239.269637 146.125512 
L 239.594617 126.422362 
L 240.244576 112.415456 
L 240.569555 145.689688 
L 240.894535 125.652634 
L 241.544494 111.407288 
L 241.869474 145.270116 
L 242.194453 124.875918 
L 242.844412 110.345183 
L 243.169392 144.829952 
L 243.494371 124.083652 
L 244.14433 109.262355 
L 244.46931 144.3835 
L 244.794289 123.281661 
L 245.444248 108.176451 
L 245.769228 143.932616 
L 246.094207 122.534579 
L 246.744166 107.102132 
L 247.069146 143.489839 
L 247.394125 121.721412 
L 248.044085 105.999476 
L 248.369064 143.035479 
L 248.694044 120.958621 
L 249.344003 104.835633 
L 249.668982 142.565687 
L 249.993962 119.93688 
L 250.643921 103.899946 
L 250.9689 142.164496 
L 251.29388 119.005911 
L 251.943839 102.418004 
L 252.268818 141.5558 
L 252.593798 118.427793 
L 253.243757 101.518752 
L 253.568736 141.198359 
L 253.893716 117.513314 
L 254.543675 100.614358 
L 254.868655 140.817088 
L 255.193634 116.577551 
L 255.843593 99.107096 
L 256.168573 140.196533 
L 256.493552 115.9863 
L 257.143511 98.190371 
L 257.468491 139.833724 
L 257.79347 115.077009 
L 258.443429 97.272401 
L 258.768409 139.43929 
L 259.093388 114.137927 
L 259.743347 95.737454 
L 260.068327 138.813248 
L 260.393306 113.535694 
L 261.043266 94.365371 
L 261.368245 138.264354 
L 261.693225 112.417463 
L 262.343184 93.766705 
L 262.668163 138.005473 
L 262.993143 111.599267 
L 263.643102 92.282515 
L 263.968081 137.396545 
L 264.293061 111.009293 
L 264.94302 90.893585 
L 265.267999 136.83607 
L 265.592979 109.874834 
L 266.242938 89.649757 
L 266.567917 136.337942 
L 266.892897 108.798961 
L 267.542856 88.644321 
L 267.867836 135.902839 
L 268.192815 108.40149 
L 268.842774 87.332368 
L 269.167754 135.380679 
L 269.492733 107.297412 
L 270.142692 86.106303 
L 270.467672 134.885437 
L 270.792651 106.216598 
L 271.44261 85.06522 
L 271.76759 134.438421 
L 272.092569 105.205306 
L 272.417549 92.458865 
L 272.742528 108.40642 
L 273.067508 141.056461 
L 273.392487 129.258622 
L 273.717467 125.313977 
L 274.042447 123.829687 
L 274.367426 148.800464 
L 274.692406 135.239421 
L 275.017385 129.784935 
L 275.342365 126.680792 
L 275.667344 150.228695 
L 275.992324 136.889332 
L 276.317303 131.448971 
L 276.642283 128.349754 
L 276.967262 150.984316 
L 277.292242 137.429264 
L 277.617221 132.432251 
L 277.942201 129.559544 
L 278.26718 151.510775 
L 278.59216 138.430468 
L 278.917139 133.002359 
L 279.242119 129.912197 
L 279.567098 151.677246 
L 279.892078 139.17071 
L 280.217057 134.051655 
L 280.542037 131.155248 
L 280.867017 152.220979 
L 281.191996 139.551421 
L 281.516976 134.918153 
L 281.841955 132.287385 
L 282.166935 152.718013 
L 282.491914 140.517702 
L 282.816894 135.460266 
L 283.141873 133.25252 
L 283.466853 153.136023 
L 283.791832 141.424724 
L 284.116812 136.602207 
L 284.441791 133.902186 
L 284.766771 153.438022 
L 285.09175 141.635187 
L 285.41673 137.357388 
L 285.741709 134.95006 
L 286.066689 153.8982 
L 286.391668 142.565393 
L 286.716648 137.879502 
L 287.041628 135.894189 
L 287.366607 154.310908 
L 287.691587 143.459785 
L 288.016566 139.002078 
L 288.341546 136.525666 
L 288.666525 154.607974 
L 288.991505 144.271304 
L 289.316484 140.071334 
L 289.641464 137.750863 
L 289.966443 155.145761 
L 290.291423 144.645094 
L 290.616402 140.294162 
L 290.941382 138.507859 
L 291.266361 155.471772 
L 291.591341 145.46863 
L 291.91632 141.365787 
L 292.2413 139.105646 
L 292.566279 155.755619 
L 292.891259 146.267474 
L 293.216238 142.414753 
L 293.541218 140.309186 
L 293.866198 156.295175 
L 294.191177 146.627506 
L 294.516157 143.238388 
L 294.841136 141.372261 
L 295.166116 156.770118 
L 295.491095 147.54235 
L 295.816075 143.743501 
L 296.141054 141.668154 
L 296.466034 156.912611 
L 296.791013 148.236222 
L 297.115993 144.722662 
L 297.440972 142.878589 
L 297.765952 157.46281 
L 298.090931 148.774022 
L 298.415911 145.389437 
L 298.74089 143.677509 
L 299.06587 157.814639 
L 299.390849 149.421953 
L 299.715829 146.167446 
L 300.040809 144.521003 
L 300.365788 158.201479 
L 300.690768 150.089629 
L 301.015747 146.895644 
L 301.340727 145.347519 
L 301.665706 158.574738 
L 301.990686 150.745828 
L 302.315665 147.671467 
L 302.640645 146.189597 
L 302.965624 158.960526 
L 303.290604 151.407096 
L 303.615583 148.4466 
L 303.940563 147.032732 
L 304.265542 159.348479 
L 304.590522 152.06744 
L 304.915501 149.219894 
L 305.240481 147.869937 
L 305.56546 159.733395 
L 305.89044 152.723095 
L 306.215419 149.988134 
L 306.540399 148.64071 
L 306.865379 160.090424 
L 307.190358 153.358483 
L 307.515338 150.741915 
L 307.840317 149.460862 
L 308.165297 160.469463 
L 308.490276 154.004535 
L 308.815256 151.495258 
L 309.140235 150.280617 
L 309.465215 160.849285 
L 309.790194 154.648937 
L 310.115174 152.249519 
L 310.440153 151.097203 
L 310.765133 161.227624 
L 311.090112 155.232539 
L 311.415092 152.969167 
L 311.740071 151.890508 
L 312.065051 161.596729 
L 312.39003 155.865008 
L 312.71501 153.711789 
L 313.03999 152.694206 
L 313.364969 161.971814 
L 313.689949 156.498644 
L 314.014928 154.452409 
L 314.339908 153.475452 
L 314.664887 162.341586 
L 314.989867 157.132064 
L 315.314846 155.156686 
L 315.639826 154.246689 
L 315.964805 162.703346 
L 316.289785 151.201185 
L 316.614764 145.823319 
L 316.939744 142.475148 
L 317.264723 157.391571 
L 317.589703 147.752585 
L 317.914682 143.323254 
L 318.239662 140.496592 
L 318.564641 156.367775 
L 318.889621 146.693735 
L 319.2146 142.291218 
L 319.53958 139.521365 
L 319.86456 155.910414 
L 320.189539 145.996351 
L 320.514519 141.489012 
L 320.839498 138.648694 
L 321.164478 155.521183 
L 321.489457 145.337771 
L 321.814437 140.711041 
L 322.139416 137.789616 
L 322.464396 155.141457 
L 322.789375 144.681005 
L 323.114355 139.932236 
L 323.439334 136.92686 
L 323.764314 154.758349 
L 324.089293 144.071503 
L 324.414273 139.18029 
L 324.739252 136.078016 
L 325.064232 154.385848 
L 325.389211 143.416025 
L 325.714191 138.396002 
L 326.039171 135.204956 
L 326.36415 154.002996 
L 326.68913 142.749497 
L 327.014109 137.601246 
L 327.339089 134.320084 
L 327.664068 153.616742 
L 327.989048 142.077307 
L 328.314027 136.852304 
L 328.639007 133.462717 
L 328.963986 153.241554 
L 329.288966 141.411239 
L 329.613945 136.052418 
L 329.938925 132.568118 
L 330.263904 152.851858 
L 330.588884 140.730567 
L 330.913863 135.239121 
L 331.238843 131.661762 
L 331.563822 152.457588 
L 331.888802 140.045216 
L 332.213781 134.419692 
L 332.538761 130.800756 
L 332.863741 152.083628 
L 333.18872 139.370171 
L 333.5137 133.607579 
L 333.838679 129.888954 
L 334.163659 151.687074 
L 334.488638 138.675593 
L 334.813618 132.776588 
L 335.138597 129.017093 
L 335.463577 151.30625 
L 335.788556 138.206512 
L 336.113536 131.868305 
L 336.438515 127.884198 
L 336.763495 150.818641 
L 337.088474 137.268813 
L 337.738433 126.909293 
L 338.063413 150.405675 
L 338.388392 136.388414 
L 338.713372 130.132571 
L 339.038352 126.158889 
L 339.363331 150.071467 
L 339.688311 136.11814 
L 340.01329 129.403307 
L 340.33827 125.122792 
L 340.663249 149.631786 
L 340.988229 135.208219 
L 341.638188 124.14974 
L 341.963167 149.221816 
L 342.288147 134.319572 
L 342.613126 127.657144 
L 342.938106 123.388 
L 343.263085 148.880785 
L 343.588065 134.041517 
L 343.913044 126.916498 
L 344.238024 122.327052 
L 344.563003 148.434137 
L 344.887983 133.115083 
L 345.537942 121.337215 
L 345.862922 148.018062 
L 346.187901 132.212942 
L 346.512881 125.136308 
L 346.83786 120.559754 
L 347.16284 147.668535 
L 347.487819 131.369807 
L 347.812799 124.004096 
L 348.137778 119.226643 
L 348.462758 147.102439 
L 348.787737 130.891713 
L 349.437696 118.424148 
L 349.762676 146.766524 
L 350.087655 130.044836 
L 350.412635 122.534471 
L 350.737614 117.648494 
L 351.062594 146.423655 
L 351.387573 129.185752 
L 351.712553 121.391485 
L 352.037533 116.291561 
L 352.362512 145.853291 
L 352.687492 128.700771 
L 353.012471 120.472637 
L 353.337451 115.08809 
L 353.66243 145.345095 
L 353.98741 127.70065 
L 354.312389 119.798379 
L 354.637369 114.614837 
L 354.962348 145.132531 
L 355.287328 126.957527 
L 355.612307 118.71199 
L 355.937287 113.287993 
L 356.262266 144.574087 
L 356.587246 126.464252 
L 357.237205 112.066146 
L 357.562184 144.06401 
L 357.887164 125.451497 
L 358.537123 110.972602 
L 358.862103 143.612892 
L 359.187082 124.490669 
L 359.512062 135.500453 
L 359.837041 138.225202 
L 360.162021 154.08301 
L 360.487 147.941269 
L 360.81198 145.831875 
L 361.136959 144.662648 
L 361.461939 157.471468 
L 361.786918 150.509926 
L 362.111898 147.281476 
L 362.436877 146.127651 
L 362.761857 158.200728 
L 363.086836 151.541355 
L 363.411816 148.446192 
L 363.736795 146.750824 
L 364.061775 158.51802 
L 364.386754 152.328266 
L 364.711734 149.46305 
L 365.036714 147.901333 
L 365.361693 159.064291 
L 365.686673 152.649947 
L 366.011652 149.644716 
L 366.336632 148.618086 
L 366.661611 159.394399 
L 366.986591 153.438629 
L 367.31157 150.657581 
L 367.63655 149.144306 
L 367.961529 159.66103 
L 368.286509 154.188478 
L 368.611488 151.641245 
L 368.936468 150.267497 
L 369.261447 160.197932 
L 369.586427 154.499976 
L 369.911406 152.414869 
L 370.236386 151.268322 
L 370.561365 160.675115 
L 370.886345 155.365016 
L 371.211324 152.863121 
L 371.536304 151.511719 
L 371.861284 160.801078 
L 372.186263 156.025718 
L 372.511243 153.793203 
L 372.836222 152.592047 
L 373.161202 161.32091 
L 373.486181 156.323206 
L 373.811161 154.549946 
L 374.13614 153.574266 
L 374.46112 161.80289 
L 374.786099 157.192308 
L 375.111079 154.992468 
L 375.436058 154.412487 
L 375.761038 162.203299 
L 376.086017 157.999858 
L 376.410997 155.99509 
L 376.735976 154.931406 
L 377.060956 162.467668 
L 377.385935 158.150553 
L 377.710915 156.662251 
L 378.035895 155.852737 
L 378.360874 162.914913 
L 378.685854 158.97234 
L 379.010833 157.087212 
L 379.335813 156.673418 
L 379.660792 163.307795 
L 379.985772 159.764188 
L 380.310751 158.080508 
L 380.635731 157.189855 
L 380.96071 163.568595 
L 380.96071 163.568595 
" clip-path="url(#pcc94cad9aa)" style="fill: none; stroke-dasharray: 0.74,0.32; stroke-dashoffset: 0; stroke: #ff4500; stroke-width: 0.2"/>
   </g>
   <g id="line2d_18">
    <path d="M 56.306165 145.833422 
L 56.956124 109.799621 
L 57.606083 91.974627 
L 58.256042 82.951148 
L 58.906001 78.344386 
L 59.55596 75.974848 
L 60.205919 74.743324 
L 60.855878 74.092213 
L 61.505837 73.737667 
L 62.480776 73.465848 
L 64.430653 73.235801 
L 69.630325 72.951659 
L 80.02967 72.589588 
L 89.129097 72.492276 
L 108.952848 72.639254 
L 117.077336 72.914399 
L 120.97709 73.119803 
L 121.30207 68.847904 
L 121.952029 76.87411 
L 122.277008 78.859571 
L 122.601988 79.98634 
L 122.926967 80.528065 
L 123.251947 80.621082 
L 123.576926 80.38642 
L 124.226885 79.563395 
L 125.851783 77.333678 
L 126.826722 76.439788 
L 127.476681 76.072904 
L 127.80166 51.437613 
L 128.12664 52.729807 
L 129.426558 63.517811 
L 130.076517 67.16655 
L 130.726476 69.426194 
L 131.376435 70.728493 
L 132.026394 71.430442 
L 132.676353 71.772 
L 133.651292 71.917864 
L 133.976271 71.912359 
L 134.301251 86.631469 
L 134.62623 90.761366 
L 134.95121 93.125894 
L 135.276189 94.056155 
L 135.601169 94.042567 
L 135.926148 93.555468 
L 136.576107 91.764291 
L 137.551046 88.078345 
L 138.850964 83.182848 
L 140.150882 79.25865 
L 140.475862 78.416328 
L 140.800841 43.709695 
L 141.125821 42.325369 
L 141.4508 44.089518 
L 143.075698 59.119164 
L 143.725657 62.831447 
L 144.375616 65.204883 
L 145.025575 66.629391 
L 145.675534 67.427292 
L 146.325493 67.825231 
L 146.975452 67.971573 
L 147.300432 89.682967 
L 147.625411 96.20717 
L 147.950391 99.759022 
L 148.27537 101.469262 
L 148.60035 101.731614 
L 148.925329 100.835082 
L 149.575288 97.535805 
L 150.550227 91.114958 
L 153.150063 73.077004 
L 153.475043 71.121136 
L 153.800022 25.682915 
L 154.125002 20.381261 
L 154.449981 20.470538 
L 154.774961 23.187122 
L 156.724838 47.22046 
L 157.374797 52.548347 
L 158.024756 56.369036 
L 158.674715 59.056719 
L 159.324674 60.947337 
L 159.974633 62.299158 
L 160.949572 63.68702 
L 161.92451 64.634798 
L 163.224428 65.550112 
L 165.174306 66.589536 
L 167.774142 67.710504 
L 171.023937 68.834268 
L 175.248671 70.0504 
L 180.773323 71.482345 
L 185.972995 72.67009 
L 186.622954 129.329587 
L 186.947934 146.211904 
L 187.272913 155.996476 
L 187.597893 161.648517 
L 187.922872 164.907501 
L 188.247852 166.784492 
L 188.572831 167.864577 
L 188.897811 168.486256 
L 189.54777 169.050215 
L 190.197729 169.237275 
L 191.822627 169.324436 
L 206.771685 169.330409 
L 380.96071 169.330409 
L 380.96071 169.330409 
" clip-path="url(#pcc94cad9aa)" style="fill: none; stroke: #c71585; stroke-linecap: square"/>
   </g>
   <g id="line2d_19">
    <path d="M 56.306165 175.954905 
L 56.631144 175.26711 
L 56.956124 174.918736 
L 57.606083 174.670356 
L 58.906001 174.590781 
L 73.2051 174.585509 
L 142.425739 174.585509 
L 142.750718 186.625577 
L 143.075698 171.595493 
L 143.725657 211.788357 
L 144.050637 226.770639 
L 144.375616 175.59263 
L 144.700596 213.34336 
L 145.350555 239.749592 
L 145.675534 177.815314 
L 146.000514 219.186337 
L 146.650473 244.267922 
L 146.975452 178.839633 
L 147.300432 221.597267 
L 147.950391 246.696914 
L 148.27537 179.576169 
L 148.60035 223.16082 
L 149.250309 248.598638 
L 149.575288 180.244882 
L 149.900268 224.51426 
L 150.550227 250.332823 
L 150.875207 180.868751 
L 151.200186 225.774552 
L 151.850145 252.068543 
L 152.175125 181.500612 
L 152.500104 227.060089 
L 153.150063 253.790085 
L 153.475043 182.153549 
L 153.800022 228.339585 
L 154.449981 255.538902 
L 154.774961 182.810777 
L 155.09994 229.563012 
L 155.749899 257.187589 
L 156.074879 183.43916 
L 156.399858 230.832368 
L 157.049818 258.905776 
L 157.374797 184.088833 
L 157.699777 232.110741 
L 158.349736 260.646914 
L 158.674715 184.744525 
L 158.999695 233.408836 
L 159.649654 262.301261 
L 159.974633 185.373325 
L 160.299613 196.450296 
L 160.624592 196.983692 
L 160.949572 197.897546 
L 161.274551 180.645217 
L 161.599531 187.732364 
L 162.24949 193.907425 
L 162.574469 179.974034 
L 162.899449 186.851492 
L 163.549408 194.322475 
L 163.874388 180.440133 
L 164.199367 187.128952 
L 164.849326 195.176887 
L 165.174306 180.939584 
L 165.499285 187.892842 
L 166.149244 195.676054 
L 166.474224 181.152998 
L 166.799203 188.452897 
L 167.449162 196.736018 
L 167.774142 181.722153 
L 168.424101 193.654779 
L 168.74908 197.674829 
L 169.07406 182.22263 
L 169.399039 189.727573 
L 170.048999 198.188767 
L 170.373978 182.435616 
L 170.698958 190.310807 
L 171.348917 199.267184 
L 171.673896 183.012959 
L 172.323855 195.941783 
L 172.648835 200.225334 
L 172.973814 183.533262 
L 173.298794 191.635699 
L 173.948753 201.04586 
L 174.273732 184.001379 
L 174.598712 192.42989 
L 175.248671 201.946192 
L 175.57365 184.379977 
L 176.223609 198.310677 
L 176.548589 202.855625 
L 176.873569 184.880115 
L 177.198548 193.562496 
L 177.848507 203.673485 
L 178.173487 185.352655 
L 178.498466 194.391516 
L 179.148425 204.5885 
L 179.473405 185.737095 
L 179.798384 195.140249 
L 180.448343 205.795196 
L 180.773323 186.368466 
L 181.098302 195.662492 
L 181.748261 206.391623 
L 182.073241 186.74764 
L 182.39822 196.398386 
L 183.04818 207.250995 
L 183.373159 187.114665 
L 183.698139 197.144245 
L 184.348098 208.467277 
L 184.673077 187.753756 
L 185.323036 204.283764 
L 185.648016 209.48375 
L 185.972995 188.312957 
L 186.297975 180.711872 
L 186.622954 179.79636 
L 186.947934 179.627979 
L 187.272913 180.360557 
L 187.597893 177.659897 
L 187.922872 178.730216 
L 188.572831 180.096794 
L 188.897811 177.732785 
L 189.22279 178.743037 
L 189.87275 179.914005 
L 190.197729 177.54935 
L 190.522709 178.603847 
L 191.172668 179.69945 
L 191.497647 177.32766 
L 191.822627 178.297949 
L 192.472586 179.542864 
L 192.797565 177.260149 
L 193.122545 178.140606 
L 193.447524 178.598616 
L 193.772504 179.285953 
L 194.097483 177.021567 
L 194.422463 177.949886 
L 194.747442 178.390189 
L 195.072422 179.064311 
L 195.397401 176.805994 
L 195.722381 177.651801 
L 196.047361 178.160746 
L 196.37234 178.926713 
L 196.69732 176.618238 
L 197.022299 177.38719 
L 197.347279 177.856875 
L 197.672258 178.625669 
L 197.997238 176.498758 
L 198.322217 177.316754 
L 198.647197 177.722021 
L 198.972176 178.455911 
L 199.297156 176.312533 
L 199.622135 177.054973 
L 199.947115 177.512164 
L 200.272094 178.323395 
L 200.597074 176.145153 
L 201.572012 178.052777 
L 201.896992 176.031021 
L 202.221971 176.651737 
L 202.546951 176.990099 
L 202.871931 177.823998 
L 203.19691 175.833116 
L 204.171849 177.752691 
L 204.496828 175.708825 
L 205.471767 177.50914 
L 205.796746 175.598717 
L 206.121726 176.131781 
L 206.446705 176.425544 
L 206.771685 177.29822 
L 207.096664 175.423592 
L 207.421644 175.975466 
L 207.746623 176.26537 
L 208.071603 177.122583 
L 208.396582 175.261257 
L 209.046542 176.075663 
L 209.371521 177.004651 
L 209.696501 175.206575 
L 210.02148 175.651427 
L 210.34646 175.902263 
L 210.671439 176.8204 
L 210.996419 175.042356 
L 211.646378 175.756649 
L 211.971357 176.676182 
L 212.296337 174.923724 
L 212.946296 175.579475 
L 213.271275 176.529513 
L 213.596255 174.808452 
L 214.246214 175.428554 
L 214.571193 176.384396 
L 214.896173 174.70096 
L 215.546132 175.266431 
L 215.871112 176.24425 
L 216.196091 174.593022 
L 216.84605 175.120284 
L 217.17103 176.099979 
L 217.496009 174.491485 
L 218.145968 174.977505 
L 218.470948 175.96455 
L 218.795927 174.394526 
L 219.445886 174.838319 
L 219.770866 175.84302 
L 220.095845 174.309313 
L 220.745804 174.710666 
L 221.070784 175.713561 
L 221.395763 174.22083 
L 222.045723 174.584108 
L 222.370702 175.594505 
L 222.695682 174.136954 
L 223.345641 174.460729 
L 223.67062 175.480568 
L 223.9956 174.059308 
L 224.645559 174.3495 
L 224.970538 175.372979 
L 225.295518 173.987042 
L 225.945477 174.247384 
L 226.270456 175.27153 
L 226.595436 173.92095 
L 227.245395 174.135296 
L 227.570374 175.172245 
L 227.895354 173.858292 
L 228.545313 174.038831 
L 228.870293 175.081847 
L 229.195272 173.802101 
L 229.520252 175.093918 
L 229.845231 177.353099 
L 230.170211 173.535337 
L 231.145149 181.323782 
L 231.470129 174.247541 
L 231.795108 178.254916 
L 232.445067 182.928396 
L 232.770047 174.830968 
L 233.095026 179.086087 
L 233.744985 183.857441 
L 234.069965 175.252666 
L 234.394944 179.696161 
L 235.044904 184.658416 
L 235.369883 175.642399 
L 235.694863 180.259393 
L 236.344822 185.450154 
L 236.669801 176.037276 
L 236.994781 180.82874 
L 237.64474 186.213506 
L 237.969719 176.421639 
L 238.294699 181.390311 
L 238.944658 187.003715 
L 239.269637 176.816425 
L 239.594617 181.972566 
L 240.244576 187.799456 
L 240.569555 177.219926 
L 240.894535 182.555221 
L 241.544494 188.589513 
L 241.869474 177.606897 
L 242.194453 183.131643 
L 242.844412 189.405182 
L 243.169392 178.014873 
L 243.494371 183.736088 
L 244.14433 190.216115 
L 244.46931 178.430196 
L 244.794289 184.328217 
L 245.444248 191.067265 
L 245.769228 178.84965 
L 246.094207 184.907831 
L 246.744166 191.863724 
L 247.069146 179.261218 
L 247.394125 185.502821 
L 248.044085 192.701932 
L 248.369064 179.686522 
L 248.694044 186.082905 
L 249.344003 193.486271 
L 249.668982 180.134345 
L 249.993962 186.823937 
L 250.643921 194.345293 
L 250.9689 180.490379 
L 251.29388 187.508525 
L 251.943839 195.473639 
L 252.268818 181.070788 
L 252.593798 188.005864 
L 253.243757 196.026428 
L 253.568736 181.418708 
L 253.893716 188.672471 
L 254.543675 196.85158 
L 254.868655 181.769869 
L 255.193634 189.34324 
L 255.843593 197.984748 
L 256.168573 182.349405 
L 256.493552 189.838314 
L 257.143511 198.540931 
L 257.468491 182.715569 
L 257.79347 190.544082 
L 258.443429 199.381964 
L 258.768409 183.060817 
L 259.093388 191.243341 
L 259.743347 200.538137 
L 260.068327 183.661791 
L 260.718286 197.099105 
L 261.043266 201.506414 
L 261.368245 184.195402 
L 261.693225 192.597788 
L 262.343184 202.036592 
L 262.668163 184.417783 
L 262.993143 193.202089 
L 263.643102 203.160738 
L 263.968081 185.008266 
L 264.61804 199.464876 
L 264.94302 204.147236 
L 265.267999 185.549221 
L 265.592979 194.560613 
L 266.242938 204.989404 
L 266.567917 186.032101 
L 266.892897 195.373365 
L 267.542856 205.925356 
L 267.867836 186.419212 
L 268.517795 201.887734 
L 268.842774 206.820533 
L 269.167754 186.925366 
L 269.492733 196.550298 
L 270.142692 207.663157 
L 270.467672 187.414108 
L 270.792651 197.376407 
L 271.44261 208.588188 
L 271.76759 187.805012 
L 272.092569 198.143101 
L 272.417549 204.743605 
L 272.742528 184.350071 
L 273.067508 182.808255 
L 273.392487 178.437662 
L 274.367426 180.084053 
L 274.692406 177.625765 
L 275.017385 178.754435 
L 275.667344 180.129041 
L 275.992324 177.615378 
L 276.317303 178.634245 
L 276.967262 179.873819 
L 277.292242 177.533596 
L 277.617221 178.474303 
L 278.26718 179.601709 
L 278.59216 177.287289 
L 278.917139 178.274548 
L 279.567098 179.53434 
L 279.892078 177.123808 
L 280.217057 178.006897 
L 280.867017 179.237576 
L 281.191996 176.999862 
L 281.516976 177.824647 
L 281.841955 178.263101 
L 282.166935 178.977573 
L 282.491914 176.769072 
L 282.816894 177.630507 
L 283.141873 178.051915 
L 283.466853 178.762246 
L 283.791832 176.556304 
L 284.116812 177.350471 
L 284.441791 177.831543 
L 284.766771 178.611916 
L 285.09175 176.491985 
L 285.41673 177.211229 
L 285.741709 177.600216 
L 286.066689 178.378443 
L 286.391668 176.27858 
L 286.716648 177.035305 
L 287.041628 177.413707 
L 287.366607 178.17836 
L 287.691587 176.085176 
L 288.666525 178.038905 
L 288.991505 175.91823 
L 289.966443 177.772027 
L 290.291423 175.81398 
L 290.616402 176.472249 
L 290.941382 176.80861 
L 291.266361 177.619831 
L 291.591341 175.648268 
L 292.566279 177.497403 
L 292.891259 175.509017 
L 293.866198 177.259424 
L 294.191177 175.405315 
L 294.516157 175.892035 
L 294.841136 176.160473 
L 295.166116 177.054649 
L 295.491095 175.231002 
L 296.141054 176.064171 
L 296.466034 176.997877 
L 296.791013 175.12609 
L 297.440972 175.839508 
L 297.765952 176.776944 
L 298.090931 175.008071 
L 298.74089 175.692375 
L 299.06587 176.625092 
L 299.390849 174.886632 
L 300.040809 175.522297 
L 300.365788 176.473512 
L 300.690768 174.772369 
L 301.340727 175.376717 
L 301.665706 176.331808 
L 301.990686 174.665304 
L 302.640645 175.219075 
L 302.965624 176.188766 
L 303.290604 174.559176 
L 303.940563 175.072502 
L 304.265542 176.048917 
L 304.590522 174.457968 
L 305.240481 174.929613 
L 305.56546 175.91594 
L 305.89044 174.362617 
L 306.540399 174.797933 
L 306.865379 175.797782 
L 307.190358 174.276445 
L 307.840317 174.66813 
L 308.165297 175.675698 
L 308.490276 174.189732 
L 309.140235 174.54374 
L 309.465215 175.558071 
L 309.790194 174.109213 
L 310.440153 174.418728 
L 310.765133 175.443113 
L 311.090112 174.034801 
L 311.740071 174.311027 
L 312.065051 175.337998 
L 312.39003 173.964845 
L 313.03999 174.208282 
L 313.364969 175.236206 
L 313.689949 173.898994 
L 314.339908 174.100712 
L 314.664887 175.141901 
L 314.989867 173.83909 
L 315.639826 174.008301 
L 315.964805 175.051976 
L 316.289785 170.399931 
L 316.614764 168.952523 
L 316.939744 169.049728 
L 317.264723 169.370207 
L 317.914682 169.008209 
L 318.239662 169.592149 
L 318.564641 169.423463 
L 318.889621 169.614908 
L 319.2146 169.514293 
L 319.53958 170.128816 
L 319.86456 169.66812 
L 320.189539 169.95155 
L 320.514519 169.92783 
L 320.839498 170.595292 
L 321.164478 169.917876 
L 321.489457 170.272467 
L 321.814437 170.330801 
L 322.139416 171.056092 
L 322.464396 170.16739 
L 322.789375 170.593834 
L 323.114355 170.736328 
L 323.439334 171.52175 
L 323.764314 170.420221 
L 324.089293 170.905384 
L 324.414273 171.124862 
L 324.739252 171.976359 
L 325.064232 170.67072 
L 325.389211 171.232245 
L 325.714191 171.541691 
L 326.039171 172.455845 
L 326.36415 170.93224 
L 327.339089 172.941874 
L 327.664068 171.201072 
L 328.639007 173.421749 
L 328.963986 171.462766 
L 329.938925 173.92336 
L 330.263904 171.73797 
L 331.238843 174.437373 
L 331.563822 172.019499 
L 332.538761 174.941706 
L 332.863741 172.292077 
L 333.838679 175.47628 
L 334.163659 172.58182 
L 335.138597 176.001402 
L 335.463577 172.858481 
L 336.438515 176.615709 
L 336.763495 173.217538 
L 337.738433 177.089413 
L 338.063413 173.526019 
L 339.038352 177.703151 
L 339.363331 173.777753 
L 340.33827 178.233159 
L 340.663249 174.109507 
L 341.638188 178.718473 
L 341.963167 174.424374 
L 342.938106 179.343081 
L 343.263085 174.682755 
L 344.238024 179.903437 
L 344.563003 175.028607 
L 345.537942 180.403739 
L 345.862922 175.357812 
L 346.83786 181.033259 
L 347.16284 175.624437 
L 348.137778 181.819423 
L 348.462758 176.07343 
L 349.437696 182.176478 
L 349.762676 176.335296 
L 350.737614 182.801418 
L 351.062594 176.595727 
L 352.037533 183.607044 
L 352.362512 177.062075 
L 353.337451 184.271766 
L 353.66243 177.46745 
L 354.637369 184.648333 
L 354.962348 177.626067 
L 355.937287 185.427896 
L 356.262266 178.084068 
L 357.237205 186.105297 
L 357.562184 178.499692 
L 358.537123 186.657662 
L 358.862103 178.871282 
L 359.187082 181.968619 
L 359.512062 172.313588 
L 359.837041 171.636648 
L 360.162021 175.229405 
L 360.487 172.408685 
L 361.136959 172.515181 
L 361.461939 175.174417 
L 361.786918 172.928774 
L 362.436877 172.853169 
L 362.761857 175.190272 
L 363.086836 173.032827 
L 363.736795 172.83698 
L 364.061775 175.151486 
L 364.386754 173.054774 
L 365.036714 172.822771 
L 365.361693 175.024177 
L 365.686673 173.027787 
L 366.336632 172.867379 
L 366.661611 174.947926 
L 366.986591 173.031764 
L 367.63655 172.807988 
L 367.961529 174.896096 
L 368.286509 173.049459 
L 368.936468 172.808036 
L 369.261447 174.786679 
L 369.586427 173.02617 
L 370.236386 172.828033 
L 370.561365 174.696281 
L 370.886345 173.039402 
L 371.536304 172.80893 
L 371.861284 174.680681 
L 372.186263 173.076018 
L 372.836222 172.826356 
L 373.161202 174.590706 
L 373.486181 173.057938 
L 374.13614 172.861635 
L 374.46112 174.533752 
L 374.786099 173.100526 
L 375.111079 172.944882 
L 375.436058 172.923422 
L 375.761038 174.480333 
L 376.086017 173.140088 
L 376.735976 172.893881 
L 377.060956 174.448387 
L 377.385935 173.136655 
L 378.035895 172.942072 
L 378.360874 174.394448 
L 378.685854 173.18448 
L 379.010833 173.023291 
L 379.335813 173.014346 
L 379.660792 174.353378 
L 379.985772 173.22681 
L 380.635731 173.010748 
L 380.96071 174.327694 
L 380.96071 174.327694 
" clip-path="url(#pcc94cad9aa)" style="fill: none; stroke-dasharray: 0.74,0.32; stroke-dashoffset: 0; stroke: #c71585; stroke-width: 0.2"/>
   </g>
   <g id="line2d_20">
    <path d="M 56.306165 167.559533 
L 56.956124 159.613544 
L 57.606083 155.353122 
L 58.256042 153.13682 
L 58.906001 152.012667 
L 59.55596 151.463116 
L 60.205919 151.213364 
L 61.180858 151.104847 
L 63.130735 151.206222 
L 81.654568 152.782282 
L 91.078974 153.297572 
L 100.178401 153.579216 
L 108.952848 153.613195 
L 117.402315 153.432228 
L 120.97709 153.280497 
L 121.30207 152.107082 
L 121.627049 153.291178 
L 121.952029 153.846687 
L 122.277008 153.991783 
L 122.601988 153.838367 
L 123.251947 152.983298 
L 127.476681 145.192041 
L 127.80166 141.829466 
L 128.12664 140.612972 
L 128.451619 140.183973 
L 128.776599 140.101364 
L 130.401496 140.476184 
L 131.051456 140.264285 
L 132.026394 139.586351 
L 133.326312 138.295478 
L 133.976271 137.562905 
L 134.301251 137.57397 
L 134.62623 139.041739 
L 134.95121 139.850601 
L 135.276189 140.041803 
L 135.601169 139.782957 
L 136.251128 138.469492 
L 137.226066 135.499125 
L 140.475862 124.362856 
L 140.800841 119.744971 
L 141.125821 118.090528 
L 141.4508 117.941348 
L 141.77578 118.372907 
L 143.075698 120.823528 
L 143.725657 121.398246 
L 144.375616 121.456338 
L 145.025575 121.126566 
L 145.675534 120.530078 
L 146.650473 119.31621 
L 146.975452 118.854323 
L 147.625411 122.330418 
L 147.950391 122.506759 
L 148.27537 121.933026 
L 148.60035 120.890368 
L 149.250309 117.583251 
L 153.475043 90.885715 
L 153.800022 85.021851 
L 154.125002 82.576078 
L 154.449981 83.23599 
L 155.09994 87.529769 
L 156.399858 98.37192 
L 157.374797 104.478982 
L 158.349736 108.820632 
L 159.324674 111.996319 
L 160.299613 114.480224 
L 161.92451 117.867409 
L 163.874388 121.372368 
L 166.799203 126.133301 
L 169.724019 130.482379 
L 172.973814 134.937868 
L 176.548589 139.431202 
L 180.123364 143.545442 
L 183.698139 147.34906 
L 185.972995 149.602839 
L 186.622954 162.059834 
L 187.272913 167.808856 
L 187.597893 169.277222 
L 187.922872 170.201252 
L 188.572831 171.125065 
L 189.22279 171.466876 
L 190.197729 171.617761 
L 193.122545 171.657252 
L 380.96071 171.657582 
L 380.96071 171.657582 
" clip-path="url(#pcc94cad9aa)" style="fill: none; stroke: #4682b4; stroke-linecap: square"/>
   </g>
   <g id="line2d_21">
    <path d="M 56.306165 170.677268 
L 56.631144 169.240248 
L 56.956124 168.510182 
L 57.281103 168.138841 
L 57.931062 167.856011 
L 59.23098 167.763085 
L 70.605264 167.756275 
L 142.425739 167.756275 
L 142.750718 150.970395 
L 143.075698 157.318731 
L 143.725657 135.441114 
L 144.050637 128.434437 
L 144.375616 145.604273 
L 145.025575 128.931401 
L 145.350555 123.246883 
L 145.675534 143.176075 
L 146.325493 126.919175 
L 146.650473 121.308576 
L 146.975452 142.420557 
L 147.625411 125.632661 
L 147.950391 119.88671 
L 148.27537 141.968636 
L 148.925329 124.44337 
L 149.250309 118.509221 
L 149.575288 141.563504 
L 150.225247 123.223989 
L 150.550227 117.199704 
L 150.875207 141.18059 
L 151.525166 122.014586 
L 151.850145 115.803537 
L 152.175125 140.779319 
L 152.825084 120.7615 
L 153.150063 114.350504 
L 153.475043 140.372581 
L 154.125002 119.509739 
L 154.449981 112.905257 
L 154.774961 139.963477 
L 155.42492 118.269793 
L 155.749899 111.481303 
L 156.074879 139.55732 
L 156.724838 116.997716 
L 157.049818 110.008264 
L 157.374797 139.143145 
L 158.024756 115.699799 
L 158.349736 108.506619 
L 158.674715 138.720915 
L 159.324674 114.484957 
L 159.649654 107.04094 
L 159.974633 138.32082 
L 160.299613 124.17375 
L 160.624592 117.336161 
L 160.949572 112.965022 
L 161.274551 144.643999 
L 161.599531 127.08048 
L 161.92451 118.896011 
L 162.24949 113.921386 
L 162.574469 145.417814 
L 162.899449 126.406254 
L 163.224428 117.646707 
L 163.549408 112.256497 
L 163.874388 144.998222 
L 164.199367 125.972816 
L 164.524347 116.339739 
L 164.849326 110.539168 
L 165.174306 144.508738 
L 165.499285 124.546936 
L 165.824265 115.602598 
L 166.149244 110.081607 
L 166.474224 144.355933 
L 166.799203 123.420649 
L 167.124183 113.998389 
L 167.449162 108.14297 
L 167.774142 143.805643 
L 168.099121 122.906296 
L 168.424101 112.60441 
L 168.74908 106.335061 
L 169.07406 143.283271 
L 169.399039 121.444117 
L 169.724019 111.838663 
L 170.048999 105.85882 
L 170.373978 143.122258 
L 170.698958 120.301725 
L 171.023937 110.200927 
L 171.348917 103.884609 
L 171.673896 142.562243 
L 171.998876 119.758722 
L 172.323855 108.780976 
L 172.648835 102.041502 
L 172.973814 142.051277 
L 173.298794 118.268474 
L 173.948753 100.398224 
L 174.273732 141.618502 
L 174.598712 116.840183 
L 174.923691 106.172832 
L 175.248671 99.437552 
L 175.57365 141.29903 
L 175.89863 116.531857 
L 176.223609 104.875035 
L 176.548589 97.658908 
L 176.873569 140.821111 
L 177.198548 115.042292 
L 177.848507 95.98435 
L 178.173487 140.390272 
L 178.498466 113.605537 
L 178.823446 102.235217 
L 179.148425 95.009931 
L 179.473405 140.070045 
L 179.798384 112.24595 
L 180.123364 100.429889 
L 180.448343 92.886374 
L 180.773323 139.498434 
L 181.098302 111.670548 
L 181.748261 91.468551 
L 182.073241 139.160576 
L 182.39822 110.294506 
L 182.7232 98.2367 
L 183.04818 90.511539 
L 183.373159 138.853868 
L 183.698139 108.927736 
L 184.023118 96.404084 
L 184.348098 88.35575 
L 184.673077 138.279017 
L 184.998057 108.344296 
L 185.323036 94.86893 
L 185.648016 86.384573 
L 185.972995 137.772631 
L 186.297975 117.555102 
L 186.622954 108.739102 
L 186.947934 103.603375 
L 187.272913 139.855381 
L 187.597893 119.012622 
L 187.922872 110.080643 
L 188.247852 105.018407 
L 188.572831 140.253358 
L 188.897811 119.107143 
L 189.22279 111.133945 
L 189.54777 106.525282 
L 189.87275 140.746284 
L 190.197729 120.436514 
L 190.522709 111.706014 
L 190.847688 107.935578 
L 191.172668 141.227466 
L 191.497647 121.776525 
L 191.822627 113.397677 
L 192.147606 108.713687 
L 192.472586 141.539715 
L 192.797565 121.979333 
L 193.122545 114.592232 
L 193.447524 110.343067 
L 193.772504 142.12666 
L 194.097483 123.381667 
L 194.422463 115.229271 
L 194.747442 111.797013 
L 195.072422 142.639091 
L 195.397401 124.726656 
L 195.722381 116.910297 
L 196.047361 112.572118 
L 196.37234 142.977856 
L 196.69732 125.941589 
L 197.022299 118.520052 
L 197.347279 114.410072 
L 197.672258 143.643317 
L 197.997238 126.368299 
L 198.322217 118.746736 
L 198.647197 115.616363 
L 198.972176 144.067052 
L 199.297156 127.626159 
L 199.622135 120.371953 
L 199.947115 116.358636 
L 200.272094 144.395066 
L 200.597074 128.812037 
L 200.922053 121.94853 
L 201.247033 118.155824 
L 201.572012 145.083563 
L 201.896992 129.242926 
L 202.221971 123.205879 
L 202.546951 119.773403 
L 202.871931 145.6992 
L 203.19691 130.596217 
L 203.52189 123.825949 
L 203.846869 120.096674 
L 204.171849 145.828148 
L 204.496828 131.645818 
L 204.821808 125.311047 
L 205.146787 121.826516 
L 205.471767 146.50418 
L 205.796746 132.051108 
L 206.121726 126.532895 
L 206.446705 123.410766 
L 206.771685 147.123361 
L 207.096664 133.383837 
L 207.421644 127.144389 
L 207.746623 124.752559 
L 208.071603 147.639006 
L 208.396582 134.628304 
L 208.721562 128.709952 
L 209.046542 125.469345 
L 209.371521 147.966179 
L 209.696501 134.820804 
L 210.02148 129.789264 
L 210.34646 126.957861 
L 210.671439 148.555644 
L 210.996419 136.193748 
L 211.321398 130.714168 
L 211.646378 128.027135 
L 211.971357 148.984618 
L 212.296337 137.081952 
L 212.621316 131.80487 
L 212.946296 129.204515 
L 213.271275 149.484748 
L 213.596255 138.007132 
L 213.921234 132.908312 
L 214.246214 130.313848 
L 214.571193 149.936472 
L 214.896173 138.905891 
L 215.221152 133.990298 
L 215.546132 131.481697 
L 215.871112 150.436795 
L 216.196091 139.815736 
L 216.521071 135.07209 
L 216.84605 132.664627 
L 217.17103 150.924218 
L 217.496009 140.720412 
L 217.820989 136.142197 
L 218.145968 133.837197 
L 218.470948 151.423088 
L 218.795927 141.620182 
L 219.120907 137.206452 
L 219.445886 134.987708 
L 219.770866 151.924928 
L 220.095845 142.423611 
L 220.420825 138.220607 
L 220.745804 136.111095 
L 221.070784 152.402516 
L 221.395763 143.298712 
L 221.720743 139.249141 
L 222.045723 137.239271 
L 222.370702 152.893959 
L 222.695682 144.170501 
L 223.020661 140.280992 
L 223.345641 138.365736 
L 223.67062 153.38583 
L 223.9956 145.035555 
L 224.320579 141.215785 
L 224.645559 139.428759 
L 224.970538 153.854165 
L 225.295518 145.879731 
L 225.620497 142.222091 
L 225.945477 140.528425 
L 226.270456 154.343321 
L 226.595436 146.727808 
L 226.920415 143.224045 
L 227.245395 141.595563 
L 227.570374 154.829452 
L 227.895354 147.549739 
L 228.220333 144.21596 
L 228.545313 142.615618 
L 228.870293 155.292602 
L 229.195272 148.359617 
L 229.520252 137.685957 
L 229.845231 132.963101 
L 230.170211 151.719791 
L 230.49519 140.552676 
L 230.82017 134.821826 
L 231.145149 131.324764 
L 231.470129 150.944549 
L 231.795108 139.862253 
L 232.120088 134.031536 
L 232.445067 130.453261 
L 232.770047 150.709673 
L 233.095026 139.229738 
L 233.420006 133.132957 
L 233.744985 129.371701 
L 234.069965 150.365497 
L 234.394944 138.379213 
L 234.719924 132.039882 
L 235.044904 128.128819 
L 235.369883 149.966481 
L 235.694863 137.442657 
L 236.019842 130.891582 
L 236.344822 126.840137 
L 236.669801 149.551891 
L 236.994781 136.472174 
L 237.31976 129.816485 
L 237.64474 125.587267 
L 237.969719 149.14977 
L 238.294699 135.518985 
L 238.619678 128.638661 
L 238.944658 124.252522 
L 239.269637 148.725831 
L 239.594617 134.540058 
L 239.919596 127.445939 
L 240.244576 122.919766 
L 240.569555 148.301966 
L 240.894535 133.530087 
L 241.219514 126.237526 
L 241.544494 121.673492 
L 241.869474 147.904644 
L 242.194453 132.560264 
L 242.519433 125.034384 
L 242.844412 120.315354 
L 243.169392 147.479892 
L 243.494371 131.558829 
L 243.819351 123.806014 
L 244.14433 118.936669 
L 244.46931 147.053304 
L 244.794289 130.526016 
L 245.119269 122.566635 
L 245.444248 117.551899 
L 245.769228 146.623932 
L 246.094207 129.587292 
L 246.419187 121.360589 
L 246.744166 116.17426 
L 247.069146 146.202676 
L 247.394125 128.556268 
L 247.719105 120.112431 
L 248.044085 114.765388 
L 248.369064 145.776499 
L 248.694044 127.6002 
L 249.344003 113.122509 
L 249.668982 145.311052 
L 249.993962 126.235794 
L 250.318941 117.551771 
L 250.643921 112.202007 
L 250.9689 144.989879 
L 251.29388 124.983511 
L 251.618859 115.870774 
L 251.943839 110.244506 
L 252.268818 144.408221 
L 252.593798 124.453032 
L 253.243757 108.939241 
L 253.568736 144.06791 
L 253.893716 123.159838 
L 254.218695 113.82812 
L 254.543675 108.038361 
L 254.868655 143.770462 
L 255.193634 121.889942 
L 255.518614 112.117667 
L 255.843593 106.0272 
L 256.168573 143.174765 
L 256.493552 121.33928 
L 257.143511 104.691741 
L 257.468491 142.838264 
L 257.79347 120.02206 
L 258.11845 110.032862 
L 258.443429 103.777813 
L 258.768409 142.528675 
L 259.093388 118.722479 
L 259.418368 108.288185 
L 259.743347 101.728654 
L 260.068327 141.945861 
L 260.393306 118.167465 
L 260.718286 106.844473 
L 261.043266 99.86232 
L 261.368245 141.437832 
L 261.693225 116.665473 
L 262.018204 106.064673 
L 262.343184 99.372161 
L 262.668163 141.279487 
L 262.993143 115.491869 
L 263.318122 104.384784 
L 263.643102 97.340084 
L 263.968081 140.716308 
L 264.293061 114.94236 
L 264.61804 102.922215 
L 264.94302 95.448037 
L 265.267999 140.209122 
L 265.592979 113.426503 
L 266.242938 93.748512 
L 266.567917 139.773341 
L 266.892897 111.953247 
L 267.217876 100.243146 
L 267.542856 92.784396 
L 267.867836 139.462857 
L 268.192815 111.635444 
L 268.517795 98.913489 
L 268.842774 90.949231 
L 269.167754 138.988003 
L 269.492733 110.120469 
L 270.142692 89.226821 
L 270.467672 138.563325 
L 270.792651 108.630244 
L 271.117631 96.214243 
L 271.44261 88.236351 
L 271.76759 138.242991 
L 272.092569 107.247397 
L 272.417549 94.356879 
L 272.742528 102.505319 
L 273.067508 139.404297 
L 273.392487 118.183322 
L 273.717467 108.881198 
L 274.042447 104.705506 
L 274.367426 140.160176 
L 274.692406 119.13682 
L 275.017385 110.09134 
L 275.342365 104.9884 
L 275.667344 140.233414 
L 275.992324 120.11547 
L 276.317303 111.548764 
L 276.642283 106.740031 
L 276.967262 140.833288 
L 277.292242 120.490086 
L 277.617221 112.836894 
L 277.942201 108.411898 
L 278.26718 141.416304 
L 278.59216 121.901661 
L 278.917139 113.461803 
L 279.242119 108.74586 
L 279.567098 141.552497 
L 279.892078 123.010238 
L 280.217057 115.033271 
L 280.542037 110.574957 
L 280.867017 142.224871 
L 281.191996 123.444729 
L 281.516976 116.340694 
L 281.841955 112.276743 
L 282.166935 142.840424 
L 282.491914 124.855173 
L 282.816894 116.977172 
L 283.141873 113.709121 
L 283.466853 143.351203 
L 283.791832 126.17982 
L 284.116812 118.649979 
L 284.441791 114.476381 
L 284.766771 143.673952 
L 285.09175 126.386912 
L 285.41673 119.814139 
L 285.741709 116.064231 
L 286.066689 144.265917 
L 286.391668 127.749426 
L 286.716648 120.435952 
L 287.041628 117.469941 
L 287.366607 144.783396 
L 287.691587 129.054047 
L 288.016566 122.075835 
L 288.341546 118.221382 
L 288.666525 145.110344 
L 288.991505 130.226255 
L 289.316484 123.636818 
L 289.641464 120.000554 
L 289.966443 145.786348 
L 290.291423 130.659082 
L 290.616402 123.857592 
L 290.941382 121.165127 
L 291.266361 146.20832 
L 291.591341 131.872192 
L 291.91632 125.432808 
L 292.2413 121.888974 
L 292.566279 146.531755 
L 292.891259 133.026357 
L 293.216238 126.959045 
L 293.541218 123.6342 
L 293.866198 147.223389 
L 294.191177 133.442975 
L 294.516157 128.17316 
L 294.841136 125.196606 
L 295.166116 147.840222 
L 295.491095 134.747987 
L 295.816075 128.771032 
L 296.141054 125.499165 
L 296.466034 147.979635 
L 296.791013 135.758451 
L 297.115993 130.204441 
L 297.440972 127.273233 
L 297.765952 148.700361 
L 298.090931 136.457362 
L 298.415911 131.126555 
L 298.74089 128.405022 
L 299.06587 149.144909 
L 299.390849 137.358205 
L 299.715829 132.22176 
L 300.040809 129.591432 
L 300.365788 149.639608 
L 300.690768 138.282964 
L 301.015747 133.228156 
L 301.340727 130.754625 
L 301.665706 150.117242 
L 301.990686 139.190236 
L 302.315665 134.311755 
L 302.640645 131.926169 
L 302.965624 150.609714 
L 303.290604 140.097799 
L 303.615583 135.388649 
L 303.940563 133.104107 
L 304.265542 151.10928 
L 304.590522 141.003009 
L 304.915501 136.459948 
L 305.240481 134.266487 
L 305.56546 151.604999 
L 305.89044 141.898121 
L 306.215419 137.520195 
L 306.540399 135.321464 
L 306.865379 152.062298 
L 307.190358 142.763082 
L 307.515338 138.558819 
L 307.840317 136.454563 
L 308.165297 152.552931 
L 308.490276 143.639024 
L 308.815256 139.586176 
L 309.140235 137.581425 
L 309.465215 153.044347 
L 309.790194 144.508502 
L 310.115174 140.615357 
L 310.440153 138.697809 
L 310.765133 153.533034 
L 311.090112 145.284741 
L 311.415092 141.594756 
L 311.740071 139.783299 
L 312.065051 154.013053 
L 312.39003 146.133175 
L 312.71501 142.600698 
L 313.03999 140.875828 
L 313.364969 154.500671 
L 313.689949 146.97793 
L 314.014928 143.598112 
L 314.339908 141.926823 
L 314.664887 154.980856 
L 314.989867 147.818718 
L 315.314846 144.535222 
L 315.639826 142.963253 
L 315.964805 155.451075 
L 316.289785 153.553229 
L 316.939744 153.776771 
L 317.264723 161.248779 
L 317.589703 157.909714 
L 317.914682 156.124633 
L 318.239662 154.965943 
L 318.564641 161.900824 
L 318.889621 157.922651 
L 319.2146 155.701806 
L 319.53958 154.313826 
L 319.86456 161.698868 
L 320.189539 157.246711 
L 320.514519 154.799506 
L 320.839498 153.261725 
L 321.164478 161.32472 
L 321.489457 156.426912 
L 321.814437 153.795249 
L 322.139416 152.135372 
L 322.464396 160.917981 
L 322.789375 155.574073 
L 323.114355 152.761966 
L 323.439334 150.983207 
L 323.764314 160.502084 
L 324.089293 154.777608 
L 324.414273 151.752935 
L 324.739252 149.837725 
L 325.064232 160.094337 
L 325.389211 153.907465 
L 325.714191 150.695793 
L 326.039171 148.656458 
L 326.36415 159.675322 
L 326.68913 153.018869 
L 327.014109 149.620157 
L 327.339089 147.441978 
L 327.664068 159.254038 
L 327.989048 152.119105 
L 328.639007 146.271071 
L 328.963986 158.844253 
L 329.288966 151.220444 
L 329.938925 145.0429 
L 330.263904 158.418471 
L 330.588884 150.298978 
L 331.238843 143.796237 
L 331.563822 157.988473 
L 331.888802 149.369662 
L 332.213781 145.27383 
L 332.538761 142.616705 
L 332.863741 157.58549 
L 333.18872 148.445233 
L 333.5137 144.154242 
L 333.838679 141.358504 
L 334.163659 157.155492 
L 334.488638 147.49319 
L 334.813618 142.998286 
L 335.138597 140.172075 
L 335.463577 156.742832 
L 335.788556 146.882524 
L 336.113536 141.659619 
L 336.438515 138.540179 
L 336.763495 156.201815 
L 337.088474 145.564857 
L 337.738433 137.116789 
L 338.063413 155.751423 
L 338.388392 144.311409 
L 338.713372 139.308254 
L 339.038352 136.209329 
L 339.363331 155.412189 
L 339.688311 144.00536 
L 340.01329 138.195469 
L 340.33827 134.673707 
L 340.663249 154.923185 
L 340.988229 142.699502 
L 341.638188 133.232345 
L 341.963167 154.476842 
L 342.288147 141.415995 
L 342.613126 135.815118 
L 342.938106 132.295793 
L 343.263085 154.133205 
L 343.588065 141.099717 
L 343.913044 134.666763 
L 344.238024 130.709456 
L 344.563003 153.639319 
L 344.887983 139.755085 
L 345.537942 129.227685 
L 345.862922 153.189905 
L 346.187901 138.44161 
L 346.512881 132.208572 
L 346.83786 128.259892 
L 347.16284 152.840884 
L 347.487819 137.200508 
L 347.812799 130.552975 
L 348.137778 126.314616 
L 348.462758 152.229888 
L 348.787737 136.626694 
L 349.437696 125.043342 
L 349.762676 151.863509 
L 350.087655 135.357435 
L 350.412635 128.482956 
L 350.737614 124.087851 
L 351.062594 151.522175 
L 351.387573 134.095868 
L 351.712553 126.777037 
L 352.037533 122.088615 
L 352.362512 150.910245 
L 352.687492 133.493448 
L 353.012471 125.369939 
L 353.337451 120.273238 
L 353.66243 150.368398 
L 353.98741 132.02058 
L 354.312389 124.546315 
L 354.637369 119.730297 
L 354.962348 150.177242 
L 355.287328 130.864203 
L 355.612307 122.893846 
L 355.937287 117.735623 
L 356.262266 149.578762 
L 356.587246 130.280069 
L 356.912225 121.461904 
L 357.237205 115.878897 
L 357.562184 149.032583 
L 357.887164 128.769327 
L 358.537123 114.20388 
L 358.862103 148.558044 
L 359.187082 127.321867 
L 359.512062 131.204293 
L 359.837041 129.884624 
L 360.162021 151.108835 
L 360.487 139.397211 
L 360.81198 135.405994 
L 361.136959 133.018109 
L 361.461939 152.091061 
L 361.786918 141.078708 
L 362.111898 136.228253 
L 362.436877 134.472893 
L 362.761857 152.607088 
L 363.086836 142.363015 
L 363.411816 137.838276 
L 363.736795 135.273661 
L 364.061775 152.9607 
L 364.386754 143.51764 
L 364.711734 139.365475 
L 365.036714 137.022699 
L 365.361693 153.670133 
L 365.686673 143.972289 
L 366.011652 139.619439 
L 366.336632 138.140029 
L 366.661611 154.099651 
L 366.986591 145.155732 
L 367.31157 141.15333 
L 367.63655 138.901028 
L 367.961529 154.44918 
L 368.286509 146.274774 
L 368.611488 142.631393 
L 368.936468 140.598719 
L 369.261447 155.15468 
L 369.586427 146.71717 
L 369.911406 143.800319 
L 370.236386 142.10665 
L 370.561365 155.780564 
L 370.886345 147.99035 
L 371.211324 144.436285 
L 371.536304 142.450337 
L 371.861284 155.943141 
L 372.186263 148.962346 
L 372.511243 145.814312 
L 372.836222 144.060119 
L 373.161202 156.625675 
L 373.486181 149.38226 
L 373.811161 146.937258 
L 374.13614 145.514858 
L 374.46112 157.263722 
L 374.786099 150.63096 
L 375.111079 147.561901 
L 375.436058 146.757734 
L 375.761038 157.785944 
L 376.086017 151.790612 
L 376.410997 149.016672 
L 376.735976 147.489641 
L 377.060956 158.132428 
L 377.385935 151.999572 
L 377.710915 149.988876 
L 378.035895 148.826644 
L 378.360874 158.712578 
L 378.685854 153.186849 
L 379.010833 150.579968 
L 379.335813 150.016548 
L 379.660792 159.223997 
L 379.985772 154.295719 
L 380.310751 152.000732 
L 380.635731 150.744843 
L 380.96071 159.560434 
L 380.96071 159.560434 
" clip-path="url(#pcc94cad9aa)" style="fill: none; stroke-dasharray: 0.74,0.32; stroke-dashoffset: 0; stroke: #4682b4; stroke-width: 0.2"/>
   </g>
   <g id="line2d_22">
    <path d="M 56.306165 174.865244 
L 56.956124 172.327219 
L 57.606083 171.057704 
L 58.256042 170.377847 
L 59.23098 169.82057 
L 60.855878 169.298241 
L 65.405591 168.226323 
L 80.02967 165.011682 
L 94.978728 161.962396 
L 114.802479 158.130752 
L 120.97709 157.014736 
L 121.30207 156.589193 
L 121.952029 154.112391 
L 122.601988 152.357859 
L 123.251947 151.22885 
L 123.901906 150.520865 
L 124.551865 150.073774 
L 125.526804 149.713695 
L 126.826722 149.530573 
L 127.476681 149.494539 
L 127.80166 153.570168 
L 128.451619 162.808978 
L 129.101578 167.020305 
L 129.751537 168.907642 
L 130.401496 169.761131 
L 131.051456 170.160917 
L 132.026394 170.419099 
L 133.976271 170.601248 
L 134.301251 168.394873 
L 134.95121 161.521741 
L 135.601169 157.472425 
L 136.251128 154.938025 
L 136.901087 153.325059 
L 137.551046 152.29682 
L 138.201005 151.643565 
L 139.175944 151.048843 
L 140.150882 150.69255 
L 140.475862 150.616184 
L 140.800841 152.719841 
L 141.4508 162.328906 
L 142.100759 166.884383 
L 142.750718 169.119449 
L 143.400677 170.215928 
L 144.050637 170.775877 
L 145.025575 171.178391 
L 146.650473 171.461785 
L 146.975452 171.499813 
L 147.300432 170.430824 
L 147.950391 164.009325 
L 148.60035 160.03961 
L 149.250309 157.460272 
L 150.225247 154.945094 
L 151.200186 153.29639 
L 152.500104 151.625891 
L 153.475043 150.626307 
L 153.800022 150.123751 
L 154.449981 160.554534 
L 155.09994 165.928529 
L 155.749899 168.710996 
L 156.399858 170.197118 
L 157.049818 170.924889 
L 157.699777 171.284109 
L 158.674715 171.494621 
L 160.299613 171.515801 
L 163.874388 171.260632 
L 172.323855 170.666982 
L 182.7232 170.240171 
L 186.297975 170.089662 
L 186.622954 172.43936 
L 186.947934 173.827268 
L 187.272913 174.643903 
L 187.597893 175.122862 
L 188.247852 175.56713 
L 189.22279 175.751859 
L 191.822627 175.797004 
L 335.788556 175.797604 
L 380.96071 175.797604 
L 380.96071 175.797604 
" clip-path="url(#pcc94cad9aa)" style="fill: none; stroke: #6b8e23; stroke-linecap: square"/>
   </g>
   <g id="line2d_23">
    <path d="M 56.306165 177.867758 
L 56.631144 176.705178 
L 56.956124 176.129912 
L 57.606083 175.682291 
L 58.581021 175.547279 
L 62.480776 175.526462 
L 142.425739 175.526455 
L 142.750718 145.997035 
L 143.075698 166.870624 
L 143.400677 136.286637 
L 144.050637 108.623703 
L 144.375616 154.462072 
L 144.700596 121.01878 
L 145.350555 98.655672 
L 145.675534 150.983421 
L 146.000514 116.349269 
L 146.650473 95.094363 
L 146.975452 149.708857 
L 147.300432 114.449242 
L 147.950391 93.27409 
L 148.27537 149.047457 
L 148.60035 113.311395 
L 149.250309 91.947122 
L 149.575288 148.565068 
L 149.900268 112.396604 
L 150.550227 90.796933 
L 150.875207 148.146264 
L 151.200186 111.560578 
L 151.850145 89.665702 
L 152.175125 147.737895 
L 152.500104 110.737409 
L 153.150063 88.52754 
L 153.475043 147.322989 
L 153.800022 109.904875 
L 154.449981 87.381159 
L 154.774961 146.911661 
L 155.09994 109.094956 
L 155.749899 86.269222 
L 156.074879 146.503497 
L 156.399858 108.286131 
L 157.049818 85.118518 
L 157.374797 146.08265 
L 157.699777 107.440431 
L 158.349736 83.941188 
L 158.674715 145.656081 
L 158.999695 106.577878 
L 159.649654 82.807585 
L 159.974633 145.239301 
L 160.299613 125.924613 
L 160.949572 115.871184 
L 161.274551 151.576051 
L 161.599531 130.923511 
L 162.24949 117.919551 
L 162.574469 152.390346 
L 162.899449 131.140294 
L 163.549408 117.149934 
L 163.874388 152.072005 
L 164.199367 130.839126 
L 164.849326 116.097805 
L 165.174306 151.636535 
L 165.499285 129.904702 
L 166.149244 115.606141 
L 166.474224 151.423561 
L 166.799203 129.197723 
L 167.449162 114.314037 
L 167.774142 150.891466 
L 168.099121 128.676998 
L 168.74908 113.121633 
L 169.07406 150.394249 
L 169.399039 127.68328 
L 170.048999 112.58889 
L 170.373978 150.161545 
L 170.698958 126.953421 
L 171.348917 111.268945 
L 171.673896 149.612232 
L 171.998876 126.444575 
L 172.648835 110.053169 
L 172.973814 149.107779 
L 173.298794 125.436996 
L 173.948753 108.956956 
L 174.273732 148.660762 
L 174.598712 124.475497 
L 175.248671 108.036387 
L 175.57365 148.262021 
L 175.89863 124.107991 
L 176.548589 106.891173 
L 176.873569 147.786768 
L 177.198548 123.114517 
L 177.848507 105.807538 
L 178.173487 147.330691 
L 178.498466 122.14491 
L 179.148425 104.867826 
L 179.473405 146.925256 
L 179.798384 121.238956 
L 180.448343 103.40971 
L 180.773323 146.317848 
L 181.098302 120.660395 
L 181.748261 102.527076 
L 182.073241 145.957064 
L 182.39822 119.772179 
L 183.04818 101.621978 
L 183.373159 145.564344 
L 183.698139 118.876805 
L 184.348098 100.158478 
L 184.673077 144.948144 
L 184.998057 118.279482 
L 185.648016 98.852025 
L 185.972995 144.403175 
L 186.297975 133.992043 
L 186.622954 131.356137 
L 186.947934 129.978437 
L 187.272913 154.788931 
L 187.597893 141.966569 
L 187.922872 137.109103 
L 188.247852 134.328678 
L 188.572831 156.880787 
L 188.897811 143.516824 
L 189.22279 138.758571 
L 189.54777 135.991167 
L 189.87275 157.637788 
L 190.197729 144.680501 
L 190.522709 139.451994 
L 190.847688 137.057249 
L 191.172668 158.10125 
L 191.497647 145.622228 
L 191.822627 140.61163 
L 192.147606 137.72695 
L 192.472586 158.41177 
L 192.797565 145.844209 
L 193.122545 141.368716 
L 193.447524 138.776791 
L 193.772504 158.862951 
L 194.097483 146.768864 
L 194.422463 141.893022 
L 194.747442 139.726654 
L 195.072422 159.271988 
L 195.397401 147.65895 
L 195.722381 143.006836 
L 196.047361 140.359898 
L 196.37234 159.573425 
L 196.69732 148.464537 
L 197.022299 144.070636 
L 197.347279 141.581585 
L 197.672258 160.102333 
L 197.997238 148.840964 
L 198.322217 144.300113 
L 198.647197 142.34019 
L 198.972176 160.42227 
L 199.297156 149.660685 
L 199.622135 145.364145 
L 199.947115 142.939418 
L 200.272094 160.70563 
L 200.597074 150.450986 
L 200.922053 146.405994 
L 201.247033 144.136307 
L 201.572012 161.231823 
L 201.896992 150.815526 
L 202.221971 147.228745 
L 202.546951 145.198051 
L 202.871931 161.696206 
L 203.19691 151.727449 
L 203.52189 147.737302 
L 203.846869 145.504446 
L 204.171849 161.835806 
L 204.496828 152.416818 
L 204.821808 148.708477 
L 205.146787 146.647181 
L 205.471767 162.339681 
L 205.796746 152.757912 
L 206.121726 149.509157 
L 206.446705 147.686577 
L 206.771685 162.796174 
L 207.096664 153.655914 
L 207.421644 150.005461 
L 207.746623 148.577624 
L 208.071603 163.184409 
L 208.396582 154.499537 
L 208.721562 151.059107 
L 209.046542 149.16103 
L 209.371521 163.461997 
L 209.696501 154.687451 
L 210.02148 151.757906 
L 210.34646 150.127923 
L 210.671439 163.886743 
L 210.996419 155.609068 
L 211.321398 152.437118 
L 211.646378 150.87638 
L 211.971357 164.220207 
L 212.296337 156.234157 
L 212.621316 153.189158 
L 212.946296 151.695064 
L 213.271275 164.591404 
L 213.596255 156.881962 
L 213.921234 153.952667 
L 214.246214 152.465476 
L 214.571193 164.936179 
L 214.896173 157.512378 
L 215.221152 154.70154 
L 215.546132 153.280341 
L 215.871112 165.306585 
L 216.196091 158.153927 
L 216.521071 155.454095 
L 216.84605 154.098208 
L 217.17103 165.67269 
L 217.496009 158.793211 
L 217.820989 156.201624 
L 218.145968 154.910697 
L 218.470948 166.040496 
L 218.795927 159.429498 
L 219.120907 156.946011 
L 219.445886 155.714785 
L 219.770866 166.407759 
L 220.095845 160.005652 
L 220.420825 157.655887 
L 220.745804 156.497918 
L 221.070784 166.761864 
L 221.395763 160.628645 
L 221.720743 158.384701 
L 222.045723 157.290294 
L 222.370702 167.122941 
L 222.695682 161.252157 
L 223.020661 159.11382 
L 223.345641 158.079236 
L 223.67062 167.482369 
L 223.9956 161.872501 
L 224.320579 159.783416 
L 224.645559 158.83425 
L 224.970538 167.827301 
L 225.295518 162.480835 
L 225.620497 160.499237 
L 225.945477 159.609229 
L 226.270456 168.18238 
L 226.595436 163.092886 
L 226.920415 161.214198 
L 227.245395 160.377305 
L 227.570374 168.538068 
L 227.895354 163.691706 
L 228.220333 161.925802 
L 228.545313 161.110997 
L 228.870293 168.877035 
L 229.195272 164.283036 
L 229.520252 149.087076 
L 229.845231 141.222201 
L 230.170211 162.296485 
L 230.49519 145.54938 
L 231.145149 133.392694 
L 231.470129 158.947626 
L 231.795108 142.120785 
L 232.445067 131.010247 
L 232.770047 157.908886 
L 233.095026 140.86195 
L 233.744985 129.774967 
L 234.069965 157.368592 
L 234.394944 140.038304 
L 235.044904 128.767047 
L 235.369883 156.941161 
L 235.694863 139.289936 
L 236.344822 127.808083 
L 236.669801 156.538581 
L 236.994781 138.584914 
L 237.64474 126.89494 
L 237.969719 156.154823 
L 238.294699 137.889663 
L 238.944658 125.949077 
L 239.269637 155.758313 
L 239.594617 137.165416 
L 240.244576 124.981833 
L 240.569555 155.355647 
L 240.894535 136.458381 
L 241.544494 124.058605 
L 241.869474 154.967804 
L 242.194453 135.743058 
L 242.844412 123.087587 
L 243.169392 154.561101 
L 243.494371 135.011652 
L 244.14433 122.097033 
L 244.46931 154.14815 
L 244.794289 134.275859 
L 245.444248 121.10536 
L 245.769228 153.730869 
L 246.094207 133.587849 
L 246.744166 120.12162 
L 247.069146 153.320698 
L 247.394125 132.839761 
L 248.044085 119.114422 
L 248.369064 152.899475 
L 248.694044 132.138022 
L 249.344003 118.056571 
L 249.668982 152.463907 
L 249.993962 131.198194 
L 250.643921 117.191743 
L 250.9689 152.090937 
L 251.29388 130.3423 
L 251.943839 115.839438 
L 252.268818 151.525963 
L 252.593798 129.805124 
L 253.243757 115.024208 
L 253.568736 151.193259 
L 253.893716 128.968028 
L 254.543675 114.188927 
L 254.868655 150.836835 
L 255.193634 128.110243 
L 255.843593 112.816139 
L 256.168573 150.261263 
L 256.493552 127.561658 
L 257.143511 111.98599 
L 257.468491 149.923337 
L 257.79347 126.732504 
L 258.443429 111.13818 
L 258.768409 149.555348 
L 259.093388 125.872974 
L 259.743347 109.740979 
L 260.068327 148.972037 
L 260.393306 125.31311 
L 261.043266 108.493727 
L 261.368245 148.461058 
L 261.693225 124.289254 
L 262.343184 107.936972 
L 262.668163 148.218035 
L 262.993143 123.54174 
L 263.643102 106.587962 
L 263.968081 147.650571 
L 264.293061 122.993709 
L 264.94302 105.327979 
L 265.267999 147.127353 
L 265.592979 121.954518 
L 266.242938 104.201866 
L 266.567917 146.66196 
L 266.892897 120.972187 
L 267.542856 103.269744 
L 267.867836 146.253586 
L 268.192815 120.60111 
L 268.842774 102.08144 
L 269.167754 145.764628 
L 269.492733 119.591664 
L 270.142692 100.972591 
L 270.467672 145.300934 
L 270.792651 118.605842 
L 271.44261 100.009339 
L 271.76759 144.882224 
L 272.092569 117.683329 
L 272.417549 106.498645 
L 272.742528 120.087163 
L 273.067508 149.871599 
L 273.392487 137.813451 
L 273.717467 133.816172 
L 274.042447 132.222733 
L 274.367426 155.847384 
L 274.692406 142.745581 
L 275.017385 137.619336 
L 275.342365 134.668201 
L 275.667344 157.050901 
L 275.992324 144.252788 
L 276.317303 139.178398 
L 276.642283 136.253993 
L 276.967262 157.763243 
L 277.292242 144.770954 
L 277.617221 140.131531 
L 277.942201 137.429157 
L 278.26718 158.271205 
L 278.59216 145.744323 
L 278.917139 140.687729 
L 279.242119 137.774814 
L 279.567098 158.434771 
L 279.892078 146.465128 
L 280.217057 141.70586 
L 280.542037 138.983991 
L 280.867017 158.959994 
L 281.191996 146.83712 
L 281.516976 142.550813 
L 281.841955 140.082609 
L 282.166935 159.439293 
L 282.491914 147.776034 
L 282.816894 143.079 
L 283.141873 141.024566 
L 283.466853 159.843453 
L 283.791832 148.658635 
L 284.116812 144.187875 
L 284.441791 141.655523 
L 284.766771 160.137782 
L 285.09175 148.865811 
L 285.41673 144.923877 
L 285.741709 142.672878 
L 286.066689 160.579254 
L 286.391668 149.769143 
L 286.716648 145.430411 
L 287.041628 143.592937 
L 287.366607 160.976331 
L 287.691587 150.638243 
L 288.016566 146.519747 
L 288.341546 144.205681 
L 288.666525 161.264484 
L 288.991505 151.428024 
L 289.316484 147.557306 
L 289.641464 145.394798 
L 289.966443 161.783486 
L 290.291423 151.791846 
L 290.616402 147.776591 
L 290.941382 146.133083 
L 291.266361 162.096342 
L 291.591341 152.591964 
L 291.91632 148.81528 
L 292.2413 146.711789 
L 292.566279 162.370493 
L 292.891259 153.367472 
L 293.216238 149.832157 
L 293.541218 147.878183 
L 293.866198 162.887095 
L 294.191177 153.717737 
L 294.516157 150.633294 
L 294.841136 148.909479 
L 295.166116 163.341592 
L 295.491095 154.605567 
L 295.816075 151.122755 
L 296.141054 149.199457 
L 296.466034 163.480457 
L 296.791013 155.279718 
L 297.115993 152.070479 
L 297.440972 150.370117 
L 297.765952 164.003983 
L 298.090931 155.801035 
L 298.415911 152.717924 
L 298.74089 151.145206 
L 299.06587 164.3425 
L 299.390849 156.43072 
L 299.715829 153.47169 
L 300.040809 151.963877 
L 300.365788 164.712377 
L 300.690768 157.078137 
L 301.015747 154.17652 
L 301.340727 152.762962 
L 301.665706 165.068646 
L 301.990686 157.713985 
L 302.315665 154.927466 
L 302.640645 153.578838 
L 302.965624 165.436838 
L 303.290604 158.354759 
L 303.615583 155.677776 
L 303.940563 154.39493 
L 304.265542 165.806692 
L 304.590522 158.994148 
L 304.915501 156.425692 
L 305.240481 155.204766 
L 305.56546 166.173355 
L 305.89044 159.628742 
L 306.215419 157.16837 
L 306.540399 155.950176 
L 306.865379 166.513454 
L 307.190358 160.243662 
L 307.515338 157.896782 
L 307.840317 156.742719 
L 308.165297 166.873871 
L 308.490276 160.868346 
L 308.815256 158.62576 
L 309.140235 157.534621 
L 309.465215 167.234818 
L 309.790194 161.491245 
L 310.115174 159.353858 
L 310.440153 158.322413 
L 310.765133 167.594085 
L 311.090112 162.055154 
L 311.415092 160.048631 
L 311.740071 159.087925 
L 312.065051 167.944137 
L 312.39003 162.66584 
L 312.71501 160.764695 
L 313.03999 159.863049 
L 313.364969 168.299563 
L 313.689949 163.277326 
L 314.014928 161.478376 
L 314.339908 160.617696 
L 314.664887 168.649671 
L 314.989867 163.888306 
L 315.314846 162.156776 
L 315.639826 161.360814 
L 315.964805 168.992049 
L 316.289785 159.451193 
L 316.614764 155.328381 
L 316.939744 152.754883 
L 317.264723 165.441439 
L 317.589703 157.103927 
L 317.914682 153.554178 
L 318.239662 151.266199 
L 318.564641 164.669361 
L 318.889621 156.232202 
L 319.2146 152.673264 
L 319.53958 150.417213 
L 319.86456 164.267283 
L 320.189539 155.608278 
L 320.514519 151.954049 
L 320.839498 149.635394 
L 321.164478 163.912604 
L 321.489457 155.012483 
L 321.814437 151.253095 
L 322.139416 148.864133 
L 322.464396 163.565709 
L 322.789375 154.418529 
L 323.114355 150.551636 
L 323.439334 148.089798 
L 323.764314 163.215587 
L 324.089293 153.867226 
L 324.414273 149.874502 
L 324.739252 147.328254 
L 325.064232 162.875023 
L 325.389211 153.274302 
L 325.714191 149.168148 
L 326.039171 146.544724 
L 326.36415 162.524779 
L 326.68913 152.671406 
L 327.014109 148.452382 
L 327.339089 145.749851 
L 327.664068 162.170868 
L 327.989048 152.063216 
L 328.314027 147.777197 
L 328.639007 144.980639 
L 328.963986 161.827426 
L 329.288966 151.461025 
L 329.613945 147.057024 
L 329.938925 144.178066 
L 330.263904 161.470331 
L 330.588884 150.845538 
L 330.913863 146.324837 
L 331.238843 143.364767 
L 331.563822 161.108807 
L 331.888802 150.225504 
L 332.213781 145.587055 
L 332.538761 142.591712 
L 332.863741 160.765154 
L 333.18872 149.615224 
L 333.5137 144.854754 
L 333.838679 141.773159 
L 334.163659 160.401179 
L 334.488638 148.987385 
L 334.813618 144.106869 
L 335.138597 140.990236 
L 335.463577 160.051552 
L 335.788556 148.562271 
L 336.113536 143.294837 
L 336.438515 139.975964 
L 336.763495 159.603894 
L 337.088474 147.715704 
L 337.738433 139.105745 
L 338.063413 159.224073 
L 338.388392 146.921164 
L 338.713372 141.728004 
L 339.038352 138.423949 
L 339.363331 158.916013 
L 339.688311 146.674433 
L 340.01329 141.074939 
L 340.33827 137.498895 
L 340.663249 158.511796 
L 340.988229 145.853832 
L 341.638188 136.630412 
L 341.963167 158.134034 
L 342.288147 145.052388 
L 342.613126 139.498895 
L 342.938106 135.93925 
L 343.263085 157.819211 
L 343.588065 144.798456 
L 343.913044 138.837179 
L 344.238024 134.992783 
L 344.563003 157.40792 
L 344.887983 143.963497 
L 345.537942 134.10956 
L 345.862922 157.023629 
L 346.187901 143.149444 
L 346.512881 137.232062 
L 346.83786 133.404942 
L 347.16284 156.700649 
L 347.487819 142.389865 
L 347.812799 136.214854 
L 348.137778 132.2121 
L 348.462758 156.178233 
L 348.787737 141.954571 
L 349.437696 131.499758 
L 349.762676 155.868074 
L 350.087655 141.192638 
L 350.412635 134.892276 
L 350.737614 130.797635 
L 351.062594 155.550991 
L 351.387573 140.417802 
L 351.712553 133.868153 
L 352.037533 129.584628 
L 352.362512 155.023794 
L 352.687492 139.978304 
L 353.012471 133.047493 
L 353.337451 128.511461 
L 353.66243 154.553757 
L 353.98741 139.078063 
L 354.312389 132.433129 
L 354.637369 128.079216 
L 354.962348 154.355917 
L 355.287328 138.411881 
L 355.612307 131.461368 
L 355.937287 126.895086 
L 356.262266 153.839413 
L 356.587246 137.961027 
L 357.237205 125.806713 
L 357.562184 153.367817 
L 357.887164 137.050857 
L 358.537123 124.832195 
L 358.862103 152.949726 
L 359.187082 136.186642 
L 359.512062 145.073098 
L 359.837041 146.656997 
L 360.162021 160.953941 
L 360.487 154.874334 
L 360.81198 152.727596 
L 361.136959 151.526884 
L 361.461939 163.61498 
L 361.786918 156.95055 
L 362.111898 153.894593 
L 362.436877 152.800403 
L 362.761857 164.257358 
L 363.086836 157.899348 
L 363.411816 154.985049 
L 363.736795 153.382425 
L 364.061775 164.556992 
L 364.386754 158.648206 
L 364.711734 155.954017 
L 365.036714 154.479314 
L 365.361693 165.078529 
L 365.686673 158.95611 
L 366.011652 156.128835 
L 366.336632 155.164559 
L 366.661611 165.393271 
L 366.986591 159.708961 
L 367.31157 157.094568 
L 367.63655 155.66652 
L 367.961529 165.649178 
L 368.286509 160.425429 
L 368.611488 158.033498 
L 368.936468 156.737294 
L 369.261447 166.161088 
L 369.586427 160.72347 
L 369.911406 158.772477 
L 370.236386 157.691271 
L 370.561365 166.615525 
L 370.886345 161.548836 
L 371.211324 159.199375 
L 371.536304 157.925374 
L 371.861284 166.737027 
L 372.186263 162.17947 
L 372.511243 160.084963 
L 372.836222 158.953845 
L 373.161202 167.231484 
L 373.486181 162.463513 
L 373.811161 160.807054 
L 374.13614 159.889033 
L 374.46112 167.688313 
L 374.786099 163.290984 
L 375.111079 161.227133 
L 375.436058 160.686867 
L 375.761038 168.068498 
L 376.086017 164.060138 
L 376.410997 162.180832 
L 376.735976 161.179587 
L 377.060956 168.320897 
L 377.385935 164.204559 
L 377.710915 162.81689 
L 378.035895 162.056428 
L 378.360874 168.745162 
L 378.685854 164.985175 
L 379.010833 163.220432 
L 379.335813 162.83676 
L 379.660792 169.116931 
L 379.985772 165.739369 
L 380.310751 164.162788 
L 380.635731 163.325251 
L 380.96071 169.36587 
L 380.96071 169.36587 
" clip-path="url(#pcc94cad9aa)" style="fill: none; stroke-dasharray: 0.74,0.32; stroke-dashoffset: 0; stroke: #6b8e23; stroke-width: 0.2"/>
   </g>
   <g id="patch_3">
    <path d="M 40.073438 274.397261 
L 40.073438 8.285261 
" style="fill: none; stroke: #000000; stroke-width: 0.8; stroke-linejoin: miter; stroke-linecap: square"/>
   </g>
   <g id="patch_4">
    <path d="M 397.193438 274.397261 
L 397.193438 8.285261 
" style="fill: none; stroke: #000000; stroke-width: 0.8; stroke-linejoin: miter; stroke-linecap: square"/>
   </g>
   <g id="patch_5">
    <path d="M 40.073438 274.397261 
L 397.193438 274.397261 
" style="fill: none; stroke: #000000; stroke-width: 0.8; stroke-linejoin: miter; stroke-linecap: square"/>
   </g>
   <g id="patch_6">
    <path d="M 40.073438 8.285261 
L 397.193438 8.285261 
" style="fill: none; stroke: #000000; stroke-width: 0.8; stroke-linejoin: miter; stroke-linecap: square"/>
   </g>
   <g id="legend_1">
    <g id="patch_7">
     <path d="M 242.315313 133.710261 
L 390.193438 133.710261 
Q 392.193438 133.710261 392.193438 131.710261 
L 392.193438 15.285261 
Q 392.193438 13.285261 390.193438 13.285261 
L 242.315313 13.285261 
Q 240.315313 13.285261 240.315313 15.285261 
L 240.315313 131.710261 
Q 240.315313 133.710261 242.315313 133.710261 
z
" style="fill: #ffffff; opacity: 0.8; stroke: #cccccc; stroke-linejoin: miter"/>
    </g>
    <g id="line2d_24">
     <path d="M 244.315313 21.383698 
L 254.315313 21.383698 
L 264.315313 21.383698 
" style="fill: none; stroke: #ff4500; stroke-linecap: square"/>
    </g>
    <g id="text_16">
     <text style="font: 10px 'DejaVu Sans', 'Bitstream Vera Sans', 'Computer Modern Sans Serif', 'Lucida Grande', 'Verdana', 'Geneva', 'Lucid', 'Arial', 'Helvetica', 'Avant Garde', sans-serif; text-anchor: start" x="272.315313" y="24.883698" transform="rotate(-0 272.315313 24.883698)">Digital prediction DB1</text>
    </g>
    <g id="line2d_25">
     <path d="M 244.315313 36.061823 
L 254.315313 36.061823 
L 264.315313 36.061823 
" style="fill: none; stroke-dasharray: 0.74,0.32; stroke-dashoffset: 0; stroke: #ff4500; stroke-width: 0.2"/>
    </g>
    <g id="text_17">
     <text style="font: 10px 'DejaVu Sans', 'Bitstream Vera Sans', 'Computer Modern Sans Serif', 'Lucida Grande', 'Verdana', 'Geneva', 'Lucid', 'Arial', 'Helvetica', 'Avant Garde', sans-serif; text-anchor: start" x="272.315313" y="39.561823" transform="rotate(-0 272.315313 39.561823)">Analog prediction DB1</text>
    </g>
    <g id="line2d_26">
     <path d="M 244.315313 50.739948 
L 254.315313 50.739948 
L 264.315313 50.739948 
" style="fill: none; stroke: #c71585; stroke-linecap: square"/>
    </g>
    <g id="text_18">
     <text style="font: 10px 'DejaVu Sans', 'Bitstream Vera Sans', 'Computer Modern Sans Serif', 'Lucida Grande', 'Verdana', 'Geneva', 'Lucid', 'Arial', 'Helvetica', 'Avant Garde', sans-serif; text-anchor: start" x="272.315313" y="54.239948" transform="rotate(-0 272.315313 54.239948)">Digital prediction LUAL</text>
    </g>
    <g id="line2d_27">
     <path d="M 244.315313 65.418073 
L 254.315313 65.418073 
L 264.315313 65.418073 
" style="fill: none; stroke-dasharray: 0.74,0.32; stroke-dashoffset: 0; stroke: #c71585; stroke-width: 0.2"/>
    </g>
    <g id="text_19">
     <text style="font: 10px 'DejaVu Sans', 'Bitstream Vera Sans', 'Computer Modern Sans Serif', 'Lucida Grande', 'Verdana', 'Geneva', 'Lucid', 'Arial', 'Helvetica', 'Avant Garde', sans-serif; text-anchor: start" x="272.315313" y="68.918073" transform="rotate(-0 272.315313 68.918073)">Analog prediction LUAL</text>
    </g>
    <g id="line2d_28">
     <path d="M 244.315313 80.096198 
L 254.315313 80.096198 
L 264.315313 80.096198 
" style="fill: none; stroke: #4682b4; stroke-linecap: square"/>
    </g>
    <g id="text_20">
     <text style="font: 10px 'DejaVu Sans', 'Bitstream Vera Sans', 'Computer Modern Sans Serif', 'Lucida Grande', 'Verdana', 'Geneva', 'Lucid', 'Arial', 'Helvetica', 'Avant Garde', sans-serif; text-anchor: start" x="272.315313" y="83.596198" transform="rotate(-0 272.315313 83.596198)">Digital prediction PVR</text>
    </g>
    <g id="line2d_29">
     <path d="M 244.315313 94.774323 
L 254.315313 94.774323 
L 264.315313 94.774323 
" style="fill: none; stroke-dasharray: 0.74,0.32; stroke-dashoffset: 0; stroke: #4682b4; stroke-width: 0.2"/>
    </g>
    <g id="text_21">
     <text style="font: 10px 'DejaVu Sans', 'Bitstream Vera Sans', 'Computer Modern Sans Serif', 'Lucida Grande', 'Verdana', 'Geneva', 'Lucid', 'Arial', 'Helvetica', 'Avant Garde', sans-serif; text-anchor: start" x="272.315313" y="98.274323" transform="rotate(-0 272.315313 98.274323)">Analog prediction PVR</text>
    </g>
    <g id="line2d_30">
     <path d="M 244.315313 109.452448 
L 254.315313 109.452448 
L 264.315313 109.452448 
" style="fill: none; stroke: #6b8e23; stroke-linecap: square"/>
    </g>
    <g id="text_22">
     <text style="font: 10px 'DejaVu Sans', 'Bitstream Vera Sans', 'Computer Modern Sans Serif', 'Lucida Grande', 'Verdana', 'Geneva', 'Lucid', 'Arial', 'Helvetica', 'Avant Garde', sans-serif; text-anchor: start" x="272.315313" y="112.952448" transform="rotate(-0 272.315313 112.952448)">Digital prediction VB1</text>
    </g>
    <g id="line2d_31">
     <path d="M 244.315313 124.130573 
L 254.315313 124.130573 
L 264.315313 124.130573 
" style="fill: none; stroke-dasharray: 0.74,0.32; stroke-dashoffset: 0; stroke: #6b8e23; stroke-width: 0.2"/>
    </g>
    <g id="text_23">
     <text style="font: 10px 'DejaVu Sans', 'Bitstream Vera Sans', 'Computer Modern Sans Serif', 'Lucida Grande', 'Verdana', 'Geneva', 'Lucid', 'Arial', 'Helvetica', 'Avant Garde', sans-serif; text-anchor: start" x="272.315313" y="127.630573" transform="rotate(-0 272.315313 127.630573)">Analog prediction VB1</text>
    </g>
   </g>
  </g>
 </g>
 <defs>
  <clipPath id="pcc94cad9aa">
   <rect x="40.073438" y="8.285261" width="357.12" height="266.112"/>
  </clipPath>
 </defs>
</svg>
