<?xml version="1.0" encoding="utf-8" standalone="no"?>
<!DOCTYPE svg PUBLIC "-//W3C//DTD SVG 1.1//EN"
  "http://www.w3.org/Graphics/SVG/1.1/DTD/svg11.dtd">
<svg xmlns:xlink="http://www.w3.org/1999/xlink" width="394.423125pt" height="297.190125pt" viewBox="0 0 394.423125 297.190125" xmlns="http://www.w3.org/2000/svg" version="1.1">
 <metadata>
  <rdf:RDF xmlns:dc="http://purl.org/dc/elements/1.1/" xmlns:cc="http://creativecommons.org/ns#" xmlns:rdf="http://www.w3.org/1999/02/22-rdf-syntax-ns#">
   <cc:Work>
    <dc:type rdf:resource="http://purl.org/dc/dcmitype/StillImage"/>
    <dc:date>2023-10-25T12:46:41.898323</dc:date>
    <dc:format>image/svg+xml</dc:format>
    <dc:creator>
     <cc:Agent>
      <dc:title>Matplotlib v3.8.0, https://matplotlib.org/</dc:title>
     </cc:Agent>
    </dc:creator>
   </cc:Work>
  </rdf:RDF>
 </metadata>
 <defs>
  <style type="text/css">*{stroke-linejoin: round; stroke-linecap: butt}</style>
 </defs>
 <g id="figure_1">
  <g id="patch_1">
   <path d="M 0 297.190125 
L 394.423125 297.190125 
L 394.423125 0 
L 0 0 
z
" style="fill: #ffffff"/>
  </g>
  <g id="axes_1">
   <g id="patch_2">
    <path d="M 30.103125 140.256 
L 387.223125 140.256 
L 387.223125 7.2 
L 30.103125 7.2 
z
" style="fill: #ffffff"/>
   </g>
   <g id="matplotlib.axis_1">
    <g id="xtick_1">
     <g id="line2d_1">
      <defs>
       <path id="m7196d0eb81" d="M 0 0 
L 0 3.5 
" style="stroke: #000000; stroke-width: 0.8"/>
      </defs>
      <g>
       <use xlink:href="#m7196d0eb81" x="46.335852" y="140.256" style="stroke: #000000; stroke-width: 0.8"/>
      </g>
     </g>
    </g>
    <g id="xtick_2">
     <g id="line2d_2">
      <g>
       <use xlink:href="#m7196d0eb81" x="111.331757" y="140.256" style="stroke: #000000; stroke-width: 0.8"/>
      </g>
     </g>
    </g>
    <g id="xtick_3">
     <g id="line2d_3">
      <g>
       <use xlink:href="#m7196d0eb81" x="176.327662" y="140.256" style="stroke: #000000; stroke-width: 0.8"/>
      </g>
     </g>
    </g>
    <g id="xtick_4">
     <g id="line2d_4">
      <g>
       <use xlink:href="#m7196d0eb81" x="241.323567" y="140.256" style="stroke: #000000; stroke-width: 0.8"/>
      </g>
     </g>
    </g>
    <g id="xtick_5">
     <g id="line2d_5">
      <g>
       <use xlink:href="#m7196d0eb81" x="306.319472" y="140.256" style="stroke: #000000; stroke-width: 0.8"/>
      </g>
     </g>
    </g>
    <g id="xtick_6">
     <g id="line2d_6">
      <g>
       <use xlink:href="#m7196d0eb81" x="371.315377" y="140.256" style="stroke: #000000; stroke-width: 0.8"/>
      </g>
     </g>
    </g>
   </g>
   <g id="matplotlib.axis_2">
    <g id="ytick_1">
     <g id="line2d_7">
      <defs>
       <path id="m9d51f6dc6c" d="M 0 0 
L -3.5 0 
" style="stroke: #000000; stroke-width: 0.8"/>
      </defs>
      <g>
       <use xlink:href="#m9d51f6dc6c" x="30.103125" y="134.208" style="stroke: #000000; stroke-width: 0.8"/>
      </g>
     </g>
     <g id="text_1">
      <text style="font: 10px 'DejaVu Sans', 'Bitstream Vera Sans', 'Computer Modern Sans Serif', 'Lucida Grande', 'Verdana', 'Geneva', 'Lucid', 'Arial', 'Helvetica', 'Avant Garde', sans-serif; text-anchor: end" x="23.103125" y="138.007219" transform="rotate(-0 23.103125 138.007219)">0.0</text>
     </g>
    </g>
    <g id="ytick_2">
     <g id="line2d_8">
      <g>
       <use xlink:href="#m9d51f6dc6c" x="30.103125" y="107.782865" style="stroke: #000000; stroke-width: 0.8"/>
      </g>
     </g>
     <g id="text_2">
      <text style="font: 10px 'DejaVu Sans', 'Bitstream Vera Sans', 'Computer Modern Sans Serif', 'Lucida Grande', 'Verdana', 'Geneva', 'Lucid', 'Arial', 'Helvetica', 'Avant Garde', sans-serif; text-anchor: end" x="23.103125" y="111.582083" transform="rotate(-0 23.103125 111.582083)">0.5</text>
     </g>
    </g>
    <g id="ytick_3">
     <g id="line2d_9">
      <g>
       <use xlink:href="#m9d51f6dc6c" x="30.103125" y="81.357729" style="stroke: #000000; stroke-width: 0.8"/>
      </g>
     </g>
     <g id="text_3">
      <text style="font: 10px 'DejaVu Sans', 'Bitstream Vera Sans', 'Computer Modern Sans Serif', 'Lucida Grande', 'Verdana', 'Geneva', 'Lucid', 'Arial', 'Helvetica', 'Avant Garde', sans-serif; text-anchor: end" x="23.103125" y="85.156948" transform="rotate(-0 23.103125 85.156948)">1.0</text>
     </g>
    </g>
    <g id="ytick_4">
     <g id="line2d_10">
      <g>
       <use xlink:href="#m9d51f6dc6c" x="30.103125" y="54.932594" style="stroke: #000000; stroke-width: 0.8"/>
      </g>
     </g>
     <g id="text_4">
      <text style="font: 10px 'DejaVu Sans', 'Bitstream Vera Sans', 'Computer Modern Sans Serif', 'Lucida Grande', 'Verdana', 'Geneva', 'Lucid', 'Arial', 'Helvetica', 'Avant Garde', sans-serif; text-anchor: end" x="23.103125" y="58.731813" transform="rotate(-0 23.103125 58.731813)">1.5</text>
     </g>
    </g>
    <g id="ytick_5">
     <g id="line2d_11">
      <g>
       <use xlink:href="#m9d51f6dc6c" x="30.103125" y="28.507459" style="stroke: #000000; stroke-width: 0.8"/>
      </g>
     </g>
     <g id="text_5">
      <text style="font: 10px 'DejaVu Sans', 'Bitstream Vera Sans', 'Computer Modern Sans Serif', 'Lucida Grande', 'Verdana', 'Geneva', 'Lucid', 'Arial', 'Helvetica', 'Avant Garde', sans-serif; text-anchor: end" x="23.103125" y="32.306677" transform="rotate(-0 23.103125 32.306677)">2.0</text>
     </g>
    </g>
   </g>
   <g id="line2d_12">
    <path d="M 46.335852 134.208 
L 111.331757 134.200601 
L 176.002683 60.580174 
L 176.327662 134.208 
L 370.990398 134.208 
L 370.990398 134.208 
" clip-path="url(#p8f2b7bb642)" style="fill: none; stroke: #ff4500; stroke-width: 1.5; stroke-linecap: square"/>
   </g>
   <g id="line2d_13">
    <path d="M 46.335852 134.208 
L 111.331757 134.200601 
L 176.002683 60.580174 
L 176.327662 134.208 
L 370.990398 134.208 
L 370.990398 134.208 
" clip-path="url(#p8f2b7bb642)" style="fill: none; stroke-dasharray: 5.55,2.4; stroke-dashoffset: 0; stroke: #c71585; stroke-width: 1.5"/>
   </g>
   <g id="line2d_14">
    <path d="M 46.335852 134.208 
L 111.331757 134.195844 
L 176.002683 13.248 
L 176.327662 134.208 
L 370.990398 134.208 
L 370.990398 134.208 
" clip-path="url(#p8f2b7bb642)" style="fill: none; stroke-dasharray: 9.6,2.4,1.5,2.4; stroke-dashoffset: 0; stroke: #4682b4; stroke-width: 1.5"/>
   </g>
   <g id="line2d_15">
    <path d="M 46.335852 134.208 
L 111.331757 134.195844 
L 176.002683 13.248 
L 176.327662 134.208 
L 370.990398 134.208 
L 370.990398 134.208 
" clip-path="url(#p8f2b7bb642)" style="fill: none; stroke-dasharray: 2.5,4.125; stroke-dashoffset: 0; stroke: #6b8e23; stroke-width: 2.5"/>
   </g>
   <g id="patch_3">
    <path d="M 30.103125 140.256 
L 30.103125 7.2 
" style="fill: none; stroke: #000000; stroke-width: 0.8; stroke-linejoin: miter; stroke-linecap: square"/>
   </g>
   <g id="patch_4">
    <path d="M 387.223125 140.256 
L 387.223125 7.2 
" style="fill: none; stroke: #000000; stroke-width: 0.8; stroke-linejoin: miter; stroke-linecap: square"/>
   </g>
   <g id="patch_5">
    <path d="M 30.103125 140.256 
L 387.223125 140.256 
" style="fill: none; stroke: #000000; stroke-width: 0.8; stroke-linejoin: miter; stroke-linecap: square"/>
   </g>
   <g id="patch_6">
    <path d="M 30.103125 7.2 
L 387.223125 7.2 
" style="fill: none; stroke: #000000; stroke-width: 0.8; stroke-linejoin: miter; stroke-linecap: square"/>
   </g>
   <g id="legend_1">
    <g id="patch_7">
     <path d="M 316.059062 73.9125 
L 380.223125 73.9125 
Q 382.223125 73.9125 382.223125 71.9125 
L 382.223125 14.2 
Q 382.223125 12.2 380.223125 12.2 
L 316.059062 12.2 
Q 314.059062 12.2 314.059062 14.2 
L 314.059062 71.9125 
Q 314.059062 73.9125 316.059062 73.9125 
z
" style="fill: #ffffff; opacity: 0.8; stroke: #cccccc; stroke-linejoin: miter"/>
    </g>
    <g id="line2d_16">
     <path d="M 318.059062 20.298437 
L 328.059062 20.298437 
L 338.059062 20.298437 
" style="fill: none; stroke: #ff4500; stroke-width: 1.5; stroke-linecap: square"/>
    </g>
    <g id="text_6">
     <text style="font: 10px 'DejaVu Sans', 'Bitstream Vera Sans', 'Computer Modern Sans Serif', 'Lucida Grande', 'Verdana', 'Geneva', 'Lucid', 'Arial', 'Helvetica', 'Avant Garde', sans-serif; text-anchor: start" x="346.059062" y="23.798437" transform="rotate(-0 346.059062 23.798437)">PLML2</text>
    </g>
    <g id="line2d_17">
     <path d="M 318.059062 34.976562 
L 328.059062 34.976562 
L 338.059062 34.976562 
" style="fill: none; stroke-dasharray: 5.55,2.4; stroke-dashoffset: 0; stroke: #c71585; stroke-width: 1.5"/>
    </g>
    <g id="text_7">
     <text style="font: 10px 'DejaVu Sans', 'Bitstream Vera Sans', 'Computer Modern Sans Serif', 'Lucida Grande', 'Verdana', 'Geneva', 'Lucid', 'Arial', 'Helvetica', 'Avant Garde', sans-serif; text-anchor: start" x="346.059062" y="38.476562" transform="rotate(-0 346.059062 38.476562)">PLMR</text>
    </g>
    <g id="line2d_18">
     <path d="M 318.059062 49.654687 
L 328.059062 49.654687 
L 338.059062 49.654687 
" style="fill: none; stroke-dasharray: 9.6,2.4,1.5,2.4; stroke-dashoffset: 0; stroke: #4682b4; stroke-width: 1.5"/>
    </g>
    <g id="text_8">
     <text style="font: 10px 'DejaVu Sans', 'Bitstream Vera Sans', 'Computer Modern Sans Serif', 'Lucida Grande', 'Verdana', 'Geneva', 'Lucid', 'Arial', 'Helvetica', 'Avant Garde', sans-serif; text-anchor: start" x="346.059062" y="53.154687" transform="rotate(-0 346.059062 53.154687)">AVBL</text>
    </g>
    <g id="line2d_19">
     <path d="M 318.059062 64.332812 
L 328.059062 64.332812 
L 338.059062 64.332812 
" style="fill: none; stroke-dasharray: 2.5,4.125; stroke-dashoffset: 0; stroke: #6b8e23; stroke-width: 2.5"/>
    </g>
    <g id="text_9">
     <text style="font: 10px 'DejaVu Sans', 'Bitstream Vera Sans', 'Computer Modern Sans Serif', 'Lucida Grande', 'Verdana', 'Geneva', 'Lucid', 'Arial', 'Helvetica', 'Avant Garde', sans-serif; text-anchor: start" x="346.059062" y="67.832812" transform="rotate(-0 346.059062 67.832812)">AVBR</text>
    </g>
   </g>
  </g>
  <g id="axes_2">
   <g id="patch_8">
    <path d="M 30.103125 273.312 
L 387.223125 273.312 
L 387.223125 140.256 
L 30.103125 140.256 
z
" style="fill: #ffffff"/>
   </g>
   <g id="matplotlib.axis_3">
    <g id="xtick_7">
     <g id="line2d_20">
      <g>
       <use xlink:href="#m7196d0eb81" x="46.335852" y="273.312" style="stroke: #000000; stroke-width: 0.8"/>
      </g>
     </g>
     <g id="text_10">
      <text style="font: 10px 'DejaVu Sans', 'Bitstream Vera Sans', 'Computer Modern Sans Serif', 'Lucida Grande', 'Verdana', 'Geneva', 'Lucid', 'Arial', 'Helvetica', 'Avant Garde', sans-serif; text-anchor: middle" x="46.335852" y="287.910437" transform="rotate(-0 46.335852 287.910437)">0</text>
     </g>
    </g>
    <g id="xtick_8">
     <g id="line2d_21">
      <g>
       <use xlink:href="#m7196d0eb81" x="111.331757" y="273.312" style="stroke: #000000; stroke-width: 0.8"/>
      </g>
     </g>
     <g id="text_11">
      <text style="font: 10px 'DejaVu Sans', 'Bitstream Vera Sans', 'Computer Modern Sans Serif', 'Lucida Grande', 'Verdana', 'Geneva', 'Lucid', 'Arial', 'Helvetica', 'Avant Garde', sans-serif; text-anchor: middle" x="111.331757" y="287.910437" transform="rotate(-0 111.331757 287.910437)">100</text>
     </g>
    </g>
    <g id="xtick_9">
     <g id="line2d_22">
      <g>
       <use xlink:href="#m7196d0eb81" x="176.327662" y="273.312" style="stroke: #000000; stroke-width: 0.8"/>
      </g>
     </g>
     <g id="text_12">
      <text style="font: 10px 'DejaVu Sans', 'Bitstream Vera Sans', 'Computer Modern Sans Serif', 'Lucida Grande', 'Verdana', 'Geneva', 'Lucid', 'Arial', 'Helvetica', 'Avant Garde', sans-serif; text-anchor: middle" x="176.327662" y="287.910437" transform="rotate(-0 176.327662 287.910437)">200</text>
     </g>
    </g>
    <g id="xtick_10">
     <g id="line2d_23">
      <g>
       <use xlink:href="#m7196d0eb81" x="241.323567" y="273.312" style="stroke: #000000; stroke-width: 0.8"/>
      </g>
     </g>
     <g id="text_13">
      <text style="font: 10px 'DejaVu Sans', 'Bitstream Vera Sans', 'Computer Modern Sans Serif', 'Lucida Grande', 'Verdana', 'Geneva', 'Lucid', 'Arial', 'Helvetica', 'Avant Garde', sans-serif; text-anchor: middle" x="241.323567" y="287.910437" transform="rotate(-0 241.323567 287.910437)">300</text>
     </g>
    </g>
    <g id="xtick_11">
     <g id="line2d_24">
      <g>
       <use xlink:href="#m7196d0eb81" x="306.319472" y="273.312" style="stroke: #000000; stroke-width: 0.8"/>
      </g>
     </g>
     <g id="text_14">
      <text style="font: 10px 'DejaVu Sans', 'Bitstream Vera Sans', 'Computer Modern Sans Serif', 'Lucida Grande', 'Verdana', 'Geneva', 'Lucid', 'Arial', 'Helvetica', 'Avant Garde', sans-serif; text-anchor: middle" x="306.319472" y="287.910437" transform="rotate(-0 306.319472 287.910437)">400</text>
     </g>
    </g>
    <g id="xtick_12">
     <g id="line2d_25">
      <g>
       <use xlink:href="#m7196d0eb81" x="371.315377" y="273.312" style="stroke: #000000; stroke-width: 0.8"/>
      </g>
     </g>
     <g id="text_15">
      <text style="font: 10px 'DejaVu Sans', 'Bitstream Vera Sans', 'Computer Modern Sans Serif', 'Lucida Grande', 'Verdana', 'Geneva', 'Lucid', 'Arial', 'Helvetica', 'Avant Garde', sans-serif; text-anchor: middle" x="371.315377" y="287.910437" transform="rotate(-0 371.315377 287.910437)">500</text>
     </g>
    </g>
   </g>
   <g id="matplotlib.axis_4">
    <g id="ytick_6">
     <g id="line2d_26">
      <g>
       <use xlink:href="#m9d51f6dc6c" x="30.103125" y="247.695576" style="stroke: #000000; stroke-width: 0.8"/>
      </g>
     </g>
     <g id="text_16">
      <text style="font: 10px 'DejaVu Sans', 'Bitstream Vera Sans', 'Computer Modern Sans Serif', 'Lucida Grande', 'Verdana', 'Geneva', 'Lucid', 'Arial', 'Helvetica', 'Avant Garde', sans-serif; text-anchor: end" x="23.103125" y="251.494794" transform="rotate(-0 23.103125 251.494794)">0.0</text>
     </g>
    </g>
    <g id="ytick_7">
     <g id="line2d_27">
      <g>
       <use xlink:href="#m9d51f6dc6c" x="30.103125" y="217.590307" style="stroke: #000000; stroke-width: 0.8"/>
      </g>
     </g>
     <g id="text_17">
      <text style="font: 10px 'DejaVu Sans', 'Bitstream Vera Sans', 'Computer Modern Sans Serif', 'Lucida Grande', 'Verdana', 'Geneva', 'Lucid', 'Arial', 'Helvetica', 'Avant Garde', sans-serif; text-anchor: end" x="23.103125" y="221.389526" transform="rotate(-0 23.103125 221.389526)">0.1</text>
     </g>
    </g>
    <g id="ytick_8">
     <g id="line2d_28">
      <g>
       <use xlink:href="#m9d51f6dc6c" x="30.103125" y="187.485039" style="stroke: #000000; stroke-width: 0.8"/>
      </g>
     </g>
     <g id="text_18">
      <text style="font: 10px 'DejaVu Sans', 'Bitstream Vera Sans', 'Computer Modern Sans Serif', 'Lucida Grande', 'Verdana', 'Geneva', 'Lucid', 'Arial', 'Helvetica', 'Avant Garde', sans-serif; text-anchor: end" x="23.103125" y="191.284258" transform="rotate(-0 23.103125 191.284258)">0.2</text>
     </g>
    </g>
    <g id="ytick_9">
     <g id="line2d_29">
      <g>
       <use xlink:href="#m9d51f6dc6c" x="30.103125" y="157.37977" style="stroke: #000000; stroke-width: 0.8"/>
      </g>
     </g>
     <g id="text_19">
      <text style="font: 10px 'DejaVu Sans', 'Bitstream Vera Sans', 'Computer Modern Sans Serif', 'Lucida Grande', 'Verdana', 'Geneva', 'Lucid', 'Arial', 'Helvetica', 'Avant Garde', sans-serif; text-anchor: end" x="23.103125" y="161.178989" transform="rotate(-0 23.103125 161.178989)">0.3</text>
     </g>
    </g>
   </g>
   <g id="line2d_30">
    <path d="M 46.335852 267.264 
L 112.306696 267.173672 
L 113.931593 266.774979 
L 115.881471 266.084328 
L 117.831348 265.177837 
L 120.106204 263.867238 
L 122.381061 262.296486 
L 124.655918 260.473877 
L 127.255754 258.116237 
L 130.18057 255.141208 
L 133.105385 251.854272 
L 136.355181 247.878345 
L 140.254935 242.703026 
L 143.82971 237.591754 
L 148.379423 230.710999 
L 153.904075 221.88082 
L 160.403666 210.930028 
L 169.178113 195.527992 
L 176.327662 182.616535 
L 177.302601 192.453853 
L 177.95256 195.124371 
L 178.927498 197.510123 
L 183.152232 206.542005 
L 187.051987 214.429977 
L 190.301782 220.503609 
L 193.226598 225.521721 
L 196.151413 230.100193 
L 199.076229 234.244993 
L 202.001045 237.974599 
L 204.92586 241.314884 
L 207.850676 244.295547 
L 210.775492 246.947703 
L 213.700308 249.302307 
L 216.625123 251.389137 
L 219.874919 253.427778 
L 223.124714 255.205741 
L 226.699489 256.898503 
L 230.274263 258.35238 
L 234.174018 259.704886 
L 238.398752 260.936923 
L 242.948465 262.037262 
L 248.148137 263.059254 
L 253.997769 263.968765 
L 260.497359 264.747263 
L 267.971888 265.414916 
L 276.746335 265.973577 
L 287.47066 266.430204 
L 301.444779 266.79002 
L 320.618571 267.044201 
L 350.841667 267.197771 
L 370.990398 267.234057 
L 370.990398 267.234057 
" clip-path="url(#pb759e97caf)" style="fill: none; stroke: #ff4500; stroke-linecap: square"/>
   </g>
   <g id="line2d_31">
    <path d="M 46.335852 262.987233 
L 46.660832 261.303302 
L 46.985811 260.31299 
L 47.310791 259.731587 
L 47.96075 259.190997 
L 48.610709 259.005867 
L 50.235607 258.916565 
L 64.209726 258.910131 
L 111.331757 258.906269 
L 111.981716 258.391883 
L 112.956655 257.079799 
L 122.381061 243.136324 
L 126.280815 237.832495 
L 130.830529 232.153568 
L 135.380242 226.921943 
L 140.579915 221.44047 
L 143.82971 218.324885 
L 150.65428 212.45007 
L 153.904075 210.062461 
L 155.853952 208.603704 
L 157.803829 207.215472 
L 164.30342 203.213702 
L 166.903256 201.585838 
L 170.80301 198.828809 
L 174.377785 195.829439 
L 175.027744 195.459382 
L 176.002683 194.404951 
L 176.327662 146.304 
L 176.977621 209.850586 
L 177.302601 228.202928 
L 177.62758 239.919458 
L 177.95256 247.289271 
L 178.277539 251.855792 
L 178.602519 254.653606 
L 178.927498 256.354562 
L 179.252478 257.382084 
L 179.577458 257.999613 
L 180.227417 258.589549 
L 180.877376 258.798254 
L 182.177294 258.896761 
L 189.326843 258.91013 
L 370.990398 258.91013 
L 370.990398 258.91013 
" clip-path="url(#pb759e97caf)" style="fill: none; stroke-dasharray: 3.7,1.6; stroke-dashoffset: 0; stroke: #ff4500"/>
   </g>
   <g id="line2d_32">
    <path d="M 46.335852 264.152016 
L 46.660832 262.896552 
L 46.985811 262.129424 
L 47.63577 261.441295 
L 48.285729 261.210802 
L 49.585648 261.110897 
L 57.710136 261.099832 
L 133.430365 261.003446 
L 134.080324 260.592205 
L 134.405304 260.696596 
L 135.055263 260.182401 
L 135.380242 259.830742 
L 135.705222 260.118875 
L 136.030201 259.927219 
L 136.68016 259.046186 
L 137.00514 259.540219 
L 137.330119 259.364134 
L 137.980078 258.209643 
L 138.305058 258.871756 
L 138.630037 258.758963 
L 139.279996 257.382895 
L 139.604976 258.205791 
L 139.929955 258.182634 
L 140.579915 256.55669 
L 140.904894 257.495107 
L 141.229874 257.590962 
L 141.879833 255.750581 
L 142.204812 256.820847 
L 142.529792 257.028675 
L 143.179751 254.975779 
L 143.50473 256.093573 
L 143.82971 256.358428 
L 144.479669 254.067007 
L 144.804648 255.31876 
L 145.129628 255.787201 
L 145.779587 253.25866 
L 146.104566 254.546024 
L 146.429546 255.206385 
L 147.079505 252.368302 
L 147.404485 253.749256 
L 147.729464 254.593914 
L 148.379423 251.46279 
L 149.029382 254.002243 
L 149.679341 250.572207 
L 150.3293 253.387059 
L 150.979259 249.714133 
L 151.629218 252.805261 
L 152.279177 248.738061 
L 152.604157 250.167273 
L 152.929136 252.138506 
L 153.579096 247.808829 
L 153.904075 249.262045 
L 154.229055 251.532224 
L 154.879014 246.902675 
L 155.203993 248.275629 
L 155.528973 250.904441 
L 156.178932 245.966838 
L 156.503911 247.3425 
L 156.828891 250.179667 
L 157.47885 245.051407 
L 157.803829 246.311356 
L 158.128809 249.542117 
L 158.778768 244.024732 
L 159.103747 245.272656 
L 159.428727 248.887484 
L 160.078686 243.101622 
L 160.403666 244.290195 
L 160.728645 248.288618 
L 161.378604 242.023671 
L 161.703584 243.090169 
L 162.028563 247.551552 
L 162.678522 241.051092 
L 163.003502 242.044371 
L 163.328481 246.931274 
L 163.97844 240.020011 
L 164.30342 240.864914 
L 164.628399 246.213383 
L 165.278358 238.905539 
L 165.603338 239.654362 
L 165.928317 245.488514 
L 166.578277 237.898059 
L 166.903256 238.428893 
L 167.228236 244.793259 
L 167.878195 236.821441 
L 168.203174 237.276856 
L 168.528154 244.097995 
L 169.178113 235.877074 
L 169.503092 236.061649 
L 169.828072 243.30083 
L 170.478031 234.666799 
L 170.80301 234.785128 
L 171.12799 242.50624 
L 171.777949 233.60179 
L 172.102928 233.959966 
L 172.427908 241.851503 
L 173.077867 232.758851 
L 173.402847 232.008437 
L 173.727826 241.087871 
L 174.377785 231.109144 
L 174.702765 230.740476 
L 175.027744 240.207251 
L 175.677703 230.157726 
L 176.002683 229.998015 
L 176.327662 240.079339 
L 176.977621 228.914942 
L 177.302601 227.638547 
L 177.62758 238.660297 
L 178.277539 227.526698 
L 178.602519 226.533339 
L 178.927498 237.84771 
L 179.577458 226.587229 
L 179.902437 225.786157 
L 180.227417 237.738482 
L 180.877376 225.321209 
L 181.202355 223.350271 
L 181.527335 236.259488 
L 182.177294 224.042117 
L 182.502273 222.299034 
L 182.827253 235.323373 
L 183.477212 222.993372 
L 183.802191 221.478306 
L 184.127171 235.200776 
L 184.77713 221.726754 
L 185.102109 218.929255 
L 185.427089 233.671679 
L 186.077048 220.380081 
L 186.402028 217.846072 
L 186.727007 232.847607 
L 187.376966 219.235167 
L 187.701946 216.943404 
L 188.026925 232.707642 
L 188.676884 217.963546 
L 189.001864 214.296317 
L 189.326843 231.126242 
L 189.976802 216.555287 
L 190.301782 213.160767 
L 190.626761 230.262579 
L 191.27672 216.312651 
L 191.6017 211.24612 
L 191.926679 229.657205 
L 192.576639 213.791677 
L 192.901618 209.233708 
L 193.226598 228.374333 
L 193.876557 212.505306 
L 194.201536 208.185154 
L 194.526516 227.536465 
L 194.851495 218.50083 
L 195.501454 206.554935 
L 195.826434 227.266413 
L 196.476393 210.975693 
L 196.801372 205.128096 
L 197.126352 226.630361 
L 197.776311 208.632273 
L 198.10129 203.21207 
L 198.42627 223.85796 
L 198.751249 213.641521 
L 199.401209 200.218238 
L 199.726188 223.145695 
L 200.376147 205.043345 
L 200.701127 198.521268 
L 201.026106 222.392683 
L 201.676065 204.639859 
L 202.001045 198.120327 
L 202.326024 222.229273 
L 203.300963 196.417315 
L 203.625942 222.171485 
L 204.600881 193.958717 
L 204.92586 218.99433 
L 205.57582 198.9357 
L 205.900799 191.703961 
L 206.225779 217.988068 
L 207.200717 189.573245 
L 207.525697 217.75988 
L 208.175656 197.86307 
L 208.500635 188.622336 
L 208.825615 217.370004 
L 209.475574 197.629332 
L 209.800553 188.40448 
L 210.125533 217.27612 
L 210.775492 196.017455 
L 211.100471 189.551219 
L 211.425451 215.448648 
L 212.07541 196.391729 
L 212.40039 191.374181 
L 212.725369 215.836537 
L 213.375328 196.745678 
L 213.700308 191.99979 
L 214.025287 217.927842 
L 214.675246 201.653331 
L 215.000226 197.387498 
L 215.325205 219.510132 
L 215.975164 202.82502 
L 216.300144 198.988752 
L 216.625123 222.095316 
L 217.275082 208.804965 
L 217.600062 205.73267 
L 217.925041 229.43012 
L 218.250021 223.508383 
L 218.89998 214.611651 
L 219.22496 232.502542 
L 219.549939 226.896926 
L 219.874919 243.013902 
L 220.199898 251.541324 
L 220.524878 256.031124 
L 220.849857 258.436016 
L 221.174837 259.69789 
L 221.499816 260.366786 
L 221.824796 260.720106 
L 222.474755 261.009611 
L 223.774673 261.116367 
L 232.224141 261.126349 
L 370.990398 261.126349 
L 370.990398 261.126349 
" clip-path="url(#pb759e97caf)" style="fill: none; stroke-dasharray: 0.64,0.16,0.1,0.16; stroke-dashoffset: 0; stroke: #ff4500; stroke-width: 0.1"/>
   </g>
   <g id="patch_9">
    <path d="M 30.103125 273.312 
L 30.103125 140.256 
" style="fill: none; stroke: #000000; stroke-width: 0.8; stroke-linejoin: miter; stroke-linecap: square"/>
   </g>
   <g id="patch_10">
    <path d="M 387.223125 273.312 
L 387.223125 140.256 
" style="fill: none; stroke: #000000; stroke-width: 0.8; stroke-linejoin: miter; stroke-linecap: square"/>
   </g>
   <g id="patch_11">
    <path d="M 30.103125 273.312 
L 387.223125 273.312 
" style="fill: none; stroke: #000000; stroke-width: 0.8; stroke-linejoin: miter; stroke-linecap: square"/>
   </g>
   <g id="patch_12">
    <path d="M 30.103125 140.256 
L 387.223125 140.256 
" style="fill: none; stroke: #000000; stroke-width: 0.8; stroke-linejoin: miter; stroke-linecap: square"/>
   </g>
   <g id="legend_2">
    <g id="patch_13">
     <path d="M 236.224687 192.290375 
L 380.223125 192.290375 
Q 382.223125 192.290375 382.223125 190.290375 
L 382.223125 147.256 
Q 382.223125 145.256 380.223125 145.256 
L 236.224687 145.256 
Q 234.224687 145.256 234.224687 147.256 
L 234.224687 190.290375 
Q 234.224687 192.290375 236.224687 192.290375 
z
" style="fill: #ffffff; opacity: 0.8; stroke: #cccccc; stroke-linejoin: miter"/>
    </g>
    <g id="line2d_33">
     <path d="M 238.224687 153.354437 
L 248.224687 153.354437 
L 258.224687 153.354437 
" style="fill: none; stroke: #ff4500; stroke-linecap: square"/>
    </g>
    <g id="text_20">
     <text style="font: 10px 'DejaVu Sans', 'Bitstream Vera Sans', 'Computer Modern Sans Serif', 'Lucida Grande', 'Verdana', 'Geneva', 'Lucid', 'Arial', 'Helvetica', 'Avant Garde', sans-serif; text-anchor: start" x="266.224687" y="156.854437" transform="rotate(-0 266.224687 156.854437)">Target response DB1</text>
    </g>
    <g id="line2d_34">
     <path d="M 238.224687 168.032562 
L 248.224687 168.032562 
L 258.224687 168.032562 
" style="fill: none; stroke-dasharray: 3.7,1.6; stroke-dashoffset: 0; stroke: #ff4500"/>
    </g>
    <g id="text_21">
     <text style="font: 10px 'DejaVu Sans', 'Bitstream Vera Sans', 'Computer Modern Sans Serif', 'Lucida Grande', 'Verdana', 'Geneva', 'Lucid', 'Arial', 'Helvetica', 'Avant Garde', sans-serif; text-anchor: start" x="266.224687" y="171.532562" transform="rotate(-0 266.224687 171.532562)">Digital prediction DB1</text>
    </g>
    <g id="line2d_35">
     <path d="M 238.224687 182.710687 
L 248.224687 182.710687 
L 258.224687 182.710687 
" style="fill: none; stroke-dasharray: 0.64,0.16,0.1,0.16; stroke-dashoffset: 0; stroke: #ff4500; stroke-width: 0.1"/>
    </g>
    <g id="text_22">
     <text style="font: 10px 'DejaVu Sans', 'Bitstream Vera Sans', 'Computer Modern Sans Serif', 'Lucida Grande', 'Verdana', 'Geneva', 'Lucid', 'Arial', 'Helvetica', 'Avant Garde', sans-serif; text-anchor: start" x="266.224687" y="186.210687" transform="rotate(-0 266.224687 186.210687)">Analog prediction DB1</text>
    </g>
   </g>
  </g>
 </g>
 <defs>
  <clipPath id="p8f2b7bb642">
   <rect x="30.103125" y="7.2" width="357.12" height="133.056"/>
  </clipPath>
  <clipPath id="pb759e97caf">
   <rect x="30.103125" y="140.256" width="357.12" height="133.056"/>
  </clipPath>
 </defs>
</svg>
