<?xml version="1.0" encoding="utf-8" standalone="no"?>
<!DOCTYPE svg PUBLIC "-//W3C//DTD SVG 1.1//EN"
  "http://www.w3.org/Graphics/SVG/1.1/DTD/svg11.dtd">
<svg xmlns:xlink="http://www.w3.org/1999/xlink" width="408.10125pt" height="310.86825pt" viewBox="0 0 408.10125 310.86825" xmlns="http://www.w3.org/2000/svg" version="1.1">
 <metadata>
  <rdf:RDF xmlns:dc="http://purl.org/dc/elements/1.1/" xmlns:cc="http://creativecommons.org/ns#" xmlns:rdf="http://www.w3.org/1999/02/22-rdf-syntax-ns#">
   <cc:Work>
    <dc:type rdf:resource="http://purl.org/dc/dcmitype/StillImage"/>
    <dc:date>2023-10-25T14:08:50.511081</dc:date>
    <dc:format>image/svg+xml</dc:format>
    <dc:creator>
     <cc:Agent>
      <dc:title>Matplotlib v3.8.0, https://matplotlib.org/</dc:title>
     </cc:Agent>
    </dc:creator>
   </cc:Work>
  </rdf:RDF>
 </metadata>
 <defs>
  <style type="text/css">*{stroke-linejoin: round; stroke-linecap: butt}</style>
 </defs>
 <g id="figure_1">
  <g id="patch_1">
   <path d="M 0 310.86825 
L 408.10125 310.86825 
L 408.10125 0 
L 0 0 
z
" style="fill: #ffffff"/>
  </g>
  <g id="axes_1">
   <g id="patch_2">
    <path d="M 43.78125 140.256 
L 400.90125 140.256 
L 400.90125 7.2 
L 43.78125 7.2 
z
" style="fill: #ffffff"/>
   </g>
   <g id="matplotlib.axis_1">
    <g id="xtick_1">
     <g id="line2d_1">
      <defs>
       <path id="mb99fc641ce" d="M 0 0 
L 0 3.5 
" style="stroke: #000000; stroke-width: 0.8"/>
      </defs>
      <g>
       <use xlink:href="#mb99fc641ce" x="60.013977" y="140.256" style="stroke: #000000; stroke-width: 0.8"/>
      </g>
     </g>
    </g>
    <g id="xtick_2">
     <g id="line2d_2">
      <g>
       <use xlink:href="#mb99fc641ce" x="125.009882" y="140.256" style="stroke: #000000; stroke-width: 0.8"/>
      </g>
     </g>
    </g>
    <g id="xtick_3">
     <g id="line2d_3">
      <g>
       <use xlink:href="#mb99fc641ce" x="190.005787" y="140.256" style="stroke: #000000; stroke-width: 0.8"/>
      </g>
     </g>
    </g>
    <g id="xtick_4">
     <g id="line2d_4">
      <g>
       <use xlink:href="#mb99fc641ce" x="255.001692" y="140.256" style="stroke: #000000; stroke-width: 0.8"/>
      </g>
     </g>
    </g>
    <g id="xtick_5">
     <g id="line2d_5">
      <g>
       <use xlink:href="#mb99fc641ce" x="319.997597" y="140.256" style="stroke: #000000; stroke-width: 0.8"/>
      </g>
     </g>
    </g>
    <g id="xtick_6">
     <g id="line2d_6">
      <g>
       <use xlink:href="#mb99fc641ce" x="384.993502" y="140.256" style="stroke: #000000; stroke-width: 0.8"/>
      </g>
     </g>
    </g>
   </g>
   <g id="matplotlib.axis_2">
    <g id="ytick_1">
     <g id="line2d_7">
      <defs>
       <path id="m90d529c8d6" d="M 0 0 
L -3.5 0 
" style="stroke: #000000; stroke-width: 0.8"/>
      </defs>
      <g>
       <use xlink:href="#m90d529c8d6" x="43.78125" y="134.208" style="stroke: #000000; stroke-width: 0.8"/>
      </g>
     </g>
     <g id="text_1">
      <text style="font: 10px 'DejaVu Sans', 'Bitstream Vera Sans', 'Computer Modern Sans Serif', 'Lucida Grande', 'Verdana', 'Geneva', 'Lucid', 'Arial', 'Helvetica', 'Avant Garde', sans-serif; text-anchor: end" x="36.78125" y="138.007219" transform="rotate(-0 36.78125 138.007219)">0.0</text>
     </g>
    </g>
    <g id="ytick_2">
     <g id="line2d_8">
      <g>
       <use xlink:href="#m90d529c8d6" x="43.78125" y="107.782865" style="stroke: #000000; stroke-width: 0.8"/>
      </g>
     </g>
     <g id="text_2">
      <text style="font: 10px 'DejaVu Sans', 'Bitstream Vera Sans', 'Computer Modern Sans Serif', 'Lucida Grande', 'Verdana', 'Geneva', 'Lucid', 'Arial', 'Helvetica', 'Avant Garde', sans-serif; text-anchor: end" x="36.78125" y="111.582083" transform="rotate(-0 36.78125 111.582083)">0.5</text>
     </g>
    </g>
    <g id="ytick_3">
     <g id="line2d_9">
      <g>
       <use xlink:href="#m90d529c8d6" x="43.78125" y="81.357729" style="stroke: #000000; stroke-width: 0.8"/>
      </g>
     </g>
     <g id="text_3">
      <text style="font: 10px 'DejaVu Sans', 'Bitstream Vera Sans', 'Computer Modern Sans Serif', 'Lucida Grande', 'Verdana', 'Geneva', 'Lucid', 'Arial', 'Helvetica', 'Avant Garde', sans-serif; text-anchor: end" x="36.78125" y="85.156948" transform="rotate(-0 36.78125 85.156948)">1.0</text>
     </g>
    </g>
    <g id="ytick_4">
     <g id="line2d_10">
      <g>
       <use xlink:href="#m90d529c8d6" x="43.78125" y="54.932594" style="stroke: #000000; stroke-width: 0.8"/>
      </g>
     </g>
     <g id="text_4">
      <text style="font: 10px 'DejaVu Sans', 'Bitstream Vera Sans', 'Computer Modern Sans Serif', 'Lucida Grande', 'Verdana', 'Geneva', 'Lucid', 'Arial', 'Helvetica', 'Avant Garde', sans-serif; text-anchor: end" x="36.78125" y="58.731813" transform="rotate(-0 36.78125 58.731813)">1.5</text>
     </g>
    </g>
    <g id="ytick_5">
     <g id="line2d_11">
      <g>
       <use xlink:href="#m90d529c8d6" x="43.78125" y="28.507459" style="stroke: #000000; stroke-width: 0.8"/>
      </g>
     </g>
     <g id="text_5">
      <text style="font: 10px 'DejaVu Sans', 'Bitstream Vera Sans', 'Computer Modern Sans Serif', 'Lucida Grande', 'Verdana', 'Geneva', 'Lucid', 'Arial', 'Helvetica', 'Avant Garde', sans-serif; text-anchor: end" x="36.78125" y="32.306677" transform="rotate(-0 36.78125 32.306677)">2.0</text>
     </g>
    </g>
    <g id="text_6">
     <text style="font: 10px 'DejaVu Sans', 'Bitstream Vera Sans', 'Computer Modern Sans Serif', 'Lucida Grande', 'Verdana', 'Geneva', 'Lucid', 'Arial', 'Helvetica', 'Avant Garde', sans-serif; text-anchor: middle" x="14.798438" y="73.728" transform="rotate(-90 14.798438 73.728)">Current (nA)</text>
    </g>
   </g>
   <g id="line2d_12">
    <path d="M 60.013977 134.208 
L 125.009882 134.200601 
L 189.680808 60.580174 
L 190.005787 134.208 
L 384.668523 134.208 
L 384.668523 134.208 
" clip-path="url(#pfc75303bae)" style="fill: none; stroke: #ff4500; stroke-width: 1.5; stroke-linecap: square"/>
   </g>
   <g id="line2d_13">
    <path d="M 60.013977 134.208 
L 125.009882 134.200601 
L 189.680808 60.580174 
L 190.005787 134.208 
L 384.668523 134.208 
L 384.668523 134.208 
" clip-path="url(#pfc75303bae)" style="fill: none; stroke-dasharray: 5.55,2.4; stroke-dashoffset: 0; stroke: #c71585; stroke-width: 1.5"/>
   </g>
   <g id="line2d_14">
    <path d="M 60.013977 134.208 
L 125.009882 134.195844 
L 189.680808 13.248 
L 190.005787 134.208 
L 384.668523 134.208 
L 384.668523 134.208 
" clip-path="url(#pfc75303bae)" style="fill: none; stroke-dasharray: 9.6,2.4,1.5,2.4; stroke-dashoffset: 0; stroke: #4682b4; stroke-width: 1.5"/>
   </g>
   <g id="line2d_15">
    <path d="M 60.013977 134.208 
L 125.009882 134.195844 
L 189.680808 13.248 
L 190.005787 134.208 
L 384.668523 134.208 
L 384.668523 134.208 
" clip-path="url(#pfc75303bae)" style="fill: none; stroke-dasharray: 2.5,4.125; stroke-dashoffset: 0; stroke: #6b8e23; stroke-width: 2.5"/>
   </g>
   <g id="patch_3">
    <path d="M 43.78125 140.256 
L 43.78125 7.2 
" style="fill: none; stroke: #000000; stroke-width: 0.8; stroke-linejoin: miter; stroke-linecap: square"/>
   </g>
   <g id="patch_4">
    <path d="M 400.90125 140.256 
L 400.90125 7.2 
" style="fill: none; stroke: #000000; stroke-width: 0.8; stroke-linejoin: miter; stroke-linecap: square"/>
   </g>
   <g id="patch_5">
    <path d="M 43.78125 140.256 
L 400.90125 140.256 
" style="fill: none; stroke: #000000; stroke-width: 0.8; stroke-linejoin: miter; stroke-linecap: square"/>
   </g>
   <g id="patch_6">
    <path d="M 43.78125 7.2 
L 400.90125 7.2 
" style="fill: none; stroke: #000000; stroke-width: 0.8; stroke-linejoin: miter; stroke-linecap: square"/>
   </g>
   <g id="legend_1">
    <g id="patch_7">
     <path d="M 329.737188 73.9125 
L 393.90125 73.9125 
Q 395.90125 73.9125 395.90125 71.9125 
L 395.90125 14.2 
Q 395.90125 12.2 393.90125 12.2 
L 329.737188 12.2 
Q 327.737188 12.2 327.737188 14.2 
L 327.737188 71.9125 
Q 327.737188 73.9125 329.737188 73.9125 
z
" style="fill: #ffffff; opacity: 0.8; stroke: #cccccc; stroke-linejoin: miter"/>
    </g>
    <g id="line2d_16">
     <path d="M 331.737188 20.298437 
L 341.737188 20.298437 
L 351.737188 20.298437 
" style="fill: none; stroke: #ff4500; stroke-width: 1.5; stroke-linecap: square"/>
    </g>
    <g id="text_7">
     <text style="font: 10px 'DejaVu Sans', 'Bitstream Vera Sans', 'Computer Modern Sans Serif', 'Lucida Grande', 'Verdana', 'Geneva', 'Lucid', 'Arial', 'Helvetica', 'Avant Garde', sans-serif; text-anchor: start" x="359.737188" y="23.798437" transform="rotate(-0 359.737188 23.798437)">PLML2</text>
    </g>
    <g id="line2d_17">
     <path d="M 331.737188 34.976562 
L 341.737188 34.976562 
L 351.737188 34.976562 
" style="fill: none; stroke-dasharray: 5.55,2.4; stroke-dashoffset: 0; stroke: #c71585; stroke-width: 1.5"/>
    </g>
    <g id="text_8">
     <text style="font: 10px 'DejaVu Sans', 'Bitstream Vera Sans', 'Computer Modern Sans Serif', 'Lucida Grande', 'Verdana', 'Geneva', 'Lucid', 'Arial', 'Helvetica', 'Avant Garde', sans-serif; text-anchor: start" x="359.737188" y="38.476562" transform="rotate(-0 359.737188 38.476562)">PLMR</text>
    </g>
    <g id="line2d_18">
     <path d="M 331.737188 49.654687 
L 341.737188 49.654687 
L 351.737188 49.654687 
" style="fill: none; stroke-dasharray: 9.6,2.4,1.5,2.4; stroke-dashoffset: 0; stroke: #4682b4; stroke-width: 1.5"/>
    </g>
    <g id="text_9">
     <text style="font: 10px 'DejaVu Sans', 'Bitstream Vera Sans', 'Computer Modern Sans Serif', 'Lucida Grande', 'Verdana', 'Geneva', 'Lucid', 'Arial', 'Helvetica', 'Avant Garde', sans-serif; text-anchor: start" x="359.737188" y="53.154687" transform="rotate(-0 359.737188 53.154687)">AVBL</text>
    </g>
    <g id="line2d_19">
     <path d="M 331.737188 64.332812 
L 341.737188 64.332812 
L 351.737188 64.332812 
" style="fill: none; stroke-dasharray: 2.5,4.125; stroke-dashoffset: 0; stroke: #6b8e23; stroke-width: 2.5"/>
    </g>
    <g id="text_10">
     <text style="font: 10px 'DejaVu Sans', 'Bitstream Vera Sans', 'Computer Modern Sans Serif', 'Lucida Grande', 'Verdana', 'Geneva', 'Lucid', 'Arial', 'Helvetica', 'Avant Garde', sans-serif; text-anchor: start" x="359.737188" y="67.832812" transform="rotate(-0 359.737188 67.832812)">AVBR</text>
    </g>
   </g>
  </g>
  <g id="axes_2">
   <g id="patch_8">
    <path d="M 43.78125 273.312 
L 400.90125 273.312 
L 400.90125 140.256 
L 43.78125 140.256 
z
" style="fill: #ffffff"/>
   </g>
   <g id="matplotlib.axis_3">
    <g id="xtick_7">
     <g id="line2d_20">
      <g>
       <use xlink:href="#mb99fc641ce" x="60.013977" y="273.312" style="stroke: #000000; stroke-width: 0.8"/>
      </g>
     </g>
     <g id="text_11">
      <text style="font: 10px 'DejaVu Sans', 'Bitstream Vera Sans', 'Computer Modern Sans Serif', 'Lucida Grande', 'Verdana', 'Geneva', 'Lucid', 'Arial', 'Helvetica', 'Avant Garde', sans-serif; text-anchor: middle" x="60.013977" y="287.910437" transform="rotate(-0 60.013977 287.910437)">0</text>
     </g>
    </g>
    <g id="xtick_8">
     <g id="line2d_21">
      <g>
       <use xlink:href="#mb99fc641ce" x="125.009882" y="273.312" style="stroke: #000000; stroke-width: 0.8"/>
      </g>
     </g>
     <g id="text_12">
      <text style="font: 10px 'DejaVu Sans', 'Bitstream Vera Sans', 'Computer Modern Sans Serif', 'Lucida Grande', 'Verdana', 'Geneva', 'Lucid', 'Arial', 'Helvetica', 'Avant Garde', sans-serif; text-anchor: middle" x="125.009882" y="287.910437" transform="rotate(-0 125.009882 287.910437)">100</text>
     </g>
    </g>
    <g id="xtick_9">
     <g id="line2d_22">
      <g>
       <use xlink:href="#mb99fc641ce" x="190.005787" y="273.312" style="stroke: #000000; stroke-width: 0.8"/>
      </g>
     </g>
     <g id="text_13">
      <text style="font: 10px 'DejaVu Sans', 'Bitstream Vera Sans', 'Computer Modern Sans Serif', 'Lucida Grande', 'Verdana', 'Geneva', 'Lucid', 'Arial', 'Helvetica', 'Avant Garde', sans-serif; text-anchor: middle" x="190.005787" y="287.910437" transform="rotate(-0 190.005787 287.910437)">200</text>
     </g>
    </g>
    <g id="xtick_10">
     <g id="line2d_23">
      <g>
       <use xlink:href="#mb99fc641ce" x="255.001692" y="273.312" style="stroke: #000000; stroke-width: 0.8"/>
      </g>
     </g>
     <g id="text_14">
      <text style="font: 10px 'DejaVu Sans', 'Bitstream Vera Sans', 'Computer Modern Sans Serif', 'Lucida Grande', 'Verdana', 'Geneva', 'Lucid', 'Arial', 'Helvetica', 'Avant Garde', sans-serif; text-anchor: middle" x="255.001692" y="287.910437" transform="rotate(-0 255.001692 287.910437)">300</text>
     </g>
    </g>
    <g id="xtick_11">
     <g id="line2d_24">
      <g>
       <use xlink:href="#mb99fc641ce" x="319.997597" y="273.312" style="stroke: #000000; stroke-width: 0.8"/>
      </g>
     </g>
     <g id="text_15">
      <text style="font: 10px 'DejaVu Sans', 'Bitstream Vera Sans', 'Computer Modern Sans Serif', 'Lucida Grande', 'Verdana', 'Geneva', 'Lucid', 'Arial', 'Helvetica', 'Avant Garde', sans-serif; text-anchor: middle" x="319.997597" y="287.910437" transform="rotate(-0 319.997597 287.910437)">400</text>
     </g>
    </g>
    <g id="xtick_12">
     <g id="line2d_25">
      <g>
       <use xlink:href="#mb99fc641ce" x="384.993502" y="273.312" style="stroke: #000000; stroke-width: 0.8"/>
      </g>
     </g>
     <g id="text_16">
      <text style="font: 10px 'DejaVu Sans', 'Bitstream Vera Sans', 'Computer Modern Sans Serif', 'Lucida Grande', 'Verdana', 'Geneva', 'Lucid', 'Arial', 'Helvetica', 'Avant Garde', sans-serif; text-anchor: middle" x="384.993502" y="287.910437" transform="rotate(-0 384.993502 287.910437)">500</text>
     </g>
    </g>
    <g id="text_17">
     <text style="font: 10px 'DejaVu Sans', 'Bitstream Vera Sans', 'Computer Modern Sans Serif', 'Lucida Grande', 'Verdana', 'Geneva', 'Lucid', 'Arial', 'Helvetica', 'Avant Garde', sans-serif; text-anchor: middle" x="222.34125" y="301.588562" transform="rotate(-0 222.34125 301.588562)">Time (ms)</text>
    </g>
   </g>
   <g id="matplotlib.axis_4">
    <g id="ytick_6">
     <g id="line2d_26">
      <g>
       <use xlink:href="#m90d529c8d6" x="43.78125" y="247.695576" style="stroke: #000000; stroke-width: 0.8"/>
      </g>
     </g>
     <g id="text_18">
      <text style="font: 10px 'DejaVu Sans', 'Bitstream Vera Sans', 'Computer Modern Sans Serif', 'Lucida Grande', 'Verdana', 'Geneva', 'Lucid', 'Arial', 'Helvetica', 'Avant Garde', sans-serif; text-anchor: end" x="36.78125" y="251.494794" transform="rotate(-0 36.78125 251.494794)">0.0</text>
     </g>
    </g>
    <g id="ytick_7">
     <g id="line2d_27">
      <g>
       <use xlink:href="#m90d529c8d6" x="43.78125" y="217.590307" style="stroke: #000000; stroke-width: 0.8"/>
      </g>
     </g>
     <g id="text_19">
      <text style="font: 10px 'DejaVu Sans', 'Bitstream Vera Sans', 'Computer Modern Sans Serif', 'Lucida Grande', 'Verdana', 'Geneva', 'Lucid', 'Arial', 'Helvetica', 'Avant Garde', sans-serif; text-anchor: end" x="36.78125" y="221.389526" transform="rotate(-0 36.78125 221.389526)">0.1</text>
     </g>
    </g>
    <g id="ytick_8">
     <g id="line2d_28">
      <g>
       <use xlink:href="#m90d529c8d6" x="43.78125" y="187.485039" style="stroke: #000000; stroke-width: 0.8"/>
      </g>
     </g>
     <g id="text_20">
      <text style="font: 10px 'DejaVu Sans', 'Bitstream Vera Sans', 'Computer Modern Sans Serif', 'Lucida Grande', 'Verdana', 'Geneva', 'Lucid', 'Arial', 'Helvetica', 'Avant Garde', sans-serif; text-anchor: end" x="36.78125" y="191.284258" transform="rotate(-0 36.78125 191.284258)">0.2</text>
     </g>
    </g>
    <g id="ytick_9">
     <g id="line2d_29">
      <g>
       <use xlink:href="#m90d529c8d6" x="43.78125" y="157.37977" style="stroke: #000000; stroke-width: 0.8"/>
      </g>
     </g>
     <g id="text_21">
      <text style="font: 10px 'DejaVu Sans', 'Bitstream Vera Sans', 'Computer Modern Sans Serif', 'Lucida Grande', 'Verdana', 'Geneva', 'Lucid', 'Arial', 'Helvetica', 'Avant Garde', sans-serif; text-anchor: end" x="36.78125" y="161.178989" transform="rotate(-0 36.78125 161.178989)">0.3</text>
     </g>
    </g>
    <g id="text_22">
     <text style="font: 10px 'DejaVu Sans', 'Bitstream Vera Sans', 'Computer Modern Sans Serif', 'Lucida Grande', 'Verdana', 'Geneva', 'Lucid', 'Arial', 'Helvetica', 'Avant Garde', sans-serif; text-anchor: middle" x="14.798438" y="206.784" transform="rotate(-90 14.798438 206.784)">Voltage (V)</text>
    </g>
   </g>
   <g id="line2d_30">
    <path d="M 60.013977 267.264 
L 125.984821 267.173672 
L 127.609718 266.774979 
L 129.559596 266.084328 
L 131.509473 265.177837 
L 133.784329 263.867238 
L 136.059186 262.296486 
L 138.334043 260.473877 
L 140.933879 258.116237 
L 143.858695 255.141208 
L 146.78351 251.854272 
L 150.033306 247.878345 
L 153.93306 242.703026 
L 157.507835 237.591754 
L 162.057548 230.710999 
L 167.5822 221.88082 
L 174.081791 210.930028 
L 182.856238 195.527992 
L 190.005787 182.616535 
L 190.980726 192.453853 
L 191.630685 195.124371 
L 192.605623 197.510123 
L 196.830357 206.542005 
L 200.730112 214.429977 
L 203.979907 220.503609 
L 206.904723 225.521721 
L 209.829538 230.100193 
L 212.754354 234.244993 
L 215.67917 237.974599 
L 218.603985 241.314884 
L 221.528801 244.295547 
L 224.453617 246.947703 
L 227.378433 249.302307 
L 230.303248 251.389137 
L 233.553044 253.427778 
L 236.802839 255.205741 
L 240.377614 256.898503 
L 243.952388 258.35238 
L 247.852143 259.704886 
L 252.076877 260.936923 
L 256.62659 262.037262 
L 261.826262 263.059254 
L 267.675894 263.968765 
L 274.175484 264.747263 
L 281.650013 265.414916 
L 290.42446 265.973577 
L 301.148785 266.430204 
L 315.122904 266.79002 
L 334.296696 267.044201 
L 364.519792 267.197771 
L 384.668523 267.234057 
L 384.668523 267.234057 
" clip-path="url(#p8dd44861d1)" style="fill: none; stroke: #ff4500; stroke-linecap: square"/>
   </g>
   <g id="line2d_31">
    <path d="M 60.013977 262.987233 
L 60.338957 261.303302 
L 60.663936 260.31299 
L 60.988916 259.731587 
L 61.638875 259.190997 
L 62.288834 259.005867 
L 63.913732 258.916565 
L 77.887851 258.910131 
L 125.009882 258.906269 
L 125.659841 258.391883 
L 126.63478 257.079799 
L 136.059186 243.136324 
L 139.95894 237.832495 
L 144.508654 232.153568 
L 149.058367 226.921943 
L 154.25804 221.44047 
L 157.507835 218.324885 
L 164.332405 212.45007 
L 167.5822 210.062461 
L 169.532077 208.603704 
L 171.481954 207.215472 
L 177.981545 203.213702 
L 180.581381 201.585838 
L 184.481135 198.828809 
L 188.05591 195.829439 
L 188.705869 195.459382 
L 189.680808 194.404951 
L 190.005787 146.304 
L 190.655746 209.850586 
L 190.980726 228.202928 
L 191.305705 239.919458 
L 191.630685 247.289271 
L 191.955664 251.855792 
L 192.280644 254.653606 
L 192.605623 256.354562 
L 192.930603 257.382084 
L 193.255583 257.999613 
L 193.905542 258.589549 
L 194.555501 258.798254 
L 195.855419 258.896761 
L 203.004968 258.91013 
L 384.668523 258.91013 
L 384.668523 258.91013 
" clip-path="url(#p8dd44861d1)" style="fill: none; stroke-dasharray: 3.7,1.6; stroke-dashoffset: 0; stroke: #ff4500"/>
   </g>
   <g id="line2d_32">
    <path d="M 60.013977 264.152016 
L 60.338957 262.896552 
L 60.663936 262.129424 
L 61.313895 261.441295 
L 61.963854 261.210802 
L 63.263773 261.110897 
L 71.388261 261.099832 
L 147.10849 261.003446 
L 147.758449 260.592205 
L 148.083429 260.696596 
L 148.733388 260.182401 
L 149.058367 259.830742 
L 149.383347 260.118875 
L 149.708326 259.927219 
L 150.358285 259.046186 
L 150.683265 259.540219 
L 151.008244 259.364134 
L 151.658203 258.209643 
L 151.983183 258.871756 
L 152.308162 258.758963 
L 152.958121 257.382895 
L 153.283101 258.205791 
L 153.60808 258.182634 
L 154.25804 256.55669 
L 154.583019 257.495107 
L 154.907999 257.590962 
L 155.557958 255.750581 
L 155.882937 256.820847 
L 156.207917 257.028675 
L 156.857876 254.975779 
L 157.182855 256.093573 
L 157.507835 256.358428 
L 158.157794 254.067007 
L 158.482773 255.31876 
L 158.807753 255.787201 
L 159.457712 253.25866 
L 159.782691 254.546024 
L 160.107671 255.206385 
L 160.75763 252.368302 
L 161.08261 253.749256 
L 161.407589 254.593914 
L 162.057548 251.46279 
L 162.707507 254.002243 
L 163.357466 250.572207 
L 164.007425 253.387059 
L 164.657384 249.714133 
L 165.307343 252.805261 
L 165.957302 248.738061 
L 166.282282 250.167273 
L 166.607261 252.138506 
L 167.257221 247.808829 
L 167.5822 249.262045 
L 167.90718 251.532224 
L 168.557139 246.902675 
L 168.882118 248.275629 
L 169.207098 250.904441 
L 169.857057 245.966838 
L 170.182036 247.3425 
L 170.507016 250.179667 
L 171.156975 245.051407 
L 171.481954 246.311356 
L 171.806934 249.542117 
L 172.456893 244.024732 
L 172.781872 245.272656 
L 173.106852 248.887484 
L 173.756811 243.101622 
L 174.081791 244.290195 
L 174.40677 248.288618 
L 175.056729 242.023671 
L 175.381709 243.090169 
L 175.706688 247.551552 
L 176.356647 241.051092 
L 176.681627 242.044371 
L 177.006606 246.931274 
L 177.656565 240.020011 
L 177.981545 240.864914 
L 178.306524 246.213383 
L 178.956483 238.905539 
L 179.281463 239.654362 
L 179.606442 245.488514 
L 180.256402 237.898059 
L 180.581381 238.428893 
L 180.906361 244.793259 
L 181.55632 236.821441 
L 181.881299 237.276856 
L 182.206279 244.097995 
L 182.856238 235.877074 
L 183.181217 236.061649 
L 183.506197 243.30083 
L 184.156156 234.666799 
L 184.481135 234.785128 
L 184.806115 242.50624 
L 185.456074 233.60179 
L 185.781053 233.959966 
L 186.106033 241.851503 
L 186.755992 232.758851 
L 187.080972 232.008437 
L 187.405951 241.087871 
L 188.05591 231.109144 
L 188.38089 230.740476 
L 188.705869 240.207251 
L 189.355828 230.157726 
L 189.680808 229.998015 
L 190.005787 240.079339 
L 190.655746 228.914942 
L 190.980726 227.638547 
L 191.305705 238.660297 
L 191.955664 227.526698 
L 192.280644 226.533339 
L 192.605623 237.84771 
L 193.255583 226.587229 
L 193.580562 225.786157 
L 193.905542 237.738482 
L 194.555501 225.321209 
L 194.88048 223.350271 
L 195.20546 236.259488 
L 195.855419 224.042117 
L 196.180398 222.299034 
L 196.505378 235.323373 
L 197.155337 222.993372 
L 197.480316 221.478306 
L 197.805296 235.200776 
L 198.455255 221.726754 
L 198.780234 218.929255 
L 199.105214 233.671679 
L 199.755173 220.380081 
L 200.080153 217.846072 
L 200.405132 232.847607 
L 201.055091 219.235167 
L 201.380071 216.943404 
L 201.70505 232.707642 
L 202.355009 217.963546 
L 202.679989 214.296317 
L 203.004968 231.126242 
L 203.654927 216.555287 
L 203.979907 213.160767 
L 204.304886 230.262579 
L 204.954845 216.312651 
L 205.279825 211.24612 
L 205.604804 229.657205 
L 206.254764 213.791677 
L 206.579743 209.233708 
L 206.904723 228.374333 
L 207.554682 212.505306 
L 207.879661 208.185154 
L 208.204641 227.536465 
L 208.52962 218.50083 
L 209.179579 206.554935 
L 209.504559 227.266413 
L 210.154518 210.975693 
L 210.479497 205.128096 
L 210.804477 226.630361 
L 211.454436 208.632273 
L 211.779415 203.21207 
L 212.104395 223.85796 
L 212.429374 213.641521 
L 213.079334 200.218238 
L 213.404313 223.145695 
L 214.054272 205.043345 
L 214.379252 198.521268 
L 214.704231 222.392683 
L 215.35419 204.639859 
L 215.67917 198.120327 
L 216.004149 222.229273 
L 216.979088 196.417315 
L 217.304067 222.171485 
L 218.279006 193.958717 
L 218.603985 218.99433 
L 219.253945 198.9357 
L 219.578924 191.703961 
L 219.903904 217.988068 
L 220.878842 189.573245 
L 221.203822 217.75988 
L 221.853781 197.86307 
L 222.17876 188.622336 
L 222.50374 217.370004 
L 223.153699 197.629332 
L 223.478678 188.40448 
L 223.803658 217.27612 
L 224.453617 196.017455 
L 224.778596 189.551219 
L 225.103576 215.448648 
L 225.753535 196.391729 
L 226.078515 191.374181 
L 226.403494 215.836537 
L 227.053453 196.745678 
L 227.378433 191.99979 
L 227.703412 217.927842 
L 228.353371 201.653331 
L 228.678351 197.387498 
L 229.00333 219.510132 
L 229.653289 202.82502 
L 229.978269 198.988752 
L 230.303248 222.095316 
L 230.953207 208.804965 
L 231.278187 205.73267 
L 231.603166 229.43012 
L 231.928146 223.508383 
L 232.578105 214.611651 
L 232.903085 232.502542 
L 233.228064 226.896926 
L 233.553044 243.013902 
L 233.878023 251.541324 
L 234.203003 256.031124 
L 234.527982 258.436016 
L 234.852962 259.69789 
L 235.177941 260.366786 
L 235.502921 260.720106 
L 236.15288 261.009611 
L 237.452798 261.116367 
L 245.902266 261.126349 
L 384.668523 261.126349 
L 384.668523 261.126349 
" clip-path="url(#p8dd44861d1)" style="fill: none; stroke-dasharray: 0.64,0.16,0.1,0.16; stroke-dashoffset: 0; stroke: #ff4500; stroke-width: 0.1"/>
   </g>
   <g id="patch_9">
    <path d="M 43.78125 273.312 
L 43.78125 140.256 
" style="fill: none; stroke: #000000; stroke-width: 0.8; stroke-linejoin: miter; stroke-linecap: square"/>
   </g>
   <g id="patch_10">
    <path d="M 400.90125 273.312 
L 400.90125 140.256 
" style="fill: none; stroke: #000000; stroke-width: 0.8; stroke-linejoin: miter; stroke-linecap: square"/>
   </g>
   <g id="patch_11">
    <path d="M 43.78125 273.312 
L 400.90125 273.312 
" style="fill: none; stroke: #000000; stroke-width: 0.8; stroke-linejoin: miter; stroke-linecap: square"/>
   </g>
   <g id="patch_12">
    <path d="M 43.78125 140.256 
L 400.90125 140.256 
" style="fill: none; stroke: #000000; stroke-width: 0.8; stroke-linejoin: miter; stroke-linecap: square"/>
   </g>
   <g id="legend_2">
    <g id="patch_13">
     <path d="M 249.902812 192.290375 
L 393.90125 192.290375 
Q 395.90125 192.290375 395.90125 190.290375 
L 395.90125 147.256 
Q 395.90125 145.256 393.90125 145.256 
L 249.902812 145.256 
Q 247.902812 145.256 247.902812 147.256 
L 247.902812 190.290375 
Q 247.902812 192.290375 249.902812 192.290375 
z
" style="fill: #ffffff; opacity: 0.8; stroke: #cccccc; stroke-linejoin: miter"/>
    </g>
    <g id="line2d_33">
     <path d="M 251.902812 153.354437 
L 261.902812 153.354437 
L 271.902812 153.354437 
" style="fill: none; stroke: #ff4500; stroke-linecap: square"/>
    </g>
    <g id="text_23">
     <text style="font: 10px 'DejaVu Sans', 'Bitstream Vera Sans', 'Computer Modern Sans Serif', 'Lucida Grande', 'Verdana', 'Geneva', 'Lucid', 'Arial', 'Helvetica', 'Avant Garde', sans-serif; text-anchor: start" x="279.902812" y="156.854437" transform="rotate(-0 279.902812 156.854437)">Target response DB1</text>
    </g>
    <g id="line2d_34">
     <path d="M 251.902812 168.032562 
L 261.902812 168.032562 
L 271.902812 168.032562 
" style="fill: none; stroke-dasharray: 3.7,1.6; stroke-dashoffset: 0; stroke: #ff4500"/>
    </g>
    <g id="text_24">
     <text style="font: 10px 'DejaVu Sans', 'Bitstream Vera Sans', 'Computer Modern Sans Serif', 'Lucida Grande', 'Verdana', 'Geneva', 'Lucid', 'Arial', 'Helvetica', 'Avant Garde', sans-serif; text-anchor: start" x="279.902812" y="171.532562" transform="rotate(-0 279.902812 171.532562)">Digital prediction DB1</text>
    </g>
    <g id="line2d_35">
     <path d="M 251.902812 182.710687 
L 261.902812 182.710687 
L 271.902812 182.710687 
" style="fill: none; stroke-dasharray: 0.64,0.16,0.1,0.16; stroke-dashoffset: 0; stroke: #ff4500; stroke-width: 0.1"/>
    </g>
    <g id="text_25">
     <text style="font: 10px 'DejaVu Sans', 'Bitstream Vera Sans', 'Computer Modern Sans Serif', 'Lucida Grande', 'Verdana', 'Geneva', 'Lucid', 'Arial', 'Helvetica', 'Avant Garde', sans-serif; text-anchor: start" x="279.902812" y="186.210687" transform="rotate(-0 279.902812 186.210687)">Analog prediction DB1</text>
    </g>
   </g>
  </g>
 </g>
 <defs>
  <clipPath id="pfc75303bae">
   <rect x="43.78125" y="7.2" width="357.12" height="133.056"/>
  </clipPath>
  <clipPath id="p8dd44861d1">
   <rect x="43.78125" y="140.256" width="357.12" height="133.056"/>
  </clipPath>
 </defs>
</svg>
