<?xml version="1.0" encoding="utf-8" standalone="no"?>
<!DOCTYPE svg PUBLIC "-//W3C//DTD SVG 1.1//EN"
  "http://www.w3.org/Graphics/SVG/1.1/DTD/svg11.dtd">
<svg xmlns:xlink="http://www.w3.org/1999/xlink" width="394.423125pt" height="297.190125pt" viewBox="0 0 394.423125 297.190125" xmlns="http://www.w3.org/2000/svg" version="1.1">
 <metadata>
  <rdf:RDF xmlns:dc="http://purl.org/dc/elements/1.1/" xmlns:cc="http://creativecommons.org/ns#" xmlns:rdf="http://www.w3.org/1999/02/22-rdf-syntax-ns#">
   <cc:Work>
    <dc:type rdf:resource="http://purl.org/dc/dcmitype/StillImage"/>
    <dc:date>2023-10-24T18:22:56.175870</dc:date>
    <dc:format>image/svg+xml</dc:format>
    <dc:creator>
     <cc:Agent>
      <dc:title>Matplotlib v3.8.0, https://matplotlib.org/</dc:title>
     </cc:Agent>
    </dc:creator>
   </cc:Work>
  </rdf:RDF>
 </metadata>
 <defs>
  <style type="text/css">*{stroke-linejoin: round; stroke-linecap: butt}</style>
 </defs>
 <g id="figure_1">
  <g id="patch_1">
   <path d="M 0 297.190125 
L 394.423125 297.190125 
L 394.423125 0 
L 0 0 
z
" style="fill: #ffffff"/>
  </g>
  <g id="axes_1">
   <g id="patch_2">
    <path d="M 30.103125 140.256 
L 387.223125 140.256 
L 387.223125 7.2 
L 30.103125 7.2 
z
" style="fill: #ffffff"/>
   </g>
   <g id="matplotlib.axis_1">
    <g id="xtick_1">
     <g id="line2d_1">
      <defs>
       <path id="mae9523e4e6" d="M 0 0 
L 0 3.5 
" style="stroke: #000000; stroke-width: 0.8"/>
      </defs>
      <g>
       <use xlink:href="#mae9523e4e6" x="46.335852" y="140.256" style="stroke: #000000; stroke-width: 0.8"/>
      </g>
     </g>
    </g>
    <g id="xtick_2">
     <g id="line2d_2">
      <g>
       <use xlink:href="#mae9523e4e6" x="111.331757" y="140.256" style="stroke: #000000; stroke-width: 0.8"/>
      </g>
     </g>
    </g>
    <g id="xtick_3">
     <g id="line2d_3">
      <g>
       <use xlink:href="#mae9523e4e6" x="176.327662" y="140.256" style="stroke: #000000; stroke-width: 0.8"/>
      </g>
     </g>
    </g>
    <g id="xtick_4">
     <g id="line2d_4">
      <g>
       <use xlink:href="#mae9523e4e6" x="241.323567" y="140.256" style="stroke: #000000; stroke-width: 0.8"/>
      </g>
     </g>
    </g>
    <g id="xtick_5">
     <g id="line2d_5">
      <g>
       <use xlink:href="#mae9523e4e6" x="306.319472" y="140.256" style="stroke: #000000; stroke-width: 0.8"/>
      </g>
     </g>
    </g>
    <g id="xtick_6">
     <g id="line2d_6">
      <g>
       <use xlink:href="#mae9523e4e6" x="371.315377" y="140.256" style="stroke: #000000; stroke-width: 0.8"/>
      </g>
     </g>
    </g>
   </g>
   <g id="matplotlib.axis_2">
    <g id="ytick_1">
     <g id="line2d_7">
      <defs>
       <path id="m68f28d5746" d="M 0 0 
L -3.5 0 
" style="stroke: #000000; stroke-width: 0.8"/>
      </defs>
      <g>
       <use xlink:href="#m68f28d5746" x="30.103125" y="134.208" style="stroke: #000000; stroke-width: 0.8"/>
      </g>
     </g>
     <g id="text_1">
      <text style="font: 10px 'DejaVu Sans', 'Bitstream Vera Sans', 'Computer Modern Sans Serif', 'Lucida Grande', 'Verdana', 'Geneva', 'Lucid', 'Arial', 'Helvetica', 'Avant Garde', sans-serif; text-anchor: end" x="23.103125" y="138.007219" transform="rotate(-0 23.103125 138.007219)">0.0</text>
     </g>
    </g>
    <g id="ytick_2">
     <g id="line2d_8">
      <g>
       <use xlink:href="#m68f28d5746" x="30.103125" y="107.912348" style="stroke: #000000; stroke-width: 0.8"/>
      </g>
     </g>
     <g id="text_2">
      <text style="font: 10px 'DejaVu Sans', 'Bitstream Vera Sans', 'Computer Modern Sans Serif', 'Lucida Grande', 'Verdana', 'Geneva', 'Lucid', 'Arial', 'Helvetica', 'Avant Garde', sans-serif; text-anchor: end" x="23.103125" y="111.711567" transform="rotate(-0 23.103125 111.711567)">0.5</text>
     </g>
    </g>
    <g id="ytick_3">
     <g id="line2d_9">
      <g>
       <use xlink:href="#m68f28d5746" x="30.103125" y="81.616696" style="stroke: #000000; stroke-width: 0.8"/>
      </g>
     </g>
     <g id="text_3">
      <text style="font: 10px 'DejaVu Sans', 'Bitstream Vera Sans', 'Computer Modern Sans Serif', 'Lucida Grande', 'Verdana', 'Geneva', 'Lucid', 'Arial', 'Helvetica', 'Avant Garde', sans-serif; text-anchor: end" x="23.103125" y="85.415914" transform="rotate(-0 23.103125 85.415914)">1.0</text>
     </g>
    </g>
    <g id="ytick_4">
     <g id="line2d_10">
      <g>
       <use xlink:href="#m68f28d5746" x="30.103125" y="55.321043" style="stroke: #000000; stroke-width: 0.8"/>
      </g>
     </g>
     <g id="text_4">
      <text style="font: 10px 'DejaVu Sans', 'Bitstream Vera Sans', 'Computer Modern Sans Serif', 'Lucida Grande', 'Verdana', 'Geneva', 'Lucid', 'Arial', 'Helvetica', 'Avant Garde', sans-serif; text-anchor: end" x="23.103125" y="59.120262" transform="rotate(-0 23.103125 59.120262)">1.5</text>
     </g>
    </g>
    <g id="ytick_5">
     <g id="line2d_11">
      <g>
       <use xlink:href="#m68f28d5746" x="30.103125" y="29.025391" style="stroke: #000000; stroke-width: 0.8"/>
      </g>
     </g>
     <g id="text_5">
      <text style="font: 10px 'DejaVu Sans', 'Bitstream Vera Sans', 'Computer Modern Sans Serif', 'Lucida Grande', 'Verdana', 'Geneva', 'Lucid', 'Arial', 'Helvetica', 'Avant Garde', sans-serif; text-anchor: end" x="23.103125" y="32.82461" transform="rotate(-0 23.103125 32.82461)">2.0</text>
     </g>
    </g>
   </g>
   <g id="line2d_12">
    <path d="M 46.335852 134.208 
L 111.006778 134.208 
L 111.331757 60.580174 
L 124.005959 60.580174 
L 124.330938 134.208 
L 370.990398 134.208 
L 370.990398 134.208 
" clip-path="url(#pe50655035b)" style="fill: none; stroke: #ff4500; stroke-width: 1.5; stroke-linecap: square"/>
   </g>
   <g id="line2d_13">
    <path d="M 46.335852 134.208 
L 111.006778 134.208 
L 111.331757 60.580174 
L 240.998588 60.580174 
L 241.323567 134.208 
L 370.990398 134.208 
L 370.990398 134.208 
" clip-path="url(#pe50655035b)" style="fill: none; stroke-dasharray: 5.55,2.4; stroke-dashoffset: 0; stroke: #c71585; stroke-width: 1.5"/>
   </g>
   <g id="line2d_14">
    <path d="M 46.335852 134.208 
L 111.006778 134.208 
L 111.331757 13.248 
L 143.50473 13.248 
L 143.82971 134.208 
L 176.002683 134.208 
L 176.327662 13.248 
L 208.500635 13.248 
L 208.825615 134.208 
L 240.998588 134.208 
L 241.323567 13.248 
L 273.49654 13.248 
L 273.82152 134.208 
L 370.990398 134.208 
L 370.990398 134.208 
" clip-path="url(#pe50655035b)" style="fill: none; stroke-dasharray: 9.6,2.4,1.5,2.4; stroke-dashoffset: 0; stroke: #4682b4; stroke-width: 1.5"/>
   </g>
   <g id="line2d_15">
    <path d="M 46.335852 134.208 
L 111.331757 134.183808 
L 143.82971 13.248 
L 176.327662 134.183808 
L 208.825615 13.248 
L 241.323567 134.183808 
L 273.82152 13.248 
L 306.319472 134.208 
L 370.990398 134.208 
L 370.990398 134.208 
" clip-path="url(#pe50655035b)" style="fill: none; stroke-dasharray: 2.5,4.125; stroke-dashoffset: 0; stroke: #6b8e23; stroke-width: 2.5"/>
   </g>
   <g id="patch_3">
    <path d="M 30.103125 140.256 
L 30.103125 7.2 
" style="fill: none; stroke: #000000; stroke-width: 0.8; stroke-linejoin: miter; stroke-linecap: square"/>
   </g>
   <g id="patch_4">
    <path d="M 387.223125 140.256 
L 387.223125 7.2 
" style="fill: none; stroke: #000000; stroke-width: 0.8; stroke-linejoin: miter; stroke-linecap: square"/>
   </g>
   <g id="patch_5">
    <path d="M 30.103125 140.256 
L 387.223125 140.256 
" style="fill: none; stroke: #000000; stroke-width: 0.8; stroke-linejoin: miter; stroke-linecap: square"/>
   </g>
   <g id="patch_6">
    <path d="M 30.103125 7.2 
L 387.223125 7.2 
" style="fill: none; stroke: #000000; stroke-width: 0.8; stroke-linejoin: miter; stroke-linecap: square"/>
   </g>
   <g id="legend_1">
    <g id="patch_7">
     <path d="M 316.059062 73.9125 
L 380.223125 73.9125 
Q 382.223125 73.9125 382.223125 71.9125 
L 382.223125 14.2 
Q 382.223125 12.2 380.223125 12.2 
L 316.059062 12.2 
Q 314.059062 12.2 314.059062 14.2 
L 314.059062 71.9125 
Q 314.059062 73.9125 316.059062 73.9125 
z
" style="fill: #ffffff; opacity: 0.8; stroke: #cccccc; stroke-linejoin: miter"/>
    </g>
    <g id="line2d_16">
     <path d="M 318.059062 20.298437 
L 328.059062 20.298437 
L 338.059062 20.298437 
" style="fill: none; stroke: #ff4500; stroke-width: 1.5; stroke-linecap: square"/>
    </g>
    <g id="text_6">
     <text style="font: 10px 'DejaVu Sans', 'Bitstream Vera Sans', 'Computer Modern Sans Serif', 'Lucida Grande', 'Verdana', 'Geneva', 'Lucid', 'Arial', 'Helvetica', 'Avant Garde', sans-serif; text-anchor: start" x="346.059062" y="23.798437" transform="rotate(-0 346.059062 23.798437)">PLML2</text>
    </g>
    <g id="line2d_17">
     <path d="M 318.059062 34.976562 
L 328.059062 34.976562 
L 338.059062 34.976562 
" style="fill: none; stroke-dasharray: 5.55,2.4; stroke-dashoffset: 0; stroke: #c71585; stroke-width: 1.5"/>
    </g>
    <g id="text_7">
     <text style="font: 10px 'DejaVu Sans', 'Bitstream Vera Sans', 'Computer Modern Sans Serif', 'Lucida Grande', 'Verdana', 'Geneva', 'Lucid', 'Arial', 'Helvetica', 'Avant Garde', sans-serif; text-anchor: start" x="346.059062" y="38.476562" transform="rotate(-0 346.059062 38.476562)">PLMR</text>
    </g>
    <g id="line2d_18">
     <path d="M 318.059062 49.654687 
L 328.059062 49.654687 
L 338.059062 49.654687 
" style="fill: none; stroke-dasharray: 9.6,2.4,1.5,2.4; stroke-dashoffset: 0; stroke: #4682b4; stroke-width: 1.5"/>
    </g>
    <g id="text_8">
     <text style="font: 10px 'DejaVu Sans', 'Bitstream Vera Sans', 'Computer Modern Sans Serif', 'Lucida Grande', 'Verdana', 'Geneva', 'Lucid', 'Arial', 'Helvetica', 'Avant Garde', sans-serif; text-anchor: start" x="346.059062" y="53.154687" transform="rotate(-0 346.059062 53.154687)">AVBL</text>
    </g>
    <g id="line2d_19">
     <path d="M 318.059062 64.332812 
L 328.059062 64.332812 
L 338.059062 64.332812 
" style="fill: none; stroke-dasharray: 2.5,4.125; stroke-dashoffset: 0; stroke: #6b8e23; stroke-width: 2.5"/>
    </g>
    <g id="text_9">
     <text style="font: 10px 'DejaVu Sans', 'Bitstream Vera Sans', 'Computer Modern Sans Serif', 'Lucida Grande', 'Verdana', 'Geneva', 'Lucid', 'Arial', 'Helvetica', 'Avant Garde', sans-serif; text-anchor: start" x="346.059062" y="67.832812" transform="rotate(-0 346.059062 67.832812)">AVBR</text>
    </g>
   </g>
  </g>
  <g id="axes_2">
   <g id="patch_8">
    <path d="M 30.103125 273.312 
L 387.223125 273.312 
L 387.223125 140.256 
L 30.103125 140.256 
z
" style="fill: #ffffff"/>
   </g>
   <g id="matplotlib.axis_3">
    <g id="xtick_7">
     <g id="line2d_20">
      <g>
       <use xlink:href="#mae9523e4e6" x="46.335852" y="273.312" style="stroke: #000000; stroke-width: 0.8"/>
      </g>
     </g>
     <g id="text_10">
      <text style="font: 10px 'DejaVu Sans', 'Bitstream Vera Sans', 'Computer Modern Sans Serif', 'Lucida Grande', 'Verdana', 'Geneva', 'Lucid', 'Arial', 'Helvetica', 'Avant Garde', sans-serif; text-anchor: middle" x="46.335852" y="287.910437" transform="rotate(-0 46.335852 287.910437)">0</text>
     </g>
    </g>
    <g id="xtick_8">
     <g id="line2d_21">
      <g>
       <use xlink:href="#mae9523e4e6" x="111.331757" y="273.312" style="stroke: #000000; stroke-width: 0.8"/>
      </g>
     </g>
     <g id="text_11">
      <text style="font: 10px 'DejaVu Sans', 'Bitstream Vera Sans', 'Computer Modern Sans Serif', 'Lucida Grande', 'Verdana', 'Geneva', 'Lucid', 'Arial', 'Helvetica', 'Avant Garde', sans-serif; text-anchor: middle" x="111.331757" y="287.910437" transform="rotate(-0 111.331757 287.910437)">100</text>
     </g>
    </g>
    <g id="xtick_9">
     <g id="line2d_22">
      <g>
       <use xlink:href="#mae9523e4e6" x="176.327662" y="273.312" style="stroke: #000000; stroke-width: 0.8"/>
      </g>
     </g>
     <g id="text_12">
      <text style="font: 10px 'DejaVu Sans', 'Bitstream Vera Sans', 'Computer Modern Sans Serif', 'Lucida Grande', 'Verdana', 'Geneva', 'Lucid', 'Arial', 'Helvetica', 'Avant Garde', sans-serif; text-anchor: middle" x="176.327662" y="287.910437" transform="rotate(-0 176.327662 287.910437)">200</text>
     </g>
    </g>
    <g id="xtick_10">
     <g id="line2d_23">
      <g>
       <use xlink:href="#mae9523e4e6" x="241.323567" y="273.312" style="stroke: #000000; stroke-width: 0.8"/>
      </g>
     </g>
     <g id="text_13">
      <text style="font: 10px 'DejaVu Sans', 'Bitstream Vera Sans', 'Computer Modern Sans Serif', 'Lucida Grande', 'Verdana', 'Geneva', 'Lucid', 'Arial', 'Helvetica', 'Avant Garde', sans-serif; text-anchor: middle" x="241.323567" y="287.910437" transform="rotate(-0 241.323567 287.910437)">300</text>
     </g>
    </g>
    <g id="xtick_11">
     <g id="line2d_24">
      <g>
       <use xlink:href="#mae9523e4e6" x="306.319472" y="273.312" style="stroke: #000000; stroke-width: 0.8"/>
      </g>
     </g>
     <g id="text_14">
      <text style="font: 10px 'DejaVu Sans', 'Bitstream Vera Sans', 'Computer Modern Sans Serif', 'Lucida Grande', 'Verdana', 'Geneva', 'Lucid', 'Arial', 'Helvetica', 'Avant Garde', sans-serif; text-anchor: middle" x="306.319472" y="287.910437" transform="rotate(-0 306.319472 287.910437)">400</text>
     </g>
    </g>
    <g id="xtick_12">
     <g id="line2d_25">
      <g>
       <use xlink:href="#mae9523e4e6" x="371.315377" y="273.312" style="stroke: #000000; stroke-width: 0.8"/>
      </g>
     </g>
     <g id="text_15">
      <text style="font: 10px 'DejaVu Sans', 'Bitstream Vera Sans', 'Computer Modern Sans Serif', 'Lucida Grande', 'Verdana', 'Geneva', 'Lucid', 'Arial', 'Helvetica', 'Avant Garde', sans-serif; text-anchor: middle" x="371.315377" y="287.910437" transform="rotate(-0 371.315377 287.910437)">500</text>
     </g>
    </g>
   </g>
   <g id="matplotlib.axis_4">
    <g id="ytick_6">
     <g id="line2d_26">
      <g>
       <use xlink:href="#m68f28d5746" x="30.103125" y="259.429208" style="stroke: #000000; stroke-width: 0.8"/>
      </g>
     </g>
     <g id="text_16">
      <text style="font: 10px 'DejaVu Sans', 'Bitstream Vera Sans', 'Computer Modern Sans Serif', 'Lucida Grande', 'Verdana', 'Geneva', 'Lucid', 'Arial', 'Helvetica', 'Avant Garde', sans-serif; text-anchor: end" x="23.103125" y="263.228427" transform="rotate(-0 23.103125 263.228427)">0.0</text>
     </g>
    </g>
    <g id="ytick_7">
     <g id="line2d_27">
      <g>
       <use xlink:href="#m68f28d5746" x="30.103125" y="235.322156" style="stroke: #000000; stroke-width: 0.8"/>
      </g>
     </g>
     <g id="text_17">
      <text style="font: 10px 'DejaVu Sans', 'Bitstream Vera Sans', 'Computer Modern Sans Serif', 'Lucida Grande', 'Verdana', 'Geneva', 'Lucid', 'Arial', 'Helvetica', 'Avant Garde', sans-serif; text-anchor: end" x="23.103125" y="239.121374" transform="rotate(-0 23.103125 239.121374)">0.2</text>
     </g>
    </g>
    <g id="ytick_8">
     <g id="line2d_28">
      <g>
       <use xlink:href="#m68f28d5746" x="30.103125" y="211.215103" style="stroke: #000000; stroke-width: 0.8"/>
      </g>
     </g>
     <g id="text_18">
      <text style="font: 10px 'DejaVu Sans', 'Bitstream Vera Sans', 'Computer Modern Sans Serif', 'Lucida Grande', 'Verdana', 'Geneva', 'Lucid', 'Arial', 'Helvetica', 'Avant Garde', sans-serif; text-anchor: end" x="23.103125" y="215.014322" transform="rotate(-0 23.103125 215.014322)">0.4</text>
     </g>
    </g>
    <g id="ytick_9">
     <g id="line2d_29">
      <g>
       <use xlink:href="#m68f28d5746" x="30.103125" y="187.108051" style="stroke: #000000; stroke-width: 0.8"/>
      </g>
     </g>
     <g id="text_19">
      <text style="font: 10px 'DejaVu Sans', 'Bitstream Vera Sans', 'Computer Modern Sans Serif', 'Lucida Grande', 'Verdana', 'Geneva', 'Lucid', 'Arial', 'Helvetica', 'Avant Garde', sans-serif; text-anchor: end" x="23.103125" y="190.90727" transform="rotate(-0 23.103125 190.90727)">0.6</text>
     </g>
    </g>
    <g id="ytick_10">
     <g id="line2d_30">
      <g>
       <use xlink:href="#m68f28d5746" x="30.103125" y="163.000999" style="stroke: #000000; stroke-width: 0.8"/>
      </g>
     </g>
     <g id="text_20">
      <text style="font: 10px 'DejaVu Sans', 'Bitstream Vera Sans', 'Computer Modern Sans Serif', 'Lucida Grande', 'Verdana', 'Geneva', 'Lucid', 'Arial', 'Helvetica', 'Avant Garde', sans-serif; text-anchor: end" x="23.103125" y="166.800218" transform="rotate(-0 23.103125 166.800218)">0.8</text>
     </g>
    </g>
   </g>
   <g id="line2d_31">
    <path d="M 46.335852 267.264 
L 112.631675 267.184559 
L 114.581553 266.830596 
L 116.53143 266.224064 
L 118.481307 265.363668 
L 120.431184 264.264285 
L 122.381061 262.930634 
L 124.980897 260.814738 
L 127.255754 258.683916 
L 130.505549 255.291223 
L 133.430365 251.801185 
L 136.355181 247.963896 
L 140.254935 242.487157 
L 144.154689 236.588005 
L 148.704403 229.313871 
L 154.229055 220.034632 
L 160.728645 208.632635 
L 164.628399 201.862604 
L 165.278358 201.003007 
L 166.578277 198.558371 
L 170.478031 191.030184 
L 176.327662 180.029594 
L 177.62758 185.191794 
L 188.026925 212.984043 
L 190.626761 219.192778 
L 193.226598 224.849944 
L 195.826434 229.946404 
L 198.10129 233.959107 
L 200.376147 237.577057 
L 202.651004 240.826579 
L 204.92586 243.736337 
L 207.525697 246.683255 
L 210.125533 249.267363 
L 212.725369 251.529157 
L 215.325205 253.50615 
L 218.250021 255.432271 
L 221.174837 257.084648 
L 224.424632 258.645943 
L 227.674427 259.961847 
L 231.249202 261.171955 
L 235.148956 262.257474 
L 239.37369 263.20906 
L 244.248383 264.076856 
L 249.773035 264.830224 
L 256.272625 265.483989 
L 264.072134 266.0334 
L 273.82152 266.481016 
L 286.495721 266.822778 
L 304.369595 267.062764 
L 333.617752 267.205646 
L 370.990398 267.251312 
L 370.990398 267.251312 
" clip-path="url(#p93e3b986e6)" style="fill: none; stroke: #4682b4; stroke-linecap: square"/>
   </g>
   <g id="line2d_32">
    <path d="M 46.335852 261.248532 
L 46.985811 260.331774 
L 47.63577 259.987328 
L 48.610709 259.833904 
L 51.535525 259.793562 
L 111.006778 259.793225 
L 111.331757 250.679216 
L 111.981716 239.784259 
L 113.281634 222.316759 
L 114.581553 208.246325 
L 115.881471 197.362919 
L 117.181389 189.302769 
L 118.156327 184.505948 
L 119.131266 180.813009 
L 120.431184 176.882117 
L 121.406123 174.620562 
L 122.381061 172.95841 
L 123.680979 171.219816 
L 124.005959 170.855575 
L 124.330938 150.549241 
L 124.655918 146.304 
L 124.980897 146.578532 
L 125.305877 148.718715 
L 125.955836 155.669478 
L 127.255754 170.756387 
L 127.905713 176.618289 
L 128.555672 181.050829 
L 129.205631 184.23619 
L 129.85559 186.440165 
L 130.505549 187.870738 
L 131.155508 188.720917 
L 131.805467 189.133577 
L 132.455426 189.220653 
L 133.105385 189.068244 
L 134.080324 188.518977 
L 135.055263 187.697722 
L 136.68016 185.954583 
L 138.305058 183.904698 
L 140.254935 181.076768 
L 142.854771 176.806896 
L 143.50473 175.680372 
L 143.82971 149.265777 
L 144.154689 149.009381 
L 144.804648 153.562648 
L 145.779587 160.740155 
L 146.754525 166.017185 
L 147.729464 169.723606 
L 148.704403 172.476276 
L 150.004321 175.374546 
L 151.629218 178.398541 
L 153.579096 181.548639 
L 155.853952 184.79997 
L 158.453788 188.133558 
L 161.378604 191.480697 
L 163.97844 194.146165 
L 166.578277 196.506603 
L 169.503092 198.847386 
L 173.077867 201.3809 
L 176.002683 203.182243 
L 176.327662 212.189287 
L 176.652642 212.609807 
L 176.977621 212.172332 
L 179.252478 206.637903 
L 180.227417 205.196583 
L 181.202355 204.164188 
L 182.502273 203.119429 
L 184.77713 201.624623 
L 189.326843 198.65888 
L 191.926679 196.628408 
L 194.201536 194.583221 
L 196.801372 191.932644 
L 199.401209 189.017004 
L 202.001045 185.770303 
L 204.275901 182.606681 
L 206.550758 179.005514 
L 208.500635 175.689842 
L 208.825615 149.274576 
L 209.150594 149.016852 
L 209.800553 153.567704 
L 210.775492 160.742915 
L 211.75043 166.018579 
L 212.725369 169.724311 
L 213.700308 172.476619 
L 215.000226 175.374659 
L 216.625123 178.398583 
L 218.575001 181.548651 
L 220.849857 184.79997 
L 223.449693 188.133558 
L 226.374509 191.480697 
L 228.974345 194.146165 
L 231.574182 196.506603 
L 234.498997 198.847386 
L 238.073772 201.3809 
L 240.998588 203.182243 
L 241.323567 227.484143 
L 241.648547 237.911626 
L 241.973526 243.745478 
L 242.298506 247.147242 
L 242.623485 249.171261 
L 242.948465 250.390877 
L 243.273444 251.128025 
L 243.923403 251.827034 
L 244.573363 252.032888 
L 245.548301 251.994738 
L 247.498178 251.565232 
L 251.397933 250.4156 
L 255.622666 248.961764 
L 259.8474 247.262779 
L 263.747154 245.458725 
L 267.321929 243.58242 
L 270.896704 241.44193 
L 273.49654 239.714212 
L 273.82152 233.891383 
L 274.471479 240.075494 
L 275.121438 243.955171 
L 275.771397 246.207438 
L 276.421356 247.527708 
L 277.071315 248.356025 
L 278.046254 249.172993 
L 279.671151 250.145301 
L 282.920946 251.764953 
L 287.14568 253.624746 
L 291.695394 255.387329 
L 296.570087 257.031946 
L 301.769759 258.54804 
L 306.319472 259.702864 
L 307.61939 259.785667 
L 318.668694 259.793225 
L 370.990398 259.793225 
L 370.990398 259.793225 
" clip-path="url(#p93e3b986e6)" style="fill: none; stroke-dasharray: 3.7,1.6; stroke-dashoffset: 0; stroke: #4682b4"/>
   </g>
   <g id="line2d_33">
    <path d="M 46.335852 258.871642 
L 46.660832 257.520716 
L 46.985811 256.834389 
L 47.310791 256.485296 
L 47.96075 256.219411 
L 49.260668 256.132052 
L 61.28491 256.12565 
L 132.455426 256.12565 
L 132.780406 240.345436 
L 133.105385 246.313434 
L 133.755344 225.746536 
L 134.080324 219.159639 
L 134.405304 235.300806 
L 135.055263 219.62683 
L 135.380242 214.282879 
L 135.705222 233.018085 
L 136.355181 217.735159 
L 136.68016 212.460699 
L 137.00514 232.307831 
L 137.655099 216.525722 
L 137.980078 211.124018 
L 138.305058 231.882986 
L 138.955017 215.407683 
L 139.279996 209.829057 
L 139.604976 231.502125 
L 140.254935 214.261357 
L 140.579915 208.597995 
L 140.904894 231.142152 
L 141.554853 213.12441 
L 141.879833 207.285474 
L 142.204812 230.764922 
L 142.854771 211.946399 
L 143.179751 205.919495 
L 143.50473 230.382552 
L 144.154689 210.769633 
L 144.479669 204.560834 
L 144.804648 229.997958 
L 145.454607 209.603974 
L 145.779587 203.222191 
L 146.104566 229.616135 
L 146.754525 208.408109 
L 147.079505 201.837404 
L 147.404485 229.226774 
L 148.054444 207.187952 
L 148.379423 200.425725 
L 148.704403 228.829839 
L 149.354362 206.045892 
L 149.679341 199.047857 
L 150.004321 228.453715 
L 150.3293 215.154216 
L 150.65428 208.726276 
L 150.979259 204.617019 
L 151.304239 234.398063 
L 151.629218 217.8868 
L 151.954198 210.192674 
L 152.279177 205.516085 
L 152.604157 235.125518 
L 152.929136 217.252967 
L 153.254116 209.018217 
L 153.579096 203.950942 
L 153.904075 234.731065 
L 154.229055 216.845498 
L 154.554034 207.789551 
L 154.879014 202.336501 
L 155.203993 234.270906 
L 155.528973 215.505044 
L 155.853952 207.096573 
L 156.178932 201.906353 
L 156.503911 234.127256 
L 156.828891 214.446234 
L 157.15387 205.588476 
L 157.47885 200.083863 
L 157.803829 233.609935 
L 158.128809 213.962697 
L 158.453788 204.278012 
L 158.778768 198.384268 
L 159.103747 233.118858 
L 159.428727 212.588119 
L 159.753706 203.558141 
L 160.078686 197.93656 
L 160.403666 232.967492 
L 160.728645 211.51417 
L 161.053625 202.018525 
L 161.378604 196.080626 
L 161.703584 232.441028 
L 162.028563 211.003698 
L 162.353543 200.683644 
L 162.678522 194.347942 
L 163.003502 231.960675 
L 163.328481 209.602733 
L 163.97844 192.803116 
L 164.30342 231.553828 
L 164.628399 208.260013 
L 164.953379 198.231758 
L 165.278358 191.899998 
L 165.603338 231.253496 
L 165.928317 207.970159 
L 166.253297 197.011715 
L 166.578277 190.227916 
L 166.903256 230.80421 
L 167.228236 206.569836 
L 167.878195 188.653683 
L 168.203174 230.399184 
L 168.528154 205.21916 
L 168.853133 194.530052 
L 169.178113 187.737642 
L 169.503092 230.098141 
L 169.828072 203.941027 
L 170.153051 192.832884 
L 170.478031 185.741311 
L 170.80301 229.560776 
L 171.12799 203.400098 
L 171.777949 184.408432 
L 172.102928 229.24316 
L 172.427908 202.106497 
L 172.752887 190.771091 
L 173.077867 183.508756 
L 173.402847 228.954828 
L 173.727826 200.821612 
L 174.052806 189.04827 
L 174.377785 181.482123 
L 174.702765 228.414416 
L 175.027744 200.273127 
L 175.352724 187.60509 
L 175.677703 179.629042 
L 176.002683 227.938369 
L 176.327662 208.9321 
L 176.652642 200.64428 
L 176.977621 195.816241 
L 177.302601 229.896338 
L 177.62758 210.302299 
L 177.95256 201.905447 
L 178.277539 197.146497 
L 178.602519 230.270472 
L 178.927498 210.391156 
L 179.252478 202.895644 
L 179.577458 198.563092 
L 179.902437 230.733866 
L 180.227417 211.640883 
L 180.552396 203.43344 
L 180.877376 199.888896 
L 181.202355 231.18622 
L 181.527335 212.900612 
L 181.852314 205.023753 
L 182.177294 200.620387 
L 182.502273 231.479761 
L 182.827253 213.091269 
L 183.152232 206.146741 
L 183.477212 202.152149 
L 183.802191 232.031541 
L 184.127171 214.409588 
L 184.45215 206.745613 
L 184.77713 203.518987 
L 185.102109 232.513272 
L 185.427089 215.673996 
L 185.752068 208.325927 
L 186.077048 204.247654 
L 186.402028 232.831741 
L 186.727007 216.816141 
L 187.051987 209.839239 
L 187.376966 205.975493 
L 187.701946 233.457334 
L 188.026925 217.217286 
L 188.351905 210.052342 
L 188.676884 207.109514 
L 189.001864 233.855682 
L 189.326843 218.399786 
L 189.651823 211.58019 
L 189.976802 207.807317 
L 190.301782 234.164044 
L 190.626761 219.514617 
L 190.951741 213.062312 
L 191.27672 209.496833 
L 191.6017 234.811293 
L 191.926679 219.91969 
L 192.251659 214.244332 
L 192.576639 211.0175 
L 192.901618 235.390046 
L 193.226598 221.191904 
L 193.551577 214.827253 
L 193.876557 211.321404 
L 194.201536 235.511268 
L 194.526516 222.178621 
L 194.851495 216.223376 
L 195.176475 212.947608 
L 195.501454 236.146798 
L 195.826434 222.559631 
L 196.151413 217.372022 
L 196.476393 214.436944 
L 196.801372 236.728883 
L 197.126352 223.812514 
L 197.451331 217.94688 
L 197.776311 215.698348 
L 198.10129 237.213636 
L 198.42627 224.982423 
L 198.751249 219.418648 
L 199.076229 216.37219 
L 199.401209 237.521207 
L 199.726188 225.16339 
L 200.051168 220.433297 
L 200.376147 217.771527 
L 200.701127 238.075356 
L 201.026106 226.454079 
L 201.351086 221.302788 
L 201.676065 218.77674 
L 202.001045 238.478629 
L 202.326024 227.289069 
L 202.651004 222.328145 
L 202.975983 219.883581 
L 203.300963 238.948796 
L 203.625942 228.15882 
L 203.950922 223.365478 
L 204.275901 220.926452 
L 204.600881 239.373457 
L 204.92586 229.003734 
L 205.25084 224.382641 
L 205.57582 222.024333 
L 205.900799 239.843805 
L 206.225779 229.859069 
L 206.550758 225.399621 
L 206.875738 223.136392 
L 207.200717 240.302026 
L 207.525697 230.709544 
L 207.850676 226.405617 
L 208.175656 224.238712 
L 208.500635 240.771007 
L 208.825615 231.555407 
L 209.150594 227.406111 
L 209.475574 225.320295 
L 209.800553 241.242782 
L 210.125533 232.310702 
L 210.450512 228.359506 
L 210.775492 226.376377 
L 211.100471 241.691757 
L 211.425451 233.133374 
L 211.75043 229.326419 
L 212.07541 227.436963 
L 212.40039 242.153757 
L 212.725369 233.952933 
L 213.050349 230.29645 
L 213.375328 228.49594 
L 213.700308 242.616159 
L 214.025287 234.76616 
L 214.350267 231.175239 
L 214.675246 229.495276 
L 215.000226 243.056435 
L 215.325205 235.559761 
L 215.650185 232.121256 
L 215.975164 230.52906 
L 216.300144 243.516285 
L 216.625123 236.357028 
L 216.950103 233.063181 
L 217.275082 231.532263 
L 217.600062 243.973291 
L 217.925041 237.129717 
L 218.250021 233.995669 
L 218.575001 232.491206 
L 218.89998 244.408694 
L 219.22496 237.891073 
L 219.549939 227.856887 
L 219.874919 223.416984 
L 220.199898 241.049934 
L 220.524878 230.551858 
L 220.849857 225.164351 
L 221.174837 221.876802 
L 221.499816 240.321138 
L 221.824796 229.902799 
L 222.149775 224.421408 
L 222.474755 221.057512 
L 222.799734 240.100334 
L 223.124714 229.308179 
L 223.449693 223.576664 
L 223.774673 220.040751 
L 224.099652 239.776778 
L 224.424632 228.50861 
L 224.749611 222.549077 
L 225.074591 218.872331 
L 225.399571 239.401668 
L 225.72455 227.628164 
L 226.04953 221.469573 
L 226.374509 217.660856 
L 226.699489 239.011917 
L 227.024468 226.715824 
L 227.349448 220.458886 
L 227.674427 216.483047 
L 227.999407 238.633888 
L 228.324386 225.819742 
L 228.649366 219.351628 
L 228.974345 215.228269 
L 229.299325 238.235347 
L 229.624304 224.899464 
L 229.949284 218.230364 
L 230.274263 213.97536 
L 230.599243 237.836877 
L 230.924222 223.950002 
L 231.249202 217.094349 
L 231.574182 212.803752 
L 231.899161 237.463358 
L 232.224141 223.038282 
L 232.54912 215.963288 
L 232.8741 211.526982 
L 233.199079 237.064054 
L 233.524059 222.096845 
L 233.849038 214.808511 
L 234.174018 210.230896 
L 234.498997 236.663024 
L 234.823977 221.125909 
L 235.148956 213.643385 
L 235.473936 208.929089 
L 235.798915 236.259376 
L 236.123895 220.243425 
L 236.448874 212.509596 
L 236.773854 207.633986 
L 237.098833 235.863358 
L 237.423813 219.274171 
L 237.748792 211.336216 
L 238.073772 206.309522 
L 238.398752 235.462713 
L 238.723731 218.375383 
L 239.37369 204.76507 
L 239.69867 235.025152 
L 240.023649 217.09272 
L 240.348629 208.92897 
L 240.673608 203.899717 
L 240.998588 234.723221 
L 241.323567 215.915463 
L 241.648547 207.348683 
L 241.973526 202.059493 
L 242.298506 234.176411 
L 242.623485 215.416766 
L 243.273444 200.832428 
L 243.598424 233.856488 
L 243.923403 214.201049 
L 244.248383 205.428407 
L 244.573363 199.985521 
L 244.898342 233.576861 
L 245.223322 213.007235 
L 245.548301 203.82043 
L 245.873281 198.094852 
L 246.19826 233.016854 
L 246.52324 212.489563 
L 247.173199 196.839402 
L 247.498178 232.700512 
L 247.823158 211.25126 
L 248.148137 201.860529 
L 248.473117 195.980228 
L 248.798096 232.409472 
L 249.123076 210.029538 
L 249.448055 200.220377 
L 249.773035 194.053837 
L 250.098014 231.861575 
L 250.422994 209.507776 
L 250.747973 198.86316 
L 251.072953 192.299319 
L 251.397933 231.383982 
L 251.722912 208.09577 
L 252.047892 198.130079 
L 252.372871 191.838525 
L 252.697851 231.235124 
L 253.02283 206.992479 
L 253.34781 196.550835 
L 253.672789 189.928193 
L 253.997769 230.705686 
L 254.322748 206.475892 
L 254.647728 195.17589 
L 254.972707 188.149501 
L 255.297687 230.228886 
L 255.622666 205.050852 
L 256.272625 186.551797 
L 256.597605 229.819213 
L 256.922584 203.665861 
L 257.247564 192.657329 
L 257.572544 185.645443 
L 257.897523 229.527331 
L 258.222503 203.367098 
L 258.547482 191.407333 
L 258.872462 183.920225 
L 259.197441 229.080926 
L 259.522421 201.942887 
L 260.17238 182.301007 
L 260.497359 228.681692 
L 260.822339 200.541943 
L 261.147318 188.869803 
L 261.472298 181.369878 
L 261.797277 228.380549 
L 262.122257 199.241945 
L 262.447236 187.123716 
L 262.772216 194.783972 
L 263.097195 229.47228 
L 263.422175 209.522683 
L 263.747154 200.777862 
L 264.072134 196.852342 
L 264.397114 230.182873 
L 264.722093 210.419056 
L 265.047073 201.915504 
L 265.372052 197.118288 
L 265.697032 230.251722 
L 266.022011 211.339074 
L 266.346991 203.285611 
L 266.67197 198.764976 
L 266.99695 230.815657 
L 267.321929 211.691246 
L 267.646909 204.496567 
L 267.971888 200.336679 
L 268.296868 231.363745 
L 268.621847 213.018251 
L 268.946827 205.084037 
L 269.271806 200.650633 
L 269.596786 231.491777 
L 269.921765 214.060412 
L 270.246745 206.561356 
L 270.571725 202.370146 
L 270.896704 232.123868 
L 271.221684 214.468872 
L 271.546663 207.790449 
L 271.871643 203.969975 
L 272.196622 232.702544 
L 272.521602 215.794814 
L 272.846581 208.388796 
L 273.171561 205.316537 
L 273.49654 233.18272 
L 273.82152 217.040099 
L 274.146499 209.961382 
L 274.471479 206.03783 
L 274.796458 233.486133 
L 275.121438 217.234785 
L 275.446417 211.055795 
L 275.771397 207.53055 
L 276.096376 234.042633 
L 276.421356 218.515668 
L 276.746335 211.640355 
L 277.071315 208.852042 
L 277.396295 234.529109 
L 277.721274 219.742128 
L 278.046254 213.18199 
L 278.371233 209.558463 
L 278.696213 234.836469 
L 279.021192 220.844107 
L 279.346172 214.649453 
L 279.671151 211.231042 
L 279.996131 235.471972 
L 280.32111 221.251003 
L 280.64609 214.856999 
L 280.971069 212.325844 
L 281.296049 235.868664 
L 281.621028 222.391433 
L 281.946008 216.337842 
L 282.270987 213.006324 
L 282.595967 236.172721 
L 282.920946 223.47645 
L 283.245926 217.77264 
L 283.570906 214.646991 
L 283.895885 236.822919 
L 284.220865 223.868108 
L 284.545844 218.914016 
L 284.870824 216.115791 
L 285.195803 237.402796 
L 285.520783 225.094936 
L 285.845762 219.476069 
L 286.170742 216.400224 
L 286.495721 237.533857 
L 286.820701 226.044861 
L 287.14568 220.8236 
L 287.47066 218.068004 
L 287.795639 238.211403 
L 288.120619 226.7019 
L 288.445598 221.690468 
L 288.770578 219.131987 
L 289.095557 238.629317 
L 289.420537 227.548772 
L 289.745516 222.720058 
L 290.070496 220.247317 
L 290.395476 239.094378 
L 290.720455 228.418127 
L 291.045435 223.66616 
L 291.370414 221.340821 
L 291.695394 239.543396 
L 292.020373 229.271043 
L 292.345353 224.684839 
L 292.670332 222.442177 
L 292.995312 240.006364 
L 293.320291 230.124233 
L 293.645271 225.697214 
L 293.97025 223.549542 
L 294.29523 240.476 
L 294.620209 230.97521 
L 294.945189 226.70433 
L 295.270168 224.642283 
L 295.595148 240.94202 
L 295.920127 231.816695 
L 296.245107 227.701057 
L 296.570087 225.634055 
L 296.895066 241.371922 
L 297.220046 232.629835 
L 297.545025 228.677456 
L 297.870005 226.699268 
L 298.194984 241.83316 
L 298.519964 233.453297 
L 298.844943 229.643262 
L 299.169923 227.758618 
L 299.494902 242.295134 
L 299.819882 234.270684 
L 300.144861 230.610783 
L 300.469841 228.808118 
L 300.79482 242.754544 
L 301.1198 235.000417 
L 301.444779 231.531505 
L 301.769759 229.828575 
L 302.094738 243.205804 
L 302.419718 235.798021 
L 302.744697 232.47718 
L 303.069677 230.855648 
L 303.394657 243.664208 
L 303.719636 236.592166 
L 304.044616 233.414837 
L 304.369595 231.843677 
L 304.694575 244.115624 
L 305.019554 237.382581 
L 305.344534 234.295803 
L 305.669513 232.818014 
L 305.994493 244.557672 
L 306.319472 242.773529 
L 306.969431 242.983678 
L 307.294411 250.008028 
L 307.61939 246.869011 
L 307.94437 245.190876 
L 308.269349 244.101605 
L 308.594329 250.621007 
L 308.919308 246.881173 
L 309.244288 244.793382 
L 309.569268 243.488557 
L 309.894247 250.431151 
L 310.219227 246.245729 
L 310.544206 243.945139 
L 310.869186 242.499489 
L 311.194165 250.079419 
L 311.519145 245.475046 
L 311.844124 243.001049 
L 312.169104 241.440617 
L 312.494083 249.697048 
L 312.819063 244.673301 
L 313.144042 242.029671 
L 313.469022 240.357481 
L 313.794001 249.306068 
L 314.118981 243.924554 
L 314.44396 241.081093 
L 314.76894 239.280626 
L 315.093919 248.92275 
L 315.418899 243.106542 
L 315.743878 240.087286 
L 316.068858 238.170131 
L 316.393838 248.528839 
L 316.718817 242.271183 
L 317.043797 239.076092 
L 317.368776 237.028411 
L 317.693756 248.132794 
L 318.018735 241.425325 
L 318.668694 235.927655 
L 318.993674 247.74756 
L 319.318653 240.580505 
L 319.968612 234.773065 
L 320.293592 247.347287 
L 320.618571 239.714244 
L 321.26853 233.601092 
L 321.59351 246.943051 
L 321.918489 238.840606 
L 322.243469 234.990161 
L 322.568449 232.492227 
L 322.893428 246.564211 
L 323.218408 237.97156 
L 323.543387 233.937648 
L 323.868367 231.309407 
L 324.193346 246.159975 
L 324.518326 237.076556 
L 324.843305 232.850947 
L 325.168285 230.194059 
L 325.493264 245.772038 
L 325.818244 236.502475 
L 326.143223 231.592482 
L 326.468203 228.659931 
L 326.793182 245.263435 
L 327.118162 235.263752 
L 327.768121 227.321819 
L 328.0931 244.840026 
L 328.41808 234.085399 
L 328.743059 229.38199 
L 329.068039 226.468726 
L 329.393019 244.521116 
L 329.717998 233.797686 
L 330.042978 228.335874 
L 330.367957 225.025105 
L 330.692937 244.061409 
L 331.017916 232.570064 
L 331.667875 223.670098 
L 331.992855 243.641806 
L 332.317834 231.363454 
L 332.642814 226.098133 
L 332.967793 222.789656 
L 333.292773 243.318757 
L 333.617752 231.066124 
L 333.942732 225.018577 
L 334.267711 221.298359 
L 334.592691 242.854461 
L 334.91767 229.802051 
L 335.56763 219.905362 
L 335.892609 242.431972 
L 336.217589 228.567268 
L 336.542568 222.70766 
L 336.867548 218.995551 
L 337.192527 242.103861 
L 337.517507 227.400523 
L 337.842486 221.151253 
L 338.167466 217.166819 
L 338.492445 241.529471 
L 338.817425 226.861087 
L 339.467384 215.971709 
L 339.792363 241.185042 
L 340.117343 225.667871 
L 340.442322 219.205251 
L 340.767302 215.073463 
L 341.092281 240.864158 
L 341.417261 224.481886 
L 341.74224 217.601536 
L 342.06722 213.194004 
L 342.3922 240.28889 
L 342.717179 223.915558 
L 343.042159 216.27874 
L 343.367138 211.487389 
L 343.692118 239.779505 
L 344.017097 222.530932 
L 344.342077 215.50446 
L 344.667056 210.976977 
L 344.992036 239.599802 
L 345.317015 221.443834 
L 345.641995 213.950993 
L 345.966974 209.101807 
L 346.291954 239.037178 
L 346.616933 220.894696 
L 346.941913 212.60484 
L 347.266892 207.356319 
L 347.591872 238.523721 
L 347.916851 219.474466 
L 348.566811 205.781655 
L 348.89179 238.077613 
L 349.21677 218.113725 
L 349.541749 221.763549 
L 349.866729 220.522944 
L 350.191708 240.475582 
L 350.516688 229.465618 
L 350.841667 225.713521 
L 351.166647 223.468697 
L 351.491626 241.398961 
L 351.816606 231.046374 
L 352.141585 226.486516 
L 352.466565 224.836323 
L 352.791544 241.884072 
L 353.116524 232.253737 
L 353.441503 228.000081 
L 353.766483 225.589115 
L 354.091462 242.216499 
L 354.416442 233.339186 
L 354.741421 229.435783 
L 355.066401 227.233366 
L 355.391381 242.883429 
L 355.71636 233.766596 
L 356.04134 229.674532 
L 356.366319 228.283755 
L 356.691299 243.287214 
L 357.016278 234.879138 
L 357.341258 231.116526 
L 357.666237 228.999162 
L 357.991217 243.615802 
L 358.316196 235.931136 
L 358.641176 232.506036 
L 358.966155 230.595142 
L 359.291135 244.279034 
L 359.616114 236.347028 
L 359.941094 233.604929 
L 360.266073 232.012731 
L 360.591053 244.867421 
L 360.916032 237.54393 
L 361.241012 234.202794 
L 361.565992 232.335827 
L 361.890971 245.020258 
L 362.215951 238.457692 
L 362.54093 235.498261 
L 362.86591 233.849164 
L 363.190889 245.6619 
L 363.515869 238.852449 
L 363.840848 236.55393 
L 364.165828 235.216748 
L 364.490807 246.261721 
L 364.815787 240.026337 
L 365.140766 237.14115 
L 365.465746 236.385161 
L 365.790725 246.752656 
L 366.115705 241.116512 
L 366.440684 238.508763 
L 366.765664 237.073219 
L 367.090643 247.078381 
L 367.415623 241.312954 
L 367.740602 239.422721 
L 368.065582 238.33012 
L 368.390562 247.623774 
L 368.715541 242.429099 
L 369.040521 239.9784 
L 369.3655 239.448735 
L 369.69048 248.104553 
L 370.015459 243.471536 
L 370.340439 241.314044 
L 370.665418 240.133397 
L 370.990398 248.420834 
L 370.990398 248.420834 
" clip-path="url(#p93e3b986e6)" style="fill: none; stroke-dasharray: 0.64,0.16,0.1,0.16; stroke-dashoffset: 0; stroke: #4682b4; stroke-width: 0.1"/>
   </g>
   <g id="patch_9">
    <path d="M 30.103125 273.312 
L 30.103125 140.256 
" style="fill: none; stroke: #000000; stroke-width: 0.8; stroke-linejoin: miter; stroke-linecap: square"/>
   </g>
   <g id="patch_10">
    <path d="M 387.223125 273.312 
L 387.223125 140.256 
" style="fill: none; stroke: #000000; stroke-width: 0.8; stroke-linejoin: miter; stroke-linecap: square"/>
   </g>
   <g id="patch_11">
    <path d="M 30.103125 273.312 
L 387.223125 273.312 
" style="fill: none; stroke: #000000; stroke-width: 0.8; stroke-linejoin: miter; stroke-linecap: square"/>
   </g>
   <g id="patch_12">
    <path d="M 30.103125 140.256 
L 387.223125 140.256 
" style="fill: none; stroke: #000000; stroke-width: 0.8; stroke-linejoin: miter; stroke-linecap: square"/>
   </g>
   <g id="legend_2">
    <g id="patch_13">
     <path d="M 237.329375 192.290375 
L 380.223125 192.290375 
Q 382.223125 192.290375 382.223125 190.290375 
L 382.223125 147.256 
Q 382.223125 145.256 380.223125 145.256 
L 237.329375 145.256 
Q 235.329375 145.256 235.329375 147.256 
L 235.329375 190.290375 
Q 235.329375 192.290375 237.329375 192.290375 
z
" style="fill: #ffffff; opacity: 0.8; stroke: #cccccc; stroke-linejoin: miter"/>
    </g>
    <g id="line2d_34">
     <path d="M 239.329375 153.354437 
L 249.329375 153.354437 
L 259.329375 153.354437 
" style="fill: none; stroke: #4682b4; stroke-linecap: square"/>
    </g>
    <g id="text_21">
     <text style="font: 10px 'DejaVu Sans', 'Bitstream Vera Sans', 'Computer Modern Sans Serif', 'Lucida Grande', 'Verdana', 'Geneva', 'Lucid', 'Arial', 'Helvetica', 'Avant Garde', sans-serif; text-anchor: start" x="267.329375" y="156.854437" transform="rotate(-0 267.329375 156.854437)">Target response PVR</text>
    </g>
    <g id="line2d_35">
     <path d="M 239.329375 168.032562 
L 249.329375 168.032562 
L 259.329375 168.032562 
" style="fill: none; stroke-dasharray: 3.7,1.6; stroke-dashoffset: 0; stroke: #4682b4"/>
    </g>
    <g id="text_22">
     <text style="font: 10px 'DejaVu Sans', 'Bitstream Vera Sans', 'Computer Modern Sans Serif', 'Lucida Grande', 'Verdana', 'Geneva', 'Lucid', 'Arial', 'Helvetica', 'Avant Garde', sans-serif; text-anchor: start" x="267.329375" y="171.532562" transform="rotate(-0 267.329375 171.532562)">Digital prediction PVR</text>
    </g>
    <g id="line2d_36">
     <path d="M 239.329375 182.710687 
L 249.329375 182.710687 
L 259.329375 182.710687 
" style="fill: none; stroke-dasharray: 0.64,0.16,0.1,0.16; stroke-dashoffset: 0; stroke: #4682b4; stroke-width: 0.1"/>
    </g>
    <g id="text_23">
     <text style="font: 10px 'DejaVu Sans', 'Bitstream Vera Sans', 'Computer Modern Sans Serif', 'Lucida Grande', 'Verdana', 'Geneva', 'Lucid', 'Arial', 'Helvetica', 'Avant Garde', sans-serif; text-anchor: start" x="267.329375" y="186.210687" transform="rotate(-0 267.329375 186.210687)">Analog prediction PVR</text>
    </g>
   </g>
  </g>
 </g>
 <defs>
  <clipPath id="pe50655035b">
   <rect x="30.103125" y="7.2" width="357.12" height="133.056"/>
  </clipPath>
  <clipPath id="p93e3b986e6">
   <rect x="30.103125" y="140.256" width="357.12" height="133.056"/>
  </clipPath>
 </defs>
</svg>
