<?xml version="1.0" encoding="utf-8" standalone="no"?>
<!DOCTYPE svg PUBLIC "-//W3C//DTD SVG 1.1//EN"
  "http://www.w3.org/Graphics/SVG/1.1/DTD/svg11.dtd">
<svg xmlns:xlink="http://www.w3.org/1999/xlink" width="398.030937pt" height="297.190125pt" viewBox="0 0 398.030937 297.190125" xmlns="http://www.w3.org/2000/svg" version="1.1">
 <metadata>
  <rdf:RDF xmlns:dc="http://purl.org/dc/elements/1.1/" xmlns:cc="http://creativecommons.org/ns#" xmlns:rdf="http://www.w3.org/1999/02/22-rdf-syntax-ns#">
   <cc:Work>
    <dc:type rdf:resource="http://purl.org/dc/dcmitype/StillImage"/>
    <dc:date>2023-10-23T11:46:25.520411</dc:date>
    <dc:format>image/svg+xml</dc:format>
    <dc:creator>
     <cc:Agent>
      <dc:title>Matplotlib v3.8.0, https://matplotlib.org/</dc:title>
     </cc:Agent>
    </dc:creator>
   </cc:Work>
  </rdf:RDF>
 </metadata>
 <defs>
  <style type="text/css">*{stroke-linejoin: round; stroke-linecap: butt}</style>
 </defs>
 <g id="figure_1">
  <g id="patch_1">
   <path d="M 0 297.190125 
L 398.030937 297.190125 
L 398.030937 0 
L 0 0 
z
" style="fill: #ffffff"/>
  </g>
  <g id="axes_1">
   <g id="patch_2">
    <path d="M 33.710938 273.312 
L 390.830938 273.312 
L 390.830938 7.2 
L 33.710938 7.2 
z
" style="fill: #ffffff"/>
   </g>
   <g id="matplotlib.axis_1">
    <g id="xtick_1">
     <g id="line2d_1">
      <defs>
       <path id="mb49ac9b889" d="M 0 0 
L 0 3.5 
" style="stroke: #000000; stroke-width: 0.8"/>
      </defs>
      <g>
       <use xlink:href="#mb49ac9b889" x="49.943665" y="273.312" style="stroke: #000000; stroke-width: 0.8"/>
      </g>
     </g>
     <g id="text_1">
      <text style="font: 10px 'DejaVu Sans', 'Bitstream Vera Sans', 'Computer Modern Sans Serif', 'Lucida Grande', 'Verdana', 'Geneva', 'Lucid', 'Arial', 'Helvetica', 'Avant Garde', sans-serif; text-anchor: middle" x="49.943665" y="287.910437" transform="rotate(-0 49.943665 287.910437)">0.0</text>
     </g>
    </g>
    <g id="xtick_2">
     <g id="line2d_2">
      <g>
       <use xlink:href="#mb49ac9b889" x="114.93957" y="273.312" style="stroke: #000000; stroke-width: 0.8"/>
      </g>
     </g>
     <g id="text_2">
      <text style="font: 10px 'DejaVu Sans', 'Bitstream Vera Sans', 'Computer Modern Sans Serif', 'Lucida Grande', 'Verdana', 'Geneva', 'Lucid', 'Arial', 'Helvetica', 'Avant Garde', sans-serif; text-anchor: middle" x="114.93957" y="287.910437" transform="rotate(-0 114.93957 287.910437)">0.1</text>
     </g>
    </g>
    <g id="xtick_3">
     <g id="line2d_3">
      <g>
       <use xlink:href="#mb49ac9b889" x="179.935475" y="273.312" style="stroke: #000000; stroke-width: 0.8"/>
      </g>
     </g>
     <g id="text_3">
      <text style="font: 10px 'DejaVu Sans', 'Bitstream Vera Sans', 'Computer Modern Sans Serif', 'Lucida Grande', 'Verdana', 'Geneva', 'Lucid', 'Arial', 'Helvetica', 'Avant Garde', sans-serif; text-anchor: middle" x="179.935475" y="287.910437" transform="rotate(-0 179.935475 287.910437)">0.2</text>
     </g>
    </g>
    <g id="xtick_4">
     <g id="line2d_4">
      <g>
       <use xlink:href="#mb49ac9b889" x="244.93138" y="273.312" style="stroke: #000000; stroke-width: 0.8"/>
      </g>
     </g>
     <g id="text_4">
      <text style="font: 10px 'DejaVu Sans', 'Bitstream Vera Sans', 'Computer Modern Sans Serif', 'Lucida Grande', 'Verdana', 'Geneva', 'Lucid', 'Arial', 'Helvetica', 'Avant Garde', sans-serif; text-anchor: middle" x="244.93138" y="287.910437" transform="rotate(-0 244.93138 287.910437)">0.3</text>
     </g>
    </g>
    <g id="xtick_5">
     <g id="line2d_5">
      <g>
       <use xlink:href="#mb49ac9b889" x="309.927285" y="273.312" style="stroke: #000000; stroke-width: 0.8"/>
      </g>
     </g>
     <g id="text_5">
      <text style="font: 10px 'DejaVu Sans', 'Bitstream Vera Sans', 'Computer Modern Sans Serif', 'Lucida Grande', 'Verdana', 'Geneva', 'Lucid', 'Arial', 'Helvetica', 'Avant Garde', sans-serif; text-anchor: middle" x="309.927285" y="287.910437" transform="rotate(-0 309.927285 287.910437)">0.4</text>
     </g>
    </g>
    <g id="xtick_6">
     <g id="line2d_6">
      <g>
       <use xlink:href="#mb49ac9b889" x="374.92319" y="273.312" style="stroke: #000000; stroke-width: 0.8"/>
      </g>
     </g>
     <g id="text_6">
      <text style="font: 10px 'DejaVu Sans', 'Bitstream Vera Sans', 'Computer Modern Sans Serif', 'Lucida Grande', 'Verdana', 'Geneva', 'Lucid', 'Arial', 'Helvetica', 'Avant Garde', sans-serif; text-anchor: middle" x="374.92319" y="287.910437" transform="rotate(-0 374.92319 287.910437)">0.5</text>
     </g>
    </g>
   </g>
   <g id="matplotlib.axis_2">
    <g id="ytick_1">
     <g id="line2d_7">
      <defs>
       <path id="m69a775ef81" d="M 0 0 
L -3.5 0 
" style="stroke: #000000; stroke-width: 0.8"/>
      </defs>
      <g>
       <use xlink:href="#m69a775ef81" x="33.710938" y="272.418357" style="stroke: #000000; stroke-width: 0.8"/>
      </g>
     </g>
     <g id="text_7">
      <text style="font: 10px 'DejaVu Sans', 'Bitstream Vera Sans', 'Computer Modern Sans Serif', 'Lucida Grande', 'Verdana', 'Geneva', 'Lucid', 'Arial', 'Helvetica', 'Avant Garde', sans-serif; text-anchor: end" x="26.710938" y="276.217575" transform="rotate(-0 26.710938 276.217575)">-0.1</text>
     </g>
    </g>
    <g id="ytick_2">
     <g id="line2d_8">
      <g>
       <use xlink:href="#m69a775ef81" x="33.710938" y="240.411623" style="stroke: #000000; stroke-width: 0.8"/>
      </g>
     </g>
     <g id="text_8">
      <text style="font: 10px 'DejaVu Sans', 'Bitstream Vera Sans', 'Computer Modern Sans Serif', 'Lucida Grande', 'Verdana', 'Geneva', 'Lucid', 'Arial', 'Helvetica', 'Avant Garde', sans-serif; text-anchor: end" x="26.710938" y="244.210842" transform="rotate(-0 26.710938 244.210842)">0.0</text>
     </g>
    </g>
    <g id="ytick_3">
     <g id="line2d_9">
      <g>
       <use xlink:href="#m69a775ef81" x="33.710938" y="208.40489" style="stroke: #000000; stroke-width: 0.8"/>
      </g>
     </g>
     <g id="text_9">
      <text style="font: 10px 'DejaVu Sans', 'Bitstream Vera Sans', 'Computer Modern Sans Serif', 'Lucida Grande', 'Verdana', 'Geneva', 'Lucid', 'Arial', 'Helvetica', 'Avant Garde', sans-serif; text-anchor: end" x="26.710938" y="212.204109" transform="rotate(-0 26.710938 212.204109)">0.1</text>
     </g>
    </g>
    <g id="ytick_4">
     <g id="line2d_10">
      <g>
       <use xlink:href="#m69a775ef81" x="33.710938" y="176.398156" style="stroke: #000000; stroke-width: 0.8"/>
      </g>
     </g>
     <g id="text_10">
      <text style="font: 10px 'DejaVu Sans', 'Bitstream Vera Sans', 'Computer Modern Sans Serif', 'Lucida Grande', 'Verdana', 'Geneva', 'Lucid', 'Arial', 'Helvetica', 'Avant Garde', sans-serif; text-anchor: end" x="26.710938" y="180.197375" transform="rotate(-0 26.710938 180.197375)">0.2</text>
     </g>
    </g>
    <g id="ytick_5">
     <g id="line2d_11">
      <g>
       <use xlink:href="#m69a775ef81" x="33.710938" y="144.391423" style="stroke: #000000; stroke-width: 0.8"/>
      </g>
     </g>
     <g id="text_11">
      <text style="font: 10px 'DejaVu Sans', 'Bitstream Vera Sans', 'Computer Modern Sans Serif', 'Lucida Grande', 'Verdana', 'Geneva', 'Lucid', 'Arial', 'Helvetica', 'Avant Garde', sans-serif; text-anchor: end" x="26.710938" y="148.190642" transform="rotate(-0 26.710938 148.190642)">0.3</text>
     </g>
    </g>
    <g id="ytick_6">
     <g id="line2d_12">
      <g>
       <use xlink:href="#m69a775ef81" x="33.710938" y="112.384689" style="stroke: #000000; stroke-width: 0.8"/>
      </g>
     </g>
     <g id="text_12">
      <text style="font: 10px 'DejaVu Sans', 'Bitstream Vera Sans', 'Computer Modern Sans Serif', 'Lucida Grande', 'Verdana', 'Geneva', 'Lucid', 'Arial', 'Helvetica', 'Avant Garde', sans-serif; text-anchor: end" x="26.710938" y="116.183908" transform="rotate(-0 26.710938 116.183908)">0.4</text>
     </g>
    </g>
    <g id="ytick_7">
     <g id="line2d_13">
      <g>
       <use xlink:href="#m69a775ef81" x="33.710938" y="80.377956" style="stroke: #000000; stroke-width: 0.8"/>
      </g>
     </g>
     <g id="text_13">
      <text style="font: 10px 'DejaVu Sans', 'Bitstream Vera Sans', 'Computer Modern Sans Serif', 'Lucida Grande', 'Verdana', 'Geneva', 'Lucid', 'Arial', 'Helvetica', 'Avant Garde', sans-serif; text-anchor: end" x="26.710938" y="84.177175" transform="rotate(-0 26.710938 84.177175)">0.5</text>
     </g>
    </g>
    <g id="ytick_8">
     <g id="line2d_14">
      <g>
       <use xlink:href="#m69a775ef81" x="33.710938" y="48.371222" style="stroke: #000000; stroke-width: 0.8"/>
      </g>
     </g>
     <g id="text_14">
      <text style="font: 10px 'DejaVu Sans', 'Bitstream Vera Sans', 'Computer Modern Sans Serif', 'Lucida Grande', 'Verdana', 'Geneva', 'Lucid', 'Arial', 'Helvetica', 'Avant Garde', sans-serif; text-anchor: end" x="26.710938" y="52.170441" transform="rotate(-0 26.710938 52.170441)">0.6</text>
     </g>
    </g>
    <g id="ytick_9">
     <g id="line2d_15">
      <g>
       <use xlink:href="#m69a775ef81" x="33.710938" y="16.364489" style="stroke: #000000; stroke-width: 0.8"/>
      </g>
     </g>
     <g id="text_15">
      <text style="font: 10px 'DejaVu Sans', 'Bitstream Vera Sans', 'Computer Modern Sans Serif', 'Lucida Grande', 'Verdana', 'Geneva', 'Lucid', 'Arial', 'Helvetica', 'Avant Garde', sans-serif; text-anchor: end" x="26.710938" y="20.163708" transform="rotate(-0 26.710938 20.163708)">0.7</text>
     </g>
    </g>
   </g>
   <g id="line2d_16">
    <path d="M 49.943665 261.216 
L 115.589529 261.162763 
L 116.564467 260.895155 
L 117.864385 260.268297 
L 119.164304 259.343773 
L 120.464222 258.121045 
L 121.76414 256.5953 
L 123.389037 254.29342 
L 125.013935 251.558435 
L 126.638833 248.370472 
L 128.58871 244.090736 
L 130.538587 239.284053 
L 133.138423 232.17751 
L 134.438341 228.441297 
L 137.363157 219.072091 
L 140.287973 208.789486 
L 143.862747 195.423983 
L 147.437522 181.099305 
L 151.662256 163.264353 
L 156.536949 141.70849 
L 162.38658 114.733952 
L 168.236212 87.550217 
L 168.886171 85.267657 
L 169.861109 80.488667 
L 174.085843 58.785989 
L 179.935475 29.575204 
L 181.235393 43.282824 
L 191.309758 114.923527 
L 193.909594 131.586201 
L 196.509431 146.794456 
L 198.784287 158.878151 
L 201.059144 169.84417 
L 203.334001 179.74398 
L 205.608857 188.644605 
L 207.883714 196.620971 
L 210.158571 203.750663 
L 212.433427 210.110669 
L 214.708284 215.775013 
L 216.983141 220.813574 
L 219.257997 225.291287 
L 221.532854 229.267823 
L 223.807711 232.797567 
L 226.082567 235.929743 
L 228.357424 238.708671 
L 230.632281 241.174093 
L 233.232117 243.653208 
L 235.831953 245.81597 
L 238.431789 247.703359 
L 241.356605 249.541842 
L 244.281421 251.120894 
L 247.531216 252.616658 
L 251.105991 253.997422 
L 255.005745 255.242241 
L 259.230479 256.340245 
L 263.780192 257.289276 
L 268.979865 258.141254 
L 274.829496 258.872733 
L 281.654066 259.50163 
L 290.103534 260.044387 
L 300.502879 260.476273 
L 314.152019 260.806298 
L 333.65079 261.036189 
L 366.148743 261.16862 
L 374.59821 261.18231 
L 374.59821 261.18231 
" clip-path="url(#p7fefaf44e3)" style="fill: none; stroke: #4682b4; stroke-linecap: square"/>
   </g>
   <g id="line2d_17">
    <path d="M 49.943665 245.242626 
L 50.268644 243.73784 
L 50.593624 242.808282 
L 51.243583 241.893646 
L 51.893542 241.560672 
L 52.86848 241.415823 
L 55.793296 241.378533 
L 114.93957 241.368249 
L 115.264549 240.866271 
L 115.914508 239.167007 
L 117.864385 232.789685 
L 121.43916 221.264084 
L 124.688956 211.494861 
L 127.938751 202.382384 
L 131.513526 193.017922 
L 134.763321 185.13393 
L 138.013116 177.861895 
L 141.587891 170.435945 
L 145.487645 162.91452 
L 149.06242 156.475319 
L 152.962174 149.805707 
L 159.786744 138.446918 
L 163.686499 131.072691 
L 165.961355 126.430057 
L 168.236212 121.199408 
L 170.511069 115.516324 
L 172.135966 110.771054 
L 173.435884 106.329966 
L 175.060782 99.940119 
L 177.660618 88.204988 
L 178.960536 81.291204 
L 179.610495 77.499622 
L 179.935475 46.397991 
L 180.585434 157.414867 
L 180.910413 189.157458 
L 181.235393 209.447669 
L 181.560372 222.08629 
L 181.885352 229.817474 
L 182.210331 234.490921 
L 182.535311 237.293046 
L 182.86029 238.963358 
L 183.18527 239.954679 
L 183.51025 240.540496 
L 184.160209 241.089441 
L 184.810168 241.279134 
L 186.110086 241.36666 
L 194.234574 241.378227 
L 374.59821 241.378227 
L 374.59821 241.378227 
" clip-path="url(#p7fefaf44e3)" style="fill: none; stroke-dasharray: 3.7,1.6; stroke-dashoffset: 0; stroke: #4682b4"/>
   </g>
   <g id="line2d_18">
    <path d="M 49.943665 238.931072 
L 50.268644 235.343845 
L 50.593624 233.521385 
L 50.918603 232.594408 
L 51.243583 232.126409 
L 51.893542 231.766419 
L 52.86848 231.656409 
L 57.743173 231.63941 
L 136.713198 231.640368 
L 137.363157 230.575943 
L 137.688137 229.808626 
L 138.013116 230.696424 
L 138.988055 227.395599 
L 139.313034 229.471308 
L 139.962993 226.109203 
L 140.287973 225.00745 
L 140.612952 228.288413 
L 141.262911 223.671088 
L 141.587891 222.283424 
L 141.91287 226.928591 
L 142.23785 223.613223 
L 142.887809 219.786845 
L 143.212788 225.670708 
L 143.862747 219.025895 
L 144.187727 217.083138 
L 144.512707 224.350443 
L 144.837686 219.636559 
L 145.487645 214.623721 
L 145.812625 223.169546 
L 146.137604 217.802522 
L 146.787563 211.957854 
L 147.112543 221.92886 
L 147.437522 215.395537 
L 148.087481 209.255365 
L 148.412461 220.646658 
L 148.73744 213.396403 
L 149.387399 206.548946 
L 149.712379 219.374743 
L 150.037358 211.179377 
L 150.687318 203.832581 
L 151.012297 218.121386 
L 151.337277 209.253546 
L 151.662256 204.16743 
L 151.987236 201.130659 
L 152.312215 216.850762 
L 152.637195 207.006395 
L 152.962174 201.428533 
L 153.287154 198.104659 
L 153.612133 215.48244 
L 153.937113 204.937282 
L 154.262092 199.016325 
L 154.587072 195.50197 
L 154.912051 214.30151 
L 155.237031 202.960666 
L 155.56201 196.379649 
L 155.88699 192.216395 
L 156.211969 212.836211 
L 156.536949 200.54068 
L 156.861928 193.777123 
L 157.186908 189.440735 
L 157.511888 211.606353 
L 157.836867 198.497991 
L 158.161847 191.057662 
L 158.486826 186.354724 
L 158.811806 210.264047 
L 159.136785 196.108582 
L 159.461765 188.441322 
L 159.786744 183.533946 
L 160.111724 209.038218 
L 160.436703 193.774967 
L 161.086662 180.435951 
L 161.411642 207.729346 
L 161.736621 191.374734 
L 162.061601 182.843742 
L 162.38658 177.409988 
L 162.71156 206.432026 
L 163.036539 189.21921 
L 163.361519 180.281452 
L 163.686499 174.589196 
L 164.011478 205.230789 
L 164.336458 186.856122 
L 164.661437 177.05033 
L 164.986417 171.097454 
L 165.311396 203.784537 
L 165.636376 184.566488 
L 165.961355 174.377203 
L 166.286335 168.197884 
L 166.611314 202.548698 
L 166.936294 182.133977 
L 167.261273 171.335925 
L 167.586253 164.715503 
L 167.911232 201.137702 
L 168.236212 179.826601 
L 168.561191 168.623716 
L 168.886171 161.463483 
L 169.21115 199.762606 
L 169.53613 177.554554 
L 169.861109 165.621612 
L 170.186089 158.007142 
L 170.511069 198.369106 
L 170.836048 174.970295 
L 171.161028 162.768862 
L 171.486007 154.892531 
L 171.810987 197.093802 
L 172.135966 172.705064 
L 172.785925 151.515736 
L 173.110905 195.770011 
L 173.435884 169.863101 
L 173.760864 156.683139 
L 174.085843 148.098556 
L 174.410823 194.411167 
L 174.735802 167.811966 
L 175.060782 154.675293 
L 175.385761 146.368435 
L 175.710741 193.60876 
L 176.03572 166.758369 
L 176.3607 150.27281 
L 176.68568 140.239824 
L 177.010659 191.3653 
L 177.335639 161.696739 
L 177.660618 146.783677 
L 177.985598 137.516173 
L 178.310577 190.163026 
L 178.635557 160.326233 
L 178.960536 145.374468 
L 179.285516 136.087323 
L 179.610495 189.496841 
L 179.935475 156.412094 
L 180.260454 139.560012 
L 180.585434 128.936397 
L 180.910413 186.937564 
L 181.235393 153.945002 
L 181.560372 137.467415 
L 181.885352 126.77282 
L 182.210331 185.949764 
L 182.535311 152.761883 
L 182.86029 136.176774 
L 183.18527 125.405113 
L 183.51025 185.300405 
L 183.835229 148.804525 
L 184.160209 130.249079 
L 184.485188 118.084636 
L 184.810168 182.724589 
L 185.135147 146.258866 
L 185.785106 116.136116 
L 186.110086 181.841712 
L 186.435065 144.911788 
L 187.085024 114.636041 
L 187.410004 181.148969 
L 187.734983 140.824402 
L 188.384942 107.149198 
L 188.709922 178.560576 
L 189.034901 138.240764 
L 189.684861 105.068177 
L 190.00984 177.660738 
L 190.33482 137.096781 
L 190.984779 103.499579 
L 191.309758 176.903063 
L 191.634738 132.942402 
L 192.284697 95.843945 
L 192.609676 174.283055 
L 192.934656 130.300099 
L 193.584615 93.757889 
L 193.909594 173.337476 
L 194.234574 129.157549 
L 194.884533 88.141288 
L 195.209512 171.576376 
L 195.534492 124.072443 
L 196.184451 83.775827 
L 196.509431 169.706653 
L 196.83441 122.102407 
L 197.484369 81.949059 
L 197.809349 168.840606 
L 198.134328 121.024074 
L 198.784287 76.788645 
L 199.109267 167.388117 
L 199.434246 116.319295 
L 200.084205 73.466992 
L 200.409185 166.041416 
L 200.734164 115.13474 
L 201.384123 70.422378 
L 201.709103 164.410562 
L 202.034082 111.853457 
L 202.684042 62.755947 
L 203.009021 161.812317 
L 203.334001 106.401642 
L 203.98396 58.995698 
L 204.308939 160.275974 
L 204.633919 105.086 
L 205.283878 58.327746 
L 205.608857 159.980135 
L 205.933837 104.84696 
L 206.583796 52.427653 
L 206.908775 158.414849 
L 207.233755 100.01472 
L 207.883714 48.305767 
L 208.208693 156.258304 
L 208.533673 96.427938 
L 209.183632 44.375824 
L 209.508612 154.392837 
L 209.833591 94.979023 
L 210.48355 37.767722 
L 210.80853 152.537653 
L 211.133509 89.970558 
L 211.783468 35.724317 
L 212.108448 151.690517 
L 212.433427 89.15073 
L 213.083386 35.395061 
L 213.408366 151.534185 
L 213.733345 89.029503 
L 214.383304 26.572375 
L 214.708284 147.813616 
L 215.033263 81.319559 
L 215.683223 20.889751 
L 216.008202 145.44122 
L 216.333182 78.846278 
L 216.983141 19.296 
L 217.30812 144.817476 
L 217.6331 95.194792 
L 218.283059 54.622233 
L 218.608038 156.030715 
L 218.933018 105.887336 
L 219.582977 60.468444 
L 219.907956 158.268835 
L 220.232936 130.520656 
L 220.882895 106.756124 
L 221.207874 174.252738 
L 221.532854 160.700006 
L 221.857833 153.604253 
L 222.182813 149.203623 
L 222.507793 192.509443 
L 222.832772 174.710064 
L 223.157752 203.947191 
L 223.482731 218.107155 
L 223.807711 225.102867 
L 224.13269 228.513803 
L 224.45767 230.198382 
L 224.782649 230.996889 
L 225.107629 231.372165 
L 225.757588 231.646974 
L 227.057506 231.705542 
L 374.59821 231.704475 
L 374.59821 231.704475 
" clip-path="url(#p7fefaf44e3)" style="fill: none; stroke-dasharray: 0.64,0.16,0.1,0.16; stroke-dashoffset: 0; stroke: #4682b4; stroke-width: 0.1"/>
   </g>
   <g id="patch_3">
    <path d="M 33.710938 273.312 
L 33.710938 7.2 
" style="fill: none; stroke: #000000; stroke-width: 0.8; stroke-linejoin: miter; stroke-linecap: square"/>
   </g>
   <g id="patch_4">
    <path d="M 390.830938 273.312 
L 390.830938 7.2 
" style="fill: none; stroke: #000000; stroke-width: 0.8; stroke-linejoin: miter; stroke-linecap: square"/>
   </g>
   <g id="patch_5">
    <path d="M 33.710938 273.312 
L 390.830938 273.312 
" style="fill: none; stroke: #000000; stroke-width: 0.8; stroke-linejoin: miter; stroke-linecap: square"/>
   </g>
   <g id="patch_6">
    <path d="M 33.710938 7.2 
L 390.830938 7.2 
" style="fill: none; stroke: #000000; stroke-width: 0.8; stroke-linejoin: miter; stroke-linecap: square"/>
   </g>
   <g id="legend_1">
    <g id="patch_7">
     <path d="M 240.937187 59.234375 
L 383.830938 59.234375 
Q 385.830938 59.234375 385.830938 57.234375 
L 385.830938 14.2 
Q 385.830938 12.2 383.830938 12.2 
L 240.937187 12.2 
Q 238.937187 12.2 238.937187 14.2 
L 238.937187 57.234375 
Q 238.937187 59.234375 240.937187 59.234375 
z
" style="fill: #ffffff; opacity: 0.8; stroke: #cccccc; stroke-linejoin: miter"/>
    </g>
    <g id="line2d_19">
     <path d="M 242.937187 20.298437 
L 252.937187 20.298437 
L 262.937187 20.298437 
" style="fill: none; stroke: #4682b4; stroke-linecap: square"/>
    </g>
    <g id="text_16">
     <text style="font: 10px 'DejaVu Sans', 'Bitstream Vera Sans', 'Computer Modern Sans Serif', 'Lucida Grande', 'Verdana', 'Geneva', 'Lucid', 'Arial', 'Helvetica', 'Avant Garde', sans-serif; text-anchor: start" x="270.937187" y="23.798437" transform="rotate(-0 270.937187 23.798437)">Target response PVR</text>
    </g>
    <g id="line2d_20">
     <path d="M 242.937187 34.976562 
L 252.937187 34.976562 
L 262.937187 34.976562 
" style="fill: none; stroke-dasharray: 3.7,1.6; stroke-dashoffset: 0; stroke: #4682b4"/>
    </g>
    <g id="text_17">
     <text style="font: 10px 'DejaVu Sans', 'Bitstream Vera Sans', 'Computer Modern Sans Serif', 'Lucida Grande', 'Verdana', 'Geneva', 'Lucid', 'Arial', 'Helvetica', 'Avant Garde', sans-serif; text-anchor: start" x="270.937187" y="38.476562" transform="rotate(-0 270.937187 38.476562)">Digital prediction PVR</text>
    </g>
    <g id="line2d_21">
     <path d="M 242.937187 49.654687 
L 252.937187 49.654687 
L 262.937187 49.654687 
" style="fill: none; stroke-dasharray: 0.64,0.16,0.1,0.16; stroke-dashoffset: 0; stroke: #4682b4; stroke-width: 0.1"/>
    </g>
    <g id="text_18">
     <text style="font: 10px 'DejaVu Sans', 'Bitstream Vera Sans', 'Computer Modern Sans Serif', 'Lucida Grande', 'Verdana', 'Geneva', 'Lucid', 'Arial', 'Helvetica', 'Avant Garde', sans-serif; text-anchor: start" x="270.937187" y="53.154687" transform="rotate(-0 270.937187 53.154687)">Analog prediction PVR</text>
    </g>
   </g>
  </g>
 </g>
 <defs>
  <clipPath id="p7fefaf44e3">
   <rect x="33.710938" y="7.2" width="357.12" height="266.112"/>
  </clipPath>
 </defs>
</svg>
