<?xml version="1.0" encoding="utf-8" standalone="no"?>
<!DOCTYPE svg PUBLIC "-//W3C//DTD SVG 1.1//EN"
  "http://www.w3.org/Graphics/SVG/1.1/DTD/svg11.dtd">
<svg xmlns:xlink="http://www.w3.org/1999/xlink" width="404.393438pt" height="297.190125pt" viewBox="0 0 404.393438 297.190125" xmlns="http://www.w3.org/2000/svg" version="1.1">
 <metadata>
  <rdf:RDF xmlns:dc="http://purl.org/dc/elements/1.1/" xmlns:cc="http://creativecommons.org/ns#" xmlns:rdf="http://www.w3.org/1999/02/22-rdf-syntax-ns#">
   <cc:Work>
    <dc:type rdf:resource="http://purl.org/dc/dcmitype/StillImage"/>
    <dc:date>2023-10-26T12:01:55.359588</dc:date>
    <dc:format>image/svg+xml</dc:format>
    <dc:creator>
     <cc:Agent>
      <dc:title>Matplotlib v3.8.0, https://matplotlib.org/</dc:title>
     </cc:Agent>
    </dc:creator>
   </cc:Work>
  </rdf:RDF>
 </metadata>
 <defs>
  <style type="text/css">*{stroke-linejoin: round; stroke-linecap: butt}</style>
 </defs>
 <g id="figure_1">
  <g id="patch_1">
   <path d="M 0 297.190125 
L 404.393438 297.190125 
L 404.393438 0 
L 0 0 
z
" style="fill: #ffffff"/>
  </g>
  <g id="axes_1">
   <g id="patch_2">
    <path d="M 40.073438 273.312 
L 397.193438 273.312 
L 397.193438 7.2 
L 40.073438 7.2 
z
" style="fill: #ffffff"/>
   </g>
   <g id="matplotlib.axis_1">
    <g id="xtick_1">
     <g id="line2d_1">
      <defs>
       <path id="m295c390c4b" d="M 0 0 
L 0 3.5 
" style="stroke: #000000; stroke-width: 0.8"/>
      </defs>
      <g>
       <use xlink:href="#m295c390c4b" x="56.306165" y="273.312" style="stroke: #000000; stroke-width: 0.8"/>
      </g>
     </g>
     <g id="text_1">
      <text style="font: 10px 'DejaVu Sans', 'Bitstream Vera Sans', 'Computer Modern Sans Serif', 'Lucida Grande', 'Verdana', 'Geneva', 'Lucid', 'Arial', 'Helvetica', 'Avant Garde', sans-serif; text-anchor: middle" x="56.306165" y="287.910437" transform="rotate(-0 56.306165 287.910437)">0</text>
     </g>
    </g>
    <g id="xtick_2">
     <g id="line2d_2">
      <g>
       <use xlink:href="#m295c390c4b" x="121.30207" y="273.312" style="stroke: #000000; stroke-width: 0.8"/>
      </g>
     </g>
     <g id="text_2">
      <text style="font: 10px 'DejaVu Sans', 'Bitstream Vera Sans', 'Computer Modern Sans Serif', 'Lucida Grande', 'Verdana', 'Geneva', 'Lucid', 'Arial', 'Helvetica', 'Avant Garde', sans-serif; text-anchor: middle" x="121.30207" y="287.910437" transform="rotate(-0 121.30207 287.910437)">100</text>
     </g>
    </g>
    <g id="xtick_3">
     <g id="line2d_3">
      <g>
       <use xlink:href="#m295c390c4b" x="186.297975" y="273.312" style="stroke: #000000; stroke-width: 0.8"/>
      </g>
     </g>
     <g id="text_3">
      <text style="font: 10px 'DejaVu Sans', 'Bitstream Vera Sans', 'Computer Modern Sans Serif', 'Lucida Grande', 'Verdana', 'Geneva', 'Lucid', 'Arial', 'Helvetica', 'Avant Garde', sans-serif; text-anchor: middle" x="186.297975" y="287.910437" transform="rotate(-0 186.297975 287.910437)">200</text>
     </g>
    </g>
    <g id="xtick_4">
     <g id="line2d_4">
      <g>
       <use xlink:href="#m295c390c4b" x="251.29388" y="273.312" style="stroke: #000000; stroke-width: 0.8"/>
      </g>
     </g>
     <g id="text_4">
      <text style="font: 10px 'DejaVu Sans', 'Bitstream Vera Sans', 'Computer Modern Sans Serif', 'Lucida Grande', 'Verdana', 'Geneva', 'Lucid', 'Arial', 'Helvetica', 'Avant Garde', sans-serif; text-anchor: middle" x="251.29388" y="287.910437" transform="rotate(-0 251.29388 287.910437)">300</text>
     </g>
    </g>
    <g id="xtick_5">
     <g id="line2d_5">
      <g>
       <use xlink:href="#m295c390c4b" x="316.289785" y="273.312" style="stroke: #000000; stroke-width: 0.8"/>
      </g>
     </g>
     <g id="text_5">
      <text style="font: 10px 'DejaVu Sans', 'Bitstream Vera Sans', 'Computer Modern Sans Serif', 'Lucida Grande', 'Verdana', 'Geneva', 'Lucid', 'Arial', 'Helvetica', 'Avant Garde', sans-serif; text-anchor: middle" x="316.289785" y="287.910437" transform="rotate(-0 316.289785 287.910437)">400</text>
     </g>
    </g>
    <g id="xtick_6">
     <g id="line2d_6">
      <g>
       <use xlink:href="#m295c390c4b" x="381.28569" y="273.312" style="stroke: #000000; stroke-width: 0.8"/>
      </g>
     </g>
     <g id="text_6">
      <text style="font: 10px 'DejaVu Sans', 'Bitstream Vera Sans', 'Computer Modern Sans Serif', 'Lucida Grande', 'Verdana', 'Geneva', 'Lucid', 'Arial', 'Helvetica', 'Avant Garde', sans-serif; text-anchor: middle" x="381.28569" y="287.910437" transform="rotate(-0 381.28569 287.910437)">500</text>
     </g>
    </g>
   </g>
   <g id="matplotlib.axis_2">
    <g id="ytick_1">
     <g id="line2d_7">
      <defs>
       <path id="mfaa27f8fb8" d="M 0 0 
L -3.5 0 
" style="stroke: #000000; stroke-width: 0.8"/>
      </defs>
      <g>
       <use xlink:href="#mfaa27f8fb8" x="40.073438" y="251.428537" style="stroke: #000000; stroke-width: 0.8"/>
      </g>
     </g>
     <g id="text_7">
      <text style="font: 10px 'DejaVu Sans', 'Bitstream Vera Sans', 'Computer Modern Sans Serif', 'Lucida Grande', 'Verdana', 'Geneva', 'Lucid', 'Arial', 'Helvetica', 'Avant Garde', sans-serif; text-anchor: end" x="33.073438" y="255.227756" transform="rotate(-0 33.073438 255.227756)">-0.05</text>
     </g>
    </g>
    <g id="ytick_2">
     <g id="line2d_8">
      <g>
       <use xlink:href="#mfaa27f8fb8" x="40.073438" y="218.803661" style="stroke: #000000; stroke-width: 0.8"/>
      </g>
     </g>
     <g id="text_8">
      <text style="font: 10px 'DejaVu Sans', 'Bitstream Vera Sans', 'Computer Modern Sans Serif', 'Lucida Grande', 'Verdana', 'Geneva', 'Lucid', 'Arial', 'Helvetica', 'Avant Garde', sans-serif; text-anchor: end" x="33.073438" y="222.60288" transform="rotate(-0 33.073438 222.60288)">0.00</text>
     </g>
    </g>
    <g id="ytick_3">
     <g id="line2d_9">
      <g>
       <use xlink:href="#mfaa27f8fb8" x="40.073438" y="186.178785" style="stroke: #000000; stroke-width: 0.8"/>
      </g>
     </g>
     <g id="text_9">
      <text style="font: 10px 'DejaVu Sans', 'Bitstream Vera Sans', 'Computer Modern Sans Serif', 'Lucida Grande', 'Verdana', 'Geneva', 'Lucid', 'Arial', 'Helvetica', 'Avant Garde', sans-serif; text-anchor: end" x="33.073438" y="189.978004" transform="rotate(-0 33.073438 189.978004)">0.05</text>
     </g>
    </g>
    <g id="ytick_4">
     <g id="line2d_10">
      <g>
       <use xlink:href="#mfaa27f8fb8" x="40.073438" y="153.553909" style="stroke: #000000; stroke-width: 0.8"/>
      </g>
     </g>
     <g id="text_10">
      <text style="font: 10px 'DejaVu Sans', 'Bitstream Vera Sans', 'Computer Modern Sans Serif', 'Lucida Grande', 'Verdana', 'Geneva', 'Lucid', 'Arial', 'Helvetica', 'Avant Garde', sans-serif; text-anchor: end" x="33.073438" y="157.353128" transform="rotate(-0 33.073438 157.353128)">0.10</text>
     </g>
    </g>
    <g id="ytick_5">
     <g id="line2d_11">
      <g>
       <use xlink:href="#mfaa27f8fb8" x="40.073438" y="120.929033" style="stroke: #000000; stroke-width: 0.8"/>
      </g>
     </g>
     <g id="text_11">
      <text style="font: 10px 'DejaVu Sans', 'Bitstream Vera Sans', 'Computer Modern Sans Serif', 'Lucida Grande', 'Verdana', 'Geneva', 'Lucid', 'Arial', 'Helvetica', 'Avant Garde', sans-serif; text-anchor: end" x="33.073438" y="124.728252" transform="rotate(-0 33.073438 124.728252)">0.15</text>
     </g>
    </g>
    <g id="ytick_6">
     <g id="line2d_12">
      <g>
       <use xlink:href="#mfaa27f8fb8" x="40.073438" y="88.304157" style="stroke: #000000; stroke-width: 0.8"/>
      </g>
     </g>
     <g id="text_12">
      <text style="font: 10px 'DejaVu Sans', 'Bitstream Vera Sans', 'Computer Modern Sans Serif', 'Lucida Grande', 'Verdana', 'Geneva', 'Lucid', 'Arial', 'Helvetica', 'Avant Garde', sans-serif; text-anchor: end" x="33.073438" y="92.103376" transform="rotate(-0 33.073438 92.103376)">0.20</text>
     </g>
    </g>
    <g id="ytick_7">
     <g id="line2d_13">
      <g>
       <use xlink:href="#mfaa27f8fb8" x="40.073438" y="55.679281" style="stroke: #000000; stroke-width: 0.8"/>
      </g>
     </g>
     <g id="text_13">
      <text style="font: 10px 'DejaVu Sans', 'Bitstream Vera Sans', 'Computer Modern Sans Serif', 'Lucida Grande', 'Verdana', 'Geneva', 'Lucid', 'Arial', 'Helvetica', 'Avant Garde', sans-serif; text-anchor: end" x="33.073438" y="59.4785" transform="rotate(-0 33.073438 59.4785)">0.25</text>
     </g>
    </g>
    <g id="ytick_8">
     <g id="line2d_14">
      <g>
       <use xlink:href="#mfaa27f8fb8" x="40.073438" y="23.054405" style="stroke: #000000; stroke-width: 0.8"/>
      </g>
     </g>
     <g id="text_14">
      <text style="font: 10px 'DejaVu Sans', 'Bitstream Vera Sans', 'Computer Modern Sans Serif', 'Lucida Grande', 'Verdana', 'Geneva', 'Lucid', 'Arial', 'Helvetica', 'Avant Garde', sans-serif; text-anchor: end" x="33.073438" y="26.853624" transform="rotate(-0 33.073438 26.853624)">0.30</text>
     </g>
    </g>
   </g>
   <g id="line2d_15">
    <path d="M 56.306165 261.216 
L 121.30207 261.216 
L 121.627049 260.147222 
L 122.601988 254.182951 
L 123.901906 248.657256 
L 126.176763 238.869363 
L 128.776599 226.502042 
L 132.026394 209.830248 
L 151.200186 109.128681 
L 153.800022 96.15951 
L 154.125002 95.622113 
L 154.774961 96.785973 
L 155.09994 96.984984 
L 155.749899 96.934546 
L 156.724838 96.757719 
L 157.699777 96.854354 
L 158.674715 97.267711 
L 159.649654 97.965558 
L 160.299613 98.770544 
L 161.599531 100.491636 
L 162.899449 102.268518 
L 164.199367 104.440943 
L 165.824265 107.655733 
L 167.774142 112.098915 
L 169.724019 117.083865 
L 172.648835 125.342526 
L 175.57365 134.335574 
L 178.823446 145.045668 
L 182.7232 158.662175 
L 186.297975 171.709137 
L 186.622954 171.843069 
L 187.272913 169.859163 
L 187.922872 168.856183 
L 189.87275 166.819986 
L 191.172668 164.948787 
L 192.472586 162.653633 
L 194.097483 159.265214 
L 196.047361 154.555656 
L 198.322217 148.396895 
L 200.597074 141.569553 
L 203.52189 131.976208 
L 207.421644 118.316042 
L 212.296337 100.161864 
L 218.795927 74.864927 
L 219.120907 74.64497 
L 219.770866 76.43203 
L 220.420825 77.248435 
L 222.045723 78.515846 
L 223.020661 79.521475 
L 224.320579 81.263448 
L 225.620497 83.431567 
L 227.245395 86.660125 
L 228.870293 90.381122 
L 230.82017 95.393869 
L 233.095026 101.867949 
L 235.694863 109.93321 
L 238.944658 120.794227 
L 242.844412 134.683485 
L 247.394125 151.73305 
L 251.29388 166.864036 
L 251.618859 167.07985 
L 252.268818 165.333082 
L 252.918777 164.574044 
L 254.868655 163.274772 
L 255.843593 162.312586 
L 257.143511 160.672794 
L 258.443429 158.686657 
L 260.068327 155.75539 
L 262.018204 151.650835 
L 263.968081 147.060972 
L 266.242938 141.122592 
L 269.167754 132.81532 
L 271.76759 124.917555 
L 275.667344 112.262757 
L 280.867017 94.584054 
L 283.791832 83.990496 
L 284.116812 83.870502 
L 284.766771 85.886328 
L 285.41673 86.942656 
L 287.366607 89.180983 
L 288.666525 91.149177 
L 289.966443 93.533925 
L 291.591341 97.046189 
L 293.541218 101.917996 
L 295.816075 108.341312 
L 298.415911 116.456359 
L 301.340727 126.347177 
L 304.915501 139.248945 
L 309.465215 156.578633 
L 315.314846 179.832849 
L 317.264723 187.424566 
L 319.2146 193.766509 
L 321.489457 200.472768 
L 323.764314 206.528519 
L 326.039171 211.989401 
L 328.314027 216.907973 
L 330.588884 221.33394 
L 332.863741 225.313816 
L 335.138597 228.890738 
L 337.413454 232.104419 
L 340.01329 235.378866 
L 342.613126 238.275277 
L 345.212962 240.837465 
L 347.812799 243.104463 
L 350.737614 245.344905 
L 353.66243 247.298717 
L 356.912225 249.179072 
L 360.162021 250.796424 
L 363.736795 252.316913 
L 367.63655 253.715071 
L 371.861284 254.974724 
L 376.410997 256.088198 
L 380.96071 256.996879 
L 380.96071 256.996879 
" clip-path="url(#p6ab41cecb4)" style="fill: none; stroke: #ff4500; stroke-linecap: square"/>
   </g>
   <g id="line2d_16">
    <path d="M 56.306165 251.946592 
L 56.631144 248.296864 
L 56.956124 246.150474 
L 57.281103 244.890349 
L 57.606083 244.151451 
L 58.256042 243.465461 
L 58.906001 243.230967 
L 60.205919 243.123882 
L 67.030489 243.109938 
L 120.97709 243.109938 
L 121.30207 253.041446 
L 121.627049 253.521762 
L 121.952029 250.961862 
L 122.601988 240.451739 
L 124.876845 195.57213 
L 125.851783 180.239442 
L 127.151701 163.523758 
L 128.451619 149.66907 
L 129.426558 141.586948 
L 130.401496 135.546785 
L 131.701415 128.962224 
L 133.001333 123.458414 
L 133.976271 119.578011 
L 134.301251 99.319803 
L 134.62623 91.709176 
L 135.276189 83.541963 
L 135.926148 78.771443 
L 136.251128 76.967561 
L 136.576107 75.844247 
L 136.901087 75.198523 
L 137.226066 74.880508 
L 137.551046 74.763711 
L 138.525985 74.709456 
L 139.500923 74.512043 
L 140.150882 74.098973 
L 140.800841 73.41175 
L 141.77578 71.905981 
L 143.400677 68.814774 
L 145.025575 65.337641 
L 147.300432 59.814334 
L 152.825084 45.927491 
L 153.475043 44.50012 
L 153.800022 19.296 
L 154.774961 87.724974 
L 155.42492 116.167818 
L 156.074879 132.824363 
L 156.724838 142.507557 
L 157.374797 148.336526 
L 158.024756 152.028311 
L 158.674715 154.563362 
L 159.649654 157.332017 
L 161.599531 161.86862 
L 167.124183 174.372078 
L 170.698958 183.134238 
L 173.948753 191.885204 
L 177.848507 203.150631 
L 182.073241 215.965302 
L 185.972995 228.544148 
L 186.622954 215.105636 
L 187.922872 186.249629 
L 188.897811 169.255227 
L 189.87275 156.318824 
L 190.847688 146.404797 
L 191.822627 138.597534 
L 193.122545 130.262247 
L 194.422463 123.32963 
L 196.047361 115.851265 
L 198.322217 106.555446 
L 201.572012 94.142653 
L 203.846869 86.137102 
L 208.071603 71.999275 
L 210.671439 64.698239 
L 216.196091 49.820689 
L 218.145968 45.254896 
L 218.470948 44.541305 
L 218.795927 19.330034 
L 219.770866 87.740458 
L 220.420825 116.176098 
L 221.070784 132.828696 
L 221.720743 142.509815 
L 222.370702 148.337724 
L 223.020661 152.028892 
L 223.67062 154.563662 
L 224.645559 157.332124 
L 226.595436 161.86862 
L 232.120088 174.372078 
L 235.694863 183.134238 
L 238.944658 191.885204 
L 242.844412 203.150631 
L 247.069146 215.965302 
L 250.9689 228.544148 
L 251.29388 210.477833 
L 251.943839 197.861792 
L 252.918777 187.160229 
L 253.893716 178.778207 
L 255.193634 169.719346 
L 256.818532 160.39731 
L 259.418368 147.254078 
L 263.643102 127.11563 
L 266.242938 115.65994 
L 270.467672 97.976585 
L 274.367426 82.884121 
L 277.292242 72.463703 
L 281.516976 58.38389 
L 283.466853 52.410184 
L 283.791832 44.465935 
L 284.441791 87.174345 
L 285.09175 112.055276 
L 285.741709 125.079909 
L 286.391668 132.08464 
L 287.041628 136.227255 
L 287.691587 139.054736 
L 288.991505 143.365222 
L 296.791013 167.382426 
L 300.365788 179.455921 
L 304.590522 194.661919 
L 308.815256 210.672963 
L 312.39003 224.953759 
L 316.614764 242.034667 
L 316.939744 242.493266 
L 317.589703 242.906871 
L 318.564641 243.071438 
L 321.489457 243.109668 
L 380.96071 243.109936 
L 380.96071 243.109936 
" clip-path="url(#p6ab41cecb4)" style="fill: none; stroke-dasharray: 3.7,1.6; stroke-dashoffset: 0; stroke: #ff4500"/>
   </g>
   <g id="line2d_17">
    <path d="M 56.306165 248.605664 
L 59.23098 248.380728 
L 59.55596 247.855866 
L 119.677172 247.855866 
L 120.327131 245.911858 
L 120.652111 244.376665 
L 120.97709 241.693713 
L 121.627049 234.800149 
L 122.277008 228.29479 
L 122.926967 219.871236 
L 123.576926 212.721133 
L 124.226885 203.852225 
L 124.876845 196.542146 
L 125.526804 187.539312 
L 126.176763 180.204775 
L 126.826722 171.160626 
L 127.476681 163.841423 
L 128.12664 154.780527 
L 128.776599 147.490374 
L 129.426558 138.427413 
L 130.076517 131.170141 
L 130.726476 122.108704 
L 131.376435 114.885454 
L 132.026394 105.827696 
L 132.676353 98.637102 
L 133.326312 89.586092 
L 133.976271 84.376248 
L 134.301251 81.292519 
L 134.62623 79.549555 
L 134.95121 80.040431 
L 135.276189 79.326748 
L 135.601169 77.527985 
L 135.926148 76.794409 
L 136.251128 78.125614 
L 136.576107 78.13127 
L 136.901087 76.718118 
L 137.226066 76.254187 
L 137.876026 80.368167 
L 138.201005 81.167528 
L 138.525985 82.36859 
L 139.175944 87.947559 
L 139.825903 90.544926 
L 140.475862 96.398623 
L 141.125821 99.066568 
L 141.77578 104.980671 
L 142.425739 107.626477 
L 143.075698 113.532732 
L 143.725657 116.125412 
L 144.375616 122.06407 
L 145.025575 124.600952 
L 145.675534 130.541987 
L 146.325493 133.031328 
L 146.975452 138.949547 
L 147.625411 141.378151 
L 148.27537 147.323007 
L 148.925329 149.693644 
L 149.575288 155.638555 
L 150.225247 157.967981 
L 150.875207 163.889382 
L 151.200186 164.309268 
L 151.525166 163.888871 
L 152.175125 166.114012 
L 152.500104 165.692767 
L 152.825084 164.740112 
L 153.475043 166.413001 
L 153.800022 165.873731 
L 154.125002 164.799772 
L 154.774961 166.375753 
L 155.09994 165.859017 
L 155.42492 164.722531 
L 155.749899 165.384548 
L 156.074879 166.315691 
L 156.399858 165.762734 
L 156.724838 164.633285 
L 157.049818 165.322578 
L 157.374797 166.275733 
L 157.699777 165.718883 
L 158.024756 164.546111 
L 158.349736 165.209649 
L 158.674715 166.190313 
L 158.999695 165.683451 
L 159.324674 164.469272 
L 159.649654 165.128915 
L 159.974633 166.15516 
L 160.299613 165.618379 
L 160.624592 164.415295 
L 160.949572 165.104028 
L 161.274551 166.1551 
L 161.599531 165.616244 
L 161.92451 164.371458 
L 162.24949 165.035324 
L 162.574469 166.143326 
L 162.899449 165.641044 
L 163.224428 164.349781 
L 163.549408 164.712157 
L 163.874388 165.96897 
L 164.199367 165.920688 
L 164.524347 166.217047 
L 164.849326 167.189575 
L 165.174306 168.877798 
L 165.499285 169.075316 
L 165.824265 169.609212 
L 166.149244 170.707394 
L 166.474224 172.461769 
L 166.799203 172.700159 
L 167.124183 173.262118 
L 167.449162 174.355183 
L 167.774142 176.161255 
L 168.099121 176.388561 
L 168.424101 176.995015 
L 168.74908 178.063782 
L 169.07406 179.898109 
L 169.399039 180.133853 
L 169.724019 180.741579 
L 170.048999 181.840176 
L 170.373978 183.680733 
L 170.698958 183.899045 
L 171.023937 184.514486 
L 171.348917 185.60038 
L 171.673896 187.487167 
L 171.998876 187.712428 
L 172.323855 188.354345 
L 172.648835 189.409481 
L 172.973814 191.319841 
L 173.298794 191.552148 
L 173.623773 192.193543 
L 173.948753 193.27046 
L 174.273732 195.198315 
L 174.598712 195.421194 
L 174.923691 196.074526 
L 175.248671 197.14716 
L 175.57365 199.109297 
L 175.89863 199.333651 
L 176.223609 199.980139 
L 176.548589 201.034701 
L 176.873569 203.025901 
L 178.173487 205.120208 
L 178.498466 205.020105 
L 178.823446 205.182436 
L 179.148425 205.531318 
L 179.473405 205.712 
L 179.798384 205.515678 
L 180.123364 205.653405 
L 180.448343 205.975317 
L 180.773323 206.120993 
L 181.098302 205.919992 
L 181.423282 206.039964 
L 181.748261 206.362659 
L 182.073241 206.49045 
L 182.39822 206.295974 
L 182.7232 206.439172 
L 183.04818 206.754826 
L 183.373159 206.867922 
L 183.698139 206.67382 
L 184.023118 206.851876 
L 184.348098 207.178701 
L 184.673077 207.291395 
L 184.998057 207.094578 
L 185.323036 207.277764 
L 185.648016 207.618415 
L 185.972995 207.723619 
L 186.297975 207.549759 
L 186.622954 207.743644 
L 186.947934 208.071863 
L 187.272913 208.16076 
L 187.597893 207.993847 
L 188.572831 208.624645 
L 188.897811 208.456863 
L 189.87275 209.115172 
L 190.197729 208.958059 
L 191.172668 209.620985 
L 191.497647 209.478053 
L 192.472586 210.144169 
L 192.797565 210.002816 
L 193.447524 210.639324 
L 193.772504 210.692786 
L 194.097483 210.56017 
L 194.747442 211.201142 
L 195.072422 211.262663 
L 195.397401 211.147627 
L 196.047361 211.809902 
L 196.37234 211.860017 
L 196.69732 211.749157 
L 197.347279 212.444146 
L 197.672258 212.483019 
L 197.997238 212.380898 
L 198.647197 213.091897 
L 198.972176 213.1259 
L 199.297156 213.035341 
L 199.947115 213.748167 
L 200.272094 213.784917 
L 200.597074 213.706941 
L 201.247033 214.456276 
L 201.896992 214.418817 
L 202.546951 215.175252 
L 203.19691 215.150584 
L 203.846869 215.924655 
L 204.496828 215.91159 
L 205.146787 216.700432 
L 205.796746 216.70138 
L 206.446705 217.504905 
L 206.771685 217.500538 
L 207.421644 216.594518 
L 207.746623 216.523061 
L 208.071603 215.7844 
L 208.721562 213.683837 
L 209.046542 213.328339 
L 209.696501 211.114729 
L 210.02148 209.860525 
L 210.34646 209.408913 
L 210.996419 207.048168 
L 211.321398 205.706605 
L 211.646378 205.215235 
L 212.296337 202.779833 
L 212.621316 201.375779 
L 212.946296 200.856896 
L 213.596255 198.365284 
L 213.921234 196.905171 
L 214.246214 196.361735 
L 214.896173 193.818237 
L 215.221152 192.304617 
L 215.546132 191.739589 
L 216.196091 189.148998 
L 216.521071 187.581529 
L 216.84605 186.992536 
L 217.496009 184.35392 
L 217.820989 182.731988 
L 218.145968 182.118251 
L 218.795927 179.428664 
L 219.120907 177.754306 
L 219.445886 177.116597 
L 220.095845 174.382879 
L 220.420825 172.686385 
L 220.745804 172.447854 
L 221.070784 172.03334 
L 221.720743 170.007291 
L 222.045723 170.361789 
L 222.370702 170.521698 
L 223.020661 168.949502 
L 223.67062 169.821618 
L 224.320579 168.359533 
L 224.970538 169.356752 
L 225.620497 167.908873 
L 226.270456 168.958055 
L 226.920415 167.52096 
L 227.570374 168.6302 
L 228.220333 167.150606 
L 228.870293 168.320288 
L 229.195272 167.700485 
L 229.520252 166.817292 
L 230.170211 167.995739 
L 230.49519 167.41014 
L 230.82017 166.506231 
L 231.470129 167.743434 
L 231.795108 167.130164 
L 232.120088 166.209651 
L 232.770047 167.509459 
L 233.095026 166.907184 
L 233.420006 165.951667 
L 234.069965 167.258071 
L 234.394944 166.688332 
L 234.719924 165.710911 
L 235.369883 167.072763 
L 235.694863 166.475652 
L 236.019842 165.480934 
L 236.669801 166.902142 
L 236.994781 166.3198 
L 237.31976 165.289889 
L 237.969719 166.747119 
L 238.294699 166.182914 
L 238.619678 165.12243 
L 239.269637 166.594517 
L 239.594617 166.019204 
L 239.919596 164.959578 
L 240.569555 166.470871 
L 240.894535 165.903651 
L 241.219514 164.807548 
L 241.869474 166.38362 
L 242.194453 165.822881 
L 242.519433 164.68981 
L 242.844412 165.353465 
L 243.169392 166.284839 
L 243.494371 165.769882 
L 243.819351 164.62469 
L 244.14433 165.26748 
L 244.46931 166.234708 
L 244.794289 165.68457 
L 245.119269 164.51484 
L 245.444248 165.180557 
L 245.769228 166.193623 
L 246.094207 165.651117 
L 246.419187 164.445614 
L 246.744166 165.110631 
L 247.069146 166.14103 
L 247.394125 165.642956 
L 247.719105 164.425667 
L 248.044085 165.0701 
L 248.369064 166.136205 
L 248.694044 165.604575 
L 249.019023 164.362846 
L 249.344003 165.049342 
L 249.668982 166.147186 
L 249.993962 165.194967 
L 250.318941 164.731007 
L 250.643921 165.441482 
L 250.9689 166.92124 
L 251.29388 166.992352 
L 251.618859 167.389134 
L 251.943839 168.430281 
L 252.268818 170.160877 
L 252.593798 170.382865 
L 252.918777 170.937881 
L 253.243757 172.038008 
L 253.568736 173.809886 
L 253.893716 174.035926 
L 254.218695 174.618622 
L 254.543675 175.72154 
L 254.868655 177.521373 
L 255.193634 177.762798 
L 255.518614 178.346853 
L 255.843593 179.43364 
L 256.168573 181.278378 
L 256.493552 181.519077 
L 256.818532 182.129843 
L 257.143511 183.185556 
L 257.468491 185.054595 
L 257.79347 185.28664 
L 258.11845 185.90987 
L 258.443429 186.99976 
L 258.768409 188.877345 
L 259.093388 189.114981 
L 259.418368 189.734242 
L 259.743347 190.806096 
L 260.068327 192.725962 
L 260.393306 192.948082 
L 260.718286 193.605746 
L 261.043266 194.653249 
L 261.368245 196.600627 
L 261.693225 196.832407 
L 262.018204 197.490469 
L 262.343184 198.565607 
L 262.668163 200.518537 
L 262.993143 200.735546 
L 263.318122 201.402005 
L 263.968081 204.068345 
L 264.293061 204.244554 
L 265.267999 205.370072 
L 265.592979 205.219217 
L 265.917958 205.349887 
L 266.567917 205.849773 
L 266.892897 205.6608 
L 267.217876 205.787129 
L 267.542856 206.102455 
L 267.867836 206.242919 
L 268.192815 206.027692 
L 268.517795 206.17372 
L 268.842774 206.491614 
L 269.167754 206.615812 
L 269.492733 206.420273 
L 269.817713 206.56307 
L 270.142692 206.874564 
L 270.467672 207.001323 
L 270.792651 206.821343 
L 271.117631 206.992232 
L 271.44261 207.315207 
L 271.76759 207.416844 
L 272.092569 207.233147 
L 273.067508 207.869901 
L 273.392487 207.694128 
L 273.717467 207.887052 
L 274.042447 208.226699 
L 274.367426 208.316245 
L 274.692406 208.150136 
L 275.667344 208.786243 
L 275.992324 208.623209 
L 276.967262 209.286272 
L 277.292242 209.131813 
L 278.26718 209.805961 
L 278.59216 209.659398 
L 279.567098 210.335394 
L 279.892078 210.20202 
L 280.542037 210.83011 
L 280.867017 210.883704 
L 281.191996 210.753135 
L 281.841955 211.417367 
L 282.166935 211.469395 
L 282.491914 211.351755 
L 283.141873 212.021171 
L 283.466853 212.074578 
L 283.791832 211.972257 
L 284.441791 212.65614 
L 284.766771 212.696777 
L 285.09175 212.598692 
L 285.741709 213.313949 
L 286.066689 213.346099 
L 286.391668 213.257924 
L 287.041628 213.979308 
L 287.691587 213.953647 
L 288.341546 214.69323 
L 288.991505 214.66018 
L 289.641464 215.422246 
L 290.291423 215.40143 
L 290.941382 216.180243 
L 291.591341 216.171368 
L 292.2413 216.966687 
L 292.891259 216.970116 
L 293.216238 217.390536 
L 293.541218 218.249728 
L 294.191177 219.089961 
L 294.516157 219.180469 
L 294.841136 219.914489 
L 295.491095 220.488183 
L 295.816075 220.446727 
L 296.141054 221.113792 
L 296.791013 221.567288 
L 297.115993 221.463689 
L 297.440972 222.094981 
L 298.090931 222.475767 
L 298.415911 222.321436 
L 298.74089 222.923563 
L 299.390849 223.236809 
L 299.715829 223.032574 
L 300.040809 223.606023 
L 300.690768 223.85334 
L 301.015747 223.599545 
L 301.340727 224.1432 
L 301.990686 224.327714 
L 302.315665 224.026012 
L 302.640645 224.541873 
L 303.290604 224.663517 
L 303.615583 224.311942 
L 303.940563 224.798433 
L 304.590522 224.856387 
L 304.915501 224.453738 
L 305.240481 224.910246 
L 305.89044 224.90541 
L 306.215419 224.452293 
L 306.540399 224.879899 
L 306.865379 224.860047 
L 307.190358 224.343861 
L 307.515338 223.384206 
L 307.840317 223.412132 
L 308.165297 223.699891 
L 308.490276 223.284208 
L 308.815256 222.417638 
L 309.140235 222.549693 
L 309.465215 222.945918 
L 309.790194 222.569881 
L 310.115174 221.720758 
L 310.440153 221.888377 
L 310.765133 222.324956 
L 311.090112 221.958748 
L 311.415092 221.100345 
L 311.740071 221.282959 
L 312.065051 221.747819 
L 312.39003 221.383725 
L 312.71501 220.513278 
L 313.03999 220.703767 
L 313.364969 221.208014 
L 313.689949 220.849892 
L 314.014928 219.957464 
L 314.339908 220.161061 
L 314.664887 220.674008 
L 314.989867 220.332485 
L 315.314846 219.421861 
L 315.639826 219.638341 
L 315.964805 220.177853 
L 316.289785 219.817883 
L 316.614764 218.898965 
L 316.939744 219.119569 
L 317.264723 219.701158 
L 317.589703 219.3514 
L 317.914682 218.412534 
L 318.239662 218.645008 
L 318.564641 219.236487 
L 318.889621 218.902734 
L 319.2146 217.948248 
L 319.53958 218.192126 
L 319.86456 218.810332 
L 320.189539 218.45792 
L 320.514519 217.494179 
L 320.839498 217.741455 
L 321.164478 218.401827 
L 321.489457 218.059509 
L 321.814437 217.075124 
L 322.139416 217.331628 
L 322.464396 218.001987 
L 322.789375 217.675336 
L 323.114355 216.67347 
L 323.439334 216.942727 
L 323.764314 217.639348 
L 324.089293 217.294176 
L 324.414273 216.282163 
L 324.739252 216.565792 
L 325.064232 217.292266 
L 325.389211 216.950685 
L 325.714191 215.912575 
L 326.039171 216.192359 
L 326.36415 216.937693 
L 326.68913 216.620989 
L 327.014109 215.555616 
L 327.339089 215.843626 
L 327.664068 216.625152 
L 327.989048 216.28938 
L 328.314027 215.23148 
L 328.639007 215.519565 
L 328.963986 216.332 
L 329.288966 215.998704 
L 329.613945 214.914139 
L 329.938925 215.216428 
L 330.263904 216.059018 
L 330.588884 215.739753 
L 330.913863 214.615993 
L 331.238843 214.91783 
L 331.563822 215.773901 
L 331.888802 215.446403 
L 332.213781 214.335757 
L 332.538761 214.638445 
L 332.863741 215.526035 
L 333.18872 215.200325 
L 333.5137 214.06337 
L 333.838679 214.379511 
L 334.163659 215.296699 
L 334.488638 214.98421 
L 334.813618 213.808339 
L 335.138597 214.123151 
L 335.463577 215.053688 
L 335.788556 214.753848 
L 336.113536 213.575203 
L 336.763495 214.277445 
L 337.413454 213.333655 
L 337.738433 213.454585 
L 338.063413 214.328411 
L 338.388392 214.026181 
L 338.713372 213.934535 
L 339.038352 214.155234 
L 339.363331 215.126725 
L 339.688311 214.871389 
L 340.01329 214.829513 
L 340.33827 215.050039 
L 340.663249 216.059113 
L 340.988229 215.817543 
L 341.313208 215.786835 
L 341.638188 216.034093 
L 341.963167 217.069237 
L 342.288147 216.833874 
L 342.613126 216.823167 
L 342.938106 217.077215 
L 343.263085 218.147439 
L 343.588065 217.925603 
L 343.913044 217.917863 
L 344.238024 218.173359 
L 344.563003 219.283011 
L 344.887983 219.07439 
L 345.212962 219.093567 
L 345.537942 219.364092 
L 345.862922 220.493488 
L 346.187901 220.289932 
L 346.512881 220.327334 
L 346.83786 220.603863 
L 347.16284 221.767495 
L 347.487819 221.587677 
L 347.812799 221.633969 
L 348.137778 221.915741 
L 348.462758 223.11966 
L 348.787737 222.944061 
L 349.112717 223.01042 
L 349.437696 223.284794 
L 349.762676 224.523328 
L 350.087655 224.360096 
L 350.737614 225.580435 
L 351.062594 226.005892 
L 351.387573 226.067491 
L 352.362512 226.740511 
L 352.687492 226.713154 
L 354.962348 227.822558 
L 355.287328 227.806446 
L 357.562184 228.947041 
L 358.212143 229.025719 
L 358.862103 229.248083 
L 359.512062 229.307635 
L 360.162021 229.524642 
L 360.487 229.496981 
L 362.761857 230.105834 
L 363.086836 230.06311 
L 364.711734 230.457923 
L 364.711734 230.457923 
" clip-path="url(#p6ab41cecb4)" style="fill: none; stroke-dasharray: 6.4,1.6,1,1.6; stroke-dashoffset: 0; stroke: #ff4500"/>
   </g>
   <g id="patch_3">
    <path d="M 40.073438 273.312 
L 40.073438 7.2 
" style="fill: none; stroke: #000000; stroke-width: 0.8; stroke-linejoin: miter; stroke-linecap: square"/>
   </g>
   <g id="patch_4">
    <path d="M 397.193438 273.312 
L 397.193438 7.2 
" style="fill: none; stroke: #000000; stroke-width: 0.8; stroke-linejoin: miter; stroke-linecap: square"/>
   </g>
   <g id="patch_5">
    <path d="M 40.073438 273.312 
L 397.193437 273.312 
" style="fill: none; stroke: #000000; stroke-width: 0.8; stroke-linejoin: miter; stroke-linecap: square"/>
   </g>
   <g id="patch_6">
    <path d="M 40.073438 7.2 
L 397.193437 7.2 
" style="fill: none; stroke: #000000; stroke-width: 0.8; stroke-linejoin: miter; stroke-linecap: square"/>
   </g>
   <g id="legend_1">
    <g id="patch_7">
     <path d="M 199.968437 59.234375 
L 390.193438 59.234375 
Q 392.193438 59.234375 392.193438 57.234375 
L 392.193438 14.2 
Q 392.193438 12.2 390.193438 12.2 
L 199.968437 12.2 
Q 197.968437 12.2 197.968437 14.2 
L 197.968437 57.234375 
Q 197.968437 59.234375 199.968437 59.234375 
z
" style="fill: #ffffff; opacity: 0.8; stroke: #cccccc; stroke-linejoin: miter"/>
    </g>
    <g id="line2d_18">
     <path d="M 201.968437 20.298437 
L 211.968437 20.298437 
L 221.968437 20.298437 
" style="fill: none; stroke: #ff4500; stroke-linecap: square"/>
    </g>
    <g id="text_15">
     <text style="font: 10px 'DejaVu Sans', 'Bitstream Vera Sans', 'Computer Modern Sans Serif', 'Lucida Grande', 'Verdana', 'Geneva', 'Lucid', 'Arial', 'Helvetica', 'Avant Garde', sans-serif; text-anchor: start" x="229.968437" y="23.798437" transform="rotate(-0 229.968437 23.798437)">Target response DB1</text>
    </g>
    <g id="line2d_19">
     <path d="M 201.968437 34.976562 
L 211.968437 34.976562 
L 221.968437 34.976562 
" style="fill: none; stroke-dasharray: 3.7,1.6; stroke-dashoffset: 0; stroke: #ff4500"/>
    </g>
    <g id="text_16">
     <text style="font: 10px 'DejaVu Sans', 'Bitstream Vera Sans', 'Computer Modern Sans Serif', 'Lucida Grande', 'Verdana', 'Geneva', 'Lucid', 'Arial', 'Helvetica', 'Avant Garde', sans-serif; text-anchor: start" x="229.968437" y="38.476562" transform="rotate(-0 229.968437 38.476562)">Digital prediction DB1</text>
    </g>
    <g id="line2d_20">
     <path d="M 201.968437 49.654687 
L 211.968437 49.654687 
L 221.968437 49.654687 
" style="fill: none; stroke-dasharray: 6.4,1.6,1,1.6; stroke-dashoffset: 0; stroke: #ff4500"/>
    </g>
    <g id="text_17">
     <text style="font: 10px 'DejaVu Sans', 'Bitstream Vera Sans', 'Computer Modern Sans Serif', 'Lucida Grande', 'Verdana', 'Geneva', 'Lucid', 'Arial', 'Helvetica', 'Avant Garde', sans-serif; text-anchor: start" x="229.968437" y="53.154687" transform="rotate(-0 229.968437 53.154687)">Adjusted analog prediction DB1</text>
    </g>
   </g>
  </g>
 </g>
 <defs>
  <clipPath id="p6ab41cecb4">
   <rect x="40.073438" y="7.2" width="357.12" height="266.112"/>
  </clipPath>
 </defs>
</svg>
