<?xml version="1.0" encoding="utf-8" standalone="no"?>
<!DOCTYPE svg PUBLIC "-//W3C//DTD SVG 1.1//EN"
  "http://www.w3.org/Graphics/SVG/1.1/DTD/svg11.dtd">
<svg xmlns:xlink="http://www.w3.org/1999/xlink" width="398.030937pt" height="297.190125pt" viewBox="0 0 398.030937 297.190125" xmlns="http://www.w3.org/2000/svg" version="1.1">
 <metadata>
  <rdf:RDF xmlns:dc="http://purl.org/dc/elements/1.1/" xmlns:cc="http://creativecommons.org/ns#" xmlns:rdf="http://www.w3.org/1999/02/22-rdf-syntax-ns#">
   <cc:Work>
    <dc:type rdf:resource="http://purl.org/dc/dcmitype/StillImage"/>
    <dc:date>2023-10-26T12:01:56.595249</dc:date>
    <dc:format>image/svg+xml</dc:format>
    <dc:creator>
     <cc:Agent>
      <dc:title>Matplotlib v3.8.0, https://matplotlib.org/</dc:title>
     </cc:Agent>
    </dc:creator>
   </cc:Work>
  </rdf:RDF>
 </metadata>
 <defs>
  <style type="text/css">*{stroke-linejoin: round; stroke-linecap: butt}</style>
 </defs>
 <g id="figure_1">
  <g id="patch_1">
   <path d="M 0 297.190125 
L 398.030937 297.190125 
L 398.030937 0 
L 0 0 
z
" style="fill: #ffffff"/>
  </g>
  <g id="axes_1">
   <g id="patch_2">
    <path d="M 33.710938 273.312 
L 390.830938 273.312 
L 390.830938 7.2 
L 33.710938 7.2 
z
" style="fill: #ffffff"/>
   </g>
   <g id="matplotlib.axis_1">
    <g id="xtick_1">
     <g id="line2d_1">
      <defs>
       <path id="mcf53c0dcbd" d="M 0 0 
L 0 3.5 
" style="stroke: #000000; stroke-width: 0.8"/>
      </defs>
      <g>
       <use xlink:href="#mcf53c0dcbd" x="49.943665" y="273.312" style="stroke: #000000; stroke-width: 0.8"/>
      </g>
     </g>
     <g id="text_1">
      <text style="font: 10px 'DejaVu Sans', 'Bitstream Vera Sans', 'Computer Modern Sans Serif', 'Lucida Grande', 'Verdana', 'Geneva', 'Lucid', 'Arial', 'Helvetica', 'Avant Garde', sans-serif; text-anchor: middle" x="49.943665" y="287.910437" transform="rotate(-0 49.943665 287.910437)">0</text>
     </g>
    </g>
    <g id="xtick_2">
     <g id="line2d_2">
      <g>
       <use xlink:href="#mcf53c0dcbd" x="114.93957" y="273.312" style="stroke: #000000; stroke-width: 0.8"/>
      </g>
     </g>
     <g id="text_2">
      <text style="font: 10px 'DejaVu Sans', 'Bitstream Vera Sans', 'Computer Modern Sans Serif', 'Lucida Grande', 'Verdana', 'Geneva', 'Lucid', 'Arial', 'Helvetica', 'Avant Garde', sans-serif; text-anchor: middle" x="114.93957" y="287.910437" transform="rotate(-0 114.93957 287.910437)">100</text>
     </g>
    </g>
    <g id="xtick_3">
     <g id="line2d_3">
      <g>
       <use xlink:href="#mcf53c0dcbd" x="179.935475" y="273.312" style="stroke: #000000; stroke-width: 0.8"/>
      </g>
     </g>
     <g id="text_3">
      <text style="font: 10px 'DejaVu Sans', 'Bitstream Vera Sans', 'Computer Modern Sans Serif', 'Lucida Grande', 'Verdana', 'Geneva', 'Lucid', 'Arial', 'Helvetica', 'Avant Garde', sans-serif; text-anchor: middle" x="179.935475" y="287.910437" transform="rotate(-0 179.935475 287.910437)">200</text>
     </g>
    </g>
    <g id="xtick_4">
     <g id="line2d_4">
      <g>
       <use xlink:href="#mcf53c0dcbd" x="244.93138" y="273.312" style="stroke: #000000; stroke-width: 0.8"/>
      </g>
     </g>
     <g id="text_4">
      <text style="font: 10px 'DejaVu Sans', 'Bitstream Vera Sans', 'Computer Modern Sans Serif', 'Lucida Grande', 'Verdana', 'Geneva', 'Lucid', 'Arial', 'Helvetica', 'Avant Garde', sans-serif; text-anchor: middle" x="244.93138" y="287.910437" transform="rotate(-0 244.93138 287.910437)">300</text>
     </g>
    </g>
    <g id="xtick_5">
     <g id="line2d_5">
      <g>
       <use xlink:href="#mcf53c0dcbd" x="309.927285" y="273.312" style="stroke: #000000; stroke-width: 0.8"/>
      </g>
     </g>
     <g id="text_5">
      <text style="font: 10px 'DejaVu Sans', 'Bitstream Vera Sans', 'Computer Modern Sans Serif', 'Lucida Grande', 'Verdana', 'Geneva', 'Lucid', 'Arial', 'Helvetica', 'Avant Garde', sans-serif; text-anchor: middle" x="309.927285" y="287.910437" transform="rotate(-0 309.927285 287.910437)">400</text>
     </g>
    </g>
    <g id="xtick_6">
     <g id="line2d_6">
      <g>
       <use xlink:href="#mcf53c0dcbd" x="374.92319" y="273.312" style="stroke: #000000; stroke-width: 0.8"/>
      </g>
     </g>
     <g id="text_6">
      <text style="font: 10px 'DejaVu Sans', 'Bitstream Vera Sans', 'Computer Modern Sans Serif', 'Lucida Grande', 'Verdana', 'Geneva', 'Lucid', 'Arial', 'Helvetica', 'Avant Garde', sans-serif; text-anchor: middle" x="374.92319" y="287.910437" transform="rotate(-0 374.92319 287.910437)">500</text>
     </g>
    </g>
   </g>
   <g id="matplotlib.axis_2">
    <g id="ytick_1">
     <g id="line2d_7">
      <defs>
       <path id="m548a25d530" d="M 0 0 
L -3.5 0 
" style="stroke: #000000; stroke-width: 0.8"/>
      </defs>
      <g>
       <use xlink:href="#m548a25d530" x="33.710938" y="264.325616" style="stroke: #000000; stroke-width: 0.8"/>
      </g>
     </g>
     <g id="text_7">
      <text style="font: 10px 'DejaVu Sans', 'Bitstream Vera Sans', 'Computer Modern Sans Serif', 'Lucida Grande', 'Verdana', 'Geneva', 'Lucid', 'Arial', 'Helvetica', 'Avant Garde', sans-serif; text-anchor: end" x="26.710938" y="268.124835" transform="rotate(-0 26.710938 268.124835)">-0.2</text>
     </g>
    </g>
    <g id="ytick_2">
     <g id="line2d_8">
      <g>
       <use xlink:href="#m548a25d530" x="33.710938" y="228.30157" style="stroke: #000000; stroke-width: 0.8"/>
      </g>
     </g>
     <g id="text_8">
      <text style="font: 10px 'DejaVu Sans', 'Bitstream Vera Sans', 'Computer Modern Sans Serif', 'Lucida Grande', 'Verdana', 'Geneva', 'Lucid', 'Arial', 'Helvetica', 'Avant Garde', sans-serif; text-anchor: end" x="26.710938" y="232.100789" transform="rotate(-0 26.710938 232.100789)">0.0</text>
     </g>
    </g>
    <g id="ytick_3">
     <g id="line2d_9">
      <g>
       <use xlink:href="#m548a25d530" x="33.710938" y="192.277524" style="stroke: #000000; stroke-width: 0.8"/>
      </g>
     </g>
     <g id="text_9">
      <text style="font: 10px 'DejaVu Sans', 'Bitstream Vera Sans', 'Computer Modern Sans Serif', 'Lucida Grande', 'Verdana', 'Geneva', 'Lucid', 'Arial', 'Helvetica', 'Avant Garde', sans-serif; text-anchor: end" x="26.710938" y="196.076743" transform="rotate(-0 26.710938 196.076743)">0.2</text>
     </g>
    </g>
    <g id="ytick_4">
     <g id="line2d_10">
      <g>
       <use xlink:href="#m548a25d530" x="33.710938" y="156.253478" style="stroke: #000000; stroke-width: 0.8"/>
      </g>
     </g>
     <g id="text_10">
      <text style="font: 10px 'DejaVu Sans', 'Bitstream Vera Sans', 'Computer Modern Sans Serif', 'Lucida Grande', 'Verdana', 'Geneva', 'Lucid', 'Arial', 'Helvetica', 'Avant Garde', sans-serif; text-anchor: end" x="26.710938" y="160.052697" transform="rotate(-0 26.710938 160.052697)">0.4</text>
     </g>
    </g>
    <g id="ytick_5">
     <g id="line2d_11">
      <g>
       <use xlink:href="#m548a25d530" x="33.710938" y="120.229433" style="stroke: #000000; stroke-width: 0.8"/>
      </g>
     </g>
     <g id="text_11">
      <text style="font: 10px 'DejaVu Sans', 'Bitstream Vera Sans', 'Computer Modern Sans Serif', 'Lucida Grande', 'Verdana', 'Geneva', 'Lucid', 'Arial', 'Helvetica', 'Avant Garde', sans-serif; text-anchor: end" x="26.710938" y="124.028651" transform="rotate(-0 26.710938 124.028651)">0.6</text>
     </g>
    </g>
    <g id="ytick_6">
     <g id="line2d_12">
      <g>
       <use xlink:href="#m548a25d530" x="33.710938" y="84.205387" style="stroke: #000000; stroke-width: 0.8"/>
      </g>
     </g>
     <g id="text_12">
      <text style="font: 10px 'DejaVu Sans', 'Bitstream Vera Sans', 'Computer Modern Sans Serif', 'Lucida Grande', 'Verdana', 'Geneva', 'Lucid', 'Arial', 'Helvetica', 'Avant Garde', sans-serif; text-anchor: end" x="26.710938" y="88.004605" transform="rotate(-0 26.710938 88.004605)">0.8</text>
     </g>
    </g>
    <g id="ytick_7">
     <g id="line2d_13">
      <g>
       <use xlink:href="#m548a25d530" x="33.710938" y="48.181341" style="stroke: #000000; stroke-width: 0.8"/>
      </g>
     </g>
     <g id="text_13">
      <text style="font: 10px 'DejaVu Sans', 'Bitstream Vera Sans', 'Computer Modern Sans Serif', 'Lucida Grande', 'Verdana', 'Geneva', 'Lucid', 'Arial', 'Helvetica', 'Avant Garde', sans-serif; text-anchor: end" x="26.710938" y="51.98056" transform="rotate(-0 26.710938 51.98056)">1.0</text>
     </g>
    </g>
    <g id="ytick_8">
     <g id="line2d_14">
      <g>
       <use xlink:href="#m548a25d530" x="33.710938" y="12.157295" style="stroke: #000000; stroke-width: 0.8"/>
      </g>
     </g>
     <g id="text_14">
      <text style="font: 10px 'DejaVu Sans', 'Bitstream Vera Sans', 'Computer Modern Sans Serif', 'Lucida Grande', 'Verdana', 'Geneva', 'Lucid', 'Arial', 'Helvetica', 'Avant Garde', sans-serif; text-anchor: end" x="26.710938" y="15.956514" transform="rotate(-0 26.710938 15.956514)">1.2</text>
     </g>
    </g>
   </g>
   <g id="line2d_15">
    <path d="M 49.943665 240.009385 
L 114.93957 240.009385 
L 116.239488 229.440466 
L 118.839324 213.423007 
L 124.038996 181.803191 
L 126.638833 167.508723 
L 128.58871 157.682138 
L 130.213607 150.843621 
L 132.163485 143.574743 
L 134.113362 137.108247 
L 136.388218 130.408729 
L 138.338096 125.297728 
L 139.638014 122.740345 
L 141.262911 119.184807 
L 142.23785 117.396844 
L 144.837686 112.074723 
L 146.787563 108.671244 
L 147.437522 107.645783 
L 153.937113 101.72116 
L 155.88699 100.395944 
L 158.161847 99.128924 
L 160.436703 98.125204 
L 162.71156 97.349588 
L 164.986417 96.79507 
L 167.586253 96.336826 
L 170.511069 96.054128 
L 173.760864 95.977577 
L 177.335639 96.129832 
L 179.935475 96.369572 
L 180.585434 95.931556 
L 181.235393 95.630719 
L 183.51025 95.142179 
L 189.034901 93.906374 
L 190.00984 94.308276 
L 190.659799 94.199592 
L 195.534492 92.457703 
L 201.709103 90.713869 
L 202.684042 91.08987 
L 203.334001 90.939398 
L 206.583796 89.545159 
L 207.233755 89.856947 
L 207.883714 89.826921 
L 209.183632 89.204173 
L 211.133509 88.334319 
L 212.433427 87.854911 
L 213.083386 88.139429 
L 213.733345 88.296818 
L 222.507793 88.848688 
L 227.057506 89.49948 
L 232.257178 90.469464 
L 238.431789 91.85983 
L 244.93138 93.533579 
L 245.906318 100.363198 
L 247.531216 108.957959 
L 252.730888 135.116009 
L 255.655704 147.720751 
L 257.930561 156.648914 
L 260.205417 164.680944 
L 262.480274 171.825899 
L 264.430151 177.296475 
L 266.380028 182.155596 
L 268.329906 186.476734 
L 270.279783 190.304902 
L 272.22966 193.67261 
L 274.179537 196.622961 
L 276.129414 199.198176 
L 277.754312 201.281068 
L 278.404271 202.506174 
L 279.704189 204.300243 
L 282.304025 207.450961 
L 284.903861 210.249128 
L 287.828677 213.067223 
L 290.753493 215.584513 
L 294.003288 218.086069 
L 297.578063 220.543039 
L 301.477817 222.941594 
L 305.702551 225.281197 
L 310.577244 227.72434 
L 314.476998 229.410011 
L 318.701732 230.994584 
L 323.251445 232.452169 
L 328.126138 233.764069 
L 333.325811 234.920612 
L 338.850462 235.920252 
L 345.025073 236.809787 
L 352.174623 237.602487 
L 360.299111 238.268298 
L 369.723517 238.813412 
L 374.59821 239.02439 
L 374.59821 239.02439 
" clip-path="url(#p5e94dc5b09)" style="fill: none; stroke: #4682b4; stroke-linecap: square"/>
   </g>
   <g id="line2d_16">
    <path d="M 49.943665 234.458321 
L 50.268644 232.137779 
L 50.593624 230.757099 
L 50.918603 229.938079 
L 51.568562 229.167252 
L 52.218521 228.899377 
L 53.51844 228.775116 
L 59.368071 228.758625 
L 114.61459 228.758625 
L 116.239488 183.525279 
L 117.214426 163.173813 
L 118.189365 146.776236 
L 119.164304 133.943544 
L 120.139242 124.095721 
L 121.114181 116.584285 
L 122.089119 110.97064 
L 122.739078 108.128042 
L 123.389037 106.008735 
L 124.038996 104.409437 
L 125.013935 102.695737 
L 125.988874 101.559394 
L 126.963812 100.82726 
L 127.613771 100.499621 
L 127.938751 37.146275 
L 128.26373 31.381617 
L 128.58871 32.668828 
L 129.238669 41.099482 
L 130.538587 60.23115 
L 131.188546 67.616854 
L 131.838505 73.235025 
L 132.488464 77.30698 
L 133.138423 80.101672 
L 133.788382 81.881548 
L 134.438341 82.876879 
L 135.0883 83.275239 
L 135.738259 83.238681 
L 136.388218 82.90065 
L 137.363157 82.006684 
L 138.338096 80.770121 
L 139.638014 78.741259 
L 141.262911 75.757658 
L 143.537768 70.955988 
L 147.112543 62.817797 
L 147.437522 19.296 
L 147.762502 29.866464 
L 148.73744 70.195023 
L 149.387399 89.100712 
L 150.037358 101.315818 
L 150.687318 108.916558 
L 151.337277 113.620299 
L 151.987236 116.557376 
L 152.637195 118.450079 
L 153.287154 119.736822 
L 154.262092 121.08848 
L 155.56201 122.402374 
L 157.836867 124.234388 
L 178.635557 139.893706 
L 179.935475 140.931168 
L 180.260454 142.388364 
L 180.585434 142.609731 
L 180.910413 141.838521 
L 181.560372 138.846858 
L 184.160209 123.888516 
L 185.135147 119.75451 
L 186.110086 116.472395 
L 187.410004 112.988468 
L 188.709922 110.11693 
L 190.659799 106.392117 
L 195.859471 96.704398 
L 199.109267 90.474003 
L 207.883714 72.567621 
L 212.108448 62.852962 
L 212.433427 19.324225 
L 212.758407 29.889339 
L 213.733345 70.205895 
L 214.383304 89.107053 
L 215.033263 101.319485 
L 215.683223 108.918686 
L 216.333182 113.621506 
L 216.983141 116.55806 
L 217.6331 118.450452 
L 218.283059 119.737033 
L 219.257997 121.08857 
L 220.557915 122.402403 
L 222.832772 124.234388 
L 243.631462 139.893706 
L 244.6064 140.580335 
L 245.256359 193.342581 
L 245.581339 205.570651 
L 245.906318 212.55176 
L 246.231298 216.46145 
L 246.556277 218.510143 
L 246.881257 219.433074 
L 247.206236 219.675677 
L 247.531216 219.512549 
L 248.181175 218.581719 
L 254.030806 207.986449 
L 259.880438 198.263035 
L 265.40509 189.30288 
L 269.954803 182.225155 
L 277.104353 171.851563 
L 277.429332 145.310105 
L 278.404271 178.405248 
L 279.05423 190.105004 
L 279.704189 195.978635 
L 280.354148 198.905698 
L 281.004107 200.434182 
L 281.654066 201.335646 
L 282.629005 202.250531 
L 285.228841 204.187778 
L 289.128595 207.201341 
L 292.70337 210.244571 
L 296.603124 213.894962 
L 301.152838 218.432624 
L 305.377571 222.943171 
L 310.252264 228.361352 
L 310.902223 228.610126 
L 312.202141 228.739384 
L 317.401814 228.758621 
L 374.59821 228.758624 
L 374.59821 228.758624 
" clip-path="url(#p5e94dc5b09)" style="fill: none; stroke-dasharray: 3.7,1.6; stroke-dashoffset: 0; stroke: #4682b4"/>
   </g>
   <g id="line2d_17">
    <path d="M 49.943665 236.288641 
L 61.317948 236.108098 
L 113.314672 236.108098 
L 113.639652 234.924811 
L 113.964631 234.279879 
L 114.289611 232.564725 
L 115.914508 219.495907 
L 116.239488 215.926813 
L 116.564467 214.039049 
L 117.214426 208.290798 
L 117.539406 204.68429 
L 118.189365 200.180231 
L 119.164304 191.492371 
L 119.814263 185.813214 
L 120.139242 182.262235 
L 120.789201 177.813827 
L 121.76414 169.275099 
L 122.414099 163.72733 
L 122.739078 160.250121 
L 123.389037 155.8841 
L 124.363976 147.518106 
L 125.013935 142.107725 
L 125.338915 138.709419 
L 125.988874 134.42889 
L 126.963812 126.236969 
L 127.288792 125.062232 
L 127.938751 121.185556 
L 128.58871 122.824046 
L 129.238669 120.796443 
L 129.888628 123.32594 
L 130.538587 121.699412 
L 130.863566 123.033334 
L 131.188546 125.407126 
L 131.513526 126.190168 
L 131.838505 127.605384 
L 132.813444 133.743767 
L 133.138423 135.286743 
L 134.113362 141.571371 
L 134.438341 143.140267 
L 135.41328 149.412385 
L 135.738259 150.99184 
L 136.713198 157.236732 
L 137.038177 158.788345 
L 137.363157 160.93337 
L 137.688137 163.834867 
L 138.338096 166.581984 
L 138.663075 168.698205 
L 138.988055 171.565059 
L 139.638014 174.342838 
L 139.962993 176.430244 
L 140.287973 179.295896 
L 140.937932 182.042202 
L 141.262911 184.092855 
L 141.587891 186.952691 
L 142.23785 189.735667 
L 142.562829 191.757124 
L 142.887809 194.582394 
L 143.537768 197.393419 
L 143.862747 199.387855 
L 144.187727 202.211792 
L 144.512707 203.464881 
L 144.837686 203.997186 
L 145.162666 204.303698 
L 145.487645 205.079762 
L 145.812625 205.516454 
L 146.462584 205.550024 
L 147.112543 206.570173 
L 147.762502 206.507788 
L 148.412461 207.501245 
L 149.06242 207.434415 
L 149.712379 208.455503 
L 150.362338 208.35351 
L 151.012297 209.446239 
L 151.662256 209.321586 
L 152.312215 210.37217 
L 152.637195 210.374889 
L 152.962174 210.248248 
L 153.612133 211.330848 
L 154.262092 211.173775 
L 154.912051 212.329038 
L 155.237031 212.314194 
L 155.56201 212.150251 
L 156.211969 213.295402 
L 156.536949 213.314893 
L 156.861928 213.126483 
L 157.511888 215.74257 
L 157.836867 216.893612 
L 158.161847 217.512326 
L 159.136785 221.844836 
L 159.461765 222.50461 
L 160.436703 226.85295 
L 160.761683 227.489928 
L 161.736621 231.713431 
L 162.061601 232.33991 
L 163.036539 236.429951 
L 163.361519 237.01494 
L 164.336458 241.009859 
L 164.661437 241.55083 
L 165.636376 245.436837 
L 165.961355 245.972753 
L 166.936294 249.727134 
L 167.261273 250.221469 
L 168.236212 253.851574 
L 168.561191 254.301794 
L 169.53613 257.851539 
L 169.861109 258.265219 
L 170.186089 259.346108 
L 170.511069 260.833872 
L 170.836048 261.144045 
L 171.161028 260.606159 
L 171.486007 260.493955 
L 171.810987 261.139241 
L 172.135966 261.055037 
L 172.460946 260.330225 
L 172.785925 260.122542 
L 173.110905 260.664139 
L 173.435884 260.519405 
L 173.760864 259.788661 
L 174.085843 259.564464 
L 174.410823 260.091591 
L 174.735802 259.965121 
L 175.060782 259.235258 
L 175.385761 259.007734 
L 175.710741 259.509933 
L 176.03572 259.38252 
L 176.3607 258.674418 
L 176.68568 258.448987 
L 177.010659 258.93034 
L 177.335639 258.779216 
L 177.660618 258.089118 
L 177.985598 257.863179 
L 178.310577 258.343045 
L 178.635557 258.195748 
L 178.960536 257.507551 
L 179.285516 257.279605 
L 179.610495 257.736497 
L 179.935475 257.609485 
L 180.260454 256.946832 
L 180.585434 256.723085 
L 180.910413 257.160121 
L 181.235393 257.03337 
L 181.560372 256.3931 
L 181.885352 256.167873 
L 182.210331 256.596789 
L 182.535311 256.457785 
L 182.86029 255.815918 
L 183.18527 255.594537 
L 183.51025 256.008253 
L 183.835229 255.875821 
L 184.160209 255.257546 
L 184.485188 255.024081 
L 184.810168 255.420671 
L 185.135147 255.296581 
L 185.460127 254.701914 
L 185.785106 254.477685 
L 186.110086 254.860203 
L 186.435065 254.721325 
L 186.760045 254.145572 
L 187.085024 253.928266 
L 187.410004 254.29641 
L 187.734983 254.165207 
L 188.059963 253.591804 
L 188.384942 253.35917 
L 188.709922 253.709517 
L 189.034901 253.584177 
L 189.359881 253.03389 
L 189.684861 252.810031 
L 190.00984 253.146684 
L 190.33482 253.006224 
L 190.659799 252.47457 
L 190.984779 252.260449 
L 191.309758 252.583398 
L 191.634738 252.450739 
L 191.959717 251.921453 
L 192.284697 251.712478 
L 192.609676 252.020816 
L 192.934656 251.89541 
L 193.259635 251.389351 
L 193.584615 251.168809 
L 193.909594 251.460425 
L 194.234574 251.31851 
L 194.559553 250.830319 
L 194.884533 250.617252 
L 195.209512 250.897034 
L 195.534492 250.765336 
L 195.859471 250.286292 
L 196.184451 250.071369 
L 196.509431 250.335812 
L 196.83441 250.204196 
L 197.15939 249.74019 
L 197.484369 249.527238 
L 197.809349 249.777078 
L 198.134328 249.645534 
L 198.459308 249.196544 
L 198.784287 248.983513 
L 199.109267 249.218419 
L 199.434246 249.088042 
L 199.759226 248.654097 
L 200.084205 248.442175 
L 200.409185 247.945193 
L 204.308939 231.684964 
L 204.958898 228.655421 
L 210.48355 206.295329 
L 211.133509 203.757808 
L 213.083386 196.594446 
L 214.058325 193.708089 
L 214.383304 193.871266 
L 215.033263 193.354271 
L 215.358243 193.550572 
L 215.683223 194.112299 
L 216.333182 193.988859 
L 216.658161 194.24388 
L 216.983141 194.857151 
L 217.30812 194.908798 
L 217.6331 194.828441 
L 217.958079 195.07755 
L 218.283059 195.701508 
L 218.608038 195.788798 
L 218.933018 195.717189 
L 219.257997 195.947833 
L 219.582977 196.570162 
L 219.907956 196.671176 
L 220.232936 196.614271 
L 220.557915 196.824987 
L 220.882895 197.458235 
L 221.207874 197.596779 
L 221.532854 197.524918 
L 221.857833 197.713236 
L 222.182813 198.353934 
L 222.507793 198.528752 
L 222.832772 198.473294 
L 223.157752 198.641427 
L 223.482731 199.259153 
L 223.807711 199.431276 
L 224.13269 199.382388 
L 224.45767 199.527792 
L 224.782649 200.15392 
L 225.107629 200.362523 
L 225.432608 200.298359 
L 225.757588 200.417538 
L 226.082567 201.052898 
L 226.407547 201.297952 
L 226.732526 201.250138 
L 227.057506 201.349061 
L 227.382485 201.961119 
L 227.707465 202.203365 
L 228.032444 202.161711 
L 228.357424 202.237646 
L 228.682404 202.858081 
L 229.007383 203.136877 
L 229.657342 203.12981 
L 229.982322 203.75681 
L 230.307301 204.071402 
L 230.95726 204.06534 
L 231.28224 204.668856 
L 231.607219 205.012496 
L 232.257178 204.998997 
L 232.582158 205.612103 
L 232.907137 205.960604 
L 233.557096 205.913243 
L 234.207055 206.904604 
L 234.857014 206.830184 
L 235.506974 207.849016 
L 236.156933 207.747476 
L 236.806892 208.765164 
L 237.456851 208.699871 
L 238.10681 209.759535 
L 238.756769 209.630965 
L 239.406728 210.713092 
L 240.056687 210.557159 
L 240.706646 211.638132 
L 241.031625 211.645673 
L 241.356605 211.518107 
L 242.006564 212.640916 
L 242.331544 212.623154 
L 242.656523 212.4581 
L 243.631462 214.186701 
L 243.956441 214.456378 
L 244.93138 218.602403 
L 245.256359 219.230769 
L 246.231298 223.591784 
L 246.556277 224.257766 
L 247.531216 228.54932 
L 247.856195 229.179126 
L 248.831134 233.37399 
L 249.156114 233.967938 
L 250.131052 238.047099 
L 250.456032 238.631641 
L 251.43097 242.556051 
L 251.75595 243.095594 
L 252.730888 246.956062 
L 253.055868 247.459623 
L 254.030806 251.1824 
L 254.355786 251.6733 
L 255.330725 255.260727 
L 255.655704 255.709818 
L 256.630643 259.200731 
L 257.280602 260.13012 
L 257.605581 261.1518 
L 257.930561 261.216 
L 258.25554 260.559455 
L 258.58052 260.403769 
L 258.905499 261.007153 
L 259.230479 260.904443 
L 259.555458 260.167588 
L 259.880438 259.928843 
L 260.205417 260.459181 
L 260.530397 260.333874 
L 260.855376 259.60531 
L 261.180356 259.380911 
L 261.505336 259.907168 
L 261.830315 259.760143 
L 262.155295 259.048655 
L 262.480274 258.822789 
L 262.805254 259.325224 
L 263.130233 259.198196 
L 263.455213 258.490268 
L 263.780192 258.241972 
L 264.105172 258.718497 
L 264.430151 258.589542 
L 264.755131 257.903678 
L 265.08011 257.678892 
L 265.40509 258.13814 
L 265.730069 257.987397 
L 266.055049 257.319969 
L 266.380028 257.095021 
L 266.705008 257.552635 
L 267.029987 257.426144 
L 267.354967 256.763663 
L 267.679947 256.538225 
L 268.004926 256.973287 
L 268.329906 256.84453 
L 268.654885 256.204062 
L 268.979865 255.974051 
L 269.304844 256.39567 
L 269.629824 256.250686 
L 269.954803 255.629287 
L 270.279783 255.406456 
L 270.604762 255.81374 
L 270.929742 255.676474 
L 271.254721 255.057434 
L 271.579701 254.839853 
L 271.90468 255.234204 
L 272.22966 255.10521 
L 272.554639 254.509838 
L 272.879619 254.280448 
L 273.204598 254.657699 
L 273.529578 254.535012 
L 273.854557 253.962884 
L 274.179537 253.742063 
L 274.504517 254.105305 
L 274.829496 253.967382 
L 275.154476 253.392947 
L 275.479455 253.175649 
L 275.804435 253.523929 
L 276.129414 253.393238 
L 276.454394 252.842234 
L 276.779373 252.613452 
L 277.104353 252.944769 
L 277.429332 252.822245 
L 277.754312 252.294581 
L 278.079291 252.075005 
L 278.404271 252.392617 
L 278.72925 252.255052 
L 279.05423 251.745786 
L 279.379209 251.533586 
L 279.704189 251.837141 
L 280.029168 251.707124 
L 280.354148 251.200253 
L 280.679128 250.972844 
L 281.004107 251.258869 
L 281.329087 251.134468 
L 281.654066 250.650305 
L 281.979046 250.436044 
L 282.304025 250.709462 
L 282.629005 250.577311 
L 282.953984 250.104519 
L 283.278964 249.890808 
L 283.603943 250.149251 
L 283.928923 250.017351 
L 284.253902 249.559595 
L 284.578882 249.347381 
L 284.903861 249.591232 
L 285.228841 249.459732 
L 285.55382 249.014978 
L 285.8788 248.802991 
L 286.203779 249.033296 
L 286.528759 248.902565 
L 286.853738 248.4727 
L 287.503698 246.48441 
L 288.153657 243.837746 
L 291.078472 232.018691 
L 291.403452 230.873811 
L 292.053411 228.225868 
L 294.653247 218.353728 
L 297.578063 207.803992 
L 298.553001 204.428106 
L 300.502879 197.968495 
L 300.827858 197.463076 
L 301.477817 198.10977 
L 301.802797 197.837587 
L 302.127776 197.732237 
L 302.777735 198.671313 
L 303.427694 198.397156 
L 304.077653 199.347774 
L 304.727612 199.105746 
L 305.377571 200.04153 
L 306.02753 199.820372 
L 306.67749 200.727564 
L 307.327449 200.543257 
L 307.977408 201.442261 
L 308.627367 201.272261 
L 309.277326 202.160554 
L 309.927285 202.008396 
L 310.577244 202.856668 
L 311.227203 202.734519 
L 311.877162 203.573062 
L 312.527121 203.462794 
L 313.17708 204.292617 
L 313.827039 204.200372 
L 314.476998 204.989764 
L 315.126957 204.927707 
L 315.451937 205.235664 
L 315.776916 205.705909 
L 316.426875 205.655395 
L 316.751855 205.946613 
L 317.076834 206.42424 
L 317.726793 206.391618 
L 318.051773 206.66304 
L 318.376752 207.143893 
L 319.026711 207.15142 
L 319.351691 207.407602 
L 319.676671 207.872786 
L 320.32663 207.892602 
L 320.651609 208.124875 
L 320.976589 208.586135 
L 321.951527 208.837953 
L 322.276507 209.298938 
L 323.251445 209.55836 
L 323.576425 210.014401 
L 324.551363 210.309088 
L 324.876343 210.764138 
L 325.851281 211.028617 
L 326.176261 211.482056 
L 326.501241 211.608527 
L 326.82622 211.602009 
L 327.1512 211.753357 
L 327.476179 212.201522 
L 327.801159 212.351787 
L 328.451118 212.507885 
L 328.776097 212.954985 
L 329.101077 213.107553 
L 329.751036 213.259905 
L 330.400995 214.197589 
L 331.050954 215.385383 
L 332.025892 218.071071 
L 332.350872 218.747756 
L 333.325811 221.483198 
L 333.65079 222.169019 
L 334.625729 224.826571 
L 334.950708 225.481929 
L 335.925647 228.055047 
L 336.250626 228.676452 
L 337.225565 231.19073 
L 337.550544 231.784044 
L 338.525483 234.197719 
L 338.850462 234.782184 
L 339.825401 237.118625 
L 340.150381 237.669323 
L 341.125319 239.930811 
L 341.450299 240.452589 
L 342.425237 242.629742 
L 342.750217 243.143252 
L 343.725155 245.212582 
L 345.025073 245.772807 
L 345.675033 245.415518 
L 346.000012 245.57693 
L 346.324992 245.49209 
L 346.974951 245.074887 
L 347.29993 245.209077 
L 347.62491 245.130423 
L 348.274869 244.724835 
L 348.599848 244.844686 
L 348.924828 244.764824 
L 349.574787 244.372934 
L 349.899766 244.492647 
L 350.224746 244.399988 
L 350.874705 244.004457 
L 351.199684 244.110551 
L 352.174623 243.80597 
L 352.499603 243.923902 
L 353.474541 243.631552 
L 353.799521 243.761536 
L 354.774459 243.45702 
L 355.099439 243.60217 
L 356.074377 243.2641 
L 356.399357 243.423167 
L 357.374295 243.086971 
L 357.699275 243.271831 
L 358.349234 243.052173 
L 358.349234 243.052173 
" clip-path="url(#p5e94dc5b09)" style="fill: none; stroke-dasharray: 6.4,1.6,1,1.6; stroke-dashoffset: 0; stroke: #4682b4"/>
   </g>
   <g id="patch_3">
    <path d="M 33.710938 273.312 
L 33.710938 7.2 
" style="fill: none; stroke: #000000; stroke-width: 0.8; stroke-linejoin: miter; stroke-linecap: square"/>
   </g>
   <g id="patch_4">
    <path d="M 390.830938 273.312 
L 390.830938 7.2 
" style="fill: none; stroke: #000000; stroke-width: 0.8; stroke-linejoin: miter; stroke-linecap: square"/>
   </g>
   <g id="patch_5">
    <path d="M 33.710938 273.312 
L 390.830937 273.312 
" style="fill: none; stroke: #000000; stroke-width: 0.8; stroke-linejoin: miter; stroke-linecap: square"/>
   </g>
   <g id="patch_6">
    <path d="M 33.710938 7.2 
L 390.830937 7.2 
" style="fill: none; stroke: #000000; stroke-width: 0.8; stroke-linejoin: miter; stroke-linecap: square"/>
   </g>
   <g id="legend_1">
    <g id="patch_7">
     <path d="M 194.710625 59.234375 
L 383.830938 59.234375 
Q 385.830938 59.234375 385.830938 57.234375 
L 385.830938 14.2 
Q 385.830938 12.2 383.830938 12.2 
L 194.710625 12.2 
Q 192.710625 12.2 192.710625 14.2 
L 192.710625 57.234375 
Q 192.710625 59.234375 194.710625 59.234375 
z
" style="fill: #ffffff; opacity: 0.8; stroke: #cccccc; stroke-linejoin: miter"/>
    </g>
    <g id="line2d_18">
     <path d="M 196.710625 20.298437 
L 206.710625 20.298437 
L 216.710625 20.298437 
" style="fill: none; stroke: #4682b4; stroke-linecap: square"/>
    </g>
    <g id="text_15">
     <text style="font: 10px 'DejaVu Sans', 'Bitstream Vera Sans', 'Computer Modern Sans Serif', 'Lucida Grande', 'Verdana', 'Geneva', 'Lucid', 'Arial', 'Helvetica', 'Avant Garde', sans-serif; text-anchor: start" x="224.710625" y="23.798437" transform="rotate(-0 224.710625 23.798437)">Target response PVR</text>
    </g>
    <g id="line2d_19">
     <path d="M 196.710625 34.976562 
L 206.710625 34.976562 
L 216.710625 34.976562 
" style="fill: none; stroke-dasharray: 3.7,1.6; stroke-dashoffset: 0; stroke: #4682b4"/>
    </g>
    <g id="text_16">
     <text style="font: 10px 'DejaVu Sans', 'Bitstream Vera Sans', 'Computer Modern Sans Serif', 'Lucida Grande', 'Verdana', 'Geneva', 'Lucid', 'Arial', 'Helvetica', 'Avant Garde', sans-serif; text-anchor: start" x="224.710625" y="38.476562" transform="rotate(-0 224.710625 38.476562)">Digital prediction PVR</text>
    </g>
    <g id="line2d_20">
     <path d="M 196.710625 49.654687 
L 206.710625 49.654687 
L 216.710625 49.654687 
" style="fill: none; stroke-dasharray: 6.4,1.6,1,1.6; stroke-dashoffset: 0; stroke: #4682b4"/>
    </g>
    <g id="text_17">
     <text style="font: 10px 'DejaVu Sans', 'Bitstream Vera Sans', 'Computer Modern Sans Serif', 'Lucida Grande', 'Verdana', 'Geneva', 'Lucid', 'Arial', 'Helvetica', 'Avant Garde', sans-serif; text-anchor: start" x="224.710625" y="53.154687" transform="rotate(-0 224.710625 53.154687)">Adjusted analog prediction PVR</text>
    </g>
   </g>
  </g>
 </g>
 <defs>
  <clipPath id="p5e94dc5b09">
   <rect x="33.710938" y="7.2" width="357.12" height="266.112"/>
  </clipPath>
 </defs>
</svg>
