<?xml version="1.0" encoding="utf-8" standalone="no"?>
<!DOCTYPE svg PUBLIC "-//W3C//DTD SVG 1.1//EN"
  "http://www.w3.org/Graphics/SVG/1.1/DTD/svg11.dtd">
<svg xmlns:xlink="http://www.w3.org/1999/xlink" width="404.393438pt" height="297.190125pt" viewBox="0 0 404.393438 297.190125" xmlns="http://www.w3.org/2000/svg" version="1.1">
 <metadata>
  <rdf:RDF xmlns:dc="http://purl.org/dc/elements/1.1/" xmlns:cc="http://creativecommons.org/ns#" xmlns:rdf="http://www.w3.org/1999/02/22-rdf-syntax-ns#">
   <cc:Work>
    <dc:type rdf:resource="http://purl.org/dc/dcmitype/StillImage"/>
    <dc:date>2023-10-26T12:01:57.068544</dc:date>
    <dc:format>image/svg+xml</dc:format>
    <dc:creator>
     <cc:Agent>
      <dc:title>Matplotlib v3.8.0, https://matplotlib.org/</dc:title>
     </cc:Agent>
    </dc:creator>
   </cc:Work>
  </rdf:RDF>
 </metadata>
 <defs>
  <style type="text/css">*{stroke-linejoin: round; stroke-linecap: butt}</style>
 </defs>
 <g id="figure_1">
  <g id="patch_1">
   <path d="M 0 297.190125 
L 404.393438 297.190125 
L 404.393438 0 
L 0 0 
z
" style="fill: #ffffff"/>
  </g>
  <g id="axes_1">
   <g id="patch_2">
    <path d="M 40.073438 273.312 
L 397.193438 273.312 
L 397.193438 7.2 
L 40.073438 7.2 
z
" style="fill: #ffffff"/>
   </g>
   <g id="matplotlib.axis_1">
    <g id="xtick_1">
     <g id="line2d_1">
      <defs>
       <path id="m123bbd19b0" d="M 0 0 
L 0 3.5 
" style="stroke: #000000; stroke-width: 0.8"/>
      </defs>
      <g>
       <use xlink:href="#m123bbd19b0" x="56.306165" y="273.312" style="stroke: #000000; stroke-width: 0.8"/>
      </g>
     </g>
     <g id="text_1">
      <text style="font: 10px 'DejaVu Sans', 'Bitstream Vera Sans', 'Computer Modern Sans Serif', 'Lucida Grande', 'Verdana', 'Geneva', 'Lucid', 'Arial', 'Helvetica', 'Avant Garde', sans-serif; text-anchor: middle" x="56.306165" y="287.910437" transform="rotate(-0 56.306165 287.910437)">0</text>
     </g>
    </g>
    <g id="xtick_2">
     <g id="line2d_2">
      <g>
       <use xlink:href="#m123bbd19b0" x="121.30207" y="273.312" style="stroke: #000000; stroke-width: 0.8"/>
      </g>
     </g>
     <g id="text_2">
      <text style="font: 10px 'DejaVu Sans', 'Bitstream Vera Sans', 'Computer Modern Sans Serif', 'Lucida Grande', 'Verdana', 'Geneva', 'Lucid', 'Arial', 'Helvetica', 'Avant Garde', sans-serif; text-anchor: middle" x="121.30207" y="287.910437" transform="rotate(-0 121.30207 287.910437)">100</text>
     </g>
    </g>
    <g id="xtick_3">
     <g id="line2d_3">
      <g>
       <use xlink:href="#m123bbd19b0" x="186.297975" y="273.312" style="stroke: #000000; stroke-width: 0.8"/>
      </g>
     </g>
     <g id="text_3">
      <text style="font: 10px 'DejaVu Sans', 'Bitstream Vera Sans', 'Computer Modern Sans Serif', 'Lucida Grande', 'Verdana', 'Geneva', 'Lucid', 'Arial', 'Helvetica', 'Avant Garde', sans-serif; text-anchor: middle" x="186.297975" y="287.910437" transform="rotate(-0 186.297975 287.910437)">200</text>
     </g>
    </g>
    <g id="xtick_4">
     <g id="line2d_4">
      <g>
       <use xlink:href="#m123bbd19b0" x="251.29388" y="273.312" style="stroke: #000000; stroke-width: 0.8"/>
      </g>
     </g>
     <g id="text_4">
      <text style="font: 10px 'DejaVu Sans', 'Bitstream Vera Sans', 'Computer Modern Sans Serif', 'Lucida Grande', 'Verdana', 'Geneva', 'Lucid', 'Arial', 'Helvetica', 'Avant Garde', sans-serif; text-anchor: middle" x="251.29388" y="287.910437" transform="rotate(-0 251.29388 287.910437)">300</text>
     </g>
    </g>
    <g id="xtick_5">
     <g id="line2d_5">
      <g>
       <use xlink:href="#m123bbd19b0" x="316.289785" y="273.312" style="stroke: #000000; stroke-width: 0.8"/>
      </g>
     </g>
     <g id="text_5">
      <text style="font: 10px 'DejaVu Sans', 'Bitstream Vera Sans', 'Computer Modern Sans Serif', 'Lucida Grande', 'Verdana', 'Geneva', 'Lucid', 'Arial', 'Helvetica', 'Avant Garde', sans-serif; text-anchor: middle" x="316.289785" y="287.910437" transform="rotate(-0 316.289785 287.910437)">400</text>
     </g>
    </g>
    <g id="xtick_6">
     <g id="line2d_6">
      <g>
       <use xlink:href="#m123bbd19b0" x="381.28569" y="273.312" style="stroke: #000000; stroke-width: 0.8"/>
      </g>
     </g>
     <g id="text_6">
      <text style="font: 10px 'DejaVu Sans', 'Bitstream Vera Sans', 'Computer Modern Sans Serif', 'Lucida Grande', 'Verdana', 'Geneva', 'Lucid', 'Arial', 'Helvetica', 'Avant Garde', sans-serif; text-anchor: middle" x="381.28569" y="287.910437" transform="rotate(-0 381.28569 287.910437)">500</text>
     </g>
    </g>
   </g>
   <g id="matplotlib.axis_2">
    <g id="ytick_1">
     <g id="line2d_7">
      <defs>
       <path id="mbc4c80401a" d="M 0 0 
L -3.5 0 
" style="stroke: #000000; stroke-width: 0.8"/>
      </defs>
      <g>
       <use xlink:href="#mbc4c80401a" x="40.073438" y="251.384182" style="stroke: #000000; stroke-width: 0.8"/>
      </g>
     </g>
     <g id="text_7">
      <text style="font: 10px 'DejaVu Sans', 'Bitstream Vera Sans', 'Computer Modern Sans Serif', 'Lucida Grande', 'Verdana', 'Geneva', 'Lucid', 'Arial', 'Helvetica', 'Avant Garde', sans-serif; text-anchor: end" x="33.073438" y="255.183401" transform="rotate(-0 33.073438 255.183401)">-0.05</text>
     </g>
    </g>
    <g id="ytick_2">
     <g id="line2d_8">
      <g>
       <use xlink:href="#mbc4c80401a" x="40.073438" y="218.611457" style="stroke: #000000; stroke-width: 0.8"/>
      </g>
     </g>
     <g id="text_8">
      <text style="font: 10px 'DejaVu Sans', 'Bitstream Vera Sans', 'Computer Modern Sans Serif', 'Lucida Grande', 'Verdana', 'Geneva', 'Lucid', 'Arial', 'Helvetica', 'Avant Garde', sans-serif; text-anchor: end" x="33.073438" y="222.410676" transform="rotate(-0 33.073438 222.410676)">0.00</text>
     </g>
    </g>
    <g id="ytick_3">
     <g id="line2d_9">
      <g>
       <use xlink:href="#mbc4c80401a" x="40.073438" y="185.838732" style="stroke: #000000; stroke-width: 0.8"/>
      </g>
     </g>
     <g id="text_9">
      <text style="font: 10px 'DejaVu Sans', 'Bitstream Vera Sans', 'Computer Modern Sans Serif', 'Lucida Grande', 'Verdana', 'Geneva', 'Lucid', 'Arial', 'Helvetica', 'Avant Garde', sans-serif; text-anchor: end" x="33.073438" y="189.63795" transform="rotate(-0 33.073438 189.63795)">0.05</text>
     </g>
    </g>
    <g id="ytick_4">
     <g id="line2d_10">
      <g>
       <use xlink:href="#mbc4c80401a" x="40.073438" y="153.066006" style="stroke: #000000; stroke-width: 0.8"/>
      </g>
     </g>
     <g id="text_10">
      <text style="font: 10px 'DejaVu Sans', 'Bitstream Vera Sans', 'Computer Modern Sans Serif', 'Lucida Grande', 'Verdana', 'Geneva', 'Lucid', 'Arial', 'Helvetica', 'Avant Garde', sans-serif; text-anchor: end" x="33.073438" y="156.865225" transform="rotate(-0 33.073438 156.865225)">0.10</text>
     </g>
    </g>
    <g id="ytick_5">
     <g id="line2d_11">
      <g>
       <use xlink:href="#mbc4c80401a" x="40.073438" y="120.293281" style="stroke: #000000; stroke-width: 0.8"/>
      </g>
     </g>
     <g id="text_11">
      <text style="font: 10px 'DejaVu Sans', 'Bitstream Vera Sans', 'Computer Modern Sans Serif', 'Lucida Grande', 'Verdana', 'Geneva', 'Lucid', 'Arial', 'Helvetica', 'Avant Garde', sans-serif; text-anchor: end" x="33.073438" y="124.0925" transform="rotate(-0 33.073438 124.0925)">0.15</text>
     </g>
    </g>
    <g id="ytick_6">
     <g id="line2d_12">
      <g>
       <use xlink:href="#mbc4c80401a" x="40.073438" y="87.520556" style="stroke: #000000; stroke-width: 0.8"/>
      </g>
     </g>
     <g id="text_12">
      <text style="font: 10px 'DejaVu Sans', 'Bitstream Vera Sans', 'Computer Modern Sans Serif', 'Lucida Grande', 'Verdana', 'Geneva', 'Lucid', 'Arial', 'Helvetica', 'Avant Garde', sans-serif; text-anchor: end" x="33.073438" y="91.319774" transform="rotate(-0 33.073438 91.319774)">0.20</text>
     </g>
    </g>
    <g id="ytick_7">
     <g id="line2d_13">
      <g>
       <use xlink:href="#mbc4c80401a" x="40.073438" y="54.74783" style="stroke: #000000; stroke-width: 0.8"/>
      </g>
     </g>
     <g id="text_13">
      <text style="font: 10px 'DejaVu Sans', 'Bitstream Vera Sans', 'Computer Modern Sans Serif', 'Lucida Grande', 'Verdana', 'Geneva', 'Lucid', 'Arial', 'Helvetica', 'Avant Garde', sans-serif; text-anchor: end" x="33.073438" y="58.547049" transform="rotate(-0 33.073438 58.547049)">0.25</text>
     </g>
    </g>
    <g id="ytick_8">
     <g id="line2d_14">
      <g>
       <use xlink:href="#mbc4c80401a" x="40.073438" y="21.975105" style="stroke: #000000; stroke-width: 0.8"/>
      </g>
     </g>
     <g id="text_14">
      <text style="font: 10px 'DejaVu Sans', 'Bitstream Vera Sans', 'Computer Modern Sans Serif', 'Lucida Grande', 'Verdana', 'Geneva', 'Lucid', 'Arial', 'Helvetica', 'Avant Garde', sans-serif; text-anchor: end" x="33.073438" y="25.774324" transform="rotate(-0 33.073438 25.774324)">0.30</text>
     </g>
    </g>
   </g>
   <g id="line2d_15">
    <path d="M 56.306165 261.216 
L 121.30207 261.216 
L 121.952029 245.850606 
L 122.926967 231.080758 
L 124.226885 214.81756 
L 125.851783 197.283177 
L 127.80166 178.885107 
L 129.751537 162.552976 
L 132.026394 145.502323 
L 134.301251 130.085116 
L 136.576107 116.864008 
L 139.175944 103.032804 
L 142.100759 88.712958 
L 143.725657 81.351155 
L 145.025575 76.105946 
L 150.225247 53.67767 
L 153.800022 38.590156 
L 154.449981 50.998368 
L 155.09994 58.410903 
L 156.399858 69.888764 
L 157.699777 79.552916 
L 159.324674 89.861315 
L 160.949572 98.648469 
L 162.899449 107.816442 
L 165.174306 117.251448 
L 167.774142 126.996221 
L 171.348917 139.409022 
L 176.548589 156.518619 
L 186.297975 188.143356 
L 186.947934 175.09342 
L 187.597893 167.089508 
L 188.897811 154.660773 
L 190.522709 141.458431 
L 192.147606 130.226235 
L 193.772504 120.476022 
L 195.722381 110.185714 
L 197.672258 101.091217 
L 200.597074 88.763953 
L 204.171849 74.820731 
L 207.746623 61.684898 
L 218.145968 25.23704 
L 218.795927 23.046052 
L 219.445886 35.952869 
L 220.095845 43.835234 
L 221.395763 56.212116 
L 222.695682 66.672448 
L 224.320579 77.819436 
L 225.945477 87.40749 
L 227.895354 97.466094 
L 230.170211 107.843381 
L 232.770047 118.550886 
L 236.019842 130.90332 
L 240.569555 147.195166 
L 248.369064 174.135467 
L 251.29388 184.161981 
L 251.943839 171.253204 
L 252.593798 163.388877 
L 253.893716 151.061954 
L 255.193634 140.632034 
L 256.818532 129.551051 
L 258.443429 120.119782 
L 260.393306 110.345186 
L 262.343184 101.684272 
L 264.61804 92.576404 
L 267.542856 81.879517 
L 270.792651 70.802598 
L 275.992324 53.79067 
L 283.791832 28.772496 
L 284.441791 41.841931 
L 285.09175 49.908347 
L 286.391668 62.628556 
L 287.691587 73.453846 
L 289.316484 85.05041 
L 290.941382 95.065886 
L 292.891259 105.606315 
L 295.166116 116.505671 
L 297.765952 127.761923 
L 301.015747 140.735989 
L 305.240481 156.599581 
L 311.740071 180.020445 
L 317.589703 200.482385 
L 319.53958 206.29156 
L 321.489457 211.436072 
L 323.439334 216.013833 
L 325.714191 220.74278 
L 327.989048 224.908397 
L 330.263904 228.591978 
L 332.538761 231.859877 
L 334.813618 234.767034 
L 337.413454 237.706453 
L 340.01329 240.292031 
L 342.613126 242.571715 
L 345.537942 244.82069 
L 348.462758 246.781614 
L 351.712553 248.671381 
L 354.962348 250.301313 
L 358.537123 251.839749 
L 362.436877 253.261922 
L 366.661611 254.551588 
L 371.211324 255.700245 
L 376.086017 256.706067 
L 380.96071 257.523897 
L 380.96071 257.523897 
" clip-path="url(#pafddd9c63a)" style="fill: none; stroke: #6b8e23; stroke-linecap: square"/>
   </g>
   <g id="line2d_16">
    <path d="M 56.306165 251.888791 
L 56.631144 248.661061 
L 56.956124 246.780084 
L 57.281103 245.68457 
L 57.606083 245.046667 
L 58.256042 244.459212 
L 58.906001 244.260323 
L 60.205919 244.170309 
L 68.330407 244.15871 
L 120.97709 244.15871 
L 121.30207 233.760307 
L 122.601988 179.657486 
L 123.576926 147.661388 
L 124.551865 123.017592 
L 125.526804 104.078811 
L 126.501742 89.83625 
L 127.476681 78.567027 
L 128.451619 69.179713 
L 129.426558 61.905524 
L 130.401496 56.53258 
L 131.701415 50.861247 
L 133.001333 46.323372 
L 133.976271 43.231298 
L 134.301251 19.296 
L 134.62623 20.961687 
L 134.95121 24.075673 
L 135.926148 29.326859 
L 137.876026 35.458368 
L 138.525985 36.773301 
L 139.175944 37.712482 
L 139.825903 38.278421 
L 140.475862 38.483251 
L 141.125821 38.373967 
L 141.77578 38.02227 
L 143.075698 36.965546 
L 144.700596 35.312896 
L 146.650473 32.947262 
L 152.175125 26.113186 
L 153.475043 24.883029 
L 153.800022 42.808857 
L 154.449981 96.840208 
L 155.09994 129.148439 
L 155.749899 147.42057 
L 156.399858 157.376013 
L 157.049818 162.975803 
L 157.699777 166.322515 
L 158.349736 168.476364 
L 159.324674 170.672452 
L 161.274551 174.076784 
L 165.174306 180.804775 
L 168.424101 186.952386 
L 171.023937 192.300935 
L 173.623773 198.206064 
L 176.873569 206.231059 
L 180.448343 215.707322 
L 183.373159 224.044926 
L 185.972995 231.89451 
L 186.622954 189.450671 
L 187.272913 159.751472 
L 187.922872 138.629129 
L 188.572831 123.305507 
L 189.22279 112.112114 
L 189.87275 103.592995 
L 190.847688 94.189045 
L 191.822627 87.316906 
L 192.797565 81.953571 
L 194.097483 76.177306 
L 195.722381 70.216327 
L 197.672258 64.102752 
L 200.272094 56.802188 
L 202.871931 50.339046 
L 206.446705 42.385381 
L 208.071603 39.134019 
L 210.02148 35.914983 
L 212.621316 32.044754 
L 215.546132 28.078848 
L 217.17103 26.168703 
L 218.470948 24.916719 
L 218.795927 42.836111 
L 219.445886 96.855991 
L 220.095845 129.157169 
L 220.745804 147.425066 
L 221.395763 157.378336 
L 222.045723 162.976996 
L 222.695682 166.323085 
L 223.345641 168.476666 
L 224.320579 170.672537 
L 226.270456 174.076791 
L 230.170211 180.804775 
L 233.420006 186.952386 
L 236.019842 192.300935 
L 238.619678 198.206064 
L 241.869474 206.231059 
L 245.444248 215.707322 
L 248.369064 224.044926 
L 250.9689 231.89451 
L 251.29388 193.545494 
L 251.618859 173.9983 
L 252.268818 152.189434 
L 252.918777 140.241442 
L 253.568736 132.567407 
L 254.218695 127.040149 
L 255.193634 120.798112 
L 256.493552 114.265728 
L 258.443429 105.924879 
L 261.693225 93.17739 
L 264.61804 82.42715 
L 268.192815 70.673153 
L 270.792651 62.751565 
L 274.042447 53.563929 
L 276.317303 47.716271 
L 279.242119 40.867336 
L 282.166935 34.469359 
L 283.466853 31.914967 
L 284.441791 107.011105 
L 285.09175 130.774103 
L 285.741709 142.282593 
L 286.391668 148.204848 
L 287.041628 151.615525 
L 287.691587 153.908158 
L 288.991505 157.384127 
L 295.166116 172.820474 
L 298.415911 181.765587 
L 301.340727 190.423389 
L 304.915501 201.699712 
L 308.815256 214.794588 
L 312.065051 226.424654 
L 315.964805 241.208749 
L 316.289785 242.477882 
L 316.614764 243.205106 
L 317.264723 243.850482 
L 317.914682 244.058561 
L 319.2146 244.147991 
L 327.664068 244.15871 
L 380.96071 244.15871 
L 380.96071 244.15871 
" clip-path="url(#pafddd9c63a)" style="fill: none; stroke-dasharray: 3.7,1.6; stroke-dashoffset: 0; stroke: #6b8e23"/>
   </g>
   <g id="line2d_17">
    <path d="M 56.306165 251.720378 
L 59.23098 251.590276 
L 59.55596 251.286697 
L 119.677172 251.286697 
L 120.002152 251.041609 
L 120.652111 249.705066 
L 120.97709 248.463852 
L 122.601988 238.698737 
L 122.926967 235.938216 
L 123.576926 232.189416 
L 125.526804 217.241916 
L 126.176763 213.33094 
L 128.12664 198.125573 
L 128.776599 194.216299 
L 130.726476 178.960904 
L 131.376435 175.069577 
L 133.326312 159.793998 
L 134.301251 154.938551 
L 134.62623 153.038409 
L 135.276189 153.264853 
L 135.926148 150.841354 
L 136.576107 152.139762 
L 137.226066 150.169759 
L 137.876026 152.831546 
L 138.201005 153.048869 
L 138.525985 153.048983 
L 139.175944 156.627438 
L 139.500923 157.08001 
L 139.825903 157.269235 
L 140.475862 161.03835 
L 140.800841 161.533493 
L 141.125821 161.733038 
L 141.77578 165.547933 
L 142.100759 166.050406 
L 142.425739 166.227888 
L 143.075698 170.036379 
L 143.400677 170.524215 
L 143.725657 170.691001 
L 144.375616 174.519589 
L 144.700596 175.001205 
L 145.025575 175.134533 
L 145.675534 178.966918 
L 146.000514 179.448254 
L 146.325493 179.548297 
L 146.975452 183.362877 
L 147.300432 183.827354 
L 147.625411 183.913508 
L 148.27537 187.743617 
L 148.60035 188.200435 
L 148.925329 188.252798 
L 149.575288 192.084599 
L 149.900268 192.541434 
L 150.225247 192.56541 
L 150.875207 196.378797 
L 151.200186 196.541824 
L 151.525166 195.817515 
L 151.850145 196.461588 
L 152.175125 197.569354 
L 152.500104 197.226775 
L 152.825084 196.165288 
L 153.150063 196.587493 
L 153.475043 197.533327 
L 153.800022 197.105848 
L 154.125002 195.964845 
L 154.449981 196.345813 
L 154.774961 197.263687 
L 155.09994 196.847701 
L 155.42492 195.666767 
L 155.749899 196.038502 
L 156.074879 196.973683 
L 156.399858 196.535911 
L 156.724838 195.3644 
L 157.049818 195.750744 
L 157.374797 196.692589 
L 157.699777 196.247838 
L 158.024756 195.052346 
L 158.349736 195.429173 
L 158.674715 196.393341 
L 158.999695 195.98112 
L 159.324674 194.761342 
L 159.649654 195.13799 
L 159.974633 196.128419 
L 160.299613 195.699105 
L 160.624592 194.491571 
L 160.949572 194.884011 
L 161.274551 195.883277 
L 161.599531 195.448189 
L 161.92451 194.218013 
L 162.24949 194.60159 
L 162.574469 195.637973 
L 162.899449 195.222795 
L 163.224428 193.964149 
L 163.549408 193.765566 
L 163.874388 194.423423 
L 164.199367 193.810192 
L 164.524347 193.600534 
L 164.849326 193.798378 
L 165.174306 194.764646 
L 165.499285 194.347834 
L 165.824265 194.328171 
L 166.149244 194.627213 
L 166.474224 195.649755 
L 166.799203 195.271434 
L 167.124183 195.281879 
L 167.449162 195.592658 
L 167.774142 196.657623 
L 168.099121 196.284466 
L 168.424101 196.332373 
L 168.74908 196.63749 
L 169.07406 197.729452 
L 169.399039 197.372157 
L 169.724019 197.431252 
L 170.048999 197.762764 
L 170.373978 198.862784 
L 170.698958 198.504274 
L 171.023937 198.579407 
L 171.348917 198.916383 
L 171.673896 200.053607 
L 171.998876 199.706275 
L 172.323855 199.802249 
L 172.648835 200.127697 
L 172.973814 201.288384 
L 173.298794 200.956042 
L 173.623773 201.061741 
L 173.948753 201.41081 
L 174.273732 202.58895 
L 174.598712 202.261473 
L 174.923691 202.386289 
L 175.248671 202.743951 
L 175.57365 203.949267 
L 175.89863 203.628573 
L 176.223609 203.756428 
L 176.548589 204.114668 
L 176.873569 205.348125 
L 177.198548 205.624324 
L 177.848507 206.72799 
L 178.173487 206.942188 
L 178.498466 206.821696 
L 179.473405 207.502075 
L 179.798384 207.311944 
L 180.448343 207.917051 
L 180.773323 207.918373 
L 181.098302 207.7201 
L 182.073241 208.301844 
L 182.39822 208.109846 
L 183.04818 208.708051 
L 183.373159 208.693013 
L 183.698139 208.506193 
L 184.348098 209.136655 
L 184.673077 209.122372 
L 184.998057 208.933902 
L 185.648016 209.578939 
L 185.972995 209.563818 
L 186.297975 209.390793 
L 186.947934 210.029426 
L 187.272913 210.005838 
L 187.597893 209.839448 
L 188.247852 210.494011 
L 188.572831 210.468859 
L 188.897811 210.304736 
L 189.54777 210.98336 
L 189.87275 210.957697 
L 190.197729 210.801759 
L 190.847688 211.482743 
L 191.172668 211.460471 
L 191.497647 211.315365 
L 192.147606 212.003853 
L 192.797565 211.833448 
L 193.447524 212.542749 
L 194.097483 212.374125 
L 194.747442 213.089665 
L 195.397401 212.945149 
L 196.047361 213.671227 
L 196.69732 213.527869 
L 197.347279 214.273924 
L 197.997238 214.131581 
L 198.647197 214.888498 
L 199.297156 214.75466 
L 199.947115 215.510567 
L 200.597074 215.396284 
L 201.247033 216.175808 
L 201.896992 216.066567 
L 202.546951 216.849844 
L 203.19691 216.755552 
L 203.846869 217.549078 
L 204.496828 217.46786 
L 205.146787 218.26985 
L 205.796746 218.20377 
L 206.771685 219.367052 
L 207.096664 219.588167 
L 207.421644 219.472599 
L 207.746623 220.023562 
L 208.071603 220.042086 
L 208.396582 219.909097 
L 208.721562 219.372274 
L 209.046542 219.728096 
L 209.696501 219.291507 
L 210.02148 218.602419 
L 210.34646 218.877965 
L 210.996419 218.31196 
L 211.321398 217.551521 
L 211.646378 217.786324 
L 212.296337 217.142311 
L 212.621316 216.328615 
L 212.946296 216.531394 
L 213.596255 215.823062 
L 213.921234 214.96088 
L 214.246214 215.133776 
L 214.896173 214.364926 
L 215.221152 213.456553 
L 215.546132 213.601968 
L 216.196091 212.775303 
L 216.521071 211.820071 
L 216.84605 211.935956 
L 217.496009 211.050902 
L 217.820989 210.048357 
L 218.145968 210.1341 
L 218.795927 209.188698 
L 219.120907 208.140608 
L 219.445886 208.197193 
L 220.095845 207.196423 
L 220.420825 205.72707 
L 220.745804 205.500746 
L 221.070784 205.548362 
L 221.395763 204.825869 
L 221.720743 203.646685 
L 222.045723 203.755229 
L 222.370702 204.200586 
L 222.695682 203.647374 
L 223.020661 202.599321 
L 223.345641 202.833699 
L 223.67062 203.409102 
L 223.9956 202.910886 
L 224.320579 201.889755 
L 224.645559 202.163817 
L 224.970538 202.788453 
L 225.295518 202.306361 
L 225.620497 201.283639 
L 225.945477 201.573283 
L 226.270456 202.221866 
L 226.595436 201.762185 
L 226.920415 200.727638 
L 227.245395 201.029285 
L 227.570374 201.70203 
L 227.895354 201.22237 
L 228.220333 200.184858 
L 228.545313 200.500362 
L 228.870293 201.197824 
L 229.195272 200.721187 
L 229.520252 199.66375 
L 229.845231 199.974928 
L 230.170211 200.690928 
L 230.49519 200.239017 
L 230.82017 199.172514 
L 231.145149 199.495682 
L 231.470129 200.235843 
L 231.795108 199.765244 
L 232.120088 198.694263 
L 232.445067 199.033674 
L 232.770047 199.797308 
L 233.095026 199.329747 
L 233.420006 198.23846 
L 233.744985 198.572471 
L 234.069965 199.353968 
L 234.394944 198.909824 
L 234.719924 197.808593 
L 235.044904 198.152215 
L 235.369883 198.957383 
L 235.694863 198.49496 
L 236.019842 197.38849 
L 236.344822 197.745263 
L 236.669801 198.575177 
L 236.994781 198.118346 
L 237.31976 196.990887 
L 237.64474 197.341191 
L 237.969719 198.205009 
L 238.294699 197.757576 
L 238.619678 196.61344 
L 238.944658 196.968478 
L 239.269637 197.836717 
L 239.594617 197.385904 
L 239.919596 196.247591 
L 240.244576 196.599674 
L 240.569555 197.496032 
L 240.894535 197.049024 
L 241.219514 195.892638 
L 241.544494 196.262083 
L 241.869474 197.185041 
L 242.194453 196.739866 
L 242.519433 195.564327 
L 242.844412 195.93798 
L 243.169392 196.87322 
L 243.494371 196.456771 
L 243.819351 195.271971 
L 244.14433 195.629294 
L 244.46931 196.582982 
L 244.794289 196.144929 
L 245.119269 194.952567 
L 245.444248 195.331318 
L 245.769228 196.312709 
L 246.094207 195.877541 
L 246.419187 194.666907 
L 246.744166 195.048148 
L 247.069146 196.041481 
L 247.394125 195.633875 
L 247.719105 194.414343 
L 248.044085 194.779544 
L 248.369064 195.791291 
L 248.694044 195.363364 
L 249.019023 194.136304 
L 249.344003 194.530263 
L 249.668982 195.556623 
L 249.993962 194.393997 
L 250.318941 193.657408 
L 250.643921 193.667511 
L 250.9689 194.474089 
L 251.29388 193.949719 
L 251.618859 193.821546 
L 251.943839 194.074334 
L 252.268818 195.073756 
L 252.593798 194.676819 
L 252.918777 194.67362 
L 253.243757 194.977932 
L 253.568736 196.014587 
L 253.893716 195.634261 
L 254.218695 195.662973 
L 254.543675 195.982073 
L 254.868655 197.045612 
L 255.193634 196.683999 
L 255.518614 196.722247 
L 255.843593 197.043954 
L 256.168573 198.144007 
L 256.493552 197.790909 
L 256.818532 197.852367 
L 257.143511 198.162497 
L 257.468491 199.286225 
L 257.79347 198.939744 
L 258.11845 199.02119 
L 258.443429 199.361286 
L 258.768409 200.494939 
L 259.093388 200.158011 
L 259.418368 200.244151 
L 259.743347 200.585091 
L 260.068327 201.753183 
L 260.393306 201.417373 
L 260.718286 201.53591 
L 261.043266 201.870928 
L 261.368245 203.065261 
L 261.693225 202.746009 
L 262.018204 202.874878 
L 262.343184 203.234543 
L 262.668163 204.43638 
L 262.993143 204.118104 
L 263.318122 204.2635 
L 263.968081 206.088805 
L 264.293061 206.157461 
L 264.94302 207.047036 
L 265.267999 207.167172 
L 265.592979 207.008315 
L 266.567917 207.644727 
L 266.892897 207.456657 
L 267.867836 208.044202 
L 268.192815 207.838966 
L 268.842774 208.441684 
L 269.167754 208.431186 
L 269.492733 208.23838 
L 270.142692 208.836777 
L 270.467672 208.833216 
L 270.792651 208.654026 
L 271.44261 209.275346 
L 271.76759 209.256506 
L 272.092569 209.079228 
L 272.742528 209.729821 
L 273.067508 209.710976 
L 273.392487 209.536415 
L 274.042447 210.18276 
L 274.367426 210.160406 
L 274.692406 209.99496 
L 275.342365 210.653216 
L 275.667344 210.630557 
L 275.992324 210.471273 
L 276.642283 211.153409 
L 276.967262 211.125786 
L 277.292242 210.972977 
L 277.942201 211.667898 
L 278.26718 211.638123 
L 278.59216 211.491199 
L 279.242119 212.185595 
L 279.892078 212.022748 
L 280.542037 212.725772 
L 281.191996 212.561589 
L 281.841955 213.292349 
L 282.491914 213.14025 
L 283.141873 213.872863 
L 283.791832 213.737376 
L 284.441791 214.475235 
L 285.09175 214.339849 
L 285.741709 215.096788 
L 286.391668 214.965508 
L 287.041628 215.729523 
L 287.691587 215.626117 
L 288.341546 216.397652 
L 288.991505 216.293781 
L 289.641464 217.079966 
L 290.291423 216.990429 
L 290.941382 217.786255 
L 291.591341 217.709957 
L 292.2413 218.515777 
L 292.891259 218.45348 
L 293.216238 218.869768 
L 293.866198 220.673128 
L 294.191177 221.455727 
L 294.516157 221.851919 
L 295.166116 223.657575 
L 295.491095 224.37915 
L 295.816075 224.686722 
L 296.466034 226.39327 
L 296.791013 227.069885 
L 297.115993 227.32597 
L 297.765952 228.962545 
L 298.090931 229.606348 
L 298.415911 229.818139 
L 298.74089 230.785301 
L 299.390849 232.002308 
L 299.715829 232.170271 
L 300.040809 233.10752 
L 300.690768 234.259788 
L 301.015747 234.384181 
L 301.340727 235.290924 
L 301.990686 236.381335 
L 302.315665 236.463581 
L 302.640645 237.341095 
L 303.290604 238.369121 
L 303.615583 238.407606 
L 303.940563 239.254599 
L 304.590522 240.219288 
L 304.915501 240.213116 
L 305.240481 241.029186 
L 305.89044 241.93191 
L 306.215419 241.881802 
L 306.540399 242.667838 
L 306.865379 243.077758 
L 307.190358 242.87001 
L 307.515338 241.987613 
L 307.840317 241.931831 
L 308.165297 242.336426 
L 308.490276 242.057523 
L 308.815256 241.173011 
L 309.140235 241.158141 
L 309.465215 241.625034 
L 309.790194 241.364001 
L 310.115174 240.489998 
L 310.440153 240.500499 
L 310.765133 240.993827 
L 311.090112 240.737605 
L 311.415092 239.859177 
L 311.740071 239.882895 
L 312.065051 240.395011 
L 312.39003 240.138915 
L 312.71501 239.254702 
L 313.03999 239.287695 
L 313.364969 239.826512 
L 313.689949 239.57183 
L 314.014928 238.673558 
L 314.339908 238.717185 
L 314.664887 239.261755 
L 314.989867 239.017881 
L 315.314846 238.108844 
L 315.639826 238.162856 
L 315.964805 238.7234 
L 316.289785 238.46591 
L 316.614764 237.554637 
L 316.939744 237.616381 
L 317.264723 238.206691 
L 317.589703 237.954511 
L 317.914682 237.031249 
L 318.239662 237.102854 
L 318.564641 237.699893 
L 318.889621 237.458426 
L 319.2146 236.526265 
L 319.53958 236.607459 
L 319.86456 237.22051 
L 320.189539 236.96555 
L 320.514519 236.030407 
L 320.839498 236.118641 
L 321.164478 236.761417 
L 321.489457 236.511757 
L 321.814437 235.563996 
L 322.139416 235.660062 
L 322.464396 236.309667 
L 322.789375 236.070518 
L 323.114355 235.112881 
L 323.439334 235.219468 
L 323.764314 235.884659 
L 324.089293 235.632225 
L 324.414273 234.670897 
L 324.739252 234.789706 
L 325.064232 235.473607 
L 325.389211 235.220725 
L 325.714191 234.242658 
L 326.039171 234.362042 
L 326.36415 235.060887 
L 326.68913 234.824848 
L 327.014109 233.830156 
L 327.339089 233.958439 
L 327.664068 234.681116 
L 327.989048 234.432749 
L 328.314027 233.446107 
L 328.639007 233.575939 
L 328.963986 234.318242 
L 329.288966 234.070163 
L 329.613945 233.068013 
L 329.938925 233.210439 
L 330.263904 233.971999 
L 330.588884 233.729422 
L 330.913863 232.70025 
L 331.238843 232.843976 
L 331.563822 233.615469 
L 331.888802 233.370273 
L 332.213781 232.353568 
L 332.538761 232.499728 
L 332.863741 233.291488 
L 333.18872 233.045652 
L 333.5137 232.013741 
L 333.838679 232.171967 
L 334.163659 232.982551 
L 334.488638 232.741944 
L 334.813618 231.683363 
L 335.138597 231.842174 
L 335.463577 232.66263 
L 335.788556 232.431865 
L 336.113536 231.37272 
L 336.763495 231.754217 
L 337.413454 230.602264 
L 337.738433 230.438957 
L 338.063413 231.009054 
L 338.713372 230.290727 
L 339.038352 230.216054 
L 339.363331 230.866475 
L 340.01329 230.230244 
L 340.33827 230.161968 
L 340.663249 230.843969 
L 341.313208 230.237178 
L 341.638188 230.192958 
L 341.963167 230.896033 
L 342.288147 230.521467 
L 342.613126 230.319343 
L 342.938106 230.286649 
L 343.263085 231.017697 
L 343.913044 230.460595 
L 344.238024 230.43594 
L 344.563003 231.199612 
L 344.887983 230.852761 
L 345.212962 230.679491 
L 345.537942 230.668079 
L 345.862922 231.447847 
L 346.187901 231.10915 
L 346.512881 230.954701 
L 346.83786 230.95399 
L 347.16284 231.762033 
L 347.487819 231.443918 
L 347.812799 231.3005 
L 348.137778 231.31066 
L 348.462758 232.150576 
L 348.787737 231.840167 
L 349.112717 231.713778 
L 349.437696 231.723871 
L 349.762676 232.592226 
L 350.087655 232.297003 
L 350.737614 233.258624 
L 351.062594 233.566242 
L 351.387573 233.621466 
L 352.362512 234.168826 
L 352.687492 234.151738 
L 353.66243 234.620415 
L 353.98741 234.602709 
L 354.962348 235.050697 
L 355.287328 235.040708 
L 356.262266 235.492489 
L 356.587246 235.486638 
L 357.562184 235.965045 
L 358.212143 236.03783 
L 358.862103 236.206088 
L 359.512062 236.265857 
L 360.162021 236.429615 
L 360.81198 236.493147 
L 361.461939 236.655328 
L 362.111898 236.712136 
L 362.761857 236.899326 
L 363.086836 236.871548 
L 364.711734 237.198849 
L 364.711734 237.198849 
" clip-path="url(#pafddd9c63a)" style="fill: none; stroke-dasharray: 6.4,1.6,1,1.6; stroke-dashoffset: 0; stroke: #6b8e23"/>
   </g>
   <g id="patch_3">
    <path d="M 40.073438 273.312 
L 40.073438 7.2 
" style="fill: none; stroke: #000000; stroke-width: 0.8; stroke-linejoin: miter; stroke-linecap: square"/>
   </g>
   <g id="patch_4">
    <path d="M 397.193438 273.312 
L 397.193438 7.2 
" style="fill: none; stroke: #000000; stroke-width: 0.8; stroke-linejoin: miter; stroke-linecap: square"/>
   </g>
   <g id="patch_5">
    <path d="M 40.073438 273.312 
L 397.193437 273.312 
" style="fill: none; stroke: #000000; stroke-width: 0.8; stroke-linejoin: miter; stroke-linecap: square"/>
   </g>
   <g id="patch_6">
    <path d="M 40.073438 7.2 
L 397.193437 7.2 
" style="fill: none; stroke: #000000; stroke-width: 0.8; stroke-linejoin: miter; stroke-linecap: square"/>
   </g>
   <g id="legend_1">
    <g id="patch_7">
     <path d="M 123.950625 268.312 
L 313.31625 268.312 
Q 315.31625 268.312 315.31625 266.312 
L 315.31625 223.277625 
Q 315.31625 221.277625 313.31625 221.277625 
L 123.950625 221.277625 
Q 121.950625 221.277625 121.950625 223.277625 
L 121.950625 266.312 
Q 121.950625 268.312 123.950625 268.312 
z
" style="fill: #ffffff; opacity: 0.8; stroke: #cccccc; stroke-linejoin: miter"/>
    </g>
    <g id="line2d_18">
     <path d="M 125.950625 229.376062 
L 135.950625 229.376062 
L 145.950625 229.376062 
" style="fill: none; stroke: #6b8e23; stroke-linecap: square"/>
    </g>
    <g id="text_15">
     <text style="font: 10px 'DejaVu Sans', 'Bitstream Vera Sans', 'Computer Modern Sans Serif', 'Lucida Grande', 'Verdana', 'Geneva', 'Lucid', 'Arial', 'Helvetica', 'Avant Garde', sans-serif; text-anchor: start" x="153.950625" y="232.876062" transform="rotate(-0 153.950625 232.876062)">Target response VB1</text>
    </g>
    <g id="line2d_19">
     <path d="M 125.950625 244.054187 
L 135.950625 244.054187 
L 145.950625 244.054187 
" style="fill: none; stroke-dasharray: 3.7,1.6; stroke-dashoffset: 0; stroke: #6b8e23"/>
    </g>
    <g id="text_16">
     <text style="font: 10px 'DejaVu Sans', 'Bitstream Vera Sans', 'Computer Modern Sans Serif', 'Lucida Grande', 'Verdana', 'Geneva', 'Lucid', 'Arial', 'Helvetica', 'Avant Garde', sans-serif; text-anchor: start" x="153.950625" y="247.554187" transform="rotate(-0 153.950625 247.554187)">Digital prediction VB1</text>
    </g>
    <g id="line2d_20">
     <path d="M 125.950625 258.732312 
L 135.950625 258.732312 
L 145.950625 258.732312 
" style="fill: none; stroke-dasharray: 6.4,1.6,1,1.6; stroke-dashoffset: 0; stroke: #6b8e23"/>
    </g>
    <g id="text_17">
     <text style="font: 10px 'DejaVu Sans', 'Bitstream Vera Sans', 'Computer Modern Sans Serif', 'Lucida Grande', 'Verdana', 'Geneva', 'Lucid', 'Arial', 'Helvetica', 'Avant Garde', sans-serif; text-anchor: start" x="153.950625" y="262.232312" transform="rotate(-0 153.950625 262.232312)">Adjusted analog prediction VB1</text>
    </g>
   </g>
  </g>
 </g>
 <defs>
  <clipPath id="pafddd9c63a">
   <rect x="40.073438" y="7.2" width="357.12" height="266.112"/>
  </clipPath>
 </defs>
</svg>
