<?xml version="1.0" encoding="utf-8" standalone="no"?>
<!DOCTYPE svg PUBLIC "-//W3C//DTD SVG 1.1//EN"
  "http://www.w3.org/Graphics/SVG/1.1/DTD/svg11.dtd">
<svg xmlns:xlink="http://www.w3.org/1999/xlink" width="404.393438pt" height="297.190125pt" viewBox="0 0 404.393438 297.190125" xmlns="http://www.w3.org/2000/svg" version="1.1">
 <metadata>
  <rdf:RDF xmlns:dc="http://purl.org/dc/elements/1.1/" xmlns:cc="http://creativecommons.org/ns#" xmlns:rdf="http://www.w3.org/1999/02/22-rdf-syntax-ns#">
   <cc:Work>
    <dc:type rdf:resource="http://purl.org/dc/dcmitype/StillImage"/>
    <dc:date>2023-10-25T15:46:10.062533</dc:date>
    <dc:format>image/svg+xml</dc:format>
    <dc:creator>
     <cc:Agent>
      <dc:title>Matplotlib v3.8.0, https://matplotlib.org/</dc:title>
     </cc:Agent>
    </dc:creator>
   </cc:Work>
  </rdf:RDF>
 </metadata>
 <defs>
  <style type="text/css">*{stroke-linejoin: round; stroke-linecap: butt}</style>
 </defs>
 <g id="figure_1">
  <g id="patch_1">
   <path d="M 0 297.190125 
L 404.393438 297.190125 
L 404.393438 0 
L 0 0 
z
" style="fill: #ffffff"/>
  </g>
  <g id="axes_1">
   <g id="patch_2">
    <path d="M 40.073438 273.312 
L 397.193438 273.312 
L 397.193438 7.2 
L 40.073438 7.2 
z
" style="fill: #ffffff"/>
   </g>
   <g id="matplotlib.axis_1">
    <g id="xtick_1">
     <g id="line2d_1">
      <defs>
       <path id="m88bf2cdac4" d="M 0 0 
L 0 3.5 
" style="stroke: #000000; stroke-width: 0.8"/>
      </defs>
      <g>
       <use xlink:href="#m88bf2cdac4" x="56.306165" y="273.312" style="stroke: #000000; stroke-width: 0.8"/>
      </g>
     </g>
     <g id="text_1">
      <text style="font: 10px 'DejaVu Sans', 'Bitstream Vera Sans', 'Computer Modern Sans Serif', 'Lucida Grande', 'Verdana', 'Geneva', 'Lucid', 'Arial', 'Helvetica', 'Avant Garde', sans-serif; text-anchor: middle" x="56.306165" y="287.910437" transform="rotate(-0 56.306165 287.910437)">0</text>
     </g>
    </g>
    <g id="xtick_2">
     <g id="line2d_2">
      <g>
       <use xlink:href="#m88bf2cdac4" x="121.30207" y="273.312" style="stroke: #000000; stroke-width: 0.8"/>
      </g>
     </g>
     <g id="text_2">
      <text style="font: 10px 'DejaVu Sans', 'Bitstream Vera Sans', 'Computer Modern Sans Serif', 'Lucida Grande', 'Verdana', 'Geneva', 'Lucid', 'Arial', 'Helvetica', 'Avant Garde', sans-serif; text-anchor: middle" x="121.30207" y="287.910437" transform="rotate(-0 121.30207 287.910437)">100</text>
     </g>
    </g>
    <g id="xtick_3">
     <g id="line2d_3">
      <g>
       <use xlink:href="#m88bf2cdac4" x="186.297975" y="273.312" style="stroke: #000000; stroke-width: 0.8"/>
      </g>
     </g>
     <g id="text_3">
      <text style="font: 10px 'DejaVu Sans', 'Bitstream Vera Sans', 'Computer Modern Sans Serif', 'Lucida Grande', 'Verdana', 'Geneva', 'Lucid', 'Arial', 'Helvetica', 'Avant Garde', sans-serif; text-anchor: middle" x="186.297975" y="287.910437" transform="rotate(-0 186.297975 287.910437)">200</text>
     </g>
    </g>
    <g id="xtick_4">
     <g id="line2d_4">
      <g>
       <use xlink:href="#m88bf2cdac4" x="251.29388" y="273.312" style="stroke: #000000; stroke-width: 0.8"/>
      </g>
     </g>
     <g id="text_4">
      <text style="font: 10px 'DejaVu Sans', 'Bitstream Vera Sans', 'Computer Modern Sans Serif', 'Lucida Grande', 'Verdana', 'Geneva', 'Lucid', 'Arial', 'Helvetica', 'Avant Garde', sans-serif; text-anchor: middle" x="251.29388" y="287.910437" transform="rotate(-0 251.29388 287.910437)">300</text>
     </g>
    </g>
    <g id="xtick_5">
     <g id="line2d_5">
      <g>
       <use xlink:href="#m88bf2cdac4" x="316.289785" y="273.312" style="stroke: #000000; stroke-width: 0.8"/>
      </g>
     </g>
     <g id="text_5">
      <text style="font: 10px 'DejaVu Sans', 'Bitstream Vera Sans', 'Computer Modern Sans Serif', 'Lucida Grande', 'Verdana', 'Geneva', 'Lucid', 'Arial', 'Helvetica', 'Avant Garde', sans-serif; text-anchor: middle" x="316.289785" y="287.910437" transform="rotate(-0 316.289785 287.910437)">400</text>
     </g>
    </g>
    <g id="xtick_6">
     <g id="line2d_6">
      <g>
       <use xlink:href="#m88bf2cdac4" x="381.28569" y="273.312" style="stroke: #000000; stroke-width: 0.8"/>
      </g>
     </g>
     <g id="text_6">
      <text style="font: 10px 'DejaVu Sans', 'Bitstream Vera Sans', 'Computer Modern Sans Serif', 'Lucida Grande', 'Verdana', 'Geneva', 'Lucid', 'Arial', 'Helvetica', 'Avant Garde', sans-serif; text-anchor: middle" x="381.28569" y="287.910437" transform="rotate(-0 381.28569 287.910437)">500</text>
     </g>
    </g>
   </g>
   <g id="matplotlib.axis_2">
    <g id="ytick_1">
     <g id="line2d_7">
      <defs>
       <path id="m9893d38645" d="M 0 0 
L -3.5 0 
" style="stroke: #000000; stroke-width: 0.8"/>
      </defs>
      <g>
       <use xlink:href="#m9893d38645" x="40.073438" y="252.184419" style="stroke: #000000; stroke-width: 0.8"/>
      </g>
     </g>
     <g id="text_7">
      <text style="font: 10px 'DejaVu Sans', 'Bitstream Vera Sans', 'Computer Modern Sans Serif', 'Lucida Grande', 'Verdana', 'Geneva', 'Lucid', 'Arial', 'Helvetica', 'Avant Garde', sans-serif; text-anchor: end" x="33.073438" y="255.983638" transform="rotate(-0 33.073438 255.983638)">-0.05</text>
     </g>
    </g>
    <g id="ytick_2">
     <g id="line2d_8">
      <g>
       <use xlink:href="#m9893d38645" x="40.073438" y="222.079151" style="stroke: #000000; stroke-width: 0.8"/>
      </g>
     </g>
     <g id="text_8">
      <text style="font: 10px 'DejaVu Sans', 'Bitstream Vera Sans', 'Computer Modern Sans Serif', 'Lucida Grande', 'Verdana', 'Geneva', 'Lucid', 'Arial', 'Helvetica', 'Avant Garde', sans-serif; text-anchor: end" x="33.073438" y="225.87837" transform="rotate(-0 33.073438 225.87837)">0.00</text>
     </g>
    </g>
    <g id="ytick_3">
     <g id="line2d_9">
      <g>
       <use xlink:href="#m9893d38645" x="40.073438" y="191.973883" style="stroke: #000000; stroke-width: 0.8"/>
      </g>
     </g>
     <g id="text_9">
      <text style="font: 10px 'DejaVu Sans', 'Bitstream Vera Sans', 'Computer Modern Sans Serif', 'Lucida Grande', 'Verdana', 'Geneva', 'Lucid', 'Arial', 'Helvetica', 'Avant Garde', sans-serif; text-anchor: end" x="33.073438" y="195.773101" transform="rotate(-0 33.073438 195.773101)">0.05</text>
     </g>
    </g>
    <g id="ytick_4">
     <g id="line2d_10">
      <g>
       <use xlink:href="#m9893d38645" x="40.073438" y="161.868614" style="stroke: #000000; stroke-width: 0.8"/>
      </g>
     </g>
     <g id="text_10">
      <text style="font: 10px 'DejaVu Sans', 'Bitstream Vera Sans', 'Computer Modern Sans Serif', 'Lucida Grande', 'Verdana', 'Geneva', 'Lucid', 'Arial', 'Helvetica', 'Avant Garde', sans-serif; text-anchor: end" x="33.073438" y="165.667833" transform="rotate(-0 33.073438 165.667833)">0.10</text>
     </g>
    </g>
    <g id="ytick_5">
     <g id="line2d_11">
      <g>
       <use xlink:href="#m9893d38645" x="40.073438" y="131.763346" style="stroke: #000000; stroke-width: 0.8"/>
      </g>
     </g>
     <g id="text_11">
      <text style="font: 10px 'DejaVu Sans', 'Bitstream Vera Sans', 'Computer Modern Sans Serif', 'Lucida Grande', 'Verdana', 'Geneva', 'Lucid', 'Arial', 'Helvetica', 'Avant Garde', sans-serif; text-anchor: end" x="33.073438" y="135.562565" transform="rotate(-0 33.073438 135.562565)">0.15</text>
     </g>
    </g>
    <g id="ytick_6">
     <g id="line2d_12">
      <g>
       <use xlink:href="#m9893d38645" x="40.073438" y="101.658078" style="stroke: #000000; stroke-width: 0.8"/>
      </g>
     </g>
     <g id="text_12">
      <text style="font: 10px 'DejaVu Sans', 'Bitstream Vera Sans', 'Computer Modern Sans Serif', 'Lucida Grande', 'Verdana', 'Geneva', 'Lucid', 'Arial', 'Helvetica', 'Avant Garde', sans-serif; text-anchor: end" x="33.073438" y="105.457296" transform="rotate(-0 33.073438 105.457296)">0.20</text>
     </g>
    </g>
    <g id="ytick_7">
     <g id="line2d_13">
      <g>
       <use xlink:href="#m9893d38645" x="40.073438" y="71.552809" style="stroke: #000000; stroke-width: 0.8"/>
      </g>
     </g>
     <g id="text_13">
      <text style="font: 10px 'DejaVu Sans', 'Bitstream Vera Sans', 'Computer Modern Sans Serif', 'Lucida Grande', 'Verdana', 'Geneva', 'Lucid', 'Arial', 'Helvetica', 'Avant Garde', sans-serif; text-anchor: end" x="33.073438" y="75.352028" transform="rotate(-0 33.073438 75.352028)">0.25</text>
     </g>
    </g>
    <g id="ytick_8">
     <g id="line2d_14">
      <g>
       <use xlink:href="#m9893d38645" x="40.073438" y="41.447541" style="stroke: #000000; stroke-width: 0.8"/>
      </g>
     </g>
     <g id="text_14">
      <text style="font: 10px 'DejaVu Sans', 'Bitstream Vera Sans', 'Computer Modern Sans Serif', 'Lucida Grande', 'Verdana', 'Geneva', 'Lucid', 'Arial', 'Helvetica', 'Avant Garde', sans-serif; text-anchor: end" x="33.073438" y="45.24676" transform="rotate(-0 33.073438 45.24676)">0.30</text>
     </g>
    </g>
    <g id="ytick_9">
     <g id="line2d_15">
      <g>
       <use xlink:href="#m9893d38645" x="40.073438" y="11.342272" style="stroke: #000000; stroke-width: 0.8"/>
      </g>
     </g>
     <g id="text_15">
      <text style="font: 10px 'DejaVu Sans', 'Bitstream Vera Sans', 'Computer Modern Sans Serif', 'Lucida Grande', 'Verdana', 'Geneva', 'Lucid', 'Arial', 'Helvetica', 'Avant Garde', sans-serif; text-anchor: end" x="33.073438" y="15.141491" transform="rotate(-0 33.073438 15.141491)">0.35</text>
     </g>
    </g>
   </g>
   <g id="line2d_16">
    <path d="M 56.306165 261.216 
L 121.952029 261.13707 
L 122.926967 260.761645 
L 124.226885 260.037933 
L 125.851783 258.856656 
L 127.476681 257.376681 
L 129.426558 255.224684 
L 131.376435 252.69005 
L 133.326312 249.777136 
L 135.601169 245.93515 
L 137.876026 241.654903 
L 140.475862 236.272316 
L 143.075698 230.396544 
L 146.000514 223.273607 
L 149.575288 213.877669 
L 153.150063 203.775003 
L 157.374797 191.131935 
L 162.24949 175.776303 
L 167.449162 158.533854 
L 173.948753 136.04865 
L 182.7232 104.738629 
L 186.297975 91.92107 
L 187.272913 111.595706 
L 187.922872 116.936742 
L 188.897811 121.708247 
L 192.797565 138.410409 
L 196.69732 154.279317 
L 199.947115 166.526513 
L 202.871931 176.659622 
L 205.471767 184.929358 
L 208.071603 192.509263 
L 210.671439 199.421444 
L 213.271275 205.699055 
L 215.871112 211.381744 
L 218.470948 216.512406 
L 221.070784 221.134924 
L 223.67062 225.292615 
L 226.270456 229.027206 
L 228.870293 232.378206 
L 231.470129 235.382531 
L 234.069965 238.074339 
L 236.994781 240.768032 
L 239.919596 243.146354 
L 242.844412 245.245673 
L 246.094207 247.290393 
L 249.344003 249.070054 
L 252.918777 250.762524 
L 256.493552 252.215669 
L 260.393306 253.568009 
L 264.61804 254.801175 
L 269.167754 255.904341 
L 274.367426 256.931286 
L 280.217057 257.847871 
L 286.716648 258.635154 
L 294.191177 259.313052 
L 302.965624 259.882854 
L 313.689949 260.350961 
L 327.339089 260.715482 
L 346.187901 260.97968 
L 375.436058 261.14158 
L 380.96071 261.156115 
L 380.96071 261.156115 
" clip-path="url(#pcc3ed243c5)" style="fill: none; stroke: #ff4500; stroke-linecap: square"/>
   </g>
   <g id="line2d_17">
    <path d="M 56.306165 252.662465 
L 56.631144 249.294604 
L 56.956124 247.31398 
L 57.281103 246.151173 
L 57.606083 245.46934 
L 58.256042 244.836329 
L 58.906001 244.619945 
L 60.205919 244.521129 
L 67.680448 244.508262 
L 121.30207 244.500537 
L 121.627049 244.11207 
L 122.277008 242.677172 
L 123.576926 238.882467 
L 129.101578 222.225445 
L 134.301251 207.546849 
L 136.901087 200.691739 
L 141.125821 190.223743 
L 146.000514 179.12667 
L 150.875207 168.915604 
L 153.475043 163.91399 
L 159.974633 152.589912 
L 163.549408 147.263874 
L 165.499285 144.392831 
L 167.449162 141.541007 
L 170.048999 138.305112 
L 171.348917 136.651478 
L 172.648835 134.859703 
L 175.57365 131.628462 
L 178.498466 127.573144 
L 179.148425 126.986657 
L 180.773323 124.345619 
L 182.7232 120.841757 
L 183.373159 119.582845 
L 184.348098 118.346879 
L 184.998057 117.606765 
L 185.972995 115.497903 
L 186.297975 19.296 
L 186.947934 146.389172 
L 187.272913 183.093855 
L 187.597893 206.526917 
L 187.922872 221.266542 
L 188.247852 230.399583 
L 188.572831 235.995211 
L 188.897811 239.397123 
L 189.22279 241.452168 
L 189.54777 242.687227 
L 189.87275 243.426345 
L 190.522709 244.129132 
L 191.172668 244.37643 
L 192.472586 244.492587 
L 198.647197 244.508261 
L 380.96071 244.508261 
L 380.96071 244.508261 
" clip-path="url(#pcc3ed243c5)" style="fill: none; stroke-dasharray: 3.7,1.6; stroke-dashoffset: 0; stroke: #ff4500"/>
   </g>
   <g id="line2d_18">
    <path d="M 56.306165 249.579556 
L 59.23098 249.371991 
L 59.55596 248.887664 
L 105.703053 248.797806 
L 107.32795 248.512707 
L 109.927786 247.641967 
L 113.502561 245.582581 
L 115.452438 243.953895 
L 116.752356 242.729304 
L 118.702234 240.743975 
L 122.277008 236.64089 
L 122.926967 235.984629 
L 123.576926 235.134051 
L 123.901906 234.884318 
L 126.176763 232.049022 
L 126.501742 231.818253 
L 130.076517 227.229105 
L 130.401496 227.020953 
L 136.251128 219.175002 
L 136.576107 218.658798 
L 136.901087 218.504058 
L 137.226066 218.078024 
L 137.876026 216.865954 
L 138.201005 216.722355 
L 138.525985 216.294156 
L 139.175944 215.039992 
L 139.500923 214.906436 
L 139.825903 214.483749 
L 140.475862 213.196825 
L 140.800841 213.069872 
L 141.125821 212.643593 
L 141.77578 211.314207 
L 142.100759 211.193009 
L 142.425739 210.769575 
L 143.075698 209.420134 
L 143.400677 209.316647 
L 143.725657 208.93477 
L 144.375616 207.521938 
L 144.700596 207.426045 
L 145.025575 206.999415 
L 145.675534 205.520143 
L 146.000514 205.433647 
L 146.325493 205.020432 
L 146.975452 203.537023 
L 147.300432 203.490749 
L 147.625411 203.090773 
L 148.27537 201.505286 
L 148.60035 201.440538 
L 148.925329 201.0349 
L 149.575288 199.406317 
L 149.900268 199.355944 
L 150.225247 198.965662 
L 150.875207 197.330628 
L 151.200186 197.323029 
L 151.525166 196.955262 
L 152.175125 195.222327 
L 152.500104 195.195568 
L 152.825084 194.818289 
L 153.475043 193.048953 
L 153.800022 193.022587 
L 154.125002 192.655191 
L 154.774961 190.88282 
L 155.09994 190.908247 
L 155.42492 190.565615 
L 156.074879 188.69564 
L 156.399858 188.698968 
L 156.724838 188.328485 
L 157.374797 186.381886 
L 157.699777 186.386112 
L 158.024756 186.056472 
L 158.674715 184.140268 
L 158.999695 184.216387 
L 159.324674 183.909742 
L 159.974633 181.892596 
L 160.299613 181.938716 
L 160.624592 181.597367 
L 161.274551 179.50174 
L 161.599531 179.565913 
L 161.92451 179.290659 
L 162.574469 177.221704 
L 162.899449 177.323157 
L 163.224428 177.048031 
L 163.874388 174.844185 
L 164.199367 174.929285 
L 164.524347 174.628738 
L 165.174306 172.354747 
L 165.499285 172.460235 
L 165.824265 172.22931 
L 166.474224 170.023113 
L 166.799203 170.176651 
L 167.124183 169.972493 
L 167.774142 167.70745 
L 168.099121 167.88064 
L 168.424101 167.69361 
L 169.07406 165.267596 
L 169.399039 165.369082 
L 169.724019 165.117285 
L 170.373978 162.613746 
L 170.698958 162.745441 
L 171.023937 162.508277 
L 171.673896 159.919278 
L 171.998876 160.069636 
L 172.323855 159.849444 
L 172.973814 157.266189 
L 173.298794 157.469318 
L 173.623773 157.416215 
L 174.273732 154.911373 
L 174.598712 155.178811 
L 174.923691 155.118211 
L 175.57365 152.436251 
L 175.89863 152.56395 
L 176.223609 152.390105 
L 176.873569 149.54376 
L 177.198548 149.743588 
L 177.523528 149.680668 
L 178.173487 146.850008 
L 178.498466 147.100226 
L 178.823446 147.01849 
L 179.473405 144.182685 
L 179.798384 144.403713 
L 180.123364 144.385975 
L 180.773323 141.564816 
L 181.098302 141.864836 
L 181.423282 141.860967 
L 182.073241 139.069902 
L 182.39822 139.394492 
L 182.7232 139.451965 
L 183.373159 137.083699 
L 183.698139 137.50168 
L 184.023118 137.720555 
L 184.673077 135.4698 
L 185.323036 136.547953 
L 185.972995 134.849322 
L 186.622954 136.108757 
L 187.272913 134.508916 
L 187.922872 136.167282 
L 188.247852 135.530781 
L 188.572831 135.237663 
L 189.22279 137.958561 
L 189.54777 137.992472 
L 189.87275 138.32658 
L 191.172668 144.870132 
L 194.097483 169.58563 
L 194.422463 173.04771 
L 195.072422 177.805536 
L 197.022299 195.593615 
L 197.672258 200.431779 
L 198.647197 208.846336 
L 200.597074 224.437096 
L 200.922053 227.396029 
L 201.572012 231.494732 
L 202.546951 238.133365 
L 204.171849 247.10507 
L 204.496828 247.967567 
L 204.821808 248.423997 
L 205.471767 248.794738 
L 206.446705 248.918275 
L 210.34646 248.940684 
L 348.462758 248.940698 
L 348.462758 248.940698 
" clip-path="url(#pcc3ed243c5)" style="fill: none; stroke-dasharray: 6.4,1.6,1,1.6; stroke-dashoffset: 0; stroke: #ff4500"/>
   </g>
   <g id="patch_3">
    <path d="M 40.073438 273.312 
L 40.073438 7.2 
" style="fill: none; stroke: #000000; stroke-width: 0.8; stroke-linejoin: miter; stroke-linecap: square"/>
   </g>
   <g id="patch_4">
    <path d="M 397.193438 273.312 
L 397.193438 7.2 
" style="fill: none; stroke: #000000; stroke-width: 0.8; stroke-linejoin: miter; stroke-linecap: square"/>
   </g>
   <g id="patch_5">
    <path d="M 40.073438 273.312 
L 397.193437 273.312 
" style="fill: none; stroke: #000000; stroke-width: 0.8; stroke-linejoin: miter; stroke-linecap: square"/>
   </g>
   <g id="patch_6">
    <path d="M 40.073438 7.2 
L 397.193437 7.2 
" style="fill: none; stroke: #000000; stroke-width: 0.8; stroke-linejoin: miter; stroke-linecap: square"/>
   </g>
   <g id="legend_1">
    <g id="patch_7">
     <path d="M 199.968437 59.234375 
L 390.193438 59.234375 
Q 392.193438 59.234375 392.193438 57.234375 
L 392.193438 14.2 
Q 392.193438 12.2 390.193438 12.2 
L 199.968437 12.2 
Q 197.968437 12.2 197.968437 14.2 
L 197.968437 57.234375 
Q 197.968437 59.234375 199.968437 59.234375 
z
" style="fill: #ffffff; opacity: 0.8; stroke: #cccccc; stroke-linejoin: miter"/>
    </g>
    <g id="line2d_19">
     <path d="M 201.968437 20.298437 
L 211.968437 20.298437 
L 221.968437 20.298437 
" style="fill: none; stroke: #ff4500; stroke-linecap: square"/>
    </g>
    <g id="text_16">
     <text style="font: 10px 'DejaVu Sans', 'Bitstream Vera Sans', 'Computer Modern Sans Serif', 'Lucida Grande', 'Verdana', 'Geneva', 'Lucid', 'Arial', 'Helvetica', 'Avant Garde', sans-serif; text-anchor: start" x="229.968437" y="23.798437" transform="rotate(-0 229.968437 23.798437)">Target response DB1</text>
    </g>
    <g id="line2d_20">
     <path d="M 201.968437 34.976562 
L 211.968437 34.976562 
L 221.968437 34.976562 
" style="fill: none; stroke-dasharray: 3.7,1.6; stroke-dashoffset: 0; stroke: #ff4500"/>
    </g>
    <g id="text_17">
     <text style="font: 10px 'DejaVu Sans', 'Bitstream Vera Sans', 'Computer Modern Sans Serif', 'Lucida Grande', 'Verdana', 'Geneva', 'Lucid', 'Arial', 'Helvetica', 'Avant Garde', sans-serif; text-anchor: start" x="229.968437" y="38.476562" transform="rotate(-0 229.968437 38.476562)">Digital prediction DB1</text>
    </g>
    <g id="line2d_21">
     <path d="M 201.968437 49.654687 
L 211.968437 49.654687 
L 221.968437 49.654687 
" style="fill: none; stroke-dasharray: 6.4,1.6,1,1.6; stroke-dashoffset: 0; stroke: #ff4500"/>
    </g>
    <g id="text_18">
     <text style="font: 10px 'DejaVu Sans', 'Bitstream Vera Sans', 'Computer Modern Sans Serif', 'Lucida Grande', 'Verdana', 'Geneva', 'Lucid', 'Arial', 'Helvetica', 'Avant Garde', sans-serif; text-anchor: start" x="229.968437" y="53.154687" transform="rotate(-0 229.968437 53.154687)">Adjusted analog prediction DB1</text>
    </g>
   </g>
  </g>
 </g>
 <defs>
  <clipPath id="pcc3ed243c5">
   <rect x="40.073438" y="7.2" width="357.12" height="266.112"/>
  </clipPath>
 </defs>
</svg>
