<?xml version="1.0" encoding="utf-8" standalone="no"?>
<!DOCTYPE svg PUBLIC "-//W3C//DTD SVG 1.1//EN"
  "http://www.w3.org/Graphics/SVG/1.1/DTD/svg11.dtd">
<svg xmlns:xlink="http://www.w3.org/1999/xlink" width="404.393438pt" height="297.190125pt" viewBox="0 0 404.393438 297.190125" xmlns="http://www.w3.org/2000/svg" version="1.1">
 <metadata>
  <rdf:RDF xmlns:dc="http://purl.org/dc/elements/1.1/" xmlns:cc="http://creativecommons.org/ns#" xmlns:rdf="http://www.w3.org/1999/02/22-rdf-syntax-ns#">
   <cc:Work>
    <dc:type rdf:resource="http://purl.org/dc/dcmitype/StillImage"/>
    <dc:date>2023-10-25T17:37:26.632022</dc:date>
    <dc:format>image/svg+xml</dc:format>
    <dc:creator>
     <cc:Agent>
      <dc:title>Matplotlib v3.8.0, https://matplotlib.org/</dc:title>
     </cc:Agent>
    </dc:creator>
   </cc:Work>
  </rdf:RDF>
 </metadata>
 <defs>
  <style type="text/css">*{stroke-linejoin: round; stroke-linecap: butt}</style>
 </defs>
 <g id="figure_1">
  <g id="patch_1">
   <path d="M 0 297.190125 
L 404.393438 297.190125 
L 404.393438 0 
L 0 0 
z
" style="fill: #ffffff"/>
  </g>
  <g id="axes_1">
   <g id="patch_2">
    <path d="M 40.073438 273.312 
L 397.193438 273.312 
L 397.193438 7.2 
L 40.073438 7.2 
z
" style="fill: #ffffff"/>
   </g>
   <g id="matplotlib.axis_1">
    <g id="xtick_1">
     <g id="line2d_1">
      <defs>
       <path id="md8017646f7" d="M 0 0 
L 0 3.5 
" style="stroke: #000000; stroke-width: 0.8"/>
      </defs>
      <g>
       <use xlink:href="#md8017646f7" x="56.306165" y="273.312" style="stroke: #000000; stroke-width: 0.8"/>
      </g>
     </g>
     <g id="text_1">
      <text style="font: 10px 'DejaVu Sans', 'Bitstream Vera Sans', 'Computer Modern Sans Serif', 'Lucida Grande', 'Verdana', 'Geneva', 'Lucid', 'Arial', 'Helvetica', 'Avant Garde', sans-serif; text-anchor: middle" x="56.306165" y="287.910437" transform="rotate(-0 56.306165 287.910437)">0</text>
     </g>
    </g>
    <g id="xtick_2">
     <g id="line2d_2">
      <g>
       <use xlink:href="#md8017646f7" x="121.30207" y="273.312" style="stroke: #000000; stroke-width: 0.8"/>
      </g>
     </g>
     <g id="text_2">
      <text style="font: 10px 'DejaVu Sans', 'Bitstream Vera Sans', 'Computer Modern Sans Serif', 'Lucida Grande', 'Verdana', 'Geneva', 'Lucid', 'Arial', 'Helvetica', 'Avant Garde', sans-serif; text-anchor: middle" x="121.30207" y="287.910437" transform="rotate(-0 121.30207 287.910437)">100</text>
     </g>
    </g>
    <g id="xtick_3">
     <g id="line2d_3">
      <g>
       <use xlink:href="#md8017646f7" x="186.297975" y="273.312" style="stroke: #000000; stroke-width: 0.8"/>
      </g>
     </g>
     <g id="text_3">
      <text style="font: 10px 'DejaVu Sans', 'Bitstream Vera Sans', 'Computer Modern Sans Serif', 'Lucida Grande', 'Verdana', 'Geneva', 'Lucid', 'Arial', 'Helvetica', 'Avant Garde', sans-serif; text-anchor: middle" x="186.297975" y="287.910437" transform="rotate(-0 186.297975 287.910437)">200</text>
     </g>
    </g>
    <g id="xtick_4">
     <g id="line2d_4">
      <g>
       <use xlink:href="#md8017646f7" x="251.29388" y="273.312" style="stroke: #000000; stroke-width: 0.8"/>
      </g>
     </g>
     <g id="text_4">
      <text style="font: 10px 'DejaVu Sans', 'Bitstream Vera Sans', 'Computer Modern Sans Serif', 'Lucida Grande', 'Verdana', 'Geneva', 'Lucid', 'Arial', 'Helvetica', 'Avant Garde', sans-serif; text-anchor: middle" x="251.29388" y="287.910437" transform="rotate(-0 251.29388 287.910437)">300</text>
     </g>
    </g>
    <g id="xtick_5">
     <g id="line2d_5">
      <g>
       <use xlink:href="#md8017646f7" x="316.289785" y="273.312" style="stroke: #000000; stroke-width: 0.8"/>
      </g>
     </g>
     <g id="text_5">
      <text style="font: 10px 'DejaVu Sans', 'Bitstream Vera Sans', 'Computer Modern Sans Serif', 'Lucida Grande', 'Verdana', 'Geneva', 'Lucid', 'Arial', 'Helvetica', 'Avant Garde', sans-serif; text-anchor: middle" x="316.289785" y="287.910437" transform="rotate(-0 316.289785 287.910437)">400</text>
     </g>
    </g>
    <g id="xtick_6">
     <g id="line2d_6">
      <g>
       <use xlink:href="#md8017646f7" x="381.28569" y="273.312" style="stroke: #000000; stroke-width: 0.8"/>
      </g>
     </g>
     <g id="text_6">
      <text style="font: 10px 'DejaVu Sans', 'Bitstream Vera Sans', 'Computer Modern Sans Serif', 'Lucida Grande', 'Verdana', 'Geneva', 'Lucid', 'Arial', 'Helvetica', 'Avant Garde', sans-serif; text-anchor: middle" x="381.28569" y="287.910437" transform="rotate(-0 381.28569 287.910437)">500</text>
     </g>
    </g>
   </g>
   <g id="matplotlib.axis_2">
    <g id="ytick_1">
     <g id="line2d_7">
      <defs>
       <path id="m04c1889b4f" d="M 0 0 
L -3.5 0 
" style="stroke: #000000; stroke-width: 0.8"/>
      </defs>
      <g>
       <use xlink:href="#m04c1889b4f" x="40.073438" y="251.384182" style="stroke: #000000; stroke-width: 0.8"/>
      </g>
     </g>
     <g id="text_7">
      <text style="font: 10px 'DejaVu Sans', 'Bitstream Vera Sans', 'Computer Modern Sans Serif', 'Lucida Grande', 'Verdana', 'Geneva', 'Lucid', 'Arial', 'Helvetica', 'Avant Garde', sans-serif; text-anchor: end" x="33.073438" y="255.183401" transform="rotate(-0 33.073438 255.183401)">-0.05</text>
     </g>
    </g>
    <g id="ytick_2">
     <g id="line2d_8">
      <g>
       <use xlink:href="#m04c1889b4f" x="40.073438" y="218.611457" style="stroke: #000000; stroke-width: 0.8"/>
      </g>
     </g>
     <g id="text_8">
      <text style="font: 10px 'DejaVu Sans', 'Bitstream Vera Sans', 'Computer Modern Sans Serif', 'Lucida Grande', 'Verdana', 'Geneva', 'Lucid', 'Arial', 'Helvetica', 'Avant Garde', sans-serif; text-anchor: end" x="33.073438" y="222.410676" transform="rotate(-0 33.073438 222.410676)">0.00</text>
     </g>
    </g>
    <g id="ytick_3">
     <g id="line2d_9">
      <g>
       <use xlink:href="#m04c1889b4f" x="40.073438" y="185.838732" style="stroke: #000000; stroke-width: 0.8"/>
      </g>
     </g>
     <g id="text_9">
      <text style="font: 10px 'DejaVu Sans', 'Bitstream Vera Sans', 'Computer Modern Sans Serif', 'Lucida Grande', 'Verdana', 'Geneva', 'Lucid', 'Arial', 'Helvetica', 'Avant Garde', sans-serif; text-anchor: end" x="33.073438" y="189.63795" transform="rotate(-0 33.073438 189.63795)">0.05</text>
     </g>
    </g>
    <g id="ytick_4">
     <g id="line2d_10">
      <g>
       <use xlink:href="#m04c1889b4f" x="40.073438" y="153.066006" style="stroke: #000000; stroke-width: 0.8"/>
      </g>
     </g>
     <g id="text_10">
      <text style="font: 10px 'DejaVu Sans', 'Bitstream Vera Sans', 'Computer Modern Sans Serif', 'Lucida Grande', 'Verdana', 'Geneva', 'Lucid', 'Arial', 'Helvetica', 'Avant Garde', sans-serif; text-anchor: end" x="33.073438" y="156.865225" transform="rotate(-0 33.073438 156.865225)">0.10</text>
     </g>
    </g>
    <g id="ytick_5">
     <g id="line2d_11">
      <g>
       <use xlink:href="#m04c1889b4f" x="40.073438" y="120.293281" style="stroke: #000000; stroke-width: 0.8"/>
      </g>
     </g>
     <g id="text_11">
      <text style="font: 10px 'DejaVu Sans', 'Bitstream Vera Sans', 'Computer Modern Sans Serif', 'Lucida Grande', 'Verdana', 'Geneva', 'Lucid', 'Arial', 'Helvetica', 'Avant Garde', sans-serif; text-anchor: end" x="33.073438" y="124.0925" transform="rotate(-0 33.073438 124.0925)">0.15</text>
     </g>
    </g>
    <g id="ytick_6">
     <g id="line2d_12">
      <g>
       <use xlink:href="#m04c1889b4f" x="40.073438" y="87.520556" style="stroke: #000000; stroke-width: 0.8"/>
      </g>
     </g>
     <g id="text_12">
      <text style="font: 10px 'DejaVu Sans', 'Bitstream Vera Sans', 'Computer Modern Sans Serif', 'Lucida Grande', 'Verdana', 'Geneva', 'Lucid', 'Arial', 'Helvetica', 'Avant Garde', sans-serif; text-anchor: end" x="33.073438" y="91.319774" transform="rotate(-0 33.073438 91.319774)">0.20</text>
     </g>
    </g>
    <g id="ytick_7">
     <g id="line2d_13">
      <g>
       <use xlink:href="#m04c1889b4f" x="40.073438" y="54.74783" style="stroke: #000000; stroke-width: 0.8"/>
      </g>
     </g>
     <g id="text_13">
      <text style="font: 10px 'DejaVu Sans', 'Bitstream Vera Sans', 'Computer Modern Sans Serif', 'Lucida Grande', 'Verdana', 'Geneva', 'Lucid', 'Arial', 'Helvetica', 'Avant Garde', sans-serif; text-anchor: end" x="33.073438" y="58.547049" transform="rotate(-0 33.073438 58.547049)">0.25</text>
     </g>
    </g>
    <g id="ytick_8">
     <g id="line2d_14">
      <g>
       <use xlink:href="#m04c1889b4f" x="40.073438" y="21.975105" style="stroke: #000000; stroke-width: 0.8"/>
      </g>
     </g>
     <g id="text_14">
      <text style="font: 10px 'DejaVu Sans', 'Bitstream Vera Sans', 'Computer Modern Sans Serif', 'Lucida Grande', 'Verdana', 'Geneva', 'Lucid', 'Arial', 'Helvetica', 'Avant Garde', sans-serif; text-anchor: end" x="33.073438" y="25.774324" transform="rotate(-0 33.073438 25.774324)">0.30</text>
     </g>
    </g>
   </g>
   <g id="line2d_15">
    <path d="M 56.306165 261.216 
L 121.30207 261.216 
L 121.952029 245.850606 
L 122.926967 231.080758 
L 124.226885 214.81756 
L 125.851783 197.283177 
L 127.80166 178.885107 
L 129.751537 162.552976 
L 132.026394 145.502323 
L 134.301251 130.085116 
L 136.576107 116.864008 
L 139.175944 103.032804 
L 142.100759 88.712958 
L 143.725657 81.351155 
L 145.025575 76.105946 
L 150.225247 53.67767 
L 153.800022 38.590156 
L 154.449981 50.998368 
L 155.09994 58.410903 
L 156.399858 69.888764 
L 157.699777 79.552916 
L 159.324674 89.861315 
L 160.949572 98.648469 
L 162.899449 107.816442 
L 165.174306 117.251448 
L 167.774142 126.996221 
L 171.348917 139.409022 
L 176.548589 156.518619 
L 186.297975 188.143356 
L 186.947934 175.09342 
L 187.597893 167.089508 
L 188.897811 154.660773 
L 190.522709 141.458431 
L 192.147606 130.226235 
L 193.772504 120.476022 
L 195.722381 110.185714 
L 197.672258 101.091217 
L 200.597074 88.763953 
L 204.171849 74.820731 
L 207.746623 61.684898 
L 218.145968 25.23704 
L 218.795927 23.046052 
L 219.445886 35.952869 
L 220.095845 43.835234 
L 221.395763 56.212116 
L 222.695682 66.672448 
L 224.320579 77.819436 
L 225.945477 87.40749 
L 227.895354 97.466094 
L 230.170211 107.843381 
L 232.770047 118.550886 
L 236.019842 130.90332 
L 240.569555 147.195166 
L 248.369064 174.135467 
L 251.29388 184.161981 
L 251.943839 171.253204 
L 252.593798 163.388877 
L 253.893716 151.061954 
L 255.193634 140.632034 
L 256.818532 129.551051 
L 258.443429 120.119782 
L 260.393306 110.345186 
L 262.343184 101.684272 
L 264.61804 92.576404 
L 267.542856 81.879517 
L 270.792651 70.802598 
L 275.992324 53.79067 
L 283.791832 28.772496 
L 284.441791 41.841931 
L 285.09175 49.908347 
L 286.391668 62.628556 
L 287.691587 73.453846 
L 289.316484 85.05041 
L 290.941382 95.065886 
L 292.891259 105.606315 
L 295.166116 116.505671 
L 297.765952 127.761923 
L 301.015747 140.735989 
L 305.240481 156.599581 
L 311.740071 180.020445 
L 317.589703 200.482385 
L 319.53958 206.29156 
L 321.489457 211.436072 
L 323.439334 216.013833 
L 325.714191 220.74278 
L 327.989048 224.908397 
L 330.263904 228.591978 
L 332.538761 231.859877 
L 334.813618 234.767034 
L 337.413454 237.706453 
L 340.01329 240.292031 
L 342.613126 242.571715 
L 345.537942 244.82069 
L 348.462758 246.781614 
L 351.712553 248.671381 
L 354.962348 250.301313 
L 358.537123 251.839749 
L 362.436877 253.261922 
L 366.661611 254.551588 
L 371.211324 255.700245 
L 376.086017 256.706067 
L 380.96071 257.523897 
L 380.96071 257.523897 
" clip-path="url(#p8a7435d3f5)" style="fill: none; stroke: #6b8e23; stroke-linecap: square"/>
   </g>
   <g id="line2d_16">
    <path d="M 56.306165 251.888791 
L 56.631144 248.661061 
L 56.956124 246.780084 
L 57.281103 245.68457 
L 57.606083 245.046667 
L 58.256042 244.459212 
L 58.906001 244.260323 
L 60.205919 244.170309 
L 68.330407 244.15871 
L 120.97709 244.15871 
L 121.30207 233.760307 
L 122.601988 179.657486 
L 123.576926 147.661388 
L 124.551865 123.017592 
L 125.526804 104.078811 
L 126.501742 89.83625 
L 127.476681 78.567027 
L 128.451619 69.179713 
L 129.426558 61.905524 
L 130.401496 56.53258 
L 131.701415 50.861247 
L 133.001333 46.323372 
L 133.976271 43.231298 
L 134.301251 19.296 
L 134.62623 20.961687 
L 134.95121 24.075673 
L 135.926148 29.326859 
L 137.876026 35.458368 
L 138.525985 36.773301 
L 139.175944 37.712482 
L 139.825903 38.278421 
L 140.475862 38.483251 
L 141.125821 38.373967 
L 141.77578 38.02227 
L 143.075698 36.965546 
L 144.700596 35.312896 
L 146.650473 32.947262 
L 152.175125 26.113186 
L 153.475043 24.883029 
L 153.800022 42.808857 
L 154.449981 96.840208 
L 155.09994 129.148439 
L 155.749899 147.42057 
L 156.399858 157.376013 
L 157.049818 162.975803 
L 157.699777 166.322515 
L 158.349736 168.476364 
L 159.324674 170.672452 
L 161.274551 174.076784 
L 165.174306 180.804775 
L 168.424101 186.952386 
L 171.023937 192.300935 
L 173.623773 198.206064 
L 176.873569 206.231059 
L 180.448343 215.707322 
L 183.373159 224.044926 
L 185.972995 231.89451 
L 186.622954 189.450671 
L 187.272913 159.751472 
L 187.922872 138.629129 
L 188.572831 123.305507 
L 189.22279 112.112114 
L 189.87275 103.592995 
L 190.847688 94.189045 
L 191.822627 87.316906 
L 192.797565 81.953571 
L 194.097483 76.177306 
L 195.722381 70.216327 
L 197.672258 64.102752 
L 200.272094 56.802188 
L 202.871931 50.339046 
L 206.446705 42.385381 
L 208.071603 39.134019 
L 210.02148 35.914983 
L 212.621316 32.044754 
L 215.546132 28.078848 
L 217.17103 26.168703 
L 218.470948 24.916719 
L 218.795927 42.836111 
L 219.445886 96.855991 
L 220.095845 129.157169 
L 220.745804 147.425066 
L 221.395763 157.378336 
L 222.045723 162.976996 
L 222.695682 166.323085 
L 223.345641 168.476666 
L 224.320579 170.672537 
L 226.270456 174.076791 
L 230.170211 180.804775 
L 233.420006 186.952386 
L 236.019842 192.300935 
L 238.619678 198.206064 
L 241.869474 206.231059 
L 245.444248 215.707322 
L 248.369064 224.044926 
L 250.9689 231.89451 
L 251.29388 193.545494 
L 251.618859 173.9983 
L 252.268818 152.189434 
L 252.918777 140.241442 
L 253.568736 132.567407 
L 254.218695 127.040149 
L 255.193634 120.798112 
L 256.493552 114.265728 
L 258.443429 105.924879 
L 261.693225 93.17739 
L 264.61804 82.42715 
L 268.192815 70.673153 
L 270.792651 62.751565 
L 274.042447 53.563929 
L 276.317303 47.716271 
L 279.242119 40.867336 
L 282.166935 34.469359 
L 283.466853 31.914967 
L 284.441791 107.011105 
L 285.09175 130.774103 
L 285.741709 142.282593 
L 286.391668 148.204848 
L 287.041628 151.615525 
L 287.691587 153.908158 
L 288.991505 157.384127 
L 295.166116 172.820474 
L 298.415911 181.765587 
L 301.340727 190.423389 
L 304.915501 201.699712 
L 308.815256 214.794588 
L 312.065051 226.424654 
L 315.964805 241.208749 
L 316.289785 242.477882 
L 316.614764 243.205106 
L 317.264723 243.850482 
L 317.914682 244.058561 
L 319.2146 244.147991 
L 327.664068 244.15871 
L 380.96071 244.15871 
L 380.96071 244.15871 
" clip-path="url(#p8a7435d3f5)" style="fill: none; stroke-dasharray: 3.7,1.6; stroke-dashoffset: 0; stroke: #6b8e23"/>
   </g>
   <g id="line2d_17">
    <path d="M 56.306165 251.720378 
L 59.23098 251.590276 
L 59.55596 251.286697 
L 103.428196 251.286697 
L 103.753175 251.041609 
L 104.403134 249.705066 
L 104.728114 248.463852 
L 106.353012 238.698737 
L 106.677991 235.938216 
L 107.32795 232.189416 
L 109.277827 217.241916 
L 109.927786 213.33094 
L 111.877664 198.125573 
L 112.527623 194.216299 
L 114.4775 178.960904 
L 115.127459 175.069577 
L 117.077336 159.793998 
L 118.052275 154.938551 
L 118.377254 153.038409 
L 119.027213 153.264853 
L 119.677172 150.841354 
L 120.327131 152.139762 
L 120.97709 150.169759 
L 121.627049 152.831546 
L 121.952029 153.048869 
L 122.277008 153.048983 
L 122.926967 156.627438 
L 123.251947 157.08001 
L 123.576926 157.269235 
L 124.226885 161.03835 
L 124.551865 161.533493 
L 124.876845 161.733038 
L 125.526804 165.547933 
L 125.851783 166.050406 
L 126.176763 166.227888 
L 126.826722 170.036379 
L 127.151701 170.524215 
L 127.476681 170.691001 
L 128.12664 174.519589 
L 128.451619 175.001205 
L 128.776599 175.134533 
L 129.426558 178.966918 
L 129.751537 179.448254 
L 130.076517 179.548297 
L 130.726476 183.362877 
L 131.051456 183.827354 
L 131.376435 183.913508 
L 132.026394 187.743617 
L 132.351374 188.200435 
L 132.676353 188.252798 
L 133.326312 192.084599 
L 133.651292 192.541434 
L 133.976271 192.56541 
L 134.62623 196.378797 
L 134.95121 196.541824 
L 135.276189 195.817515 
L 135.601169 196.461588 
L 135.926148 197.569354 
L 136.251128 197.226775 
L 136.576107 196.165288 
L 136.901087 196.587493 
L 137.226066 197.533327 
L 137.551046 197.105848 
L 137.876026 195.964845 
L 138.201005 196.345813 
L 138.525985 197.263687 
L 138.850964 196.847701 
L 139.175944 195.666767 
L 139.500923 196.038502 
L 139.825903 196.973683 
L 140.150882 196.535911 
L 140.475862 195.3644 
L 140.800841 195.750744 
L 141.125821 196.692589 
L 141.4508 196.247838 
L 141.77578 195.052346 
L 142.100759 195.429173 
L 142.425739 196.393341 
L 142.750718 195.98112 
L 143.075698 194.761342 
L 143.400677 195.13799 
L 143.725657 196.128419 
L 144.050637 195.699105 
L 144.375616 194.491571 
L 144.700596 194.884011 
L 145.025575 195.883277 
L 145.350555 195.448189 
L 145.675534 194.218013 
L 146.000514 194.60159 
L 146.325493 195.637973 
L 146.650473 195.222795 
L 146.975452 193.964149 
L 147.300432 193.765566 
L 147.625411 194.423423 
L 147.950391 193.810192 
L 148.27537 193.600534 
L 148.60035 193.798378 
L 148.925329 194.764646 
L 149.250309 194.347834 
L 149.575288 194.328171 
L 149.900268 194.627213 
L 150.225247 195.649755 
L 150.550227 195.271434 
L 150.875207 195.281879 
L 151.200186 195.592658 
L 151.525166 196.657623 
L 151.850145 196.284466 
L 152.175125 196.332373 
L 152.500104 196.63749 
L 152.825084 197.729452 
L 153.150063 197.372157 
L 153.475043 197.431252 
L 153.800022 197.762764 
L 154.125002 198.862784 
L 154.449981 198.504274 
L 154.774961 198.579407 
L 155.09994 198.916383 
L 155.42492 200.053607 
L 155.749899 199.706275 
L 156.074879 199.802249 
L 156.399858 200.127697 
L 156.724838 201.288384 
L 157.049818 200.956042 
L 157.374797 201.061741 
L 157.699777 201.41081 
L 158.024756 202.58895 
L 158.349736 202.261473 
L 158.674715 202.386289 
L 158.999695 202.743951 
L 159.324674 203.949267 
L 159.649654 203.628573 
L 159.974633 203.756428 
L 160.299613 204.114668 
L 160.624592 205.348125 
L 160.949572 205.624324 
L 161.599531 206.72799 
L 161.92451 206.942188 
L 162.24949 206.821696 
L 163.224428 207.502075 
L 163.549408 207.311944 
L 164.199367 207.917051 
L 164.524347 207.918373 
L 164.849326 207.7201 
L 165.824265 208.301844 
L 166.149244 208.109846 
L 166.799203 208.708051 
L 167.124183 208.693013 
L 167.449162 208.506193 
L 168.099121 209.136655 
L 168.424101 209.122372 
L 168.74908 208.933902 
L 169.399039 209.578939 
L 169.724019 209.563818 
L 170.048999 209.390793 
L 170.698958 210.029426 
L 171.023937 210.005838 
L 171.348917 209.839448 
L 171.998876 210.494011 
L 172.323855 210.468859 
L 172.648835 210.304736 
L 173.298794 210.98336 
L 173.623773 210.957697 
L 173.948753 210.801759 
L 174.598712 211.482743 
L 174.923691 211.460471 
L 175.248671 211.315365 
L 175.89863 212.003853 
L 176.548589 211.833448 
L 177.198548 212.542749 
L 177.848507 212.374125 
L 178.498466 213.089665 
L 179.148425 212.945149 
L 179.798384 213.671227 
L 180.448343 213.527869 
L 181.098302 214.273924 
L 181.748261 214.131581 
L 182.39822 214.888498 
L 183.04818 214.75466 
L 183.698139 215.510567 
L 184.348098 215.396284 
L 184.998057 216.175808 
L 185.648016 216.066567 
L 186.297975 216.849844 
L 186.947934 216.755552 
L 187.597893 217.549078 
L 188.247852 217.46786 
L 188.897811 218.26985 
L 189.54777 218.20377 
L 190.522709 219.367052 
L 190.847688 219.588167 
L 191.172668 219.472599 
L 191.497647 220.023562 
L 191.822627 220.042086 
L 192.147606 219.909097 
L 192.472586 219.372274 
L 192.797565 219.728096 
L 193.447524 219.291507 
L 193.772504 218.602419 
L 194.097483 218.877965 
L 194.747442 218.31196 
L 195.072422 217.551521 
L 195.397401 217.786324 
L 196.047361 217.142311 
L 196.37234 216.328615 
L 196.69732 216.531394 
L 197.347279 215.823062 
L 197.672258 214.96088 
L 197.997238 215.133776 
L 198.647197 214.364926 
L 198.972176 213.456553 
L 199.297156 213.601968 
L 199.947115 212.775303 
L 200.272094 211.820071 
L 200.597074 211.935956 
L 201.247033 211.050902 
L 201.572012 210.048357 
L 201.896992 210.1341 
L 202.546951 209.188698 
L 202.871931 208.140608 
L 203.19691 208.197193 
L 203.846869 207.196423 
L 204.171849 205.72707 
L 204.496828 205.500746 
L 204.821808 205.548362 
L 205.146787 204.825869 
L 205.471767 203.646685 
L 205.796746 203.755229 
L 206.121726 204.200586 
L 206.446705 203.647374 
L 206.771685 202.599321 
L 207.096664 202.833699 
L 207.421644 203.409102 
L 207.746623 202.910886 
L 208.071603 201.889755 
L 208.396582 202.163817 
L 208.721562 202.788453 
L 209.046542 202.306361 
L 209.371521 201.283639 
L 209.696501 201.573283 
L 210.02148 202.221866 
L 210.34646 201.762185 
L 210.671439 200.727638 
L 210.996419 201.029285 
L 211.321398 201.70203 
L 211.646378 201.22237 
L 211.971357 200.184858 
L 212.296337 200.500362 
L 212.621316 201.197824 
L 212.946296 200.721187 
L 213.271275 199.66375 
L 213.596255 199.974928 
L 213.921234 200.690928 
L 214.246214 200.239017 
L 214.571193 199.172514 
L 214.896173 199.495682 
L 215.221152 200.235843 
L 215.546132 199.765244 
L 215.871112 198.694263 
L 216.196091 199.033674 
L 216.521071 199.797308 
L 216.84605 199.329747 
L 217.17103 198.23846 
L 217.496009 198.572471 
L 217.820989 199.353968 
L 218.145968 198.909824 
L 218.470948 197.808593 
L 218.795927 198.152215 
L 219.120907 198.957383 
L 219.445886 198.49496 
L 219.770866 197.38849 
L 220.095845 197.745263 
L 220.420825 198.575177 
L 220.745804 198.118346 
L 221.070784 196.990887 
L 221.395763 197.341191 
L 221.720743 198.205009 
L 222.045723 197.757576 
L 222.370702 196.61344 
L 222.695682 196.968478 
L 223.020661 197.836717 
L 223.345641 197.385904 
L 223.67062 196.247591 
L 223.9956 196.599674 
L 224.320579 197.496032 
L 224.645559 197.049024 
L 224.970538 195.892638 
L 225.295518 196.262083 
L 225.620497 197.185041 
L 225.945477 196.739866 
L 226.270456 195.564327 
L 226.595436 195.93798 
L 226.920415 196.87322 
L 227.245395 196.456771 
L 227.570374 195.271971 
L 227.895354 195.629294 
L 228.220333 196.582982 
L 228.545313 196.144929 
L 228.870293 194.952567 
L 229.195272 195.331318 
L 229.520252 196.312709 
L 229.845231 195.877541 
L 230.170211 194.666907 
L 230.49519 195.048148 
L 230.82017 196.041481 
L 231.145149 195.633875 
L 231.470129 194.414343 
L 231.795108 194.779544 
L 232.120088 195.791291 
L 232.445067 195.363364 
L 232.770047 194.136304 
L 233.095026 194.530263 
L 233.420006 195.556623 
L 233.744985 194.393997 
L 234.069965 193.657408 
L 234.394944 193.667511 
L 234.719924 194.474089 
L 235.044904 193.949719 
L 235.369883 193.821546 
L 235.694863 194.074334 
L 236.019842 195.073756 
L 236.344822 194.676819 
L 236.669801 194.67362 
L 236.994781 194.977932 
L 237.31976 196.014587 
L 237.64474 195.634261 
L 237.969719 195.662973 
L 238.294699 195.982073 
L 238.619678 197.045612 
L 238.944658 196.683999 
L 239.269637 196.722247 
L 239.594617 197.043954 
L 239.919596 198.144007 
L 240.244576 197.790909 
L 240.569555 197.852367 
L 240.894535 198.162497 
L 241.219514 199.286225 
L 241.544494 198.939744 
L 241.869474 199.02119 
L 242.194453 199.361286 
L 242.519433 200.494939 
L 242.844412 200.158011 
L 243.169392 200.244151 
L 243.494371 200.585091 
L 243.819351 201.753183 
L 244.14433 201.417373 
L 244.46931 201.53591 
L 244.794289 201.870928 
L 245.119269 203.065261 
L 245.444248 202.746009 
L 245.769228 202.874878 
L 246.094207 203.234543 
L 246.419187 204.43638 
L 246.744166 204.118104 
L 247.069146 204.2635 
L 247.719105 206.088805 
L 248.044085 206.157461 
L 248.694044 207.047036 
L 249.019023 207.167172 
L 249.344003 207.008315 
L 250.318941 207.644727 
L 250.643921 207.456657 
L 251.618859 208.044202 
L 251.943839 207.838966 
L 252.593798 208.441684 
L 252.918777 208.431186 
L 253.243757 208.23838 
L 253.893716 208.836777 
L 254.218695 208.833216 
L 254.543675 208.654026 
L 255.193634 209.275346 
L 255.518614 209.256506 
L 255.843593 209.079228 
L 256.493552 209.729821 
L 256.818532 209.710976 
L 257.143511 209.536415 
L 257.79347 210.18276 
L 258.11845 210.160406 
L 258.443429 209.99496 
L 259.093388 210.653216 
L 259.418368 210.630557 
L 259.743347 210.471273 
L 260.393306 211.153409 
L 260.718286 211.125786 
L 261.043266 210.972977 
L 261.693225 211.667898 
L 262.018204 211.638123 
L 262.343184 211.491199 
L 262.993143 212.185595 
L 263.643102 212.022748 
L 264.293061 212.725772 
L 264.94302 212.561589 
L 265.592979 213.292349 
L 266.242938 213.14025 
L 266.892897 213.872863 
L 267.542856 213.737376 
L 268.192815 214.475235 
L 268.842774 214.339849 
L 269.492733 215.096788 
L 270.142692 214.965508 
L 270.792651 215.729523 
L 271.44261 215.626117 
L 272.092569 216.397652 
L 272.742528 216.293781 
L 273.392487 217.079966 
L 274.042447 216.990429 
L 274.692406 217.786255 
L 275.342365 217.709957 
L 275.992324 218.515777 
L 276.642283 218.45348 
L 276.967262 218.869768 
L 277.617221 220.673128 
L 277.942201 221.455727 
L 278.26718 221.851919 
L 278.917139 223.657575 
L 279.242119 224.37915 
L 279.567098 224.686722 
L 280.217057 226.39327 
L 280.542037 227.069885 
L 280.867017 227.32597 
L 281.516976 228.962545 
L 281.841955 229.606348 
L 282.166935 229.818139 
L 282.491914 230.785301 
L 283.141873 232.002308 
L 283.466853 232.170271 
L 283.791832 233.10752 
L 284.441791 234.259788 
L 284.766771 234.384181 
L 285.09175 235.290924 
L 285.741709 236.381335 
L 286.066689 236.463581 
L 286.391668 237.341095 
L 287.041628 238.369121 
L 287.366607 238.407606 
L 287.691587 239.254599 
L 288.341546 240.219288 
L 288.666525 240.213116 
L 288.991505 241.029186 
L 289.641464 241.93191 
L 289.966443 241.881802 
L 290.291423 242.667838 
L 290.616402 243.077758 
L 290.941382 242.87001 
L 291.266361 241.987613 
L 291.591341 241.931831 
L 291.91632 242.336426 
L 292.2413 242.057523 
L 292.566279 241.173011 
L 292.891259 241.158141 
L 293.216238 241.625034 
L 293.541218 241.364001 
L 293.866198 240.489998 
L 294.191177 240.500499 
L 294.516157 240.993827 
L 294.841136 240.737605 
L 295.166116 239.859177 
L 295.491095 239.882895 
L 295.816075 240.395011 
L 296.141054 240.138915 
L 296.466034 239.254702 
L 296.791013 239.287695 
L 297.115993 239.826512 
L 297.440972 239.57183 
L 297.765952 238.673558 
L 298.090931 238.717185 
L 298.415911 239.261755 
L 298.74089 239.017881 
L 299.06587 238.108844 
L 299.390849 238.162856 
L 299.715829 238.7234 
L 300.040809 238.46591 
L 300.365788 237.554637 
L 300.690768 237.616381 
L 301.015747 238.206691 
L 301.340727 237.954511 
L 301.665706 237.031249 
L 301.990686 237.102854 
L 302.315665 237.699893 
L 302.640645 237.458426 
L 302.965624 236.526265 
L 303.290604 236.607459 
L 303.615583 237.22051 
L 303.940563 236.96555 
L 304.265542 236.030407 
L 304.590522 236.118641 
L 304.915501 236.761417 
L 305.240481 236.511757 
L 305.56546 235.563996 
L 305.89044 235.660062 
L 306.215419 236.309667 
L 306.540399 236.070518 
L 306.865379 235.112881 
L 307.190358 235.219468 
L 307.515338 235.884659 
L 307.840317 235.632225 
L 308.165297 234.670897 
L 308.490276 234.789706 
L 308.815256 235.473607 
L 309.140235 235.220725 
L 309.465215 234.242658 
L 309.790194 234.362042 
L 310.115174 235.060887 
L 310.440153 234.824848 
L 310.765133 233.830156 
L 311.090112 233.958439 
L 311.415092 234.681116 
L 311.740071 234.432749 
L 312.065051 233.446107 
L 312.39003 233.575939 
L 312.71501 234.318242 
L 313.03999 234.070163 
L 313.364969 233.068013 
L 313.689949 233.210439 
L 314.014928 233.971999 
L 314.339908 233.729422 
L 314.664887 232.70025 
L 314.989867 232.843976 
L 315.314846 233.615469 
L 315.639826 233.370273 
L 315.964805 232.353568 
L 316.289785 232.499728 
L 316.614764 233.291488 
L 316.939744 233.045652 
L 317.264723 232.013741 
L 317.589703 232.171967 
L 317.914682 232.982551 
L 318.239662 232.741944 
L 318.564641 231.683363 
L 318.889621 231.842174 
L 319.2146 232.66263 
L 319.53958 232.431865 
L 319.86456 231.37272 
L 320.514519 231.754217 
L 321.164478 230.602264 
L 321.489457 230.438957 
L 321.814437 231.009054 
L 322.464396 230.290727 
L 322.789375 230.216054 
L 323.114355 230.866475 
L 323.764314 230.230244 
L 324.089293 230.161968 
L 324.414273 230.843969 
L 325.064232 230.237178 
L 325.389211 230.192958 
L 325.714191 230.896033 
L 326.039171 230.521467 
L 326.36415 230.319343 
L 326.68913 230.286649 
L 327.014109 231.017697 
L 327.664068 230.460595 
L 327.989048 230.43594 
L 328.314027 231.199612 
L 328.639007 230.852761 
L 328.963986 230.679491 
L 329.288966 230.668079 
L 329.613945 231.447847 
L 329.938925 231.10915 
L 330.263904 230.954701 
L 330.588884 230.95399 
L 330.913863 231.762033 
L 331.238843 231.443918 
L 331.563822 231.3005 
L 331.888802 231.31066 
L 332.213781 232.150576 
L 332.538761 231.840167 
L 332.863741 231.713778 
L 333.18872 231.723871 
L 333.5137 232.592226 
L 333.838679 232.297003 
L 334.488638 233.258624 
L 334.813618 233.566242 
L 335.138597 233.621466 
L 336.113536 234.168826 
L 336.438515 234.151738 
L 337.413454 234.620415 
L 337.738433 234.602709 
L 338.713372 235.050697 
L 339.038352 235.040708 
L 340.01329 235.492489 
L 340.33827 235.486638 
L 341.313208 235.965045 
L 341.963167 236.03783 
L 342.613126 236.206088 
L 343.263085 236.265857 
L 343.913044 236.429615 
L 344.563003 236.493147 
L 345.212962 236.655328 
L 345.862922 236.712136 
L 346.512881 236.899326 
L 346.83786 236.871548 
L 348.462758 237.198849 
L 348.462758 237.198849 
" clip-path="url(#p8a7435d3f5)" style="fill: none; stroke-dasharray: 6.4,1.6,1,1.6; stroke-dashoffset: 0; stroke: #6b8e23"/>
   </g>
   <g id="patch_3">
    <path d="M 40.073438 273.312 
L 40.073438 7.2 
" style="fill: none; stroke: #000000; stroke-width: 0.8; stroke-linejoin: miter; stroke-linecap: square"/>
   </g>
   <g id="patch_4">
    <path d="M 397.193438 273.312 
L 397.193438 7.2 
" style="fill: none; stroke: #000000; stroke-width: 0.8; stroke-linejoin: miter; stroke-linecap: square"/>
   </g>
   <g id="patch_5">
    <path d="M 40.073438 273.312 
L 397.193437 273.312 
" style="fill: none; stroke: #000000; stroke-width: 0.8; stroke-linejoin: miter; stroke-linecap: square"/>
   </g>
   <g id="patch_6">
    <path d="M 40.073438 7.2 
L 397.193437 7.2 
" style="fill: none; stroke: #000000; stroke-width: 0.8; stroke-linejoin: miter; stroke-linecap: square"/>
   </g>
   <g id="legend_1">
    <g id="patch_7">
     <path d="M 200.827812 163.773187 
L 390.193438 163.773187 
Q 392.193438 163.773187 392.193438 161.773187 
L 392.193438 118.738812 
Q 392.193438 116.738812 390.193438 116.738812 
L 200.827812 116.738812 
Q 198.827812 116.738812 198.827812 118.738812 
L 198.827812 161.773187 
Q 198.827812 163.773187 200.827812 163.773187 
z
" style="fill: #ffffff; opacity: 0.8; stroke: #cccccc; stroke-linejoin: miter"/>
    </g>
    <g id="line2d_18">
     <path d="M 202.827812 124.83725 
L 212.827812 124.83725 
L 222.827812 124.83725 
" style="fill: none; stroke: #6b8e23; stroke-linecap: square"/>
    </g>
    <g id="text_15">
     <text style="font: 10px 'DejaVu Sans', 'Bitstream Vera Sans', 'Computer Modern Sans Serif', 'Lucida Grande', 'Verdana', 'Geneva', 'Lucid', 'Arial', 'Helvetica', 'Avant Garde', sans-serif; text-anchor: start" x="230.827812" y="128.33725" transform="rotate(-0 230.827812 128.33725)">Target response VB1</text>
    </g>
    <g id="line2d_19">
     <path d="M 202.827812 139.515375 
L 212.827812 139.515375 
L 222.827812 139.515375 
" style="fill: none; stroke-dasharray: 3.7,1.6; stroke-dashoffset: 0; stroke: #6b8e23"/>
    </g>
    <g id="text_16">
     <text style="font: 10px 'DejaVu Sans', 'Bitstream Vera Sans', 'Computer Modern Sans Serif', 'Lucida Grande', 'Verdana', 'Geneva', 'Lucid', 'Arial', 'Helvetica', 'Avant Garde', sans-serif; text-anchor: start" x="230.827812" y="143.015375" transform="rotate(-0 230.827812 143.015375)">Digital prediction VB1</text>
    </g>
    <g id="line2d_20">
     <path d="M 202.827812 154.1935 
L 212.827812 154.1935 
L 222.827812 154.1935 
" style="fill: none; stroke-dasharray: 6.4,1.6,1,1.6; stroke-dashoffset: 0; stroke: #6b8e23"/>
    </g>
    <g id="text_17">
     <text style="font: 10px 'DejaVu Sans', 'Bitstream Vera Sans', 'Computer Modern Sans Serif', 'Lucida Grande', 'Verdana', 'Geneva', 'Lucid', 'Arial', 'Helvetica', 'Avant Garde', sans-serif; text-anchor: start" x="230.827812" y="157.6935" transform="rotate(-0 230.827812 157.6935)">Adjusted analog prediction VB1</text>
    </g>
   </g>
  </g>
 </g>
 <defs>
  <clipPath id="p8a7435d3f5">
   <rect x="40.073438" y="7.2" width="357.12" height="266.112"/>
  </clipPath>
 </defs>
</svg>
