<?xml version="1.0" encoding="utf-8" standalone="no"?>
<!DOCTYPE svg PUBLIC "-//W3C//DTD SVG 1.1//EN"
  "http://www.w3.org/Graphics/SVG/1.1/DTD/svg11.dtd">
<svg xmlns:xlink="http://www.w3.org/1999/xlink" width="394.423125pt" height="297.190125pt" viewBox="0 0 394.423125 297.190125" xmlns="http://www.w3.org/2000/svg" version="1.1">
 <metadata>
  <rdf:RDF xmlns:dc="http://purl.org/dc/elements/1.1/" xmlns:cc="http://creativecommons.org/ns#" xmlns:rdf="http://www.w3.org/1999/02/22-rdf-syntax-ns#">
   <cc:Work>
    <dc:type rdf:resource="http://purl.org/dc/dcmitype/StillImage"/>
    <dc:date>2023-10-29T19:10:45.972590</dc:date>
    <dc:format>image/svg+xml</dc:format>
    <dc:creator>
     <cc:Agent>
      <dc:title>Matplotlib v3.8.0, https://matplotlib.org/</dc:title>
     </cc:Agent>
    </dc:creator>
   </cc:Work>
  </rdf:RDF>
 </metadata>
 <defs>
  <style type="text/css">*{stroke-linejoin: round; stroke-linecap: butt}</style>
 </defs>
 <g id="figure_1">
  <g id="patch_1">
   <path d="M 0 297.190125 
L 394.423125 297.190125 
L 394.423125 0 
L 0 0 
z
" style="fill: #ffffff"/>
  </g>
  <g id="axes_1">
   <g id="patch_2">
    <path d="M 30.103125 273.312 
L 387.223125 273.312 
L 387.223125 7.2 
L 30.103125 7.2 
z
" style="fill: #ffffff"/>
   </g>
   <g id="matplotlib.axis_1">
    <g id="xtick_1">
     <g id="line2d_1">
      <defs>
       <path id="mdc6d3d4ddd" d="M 0 0 
L 0 3.5 
" style="stroke: #000000; stroke-width: 0.8"/>
      </defs>
      <g>
       <use xlink:href="#mdc6d3d4ddd" x="46.335852" y="273.312" style="stroke: #000000; stroke-width: 0.8"/>
      </g>
     </g>
     <g id="text_1">
      <text style="font: 10px 'DejaVu Sans', 'Bitstream Vera Sans', 'Computer Modern Sans Serif', 'Lucida Grande', 'Verdana', 'Geneva', 'Lucid', 'Arial', 'Helvetica', 'Avant Garde', sans-serif; text-anchor: middle" x="46.335852" y="287.910437" transform="rotate(-0 46.335852 287.910437)">0</text>
     </g>
    </g>
    <g id="xtick_2">
     <g id="line2d_2">
      <g>
       <use xlink:href="#mdc6d3d4ddd" x="111.331757" y="273.312" style="stroke: #000000; stroke-width: 0.8"/>
      </g>
     </g>
     <g id="text_2">
      <text style="font: 10px 'DejaVu Sans', 'Bitstream Vera Sans', 'Computer Modern Sans Serif', 'Lucida Grande', 'Verdana', 'Geneva', 'Lucid', 'Arial', 'Helvetica', 'Avant Garde', sans-serif; text-anchor: middle" x="111.331757" y="287.910437" transform="rotate(-0 111.331757 287.910437)">100</text>
     </g>
    </g>
    <g id="xtick_3">
     <g id="line2d_3">
      <g>
       <use xlink:href="#mdc6d3d4ddd" x="176.327662" y="273.312" style="stroke: #000000; stroke-width: 0.8"/>
      </g>
     </g>
     <g id="text_3">
      <text style="font: 10px 'DejaVu Sans', 'Bitstream Vera Sans', 'Computer Modern Sans Serif', 'Lucida Grande', 'Verdana', 'Geneva', 'Lucid', 'Arial', 'Helvetica', 'Avant Garde', sans-serif; text-anchor: middle" x="176.327662" y="287.910437" transform="rotate(-0 176.327662 287.910437)">200</text>
     </g>
    </g>
    <g id="xtick_4">
     <g id="line2d_4">
      <g>
       <use xlink:href="#mdc6d3d4ddd" x="241.323567" y="273.312" style="stroke: #000000; stroke-width: 0.8"/>
      </g>
     </g>
     <g id="text_4">
      <text style="font: 10px 'DejaVu Sans', 'Bitstream Vera Sans', 'Computer Modern Sans Serif', 'Lucida Grande', 'Verdana', 'Geneva', 'Lucid', 'Arial', 'Helvetica', 'Avant Garde', sans-serif; text-anchor: middle" x="241.323567" y="287.910437" transform="rotate(-0 241.323567 287.910437)">300</text>
     </g>
    </g>
    <g id="xtick_5">
     <g id="line2d_5">
      <g>
       <use xlink:href="#mdc6d3d4ddd" x="306.319472" y="273.312" style="stroke: #000000; stroke-width: 0.8"/>
      </g>
     </g>
     <g id="text_5">
      <text style="font: 10px 'DejaVu Sans', 'Bitstream Vera Sans', 'Computer Modern Sans Serif', 'Lucida Grande', 'Verdana', 'Geneva', 'Lucid', 'Arial', 'Helvetica', 'Avant Garde', sans-serif; text-anchor: middle" x="306.319472" y="287.910437" transform="rotate(-0 306.319472 287.910437)">400</text>
     </g>
    </g>
    <g id="xtick_6">
     <g id="line2d_6">
      <g>
       <use xlink:href="#mdc6d3d4ddd" x="371.315377" y="273.312" style="stroke: #000000; stroke-width: 0.8"/>
      </g>
     </g>
     <g id="text_6">
      <text style="font: 10px 'DejaVu Sans', 'Bitstream Vera Sans', 'Computer Modern Sans Serif', 'Lucida Grande', 'Verdana', 'Geneva', 'Lucid', 'Arial', 'Helvetica', 'Avant Garde', sans-serif; text-anchor: middle" x="371.315377" y="287.910437" transform="rotate(-0 371.315377 287.910437)">500</text>
     </g>
    </g>
   </g>
   <g id="matplotlib.axis_2">
    <g id="ytick_1">
     <g id="line2d_7">
      <defs>
       <path id="m844cb857ed" d="M 0 0 
L -3.5 0 
" style="stroke: #000000; stroke-width: 0.8"/>
      </defs>
      <g>
       <use xlink:href="#m844cb857ed" x="30.103125" y="223.026424" style="stroke: #000000; stroke-width: 0.8"/>
      </g>
     </g>
     <g id="text_7">
      <text style="font: 10px 'DejaVu Sans', 'Bitstream Vera Sans', 'Computer Modern Sans Serif', 'Lucida Grande', 'Verdana', 'Geneva', 'Lucid', 'Arial', 'Helvetica', 'Avant Garde', sans-serif; text-anchor: end" x="23.103125" y="226.825643" transform="rotate(-0 23.103125 226.825643)">0.0</text>
     </g>
    </g>
    <g id="ytick_2">
     <g id="line2d_8">
      <g>
       <use xlink:href="#m844cb857ed" x="30.103125" y="164.27323" style="stroke: #000000; stroke-width: 0.8"/>
      </g>
     </g>
     <g id="text_8">
      <text style="font: 10px 'DejaVu Sans', 'Bitstream Vera Sans', 'Computer Modern Sans Serif', 'Lucida Grande', 'Verdana', 'Geneva', 'Lucid', 'Arial', 'Helvetica', 'Avant Garde', sans-serif; text-anchor: end" x="23.103125" y="168.072449" transform="rotate(-0 23.103125 168.072449)">0.1</text>
     </g>
    </g>
    <g id="ytick_3">
     <g id="line2d_9">
      <g>
       <use xlink:href="#m844cb857ed" x="30.103125" y="105.520037" style="stroke: #000000; stroke-width: 0.8"/>
      </g>
     </g>
     <g id="text_9">
      <text style="font: 10px 'DejaVu Sans', 'Bitstream Vera Sans', 'Computer Modern Sans Serif', 'Lucida Grande', 'Verdana', 'Geneva', 'Lucid', 'Arial', 'Helvetica', 'Avant Garde', sans-serif; text-anchor: end" x="23.103125" y="109.319255" transform="rotate(-0 23.103125 109.319255)">0.2</text>
     </g>
    </g>
    <g id="ytick_4">
     <g id="line2d_10">
      <g>
       <use xlink:href="#m844cb857ed" x="30.103125" y="46.766843" style="stroke: #000000; stroke-width: 0.8"/>
      </g>
     </g>
     <g id="text_10">
      <text style="font: 10px 'DejaVu Sans', 'Bitstream Vera Sans', 'Computer Modern Sans Serif', 'Lucida Grande', 'Verdana', 'Geneva', 'Lucid', 'Arial', 'Helvetica', 'Avant Garde', sans-serif; text-anchor: end" x="23.103125" y="50.566062" transform="rotate(-0 23.103125 50.566062)">0.3</text>
     </g>
    </g>
   </g>
   <g id="line2d_11">
    <path d="M 46.335852 261.216 
L 111.981716 261.114404 
L 112.956655 260.663526 
L 113.931593 259.952571 
L 115.231512 258.650771 
L 116.53143 256.990987 
L 118.156327 254.470587 
L 119.781225 251.519508 
L 121.731102 247.499221 
L 124.005959 242.222226 
L 126.605795 235.539433 
L 129.530611 227.324791 
L 132.455426 218.505475 
L 136.355181 205.974444 
L 140.579915 191.417135 
L 145.129628 174.844322 
L 151.954198 148.972195 
L 157.15387 128.370094 
L 158.778768 122.153418 
L 160.078686 117.226141 
L 167.228236 87.666645 
L 172.102928 66.784526 
L 176.327662 48.7537 
L 176.977621 66.031721 
L 177.62758 76.802298 
L 178.927498 94.033141 
L 180.227417 108.750229 
L 181.852314 124.435627 
L 183.477212 137.740053 
L 185.102109 149.169194 
L 186.727007 159.09913 
L 188.351905 167.812358 
L 190.301782 176.960759 
L 192.251659 184.943233 
L 194.201536 191.96824 
L 196.151413 198.194399 
L 198.10129 203.744836 
L 200.376147 209.495152 
L 202.651004 214.580177 
L 204.92586 219.097054 
L 207.200717 223.124166 
L 209.475574 226.725755 
L 211.75043 229.9552 
L 214.350267 233.247553 
L 216.950103 236.16855 
L 219.549939 238.765429 
L 222.474755 241.349095 
L 225.399571 243.621281 
L 228.324386 245.622714 
L 231.574182 247.570959 
L 234.823977 249.267986 
L 238.398752 250.885214 
L 242.298506 252.394848 
L 246.52324 253.777223 
L 251.072953 255.020352 
L 255.947646 256.11916 
L 261.472298 257.127777 
L 267.646909 258.018205 
L 274.471479 258.776491 
L 282.595967 259.446753 
L 292.020373 259.995784 
L 303.719636 260.445569 
L 318.668694 260.787119 
L 339.467384 261.025663 
L 370.990398 261.160202 
L 370.990398 261.160202 
" clip-path="url(#p0595b359bc)" style="fill: none; stroke: #66cdaa; stroke-linecap: square"/>
   </g>
   <g id="line2d_12">
    <path d="M 46.335852 252.855338 
L 46.660832 249.962087 
L 46.985811 248.27603 
L 47.310791 247.29404 
L 47.63577 246.722242 
L 48.285729 246.195663 
L 48.935688 246.017383 
L 50.560586 245.932341 
L 65.509644 245.9263 
L 111.331757 245.91667 
L 111.656737 245.432305 
L 112.306696 243.720871 
L 113.931593 238.198596 
L 119.131266 220.25211 
L 124.655918 202.202963 
L 127.905713 192.223326 
L 132.130447 179.86792 
L 137.00514 166.350937 
L 142.204812 152.696536 
L 147.404485 139.876213 
L 150.004321 133.642176 
L 166.253297 96.448608 
L 169.828072 87.438254 
L 172.427908 79.921341 
L 173.402847 76.637936 
L 176.002683 68.799067 
L 176.327662 19.296 
L 176.977621 153.224281 
L 177.302601 189.213455 
L 177.62758 211.550368 
L 177.95256 225.246087 
L 178.277539 233.55287 
L 178.602519 238.552796 
L 178.927498 241.546279 
L 179.252478 243.331222 
L 179.577458 244.392123 
L 179.902437 245.021011 
L 180.552396 245.612564 
L 181.202355 245.818125 
L 182.502273 245.913588 
L 189.976802 245.9263 
L 370.990398 245.9263 
L 370.990398 245.9263 
" clip-path="url(#p0595b359bc)" style="fill: none; stroke-dasharray: 3.7,1.6; stroke-dashoffset: 0; stroke: #b22222"/>
   </g>
   <g id="line2d_13">
    <path d="M 46.335852 252.704377 
L 49.260668 252.587757 
L 49.585648 252.315638 
L 111.981716 252.238405 
L 113.931593 251.915719 
L 115.231512 251.575891 
L 116.53143 251.128312 
L 117.831348 250.575491 
L 119.131266 249.915692 
L 120.431184 249.155889 
L 121.731102 248.281615 
L 123.03102 247.303502 
L 124.980897 245.735172 
L 128.555672 242.565822 
L 129.205631 242.069191 
L 129.85559 241.427332 
L 130.505549 240.937472 
L 131.155508 240.281476 
L 131.480488 240.111314 
L 133.755344 237.982499 
L 134.080324 237.827668 
L 136.355181 235.65595 
L 136.68016 235.523463 
L 141.554853 230.932546 
L 141.879833 230.845024 
L 142.204812 230.558995 
L 142.854771 229.724884 
L 143.179751 229.64874 
L 143.50473 229.376475 
L 144.154689 228.521845 
L 144.479669 228.457701 
L 144.804648 228.189964 
L 145.454607 227.307599 
L 145.779587 227.253144 
L 146.104566 226.995425 
L 146.754525 226.092983 
L 147.079505 226.047714 
L 147.404485 225.795085 
L 148.054444 224.865589 
L 148.379423 224.82615 
L 148.704403 224.579988 
L 149.354362 223.633213 
L 149.679341 223.605322 
L 150.004321 223.40194 
L 150.65428 222.421906 
L 150.979259 222.410386 
L 151.304239 222.181976 
L 151.954198 221.15226 
L 152.279177 221.146124 
L 152.604157 220.930545 
L 153.254116 219.894507 
L 153.579096 219.926267 
L 153.904075 219.737303 
L 154.554034 218.640993 
L 154.879014 218.659119 
L 155.203993 218.47046 
L 155.853952 217.340988 
L 156.178932 217.367361 
L 156.503911 217.193144 
L 157.15387 216.053439 
L 157.47885 216.118897 
L 157.803829 215.979405 
L 158.453788 214.784624 
L 158.778768 214.836735 
L 159.103747 214.695283 
L 159.753706 213.470052 
L 160.078686 213.52055 
L 160.403666 213.389843 
L 161.053625 212.154089 
L 161.378604 212.250764 
L 161.703584 212.157981 
L 162.353543 210.872591 
L 162.678522 210.957463 
L 163.003502 210.850623 
L 163.653461 209.502265 
L 163.97844 209.576176 
L 164.30342 209.502229 
L 164.953379 208.160982 
L 165.278358 208.298381 
L 165.603338 208.263134 
L 166.253297 206.875235 
L 166.578277 206.995836 
L 166.903256 206.942199 
L 167.553215 205.476093 
L 167.878195 205.595049 
L 168.203174 205.590862 
L 168.853133 204.160098 
L 169.178113 204.320957 
L 169.503092 204.342255 
L 170.153051 202.825658 
L 170.478031 202.978012 
L 170.80301 202.987162 
L 171.452969 201.394918 
L 172.102928 201.605545 
L 172.752887 200.075272 
L 173.402847 200.377323 
L 174.052806 198.80919 
L 174.702765 199.137778 
L 175.352724 197.438121 
L 176.002683 197.685028 
L 176.327662 196.956736 
L 176.652642 195.953044 
L 177.302601 196.274067 
L 177.95256 194.486437 
L 178.602519 194.833029 
L 179.252478 193.012139 
L 179.902437 193.503236 
L 180.227417 192.797086 
L 180.552396 191.753187 
L 181.202355 192.306436 
L 181.527335 191.54403 
L 181.852314 190.448676 
L 182.502273 190.847867 
L 182.827253 190.002632 
L 183.152232 188.846003 
L 183.802191 189.385779 
L 184.127171 188.600571 
L 184.45215 187.414697 
L 185.102109 188.000376 
L 185.427089 187.21226 
L 185.752068 186.024258 
L 186.402028 186.613926 
L 186.727007 185.8081 
L 187.051987 184.60663 
L 187.701946 185.247592 
L 188.026925 184.41546 
L 188.351905 183.274389 
L 189.001864 183.991401 
L 189.651823 182.296887 
L 189.976802 182.631351 
L 190.301782 183.168917 
L 190.951741 181.512755 
L 191.27672 181.955309 
L 191.6017 182.642418 
L 192.251659 181.364223 
L 192.576639 181.877354 
L 192.901618 182.630215 
L 193.226598 182.135884 
L 193.551577 181.411061 
L 193.876557 181.931607 
L 194.201536 182.822271 
L 194.851495 181.976462 
L 195.176475 182.781039 
L 195.501454 184.013749 
L 196.151413 183.978235 
L 197.451331 187.902938 
L 197.776311 189.47474 
L 198.10129 191.800857 
L 198.751249 194.411996 
L 199.076229 196.166769 
L 199.401209 198.605372 
L 200.051168 201.303552 
L 200.376147 203.078342 
L 200.701127 205.53048 
L 201.351086 208.279005 
L 203.625942 220.664597 
L 204.275901 223.981134 
L 204.600881 226.299979 
L 205.25084 228.918764 
L 207.525697 239.922336 
L 208.175656 242.684729 
L 208.500635 244.530028 
L 209.150594 246.448205 
L 210.450512 251.067307 
L 210.775492 251.669477 
L 211.425451 252.157317 
L 212.40039 252.319568 
L 215.650185 252.34869 
L 354.741421 252.348753 
L 354.741421 252.348753 
" clip-path="url(#p0595b359bc)" style="fill: none; stroke-dasharray: 6.4,1.6,1,1.6; stroke-dashoffset: 0; stroke: #000080"/>
   </g>
   <g id="patch_3">
    <path d="M 30.103125 273.312 
L 30.103125 7.2 
" style="fill: none; stroke: #000000; stroke-width: 0.8; stroke-linejoin: miter; stroke-linecap: square"/>
   </g>
   <g id="patch_4">
    <path d="M 387.223125 273.312 
L 387.223125 7.2 
" style="fill: none; stroke: #000000; stroke-width: 0.8; stroke-linejoin: miter; stroke-linecap: square"/>
   </g>
   <g id="patch_5">
    <path d="M 30.103125 273.312 
L 387.223125 273.312 
" style="fill: none; stroke: #000000; stroke-width: 0.8; stroke-linejoin: miter; stroke-linecap: square"/>
   </g>
   <g id="patch_6">
    <path d="M 30.103125 7.2 
L 387.223125 7.2 
" style="fill: none; stroke: #000000; stroke-width: 0.8; stroke-linejoin: miter; stroke-linecap: square"/>
   </g>
   <g id="legend_1">
    <g id="patch_7">
     <path d="M 190.8575 59.234375 
L 380.223125 59.234375 
Q 382.223125 59.234375 382.223125 57.234375 
L 382.223125 14.2 
Q 382.223125 12.2 380.223125 12.2 
L 190.8575 12.2 
Q 188.8575 12.2 188.8575 14.2 
L 188.8575 57.234375 
Q 188.8575 59.234375 190.8575 59.234375 
z
" style="fill: #ffffff; opacity: 0.8; stroke: #cccccc; stroke-linejoin: miter"/>
    </g>
    <g id="line2d_14">
     <path d="M 192.8575 20.298437 
L 202.8575 20.298437 
L 212.8575 20.298437 
" style="fill: none; stroke: #66cdaa; stroke-linecap: square"/>
    </g>
    <g id="text_11">
     <text style="font: 10px 'DejaVu Sans', 'Bitstream Vera Sans', 'Computer Modern Sans Serif', 'Lucida Grande', 'Verdana', 'Geneva', 'Lucid', 'Arial', 'Helvetica', 'Avant Garde', sans-serif; text-anchor: start" x="220.8575" y="23.798437" transform="rotate(-0 220.8575 23.798437)">Target response VB1</text>
    </g>
    <g id="line2d_15">
     <path d="M 192.8575 34.976562 
L 202.8575 34.976562 
L 212.8575 34.976562 
" style="fill: none; stroke-dasharray: 3.7,1.6; stroke-dashoffset: 0; stroke: #b22222"/>
    </g>
    <g id="text_12">
     <text style="font: 10px 'DejaVu Sans', 'Bitstream Vera Sans', 'Computer Modern Sans Serif', 'Lucida Grande', 'Verdana', 'Geneva', 'Lucid', 'Arial', 'Helvetica', 'Avant Garde', sans-serif; text-anchor: start" x="220.8575" y="38.476562" transform="rotate(-0 220.8575 38.476562)">Digital prediction VB1</text>
    </g>
    <g id="line2d_16">
     <path d="M 192.8575 49.654687 
L 202.8575 49.654687 
L 212.8575 49.654687 
" style="fill: none; stroke-dasharray: 6.4,1.6,1,1.6; stroke-dashoffset: 0; stroke: #000080"/>
    </g>
    <g id="text_13">
     <text style="font: 10px 'DejaVu Sans', 'Bitstream Vera Sans', 'Computer Modern Sans Serif', 'Lucida Grande', 'Verdana', 'Geneva', 'Lucid', 'Arial', 'Helvetica', 'Avant Garde', sans-serif; text-anchor: start" x="220.8575" y="53.154687" transform="rotate(-0 220.8575 53.154687)">Adjusted analog prediction VB1</text>
    </g>
   </g>
  </g>
 </g>
 <defs>
  <clipPath id="p0595b359bc">
   <rect x="30.103125" y="7.2" width="357.12" height="266.112"/>
  </clipPath>
 </defs>
</svg>
