<?xml version="1.0" encoding="utf-8" standalone="no"?>
<!DOCTYPE svg PUBLIC "-//W3C//DTD SVG 1.1//EN"
  "http://www.w3.org/Graphics/SVG/1.1/DTD/svg11.dtd">
<svg xmlns:xlink="http://www.w3.org/1999/xlink" width="398.030937pt" height="297.190125pt" viewBox="0 0 398.030937 297.190125" xmlns="http://www.w3.org/2000/svg" version="1.1">
 <metadata>
  <rdf:RDF xmlns:dc="http://purl.org/dc/elements/1.1/" xmlns:cc="http://creativecommons.org/ns#" xmlns:rdf="http://www.w3.org/1999/02/22-rdf-syntax-ns#">
   <cc:Work>
    <dc:type rdf:resource="http://purl.org/dc/dcmitype/StillImage"/>
    <dc:date>2023-10-25T17:37:25.214388</dc:date>
    <dc:format>image/svg+xml</dc:format>
    <dc:creator>
     <cc:Agent>
      <dc:title>Matplotlib v3.8.0, https://matplotlib.org/</dc:title>
     </cc:Agent>
    </dc:creator>
   </cc:Work>
  </rdf:RDF>
 </metadata>
 <defs>
  <style type="text/css">*{stroke-linejoin: round; stroke-linecap: butt}</style>
 </defs>
 <g id="figure_1">
  <g id="patch_1">
   <path d="M 0 297.190125 
L 398.030937 297.190125 
L 398.030937 0 
L 0 0 
z
" style="fill: #ffffff"/>
  </g>
  <g id="axes_1">
   <g id="patch_2">
    <path d="M 33.710938 273.312 
L 390.830938 273.312 
L 390.830938 7.2 
L 33.710938 7.2 
z
" style="fill: #ffffff"/>
   </g>
   <g id="matplotlib.axis_1">
    <g id="xtick_1">
     <g id="line2d_1">
      <defs>
       <path id="md9433591e5" d="M 0 0 
L 0 3.5 
" style="stroke: #000000; stroke-width: 0.8"/>
      </defs>
      <g>
       <use xlink:href="#md9433591e5" x="49.943665" y="273.312" style="stroke: #000000; stroke-width: 0.8"/>
      </g>
     </g>
     <g id="text_1">
      <text style="font: 10px 'DejaVu Sans', 'Bitstream Vera Sans', 'Computer Modern Sans Serif', 'Lucida Grande', 'Verdana', 'Geneva', 'Lucid', 'Arial', 'Helvetica', 'Avant Garde', sans-serif; text-anchor: middle" x="49.943665" y="287.910437" transform="rotate(-0 49.943665 287.910437)">0</text>
     </g>
    </g>
    <g id="xtick_2">
     <g id="line2d_2">
      <g>
       <use xlink:href="#md9433591e5" x="114.93957" y="273.312" style="stroke: #000000; stroke-width: 0.8"/>
      </g>
     </g>
     <g id="text_2">
      <text style="font: 10px 'DejaVu Sans', 'Bitstream Vera Sans', 'Computer Modern Sans Serif', 'Lucida Grande', 'Verdana', 'Geneva', 'Lucid', 'Arial', 'Helvetica', 'Avant Garde', sans-serif; text-anchor: middle" x="114.93957" y="287.910437" transform="rotate(-0 114.93957 287.910437)">100</text>
     </g>
    </g>
    <g id="xtick_3">
     <g id="line2d_3">
      <g>
       <use xlink:href="#md9433591e5" x="179.935475" y="273.312" style="stroke: #000000; stroke-width: 0.8"/>
      </g>
     </g>
     <g id="text_3">
      <text style="font: 10px 'DejaVu Sans', 'Bitstream Vera Sans', 'Computer Modern Sans Serif', 'Lucida Grande', 'Verdana', 'Geneva', 'Lucid', 'Arial', 'Helvetica', 'Avant Garde', sans-serif; text-anchor: middle" x="179.935475" y="287.910437" transform="rotate(-0 179.935475 287.910437)">200</text>
     </g>
    </g>
    <g id="xtick_4">
     <g id="line2d_4">
      <g>
       <use xlink:href="#md9433591e5" x="244.93138" y="273.312" style="stroke: #000000; stroke-width: 0.8"/>
      </g>
     </g>
     <g id="text_4">
      <text style="font: 10px 'DejaVu Sans', 'Bitstream Vera Sans', 'Computer Modern Sans Serif', 'Lucida Grande', 'Verdana', 'Geneva', 'Lucid', 'Arial', 'Helvetica', 'Avant Garde', sans-serif; text-anchor: middle" x="244.93138" y="287.910437" transform="rotate(-0 244.93138 287.910437)">300</text>
     </g>
    </g>
    <g id="xtick_5">
     <g id="line2d_5">
      <g>
       <use xlink:href="#md9433591e5" x="309.927285" y="273.312" style="stroke: #000000; stroke-width: 0.8"/>
      </g>
     </g>
     <g id="text_5">
      <text style="font: 10px 'DejaVu Sans', 'Bitstream Vera Sans', 'Computer Modern Sans Serif', 'Lucida Grande', 'Verdana', 'Geneva', 'Lucid', 'Arial', 'Helvetica', 'Avant Garde', sans-serif; text-anchor: middle" x="309.927285" y="287.910437" transform="rotate(-0 309.927285 287.910437)">400</text>
     </g>
    </g>
    <g id="xtick_6">
     <g id="line2d_6">
      <g>
       <use xlink:href="#md9433591e5" x="374.92319" y="273.312" style="stroke: #000000; stroke-width: 0.8"/>
      </g>
     </g>
     <g id="text_6">
      <text style="font: 10px 'DejaVu Sans', 'Bitstream Vera Sans', 'Computer Modern Sans Serif', 'Lucida Grande', 'Verdana', 'Geneva', 'Lucid', 'Arial', 'Helvetica', 'Avant Garde', sans-serif; text-anchor: middle" x="374.92319" y="287.910437" transform="rotate(-0 374.92319 287.910437)">500</text>
     </g>
    </g>
   </g>
   <g id="matplotlib.axis_2">
    <g id="ytick_1">
     <g id="line2d_7">
      <defs>
       <path id="m500b13cd4b" d="M 0 0 
L -3.5 0 
" style="stroke: #000000; stroke-width: 0.8"/>
      </defs>
      <g>
       <use xlink:href="#m500b13cd4b" x="33.710938" y="256.11219" style="stroke: #000000; stroke-width: 0.8"/>
      </g>
     </g>
     <g id="text_7">
      <text style="font: 10px 'DejaVu Sans', 'Bitstream Vera Sans', 'Computer Modern Sans Serif', 'Lucida Grande', 'Verdana', 'Geneva', 'Lucid', 'Arial', 'Helvetica', 'Avant Garde', sans-serif; text-anchor: end" x="26.710938" y="259.911408" transform="rotate(-0 26.710938 259.911408)">-0.2</text>
     </g>
    </g>
    <g id="ytick_2">
     <g id="line2d_8">
      <g>
       <use xlink:href="#m500b13cd4b" x="33.710938" y="226.001853" style="stroke: #000000; stroke-width: 0.8"/>
      </g>
     </g>
     <g id="text_8">
      <text style="font: 10px 'DejaVu Sans', 'Bitstream Vera Sans', 'Computer Modern Sans Serif', 'Lucida Grande', 'Verdana', 'Geneva', 'Lucid', 'Arial', 'Helvetica', 'Avant Garde', sans-serif; text-anchor: end" x="26.710938" y="229.801071" transform="rotate(-0 26.710938 229.801071)">0.0</text>
     </g>
    </g>
    <g id="ytick_3">
     <g id="line2d_9">
      <g>
       <use xlink:href="#m500b13cd4b" x="33.710938" y="195.891516" style="stroke: #000000; stroke-width: 0.8"/>
      </g>
     </g>
     <g id="text_9">
      <text style="font: 10px 'DejaVu Sans', 'Bitstream Vera Sans', 'Computer Modern Sans Serif', 'Lucida Grande', 'Verdana', 'Geneva', 'Lucid', 'Arial', 'Helvetica', 'Avant Garde', sans-serif; text-anchor: end" x="26.710938" y="199.690734" transform="rotate(-0 26.710938 199.690734)">0.2</text>
     </g>
    </g>
    <g id="ytick_4">
     <g id="line2d_10">
      <g>
       <use xlink:href="#m500b13cd4b" x="33.710938" y="165.781179" style="stroke: #000000; stroke-width: 0.8"/>
      </g>
     </g>
     <g id="text_10">
      <text style="font: 10px 'DejaVu Sans', 'Bitstream Vera Sans', 'Computer Modern Sans Serif', 'Lucida Grande', 'Verdana', 'Geneva', 'Lucid', 'Arial', 'Helvetica', 'Avant Garde', sans-serif; text-anchor: end" x="26.710938" y="169.580397" transform="rotate(-0 26.710938 169.580397)">0.4</text>
     </g>
    </g>
    <g id="ytick_5">
     <g id="line2d_11">
      <g>
       <use xlink:href="#m500b13cd4b" x="33.710938" y="135.670842" style="stroke: #000000; stroke-width: 0.8"/>
      </g>
     </g>
     <g id="text_11">
      <text style="font: 10px 'DejaVu Sans', 'Bitstream Vera Sans', 'Computer Modern Sans Serif', 'Lucida Grande', 'Verdana', 'Geneva', 'Lucid', 'Arial', 'Helvetica', 'Avant Garde', sans-serif; text-anchor: end" x="26.710938" y="139.47006" transform="rotate(-0 26.710938 139.47006)">0.6</text>
     </g>
    </g>
    <g id="ytick_6">
     <g id="line2d_12">
      <g>
       <use xlink:href="#m500b13cd4b" x="33.710938" y="105.560505" style="stroke: #000000; stroke-width: 0.8"/>
      </g>
     </g>
     <g id="text_12">
      <text style="font: 10px 'DejaVu Sans', 'Bitstream Vera Sans', 'Computer Modern Sans Serif', 'Lucida Grande', 'Verdana', 'Geneva', 'Lucid', 'Arial', 'Helvetica', 'Avant Garde', sans-serif; text-anchor: end" x="26.710938" y="109.359723" transform="rotate(-0 26.710938 109.359723)">0.8</text>
     </g>
    </g>
    <g id="ytick_7">
     <g id="line2d_13">
      <g>
       <use xlink:href="#m500b13cd4b" x="33.710938" y="75.450168" style="stroke: #000000; stroke-width: 0.8"/>
      </g>
     </g>
     <g id="text_13">
      <text style="font: 10px 'DejaVu Sans', 'Bitstream Vera Sans', 'Computer Modern Sans Serif', 'Lucida Grande', 'Verdana', 'Geneva', 'Lucid', 'Arial', 'Helvetica', 'Avant Garde', sans-serif; text-anchor: end" x="26.710938" y="79.249386" transform="rotate(-0 26.710938 79.249386)">1.0</text>
     </g>
    </g>
    <g id="ytick_8">
     <g id="line2d_14">
      <g>
       <use xlink:href="#m500b13cd4b" x="33.710938" y="45.339831" style="stroke: #000000; stroke-width: 0.8"/>
      </g>
     </g>
     <g id="text_14">
      <text style="font: 10px 'DejaVu Sans', 'Bitstream Vera Sans', 'Computer Modern Sans Serif', 'Lucida Grande', 'Verdana', 'Geneva', 'Lucid', 'Arial', 'Helvetica', 'Avant Garde', sans-serif; text-anchor: end" x="26.710938" y="49.139049" transform="rotate(-0 26.710938 49.139049)">1.2</text>
     </g>
    </g>
    <g id="ytick_9">
     <g id="line2d_15">
      <g>
       <use xlink:href="#m500b13cd4b" x="33.710938" y="15.229494" style="stroke: #000000; stroke-width: 0.8"/>
      </g>
     </g>
     <g id="text_15">
      <text style="font: 10px 'DejaVu Sans', 'Bitstream Vera Sans', 'Computer Modern Sans Serif', 'Lucida Grande', 'Verdana', 'Geneva', 'Lucid', 'Arial', 'Helvetica', 'Avant Garde', sans-serif; text-anchor: end" x="26.710938" y="19.028712" transform="rotate(-0 26.710938 19.028712)">1.4</text>
     </g>
    </g>
   </g>
   <g id="line2d_16">
    <path d="M 49.943665 235.787712 
L 114.93957 235.787712 
L 115.264549 234.007839 
L 115.914508 228.494907 
L 117.864385 208.620104 
L 120.789201 179.282127 
L 122.739078 161.802188 
L 124.363976 148.839597 
L 127.613771 127.850193 
L 127.938751 125.794907 
L 128.26373 125.481353 
L 128.58871 125.866013 
L 129.238669 127.545612 
L 130.213607 130.998545 
L 135.41328 150.868146 
L 137.038177 155.791472 
L 138.663075 159.990027 
L 140.287973 163.604201 
L 141.91287 166.626285 
L 143.537768 169.145151 
L 145.162666 171.184328 
L 146.787563 172.85232 
L 149.712379 175.380414 
L 151.987236 177.047067 
L 154.262092 178.442726 
L 156.861928 179.770531 
L 159.786744 181.012357 
L 163.361519 182.273273 
L 167.586253 183.529145 
L 173.435884 185.012877 
L 180.585434 186.629455 
L 182.86029 186.809184 
L 186.435065 186.865942 
L 192.284697 186.68522 
L 196.509431 186.198592 
L 205.608857 184.895763 
L 213.733345 183.423623 
L 216.983141 183.267531 
L 221.207874 183.303468 
L 225.757588 183.573452 
L 230.95726 184.111253 
L 236.806892 184.941199 
L 243.631462 186.135029 
L 245.256359 186.506891 
L 245.906318 186.978299 
L 247.206236 188.329229 
L 249.156114 190.760684 
L 257.280602 201.305264 
L 259.880438 204.153973 
L 262.480274 206.682473 
L 265.08011 208.892903 
L 267.679947 210.78865 
L 270.279783 212.398863 
L 272.879619 213.7377 
L 275.479455 214.830803 
L 282.629005 217.604826 
L 288.478636 219.817703 
L 295.303206 222.160525 
L 303.752674 224.81618 
L 313.827039 227.744838 
L 319.676671 229.207428 
L 325.526302 230.442424 
L 331.700913 231.519966 
L 338.525483 232.476999 
L 346.000012 233.292095 
L 354.44948 233.981995 
L 364.198865 234.549224 
L 374.59821 234.961715 
L 374.59821 234.961715 
" clip-path="url(#p1469d490d0)" style="fill: none; stroke: #c71585; stroke-linecap: square"/>
   </g>
   <g id="line2d_17">
    <path d="M 49.943665 231.884525 
L 50.268644 228.985007 
L 50.593624 227.277737 
L 50.918603 226.274349 
L 51.243583 225.68539 
L 51.893542 225.137876 
L 52.543501 224.950389 
L 54.168399 224.859939 
L 68.142518 224.853421 
L 114.61459 224.853421 
L 116.239488 164.521058 
L 117.214426 138.860836 
L 118.189365 119.0702 
L 119.164304 104.368662 
L 120.139242 93.250857 
L 121.114181 84.953547 
L 122.089119 79.131924 
L 123.064058 74.958481 
L 124.038996 72.131195 
L 125.013935 70.215757 
L 125.988874 68.927651 
L 126.963812 68.069958 
L 127.613771 67.800862 
L 127.938751 19.296 
L 129.238669 90.913 
L 129.888628 115.020194 
L 130.538587 132.570576 
L 131.188546 145.061509 
L 131.838505 153.962564 
L 132.488464 160.297258 
L 133.138423 164.670684 
L 133.788382 167.634666 
L 134.438341 169.58411 
L 135.0883 170.800159 
L 135.738259 171.495904 
L 136.388218 171.824539 
L 137.038177 171.891382 
L 137.688137 171.762326 
L 138.663075 171.299846 
L 139.962993 170.338194 
L 141.262911 169.062964 
L 142.887809 167.084444 
L 145.162666 163.918922 
L 147.112543 161.160657 
L 147.437522 117.782245 
L 148.087481 139.016522 
L 148.73744 159.086865 
L 149.387399 172.679261 
L 150.037358 180.903153 
L 150.687318 185.59092 
L 151.337277 188.195273 
L 151.987236 189.614849 
L 152.637195 190.378141 
L 153.287154 190.784649 
L 154.262092 191.078223 
L 155.56201 191.218176 
L 158.486826 191.215654 
L 169.861109 190.876978 
L 173.435884 190.611332 
L 179.610495 189.910272 
L 179.935475 192.300668 
L 180.585434 201.444916 
L 180.910413 203.324746 
L 181.235393 204.031972 
L 181.560372 203.901151 
L 181.885352 203.210048 
L 182.535311 201.050586 
L 184.485188 193.879681 
L 185.460127 191.398429 
L 186.435065 189.567154 
L 187.410004 188.190898 
L 188.709922 186.788929 
L 190.33482 185.376918 
L 192.609676 183.464114 
L 196.83441 179.548161 
L 199.109267 177.223995 
L 206.258816 169.404605 
L 208.533673 166.352808 
L 212.108448 161.192336 
L 212.433427 117.806505 
L 213.083386 139.030878 
L 213.733345 159.094949 
L 214.383304 172.683717 
L 215.033263 180.905577 
L 215.683223 185.59223 
L 216.333182 188.195973 
L 216.983141 189.615221 
L 217.6331 190.378329 
L 218.283059 190.784742 
L 219.257997 191.078268 
L 220.557915 191.218185 
L 223.482731 191.215654 
L 234.857014 190.876978 
L 238.431789 190.611332 
L 244.6064 189.910272 
L 244.93138 192.367616 
L 245.581339 205.007881 
L 245.906318 208.497037 
L 246.231298 210.69772 
L 246.556277 211.933617 
L 246.881257 212.491117 
L 247.206236 212.596615 
L 247.531216 212.413055 
L 248.181175 211.590795 
L 253.705827 203.030147 
L 263.130233 189.096498 
L 277.104353 167.676492 
L 277.429332 140.698319 
L 278.079291 170.572814 
L 278.72925 189.528083 
L 279.379209 199.209059 
L 280.029168 203.827556 
L 280.679128 206.00961 
L 281.329087 207.079904 
L 281.979046 207.662848 
L 282.953984 208.200828 
L 292.053411 212.325197 
L 295.303206 214.176748 
L 299.52794 216.808914 
L 304.077653 219.91982 
L 308.952346 223.586773 
L 310.252264 224.518206 
L 311.227203 224.770235 
L 312.8521 224.84663 
L 326.82622 224.853419 
L 374.59821 224.853419 
L 374.59821 224.853419 
" clip-path="url(#p1469d490d0)" style="fill: none; stroke-dasharray: 3.7,1.6; stroke-dashoffset: 0; stroke: #c71585"/>
   </g>
   <g id="line2d_18">
    <path d="M 49.943665 239.72764 
L 63.267825 239.849951 
L 97.065696 239.849951 
L 97.390675 238.481729 
L 97.715655 237.999183 
L 98.040634 236.192622 
L 98.690594 230.854863 
L 99.015573 229.955367 
L 99.665532 225.034974 
L 99.990512 222.083579 
L 100.315491 221.193737 
L 100.96545 216.279969 
L 101.29043 213.351462 
L 101.615409 212.487574 
L 102.265368 207.616894 
L 102.590348 204.712504 
L 102.915327 203.868718 
L 103.565286 199.035704 
L 103.890266 196.151819 
L 104.215245 195.325581 
L 104.865204 190.526374 
L 105.190184 187.662284 
L 105.515164 186.851916 
L 106.165123 182.084409 
L 106.490102 179.239073 
L 106.815082 178.445327 
L 107.465041 173.710645 
L 107.79002 170.884077 
L 108.115 170.106954 
L 108.764959 165.405162 
L 109.089938 162.59748 
L 109.414918 161.836978 
L 110.064877 157.165813 
L 110.389856 154.375813 
L 111.039815 152.893989 
L 111.364795 150.843973 
L 111.689775 149.879459 
L 112.014754 151.631317 
L 112.339734 152.399293 
L 112.664713 150.784083 
L 112.989693 150.259027 
L 113.314672 152.24142 
L 113.639652 153.11765 
L 113.964631 151.511361 
L 114.289611 151.011972 
L 114.93957 154.532296 
L 115.264549 153.991733 
L 115.589529 154.799294 
L 116.239488 158.843727 
L 116.564467 158.393229 
L 116.889447 159.21633 
L 117.539406 163.210652 
L 117.864385 162.752829 
L 118.189365 163.570974 
L 118.839324 167.537403 
L 119.164304 167.071822 
L 119.489283 167.88944 
L 120.139242 171.847151 
L 120.464222 171.376928 
L 120.789201 172.185281 
L 121.43916 176.120644 
L 121.76414 175.650948 
L 122.089119 176.4636 
L 122.739078 180.384785 
L 123.064058 179.909687 
L 123.389037 180.724254 
L 124.038996 184.641483 
L 124.363976 184.162675 
L 124.688956 184.96832 
L 125.338915 188.863557 
L 125.663894 188.385592 
L 125.988874 189.195135 
L 126.638833 193.075961 
L 126.963812 192.592893 
L 127.288792 193.404307 
L 127.938751 197.278647 
L 128.26373 196.792063 
L 128.58871 196.933456 
L 128.913689 198.00394 
L 129.238669 198.416238 
L 129.563648 197.658483 
L 129.888628 197.534399 
L 130.213607 198.501685 
L 130.538587 198.884341 
L 130.863566 198.156393 
L 131.188546 198.038237 
L 131.513526 199.008226 
L 131.838505 199.396702 
L 132.163485 198.675509 
L 132.488464 198.56572 
L 132.813444 199.539031 
L 133.138423 199.929622 
L 133.463403 199.216777 
L 133.788382 199.106046 
L 134.113362 200.074326 
L 134.438341 200.47301 
L 134.763321 199.776323 
L 135.0883 199.675046 
L 135.41328 200.641333 
L 135.738259 201.028618 
L 136.063239 200.321234 
L 136.388218 200.221133 
L 136.713198 201.185679 
L 137.038177 201.57169 
L 137.363157 200.870344 
L 137.688137 200.768017 
L 138.013116 201.726837 
L 138.338096 202.120645 
L 138.663075 201.435208 
L 138.988055 201.342494 
L 139.313034 202.299079 
L 139.638014 202.68136 
L 139.962993 201.993468 
L 140.287973 201.91081 
L 141.587891 205.939487 
L 142.23785 208.671125 
L 142.562829 209.248053 
L 143.537768 213.207874 
L 143.862747 213.77005 
L 144.837686 217.661181 
L 145.162666 218.203554 
L 146.137604 222.010272 
L 146.462584 222.519521 
L 147.437522 226.259171 
L 147.762502 226.746763 
L 148.73744 230.381859 
L 149.06242 230.845715 
L 150.037358 234.414209 
L 150.362338 234.846249 
L 151.337277 238.333989 
L 151.662256 238.73756 
L 152.637195 242.129328 
L 152.962174 242.515495 
L 153.937113 245.827866 
L 154.262092 246.17824 
L 154.587072 246.256964 
L 155.237031 245.952834 
L 155.56201 245.95859 
L 156.211969 245.606632 
L 156.536949 245.434857 
L 156.861928 245.414761 
L 170.511069 239.12224 
L 183.835229 232.823093 
L 185.460127 227.511281 
L 185.785106 226.032419 
L 186.110086 225.567933 
L 186.760045 223.055629 
L 187.085024 221.60821 
L 187.410004 221.175639 
L 188.059963 218.719448 
L 188.384942 217.300963 
L 188.709922 216.89708 
L 189.359881 214.494757 
L 189.684861 213.105419 
L 190.00984 212.729958 
L 190.659799 210.381219 
L 190.984779 209.020647 
L 191.309758 208.673582 
L 191.959717 206.378116 
L 192.284697 205.045883 
L 192.609676 204.72544 
L 193.259635 202.482909 
L 193.584615 201.179729 
L 193.909594 200.887764 
L 194.559553 198.699517 
L 194.884533 197.425873 
L 195.209512 197.162575 
L 195.859471 195.028945 
L 196.184451 193.784481 
L 196.509431 193.54909 
L 197.15939 191.468368 
L 197.484369 190.252575 
L 197.809349 190.858178 
L 198.134328 191.116324 
L 198.459308 190.307954 
L 198.784287 190.129304 
L 199.109267 191.144842 
L 199.434246 191.568664 
L 199.759226 190.81012 
L 200.084205 190.664601 
L 200.409185 191.683856 
L 200.734164 192.102498 
L 201.059144 191.341826 
L 201.384123 191.197123 
L 201.709103 192.212042 
L 202.034082 192.627468 
L 202.359062 191.869598 
L 202.684042 191.726988 
L 203.009021 192.738892 
L 203.334001 193.151623 
L 203.65898 192.393281 
L 203.98396 192.251471 
L 204.308939 193.262342 
L 204.633919 193.677453 
L 204.958898 192.92764 
L 205.283878 192.788761 
L 205.608857 193.793581 
L 205.933837 194.208969 
L 206.258816 193.466986 
L 206.583796 193.336213 
L 206.908775 194.342314 
L 207.233755 194.751725 
L 207.558734 194.002968 
L 207.883714 193.867903 
L 208.208693 194.86964 
L 208.533673 195.279494 
L 208.858652 194.538577 
L 209.183632 194.406036 
L 209.508612 195.400682 
L 209.833591 195.809739 
L 210.158571 195.07715 
L 210.48355 194.952912 
L 210.80853 195.949001 
L 211.133509 196.351876 
L 211.458489 195.612477 
L 211.783468 195.483974 
L 212.108448 196.475511 
L 212.433427 196.878981 
L 212.758407 196.147508 
L 213.083386 196.021139 
L 213.408366 197.00543 
L 213.733345 197.408295 
L 214.058325 196.684472 
L 214.383304 196.567154 
L 214.708284 197.553901 
L 215.033263 197.950723 
L 215.358243 197.227952 
L 215.683223 197.115661 
L 216.008202 198.101185 
L 216.333182 198.500538 
L 216.658161 197.779423 
L 216.983141 197.66207 
L 217.30812 198.640284 
L 217.6331 199.038638 
L 217.958079 198.322839 
L 218.283059 198.209544 
L 218.608038 199.183303 
L 218.933018 199.574647 
L 219.257997 198.863679 
L 219.582977 198.754138 
L 219.907956 199.723034 
L 220.232936 200.111736 
L 220.557915 199.398138 
L 220.882895 199.293419 
L 221.207874 200.269828 
L 221.532854 200.667051 
L 221.857833 199.964006 
L 222.182813 199.859482 
L 222.507793 200.824189 
L 222.832772 201.210716 
L 223.157752 200.511012 
L 223.482731 200.4098 
L 223.807711 201.369121 
L 224.13269 201.752706 
L 224.45767 201.050227 
L 224.782649 200.954063 
L 225.107629 201.920941 
L 225.432608 202.312988 
L 225.757588 201.621186 
L 226.082567 201.525122 
L 226.407547 202.480087 
L 226.732526 202.871993 
L 227.057506 202.19264 
L 227.707465 204.264824 
L 228.032444 205.67678 
L 228.357424 206.247897 
L 229.332363 210.218422 
L 229.657342 210.793608 
L 230.632281 214.739232 
L 230.95726 215.295158 
L 231.932199 219.158806 
L 232.257178 219.685034 
L 233.232117 223.461903 
L 233.557096 223.966433 
L 234.532035 227.680414 
L 234.857014 228.152571 
L 235.831953 231.775109 
L 236.156933 232.224249 
L 237.131871 235.764152 
L 237.456851 236.19163 
L 238.431789 239.643399 
L 238.756769 240.036876 
L 239.731707 243.420025 
L 240.056687 243.791582 
L 240.706646 245.861457 
L 241.356605 246.206661 
L 241.681585 246.156654 
L 242.331544 245.783343 
L 242.656523 245.785135 
L 243.306482 245.427494 
L 243.631462 245.23866 
L 244.281421 245.073422 
L 244.93138 244.665333 
L 245.256359 244.64411 
L 256.305663 239.522136 
L 257.930561 238.769331 
L 258.58052 238.485754 
L 260.530397 237.546087 
L 262.155295 236.816638 
L 263.130233 236.342352 
L 264.755131 235.573002 
L 265.730069 235.110499 
L 270.604762 232.749593 
L 270.929742 232.182746 
L 271.579701 230.475842 
L 271.90468 230.209603 
L 272.554639 228.691701 
L 272.879619 227.775658 
L 273.204598 227.530201 
L 273.854557 226.062482 
L 274.179537 225.179223 
L 274.504517 224.964032 
L 275.154476 223.55839 
L 275.479455 222.71141 
L 275.804435 222.527354 
L 276.454394 221.187971 
L 276.779373 220.377928 
L 277.104353 220.225107 
L 277.754312 218.952799 
L 278.079291 218.179594 
L 278.404271 218.058094 
L 279.05423 216.849813 
L 279.379209 216.111517 
L 279.704189 216.020237 
L 280.354148 214.877922 
L 280.679128 214.176785 
L 281.004107 214.117 
L 281.329087 213.678307 
L 281.979046 212.376789 
L 282.304025 212.348337 
L 282.629005 211.945868 
L 283.278964 210.708368 
L 283.603943 210.709954 
L 283.928923 210.343204 
L 284.253902 209.764949 
L 284.578882 209.603433 
L 284.903861 210.243425 
L 285.228841 210.610304 
L 285.55382 210.233831 
L 285.8788 210.222451 
L 286.203779 210.932383 
L 286.528759 211.335069 
L 286.853738 210.975088 
L 287.178718 210.976747 
L 287.503698 211.683976 
L 287.828677 212.085914 
L 288.153657 211.733432 
L 288.478636 211.739975 
L 288.803616 212.440471 
L 289.128595 212.838421 
L 289.453575 212.492383 
L 289.778554 212.501317 
L 290.103534 213.193517 
L 290.428513 213.580782 
L 290.753493 213.24183 
L 291.078472 213.259653 
L 291.403452 213.947633 
L 291.728431 214.337735 
L 292.053411 214.000726 
L 292.37839 214.022073 
L 292.70337 214.704239 
L 293.028349 215.095014 
L 293.353329 214.772061 
L 293.678309 214.793846 
L 294.003288 215.464374 
L 294.328268 215.838043 
L 294.653247 215.516652 
L 294.978227 215.544005 
L 295.303206 216.209641 
L 295.628186 216.585271 
L 295.953165 216.265391 
L 296.278145 216.294566 
L 296.603124 216.954341 
L 296.928104 217.332255 
L 297.253083 217.026641 
L 297.578063 217.056313 
L 297.903042 217.704444 
L 298.228022 218.065439 
L 298.553001 217.761757 
L 298.877981 217.797013 
L 299.20296 218.439867 
L 299.52794 218.801618 
L 299.852919 218.499487 
L 300.177899 218.53647 
L 300.502879 219.172311 
L 300.827858 219.536017 
L 301.152838 219.248635 
L 301.477817 219.286353 
L 301.802797 219.910751 
L 302.127776 220.27268 
L 302.452756 219.998021 
L 302.777735 220.046225 
L 303.102715 220.66781 
L 303.427694 221.019069 
L 303.752674 220.7369 
L 304.077653 220.788335 
L 304.402633 221.399786 
L 304.727612 221.745187 
L 305.052592 221.472546 
L 305.377571 221.516387 
L 305.702551 222.12041 
L 306.02753 222.465551 
L 306.35251 222.204997 
L 306.67749 222.255306 
L 307.002469 222.849383 
L 307.327449 223.185768 
L 307.652428 222.934198 
L 307.977408 223.004275 
L 308.302387 223.598361 
L 308.627367 223.934706 
L 308.952346 223.682486 
L 309.277326 223.736503 
L 309.602305 224.31928 
L 309.927285 224.653241 
L 310.252264 224.412023 
L 310.577244 224.471123 
L 310.902223 225.0436 
L 311.227203 225.36823 
L 311.552182 225.135984 
L 311.877162 225.214658 
L 312.202141 225.786827 
L 312.527121 226.111541 
L 312.8521 225.878523 
L 313.17708 225.953408 
L 313.50206 226.523515 
L 314.152019 227.280808 
L 317.076834 235.770069 
L 318.051773 238.375781 
L 319.026711 241.266491 
L 319.351691 241.936894 
L 320.32663 244.705983 
L 320.651609 245.356587 
L 321.626548 248.024843 
L 321.951527 248.632779 
L 322.926466 251.217429 
L 323.251445 251.794613 
L 324.226384 254.260049 
L 324.551363 254.799651 
L 325.526302 257.151159 
L 325.851281 257.665274 
L 326.82622 259.93341 
L 327.1512 260.407946 
L 327.476179 261.19543 
L 328.126138 261.011727 
L 328.451118 261.216 
L 328.776097 261.173468 
L 329.426056 260.476221 
L 329.751036 260.60544 
L 330.076015 260.513379 
L 330.725974 259.770817 
L 331.050954 259.874457 
L 331.375933 259.788096 
L 332.025892 259.07061 
L 332.350872 259.159518 
L 332.675852 259.06671 
L 333.325811 258.365717 
L 333.65079 258.457612 
L 333.97577 258.347451 
L 334.625729 257.631942 
L 334.950708 257.703493 
L 335.600667 257.42961 
L 335.925647 257.211823 
L 336.250626 257.325032 
L 336.900585 257.073131 
L 337.225565 256.856003 
L 337.550544 256.989276 
L 338.200503 256.720779 
L 338.525483 256.50007 
L 338.850462 256.656775 
L 339.500422 256.378901 
L 339.825401 256.121245 
L 340.150381 256.290652 
L 340.47536 256.213871 
L 341.125319 255.753464 
L 341.450299 255.962871 
L 342.100258 255.661423 
L 342.100258 255.661423 
" clip-path="url(#p1469d490d0)" style="fill: none; stroke-dasharray: 6.4,1.6,1,1.6; stroke-dashoffset: 0; stroke: #c71585"/>
   </g>
   <g id="patch_3">
    <path d="M 33.710938 273.312 
L 33.710938 7.2 
" style="fill: none; stroke: #000000; stroke-width: 0.8; stroke-linejoin: miter; stroke-linecap: square"/>
   </g>
   <g id="patch_4">
    <path d="M 390.830938 273.312 
L 390.830938 7.2 
" style="fill: none; stroke: #000000; stroke-width: 0.8; stroke-linejoin: miter; stroke-linecap: square"/>
   </g>
   <g id="patch_5">
    <path d="M 33.710938 273.312 
L 390.830937 273.312 
" style="fill: none; stroke: #000000; stroke-width: 0.8; stroke-linejoin: miter; stroke-linecap: square"/>
   </g>
   <g id="patch_6">
    <path d="M 33.710938 7.2 
L 390.830937 7.2 
" style="fill: none; stroke: #000000; stroke-width: 0.8; stroke-linejoin: miter; stroke-linecap: square"/>
   </g>
   <g id="legend_1">
    <g id="patch_7">
     <path d="M 189.72625 59.234375 
L 383.830938 59.234375 
Q 385.830938 59.234375 385.830938 57.234375 
L 385.830938 14.2 
Q 385.830938 12.2 383.830938 12.2 
L 189.72625 12.2 
Q 187.72625 12.2 187.72625 14.2 
L 187.72625 57.234375 
Q 187.72625 59.234375 189.72625 59.234375 
z
" style="fill: #ffffff; opacity: 0.8; stroke: #cccccc; stroke-linejoin: miter"/>
    </g>
    <g id="line2d_19">
     <path d="M 191.72625 20.298437 
L 201.72625 20.298437 
L 211.72625 20.298437 
" style="fill: none; stroke: #c71585; stroke-linecap: square"/>
    </g>
    <g id="text_16">
     <text style="font: 10px 'DejaVu Sans', 'Bitstream Vera Sans', 'Computer Modern Sans Serif', 'Lucida Grande', 'Verdana', 'Geneva', 'Lucid', 'Arial', 'Helvetica', 'Avant Garde', sans-serif; text-anchor: start" x="219.72625" y="23.798437" transform="rotate(-0 219.72625 23.798437)">Target response LUAL</text>
    </g>
    <g id="line2d_20">
     <path d="M 191.72625 34.976562 
L 201.72625 34.976562 
L 211.72625 34.976562 
" style="fill: none; stroke-dasharray: 3.7,1.6; stroke-dashoffset: 0; stroke: #c71585"/>
    </g>
    <g id="text_17">
     <text style="font: 10px 'DejaVu Sans', 'Bitstream Vera Sans', 'Computer Modern Sans Serif', 'Lucida Grande', 'Verdana', 'Geneva', 'Lucid', 'Arial', 'Helvetica', 'Avant Garde', sans-serif; text-anchor: start" x="219.72625" y="38.476562" transform="rotate(-0 219.72625 38.476562)">Digital prediction LUAL</text>
    </g>
    <g id="line2d_21">
     <path d="M 191.72625 49.654687 
L 201.72625 49.654687 
L 211.72625 49.654687 
" style="fill: none; stroke-dasharray: 6.4,1.6,1,1.6; stroke-dashoffset: 0; stroke: #c71585"/>
    </g>
    <g id="text_18">
     <text style="font: 10px 'DejaVu Sans', 'Bitstream Vera Sans', 'Computer Modern Sans Serif', 'Lucida Grande', 'Verdana', 'Geneva', 'Lucid', 'Arial', 'Helvetica', 'Avant Garde', sans-serif; text-anchor: start" x="219.72625" y="53.154687" transform="rotate(-0 219.72625 53.154687)">Adjusted analog prediction LUAL</text>
    </g>
   </g>
  </g>
 </g>
 <defs>
  <clipPath id="p1469d490d0">
   <rect x="33.710938" y="7.2" width="357.12" height="266.112"/>
  </clipPath>
 </defs>
</svg>
