<?xml version="1.0" encoding="utf-8" standalone="no"?>
<!DOCTYPE svg PUBLIC "-//W3C//DTD SVG 1.1//EN"
  "http://www.w3.org/Graphics/SVG/1.1/DTD/svg11.dtd">
<svg xmlns:xlink="http://www.w3.org/1999/xlink" width="398.030937pt" height="297.190125pt" viewBox="0 0 398.030937 297.190125" xmlns="http://www.w3.org/2000/svg" version="1.1">
 <metadata>
  <rdf:RDF xmlns:dc="http://purl.org/dc/elements/1.1/" xmlns:cc="http://creativecommons.org/ns#" xmlns:rdf="http://www.w3.org/1999/02/22-rdf-syntax-ns#">
   <cc:Work>
    <dc:type rdf:resource="http://purl.org/dc/dcmitype/StillImage"/>
    <dc:date>2023-10-25T17:37:25.779420</dc:date>
    <dc:format>image/svg+xml</dc:format>
    <dc:creator>
     <cc:Agent>
      <dc:title>Matplotlib v3.8.0, https://matplotlib.org/</dc:title>
     </cc:Agent>
    </dc:creator>
   </cc:Work>
  </rdf:RDF>
 </metadata>
 <defs>
  <style type="text/css">*{stroke-linejoin: round; stroke-linecap: butt}</style>
 </defs>
 <g id="figure_1">
  <g id="patch_1">
   <path d="M 0 297.190125 
L 398.030937 297.190125 
L 398.030937 0 
L 0 0 
z
" style="fill: #ffffff"/>
  </g>
  <g id="axes_1">
   <g id="patch_2">
    <path d="M 33.710938 273.312 
L 390.830938 273.312 
L 390.830938 7.2 
L 33.710938 7.2 
z
" style="fill: #ffffff"/>
   </g>
   <g id="matplotlib.axis_1">
    <g id="xtick_1">
     <g id="line2d_1">
      <defs>
       <path id="maf8a2155a3" d="M 0 0 
L 0 3.5 
" style="stroke: #000000; stroke-width: 0.8"/>
      </defs>
      <g>
       <use xlink:href="#maf8a2155a3" x="49.943665" y="273.312" style="stroke: #000000; stroke-width: 0.8"/>
      </g>
     </g>
     <g id="text_1">
      <text style="font: 10px 'DejaVu Sans', 'Bitstream Vera Sans', 'Computer Modern Sans Serif', 'Lucida Grande', 'Verdana', 'Geneva', 'Lucid', 'Arial', 'Helvetica', 'Avant Garde', sans-serif; text-anchor: middle" x="49.943665" y="287.910437" transform="rotate(-0 49.943665 287.910437)">0</text>
     </g>
    </g>
    <g id="xtick_2">
     <g id="line2d_2">
      <g>
       <use xlink:href="#maf8a2155a3" x="114.93957" y="273.312" style="stroke: #000000; stroke-width: 0.8"/>
      </g>
     </g>
     <g id="text_2">
      <text style="font: 10px 'DejaVu Sans', 'Bitstream Vera Sans', 'Computer Modern Sans Serif', 'Lucida Grande', 'Verdana', 'Geneva', 'Lucid', 'Arial', 'Helvetica', 'Avant Garde', sans-serif; text-anchor: middle" x="114.93957" y="287.910437" transform="rotate(-0 114.93957 287.910437)">100</text>
     </g>
    </g>
    <g id="xtick_3">
     <g id="line2d_3">
      <g>
       <use xlink:href="#maf8a2155a3" x="179.935475" y="273.312" style="stroke: #000000; stroke-width: 0.8"/>
      </g>
     </g>
     <g id="text_3">
      <text style="font: 10px 'DejaVu Sans', 'Bitstream Vera Sans', 'Computer Modern Sans Serif', 'Lucida Grande', 'Verdana', 'Geneva', 'Lucid', 'Arial', 'Helvetica', 'Avant Garde', sans-serif; text-anchor: middle" x="179.935475" y="287.910437" transform="rotate(-0 179.935475 287.910437)">200</text>
     </g>
    </g>
    <g id="xtick_4">
     <g id="line2d_4">
      <g>
       <use xlink:href="#maf8a2155a3" x="244.93138" y="273.312" style="stroke: #000000; stroke-width: 0.8"/>
      </g>
     </g>
     <g id="text_4">
      <text style="font: 10px 'DejaVu Sans', 'Bitstream Vera Sans', 'Computer Modern Sans Serif', 'Lucida Grande', 'Verdana', 'Geneva', 'Lucid', 'Arial', 'Helvetica', 'Avant Garde', sans-serif; text-anchor: middle" x="244.93138" y="287.910437" transform="rotate(-0 244.93138 287.910437)">300</text>
     </g>
    </g>
    <g id="xtick_5">
     <g id="line2d_5">
      <g>
       <use xlink:href="#maf8a2155a3" x="309.927285" y="273.312" style="stroke: #000000; stroke-width: 0.8"/>
      </g>
     </g>
     <g id="text_5">
      <text style="font: 10px 'DejaVu Sans', 'Bitstream Vera Sans', 'Computer Modern Sans Serif', 'Lucida Grande', 'Verdana', 'Geneva', 'Lucid', 'Arial', 'Helvetica', 'Avant Garde', sans-serif; text-anchor: middle" x="309.927285" y="287.910437" transform="rotate(-0 309.927285 287.910437)">400</text>
     </g>
    </g>
    <g id="xtick_6">
     <g id="line2d_6">
      <g>
       <use xlink:href="#maf8a2155a3" x="374.92319" y="273.312" style="stroke: #000000; stroke-width: 0.8"/>
      </g>
     </g>
     <g id="text_6">
      <text style="font: 10px 'DejaVu Sans', 'Bitstream Vera Sans', 'Computer Modern Sans Serif', 'Lucida Grande', 'Verdana', 'Geneva', 'Lucid', 'Arial', 'Helvetica', 'Avant Garde', sans-serif; text-anchor: middle" x="374.92319" y="287.910437" transform="rotate(-0 374.92319 287.910437)">500</text>
     </g>
    </g>
   </g>
   <g id="matplotlib.axis_2">
    <g id="ytick_1">
     <g id="line2d_7">
      <defs>
       <path id="mcf168b04b0" d="M 0 0 
L -3.5 0 
" style="stroke: #000000; stroke-width: 0.8"/>
      </defs>
      <g>
       <use xlink:href="#mcf168b04b0" x="33.710938" y="264.325616" style="stroke: #000000; stroke-width: 0.8"/>
      </g>
     </g>
     <g id="text_7">
      <text style="font: 10px 'DejaVu Sans', 'Bitstream Vera Sans', 'Computer Modern Sans Serif', 'Lucida Grande', 'Verdana', 'Geneva', 'Lucid', 'Arial', 'Helvetica', 'Avant Garde', sans-serif; text-anchor: end" x="26.710938" y="268.124835" transform="rotate(-0 26.710938 268.124835)">-0.2</text>
     </g>
    </g>
    <g id="ytick_2">
     <g id="line2d_8">
      <g>
       <use xlink:href="#mcf168b04b0" x="33.710938" y="228.30157" style="stroke: #000000; stroke-width: 0.8"/>
      </g>
     </g>
     <g id="text_8">
      <text style="font: 10px 'DejaVu Sans', 'Bitstream Vera Sans', 'Computer Modern Sans Serif', 'Lucida Grande', 'Verdana', 'Geneva', 'Lucid', 'Arial', 'Helvetica', 'Avant Garde', sans-serif; text-anchor: end" x="26.710938" y="232.100789" transform="rotate(-0 26.710938 232.100789)">0.0</text>
     </g>
    </g>
    <g id="ytick_3">
     <g id="line2d_9">
      <g>
       <use xlink:href="#mcf168b04b0" x="33.710938" y="192.277524" style="stroke: #000000; stroke-width: 0.8"/>
      </g>
     </g>
     <g id="text_9">
      <text style="font: 10px 'DejaVu Sans', 'Bitstream Vera Sans', 'Computer Modern Sans Serif', 'Lucida Grande', 'Verdana', 'Geneva', 'Lucid', 'Arial', 'Helvetica', 'Avant Garde', sans-serif; text-anchor: end" x="26.710938" y="196.076743" transform="rotate(-0 26.710938 196.076743)">0.2</text>
     </g>
    </g>
    <g id="ytick_4">
     <g id="line2d_10">
      <g>
       <use xlink:href="#mcf168b04b0" x="33.710938" y="156.253478" style="stroke: #000000; stroke-width: 0.8"/>
      </g>
     </g>
     <g id="text_10">
      <text style="font: 10px 'DejaVu Sans', 'Bitstream Vera Sans', 'Computer Modern Sans Serif', 'Lucida Grande', 'Verdana', 'Geneva', 'Lucid', 'Arial', 'Helvetica', 'Avant Garde', sans-serif; text-anchor: end" x="26.710938" y="160.052697" transform="rotate(-0 26.710938 160.052697)">0.4</text>
     </g>
    </g>
    <g id="ytick_5">
     <g id="line2d_11">
      <g>
       <use xlink:href="#mcf168b04b0" x="33.710938" y="120.229433" style="stroke: #000000; stroke-width: 0.8"/>
      </g>
     </g>
     <g id="text_11">
      <text style="font: 10px 'DejaVu Sans', 'Bitstream Vera Sans', 'Computer Modern Sans Serif', 'Lucida Grande', 'Verdana', 'Geneva', 'Lucid', 'Arial', 'Helvetica', 'Avant Garde', sans-serif; text-anchor: end" x="26.710938" y="124.028651" transform="rotate(-0 26.710938 124.028651)">0.6</text>
     </g>
    </g>
    <g id="ytick_6">
     <g id="line2d_12">
      <g>
       <use xlink:href="#mcf168b04b0" x="33.710938" y="84.205387" style="stroke: #000000; stroke-width: 0.8"/>
      </g>
     </g>
     <g id="text_12">
      <text style="font: 10px 'DejaVu Sans', 'Bitstream Vera Sans', 'Computer Modern Sans Serif', 'Lucida Grande', 'Verdana', 'Geneva', 'Lucid', 'Arial', 'Helvetica', 'Avant Garde', sans-serif; text-anchor: end" x="26.710938" y="88.004605" transform="rotate(-0 26.710938 88.004605)">0.8</text>
     </g>
    </g>
    <g id="ytick_7">
     <g id="line2d_13">
      <g>
       <use xlink:href="#mcf168b04b0" x="33.710938" y="48.181341" style="stroke: #000000; stroke-width: 0.8"/>
      </g>
     </g>
     <g id="text_13">
      <text style="font: 10px 'DejaVu Sans', 'Bitstream Vera Sans', 'Computer Modern Sans Serif', 'Lucida Grande', 'Verdana', 'Geneva', 'Lucid', 'Arial', 'Helvetica', 'Avant Garde', sans-serif; text-anchor: end" x="26.710938" y="51.98056" transform="rotate(-0 26.710938 51.98056)">1.0</text>
     </g>
    </g>
    <g id="ytick_8">
     <g id="line2d_14">
      <g>
       <use xlink:href="#mcf168b04b0" x="33.710938" y="12.157295" style="stroke: #000000; stroke-width: 0.8"/>
      </g>
     </g>
     <g id="text_14">
      <text style="font: 10px 'DejaVu Sans', 'Bitstream Vera Sans', 'Computer Modern Sans Serif', 'Lucida Grande', 'Verdana', 'Geneva', 'Lucid', 'Arial', 'Helvetica', 'Avant Garde', sans-serif; text-anchor: end" x="26.710938" y="15.956514" transform="rotate(-0 26.710938 15.956514)">1.2</text>
     </g>
    </g>
   </g>
   <g id="line2d_15">
    <path d="M 49.943665 240.009385 
L 114.93957 240.009385 
L 116.239488 229.440466 
L 118.839324 213.423007 
L 124.038996 181.803191 
L 126.638833 167.508723 
L 128.58871 157.682138 
L 130.213607 150.843621 
L 132.163485 143.574743 
L 134.113362 137.108247 
L 136.388218 130.408729 
L 138.338096 125.297728 
L 139.638014 122.740345 
L 141.262911 119.184807 
L 142.23785 117.396844 
L 144.837686 112.074723 
L 146.787563 108.671244 
L 147.437522 107.645783 
L 153.937113 101.72116 
L 155.88699 100.395944 
L 158.161847 99.128924 
L 160.436703 98.125204 
L 162.71156 97.349588 
L 164.986417 96.79507 
L 167.586253 96.336826 
L 170.511069 96.054128 
L 173.760864 95.977577 
L 177.335639 96.129832 
L 179.935475 96.369572 
L 180.585434 95.931556 
L 181.235393 95.630719 
L 183.51025 95.142179 
L 189.034901 93.906374 
L 190.00984 94.308276 
L 190.659799 94.199592 
L 195.534492 92.457703 
L 201.709103 90.713869 
L 202.684042 91.08987 
L 203.334001 90.939398 
L 206.583796 89.545159 
L 207.233755 89.856947 
L 207.883714 89.826921 
L 209.183632 89.204173 
L 211.133509 88.334319 
L 212.433427 87.854911 
L 213.083386 88.139429 
L 213.733345 88.296818 
L 222.507793 88.848688 
L 227.057506 89.49948 
L 232.257178 90.469464 
L 238.431789 91.85983 
L 244.93138 93.533579 
L 245.906318 100.363198 
L 247.531216 108.957959 
L 252.730888 135.116009 
L 255.655704 147.720751 
L 257.930561 156.648914 
L 260.205417 164.680944 
L 262.480274 171.825899 
L 264.430151 177.296475 
L 266.380028 182.155596 
L 268.329906 186.476734 
L 270.279783 190.304902 
L 272.22966 193.67261 
L 274.179537 196.622961 
L 276.129414 199.198176 
L 277.754312 201.281068 
L 278.404271 202.506174 
L 279.704189 204.300243 
L 282.304025 207.450961 
L 284.903861 210.249128 
L 287.828677 213.067223 
L 290.753493 215.584513 
L 294.003288 218.086069 
L 297.578063 220.543039 
L 301.477817 222.941594 
L 305.702551 225.281197 
L 310.577244 227.72434 
L 314.476998 229.410011 
L 318.701732 230.994584 
L 323.251445 232.452169 
L 328.126138 233.764069 
L 333.325811 234.920612 
L 338.850462 235.920252 
L 345.025073 236.809787 
L 352.174623 237.602487 
L 360.299111 238.268298 
L 369.723517 238.813412 
L 374.59821 239.02439 
L 374.59821 239.02439 
" clip-path="url(#pebb5a2d293)" style="fill: none; stroke: #4682b4; stroke-linecap: square"/>
   </g>
   <g id="line2d_16">
    <path d="M 49.943665 234.458321 
L 50.268644 232.137779 
L 50.593624 230.757099 
L 50.918603 229.938079 
L 51.568562 229.167252 
L 52.218521 228.899377 
L 53.51844 228.775116 
L 59.368071 228.758625 
L 114.61459 228.758625 
L 116.239488 183.525279 
L 117.214426 163.173813 
L 118.189365 146.776236 
L 119.164304 133.943544 
L 120.139242 124.095721 
L 121.114181 116.584285 
L 122.089119 110.97064 
L 122.739078 108.128042 
L 123.389037 106.008735 
L 124.038996 104.409437 
L 125.013935 102.695737 
L 125.988874 101.559394 
L 126.963812 100.82726 
L 127.613771 100.499621 
L 127.938751 37.146275 
L 128.26373 31.381617 
L 128.58871 32.668828 
L 129.238669 41.099482 
L 130.538587 60.23115 
L 131.188546 67.616854 
L 131.838505 73.235025 
L 132.488464 77.30698 
L 133.138423 80.101672 
L 133.788382 81.881548 
L 134.438341 82.876879 
L 135.0883 83.275239 
L 135.738259 83.238681 
L 136.388218 82.90065 
L 137.363157 82.006684 
L 138.338096 80.770121 
L 139.638014 78.741259 
L 141.262911 75.757658 
L 143.537768 70.955988 
L 147.112543 62.817797 
L 147.437522 19.296 
L 147.762502 29.866464 
L 148.73744 70.195023 
L 149.387399 89.100712 
L 150.037358 101.315818 
L 150.687318 108.916558 
L 151.337277 113.620299 
L 151.987236 116.557376 
L 152.637195 118.450079 
L 153.287154 119.736822 
L 154.262092 121.08848 
L 155.56201 122.402374 
L 157.836867 124.234388 
L 178.635557 139.893706 
L 179.935475 140.931168 
L 180.260454 142.388364 
L 180.585434 142.609731 
L 180.910413 141.838521 
L 181.560372 138.846858 
L 184.160209 123.888516 
L 185.135147 119.75451 
L 186.110086 116.472395 
L 187.410004 112.988468 
L 188.709922 110.11693 
L 190.659799 106.392117 
L 195.859471 96.704398 
L 199.109267 90.474003 
L 207.883714 72.567621 
L 212.108448 62.852962 
L 212.433427 19.324225 
L 212.758407 29.889339 
L 213.733345 70.205895 
L 214.383304 89.107053 
L 215.033263 101.319485 
L 215.683223 108.918686 
L 216.333182 113.621506 
L 216.983141 116.55806 
L 217.6331 118.450452 
L 218.283059 119.737033 
L 219.257997 121.08857 
L 220.557915 122.402403 
L 222.832772 124.234388 
L 243.631462 139.893706 
L 244.6064 140.580335 
L 245.256359 193.342581 
L 245.581339 205.570651 
L 245.906318 212.55176 
L 246.231298 216.46145 
L 246.556277 218.510143 
L 246.881257 219.433074 
L 247.206236 219.675677 
L 247.531216 219.512549 
L 248.181175 218.581719 
L 254.030806 207.986449 
L 259.880438 198.263035 
L 265.40509 189.30288 
L 269.954803 182.225155 
L 277.104353 171.851563 
L 277.429332 145.310105 
L 278.404271 178.405248 
L 279.05423 190.105004 
L 279.704189 195.978635 
L 280.354148 198.905698 
L 281.004107 200.434182 
L 281.654066 201.335646 
L 282.629005 202.250531 
L 285.228841 204.187778 
L 289.128595 207.201341 
L 292.70337 210.244571 
L 296.603124 213.894962 
L 301.152838 218.432624 
L 305.377571 222.943171 
L 310.252264 228.361352 
L 310.902223 228.610126 
L 312.202141 228.739384 
L 317.401814 228.758621 
L 374.59821 228.758624 
L 374.59821 228.758624 
" clip-path="url(#pebb5a2d293)" style="fill: none; stroke-dasharray: 3.7,1.6; stroke-dashoffset: 0; stroke: #4682b4"/>
   </g>
   <g id="line2d_17">
    <path d="M 49.943665 236.288641 
L 61.317948 236.108098 
L 97.065696 236.108098 
L 97.390675 234.924811 
L 97.715655 234.279879 
L 98.040634 232.564725 
L 99.665532 219.495907 
L 99.990512 215.926813 
L 100.315491 214.039049 
L 100.96545 208.290798 
L 101.29043 204.68429 
L 101.940389 200.180231 
L 102.915327 191.492371 
L 103.565286 185.813214 
L 103.890266 182.262235 
L 104.540225 177.813827 
L 105.515164 169.275099 
L 106.165123 163.72733 
L 106.490102 160.250121 
L 107.140061 155.8841 
L 108.115 147.518106 
L 108.764959 142.107725 
L 109.089938 138.709419 
L 109.739897 134.42889 
L 110.714836 126.236969 
L 111.039815 125.062232 
L 111.689775 121.185556 
L 112.339734 122.824046 
L 112.989693 120.796443 
L 113.639652 123.32594 
L 114.289611 121.699412 
L 114.61459 123.033334 
L 114.93957 125.407126 
L 115.264549 126.190168 
L 115.589529 127.605384 
L 116.564467 133.743767 
L 116.889447 135.286743 
L 117.864385 141.571371 
L 118.189365 143.140267 
L 119.164304 149.412385 
L 119.489283 150.99184 
L 120.464222 157.236732 
L 120.789201 158.788345 
L 121.114181 160.93337 
L 121.43916 163.834867 
L 122.089119 166.581984 
L 122.414099 168.698205 
L 122.739078 171.565059 
L 123.389037 174.342838 
L 123.714017 176.430244 
L 124.038996 179.295896 
L 124.688956 182.042202 
L 125.013935 184.092855 
L 125.338915 186.952691 
L 125.988874 189.735667 
L 126.313853 191.757124 
L 126.638833 194.582394 
L 127.288792 197.393419 
L 127.613771 199.387855 
L 127.938751 202.211792 
L 128.26373 203.464881 
L 128.58871 203.997186 
L 128.913689 204.303698 
L 129.238669 205.079762 
L 129.563648 205.516454 
L 130.213607 205.550024 
L 130.863566 206.570173 
L 131.513526 206.507788 
L 132.163485 207.501245 
L 132.813444 207.434415 
L 133.463403 208.455503 
L 134.113362 208.35351 
L 134.763321 209.446239 
L 135.41328 209.321586 
L 136.063239 210.37217 
L 136.388218 210.374889 
L 136.713198 210.248248 
L 137.363157 211.330848 
L 138.013116 211.173775 
L 138.663075 212.329038 
L 138.988055 212.314194 
L 139.313034 212.150251 
L 139.962993 213.295402 
L 140.287973 213.314893 
L 140.612952 213.126483 
L 141.262911 215.74257 
L 141.587891 216.893612 
L 141.91287 217.512326 
L 142.887809 221.844836 
L 143.212788 222.50461 
L 144.187727 226.85295 
L 144.512707 227.489928 
L 145.487645 231.713431 
L 145.812625 232.33991 
L 146.787563 236.429951 
L 147.112543 237.01494 
L 148.087481 241.009859 
L 148.412461 241.55083 
L 149.387399 245.436837 
L 149.712379 245.972753 
L 150.687318 249.727134 
L 151.012297 250.221469 
L 151.987236 253.851574 
L 152.312215 254.301794 
L 153.287154 257.851539 
L 153.612133 258.265219 
L 153.937113 259.346108 
L 154.262092 260.833872 
L 154.587072 261.144045 
L 154.912051 260.606159 
L 155.237031 260.493955 
L 155.56201 261.139241 
L 155.88699 261.055037 
L 156.211969 260.330225 
L 156.536949 260.122542 
L 156.861928 260.664139 
L 157.186908 260.519405 
L 157.511888 259.788661 
L 157.836867 259.564464 
L 158.161847 260.091591 
L 158.486826 259.965121 
L 158.811806 259.235258 
L 159.136785 259.007734 
L 159.461765 259.509933 
L 159.786744 259.38252 
L 160.111724 258.674418 
L 160.436703 258.448987 
L 160.761683 258.93034 
L 161.086662 258.779216 
L 161.411642 258.089118 
L 161.736621 257.863179 
L 162.061601 258.343045 
L 162.38658 258.195748 
L 162.71156 257.507551 
L 163.036539 257.279605 
L 163.361519 257.736497 
L 163.686499 257.609485 
L 164.011478 256.946832 
L 164.336458 256.723085 
L 164.661437 257.160121 
L 164.986417 257.03337 
L 165.311396 256.3931 
L 165.636376 256.167873 
L 165.961355 256.596789 
L 166.286335 256.457785 
L 166.611314 255.815918 
L 166.936294 255.594537 
L 167.261273 256.008253 
L 167.586253 255.875821 
L 167.911232 255.257546 
L 168.236212 255.024081 
L 168.561191 255.420671 
L 168.886171 255.296581 
L 169.21115 254.701914 
L 169.53613 254.477685 
L 169.861109 254.860203 
L 170.186089 254.721325 
L 170.511069 254.145572 
L 170.836048 253.928266 
L 171.161028 254.29641 
L 171.486007 254.165207 
L 171.810987 253.591804 
L 172.135966 253.35917 
L 172.460946 253.709517 
L 172.785925 253.584177 
L 173.110905 253.03389 
L 173.435884 252.810031 
L 173.760864 253.146684 
L 174.085843 253.006224 
L 174.410823 252.47457 
L 174.735802 252.260449 
L 175.060782 252.583398 
L 175.385761 252.450739 
L 175.710741 251.921453 
L 176.03572 251.712478 
L 176.3607 252.020816 
L 176.68568 251.89541 
L 177.010659 251.389351 
L 177.335639 251.168809 
L 177.660618 251.460425 
L 177.985598 251.31851 
L 178.310577 250.830319 
L 178.635557 250.617252 
L 178.960536 250.897034 
L 179.285516 250.765336 
L 179.610495 250.286292 
L 179.935475 250.071369 
L 180.260454 250.335812 
L 180.585434 250.204196 
L 180.910413 249.74019 
L 181.235393 249.527238 
L 181.560372 249.777078 
L 181.885352 249.645534 
L 182.210331 249.196544 
L 182.535311 248.983513 
L 182.86029 249.218419 
L 183.18527 249.088042 
L 183.51025 248.654097 
L 183.835229 248.442175 
L 184.160209 247.945193 
L 188.059963 231.684964 
L 188.709922 228.655421 
L 194.234574 206.295329 
L 194.884533 203.757808 
L 196.83441 196.594446 
L 197.809349 193.708089 
L 198.134328 193.871266 
L 198.784287 193.354271 
L 199.109267 193.550572 
L 199.434246 194.112299 
L 200.084205 193.988859 
L 200.409185 194.24388 
L 200.734164 194.857151 
L 201.059144 194.908798 
L 201.384123 194.828441 
L 201.709103 195.07755 
L 202.034082 195.701508 
L 202.359062 195.788798 
L 202.684042 195.717189 
L 203.009021 195.947833 
L 203.334001 196.570162 
L 203.65898 196.671176 
L 203.98396 196.614271 
L 204.308939 196.824987 
L 204.633919 197.458235 
L 204.958898 197.596779 
L 205.283878 197.524918 
L 205.608857 197.713236 
L 205.933837 198.353934 
L 206.258816 198.528752 
L 206.583796 198.473294 
L 206.908775 198.641427 
L 207.233755 199.259153 
L 207.558734 199.431276 
L 207.883714 199.382388 
L 208.208693 199.527792 
L 208.533673 200.15392 
L 208.858652 200.362523 
L 209.183632 200.298359 
L 209.508612 200.417538 
L 209.833591 201.052898 
L 210.158571 201.297952 
L 210.48355 201.250138 
L 210.80853 201.349061 
L 211.133509 201.961119 
L 211.458489 202.203365 
L 211.783468 202.161711 
L 212.108448 202.237646 
L 212.433427 202.858081 
L 212.758407 203.136877 
L 213.408366 203.12981 
L 213.733345 203.75681 
L 214.058325 204.071402 
L 214.708284 204.06534 
L 215.033263 204.668856 
L 215.358243 205.012496 
L 216.008202 204.998997 
L 216.333182 205.612103 
L 216.658161 205.960604 
L 217.30812 205.913243 
L 217.958079 206.904604 
L 218.608038 206.830184 
L 219.257997 207.849016 
L 219.907956 207.747476 
L 220.557915 208.765164 
L 221.207874 208.699871 
L 221.857833 209.759535 
L 222.507793 209.630965 
L 223.157752 210.713092 
L 223.807711 210.557159 
L 224.45767 211.638132 
L 224.782649 211.645673 
L 225.107629 211.518107 
L 225.757588 212.640916 
L 226.082567 212.623154 
L 226.407547 212.4581 
L 227.382485 214.186701 
L 227.707465 214.456378 
L 228.682404 218.602403 
L 229.007383 219.230769 
L 229.982322 223.591784 
L 230.307301 224.257766 
L 231.28224 228.54932 
L 231.607219 229.179126 
L 232.582158 233.37399 
L 232.907137 233.967938 
L 233.882076 238.047099 
L 234.207055 238.631641 
L 235.181994 242.556051 
L 235.506974 243.095594 
L 236.481912 246.956062 
L 236.806892 247.459623 
L 237.78183 251.1824 
L 238.10681 251.6733 
L 239.081748 255.260727 
L 239.406728 255.709818 
L 240.381666 259.200731 
L 241.031625 260.13012 
L 241.356605 261.1518 
L 241.681585 261.216 
L 242.006564 260.559455 
L 242.331544 260.403769 
L 242.656523 261.007153 
L 242.981503 260.904443 
L 243.306482 260.167588 
L 243.631462 259.928843 
L 243.956441 260.459181 
L 244.281421 260.333874 
L 244.6064 259.60531 
L 244.93138 259.380911 
L 245.256359 259.907168 
L 245.581339 259.760143 
L 245.906318 259.048655 
L 246.231298 258.822789 
L 246.556277 259.325224 
L 246.881257 259.198196 
L 247.206236 258.490268 
L 247.531216 258.241972 
L 247.856195 258.718497 
L 248.181175 258.589542 
L 248.506155 257.903678 
L 248.831134 257.678892 
L 249.156114 258.13814 
L 249.481093 257.987397 
L 249.806073 257.319969 
L 250.131052 257.095021 
L 250.456032 257.552635 
L 250.781011 257.426144 
L 251.105991 256.763663 
L 251.43097 256.538225 
L 251.75595 256.973287 
L 252.080929 256.84453 
L 252.405909 256.204062 
L 252.730888 255.974051 
L 253.055868 256.39567 
L 253.380847 256.250686 
L 253.705827 255.629287 
L 254.030806 255.406456 
L 254.355786 255.81374 
L 254.680766 255.676474 
L 255.005745 255.057434 
L 255.330725 254.839853 
L 255.655704 255.234204 
L 255.980684 255.10521 
L 256.305663 254.509838 
L 256.630643 254.280448 
L 256.955622 254.657699 
L 257.280602 254.535012 
L 257.605581 253.962884 
L 257.930561 253.742063 
L 258.25554 254.105305 
L 258.58052 253.967382 
L 258.905499 253.392947 
L 259.230479 253.175649 
L 259.555458 253.523929 
L 259.880438 253.393238 
L 260.205417 252.842234 
L 260.530397 252.613452 
L 260.855376 252.944769 
L 261.180356 252.822245 
L 261.505336 252.294581 
L 261.830315 252.075005 
L 262.155295 252.392617 
L 262.480274 252.255052 
L 262.805254 251.745786 
L 263.130233 251.533586 
L 263.455213 251.837141 
L 263.780192 251.707124 
L 264.105172 251.200253 
L 264.430151 250.972844 
L 264.755131 251.258869 
L 265.08011 251.134468 
L 265.40509 250.650305 
L 265.730069 250.436044 
L 266.055049 250.709462 
L 266.380028 250.577311 
L 266.705008 250.104519 
L 267.029987 249.890808 
L 267.354967 250.149251 
L 267.679947 250.017351 
L 268.004926 249.559595 
L 268.329906 249.347381 
L 268.654885 249.591232 
L 268.979865 249.459732 
L 269.304844 249.014978 
L 269.629824 248.802991 
L 269.954803 249.033296 
L 270.279783 248.902565 
L 270.604762 248.4727 
L 271.254721 246.48441 
L 271.90468 243.837746 
L 274.829496 232.018691 
L 275.154476 230.873811 
L 275.804435 228.225868 
L 278.404271 218.353728 
L 281.329087 207.803992 
L 282.304025 204.428106 
L 284.253902 197.968495 
L 284.578882 197.463076 
L 285.228841 198.10977 
L 285.55382 197.837587 
L 285.8788 197.732237 
L 286.528759 198.671313 
L 287.178718 198.397156 
L 287.828677 199.347774 
L 288.478636 199.105746 
L 289.128595 200.04153 
L 289.778554 199.820372 
L 290.428513 200.727564 
L 291.078472 200.543257 
L 291.728431 201.442261 
L 292.37839 201.272261 
L 293.028349 202.160554 
L 293.678309 202.008396 
L 294.328268 202.856668 
L 294.978227 202.734519 
L 295.628186 203.573062 
L 296.278145 203.462794 
L 296.928104 204.292617 
L 297.578063 204.200372 
L 298.228022 204.989764 
L 298.877981 204.927707 
L 299.20296 205.235664 
L 299.52794 205.705909 
L 300.177899 205.655395 
L 300.502879 205.946613 
L 300.827858 206.42424 
L 301.477817 206.391618 
L 301.802797 206.66304 
L 302.127776 207.143893 
L 302.777735 207.15142 
L 303.102715 207.407602 
L 303.427694 207.872786 
L 304.077653 207.892602 
L 304.402633 208.124875 
L 304.727612 208.586135 
L 305.702551 208.837953 
L 306.02753 209.298938 
L 307.002469 209.55836 
L 307.327449 210.014401 
L 308.302387 210.309088 
L 308.627367 210.764138 
L 309.602305 211.028617 
L 309.927285 211.482056 
L 310.252264 211.608527 
L 310.577244 211.602009 
L 310.902223 211.753357 
L 311.227203 212.201522 
L 311.552182 212.351787 
L 312.202141 212.507885 
L 312.527121 212.954985 
L 312.8521 213.107553 
L 313.50206 213.259905 
L 314.152019 214.197589 
L 314.801978 215.385383 
L 315.776916 218.071071 
L 316.101896 218.747756 
L 317.076834 221.483198 
L 317.401814 222.169019 
L 318.376752 224.826571 
L 318.701732 225.481929 
L 319.676671 228.055047 
L 320.00165 228.676452 
L 320.976589 231.19073 
L 321.301568 231.784044 
L 322.276507 234.197719 
L 322.601486 234.782184 
L 323.576425 237.118625 
L 323.901404 237.669323 
L 324.876343 239.930811 
L 325.201322 240.452589 
L 326.176261 242.629742 
L 326.501241 243.143252 
L 327.476179 245.212582 
L 328.776097 245.772807 
L 329.426056 245.415518 
L 329.751036 245.57693 
L 330.076015 245.49209 
L 330.725974 245.074887 
L 331.050954 245.209077 
L 331.375933 245.130423 
L 332.025892 244.724835 
L 332.350872 244.844686 
L 332.675852 244.764824 
L 333.325811 244.372934 
L 333.65079 244.492647 
L 333.97577 244.399988 
L 334.625729 244.004457 
L 334.950708 244.110551 
L 335.925647 243.80597 
L 336.250626 243.923902 
L 337.225565 243.631552 
L 337.550544 243.761536 
L 338.525483 243.45702 
L 338.850462 243.60217 
L 339.825401 243.2641 
L 340.150381 243.423167 
L 341.125319 243.086971 
L 341.450299 243.271831 
L 342.100258 243.052173 
L 342.100258 243.052173 
" clip-path="url(#pebb5a2d293)" style="fill: none; stroke-dasharray: 6.4,1.6,1,1.6; stroke-dashoffset: 0; stroke: #4682b4"/>
   </g>
   <g id="patch_3">
    <path d="M 33.710938 273.312 
L 33.710938 7.2 
" style="fill: none; stroke: #000000; stroke-width: 0.8; stroke-linejoin: miter; stroke-linecap: square"/>
   </g>
   <g id="patch_4">
    <path d="M 390.830938 273.312 
L 390.830938 7.2 
" style="fill: none; stroke: #000000; stroke-width: 0.8; stroke-linejoin: miter; stroke-linecap: square"/>
   </g>
   <g id="patch_5">
    <path d="M 33.710938 273.312 
L 390.830937 273.312 
" style="fill: none; stroke: #000000; stroke-width: 0.8; stroke-linejoin: miter; stroke-linecap: square"/>
   </g>
   <g id="patch_6">
    <path d="M 33.710938 7.2 
L 390.830937 7.2 
" style="fill: none; stroke: #000000; stroke-width: 0.8; stroke-linejoin: miter; stroke-linecap: square"/>
   </g>
   <g id="legend_1">
    <g id="patch_7">
     <path d="M 194.710625 59.234375 
L 383.830938 59.234375 
Q 385.830938 59.234375 385.830938 57.234375 
L 385.830938 14.2 
Q 385.830938 12.2 383.830938 12.2 
L 194.710625 12.2 
Q 192.710625 12.2 192.710625 14.2 
L 192.710625 57.234375 
Q 192.710625 59.234375 194.710625 59.234375 
z
" style="fill: #ffffff; opacity: 0.8; stroke: #cccccc; stroke-linejoin: miter"/>
    </g>
    <g id="line2d_18">
     <path d="M 196.710625 20.298437 
L 206.710625 20.298437 
L 216.710625 20.298437 
" style="fill: none; stroke: #4682b4; stroke-linecap: square"/>
    </g>
    <g id="text_15">
     <text style="font: 10px 'DejaVu Sans', 'Bitstream Vera Sans', 'Computer Modern Sans Serif', 'Lucida Grande', 'Verdana', 'Geneva', 'Lucid', 'Arial', 'Helvetica', 'Avant Garde', sans-serif; text-anchor: start" x="224.710625" y="23.798437" transform="rotate(-0 224.710625 23.798437)">Target response PVR</text>
    </g>
    <g id="line2d_19">
     <path d="M 196.710625 34.976562 
L 206.710625 34.976562 
L 216.710625 34.976562 
" style="fill: none; stroke-dasharray: 3.7,1.6; stroke-dashoffset: 0; stroke: #4682b4"/>
    </g>
    <g id="text_16">
     <text style="font: 10px 'DejaVu Sans', 'Bitstream Vera Sans', 'Computer Modern Sans Serif', 'Lucida Grande', 'Verdana', 'Geneva', 'Lucid', 'Arial', 'Helvetica', 'Avant Garde', sans-serif; text-anchor: start" x="224.710625" y="38.476562" transform="rotate(-0 224.710625 38.476562)">Digital prediction PVR</text>
    </g>
    <g id="line2d_20">
     <path d="M 196.710625 49.654687 
L 206.710625 49.654687 
L 216.710625 49.654687 
" style="fill: none; stroke-dasharray: 6.4,1.6,1,1.6; stroke-dashoffset: 0; stroke: #4682b4"/>
    </g>
    <g id="text_17">
     <text style="font: 10px 'DejaVu Sans', 'Bitstream Vera Sans', 'Computer Modern Sans Serif', 'Lucida Grande', 'Verdana', 'Geneva', 'Lucid', 'Arial', 'Helvetica', 'Avant Garde', sans-serif; text-anchor: start" x="224.710625" y="53.154687" transform="rotate(-0 224.710625 53.154687)">Adjusted analog prediction PVR</text>
    </g>
   </g>
  </g>
 </g>
 <defs>
  <clipPath id="pebb5a2d293">
   <rect x="33.710938" y="7.2" width="357.12" height="266.112"/>
  </clipPath>
 </defs>
</svg>
