<?xml version="1.0" encoding="utf-8" standalone="no"?>
<!DOCTYPE svg PUBLIC "-//W3C//DTD SVG 1.1//EN"
  "http://www.w3.org/Graphics/SVG/1.1/DTD/svg11.dtd">
<svg xmlns:xlink="http://www.w3.org/1999/xlink" width="398.030937pt" height="297.190125pt" viewBox="0 0 398.030937 297.190125" xmlns="http://www.w3.org/2000/svg" version="1.1">
 <metadata>
  <rdf:RDF xmlns:dc="http://purl.org/dc/elements/1.1/" xmlns:cc="http://creativecommons.org/ns#" xmlns:rdf="http://www.w3.org/1999/02/22-rdf-syntax-ns#">
   <cc:Work>
    <dc:type rdf:resource="http://purl.org/dc/dcmitype/StillImage"/>
    <dc:date>2023-10-30T19:25:14.184199</dc:date>
    <dc:format>image/svg+xml</dc:format>
    <dc:creator>
     <cc:Agent>
      <dc:title>Matplotlib v3.8.0, https://matplotlib.org/</dc:title>
     </cc:Agent>
    </dc:creator>
   </cc:Work>
  </rdf:RDF>
 </metadata>
 <defs>
  <style type="text/css">*{stroke-linejoin: round; stroke-linecap: butt}</style>
 </defs>
 <g id="figure_1">
  <g id="patch_1">
   <path d="M 0 297.190125 
L 398.030937 297.190125 
L 398.030937 0 
L 0 0 
z
" style="fill: #ffffff"/>
  </g>
  <g id="axes_1">
   <g id="patch_2">
    <path d="M 33.710938 95.904 
L 390.830938 95.904 
L 390.830938 7.2 
L 33.710938 7.2 
z
" style="fill: #ffffff"/>
   </g>
   <g id="matplotlib.axis_1">
    <g id="xtick_1">
     <g id="line2d_1">
      <defs>
       <path id="mf4cb69fcea" d="M 0 0 
L 0 3.5 
" style="stroke: #000000; stroke-width: 0.8"/>
      </defs>
      <g>
       <use xlink:href="#mf4cb69fcea" x="49.943665" y="95.904" style="stroke: #000000; stroke-width: 0.8"/>
      </g>
     </g>
    </g>
    <g id="xtick_2">
     <g id="line2d_2">
      <g>
       <use xlink:href="#mf4cb69fcea" x="114.93957" y="95.904" style="stroke: #000000; stroke-width: 0.8"/>
      </g>
     </g>
    </g>
    <g id="xtick_3">
     <g id="line2d_3">
      <g>
       <use xlink:href="#mf4cb69fcea" x="179.935475" y="95.904" style="stroke: #000000; stroke-width: 0.8"/>
      </g>
     </g>
    </g>
    <g id="xtick_4">
     <g id="line2d_4">
      <g>
       <use xlink:href="#mf4cb69fcea" x="244.93138" y="95.904" style="stroke: #000000; stroke-width: 0.8"/>
      </g>
     </g>
    </g>
    <g id="xtick_5">
     <g id="line2d_5">
      <g>
       <use xlink:href="#mf4cb69fcea" x="309.927285" y="95.904" style="stroke: #000000; stroke-width: 0.8"/>
      </g>
     </g>
    </g>
    <g id="xtick_6">
     <g id="line2d_6">
      <g>
       <use xlink:href="#mf4cb69fcea" x="374.92319" y="95.904" style="stroke: #000000; stroke-width: 0.8"/>
      </g>
     </g>
    </g>
   </g>
   <g id="matplotlib.axis_2">
    <g id="ytick_1">
     <g id="line2d_7">
      <defs>
       <path id="m3f0bc671ce" d="M 0 0 
L -3.5 0 
" style="stroke: #000000; stroke-width: 0.8"/>
      </defs>
      <g>
       <use xlink:href="#m3f0bc671ce" x="33.710938" y="91.872" style="stroke: #000000; stroke-width: 0.8"/>
      </g>
     </g>
     <g id="text_1">
      <text style="font: 10px 'DejaVu Sans', 'Bitstream Vera Sans', 'Computer Modern Sans Serif', 'Lucida Grande', 'Verdana', 'Geneva', 'Lucid', 'Arial', 'Helvetica', 'Avant Garde', sans-serif; text-anchor: end" x="26.710938" y="95.671219" transform="rotate(-0 26.710938 95.671219)">0</text>
     </g>
    </g>
    <g id="ytick_2">
     <g id="line2d_8">
      <g>
       <use xlink:href="#m3f0bc671ce" x="33.710938" y="56.81113" style="stroke: #000000; stroke-width: 0.8"/>
      </g>
     </g>
     <g id="text_2">
      <text style="font: 10px 'DejaVu Sans', 'Bitstream Vera Sans', 'Computer Modern Sans Serif', 'Lucida Grande', 'Verdana', 'Geneva', 'Lucid', 'Arial', 'Helvetica', 'Avant Garde', sans-serif; text-anchor: end" x="26.710938" y="60.610349" transform="rotate(-0 26.710938 60.610349)">1</text>
     </g>
    </g>
    <g id="ytick_3">
     <g id="line2d_9">
      <g>
       <use xlink:href="#m3f0bc671ce" x="33.710938" y="21.750261" style="stroke: #000000; stroke-width: 0.8"/>
      </g>
     </g>
     <g id="text_3">
      <text style="font: 10px 'DejaVu Sans', 'Bitstream Vera Sans', 'Computer Modern Sans Serif', 'Lucida Grande', 'Verdana', 'Geneva', 'Lucid', 'Arial', 'Helvetica', 'Avant Garde', sans-serif; text-anchor: end" x="26.710938" y="25.54948" transform="rotate(-0 26.710938 25.54948)">2</text>
     </g>
    </g>
   </g>
   <g id="line2d_10">
    <path d="M 49.943665 91.872 
L 114.61459 91.872 
L 114.93957 42.786783 
L 127.613771 42.786783 
L 127.938751 91.872 
L 374.59821 91.872 
L 374.59821 91.872 
" clip-path="url(#pf1ead21e81)" style="fill: none; stroke: #ff4500; stroke-width: 1.5; stroke-linecap: square"/>
   </g>
   <g id="line2d_11">
    <path d="M 49.943665 91.872 
L 114.61459 91.872 
L 114.93957 42.786783 
L 244.6064 42.786783 
L 244.93138 91.872 
L 374.59821 91.872 
L 374.59821 91.872 
" clip-path="url(#pf1ead21e81)" style="fill: none; stroke-dasharray: 5.55,2.4; stroke-dashoffset: 0; stroke: #c71585; stroke-width: 1.5"/>
   </g>
   <g id="line2d_12">
    <path d="M 49.943665 91.872 
L 114.61459 91.872 
L 114.93957 11.232 
L 147.112543 11.232 
L 147.437522 91.872 
L 179.610495 91.872 
L 179.935475 11.232 
L 212.108448 11.232 
L 212.433427 91.872 
L 244.6064 91.872 
L 244.93138 11.232 
L 277.104353 11.232 
L 277.429332 91.872 
L 374.59821 91.872 
L 374.59821 91.872 
" clip-path="url(#pf1ead21e81)" style="fill: none; stroke-dasharray: 9.6,2.4,1.5,2.4; stroke-dashoffset: 0; stroke: #4682b4; stroke-width: 1.5"/>
   </g>
   <g id="line2d_13">
    <path d="M 49.943665 91.872 
L 114.93957 91.855872 
L 147.437522 11.232 
L 179.935475 91.855872 
L 212.433427 11.232 
L 244.93138 91.855872 
L 277.429332 11.232 
L 309.927285 91.872 
L 374.59821 91.872 
L 374.59821 91.872 
" clip-path="url(#pf1ead21e81)" style="fill: none; stroke-dasharray: 2.5,4.125; stroke-dashoffset: 0; stroke: #6b8e23; stroke-width: 2.5"/>
   </g>
   <g id="patch_3">
    <path d="M 33.710938 95.904 
L 33.710938 7.2 
" style="fill: none; stroke: #000000; stroke-width: 0.8; stroke-linejoin: miter; stroke-linecap: square"/>
   </g>
   <g id="patch_4">
    <path d="M 390.830938 95.904 
L 390.830938 7.2 
" style="fill: none; stroke: #000000; stroke-width: 0.8; stroke-linejoin: miter; stroke-linecap: square"/>
   </g>
   <g id="patch_5">
    <path d="M 33.710938 95.904 
L 390.830937 95.904 
" style="fill: none; stroke: #000000; stroke-width: 0.8; stroke-linejoin: miter; stroke-linecap: square"/>
   </g>
   <g id="patch_6">
    <path d="M 33.710938 7.2 
L 390.830937 7.2 
" style="fill: none; stroke: #000000; stroke-width: 0.8; stroke-linejoin: miter; stroke-linecap: square"/>
   </g>
   <g id="legend_1">
    <g id="patch_7">
     <path d="M 319.666875 73.9125 
L 383.830938 73.9125 
Q 385.830938 73.9125 385.830938 71.9125 
L 385.830938 14.2 
Q 385.830938 12.2 383.830938 12.2 
L 319.666875 12.2 
Q 317.666875 12.2 317.666875 14.2 
L 317.666875 71.9125 
Q 317.666875 73.9125 319.666875 73.9125 
z
" style="fill: #ffffff; opacity: 0.8; stroke: #cccccc; stroke-linejoin: miter"/>
    </g>
    <g id="line2d_14">
     <path d="M 321.666875 20.298437 
L 331.666875 20.298437 
L 341.666875 20.298437 
" style="fill: none; stroke: #ff4500; stroke-width: 1.5; stroke-linecap: square"/>
    </g>
    <g id="text_4">
     <text style="font: 10px 'DejaVu Sans', 'Bitstream Vera Sans', 'Computer Modern Sans Serif', 'Lucida Grande', 'Verdana', 'Geneva', 'Lucid', 'Arial', 'Helvetica', 'Avant Garde', sans-serif; text-anchor: start" x="349.666875" y="23.798437" transform="rotate(-0 349.666875 23.798437)">PLML2</text>
    </g>
    <g id="line2d_15">
     <path d="M 321.666875 34.976562 
L 331.666875 34.976562 
L 341.666875 34.976562 
" style="fill: none; stroke-dasharray: 5.55,2.4; stroke-dashoffset: 0; stroke: #c71585; stroke-width: 1.5"/>
    </g>
    <g id="text_5">
     <text style="font: 10px 'DejaVu Sans', 'Bitstream Vera Sans', 'Computer Modern Sans Serif', 'Lucida Grande', 'Verdana', 'Geneva', 'Lucid', 'Arial', 'Helvetica', 'Avant Garde', sans-serif; text-anchor: start" x="349.666875" y="38.476562" transform="rotate(-0 349.666875 38.476562)">PLMR</text>
    </g>
    <g id="line2d_16">
     <path d="M 321.666875 49.654687 
L 331.666875 49.654687 
L 341.666875 49.654687 
" style="fill: none; stroke-dasharray: 9.6,2.4,1.5,2.4; stroke-dashoffset: 0; stroke: #4682b4; stroke-width: 1.5"/>
    </g>
    <g id="text_6">
     <text style="font: 10px 'DejaVu Sans', 'Bitstream Vera Sans', 'Computer Modern Sans Serif', 'Lucida Grande', 'Verdana', 'Geneva', 'Lucid', 'Arial', 'Helvetica', 'Avant Garde', sans-serif; text-anchor: start" x="349.666875" y="53.154687" transform="rotate(-0 349.666875 53.154687)">AVBL</text>
    </g>
    <g id="line2d_17">
     <path d="M 321.666875 64.332812 
L 331.666875 64.332812 
L 341.666875 64.332812 
" style="fill: none; stroke-dasharray: 2.5,4.125; stroke-dashoffset: 0; stroke: #6b8e23; stroke-width: 2.5"/>
    </g>
    <g id="text_7">
     <text style="font: 10px 'DejaVu Sans', 'Bitstream Vera Sans', 'Computer Modern Sans Serif', 'Lucida Grande', 'Verdana', 'Geneva', 'Lucid', 'Arial', 'Helvetica', 'Avant Garde', sans-serif; text-anchor: start" x="349.666875" y="67.832812" transform="rotate(-0 349.666875 67.832812)">AVBR</text>
    </g>
   </g>
  </g>
  <g id="axes_2">
   <g id="patch_8">
    <path d="M 33.710938 273.312 
L 390.830938 273.312 
L 390.830938 95.904 
L 33.710938 95.904 
z
" style="fill: #ffffff"/>
   </g>
   <g id="matplotlib.axis_3">
    <g id="xtick_7">
     <g id="line2d_18">
      <g>
       <use xlink:href="#mf4cb69fcea" x="49.943665" y="273.312" style="stroke: #000000; stroke-width: 0.8"/>
      </g>
     </g>
     <g id="text_8">
      <text style="font: 10px 'DejaVu Sans', 'Bitstream Vera Sans', 'Computer Modern Sans Serif', 'Lucida Grande', 'Verdana', 'Geneva', 'Lucid', 'Arial', 'Helvetica', 'Avant Garde', sans-serif; text-anchor: middle" x="49.943665" y="287.910437" transform="rotate(-0 49.943665 287.910437)">0</text>
     </g>
    </g>
    <g id="xtick_8">
     <g id="line2d_19">
      <g>
       <use xlink:href="#mf4cb69fcea" x="114.93957" y="273.312" style="stroke: #000000; stroke-width: 0.8"/>
      </g>
     </g>
     <g id="text_9">
      <text style="font: 10px 'DejaVu Sans', 'Bitstream Vera Sans', 'Computer Modern Sans Serif', 'Lucida Grande', 'Verdana', 'Geneva', 'Lucid', 'Arial', 'Helvetica', 'Avant Garde', sans-serif; text-anchor: middle" x="114.93957" y="287.910437" transform="rotate(-0 114.93957 287.910437)">100</text>
     </g>
    </g>
    <g id="xtick_9">
     <g id="line2d_20">
      <g>
       <use xlink:href="#mf4cb69fcea" x="179.935475" y="273.312" style="stroke: #000000; stroke-width: 0.8"/>
      </g>
     </g>
     <g id="text_10">
      <text style="font: 10px 'DejaVu Sans', 'Bitstream Vera Sans', 'Computer Modern Sans Serif', 'Lucida Grande', 'Verdana', 'Geneva', 'Lucid', 'Arial', 'Helvetica', 'Avant Garde', sans-serif; text-anchor: middle" x="179.935475" y="287.910437" transform="rotate(-0 179.935475 287.910437)">200</text>
     </g>
    </g>
    <g id="xtick_10">
     <g id="line2d_21">
      <g>
       <use xlink:href="#mf4cb69fcea" x="244.93138" y="273.312" style="stroke: #000000; stroke-width: 0.8"/>
      </g>
     </g>
     <g id="text_11">
      <text style="font: 10px 'DejaVu Sans', 'Bitstream Vera Sans', 'Computer Modern Sans Serif', 'Lucida Grande', 'Verdana', 'Geneva', 'Lucid', 'Arial', 'Helvetica', 'Avant Garde', sans-serif; text-anchor: middle" x="244.93138" y="287.910437" transform="rotate(-0 244.93138 287.910437)">300</text>
     </g>
    </g>
    <g id="xtick_11">
     <g id="line2d_22">
      <g>
       <use xlink:href="#mf4cb69fcea" x="309.927285" y="273.312" style="stroke: #000000; stroke-width: 0.8"/>
      </g>
     </g>
     <g id="text_12">
      <text style="font: 10px 'DejaVu Sans', 'Bitstream Vera Sans', 'Computer Modern Sans Serif', 'Lucida Grande', 'Verdana', 'Geneva', 'Lucid', 'Arial', 'Helvetica', 'Avant Garde', sans-serif; text-anchor: middle" x="309.927285" y="287.910437" transform="rotate(-0 309.927285 287.910437)">400</text>
     </g>
    </g>
    <g id="xtick_12">
     <g id="line2d_23">
      <g>
       <use xlink:href="#mf4cb69fcea" x="374.92319" y="273.312" style="stroke: #000000; stroke-width: 0.8"/>
      </g>
     </g>
     <g id="text_13">
      <text style="font: 10px 'DejaVu Sans', 'Bitstream Vera Sans', 'Computer Modern Sans Serif', 'Lucida Grande', 'Verdana', 'Geneva', 'Lucid', 'Arial', 'Helvetica', 'Avant Garde', sans-serif; text-anchor: middle" x="374.92319" y="287.910437" transform="rotate(-0 374.92319 287.910437)">500</text>
     </g>
    </g>
   </g>
   <g id="matplotlib.axis_4">
    <g id="ytick_4">
     <g id="line2d_24">
      <g>
       <use xlink:href="#m3f0bc671ce" x="33.710938" y="267.321077" style="stroke: #000000; stroke-width: 0.8"/>
      </g>
     </g>
     <g id="text_14">
      <text style="font: 10px 'DejaVu Sans', 'Bitstream Vera Sans', 'Computer Modern Sans Serif', 'Lucida Grande', 'Verdana', 'Geneva', 'Lucid', 'Arial', 'Helvetica', 'Avant Garde', sans-serif; text-anchor: end" x="26.710938" y="271.120296" transform="rotate(-0 26.710938 271.120296)">-0.2</text>
     </g>
    </g>
    <g id="ytick_5">
     <g id="line2d_25">
      <g>
       <use xlink:href="#m3f0bc671ce" x="33.710938" y="243.305047" style="stroke: #000000; stroke-width: 0.8"/>
      </g>
     </g>
     <g id="text_15">
      <text style="font: 10px 'DejaVu Sans', 'Bitstream Vera Sans', 'Computer Modern Sans Serif', 'Lucida Grande', 'Verdana', 'Geneva', 'Lucid', 'Arial', 'Helvetica', 'Avant Garde', sans-serif; text-anchor: end" x="26.710938" y="247.104266" transform="rotate(-0 26.710938 247.104266)">0.0</text>
     </g>
    </g>
    <g id="ytick_6">
     <g id="line2d_26">
      <g>
       <use xlink:href="#m3f0bc671ce" x="33.710938" y="219.289016" style="stroke: #000000; stroke-width: 0.8"/>
      </g>
     </g>
     <g id="text_16">
      <text style="font: 10px 'DejaVu Sans', 'Bitstream Vera Sans', 'Computer Modern Sans Serif', 'Lucida Grande', 'Verdana', 'Geneva', 'Lucid', 'Arial', 'Helvetica', 'Avant Garde', sans-serif; text-anchor: end" x="26.710938" y="223.088235" transform="rotate(-0 26.710938 223.088235)">0.2</text>
     </g>
    </g>
    <g id="ytick_7">
     <g id="line2d_27">
      <g>
       <use xlink:href="#m3f0bc671ce" x="33.710938" y="195.272986" style="stroke: #000000; stroke-width: 0.8"/>
      </g>
     </g>
     <g id="text_17">
      <text style="font: 10px 'DejaVu Sans', 'Bitstream Vera Sans', 'Computer Modern Sans Serif', 'Lucida Grande', 'Verdana', 'Geneva', 'Lucid', 'Arial', 'Helvetica', 'Avant Garde', sans-serif; text-anchor: end" x="26.710938" y="199.072204" transform="rotate(-0 26.710938 199.072204)">0.4</text>
     </g>
    </g>
    <g id="ytick_8">
     <g id="line2d_28">
      <g>
       <use xlink:href="#m3f0bc671ce" x="33.710938" y="171.256955" style="stroke: #000000; stroke-width: 0.8"/>
      </g>
     </g>
     <g id="text_18">
      <text style="font: 10px 'DejaVu Sans', 'Bitstream Vera Sans', 'Computer Modern Sans Serif', 'Lucida Grande', 'Verdana', 'Geneva', 'Lucid', 'Arial', 'Helvetica', 'Avant Garde', sans-serif; text-anchor: end" x="26.710938" y="175.056174" transform="rotate(-0 26.710938 175.056174)">0.6</text>
     </g>
    </g>
    <g id="ytick_9">
     <g id="line2d_29">
      <g>
       <use xlink:href="#m3f0bc671ce" x="33.710938" y="147.240924" style="stroke: #000000; stroke-width: 0.8"/>
      </g>
     </g>
     <g id="text_19">
      <text style="font: 10px 'DejaVu Sans', 'Bitstream Vera Sans', 'Computer Modern Sans Serif', 'Lucida Grande', 'Verdana', 'Geneva', 'Lucid', 'Arial', 'Helvetica', 'Avant Garde', sans-serif; text-anchor: end" x="26.710938" y="151.040143" transform="rotate(-0 26.710938 151.040143)">0.8</text>
     </g>
    </g>
    <g id="ytick_10">
     <g id="line2d_30">
      <g>
       <use xlink:href="#m3f0bc671ce" x="33.710938" y="123.224894" style="stroke: #000000; stroke-width: 0.8"/>
      </g>
     </g>
     <g id="text_20">
      <text style="font: 10px 'DejaVu Sans', 'Bitstream Vera Sans', 'Computer Modern Sans Serif', 'Lucida Grande', 'Verdana', 'Geneva', 'Lucid', 'Arial', 'Helvetica', 'Avant Garde', sans-serif; text-anchor: end" x="26.710938" y="127.024113" transform="rotate(-0 26.710938 127.024113)">1.0</text>
     </g>
    </g>
    <g id="ytick_11">
     <g id="line2d_31">
      <g>
       <use xlink:href="#m3f0bc671ce" x="33.710938" y="99.208863" style="stroke: #000000; stroke-width: 0.8"/>
      </g>
     </g>
     <g id="text_21">
      <text style="font: 10px 'DejaVu Sans', 'Bitstream Vera Sans', 'Computer Modern Sans Serif', 'Lucida Grande', 'Verdana', 'Geneva', 'Lucid', 'Arial', 'Helvetica', 'Avant Garde', sans-serif; text-anchor: end" x="26.710938" y="103.008082" transform="rotate(-0 26.710938 103.008082)">1.2</text>
     </g>
    </g>
   </g>
   <g id="line2d_32">
    <path d="M 49.943665 251.110257 
L 114.93957 251.110257 
L 116.239488 244.064311 
L 119.164304 232.040992 
L 123.714017 213.560184 
L 126.313853 203.926478 
L 128.58871 196.225425 
L 130.213607 191.666414 
L 132.163485 186.820496 
L 134.113362 182.509498 
L 136.388218 178.043153 
L 138.338096 174.635818 
L 139.962993 172.428493 
L 141.262911 170.560538 
L 142.23785 169.368563 
L 144.837686 165.820482 
L 146.787563 163.551496 
L 147.762502 162.665821 
L 148.412461 162.361561 
L 152.962174 159.421915 
L 155.237031 158.311834 
L 157.836867 157.299282 
L 160.436703 156.520803 
L 163.361519 155.887476 
L 167.261273 155.359111 
L 170.836048 155.127993 
L 174.735802 155.10172 
L 179.285516 155.304343 
L 179.935475 155.350381 
L 181.885352 154.753763 
L 189.359881 153.797157 
L 190.00984 153.976184 
L 190.659799 153.903728 
L 196.184451 152.617093 
L 201.709103 151.579913 
L 202.684042 151.83058 
L 203.65898 151.63545 
L 206.583796 150.800773 
L 207.558734 151.031807 
L 208.533673 150.799548 
L 211.133509 149.993546 
L 212.433427 149.673941 
L 214.708284 149.992669 
L 221.532854 150.263006 
L 227.057506 150.77032 
L 233.557096 151.599294 
L 241.356605 152.830644 
L 244.93138 153.459719 
L 245.906318 158.012799 
L 247.531216 163.742639 
L 252.730888 181.18134 
L 255.655704 189.584501 
L 257.930561 195.53661 
L 260.205417 200.891296 
L 262.480274 205.654599 
L 264.430151 209.30165 
L 266.705008 213.045341 
L 268.979865 216.308279 
L 271.254721 219.132972 
L 273.529578 221.559792 
L 275.804435 223.632459 
L 277.754312 225.291379 
L 278.72925 226.435154 
L 280.679128 228.124862 
L 283.278964 230.127427 
L 286.528759 232.340571 
L 289.778554 234.287869 
L 293.353329 236.175978 
L 297.253083 237.991201 
L 301.802797 239.857505 
L 307.002469 241.742022 
L 312.202141 243.407316 
L 317.076834 244.712677 
L 322.276507 245.877299 
L 327.801159 246.89326 
L 333.97577 247.803749 
L 340.80034 248.587173 
L 348.599848 249.260091 
L 358.024254 249.839357 
L 369.398538 250.302553 
L 374.59821 250.453594 
L 374.59821 250.453594 
" clip-path="url(#p6ea70ca04f)" style="fill: none; stroke: #66cdaa; stroke-linecap: square"/>
   </g>
   <g id="line2d_33">
    <path d="M 49.943665 247.409547 
L 50.268644 245.862519 
L 50.593624 244.942066 
L 50.918603 244.396052 
L 51.568562 243.882168 
L 52.218521 243.703585 
L 53.843419 243.616169 
L 67.817539 243.60975 
L 114.61459 243.60975 
L 116.239488 213.454186 
L 117.214426 199.886542 
L 118.189365 188.954824 
L 119.164304 180.399696 
L 120.139242 173.83448 
L 121.114181 168.826857 
L 122.089119 165.084427 
L 122.739078 163.189362 
L 123.389037 161.77649 
L 124.363976 160.278567 
L 125.338915 159.278615 
L 126.313853 158.623082 
L 127.288792 158.203118 
L 127.613771 158.103747 
L 127.938751 115.868183 
L 128.26373 112.025078 
L 128.58871 112.883219 
L 129.238669 118.503654 
L 130.538587 131.2581 
L 131.513526 138.195239 
L 132.163485 141.402075 
L 132.813444 143.670143 
L 133.463403 145.17264 
L 134.113362 146.08044 
L 134.763321 146.530662 
L 135.41328 146.638526 
L 136.063239 146.504097 
L 137.038177 146.002814 
L 138.013116 145.246309 
L 139.313034 143.958233 
L 140.937932 142.032981 
L 143.212788 138.886168 
L 147.112543 132.982531 
L 147.437522 103.968 
L 147.762502 111.014976 
L 148.73744 137.900682 
L 149.387399 150.504475 
L 150.037358 158.647879 
L 150.687318 163.715039 
L 151.337277 166.850866 
L 151.987236 168.808917 
L 152.637195 170.070719 
L 153.287154 170.928548 
L 154.262092 171.829653 
L 155.56201 172.705583 
L 158.161847 174.091339 
L 179.935475 185.058112 
L 180.260454 186.029576 
L 180.585434 186.177154 
L 180.910413 185.663014 
L 181.560372 183.668572 
L 184.160209 173.696344 
L 185.135147 170.94034 
L 186.110086 168.752263 
L 187.410004 166.429645 
L 189.034901 164.075518 
L 191.309758 161.242691 
L 197.484369 153.543055 
L 200.409185 149.651846 
L 204.308939 144.510566 
L 206.908775 140.917324 
L 210.158571 135.989498 
L 212.108448 133.005975 
L 212.433427 103.986817 
L 212.758407 111.030226 
L 213.733345 137.90793 
L 214.383304 150.508702 
L 215.033263 158.650323 
L 215.683223 163.716457 
L 216.333182 166.851671 
L 216.983141 168.809373 
L 217.6331 170.070968 
L 218.283059 170.928688 
L 219.257997 171.829713 
L 220.557915 172.705602 
L 223.157752 174.091339 
L 244.6064 184.824223 
L 245.256359 219.999054 
L 245.581339 228.151101 
L 245.906318 232.805173 
L 246.231298 235.411633 
L 246.556277 236.777428 
L 246.881257 237.392716 
L 247.206236 237.554451 
L 247.531216 237.445699 
L 248.181175 236.825146 
L 254.030806 229.761633 
L 260.205417 222.936109 
L 272.554639 210.060796 
L 277.104353 205.671708 
L 277.429332 187.977403 
L 278.404271 210.040832 
L 279.05423 217.840669 
L 279.704189 221.756423 
L 280.354148 223.707799 
L 281.004107 224.726788 
L 281.654066 225.327764 
L 282.953984 226.110144 
L 291.728431 230.697068 
L 295.628186 233.078961 
L 300.827858 236.50323 
L 305.702551 239.974072 
L 310.252264 243.344902 
L 311.227203 243.549898 
L 313.50206 243.608179 
L 370.048497 243.609749 
L 374.59821 243.609749 
L 374.59821 243.609749 
" clip-path="url(#p6ea70ca04f)" style="fill: none; stroke-dasharray: 3.7,1.6; stroke-dashoffset: 0; stroke: #b22222"/>
   </g>
   <g id="line2d_34">
    <path d="M 49.943665 248.629761 
L 63.592805 248.509398 
L 113.314672 248.509398 
L 113.639652 247.720541 
L 113.964631 247.290586 
L 114.289611 246.14715 
L 115.914508 237.434604 
L 116.239488 235.055209 
L 116.564467 233.796699 
L 117.214426 229.964532 
L 117.539406 227.560193 
L 118.189365 224.557487 
L 119.164304 218.765581 
L 119.814263 214.979476 
L 120.139242 212.612157 
L 120.789201 209.646551 
L 121.76414 203.954066 
L 122.414099 200.255554 
L 122.739078 197.937414 
L 123.389037 195.026734 
L 124.363976 189.449404 
L 125.013935 185.842483 
L 125.338915 183.576946 
L 125.988874 180.72326 
L 126.963812 175.261979 
L 127.288792 174.478821 
L 127.938751 171.894371 
L 128.58871 172.986698 
L 129.238669 171.634962 
L 129.888628 173.321293 
L 130.538587 172.236941 
L 130.863566 173.126222 
L 131.188546 174.708751 
L 131.513526 175.230778 
L 131.838505 176.174256 
L 132.813444 180.266512 
L 133.138423 181.295162 
L 134.113362 185.484914 
L 134.438341 186.530845 
L 135.41328 190.712257 
L 135.738259 191.765227 
L 136.713198 195.928488 
L 137.038177 196.962896 
L 137.363157 198.392913 
L 137.688137 200.327245 
L 138.338096 202.158656 
L 138.663075 203.56947 
L 138.988055 205.480706 
L 139.638014 207.332559 
L 139.962993 208.724163 
L 140.287973 210.634597 
L 140.937932 212.465468 
L 141.262911 213.83257 
L 141.587891 215.739127 
L 142.23785 217.594445 
L 142.562829 218.942083 
L 142.887809 220.825596 
L 143.537768 222.699612 
L 143.862747 224.029237 
L 144.187727 225.911861 
L 144.512707 226.747254 
L 145.812625 228.114969 
L 146.462584 228.13735 
L 147.112543 228.817448 
L 147.762502 228.775859 
L 148.412461 229.438164 
L 149.06242 229.39361 
L 149.712379 230.074335 
L 150.362338 230.00634 
L 151.012297 230.734826 
L 151.662256 230.651724 
L 152.312215 231.352114 
L 152.962174 231.269499 
L 153.612133 231.991232 
L 154.262092 231.886517 
L 154.912051 232.656692 
L 155.56201 232.537501 
L 156.211969 233.300935 
L 156.536949 233.313929 
L 156.861928 233.188322 
L 158.486826 237.081309 
L 159.136785 239.000558 
L 159.461765 239.440407 
L 160.436703 242.3393 
L 160.761683 242.763952 
L 161.736621 245.57962 
L 162.061601 245.997274 
L 163.036539 248.723967 
L 163.361519 249.11396 
L 164.336458 251.777239 
L 164.661437 252.137887 
L 165.636376 254.728558 
L 165.961355 255.085835 
L 166.936294 257.588756 
L 167.261273 257.918313 
L 168.236212 260.338383 
L 168.561191 260.638529 
L 169.53613 263.005026 
L 169.861109 263.280813 
L 170.186089 264.001405 
L 170.511069 264.993248 
L 170.836048 265.20003 
L 171.161028 264.841439 
L 171.486007 264.766636 
L 171.810987 265.196827 
L 172.135966 265.140692 
L 172.460946 264.657483 
L 172.785925 264.519028 
L 173.110905 264.880093 
L 173.435884 264.783603 
L 173.760864 264.296441 
L 174.085843 264.146976 
L 174.410823 264.498394 
L 174.735802 264.41408 
L 175.060782 263.927505 
L 175.385761 263.775823 
L 175.710741 264.110622 
L 176.03572 264.02568 
L 176.3607 263.553612 
L 176.68568 263.403325 
L 177.010659 263.724226 
L 177.335639 263.623477 
L 177.660618 263.163412 
L 177.985598 263.012786 
L 178.310577 263.332697 
L 178.635557 263.234499 
L 178.960536 262.7757 
L 179.285516 262.623736 
L 179.610495 262.928331 
L 179.935475 262.843657 
L 180.260454 262.401888 
L 180.585434 262.252723 
L 180.910413 262.54408 
L 181.235393 262.45958 
L 181.560372 262.032734 
L 181.885352 261.882582 
L 182.210331 262.168526 
L 182.535311 262.075857 
L 182.86029 261.647945 
L 183.18527 261.500358 
L 183.51025 261.776169 
L 183.835229 261.687881 
L 184.160209 261.275697 
L 184.485188 261.120054 
L 184.810168 261.384447 
L 185.135147 261.30172 
L 185.460127 260.905276 
L 185.785106 260.75579 
L 186.110086 261.010802 
L 186.435065 260.918217 
L 186.760045 260.534381 
L 187.085024 260.38951 
L 187.410004 260.63494 
L 187.734983 260.547471 
L 188.059963 260.165202 
L 188.384942 260.010113 
L 188.709922 260.243678 
L 189.034901 260.160118 
L 189.359881 259.79326 
L 189.684861 259.644021 
L 190.00984 259.868456 
L 190.33482 259.774816 
L 190.659799 259.42038 
L 190.984779 259.277633 
L 191.309758 259.492932 
L 191.634738 259.404492 
L 191.959717 259.051635 
L 192.284697 258.912319 
L 192.609676 259.117877 
L 192.934656 259.034274 
L 193.259635 258.696901 
L 193.584615 258.549872 
L 193.909594 258.744283 
L 194.234574 258.649673 
L 194.559553 258.324213 
L 194.884533 258.182168 
L 195.209512 258.36869 
L 195.534492 258.280891 
L 195.859471 257.961528 
L 196.184451 257.818246 
L 196.509431 257.994542 
L 196.83441 257.906797 
L 197.15939 257.59746 
L 197.484369 257.455492 
L 197.809349 257.622052 
L 198.134328 257.534356 
L 198.459308 257.235029 
L 198.784287 257.093008 
L 199.109267 257.249613 
L 199.434246 257.162695 
L 200.409185 256.400795 
L 204.308939 245.560642 
L 204.958898 243.540947 
L 210.48355 228.634219 
L 211.133509 226.942539 
L 213.083386 222.166964 
L 214.058325 220.242726 
L 214.383304 220.351511 
L 215.033263 220.006847 
L 215.358243 220.137714 
L 215.683223 220.512199 
L 216.333182 220.429906 
L 216.658161 220.59992 
L 216.983141 221.008767 
L 217.958079 221.1557 
L 218.283059 221.571672 
L 219.257997 221.735889 
L 219.582977 222.150775 
L 220.557915 222.320658 
L 220.882895 222.742823 
L 221.207874 222.835186 
L 221.532854 222.787278 
L 221.857833 222.912824 
L 222.182813 223.339956 
L 222.507793 223.456501 
L 222.832772 223.419529 
L 223.157752 223.531618 
L 223.482731 223.943435 
L 223.807711 224.058184 
L 224.13269 224.025592 
L 224.45767 224.122528 
L 224.782649 224.539947 
L 225.107629 224.679015 
L 225.432608 224.636239 
L 225.757588 224.715692 
L 226.082567 225.139265 
L 226.407547 225.302635 
L 227.057506 225.336708 
L 227.382485 225.744746 
L 227.707465 225.906243 
L 228.357424 225.929097 
L 228.682404 226.342721 
L 229.007383 226.528585 
L 229.657342 226.523873 
L 229.982322 226.941874 
L 230.307301 227.151601 
L 230.95726 227.14756 
L 231.607219 227.778997 
L 232.257178 227.769998 
L 232.907137 228.411069 
L 233.557096 228.379496 
L 234.207055 229.040403 
L 234.857014 228.99079 
L 235.506974 229.670011 
L 236.156933 229.602317 
L 236.806892 230.280776 
L 237.456851 230.237248 
L 238.10681 230.94369 
L 238.756769 230.857977 
L 239.406728 231.579395 
L 240.056687 231.47544 
L 240.706646 232.196088 
L 241.356605 232.116071 
L 242.006564 232.864611 
L 242.656523 232.742733 
L 243.631462 233.895134 
L 243.956441 234.074919 
L 244.93138 236.838935 
L 245.256359 237.257846 
L 246.231298 240.165189 
L 246.556277 240.609177 
L 247.531216 243.470213 
L 247.856195 243.890084 
L 248.831134 246.68666 
L 249.156114 247.082625 
L 250.131052 249.802066 
L 250.456032 250.191761 
L 251.43097 252.808034 
L 251.75595 253.167729 
L 252.730888 255.741375 
L 253.055868 256.077082 
L 254.030806 258.558934 
L 254.355786 258.8862 
L 255.330725 261.277818 
L 255.655704 261.577212 
L 256.630643 263.904487 
L 257.280602 264.52408 
L 257.605581 265.2052 
L 257.930561 265.248 
L 258.25554 264.810303 
L 258.58052 264.706513 
L 258.905499 265.108769 
L 259.230479 265.040295 
L 259.555458 264.549059 
L 259.880438 264.389896 
L 260.205417 264.743454 
L 260.530397 264.659916 
L 260.855376 264.174206 
L 261.180356 264.024607 
L 261.505336 264.375445 
L 261.830315 264.277429 
L 262.155295 263.803103 
L 262.480274 263.652526 
L 262.805254 263.987482 
L 263.130233 263.902798 
L 263.455213 263.430845 
L 263.780192 263.265314 
L 264.105172 263.582998 
L 264.430151 263.497028 
L 264.755131 263.039785 
L 265.08011 262.889928 
L 265.40509 263.196093 
L 265.730069 263.095598 
L 266.055049 262.650646 
L 266.380028 262.500681 
L 266.705008 262.805756 
L 267.029987 262.721429 
L 267.354967 262.279776 
L 267.679947 262.129483 
L 268.004926 262.419525 
L 268.329906 262.333686 
L 268.654885 261.906708 
L 268.979865 261.753368 
L 269.304844 262.034447 
L 269.629824 261.937791 
L 269.954803 261.523525 
L 270.279783 261.37497 
L 270.604762 261.646493 
L 270.929742 261.554983 
L 271.254721 261.14229 
L 271.579701 260.997235 
L 271.90468 261.260136 
L 272.22966 261.17414 
L 272.554639 260.777225 
L 272.879619 260.624299 
L 273.204598 260.875799 
L 273.529578 260.794008 
L 273.854557 260.412589 
L 274.179537 260.265375 
L 274.504517 260.507537 
L 274.829496 260.415588 
L 275.154476 260.032631 
L 275.479455 259.887766 
L 275.804435 260.119953 
L 276.129414 260.032825 
L 276.454394 259.665489 
L 276.779373 259.512968 
L 277.104353 259.733846 
L 277.429332 259.652164 
L 277.754312 259.300387 
L 278.079291 259.154004 
L 278.404271 259.365744 
L 278.72925 259.274035 
L 279.05423 258.934524 
L 279.379209 258.793057 
L 279.704189 258.995427 
L 280.029168 258.908749 
L 280.354148 258.570835 
L 280.679128 258.419229 
L 281.004107 258.609913 
L 281.329087 258.526979 
L 281.654066 258.204203 
L 281.979046 258.061363 
L 282.304025 258.243641 
L 282.629005 258.15554 
L 282.953984 257.840346 
L 283.278964 257.697872 
L 283.603943 257.870167 
L 283.928923 257.782234 
L 284.253902 257.477063 
L 284.578882 257.335587 
L 284.903861 257.498154 
L 285.228841 257.410488 
L 285.55382 257.113985 
L 285.8788 256.972661 
L 286.203779 257.126197 
L 286.528759 257.039044 
L 286.853738 256.752467 
L 287.503698 255.42694 
L 288.153657 253.662498 
L 291.078472 245.783128 
L 292.053411 243.254579 
L 294.653247 236.673152 
L 297.578063 229.639995 
L 299.20296 225.980448 
L 299.852919 224.451942 
L 300.502879 223.082997 
L 300.827858 222.746051 
L 301.477817 223.17718 
L 302.127776 222.925491 
L 302.777735 223.551542 
L 303.427694 223.36877 
L 304.077653 224.002516 
L 304.727612 223.841164 
L 305.377571 224.46502 
L 306.02753 224.317581 
L 306.67749 224.922376 
L 307.327449 224.799505 
L 307.977408 225.39884 
L 308.627367 225.285507 
L 309.277326 225.877702 
L 309.927285 225.776264 
L 310.577244 226.341779 
L 311.227203 226.260346 
L 311.877162 226.819375 
L 312.527121 226.745863 
L 313.17708 227.299078 
L 313.827039 227.237581 
L 314.476998 227.763842 
L 315.126957 227.722472 
L 316.101896 228.221786 
L 316.426875 228.207597 
L 317.401814 228.719176 
L 317.726793 228.698412 
L 318.051773 228.87936 
L 318.376752 229.199929 
L 319.026711 229.204947 
L 319.351691 229.375734 
L 319.676671 229.685857 
L 320.32663 229.699068 
L 320.651609 229.853917 
L 320.976589 230.161423 
L 321.951527 230.329302 
L 322.276507 230.636626 
L 323.251445 230.809573 
L 323.576425 231.113601 
L 324.551363 231.310058 
L 324.876343 231.613425 
L 325.851281 231.789745 
L 326.176261 232.092037 
L 327.1512 232.272904 
L 327.476179 232.571681 
L 329.751036 233.27727 
L 330.725974 234.310221 
L 331.050954 234.694255 
L 332.025892 236.484714 
L 332.350872 236.935837 
L 333.325811 238.759466 
L 333.65079 239.216679 
L 334.625729 240.98838 
L 334.950708 241.425286 
L 335.925647 243.140698 
L 336.250626 243.554968 
L 337.225565 245.231153 
L 337.550544 245.626696 
L 338.525483 247.235813 
L 338.850462 247.625456 
L 339.825401 249.183083 
L 340.150381 249.550215 
L 341.125319 251.057874 
L 341.450299 251.405726 
L 342.425237 252.857161 
L 343.075196 253.688715 
L 343.725155 254.579055 
L 345.025073 254.952538 
L 345.675033 254.714346 
L 346.000012 254.821953 
L 346.324992 254.765393 
L 346.974951 254.487258 
L 347.29993 254.576718 
L 347.62491 254.524282 
L 348.274869 254.25389 
L 348.599848 254.333791 
L 348.924828 254.280549 
L 349.574787 254.019289 
L 349.899766 254.099098 
L 350.549725 253.86624 
L 350.874705 253.773638 
L 351.199684 253.844367 
L 353.474541 253.525034 
L 353.799521 253.61169 
L 354.774459 253.40868 
L 355.099439 253.505446 
L 357.374295 253.16198 
L 357.699275 253.285221 
L 358.349234 253.138782 
L 358.349234 253.138782 
" clip-path="url(#p6ea70ca04f)" style="fill: none; stroke-dasharray: 6.4,1.6,1,1.6; stroke-dashoffset: 0; stroke: #000080"/>
   </g>
   <g id="patch_9">
    <path d="M 33.710938 273.312 
L 33.710938 95.904 
" style="fill: none; stroke: #000000; stroke-width: 0.8; stroke-linejoin: miter; stroke-linecap: square"/>
   </g>
   <g id="patch_10">
    <path d="M 390.830938 273.312 
L 390.830938 95.904 
" style="fill: none; stroke: #000000; stroke-width: 0.8; stroke-linejoin: miter; stroke-linecap: square"/>
   </g>
   <g id="patch_11">
    <path d="M 33.710938 273.312 
L 390.830937 273.312 
" style="fill: none; stroke: #000000; stroke-width: 0.8; stroke-linejoin: miter; stroke-linecap: square"/>
   </g>
   <g id="patch_12">
    <path d="M 33.710938 95.904 
L 390.830937 95.904 
" style="fill: none; stroke: #000000; stroke-width: 0.8; stroke-linejoin: miter; stroke-linecap: square"/>
   </g>
   <g id="legend_2">
    <g id="patch_13">
     <path d="M 194.710625 147.938375 
L 383.830938 147.938375 
Q 385.830938 147.938375 385.830938 145.938375 
L 385.830938 102.904 
Q 385.830938 100.904 383.830938 100.904 
L 194.710625 100.904 
Q 192.710625 100.904 192.710625 102.904 
L 192.710625 145.938375 
Q 192.710625 147.938375 194.710625 147.938375 
z
" style="fill: #ffffff; opacity: 0.8; stroke: #cccccc; stroke-linejoin: miter"/>
    </g>
    <g id="line2d_35">
     <path d="M 196.710625 109.002437 
L 206.710625 109.002437 
L 216.710625 109.002437 
" style="fill: none; stroke: #66cdaa; stroke-linecap: square"/>
    </g>
    <g id="text_22">
     <text style="font: 10px 'DejaVu Sans', 'Bitstream Vera Sans', 'Computer Modern Sans Serif', 'Lucida Grande', 'Verdana', 'Geneva', 'Lucid', 'Arial', 'Helvetica', 'Avant Garde', sans-serif; text-anchor: start" x="224.710625" y="112.502437" transform="rotate(-0 224.710625 112.502437)">Target response PVR</text>
    </g>
    <g id="line2d_36">
     <path d="M 196.710625 123.680562 
L 206.710625 123.680562 
L 216.710625 123.680562 
" style="fill: none; stroke-dasharray: 3.7,1.6; stroke-dashoffset: 0; stroke: #b22222"/>
    </g>
    <g id="text_23">
     <text style="font: 10px 'DejaVu Sans', 'Bitstream Vera Sans', 'Computer Modern Sans Serif', 'Lucida Grande', 'Verdana', 'Geneva', 'Lucid', 'Arial', 'Helvetica', 'Avant Garde', sans-serif; text-anchor: start" x="224.710625" y="127.180562" transform="rotate(-0 224.710625 127.180562)">Digital prediction PVR</text>
    </g>
    <g id="line2d_37">
     <path d="M 196.710625 138.358687 
L 206.710625 138.358687 
L 216.710625 138.358687 
" style="fill: none; stroke-dasharray: 6.4,1.6,1,1.6; stroke-dashoffset: 0; stroke: #000080"/>
    </g>
    <g id="text_24">
     <text style="font: 10px 'DejaVu Sans', 'Bitstream Vera Sans', 'Computer Modern Sans Serif', 'Lucida Grande', 'Verdana', 'Geneva', 'Lucid', 'Arial', 'Helvetica', 'Avant Garde', sans-serif; text-anchor: start" x="224.710625" y="141.858687" transform="rotate(-0 224.710625 141.858687)">Adjusted analog prediction PVR</text>
    </g>
   </g>
  </g>
 </g>
 <defs>
  <clipPath id="pf1ead21e81">
   <rect x="33.710938" y="7.2" width="357.12" height="88.704"/>
  </clipPath>
  <clipPath id="p6ea70ca04f">
   <rect x="33.710938" y="95.904" width="357.12" height="177.408"/>
  </clipPath>
 </defs>
</svg>
