<?xml version="1.0" encoding="utf-8" standalone="no"?>
<!DOCTYPE svg PUBLIC "-//W3C//DTD SVG 1.1//EN"
  "http://www.w3.org/Graphics/SVG/1.1/DTD/svg11.dtd">
<svg xmlns:xlink="http://www.w3.org/1999/xlink" width="398.030937pt" height="297.190125pt" viewBox="0 0 398.030937 297.190125" xmlns="http://www.w3.org/2000/svg" version="1.1">
 <metadata>
  <rdf:RDF xmlns:dc="http://purl.org/dc/elements/1.1/" xmlns:cc="http://creativecommons.org/ns#" xmlns:rdf="http://www.w3.org/1999/02/22-rdf-syntax-ns#">
   <cc:Work>
    <dc:type rdf:resource="http://purl.org/dc/dcmitype/StillImage"/>
    <dc:date>2023-10-26T12:01:29.613371</dc:date>
    <dc:format>image/svg+xml</dc:format>
    <dc:creator>
     <cc:Agent>
      <dc:title>Matplotlib v3.8.0, https://matplotlib.org/</dc:title>
     </cc:Agent>
    </dc:creator>
   </cc:Work>
  </rdf:RDF>
 </metadata>
 <defs>
  <style type="text/css">*{stroke-linejoin: round; stroke-linecap: butt}</style>
 </defs>
 <g id="figure_1">
  <g id="patch_1">
   <path d="M 0 297.190125 
L 398.030937 297.190125 
L 398.030937 0 
L 0 0 
z
" style="fill: #ffffff"/>
  </g>
  <g id="axes_1">
   <g id="patch_2">
    <path d="M 33.710938 273.312 
L 390.830938 273.312 
L 390.830938 7.2 
L 33.710938 7.2 
z
" style="fill: #ffffff"/>
   </g>
   <g id="matplotlib.axis_1">
    <g id="xtick_1">
     <g id="line2d_1">
      <defs>
       <path id="m12797a58ae" d="M 0 0 
L 0 3.5 
" style="stroke: #000000; stroke-width: 0.8"/>
      </defs>
      <g>
       <use xlink:href="#m12797a58ae" x="49.943665" y="273.312" style="stroke: #000000; stroke-width: 0.8"/>
      </g>
     </g>
     <g id="text_1">
      <text style="font: 10px 'DejaVu Sans', 'Bitstream Vera Sans', 'Computer Modern Sans Serif', 'Lucida Grande', 'Verdana', 'Geneva', 'Lucid', 'Arial', 'Helvetica', 'Avant Garde', sans-serif; text-anchor: middle" x="49.943665" y="287.910437" transform="rotate(-0 49.943665 287.910437)">0</text>
     </g>
    </g>
    <g id="xtick_2">
     <g id="line2d_2">
      <g>
       <use xlink:href="#m12797a58ae" x="118.364012" y="273.312" style="stroke: #000000; stroke-width: 0.8"/>
      </g>
     </g>
     <g id="text_2">
      <text style="font: 10px 'DejaVu Sans', 'Bitstream Vera Sans', 'Computer Modern Sans Serif', 'Lucida Grande', 'Verdana', 'Geneva', 'Lucid', 'Arial', 'Helvetica', 'Avant Garde', sans-serif; text-anchor: middle" x="118.364012" y="287.910437" transform="rotate(-0 118.364012 287.910437)">100</text>
     </g>
    </g>
    <g id="xtick_3">
     <g id="line2d_3">
      <g>
       <use xlink:href="#m12797a58ae" x="186.784358" y="273.312" style="stroke: #000000; stroke-width: 0.8"/>
      </g>
     </g>
     <g id="text_3">
      <text style="font: 10px 'DejaVu Sans', 'Bitstream Vera Sans', 'Computer Modern Sans Serif', 'Lucida Grande', 'Verdana', 'Geneva', 'Lucid', 'Arial', 'Helvetica', 'Avant Garde', sans-serif; text-anchor: middle" x="186.784358" y="287.910437" transform="rotate(-0 186.784358 287.910437)">200</text>
     </g>
    </g>
    <g id="xtick_4">
     <g id="line2d_4">
      <g>
       <use xlink:href="#m12797a58ae" x="255.204705" y="273.312" style="stroke: #000000; stroke-width: 0.8"/>
      </g>
     </g>
     <g id="text_4">
      <text style="font: 10px 'DejaVu Sans', 'Bitstream Vera Sans', 'Computer Modern Sans Serif', 'Lucida Grande', 'Verdana', 'Geneva', 'Lucid', 'Arial', 'Helvetica', 'Avant Garde', sans-serif; text-anchor: middle" x="255.204705" y="287.910437" transform="rotate(-0 255.204705 287.910437)">300</text>
     </g>
    </g>
    <g id="xtick_5">
     <g id="line2d_5">
      <g>
       <use xlink:href="#m12797a58ae" x="323.625052" y="273.312" style="stroke: #000000; stroke-width: 0.8"/>
      </g>
     </g>
     <g id="text_5">
      <text style="font: 10px 'DejaVu Sans', 'Bitstream Vera Sans', 'Computer Modern Sans Serif', 'Lucida Grande', 'Verdana', 'Geneva', 'Lucid', 'Arial', 'Helvetica', 'Avant Garde', sans-serif; text-anchor: middle" x="323.625052" y="287.910437" transform="rotate(-0 323.625052 287.910437)">400</text>
     </g>
    </g>
   </g>
   <g id="matplotlib.axis_2">
    <g id="ytick_1">
     <g id="line2d_6">
      <defs>
       <path id="m63b0bf2055" d="M 0 0 
L -3.5 0 
" style="stroke: #000000; stroke-width: 0.8"/>
      </defs>
      <g>
       <use xlink:href="#m63b0bf2055" x="33.710938" y="251.343915" style="stroke: #000000; stroke-width: 0.8"/>
      </g>
     </g>
     <g id="text_6">
      <text style="font: 10px 'DejaVu Sans', 'Bitstream Vera Sans', 'Computer Modern Sans Serif', 'Lucida Grande', 'Verdana', 'Geneva', 'Lucid', 'Arial', 'Helvetica', 'Avant Garde', sans-serif; text-anchor: end" x="26.710938" y="255.143134" transform="rotate(-0 26.710938 255.143134)">-0.2</text>
     </g>
    </g>
    <g id="ytick_2">
     <g id="line2d_7">
      <g>
       <use xlink:href="#m63b0bf2055" x="33.710938" y="193.102761" style="stroke: #000000; stroke-width: 0.8"/>
      </g>
     </g>
     <g id="text_7">
      <text style="font: 10px 'DejaVu Sans', 'Bitstream Vera Sans', 'Computer Modern Sans Serif', 'Lucida Grande', 'Verdana', 'Geneva', 'Lucid', 'Arial', 'Helvetica', 'Avant Garde', sans-serif; text-anchor: end" x="26.710938" y="196.901979" transform="rotate(-0 26.710938 196.901979)">0.0</text>
     </g>
    </g>
    <g id="ytick_3">
     <g id="line2d_8">
      <g>
       <use xlink:href="#m63b0bf2055" x="33.710938" y="134.861606" style="stroke: #000000; stroke-width: 0.8"/>
      </g>
     </g>
     <g id="text_8">
      <text style="font: 10px 'DejaVu Sans', 'Bitstream Vera Sans', 'Computer Modern Sans Serif', 'Lucida Grande', 'Verdana', 'Geneva', 'Lucid', 'Arial', 'Helvetica', 'Avant Garde', sans-serif; text-anchor: end" x="26.710938" y="138.660825" transform="rotate(-0 26.710938 138.660825)">0.2</text>
     </g>
    </g>
    <g id="ytick_4">
     <g id="line2d_9">
      <g>
       <use xlink:href="#m63b0bf2055" x="33.710938" y="76.620452" style="stroke: #000000; stroke-width: 0.8"/>
      </g>
     </g>
     <g id="text_9">
      <text style="font: 10px 'DejaVu Sans', 'Bitstream Vera Sans', 'Computer Modern Sans Serif', 'Lucida Grande', 'Verdana', 'Geneva', 'Lucid', 'Arial', 'Helvetica', 'Avant Garde', sans-serif; text-anchor: end" x="26.710938" y="80.419671" transform="rotate(-0 26.710938 80.419671)">0.4</text>
     </g>
    </g>
    <g id="ytick_5">
     <g id="line2d_10">
      <g>
       <use xlink:href="#m63b0bf2055" x="33.710938" y="18.379298" style="stroke: #000000; stroke-width: 0.8"/>
      </g>
     </g>
     <g id="text_10">
      <text style="font: 10px 'DejaVu Sans', 'Bitstream Vera Sans', 'Computer Modern Sans Serif', 'Lucida Grande', 'Verdana', 'Geneva', 'Lucid', 'Arial', 'Helvetica', 'Avant Garde', sans-serif; text-anchor: end" x="26.710938" y="22.178516" transform="rotate(-0 26.710938 22.178516)">0.6</text>
     </g>
    </g>
   </g>
   <g id="line2d_11">
    <path d="M 49.943665 206.403218 
L 53.02258 206.30283 
L 53.364682 206.068587 
L 116.653503 206.068587 
L 117.337706 205.200988 
L 117.679808 204.51584 
L 118.02191 203.318455 
L 118.706113 200.241898 
L 119.390317 197.338595 
L 120.07452 193.579213 
L 120.758724 190.388164 
L 121.442927 186.430023 
L 122.127131 183.167578 
L 122.811334 179.149667 
L 123.495538 175.876307 
L 124.179741 171.839956 
L 124.863944 168.57344 
L 125.548148 164.529615 
L 126.232351 161.276064 
L 126.916555 157.231318 
L 127.600758 153.99244 
L 128.284962 149.948375 
L 128.969165 146.724681 
L 129.653369 142.682257 
L 130.337572 139.473138 
L 131.021776 135.433726 
L 131.705979 133.108604 
L 132.048081 131.732354 
L 132.390183 130.954479 
L 132.732284 131.173554 
L 133.074386 130.855042 
L 133.416488 130.052264 
L 133.75859 129.724874 
L 134.100691 130.318983 
L 134.442793 130.321507 
L 134.784895 129.690826 
L 135.126997 129.483776 
L 135.8112 131.319821 
L 136.153302 131.676571 
L 136.495403 132.212598 
L 137.179607 134.702458 
L 137.86381 135.861648 
L 138.548014 138.474118 
L 139.232217 139.664806 
L 139.916421 142.304235 
L 140.600624 143.485043 
L 141.284828 146.12097 
L 141.969031 147.278067 
L 142.653235 149.928455 
L 143.337438 151.06065 
L 144.021642 153.712099 
L 144.705845 154.823077 
L 145.390049 157.464343 
L 146.074252 158.548215 
L 146.758455 161.201369 
L 147.442659 162.25937 
L 148.126862 164.912548 
L 148.811066 165.952157 
L 149.495269 168.594843 
L 149.837371 168.782236 
L 150.179473 168.594616 
L 150.863676 169.587683 
L 151.205778 169.399684 
L 151.54788 168.974519 
L 152.232083 169.72112 
L 152.574185 169.480447 
L 152.916287 169.001145 
L 153.60049 169.704496 
L 153.942592 169.47388 
L 154.284694 168.966673 
L 154.968897 169.677691 
L 155.310999 169.430909 
L 155.653101 168.926843 
L 156.337304 169.659858 
L 156.679406 169.411339 
L 157.021507 168.887938 
L 157.705711 169.621735 
L 158.047813 169.395526 
L 158.389914 168.853645 
L 158.732016 169.14804 
L 159.074118 169.606047 
L 159.41622 169.366485 
L 159.758321 168.829555 
L 160.100423 169.136933 
L 160.442525 169.60602 
L 160.784627 169.365532 
L 161.126728 168.809991 
L 161.46883 169.106271 
L 161.810932 169.600766 
L 162.153033 169.3766 
L 162.495135 168.800317 
L 162.837237 168.962043 
L 163.179339 169.522951 
L 163.52144 169.501404 
L 163.863542 169.633667 
L 164.205644 170.0677 
L 164.547746 170.821144 
L 164.889847 170.909295 
L 165.231949 171.14757 
L 165.574051 171.637682 
L 165.916153 172.420649 
L 166.258254 172.527041 
L 166.600356 172.77784 
L 166.942458 173.265669 
L 167.284559 174.071708 
L 167.626661 174.173153 
L 167.968763 174.44381 
L 168.310865 174.920794 
L 168.652966 175.739444 
L 168.995068 175.844654 
L 169.33717 176.115879 
L 169.679272 176.606176 
L 170.021373 177.427606 
L 170.363475 177.525037 
L 170.705577 177.799705 
L 171.047679 178.284333 
L 171.38978 179.126395 
L 171.731882 179.226928 
L 172.073984 179.513412 
L 172.416086 179.984312 
L 172.758187 180.836895 
L 173.100289 180.940572 
L 173.442391 181.226823 
L 173.784492 181.707444 
L 174.126594 182.567834 
L 174.468696 182.667304 
L 174.810798 182.958882 
L 175.152899 183.437592 
L 175.495001 184.313283 
L 175.837103 184.413411 
L 176.179205 184.701934 
L 176.521306 185.172579 
L 176.863408 186.06124 
L 178.231815 186.995917 
L 178.573917 186.951241 
L 180.968629 187.442561 
L 181.310731 187.352856 
L 185.07385 187.964904 
L 185.415951 187.877066 
L 186.442257 188.157803 
L 186.784358 188.080211 
L 187.810664 188.352897 
L 188.152765 188.278405 
L 189.17907 188.559926 
L 189.521172 188.485046 
L 190.547477 188.778845 
L 190.889579 188.708727 
L 191.915884 189.004587 
L 192.257986 188.940797 
L 193.284291 189.238081 
L 193.626393 189.174995 
L 194.652698 189.482925 
L 194.9948 189.423739 
L 196.021105 189.737258 
L 196.363207 189.685918 
L 197.389512 190.003854 
L 197.731614 189.954377 
L 198.757919 190.281896 
L 199.100021 190.23632 
L 200.126326 190.56881 
L 200.468428 190.528393 
L 201.152631 190.846523 
L 202.178936 190.995927 
L 202.521038 191.162548 
L 203.547343 191.314873 
L 203.889445 191.483423 
L 204.573648 191.472414 
L 205.257852 191.817877 
L 205.942055 191.812046 
L 206.626259 192.164102 
L 207.310462 192.164525 
L 207.994666 192.523133 
L 208.336768 192.521184 
L 209.020971 192.116833 
L 209.363073 192.084942 
L 210.047276 191.289272 
L 210.389378 190.817814 
L 210.73148 190.659157 
L 211.415683 189.671236 
L 211.757785 189.111492 
L 212.099887 188.90994 
L 212.78409 187.856354 
L 213.126192 187.257622 
L 213.468294 187.038327 
L 214.152497 185.951421 
L 214.494599 185.3248 
L 214.836701 185.093226 
L 215.520904 183.981234 
L 215.863006 183.329594 
L 216.205107 183.087062 
L 216.889311 181.951914 
L 217.231413 181.276394 
L 217.573514 181.024226 
L 218.257718 179.868061 
L 218.59982 179.168508 
L 218.941921 178.905644 
L 219.626125 177.728046 
L 219.968227 177.004187 
L 220.310328 176.73028 
L 220.994532 175.529933 
L 221.336633 174.782677 
L 221.678735 174.498071 
L 222.362939 173.278029 
L 222.70504 172.520894 
L 223.389244 172.229444 
L 224.073447 171.32523 
L 224.757651 171.554807 
L 225.441854 170.853145 
L 226.126058 171.242365 
L 226.810261 170.589846 
L 227.494465 171.034898 
L 228.178668 170.388718 
L 228.862872 170.856962 
L 229.547075 170.215595 
L 230.231279 170.710643 
L 230.915482 170.050308 
L 231.599685 170.572331 
L 232.283889 169.901553 
L 232.968092 170.427486 
L 233.310194 170.166137 
L 233.652296 169.762728 
L 234.336499 170.314884 
L 235.020703 169.630366 
L 235.704906 170.210463 
L 236.047008 169.941671 
L 236.38911 169.515229 
L 237.073313 170.09827 
L 237.415415 169.843998 
L 237.757517 169.407781 
L 238.44172 170.015568 
L 238.783822 169.749081 
L 239.125924 169.305144 
L 239.810127 169.93942 
L 240.152229 169.679525 
L 240.494331 169.219882 
L 241.178534 169.870235 
L 241.520636 169.618433 
L 241.862737 169.145146 
L 242.546941 169.802129 
L 242.889043 169.54537 
L 243.231144 169.072466 
L 243.915348 169.746947 
L 244.25745 169.4938 
L 244.599551 169.004615 
L 245.283755 169.708007 
L 245.625857 169.457753 
L 245.967958 168.95207 
L 246.652162 169.663922 
L 246.994263 169.4341 
L 247.336365 168.923007 
L 248.020569 169.641549 
L 248.36267 169.396025 
L 248.704772 168.873982 
L 249.046874 169.171087 
L 249.388976 169.623213 
L 249.731077 169.381095 
L 250.073179 168.843086 
L 250.415281 169.13988 
L 250.757383 169.599741 
L 251.099484 169.377453 
L 251.441586 168.834184 
L 251.783688 169.121791 
L 252.125789 169.597587 
L 252.467891 169.360324 
L 252.809993 168.806148 
L 253.152095 169.112527 
L 253.494196 169.602488 
L 253.836298 169.177519 
L 254.1784 168.970456 
L 254.520502 169.287536 
L 254.862603 169.947944 
L 255.204705 169.979681 
L 255.546807 170.156762 
L 255.888909 170.62142 
L 256.23101 171.393775 
L 256.573112 171.492846 
L 256.915214 171.740547 
L 257.257316 172.231527 
L 257.599417 173.022306 
L 257.941519 173.123186 
L 258.283621 173.38324 
L 258.625722 173.875466 
L 258.967824 174.678721 
L 259.309926 174.786467 
L 259.652028 175.047127 
L 259.994129 175.532154 
L 260.336231 176.355449 
L 260.678333 176.462872 
L 261.020435 176.735453 
L 261.362536 177.206612 
L 261.704638 178.040753 
L 262.04674 178.144313 
L 262.388842 178.422457 
L 262.730943 178.908868 
L 263.073045 179.746823 
L 263.415147 179.852879 
L 263.757248 180.129251 
L 264.09935 180.607613 
L 264.441452 181.464438 
L 264.783554 181.563569 
L 265.125655 181.857081 
L 265.467757 182.324575 
L 265.809859 183.193678 
L 266.151961 183.29712 
L 266.494062 183.590809 
L 266.836164 184.070637 
L 267.178266 184.942218 
L 267.520368 185.039068 
L 267.862469 185.336505 
L 268.546673 186.526477 
L 269.230876 186.756122 
L 269.91508 187.107429 
L 270.257181 187.040104 
L 274.0203 187.663396 
L 274.362402 187.576128 
L 276.757114 188.020891 
L 277.099216 187.938909 
L 278.125521 188.223088 
L 278.467623 188.144642 
L 279.493928 188.422289 
L 279.83603 188.348156 
L 280.862335 188.632046 
L 281.204437 188.559285 
L 282.230742 188.855206 
L 282.572844 188.786272 
L 283.599149 189.08714 
L 283.941251 189.02173 
L 284.967556 189.323423 
L 285.309658 189.263899 
L 286.335963 189.568131 
L 286.678065 189.509859 
L 287.70437 189.829521 
L 288.046472 189.777019 
L 289.072777 190.099611 
L 289.414878 190.053946 
L 290.441184 190.377294 
L 290.783285 190.333519 
L 291.467489 190.652735 
L 292.493794 190.785314 
L 292.835896 190.949681 
L 293.862201 191.102782 
L 294.204303 191.2683 
L 294.888506 191.25355 
L 295.57271 191.593655 
L 296.256913 191.584365 
L 296.941117 191.931945 
L 297.62532 191.927984 
L 298.309524 192.28293 
L 298.993727 192.28446 
L 299.335829 192.472091 
L 299.677931 192.855544 
L 300.362134 193.230534 
L 300.704236 193.270928 
L 301.046337 193.598517 
L 301.730541 193.854553 
L 302.072643 193.836051 
L 302.414744 194.133758 
L 303.098948 194.336151 
L 303.44105 194.289915 
L 303.783151 194.571657 
L 304.467355 194.7416 
L 304.809457 194.672723 
L 305.151558 194.941448 
L 305.835762 195.081248 
L 306.177863 194.990099 
L 306.519965 195.246026 
L 307.204169 195.356402 
L 307.54627 195.243135 
L 307.888372 195.485765 
L 308.572576 195.568112 
L 308.914677 195.433465 
L 309.256779 195.66369 
L 309.940983 195.71798 
L 310.283084 195.561074 
L 310.625186 195.778191 
L 311.309389 195.804056 
L 311.651491 195.624356 
L 311.993593 195.828093 
L 312.677796 195.825935 
L 313.019898 195.623711 
L 313.362 195.81455 
L 313.704102 195.80569 
L 314.046203 195.575319 
L 314.388305 195.147031 
L 314.730407 195.159494 
L 315.072509 195.287919 
L 315.41461 195.102402 
L 315.756712 194.715657 
L 316.098814 194.774592 
L 316.440915 194.951425 
L 316.783017 194.783602 
L 317.125119 194.404644 
L 317.467221 194.479451 
L 317.809322 194.674294 
L 318.151424 194.510857 
L 318.493526 194.127757 
L 318.835628 194.209257 
L 319.177729 194.416721 
L 319.519831 194.254228 
L 319.861933 193.865753 
L 320.204035 193.950767 
L 320.546136 194.175809 
L 320.888238 194.015981 
L 321.23034 193.617696 
L 321.572441 193.70856 
L 321.914543 193.937485 
L 322.256645 193.785066 
L 322.598747 193.378659 
L 322.940848 193.475273 
L 323.28295 193.716054 
L 323.625052 193.555402 
L 323.967154 193.145294 
L 324.309255 193.243748 
L 324.651357 193.503308 
L 324.993459 193.347213 
L 325.335561 192.928203 
L 325.677662 193.031955 
L 326.019764 193.295928 
L 326.361866 193.146976 
L 326.703967 192.720995 
L 327.046069 192.829836 
L 327.388171 193.105738 
L 327.730273 192.948458 
L 328.072374 192.518346 
L 328.414476 192.628704 
L 328.756578 192.923424 
L 329.09868 192.77065 
L 329.440781 192.331325 
L 329.782883 192.445801 
L 330.124985 192.744978 
L 330.467087 192.599196 
L 330.809188 192.152069 
L 331.15129 192.272237 
L 331.493392 192.583135 
L 331.835493 192.429086 
L 332.177595 191.977431 
L 332.519697 192.104013 
L 332.861799 192.428234 
L 333.2039 192.275788 
L 333.546002 191.812486 
L 333.888104 191.937352 
L 334.230206 192.26999 
L 334.572307 192.128647 
L 334.914409 191.653177 
L 335.256511 191.781714 
L 335.598613 192.130505 
L 335.940714 191.980652 
L 336.282816 191.508517 
L 336.624918 191.637088 
L 336.96702 191.999673 
L 337.309121 191.850925 
L 337.651223 191.36689 
L 337.993325 191.5018 
L 338.335426 191.877843 
L 338.677528 191.735356 
L 339.01963 191.233829 
L 339.361732 191.368537 
L 339.703833 191.750596 
L 340.045935 191.604436 
L 340.388037 191.108762 
L 340.730139 191.243849 
L 341.07224 191.639976 
L 341.414342 191.494613 
L 341.756444 190.987197 
L 342.098546 191.128289 
L 342.440647 191.537624 
L 342.782749 191.398162 
L 343.124851 190.873378 
L 343.466952 191.013877 
L 343.809054 191.42917 
L 344.151156 191.295353 
L 344.493258 190.769331 
L 345.177461 191.082737 
L 345.861665 190.661529 
L 346.203766 190.7155 
L 346.545868 191.105483 
L 347.230072 190.929699 
L 347.572173 191.028195 
L 347.914275 191.461766 
L 348.598478 191.329122 
L 348.94058 191.427541 
L 349.282682 191.877885 
L 349.966885 191.756369 
L 350.308987 191.866719 
L 350.651089 192.328697 
L 351.335292 192.218878 
L 351.677394 192.332258 
L 352.019496 192.809892 
L 352.703699 192.707434 
L 353.045801 192.821461 
L 353.387903 193.316691 
L 354.072106 193.232144 
L 354.414208 193.352878 
L 354.75631 193.85692 
L 355.440513 193.782767 
L 355.782615 193.90618 
L 356.124717 194.425502 
L 356.80892 194.36591 
L 357.151022 194.491663 
L 357.493124 195.028965 
L 358.177327 194.980212 
L 358.519429 195.102664 
L 358.86153 195.655414 
L 359.203632 195.582564 
L 360.229937 196.317074 
L 360.914141 196.438169 
L 361.598344 196.644929 
L 362.282548 196.70536 
L 362.966751 196.891693 
L 363.650955 196.950399 
L 364.335158 197.127841 
L 365.019362 197.195491 
L 365.703565 197.370624 
L 366.387769 197.446309 
L 367.071972 197.629691 
L 368.098277 197.725595 
L 371.177193 198.012307 
L 371.861396 198.035822 
L 372.5456 198.146853 
L 373.229803 198.170454 
L 373.914007 198.279175 
L 374.59821 198.303988 
L 374.59821 198.303988 
" clip-path="url(#pc818161f01)" style="fill: none; stroke: #ff4500; stroke-linecap: square"/>
   </g>
   <g id="line2d_12">
    <path d="M 49.943665 219.651972 
L 53.02258 219.722946 
L 53.364682 219.888552 
L 116.653503 219.888552 
L 116.995605 217.242059 
L 117.337706 216.308691 
L 117.679808 212.814336 
L 118.364012 202.489733 
L 118.706113 200.749876 
L 119.390317 191.232568 
L 119.732418 185.523809 
L 120.07452 183.802625 
L 120.758724 174.298131 
L 121.100825 168.633645 
L 121.442927 166.962662 
L 122.127131 157.54151 
L 122.469232 151.923673 
L 122.811334 150.291572 
L 123.495538 140.943277 
L 123.837639 135.3651 
L 124.179741 133.766944 
L 124.863944 124.48404 
L 125.206046 118.944151 
L 125.548148 117.376691 
L 126.232351 108.155102 
L 126.574453 102.651489 
L 126.916555 101.11618 
L 127.600758 91.958084 
L 127.94286 86.490773 
L 128.284962 84.987617 
L 128.969165 75.89314 
L 129.311267 70.462357 
L 129.653369 68.991352 
L 130.337572 59.956114 
L 130.679674 54.559534 
L 131.363877 51.693305 
L 131.705979 47.728045 
L 132.048081 45.862426 
L 132.390183 49.250972 
L 132.732284 50.736436 
L 133.074386 47.612203 
L 133.416488 46.59661 
L 133.75859 50.431069 
L 134.100691 52.125923 
L 134.442793 49.018946 
L 134.784895 48.052998 
L 135.469098 54.862213 
L 135.8112 53.816625 
L 136.153302 55.378655 
L 136.837505 63.201632 
L 137.179607 62.330253 
L 137.521709 63.922343 
L 138.205912 71.64839 
L 138.548014 70.762843 
L 138.890116 72.345347 
L 139.574319 80.017443 
L 139.916421 79.116888 
L 140.258523 80.698373 
L 140.942726 88.353607 
L 141.284828 87.444073 
L 141.626929 89.007636 
L 142.311133 96.619644 
L 142.653235 95.711131 
L 142.995336 97.283009 
L 143.67954 104.867592 
L 144.021642 103.948629 
L 144.363743 105.524212 
L 145.047947 113.101143 
L 145.390049 112.175005 
L 145.73215 113.73333 
L 146.416354 121.267722 
L 146.758455 120.343216 
L 147.100557 121.909079 
L 147.784761 129.415598 
L 148.126862 128.48122 
L 148.468964 130.050704 
L 149.153168 137.544676 
L 149.495269 136.603497 
L 149.837371 136.876988 
L 150.179473 138.94758 
L 150.521575 139.74507 
L 150.863676 138.279377 
L 151.205778 138.039366 
L 151.54788 139.910347 
L 151.889981 140.650502 
L 152.232083 139.242463 
L 152.574185 139.013919 
L 152.916287 140.890127 
L 153.258388 141.641541 
L 153.60049 140.246568 
L 153.942592 140.034207 
L 154.284694 141.916842 
L 154.626795 142.672345 
L 154.968897 141.29352 
L 155.310999 141.079337 
L 155.653101 142.95224 
L 155.995202 143.723398 
L 156.337304 142.375826 
L 156.679406 142.179929 
L 157.021507 144.048977 
L 157.363609 144.798087 
L 157.705711 143.429823 
L 158.047813 143.236203 
L 158.389914 145.101882 
L 158.732016 145.848528 
L 159.074118 144.491944 
L 159.41622 144.294017 
L 159.758321 146.148622 
L 160.100423 146.910349 
L 160.442525 145.584537 
L 160.784627 145.405203 
L 161.126728 147.255486 
L 161.46883 147.994917 
L 161.810932 146.664356 
L 162.153033 146.504474 
L 162.495135 148.358525 
L 162.837237 150.87646 
L 163.179339 151.891862 
L 164.205644 159.580666 
L 164.547746 160.696593 
L 165.574051 168.355908 
L 165.916153 169.443301 
L 166.942458 176.969751 
L 167.284559 178.018841 
L 168.310865 185.382014 
L 168.652966 186.367034 
L 169.679272 193.600482 
L 170.021373 194.54361 
L 171.047679 201.574822 
L 171.38978 202.472039 
L 172.416086 209.374426 
L 172.758187 210.210102 
L 173.784492 216.956292 
L 174.126594 217.736901 
L 175.152899 224.297455 
L 175.495001 225.044403 
L 176.521306 231.451381 
L 176.863408 232.129095 
L 177.20551 232.281368 
L 177.889713 231.693101 
L 178.231815 231.704237 
L 178.573917 231.47429 
L 179.25812 230.691202 
L 179.600222 230.65233 
L 179.942324 230.36794 
L 180.626527 229.566981 
L 180.968629 229.524683 
L 181.310731 229.265275 
L 181.994934 228.473584 
L 182.337036 228.406453 
L 182.679138 228.136526 
L 183.363341 227.36966 
L 183.705443 227.279433 
L 187.468562 223.92469 
L 187.810664 223.791932 
L 194.310596 218.181572 
L 194.652698 217.988055 
L 196.363207 216.441153 
L 207.994666 206.296798 
L 208.336768 204.368252 
L 208.678869 201.775794 
L 209.020971 200.913134 
L 209.705174 196.022384 
L 210.047276 193.161883 
L 210.389378 192.263448 
L 211.073581 187.404005 
L 211.415683 184.604324 
L 211.757785 183.767619 
L 212.441988 179.016714 
L 212.78409 176.272997 
L 213.126192 175.491783 
L 213.810395 170.845071 
L 214.152497 168.157734 
L 214.494599 167.431494 
L 215.178802 162.888429 
L 215.520904 160.256731 
L 215.863006 159.585419 
L 216.547209 155.145395 
L 216.889311 152.568514 
L 217.231413 151.948693 
L 217.915616 147.611061 
L 218.257718 145.090374 
L 218.59982 144.525639 
L 219.284023 140.293005 
L 219.626125 137.829449 
L 219.968227 137.320162 
L 220.65243 133.193173 
L 220.994532 130.786058 
L 221.336633 130.330752 
L 222.020837 126.306099 
L 222.362939 123.954441 
L 222.70504 125.125835 
L 223.047142 125.625155 
L 223.389244 124.061559 
L 223.731346 123.716003 
L 224.073447 125.680316 
L 224.415549 126.500096 
L 224.757651 125.032878 
L 225.099753 124.751407 
L 225.441854 126.722908 
L 225.783956 127.532669 
L 226.126058 126.061333 
L 226.468159 125.78144 
L 226.810261 127.744556 
L 227.152363 128.548097 
L 227.494465 127.082181 
L 227.836566 126.806336 
L 228.178668 128.76362 
L 228.52077 129.561948 
L 228.862872 128.09512 
L 229.204973 127.820822 
L 229.547075 129.776108 
L 229.889177 130.579039 
L 230.231279 129.128707 
L 230.57338 128.860078 
L 230.915482 130.803659 
L 231.257584 131.607127 
L 231.599685 130.171942 
L 231.941787 129.918993 
L 232.283889 131.865051 
L 232.625991 132.656958 
L 232.968092 131.208668 
L 233.310194 130.947418 
L 233.652296 132.885035 
L 233.994398 133.677799 
L 234.336499 132.244674 
L 234.678601 131.988305 
L 235.020703 133.912207 
L 235.362805 134.70343 
L 235.704906 133.286413 
L 236.047008 133.046105 
L 236.38911 134.972799 
L 236.731211 135.752061 
L 237.073313 134.321873 
L 237.415415 134.073317 
L 237.757517 135.991204 
L 238.099618 136.77162 
L 238.44172 135.356762 
L 238.783822 135.112332 
L 239.125924 137.016204 
L 239.468025 137.795448 
L 239.810127 136.395388 
L 240.152229 136.168466 
L 240.494331 138.077089 
L 240.836432 138.844644 
L 241.178534 137.446618 
L 241.520636 137.22942 
L 241.862737 139.135677 
L 242.204839 139.908128 
L 242.546941 138.513306 
L 242.889043 138.286316 
L 243.231144 140.178433 
L 243.573246 140.948953 
L 243.915348 139.564412 
L 244.25745 139.34527 
L 244.599551 141.228772 
L 244.941653 141.985731 
L 245.283755 140.610537 
L 245.625857 140.398656 
L 245.967958 142.27275 
L 246.31006 143.0246 
L 246.652162 141.644318 
L 246.994263 141.441764 
L 247.336365 143.33039 
L 247.678467 144.098723 
L 248.020569 142.738852 
L 248.36267 142.536676 
L 248.704772 144.402668 
L 249.046874 145.150311 
L 249.388976 143.796904 
L 249.731077 143.601132 
L 250.073179 145.456708 
L 250.415281 146.198659 
L 250.757383 144.839884 
L 251.099484 144.653878 
L 251.441586 146.52407 
L 251.783688 147.282389 
L 252.125789 145.944266 
L 252.467891 145.758454 
L 252.809993 147.605603 
L 253.152095 148.36365 
L 253.494196 147.049606 
L 254.1784 151.057744 
L 254.520502 153.78883 
L 254.862603 154.893518 
L 255.888909 162.573537 
L 256.23101 163.686094 
L 257.257316 171.317948 
L 257.599417 172.393252 
L 258.625722 179.866544 
L 258.967824 180.884405 
L 259.994129 188.189844 
L 260.336231 189.165734 
L 261.362536 196.349532 
L 261.704638 197.262805 
L 262.730943 204.269728 
L 263.073045 205.138479 
L 264.09935 211.985564 
L 264.441452 212.812417 
L 265.467757 219.489029 
L 265.809859 220.250114 
L 266.836164 226.793997 
L 267.178266 227.512683 
L 267.862469 231.516355 
L 268.546673 232.184068 
L 268.888774 232.087342 
L 269.572978 231.365263 
L 269.91508 231.368729 
L 270.257181 231.133037 
L 270.941385 230.311706 
L 271.283487 230.255955 
L 271.625588 229.992092 
L 272.309792 229.202744 
L 272.651894 229.161693 
L 272.993995 228.876567 
L 273.678199 228.101803 
L 274.0203 228.038068 
L 274.362402 227.769559 
L 275.046606 226.974385 
L 275.388707 226.870449 
L 276.072911 226.167729 
L 276.415013 225.837227 
L 276.757114 225.725402 
L 279.151826 223.550296 
L 279.493928 223.419294 
L 284.625454 218.934737 
L 284.967556 218.742284 
L 287.362268 216.614763 
L 288.046472 216.050533 
L 291.467489 213.103952 
L 292.493794 212.208315 
L 299.335829 206.15463 
L 299.677931 205.058202 
L 300.362134 201.756609 
L 300.704236 201.241635 
L 301.388439 198.305621 
L 301.730541 196.533757 
L 302.072643 196.05898 
L 302.756846 193.220034 
L 303.098948 191.511583 
L 303.44105 191.095349 
L 304.125253 188.376474 
L 304.467355 186.738196 
L 304.809457 186.382184 
L 305.49366 183.791473 
L 305.835762 182.224642 
L 306.177863 181.929046 
L 306.862067 179.468074 
L 307.204169 177.972496 
L 307.54627 177.737484 
L 307.888372 176.74899 
L 308.572576 173.972302 
L 308.914677 173.795742 
L 309.256779 172.876645 
L 309.940983 170.230032 
L 310.283084 170.114391 
L 310.625186 169.265846 
L 311.309389 166.748376 
L 311.651491 166.693342 
L 311.993593 165.914863 
L 312.677796 163.521218 
L 313.019898 163.524287 
L 313.362 162.814897 
L 313.704102 161.696402 
L 314.046203 161.38399 
L 314.388305 162.621898 
L 314.730407 163.331538 
L 315.072509 162.603341 
L 315.41461 162.581331 
L 315.756712 163.954521 
L 316.098814 164.733419 
L 316.440915 164.037125 
L 316.783017 164.040332 
L 317.125119 165.408295 
L 317.467221 166.185748 
L 317.809322 165.503957 
L 318.151424 165.516613 
L 318.493526 166.871552 
L 318.835628 167.641291 
L 319.177729 166.971963 
L 319.519831 166.989245 
L 319.861933 168.328138 
L 320.204035 169.077209 
L 320.546136 168.421587 
L 320.888238 168.456061 
L 321.23034 169.786791 
L 321.572441 170.54135 
L 321.914543 169.889487 
L 322.256645 169.930778 
L 322.598747 171.250264 
L 322.940848 172.006122 
L 323.28295 171.381449 
L 323.625052 171.423586 
L 323.967154 172.72056 
L 324.309255 173.443333 
L 324.651357 172.82168 
L 324.993459 172.874587 
L 325.335561 174.162099 
L 325.677662 174.888664 
L 326.019764 174.269934 
L 326.361866 174.326365 
L 326.703967 175.602541 
L 327.046069 176.333524 
L 327.388171 175.742387 
L 327.730273 175.79978 
L 328.072374 177.053432 
L 328.414476 177.75169 
L 328.756578 177.164292 
L 329.09868 177.232486 
L 329.440781 178.475931 
L 329.782883 179.17565 
L 330.124985 178.591252 
L 330.467087 178.662786 
L 330.809188 179.892667 
L 331.15129 180.596167 
L 331.493392 180.040296 
L 331.835493 180.113252 
L 332.177595 181.320999 
L 332.519697 182.021065 
L 332.861799 181.489803 
L 333.2039 181.583042 
L 333.546002 182.785348 
L 333.888104 183.464773 
L 334.230206 182.918985 
L 334.572307 183.018474 
L 334.914409 184.201178 
L 335.256511 184.869271 
L 335.598613 184.341914 
L 335.940714 184.426715 
L 336.282816 185.595051 
L 336.624918 186.262642 
L 336.96702 185.758663 
L 337.309121 185.855973 
L 337.651223 187.005072 
L 337.993325 187.655727 
L 338.335426 187.169125 
L 338.677528 187.304673 
L 339.01963 188.453788 
L 339.361732 189.104366 
L 339.703833 188.616507 
L 340.045935 188.72099 
L 340.388037 189.848231 
L 340.730139 190.494198 
L 341.07224 190.027621 
L 341.414342 190.141935 
L 341.756444 191.249253 
L 342.098546 191.877171 
L 342.440647 191.427948 
L 342.782749 191.580124 
L 343.124851 192.686845 
L 343.466952 193.314925 
L 343.809054 192.864209 
L 344.151156 193.009057 
L 344.493258 194.111789 
L 345.177461 195.57659 
L 347.572173 208.459622 
L 347.914275 209.890607 
L 348.94058 215.673879 
L 349.282682 217.037128 
L 350.308987 222.628507 
L 350.651089 223.925239 
L 351.677394 229.28137 
L 352.019496 230.539807 
L 353.045801 235.700902 
L 353.387903 236.876806 
L 354.414208 241.876187 
L 354.75631 242.992608 
L 355.782615 247.761398 
L 356.124717 248.805127 
L 357.151022 253.35355 
L 357.493124 254.347981 
L 358.519429 258.73514 
L 358.86153 259.653016 
L 359.203632 261.176212 
L 359.887836 260.820884 
L 360.229937 261.216 
L 360.572039 261.133733 
L 361.256243 259.785076 
L 361.598344 260.035019 
L 361.940446 259.85695 
L 362.62465 258.420643 
L 362.966751 258.621111 
L 363.308853 258.454065 
L 363.993056 257.066262 
L 364.335158 257.238234 
L 364.67726 257.058718 
L 365.361463 255.702817 
L 365.703565 255.880567 
L 366.045667 255.667487 
L 366.72987 254.283508 
L 367.071972 254.421906 
L 367.414074 254.226736 
L 368.098277 253.470889 
L 368.440379 253.689865 
L 368.782481 253.532642 
L 369.466684 252.782642 
L 369.808786 253.040426 
L 370.150888 252.86054 
L 370.835091 252.094175 
L 371.177193 252.397283 
L 371.519295 252.238081 
L 372.203498 251.361429 
L 372.5456 251.689107 
L 372.887702 251.540593 
L 373.571905 250.650047 
L 373.914007 251.055095 
L 374.256108 250.874353 
L 374.59821 250.472015 
L 374.59821 250.472015 
" clip-path="url(#pc818161f01)" style="fill: none; stroke: #c71585; stroke-linecap: square"/>
   </g>
   <g id="line2d_13">
    <path d="M 49.943665 206.015697 
L 53.02258 205.928132 
L 53.364682 205.723807 
L 116.653503 205.723807 
L 116.995605 203.810753 
L 117.337706 202.768072 
L 117.679808 199.995131 
L 119.390317 178.866381 
L 119.732418 173.096121 
L 120.07452 170.044115 
L 120.758724 160.750746 
L 121.100825 154.919996 
L 121.442927 151.79398 
L 122.127131 142.52333 
L 122.469232 136.72681 
L 123.153436 129.476385 
L 124.179741 115.545017 
L 124.863944 106.467964 
L 125.206046 100.783032 
L 125.89025 93.655808 
L 126.916555 79.989236 
L 127.600758 71.130263 
L 127.94286 65.572046 
L 128.627064 58.584059 
L 129.653369 45.201084 
L 130.337572 36.560185 
L 130.679674 31.128556 
L 131.021776 28.091861 
L 131.363877 26.19263 
L 132.048081 19.925091 
L 132.732284 22.574088 
L 133.416488 19.296 
L 134.100691 23.385513 
L 134.784895 20.755857 
L 135.126997 22.912449 
L 135.469098 26.75023 
L 135.8112 28.016197 
L 136.153302 30.304219 
L 137.179607 40.228328 
L 137.521709 42.722902 
L 138.548014 52.883448 
L 138.890116 55.419931 
L 139.916421 65.560252 
L 140.258523 68.113803 
L 140.600624 71.639495 
L 140.942726 76.338907 
L 141.284828 78.210108 
L 141.626929 80.718646 
L 141.969031 84.186573 
L 142.311133 88.87751 
L 142.995336 93.318857 
L 143.337438 96.740215 
L 143.67954 101.375143 
L 144.363743 105.866061 
L 144.705845 109.240833 
L 145.047947 113.873819 
L 145.73215 118.313854 
L 146.074252 121.629207 
L 146.416354 126.252789 
L 147.100557 130.75211 
L 147.442659 134.02026 
L 147.784761 138.587958 
L 148.468964 143.132626 
L 148.811066 146.357091 
L 149.153168 150.922634 
L 149.495269 152.94854 
L 149.837371 153.809134 
L 150.179473 154.304681 
L 150.521575 155.559368 
L 150.863676 156.265381 
L 151.54788 156.319655 
L 151.889981 157.330731 
L 152.232083 157.968959 
L 152.916287 157.8681 
L 153.258388 158.850754 
L 153.60049 159.474252 
L 154.284694 159.366205 
L 154.968897 161.017029 
L 155.653101 160.852134 
L 156.337304 162.618782 
L 156.679406 162.577875 
L 157.021507 162.417251 
L 157.705711 164.115763 
L 158.047813 164.120158 
L 158.389914 163.915413 
L 159.074118 165.665685 
L 159.41622 165.626637 
L 159.758321 165.411741 
L 160.442525 167.279489 
L 160.784627 167.255491 
L 161.126728 166.990439 
L 161.810932 168.84184 
L 162.153033 168.87335 
L 162.495135 168.568742 
L 162.837237 170.380992 
L 163.52144 174.659172 
L 163.863542 175.659467 
L 164.889847 182.663965 
L 165.231949 183.730641 
L 166.258254 190.760733 
L 166.600356 191.790554 
L 167.626661 198.618817 
L 167.968763 199.631666 
L 168.995068 206.244157 
L 169.33717 207.189927 
L 170.363475 213.648632 
L 170.705577 214.523236 
L 171.731882 220.805859 
L 172.073984 221.672292 
L 173.100289 227.742112 
L 173.442391 228.541317 
L 174.468696 234.410217 
L 174.810798 235.138101 
L 175.837103 240.87708 
L 176.179205 241.54589 
L 176.521306 243.293394 
L 176.863408 245.698707 
L 177.20551 246.200174 
L 177.547612 245.330557 
L 177.889713 245.149153 
L 178.231815 246.192407 
L 178.573917 246.056272 
L 178.916018 244.884446 
L 179.25812 244.548679 
L 179.600222 245.424295 
L 179.942324 245.190299 
L 180.284425 244.008884 
L 180.626527 243.646418 
L 180.968629 244.498639 
L 181.310731 244.294171 
L 181.652832 243.114181 
L 181.994934 242.746336 
L 182.337036 243.558256 
L 182.679138 243.352263 
L 183.021239 242.207453 
L 183.363341 241.842993 
L 183.705443 242.62121 
L 184.047544 242.376884 
L 184.389646 241.261182 
L 184.731748 240.8959 
L 185.07385 241.671714 
L 185.415951 241.433573 
L 185.758053 240.320944 
L 186.100155 239.952417 
L 186.442257 240.691088 
L 186.784358 240.485745 
L 187.12646 239.414413 
L 187.468562 239.052675 
L 187.810664 239.759244 
L 188.152765 239.554323 
L 188.494867 238.519179 
L 188.836969 238.155047 
L 189.17907 238.848488 
L 189.521172 238.623757 
L 189.863274 237.586031 
L 190.205376 237.228117 
L 190.547477 237.896985 
L 190.889579 237.682879 
L 191.231681 236.683294 
L 191.573783 236.305844 
L 191.915884 236.947023 
L 192.257986 236.746403 
L 192.600088 235.784988 
L 192.94219 235.42247 
L 193.284291 236.040898 
L 193.626393 235.81637 
L 193.968495 234.885532 
L 194.310596 234.534207 
L 194.652698 235.129396 
L 194.9948 234.917276 
L 195.336902 233.990239 
L 195.679003 233.614132 
L 196.021105 234.18055 
L 196.363207 233.977909 
L 196.705309 233.088244 
L 197.04741 232.726323 
L 197.389512 233.2706 
L 197.731614 233.043515 
L 198.073716 232.183973 
L 198.415817 231.837798 
L 198.757919 232.359919 
L 199.100021 232.145445 
L 199.442122 231.289732 
L 199.784224 230.951877 
L 200.126326 231.450376 
L 200.468428 231.247629 
L 200.810529 230.429468 
L 201.152631 230.07291 
L 201.494733 230.544374 
L 201.836835 230.314937 
L 202.178936 229.525664 
L 202.521038 229.181191 
L 202.86314 229.633524 
L 203.205242 229.420604 
L 203.547343 228.646118 
L 203.889445 228.298646 
L 204.231547 228.72618 
L 204.573648 228.513392 
L 204.91575 227.763219 
L 205.257852 227.418934 
L 205.599954 227.822858 
L 205.942055 227.610187 
L 206.284157 226.884291 
L 206.626259 226.539876 
L 206.968361 226.919656 
L 207.310462 226.708872 
L 207.652564 226.0073 
L 207.994666 225.664679 
L 208.336768 224.861194 
L 212.441988 198.572794 
L 213.126192 193.674842 
L 218.941921 157.524611 
L 219.284023 155.781737 
L 219.968227 151.393614 
L 222.020837 140.197778 
L 222.362939 137.974892 
L 222.70504 137.174442 
L 223.047142 137.438257 
L 223.731346 136.602415 
L 224.073447 136.91978 
L 224.415549 137.827942 
L 224.757651 137.804626 
L 225.099753 137.628373 
L 225.441854 138.040672 
L 225.783956 139.032166 
L 226.126058 139.115665 
L 226.468159 138.98575 
L 226.810261 139.388492 
L 227.152363 140.397263 
L 227.494465 140.538387 
L 227.836566 140.422615 
L 228.178668 140.795504 
L 228.52077 141.801642 
L 228.862872 141.964955 
L 229.204973 141.872954 
L 229.547075 142.213625 
L 229.889177 143.237417 
L 230.231279 143.461404 
L 230.57338 143.345224 
L 230.915482 143.649684 
L 231.257584 144.68552 
L 231.599685 144.968153 
L 231.941787 144.878492 
L 232.283889 145.150318 
L 232.625991 146.149014 
L 232.968092 146.427292 
L 233.310194 146.348253 
L 233.652296 146.583332 
L 233.994398 147.595611 
L 234.336499 147.932865 
L 234.678601 147.82913 
L 235.020703 148.02181 
L 235.362805 149.049016 
L 235.704906 149.445202 
L 236.047008 149.3679 
L 236.38911 149.527832 
L 236.731211 150.517365 
L 237.073313 150.90901 
L 237.415415 150.841666 
L 237.757517 150.964433 
L 238.099618 151.967509 
L 238.44172 152.418247 
L 238.783822 152.325714 
L 239.125924 152.406821 
L 239.468025 153.420512 
L 239.810127 153.929121 
L 240.494331 153.919321 
L 240.836432 154.895044 
L 241.178534 155.450617 
L 241.862737 155.428793 
L 242.204839 156.420019 
L 242.546941 156.983451 
L 243.231144 156.906882 
L 243.573246 157.891589 
L 243.915348 158.509645 
L 244.599551 158.389328 
L 245.283755 160.036503 
L 245.967958 159.87234 
L 246.652162 161.517667 
L 247.336365 161.412107 
L 248.020569 163.125297 
L 248.36267 163.079856 
L 248.704772 162.917434 
L 249.388976 164.666941 
L 249.731077 164.629244 
L 250.073179 164.41484 
L 250.757383 166.162481 
L 251.099484 166.174672 
L 251.441586 165.968433 
L 252.125789 167.783712 
L 252.467891 167.754996 
L 252.809993 167.488148 
L 253.836298 170.282828 
L 254.1784 170.718824 
L 255.204705 177.421826 
L 255.546807 178.437725 
L 256.573112 185.488308 
L 256.915214 186.565021 
L 257.941519 193.503305 
L 258.283621 194.521532 
L 259.309926 201.303493 
L 259.652028 202.263747 
L 260.678333 208.858649 
L 261.020435 209.803696 
L 262.04674 216.148407 
L 262.388842 217.020702 
L 263.415147 223.262036 
L 263.757248 224.076158 
L 264.783554 230.094884 
L 265.125655 230.888537 
L 266.151961 236.688438 
L 266.494062 237.414495 
L 267.520368 243.058359 
L 268.204571 244.560931 
L 268.546673 246.212711 
L 268.888774 246.316505 
L 269.230876 245.255049 
L 269.572978 245.003347 
L 269.91508 245.978856 
L 270.257181 245.812802 
L 270.599283 244.621506 
L 270.941385 244.23552 
L 271.283487 245.092934 
L 271.625588 244.890347 
L 271.96769 243.712454 
L 272.309792 243.349662 
L 272.651894 244.200477 
L 272.993995 243.962778 
L 273.336097 242.812494 
L 273.678199 242.44733 
L 274.0203 243.259631 
L 274.362402 243.054262 
L 274.704504 241.909733 
L 275.046606 241.508305 
L 275.388707 242.278718 
L 275.730809 242.070233 
L 276.072911 240.961375 
L 276.415013 240.597957 
L 276.757114 241.340437 
L 277.099216 241.096726 
L 277.441318 240.017676 
L 277.78342 239.653995 
L 278.125521 240.393833 
L 278.467623 240.189331 
L 278.809725 239.118279 
L 279.151826 238.753807 
L 279.493928 239.457184 
L 279.83603 239.249018 
L 280.178132 238.213555 
L 280.520233 237.84169 
L 280.862335 238.523334 
L 281.204437 238.288933 
L 281.546539 237.284299 
L 281.88864 236.924041 
L 282.230742 237.582509 
L 282.572844 237.360588 
L 282.914946 236.359768 
L 283.257047 236.007997 
L 283.599149 236.645556 
L 283.941251 236.437007 
L 284.283352 235.474452 
L 284.625454 235.103591 
L 284.967556 235.713504 
L 285.309658 235.515152 
L 285.651759 234.590175 
L 285.993861 234.233167 
L 286.335963 234.820432 
L 286.678065 234.597447 
L 287.020166 233.668741 
L 287.362268 233.317429 
L 287.70437 233.880503 
L 288.046472 233.669212 
L 288.388573 232.778386 
L 288.730675 232.408508 
L 289.072777 232.944158 
L 289.414878 232.746071 
L 289.75698 231.892979 
L 290.099082 231.537986 
L 290.441184 232.051477 
L 290.783285 231.829073 
L 291.125387 231.005726 
L 291.467489 230.662656 
L 291.809591 231.153423 
L 292.151692 230.94322 
L 292.493794 230.123747 
L 292.835896 229.756087 
L 293.177998 230.218514 
L 293.520099 230.017391 
L 293.862201 229.23463 
L 294.204303 228.888228 
L 294.546404 229.330271 
L 294.888506 229.116618 
L 295.230608 228.352241 
L 295.57271 228.006729 
L 295.914811 228.42456 
L 296.256913 228.211314 
L 296.599015 227.471246 
L 296.941117 227.128153 
L 297.283218 227.522394 
L 297.62532 227.309795 
L 297.967422 226.590747 
L 298.309524 226.248022 
L 298.651625 226.620363 
L 298.993727 226.409007 
L 299.335829 225.714031 
L 300.020032 222.499503 
L 300.704236 218.220562 
L 303.783151 199.112342 
L 304.125253 197.26138 
L 304.809457 192.98037 
L 307.54627 177.019786 
L 310.283084 161.816273 
L 313.362 145.644246 
L 313.704102 144.062369 
L 314.046203 143.245244 
L 314.388305 143.675435 
L 314.730407 144.290773 
L 315.072509 143.850726 
L 315.41461 143.680404 
L 316.098814 145.198636 
L 316.440915 144.872518 
L 316.783017 144.755397 
L 317.467221 146.292291 
L 317.809322 146.004895 
L 318.151424 145.900997 
L 318.835628 147.413907 
L 319.177729 147.156366 
L 319.519831 147.056354 
L 320.204035 148.523039 
L 320.546136 148.304669 
L 320.888238 148.225064 
L 321.572441 149.67851 
L 321.914543 149.467091 
L 322.256645 149.403666 
L 322.940848 150.839796 
L 323.625052 150.593798 
L 324.309255 151.965225 
L 324.993459 151.767743 
L 325.677662 153.12344 
L 326.361866 152.945167 
L 326.703967 153.500352 
L 327.046069 154.286767 
L 327.730273 154.137631 
L 328.072374 154.660993 
L 328.414476 155.413864 
L 329.09868 155.313536 
L 329.440781 155.811418 
L 329.782883 156.571677 
L 330.467087 156.490011 
L 330.809188 156.960831 
L 331.15129 157.733026 
L 331.835493 157.680284 
L 332.177595 158.1191 
L 332.519697 158.89651 
L 333.2039 158.908679 
L 333.546002 159.322856 
L 333.888104 160.074933 
L 334.572307 160.10697 
L 334.914409 160.482494 
L 335.256511 161.228225 
L 335.598613 161.306393 
L 335.940714 161.270395 
L 336.282816 161.635348 
L 336.624918 162.380636 
L 336.96702 162.501277 
L 337.309121 162.474552 
L 337.651223 162.800051 
L 337.993325 163.537347 
L 338.335426 163.696468 
L 338.677528 163.716549 
L 339.01963 164.013775 
L 339.361732 164.749468 
L 339.703833 164.912528 
L 340.045935 164.892789 
L 340.388037 165.177059 
L 340.730139 165.910148 
L 341.07224 166.114617 
L 341.414342 166.10408 
L 341.756444 166.348768 
L 342.098546 167.07333 
L 342.440647 167.316269 
L 342.782749 167.352456 
L 343.124851 167.568636 
L 343.466952 168.291476 
L 343.809054 168.538138 
L 344.151156 168.573131 
L 344.493258 168.784449 
L 345.177461 170.300432 
L 345.861665 172.220773 
L 346.88797 176.562807 
L 347.230072 177.656822 
L 348.256377 182.079295 
L 348.598478 183.188081 
L 349.624784 187.484625 
L 349.966885 188.544162 
L 350.993191 192.704199 
L 351.335292 193.708843 
L 352.361598 197.773752 
L 352.703699 198.73298 
L 353.730004 202.635241 
L 354.072106 203.580163 
L 355.098411 207.357557 
L 355.440513 208.247886 
L 356.466818 211.904102 
L 356.80892 212.747676 
L 357.835225 216.267545 
L 358.177327 217.097752 
L 359.203632 220.4433 
L 360.229937 221.37945 
L 360.572039 221.349032 
L 360.914141 220.960403 
L 361.256243 220.771393 
L 361.598344 221.032353 
L 361.940446 220.895189 
L 362.282548 220.444955 
L 362.62465 220.220684 
L 362.966751 220.437633 
L 363.308853 220.31047 
L 363.650955 219.879556 
L 363.993056 219.654745 
L 364.335158 219.848512 
L 364.67726 219.719396 
L 365.019362 219.309193 
L 365.361463 219.085816 
L 365.703565 219.279359 
L 366.045667 219.129555 
L 366.387769 218.714657 
L 366.72987 218.490089 
L 367.071972 218.661613 
L 368.098277 218.169188 
L 368.440379 218.359853 
L 369.124582 218.074521 
L 369.466684 217.887201 
L 369.808786 218.09735 
L 370.835091 217.60503 
L 371.177193 217.839698 
L 371.861396 217.515644 
L 372.203498 217.29313 
L 372.5456 217.550299 
L 373.229803 217.23196 
L 373.571905 217.006761 
L 373.914007 217.305629 
L 374.59821 216.950503 
L 374.59821 216.950503 
" clip-path="url(#pc818161f01)" style="fill: none; stroke: #4682b4; stroke-linecap: square"/>
   </g>
   <g id="line2d_14">
    <path d="M 49.943665 207.812414 
L 61.575124 207.619738 
L 116.995605 207.51085 
L 117.679808 206.91705 
L 118.02191 206.365603 
L 119.732418 202.027151 
L 120.07452 200.800705 
L 120.758724 199.135186 
L 122.811334 192.4943 
L 123.495538 190.756729 
L 125.548148 184.001278 
L 126.232351 182.264463 
L 128.284962 175.486786 
L 128.969165 173.757945 
L 131.021776 166.9713 
L 132.048081 164.814119 
L 132.390183 163.969922 
L 133.074386 164.070527 
L 133.75859 162.993813 
L 134.442793 163.570671 
L 135.126997 162.695437 
L 135.8112 163.878017 
L 136.495403 163.97462 
L 137.179607 165.564459 
L 137.86381 165.849597 
L 138.548014 167.524142 
L 139.232217 167.832778 
L 139.916421 169.527662 
L 140.258523 169.750901 
L 140.600624 169.829753 
L 141.284828 171.521792 
L 141.626929 171.738528 
L 141.969031 171.812628 
L 142.653235 173.513596 
L 142.995336 173.727569 
L 143.337438 173.786804 
L 144.021642 175.489458 
L 144.363743 175.703306 
L 144.705845 175.747754 
L 145.390049 177.442498 
L 145.73215 177.648856 
L 146.074252 177.687132 
L 146.758455 179.388776 
L 147.100557 179.591731 
L 147.442659 179.614995 
L 148.126862 181.31739 
L 148.468964 181.520353 
L 148.811066 181.531005 
L 149.495269 183.22522 
L 149.837371 183.297649 
L 150.179473 182.975853 
L 150.521575 183.262002 
L 150.863676 183.754161 
L 151.205778 183.60196 
L 151.54788 183.130362 
L 151.889981 183.317939 
L 152.232083 183.738155 
L 152.574185 183.548234 
L 152.916287 183.041308 
L 153.258388 183.210565 
L 153.60049 183.618359 
L 153.942592 183.433545 
L 154.284694 182.908878 
L 154.626795 183.074033 
L 154.968897 183.489516 
L 155.310999 183.295022 
L 155.653101 182.774543 
L 155.995202 182.946188 
L 156.337304 183.364631 
L 156.679406 183.167037 
L 157.021507 182.635903 
L 157.363609 182.80332 
L 157.705711 183.231681 
L 158.047813 183.048539 
L 158.389914 182.506615 
L 158.732016 182.673953 
L 159.074118 183.113981 
L 159.41622 182.923245 
L 159.758321 182.386761 
L 160.100423 182.561115 
L 160.442525 183.005069 
L 160.784627 182.811768 
L 161.126728 182.265225 
L 161.46883 182.435641 
L 161.810932 182.896085 
L 162.153033 182.71163 
L 162.495135 182.152438 
L 162.837237 182.064211 
L 163.179339 182.356484 
L 163.52144 182.084038 
L 163.863542 181.990891 
L 164.205644 182.078789 
L 164.547746 182.508083 
L 164.889847 182.322902 
L 165.231949 182.314166 
L 165.574051 182.447024 
L 165.916153 182.90132 
L 166.258254 182.733239 
L 166.600356 182.73788 
L 166.942458 182.875953 
L 167.284559 183.349096 
L 167.626661 183.18331 
L 167.968763 183.204594 
L 168.310865 183.340152 
L 168.652966 183.825289 
L 168.995068 183.66655 
L 169.33717 183.692805 
L 169.679272 183.840089 
L 170.021373 184.328807 
L 170.363475 184.169528 
L 170.705577 184.202908 
L 171.047679 184.35262 
L 171.38978 184.857866 
L 171.731882 184.703554 
L 172.416086 184.890783 
L 172.758187 185.406454 
L 173.100289 185.258801 
L 173.784492 185.460846 
L 174.126594 185.98427 
L 174.468696 185.838779 
L 175.152899 186.053134 
L 175.495001 186.588633 
L 175.837103 186.446155 
L 176.521306 186.662117 
L 176.863408 187.210118 
L 177.547612 187.5732 
L 177.889713 187.823166 
L 178.231815 187.91833 
L 178.573917 187.864797 
L 179.600222 188.167077 
L 179.942324 188.082605 
L 180.968629 188.35203 
L 181.310731 188.263941 
L 182.337036 188.522399 
L 182.679138 188.437098 
L 183.705443 188.696188 
L 184.047544 188.613187 
L 185.07385 188.886944 
L 185.415951 188.80321 
L 186.442257 189.083069 
L 186.784358 189.006198 
L 187.810664 189.27945 
L 188.152765 189.205526 
L 189.17907 189.485162 
L 189.521172 189.412245 
L 190.547477 189.702343 
L 190.889579 189.633063 
L 191.573783 189.935611 
L 192.600088 190.003664 
L 192.94219 190.16713 
L 193.626393 190.091422 
L 194.310596 190.406551 
L 194.9948 190.331635 
L 195.679003 190.649535 
L 196.363207 190.58533 
L 197.04741 190.907912 
L 197.731614 190.844221 
L 198.415817 191.175679 
L 199.100021 191.112438 
L 199.784224 191.448722 
L 200.468428 191.38926 
L 201.152631 191.725095 
L 201.836835 191.674321 
L 202.521038 192.020649 
L 203.205242 191.972115 
L 203.889445 192.32011 
L 204.573648 192.278218 
L 205.257852 192.630766 
L 205.942055 192.594682 
L 206.626259 192.950991 
L 207.310462 192.921633 
L 208.678869 193.536694 
L 209.020971 193.485349 
L 209.363073 193.730131 
L 210.047276 193.679277 
L 210.389378 193.440777 
L 210.73148 193.598862 
L 211.415683 193.404894 
L 211.757785 193.098745 
L 212.099887 193.221165 
L 212.78409 192.9697 
L 213.126192 192.631851 
L 213.468294 192.73617 
L 214.152497 192.450047 
L 214.494599 192.088538 
L 214.836701 192.178629 
L 215.520904 191.86393 
L 215.863006 191.48088 
L 216.205107 191.557694 
L 216.889311 191.216109 
L 217.231413 190.812537 
L 217.573514 190.877141 
L 218.257718 190.50987 
L 218.59982 190.085479 
L 218.941921 190.136965 
L 219.626125 189.743752 
L 219.968227 189.298341 
L 220.310328 189.336435 
L 220.994532 188.916411 
L 221.336633 188.450765 
L 221.678735 188.475904 
L 222.362939 188.031281 
L 222.70504 187.378476 
L 223.047142 187.277925 
L 223.389244 187.29908 
L 223.731346 186.97809 
L 224.073447 186.454202 
L 224.415549 186.502426 
L 224.757651 186.700289 
L 225.099753 186.454508 
L 225.441854 185.988878 
L 225.783956 186.093008 
L 226.126058 186.348648 
L 226.468159 186.1273 
L 226.810261 185.673632 
L 227.152363 185.795392 
L 227.494465 186.072906 
L 227.836566 185.858721 
L 228.178668 185.404346 
L 228.52077 185.533029 
L 228.862872 185.821182 
L 229.204973 185.616955 
L 229.547075 185.157325 
L 229.889177 185.291341 
L 230.231279 185.590229 
L 230.57338 185.377125 
L 230.915482 184.916179 
L 231.257584 185.056351 
L 231.599685 185.36622 
L 231.941787 185.154459 
L 232.283889 184.68466 
L 232.625991 184.822911 
L 232.968092 185.141016 
L 233.310194 184.940241 
L 233.652296 184.466414 
L 233.994398 184.609991 
L 234.336499 184.938831 
L 234.678601 184.729752 
L 235.020703 184.253936 
L 235.362805 184.40473 
L 235.704906 184.743998 
L 236.047008 184.53627 
L 236.38911 184.051432 
L 236.731211 184.199826 
L 237.073313 184.54703 
L 237.415415 184.349706 
L 237.757517 183.86045 
L 238.099618 184.013115 
L 238.44172 184.370835 
L 238.783822 184.16539 
L 239.125924 183.673806 
L 239.468025 183.832314 
L 239.810127 184.201029 
L 240.152229 183.998068 
L 240.494331 183.497159 
L 240.836432 183.652792 
L 241.178534 184.03657 
L 241.520636 183.837784 
L 241.862737 183.329467 
L 242.204839 183.487203 
L 242.546941 183.872945 
L 242.889043 183.672658 
L 243.231144 183.166927 
L 243.573246 183.323351 
L 243.915348 183.721585 
L 244.25745 183.522988 
L 244.599551 183.009228 
L 244.941653 183.173365 
L 245.283755 183.583418 
L 245.625857 183.385636 
L 245.967958 182.863366 
L 246.31006 183.029373 
L 246.652162 183.444882 
L 246.994263 183.259862 
L 247.336365 182.733478 
L 247.678467 182.89223 
L 248.020569 183.315935 
L 248.36267 183.121316 
L 248.704772 182.591573 
L 249.046874 182.759845 
L 249.388976 183.195858 
L 249.731077 183.002521 
L 250.073179 182.46466 
L 250.415281 182.634038 
L 250.757383 183.075356 
L 251.099484 182.894265 
L 251.441586 182.35245 
L 251.783688 182.514702 
L 252.125789 182.964202 
L 252.467891 182.774082 
L 252.809993 182.228923 
L 253.152095 182.403951 
L 253.494196 182.859943 
L 254.1784 182.016159 
L 254.520502 182.020648 
L 254.862603 182.378995 
L 255.204705 182.146027 
L 255.546807 182.089082 
L 255.888909 182.201391 
L 256.23101 182.645415 
L 256.573112 182.469063 
L 256.915214 182.467642 
L 257.257316 182.602842 
L 257.599417 183.063408 
L 257.941519 182.894436 
L 258.283621 182.907193 
L 258.625722 183.048962 
L 258.967824 183.521472 
L 259.309926 183.360815 
L 259.652028 183.377808 
L 259.994129 183.520736 
L 260.336231 184.009468 
L 260.678333 183.852593 
L 261.362536 184.017683 
L 261.704638 184.516933 
L 262.04674 184.362999 
L 262.388842 184.399184 
L 262.730943 184.550282 
L 263.073045 185.053942 
L 263.415147 184.904251 
L 263.757248 184.942522 
L 264.09935 185.093995 
L 264.441452 185.612955 
L 264.783554 185.463761 
L 265.467757 185.665267 
L 265.809859 186.195886 
L 266.151961 186.054049 
L 266.836164 186.271095 
L 267.178266 186.805048 
L 267.520368 186.663644 
L 267.862469 186.728241 
L 268.546673 187.539189 
L 268.888774 187.569691 
L 269.91508 188.018286 
L 270.257181 187.947709 
L 271.283487 188.230454 
L 271.625588 188.146898 
L 272.651894 188.407933 
L 272.993995 188.316751 
L 274.0203 188.579863 
L 274.362402 188.494203 
L 275.388707 188.758477 
L 275.730809 188.678866 
L 276.757114 188.946537 
L 277.099216 188.867775 
L 278.125521 189.148449 
L 278.467623 189.070895 
L 279.493928 189.348122 
L 279.83603 189.274618 
L 280.862335 189.557001 
L 281.204437 189.486234 
L 281.88864 189.789294 
L 282.914946 189.849987 
L 283.257047 190.017872 
L 284.283352 190.083332 
L 284.625454 190.247874 
L 285.651759 190.32332 
L 285.993861 190.487864 
L 286.678065 190.414921 
L 287.362268 190.739584 
L 288.046472 190.672009 
L 288.730675 190.997495 
L 289.414878 190.937301 
L 290.099082 191.265117 
L 290.783285 191.204968 
L 291.467489 191.541261 
L 292.151692 191.482936 
L 292.835896 191.822373 
L 293.520099 191.776432 
L 294.204303 192.11921 
L 294.888506 192.073062 
L 295.57271 192.422349 
L 296.256913 192.382569 
L 296.941117 192.736139 
L 297.62532 192.702242 
L 298.309524 193.060252 
L 298.993727 193.032574 
L 299.335829 193.217523 
L 300.020032 194.018721 
L 300.362134 194.366415 
L 300.704236 194.542435 
L 301.388439 195.344653 
L 301.730541 195.665235 
L 302.072643 195.801884 
L 302.756846 196.56007 
L 303.098948 196.860677 
L 303.44105 196.97445 
L 304.125253 197.701549 
L 304.467355 197.987578 
L 304.809457 198.081673 
L 305.49366 198.780018 
L 305.835762 199.052057 
L 306.177863 199.12668 
L 306.862067 199.796791 
L 307.204169 200.055011 
L 307.54627 200.110277 
L 308.230474 200.75266 
L 308.572576 200.997574 
L 308.914677 201.034114 
L 309.598881 201.649115 
L 309.940983 201.880709 
L 310.283084 201.897807 
L 310.625186 202.27411 
L 311.309389 202.702702 
L 311.651491 202.69996 
L 311.993593 203.062524 
L 312.677796 203.463587 
L 313.019898 203.441325 
L 313.362 203.790546 
L 313.704102 203.972665 
L 314.046203 203.880367 
L 314.388305 203.488335 
L 314.730407 203.463552 
L 315.072509 203.643306 
L 315.41461 203.519394 
L 315.756712 203.126423 
L 316.098814 203.119817 
L 316.440915 203.327248 
L 316.783017 203.211276 
L 317.125119 202.822974 
L 317.467221 202.827639 
L 317.809322 203.046815 
L 318.151424 202.932981 
L 318.493526 202.542712 
L 318.835628 202.553249 
L 319.177729 202.780773 
L 319.519831 202.666994 
L 319.861933 202.274155 
L 320.204035 202.288813 
L 320.546136 202.5282 
L 320.888238 202.415049 
L 321.23034 202.015964 
L 321.572441 202.035347 
L 321.914543 202.277289 
L 322.256645 202.16894 
L 322.598747 201.765073 
L 322.940848 201.789069 
L 323.28295 202.038108 
L 323.625052 201.92371 
L 323.967154 201.518849 
L 324.309255 201.546281 
L 324.651357 201.808544 
L 324.993459 201.696506 
L 325.335561 201.286318 
L 325.677662 201.318131 
L 326.019764 201.583384 
L 326.361866 201.476105 
L 326.703967 201.061964 
L 327.046069 201.098037 
L 327.388171 201.370403 
L 327.730273 201.257129 
L 328.072374 200.841663 
L 328.414476 200.880864 
L 328.756578 201.166437 
L 329.09868 201.055518 
L 329.440781 200.634446 
L 329.782883 200.677126 
L 330.124985 200.965733 
L 330.467087 200.859484 
L 330.809188 200.434024 
L 331.15129 200.481379 
L 331.493392 200.776911 
L 331.835493 200.664759 
L 332.177595 200.237659 
L 332.519697 200.290444 
L 332.861799 200.594288 
L 333.2039 200.481937 
L 333.546002 200.047401 
L 333.888104 200.100441 
L 334.230206 200.410924 
L 334.572307 200.306057 
L 334.914409 199.864134 
L 335.256511 199.921128 
L 335.598613 200.2422 
L 335.940714 200.131855 
L 336.282816 199.693509 
L 336.624918 199.751191 
L 336.96702 200.080981 
L 337.309121 199.970765 
L 337.651223 199.525529 
L 337.993325 199.588806 
L 338.335426 199.927153 
L 338.677528 199.819381 
L 339.01963 199.362139 
L 339.361732 199.425994 
L 339.703833 199.768753 
L 340.045935 199.659817 
L 340.388037 199.208115 
L 340.730139 199.273051 
L 341.07224 199.624815 
L 341.414342 199.515595 
L 341.756444 199.057136 
L 342.098546 199.127433 
L 342.440647 199.48756 
L 342.782749 199.380663 
L 343.124851 198.910356 
L 343.466952 198.980913 
L 343.809054 199.345425 
L 344.151156 199.242901 
L 344.493258 198.772343 
L 345.177461 198.941835 
L 345.861665 198.430044 
L 346.203766 198.35749 
L 346.545868 198.610773 
L 347.230072 198.291635 
L 347.572173 198.258459 
L 347.914275 198.547428 
L 348.598478 198.264763 
L 348.94058 198.234429 
L 349.282682 198.537429 
L 349.966885 198.267844 
L 350.308987 198.248198 
L 350.651089 198.56056 
L 351.335292 198.304348 
L 351.677394 198.289823 
L 352.019496 198.614613 
L 352.703699 198.367104 
L 353.045801 198.35615 
L 353.387903 198.695435 
L 354.072106 198.464355 
L 354.414208 198.459285 
L 354.75631 198.805721 
L 355.440513 198.586625 
L 355.782615 198.586309 
L 356.124717 198.945308 
L 356.80892 198.740257 
L 357.151022 198.744771 
L 357.493124 199.117929 
L 358.177327 198.923869 
L 358.519429 198.928353 
L 358.86153 199.314146 
L 359.203632 199.182984 
L 360.229937 199.746882 
L 360.914141 199.856597 
L 361.598344 200.014599 
L 362.282548 200.074308 
L 362.966751 200.215231 
L 363.650955 200.271952 
L 364.335158 200.406397 
L 365.019362 200.469742 
L 365.703565 200.602677 
L 366.387769 200.672765 
L 367.071972 200.812625 
L 368.782481 200.914521 
L 374.59821 201.360779 
L 374.59821 201.360779 
" clip-path="url(#pc818161f01)" style="fill: none; stroke: #6b8e23; stroke-linecap: square"/>
   </g>
   <g id="patch_3">
    <path d="M 33.710938 273.312 
L 33.710938 7.2 
" style="fill: none; stroke: #000000; stroke-width: 0.8; stroke-linejoin: miter; stroke-linecap: square"/>
   </g>
   <g id="patch_4">
    <path d="M 390.830938 273.312 
L 390.830938 7.2 
" style="fill: none; stroke: #000000; stroke-width: 0.8; stroke-linejoin: miter; stroke-linecap: square"/>
   </g>
   <g id="patch_5">
    <path d="M 33.710938 273.312 
L 390.830938 273.312 
" style="fill: none; stroke: #000000; stroke-width: 0.8; stroke-linejoin: miter; stroke-linecap: square"/>
   </g>
   <g id="patch_6">
    <path d="M 33.710938 7.2 
L 390.830938 7.2 
" style="fill: none; stroke: #000000; stroke-width: 0.8; stroke-linejoin: miter; stroke-linecap: square"/>
   </g>
   <g id="legend_1">
    <g id="patch_7">
     <path d="M 235.952812 73.9125 
L 383.830938 73.9125 
Q 385.830938 73.9125 385.830938 71.9125 
L 385.830938 14.2 
Q 385.830938 12.2 383.830938 12.2 
L 235.952812 12.2 
Q 233.952812 12.2 233.952812 14.2 
L 233.952812 71.9125 
Q 233.952812 73.9125 235.952812 73.9125 
z
" style="fill: #ffffff; opacity: 0.8; stroke: #cccccc; stroke-linejoin: miter"/>
    </g>
    <g id="line2d_15">
     <path d="M 237.952812 20.298437 
L 247.952812 20.298437 
L 257.952812 20.298437 
" style="fill: none; stroke: #ff4500; stroke-linecap: square"/>
    </g>
    <g id="text_11">
     <text style="font: 10px 'DejaVu Sans', 'Bitstream Vera Sans', 'Computer Modern Sans Serif', 'Lucida Grande', 'Verdana', 'Geneva', 'Lucid', 'Arial', 'Helvetica', 'Avant Garde', sans-serif; text-anchor: start" x="265.952812" y="23.798437" transform="rotate(-0 265.952812 23.798437)">Analog prediction DB1</text>
    </g>
    <g id="line2d_16">
     <path d="M 237.952812 34.976562 
L 247.952812 34.976562 
L 257.952812 34.976562 
" style="fill: none; stroke: #c71585; stroke-linecap: square"/>
    </g>
    <g id="text_12">
     <text style="font: 10px 'DejaVu Sans', 'Bitstream Vera Sans', 'Computer Modern Sans Serif', 'Lucida Grande', 'Verdana', 'Geneva', 'Lucid', 'Arial', 'Helvetica', 'Avant Garde', sans-serif; text-anchor: start" x="265.952812" y="38.476562" transform="rotate(-0 265.952812 38.476562)">Analog prediction LUAL</text>
    </g>
    <g id="line2d_17">
     <path d="M 237.952812 49.654687 
L 247.952812 49.654687 
L 257.952812 49.654687 
" style="fill: none; stroke: #4682b4; stroke-linecap: square"/>
    </g>
    <g id="text_13">
     <text style="font: 10px 'DejaVu Sans', 'Bitstream Vera Sans', 'Computer Modern Sans Serif', 'Lucida Grande', 'Verdana', 'Geneva', 'Lucid', 'Arial', 'Helvetica', 'Avant Garde', sans-serif; text-anchor: start" x="265.952812" y="53.154687" transform="rotate(-0 265.952812 53.154687)">Analog prediction PVR</text>
    </g>
    <g id="line2d_18">
     <path d="M 237.952812 64.332812 
L 247.952812 64.332812 
L 257.952812 64.332812 
" style="fill: none; stroke: #6b8e23; stroke-linecap: square"/>
    </g>
    <g id="text_14">
     <text style="font: 10px 'DejaVu Sans', 'Bitstream Vera Sans', 'Computer Modern Sans Serif', 'Lucida Grande', 'Verdana', 'Geneva', 'Lucid', 'Arial', 'Helvetica', 'Avant Garde', sans-serif; text-anchor: start" x="265.952812" y="67.832812" transform="rotate(-0 265.952812 67.832812)">Analog prediction VB1</text>
    </g>
   </g>
  </g>
 </g>
 <defs>
  <clipPath id="pc818161f01">
   <rect x="33.710938" y="7.2" width="357.12" height="266.112"/>
  </clipPath>
 </defs>
</svg>
