<?xml version="1.0" encoding="utf-8" standalone="no"?>
<!DOCTYPE svg PUBLIC "-//W3C//DTD SVG 1.1//EN"
  "http://www.w3.org/Graphics/SVG/1.1/DTD/svg11.dtd">
<svg xmlns:xlink="http://www.w3.org/1999/xlink" width="571.341875pt" height="310.86825pt" viewBox="0 0 571.341875 310.86825" xmlns="http://www.w3.org/2000/svg" version="1.1">
 <metadata>
  <rdf:RDF xmlns:dc="http://purl.org/dc/elements/1.1/" xmlns:cc="http://creativecommons.org/ns#" xmlns:rdf="http://www.w3.org/1999/02/22-rdf-syntax-ns#">
   <cc:Work>
    <dc:type rdf:resource="http://purl.org/dc/dcmitype/StillImage"/>
    <dc:date>2023-10-30T23:24:35.217937</dc:date>
    <dc:format>image/svg+xml</dc:format>
    <dc:creator>
     <cc:Agent>
      <dc:title>Matplotlib v3.8.0, https://matplotlib.org/</dc:title>
     </cc:Agent>
    </dc:creator>
   </cc:Work>
  </rdf:RDF>
 </metadata>
 <defs>
  <style type="text/css">*{stroke-linejoin: round; stroke-linecap: butt}</style>
 </defs>
 <g id="figure_1">
  <g id="patch_1">
   <path d="M 0 310.86825 
L 571.341875 310.86825 
L 571.341875 0 
L 0 0 
z
" style="fill: #ffffff"/>
  </g>
  <g id="axes_1">
   <g id="patch_2">
    <path d="M 50.14375 95.904 
L 407.26375 95.904 
L 407.26375 7.2 
L 50.14375 7.2 
z
" style="fill: #ffffff"/>
   </g>
   <g id="matplotlib.axis_1">
    <g id="xtick_1">
     <g id="line2d_1">
      <defs>
       <path id="m284fd862d1" d="M 0 0 
L 0 3.5 
" style="stroke: #000000; stroke-width: 0.8"/>
      </defs>
      <g>
       <use xlink:href="#m284fd862d1" x="66.376477" y="95.904" style="stroke: #000000; stroke-width: 0.8"/>
      </g>
     </g>
    </g>
    <g id="xtick_2">
     <g id="line2d_2">
      <g>
       <use xlink:href="#m284fd862d1" x="131.372382" y="95.904" style="stroke: #000000; stroke-width: 0.8"/>
      </g>
     </g>
    </g>
    <g id="xtick_3">
     <g id="line2d_3">
      <g>
       <use xlink:href="#m284fd862d1" x="196.368287" y="95.904" style="stroke: #000000; stroke-width: 0.8"/>
      </g>
     </g>
    </g>
    <g id="xtick_4">
     <g id="line2d_4">
      <g>
       <use xlink:href="#m284fd862d1" x="261.364192" y="95.904" style="stroke: #000000; stroke-width: 0.8"/>
      </g>
     </g>
    </g>
    <g id="xtick_5">
     <g id="line2d_5">
      <g>
       <use xlink:href="#m284fd862d1" x="326.360097" y="95.904" style="stroke: #000000; stroke-width: 0.8"/>
      </g>
     </g>
    </g>
    <g id="xtick_6">
     <g id="line2d_6">
      <g>
       <use xlink:href="#m284fd862d1" x="391.356002" y="95.904" style="stroke: #000000; stroke-width: 0.8"/>
      </g>
     </g>
    </g>
   </g>
   <g id="matplotlib.axis_2">
    <g id="ytick_1">
     <g id="line2d_7">
      <defs>
       <path id="meabf098b30" d="M 0 0 
L -3.5 0 
" style="stroke: #000000; stroke-width: 0.8"/>
      </defs>
      <g>
       <use xlink:href="#meabf098b30" x="50.14375" y="91.872" style="stroke: #000000; stroke-width: 0.8"/>
      </g>
     </g>
     <g id="text_1">
      <text style="font: 10px 'DejaVu Sans', 'Bitstream Vera Sans', 'Computer Modern Sans Serif', 'Lucida Grande', 'Verdana', 'Geneva', 'Lucid', 'Arial', 'Helvetica', 'Avant Garde', sans-serif; text-anchor: end" x="43.14375" y="95.671219" transform="rotate(-0 43.14375 95.671219)">0</text>
     </g>
    </g>
    <g id="ytick_2">
     <g id="line2d_8">
      <g>
       <use xlink:href="#meabf098b30" x="50.14375" y="56.638486" style="stroke: #000000; stroke-width: 0.8"/>
      </g>
     </g>
     <g id="text_2">
      <text style="font: 10px 'DejaVu Sans', 'Bitstream Vera Sans', 'Computer Modern Sans Serif', 'Lucida Grande', 'Verdana', 'Geneva', 'Lucid', 'Arial', 'Helvetica', 'Avant Garde', sans-serif; text-anchor: end" x="43.14375" y="60.437705" transform="rotate(-0 43.14375 60.437705)">1</text>
     </g>
    </g>
    <g id="ytick_3">
     <g id="line2d_9">
      <g>
       <use xlink:href="#meabf098b30" x="50.14375" y="21.404972" style="stroke: #000000; stroke-width: 0.8"/>
      </g>
     </g>
     <g id="text_3">
      <text style="font: 10px 'DejaVu Sans', 'Bitstream Vera Sans', 'Computer Modern Sans Serif', 'Lucida Grande', 'Verdana', 'Geneva', 'Lucid', 'Arial', 'Helvetica', 'Avant Garde', sans-serif; text-anchor: end" x="43.14375" y="25.204191" transform="rotate(-0 43.14375 25.204191)">2</text>
     </g>
    </g>
    <g id="text_4">
     <text style="font: 10px 'DejaVu Sans', 'Bitstream Vera Sans', 'Computer Modern Sans Serif', 'Lucida Grande', 'Verdana', 'Geneva', 'Lucid', 'Arial', 'Helvetica', 'Avant Garde', sans-serif; text-anchor: middle" x="30.701563" y="51.552" transform="rotate(-90 30.701563 51.552)">Current (nA)</text>
    </g>
   </g>
   <g id="line2d_10">
    <path d="M 66.376477 91.872 
L 131.372382 91.867067 
L 196.043308 42.786783 
L 196.368287 91.872 
L 391.031023 91.872 
L 391.031023 91.872 
" clip-path="url(#pe3e9ecc2db)" style="fill: none; stroke: #ff4500; stroke-width: 1.5; stroke-linecap: square"/>
   </g>
   <g id="line2d_11">
    <path d="M 66.376477 91.872 
L 131.372382 91.867067 
L 196.043308 42.786783 
L 196.368287 91.872 
L 391.031023 91.872 
L 391.031023 91.872 
" clip-path="url(#pe3e9ecc2db)" style="fill: none; stroke-dasharray: 5.55,2.4; stroke-dashoffset: 0; stroke: #c71585; stroke-width: 1.5"/>
   </g>
   <g id="line2d_12">
    <path d="M 66.376477 91.872 
L 131.372382 91.863896 
L 196.043308 11.232 
L 196.368287 91.872 
L 391.031023 91.872 
L 391.031023 91.872 
" clip-path="url(#pe3e9ecc2db)" style="fill: none; stroke-dasharray: 9.6,2.4,1.5,2.4; stroke-dashoffset: 0; stroke: #4682b4; stroke-width: 1.5"/>
   </g>
   <g id="line2d_13">
    <path d="M 66.376477 91.872 
L 131.372382 91.863896 
L 196.043308 11.232 
L 196.368287 91.872 
L 391.031023 91.872 
L 391.031023 91.872 
" clip-path="url(#pe3e9ecc2db)" style="fill: none; stroke-dasharray: 2.5,4.125; stroke-dashoffset: 0; stroke: #6b8e23; stroke-width: 2.5"/>
   </g>
   <g id="patch_3">
    <path d="M 50.14375 95.904 
L 50.14375 7.2 
" style="fill: none; stroke: #000000; stroke-width: 0.8; stroke-linejoin: miter; stroke-linecap: square"/>
   </g>
   <g id="patch_4">
    <path d="M 407.26375 95.904 
L 407.26375 7.2 
" style="fill: none; stroke: #000000; stroke-width: 0.8; stroke-linejoin: miter; stroke-linecap: square"/>
   </g>
   <g id="patch_5">
    <path d="M 50.14375 95.904 
L 407.26375 95.904 
" style="fill: none; stroke: #000000; stroke-width: 0.8; stroke-linejoin: miter; stroke-linecap: square"/>
   </g>
   <g id="patch_6">
    <path d="M 50.14375 7.2 
L 407.26375 7.2 
" style="fill: none; stroke: #000000; stroke-width: 0.8; stroke-linejoin: miter; stroke-linecap: square"/>
   </g>
   <g id="legend_1">
    <g id="patch_7">
     <path d="M 336.099688 73.9125 
L 400.26375 73.9125 
Q 402.26375 73.9125 402.26375 71.9125 
L 402.26375 14.2 
Q 402.26375 12.2 400.26375 12.2 
L 336.099688 12.2 
Q 334.099688 12.2 334.099688 14.2 
L 334.099688 71.9125 
Q 334.099688 73.9125 336.099688 73.9125 
z
" style="fill: #ffffff; opacity: 0.8; stroke: #cccccc; stroke-linejoin: miter"/>
    </g>
    <g id="line2d_14">
     <path d="M 338.099688 20.298437 
L 348.099688 20.298437 
L 358.099688 20.298437 
" style="fill: none; stroke: #ff4500; stroke-width: 1.5; stroke-linecap: square"/>
    </g>
    <g id="text_5">
     <text style="font: 10px 'DejaVu Sans', 'Bitstream Vera Sans', 'Computer Modern Sans Serif', 'Lucida Grande', 'Verdana', 'Geneva', 'Lucid', 'Arial', 'Helvetica', 'Avant Garde', sans-serif; text-anchor: start" x="366.099688" y="23.798437" transform="rotate(-0 366.099688 23.798437)">PLML2</text>
    </g>
    <g id="line2d_15">
     <path d="M 338.099688 34.976562 
L 348.099688 34.976562 
L 358.099688 34.976562 
" style="fill: none; stroke-dasharray: 5.55,2.4; stroke-dashoffset: 0; stroke: #c71585; stroke-width: 1.5"/>
    </g>
    <g id="text_6">
     <text style="font: 10px 'DejaVu Sans', 'Bitstream Vera Sans', 'Computer Modern Sans Serif', 'Lucida Grande', 'Verdana', 'Geneva', 'Lucid', 'Arial', 'Helvetica', 'Avant Garde', sans-serif; text-anchor: start" x="366.099688" y="38.476562" transform="rotate(-0 366.099688 38.476562)">PLMR</text>
    </g>
    <g id="line2d_16">
     <path d="M 338.099688 49.654687 
L 348.099688 49.654687 
L 358.099688 49.654687 
" style="fill: none; stroke-dasharray: 9.6,2.4,1.5,2.4; stroke-dashoffset: 0; stroke: #4682b4; stroke-width: 1.5"/>
    </g>
    <g id="text_7">
     <text style="font: 10px 'DejaVu Sans', 'Bitstream Vera Sans', 'Computer Modern Sans Serif', 'Lucida Grande', 'Verdana', 'Geneva', 'Lucid', 'Arial', 'Helvetica', 'Avant Garde', sans-serif; text-anchor: start" x="366.099688" y="53.154687" transform="rotate(-0 366.099688 53.154687)">AVBL</text>
    </g>
    <g id="line2d_17">
     <path d="M 338.099688 64.332812 
L 348.099688 64.332812 
L 358.099688 64.332812 
" style="fill: none; stroke-dasharray: 2.5,4.125; stroke-dashoffset: 0; stroke: #6b8e23; stroke-width: 2.5"/>
    </g>
    <g id="text_8">
     <text style="font: 10px 'DejaVu Sans', 'Bitstream Vera Sans', 'Computer Modern Sans Serif', 'Lucida Grande', 'Verdana', 'Geneva', 'Lucid', 'Arial', 'Helvetica', 'Avant Garde', sans-serif; text-anchor: start" x="366.099688" y="67.832812" transform="rotate(-0 366.099688 67.832812)">AVBR</text>
    </g>
   </g>
  </g>
  <g id="axes_2">
   <g id="patch_8">
    <path d="M 50.14375 273.312 
L 407.26375 273.312 
L 407.26375 95.904 
L 50.14375 95.904 
z
" style="fill: #ffffff"/>
   </g>
   <g id="matplotlib.axis_3">
    <g id="xtick_7">
     <g id="line2d_18">
      <g>
       <use xlink:href="#m284fd862d1" x="66.376477" y="273.312" style="stroke: #000000; stroke-width: 0.8"/>
      </g>
     </g>
     <g id="text_9">
      <text style="font: 10px 'DejaVu Sans', 'Bitstream Vera Sans', 'Computer Modern Sans Serif', 'Lucida Grande', 'Verdana', 'Geneva', 'Lucid', 'Arial', 'Helvetica', 'Avant Garde', sans-serif; text-anchor: middle" x="66.376477" y="287.910437" transform="rotate(-0 66.376477 287.910437)">0</text>
     </g>
    </g>
    <g id="xtick_8">
     <g id="line2d_19">
      <g>
       <use xlink:href="#m284fd862d1" x="131.372382" y="273.312" style="stroke: #000000; stroke-width: 0.8"/>
      </g>
     </g>
     <g id="text_10">
      <text style="font: 10px 'DejaVu Sans', 'Bitstream Vera Sans', 'Computer Modern Sans Serif', 'Lucida Grande', 'Verdana', 'Geneva', 'Lucid', 'Arial', 'Helvetica', 'Avant Garde', sans-serif; text-anchor: middle" x="131.372382" y="287.910437" transform="rotate(-0 131.372382 287.910437)">100</text>
     </g>
    </g>
    <g id="xtick_9">
     <g id="line2d_20">
      <g>
       <use xlink:href="#m284fd862d1" x="196.368287" y="273.312" style="stroke: #000000; stroke-width: 0.8"/>
      </g>
     </g>
     <g id="text_11">
      <text style="font: 10px 'DejaVu Sans', 'Bitstream Vera Sans', 'Computer Modern Sans Serif', 'Lucida Grande', 'Verdana', 'Geneva', 'Lucid', 'Arial', 'Helvetica', 'Avant Garde', sans-serif; text-anchor: middle" x="196.368287" y="287.910437" transform="rotate(-0 196.368287 287.910437)">200</text>
     </g>
    </g>
    <g id="xtick_10">
     <g id="line2d_21">
      <g>
       <use xlink:href="#m284fd862d1" x="261.364192" y="273.312" style="stroke: #000000; stroke-width: 0.8"/>
      </g>
     </g>
     <g id="text_12">
      <text style="font: 10px 'DejaVu Sans', 'Bitstream Vera Sans', 'Computer Modern Sans Serif', 'Lucida Grande', 'Verdana', 'Geneva', 'Lucid', 'Arial', 'Helvetica', 'Avant Garde', sans-serif; text-anchor: middle" x="261.364192" y="287.910437" transform="rotate(-0 261.364192 287.910437)">300</text>
     </g>
    </g>
    <g id="xtick_11">
     <g id="line2d_22">
      <g>
       <use xlink:href="#m284fd862d1" x="326.360097" y="273.312" style="stroke: #000000; stroke-width: 0.8"/>
      </g>
     </g>
     <g id="text_13">
      <text style="font: 10px 'DejaVu Sans', 'Bitstream Vera Sans', 'Computer Modern Sans Serif', 'Lucida Grande', 'Verdana', 'Geneva', 'Lucid', 'Arial', 'Helvetica', 'Avant Garde', sans-serif; text-anchor: middle" x="326.360097" y="287.910437" transform="rotate(-0 326.360097 287.910437)">400</text>
     </g>
    </g>
    <g id="xtick_12">
     <g id="line2d_23">
      <g>
       <use xlink:href="#m284fd862d1" x="391.356002" y="273.312" style="stroke: #000000; stroke-width: 0.8"/>
      </g>
     </g>
     <g id="text_14">
      <text style="font: 10px 'DejaVu Sans', 'Bitstream Vera Sans', 'Computer Modern Sans Serif', 'Lucida Grande', 'Verdana', 'Geneva', 'Lucid', 'Arial', 'Helvetica', 'Avant Garde', sans-serif; text-anchor: middle" x="391.356002" y="287.910437" transform="rotate(-0 391.356002 287.910437)">500</text>
     </g>
    </g>
    <g id="text_15">
     <text style="font: 10px 'DejaVu Sans', 'Bitstream Vera Sans', 'Computer Modern Sans Serif', 'Lucida Grande', 'Verdana', 'Geneva', 'Lucid', 'Arial', 'Helvetica', 'Avant Garde', sans-serif; text-anchor: middle" x="228.70375" y="301.588562" transform="rotate(-0 228.70375 301.588562)">Time (ms)</text>
    </g>
   </g>
   <g id="matplotlib.axis_4">
    <g id="ytick_4">
     <g id="line2d_24">
      <g>
       <use xlink:href="#meabf098b30" x="50.14375" y="256.52635" style="stroke: #000000; stroke-width: 0.8"/>
      </g>
     </g>
     <g id="text_16">
      <text style="font: 10px 'DejaVu Sans', 'Bitstream Vera Sans', 'Computer Modern Sans Serif', 'Lucida Grande', 'Verdana', 'Geneva', 'Lucid', 'Arial', 'Helvetica', 'Avant Garde', sans-serif; text-anchor: end" x="43.14375" y="260.325569" transform="rotate(-0 43.14375 260.325569)">0.00</text>
     </g>
    </g>
    <g id="ytick_5">
     <g id="line2d_25">
      <g>
       <use xlink:href="#meabf098b30" x="50.14375" y="232.893332" style="stroke: #000000; stroke-width: 0.8"/>
      </g>
     </g>
     <g id="text_17">
      <text style="font: 10px 'DejaVu Sans', 'Bitstream Vera Sans', 'Computer Modern Sans Serif', 'Lucida Grande', 'Verdana', 'Geneva', 'Lucid', 'Arial', 'Helvetica', 'Avant Garde', sans-serif; text-anchor: end" x="43.14375" y="236.692551" transform="rotate(-0 43.14375 236.692551)">0.25</text>
     </g>
    </g>
    <g id="ytick_6">
     <g id="line2d_26">
      <g>
       <use xlink:href="#meabf098b30" x="50.14375" y="209.260315" style="stroke: #000000; stroke-width: 0.8"/>
      </g>
     </g>
     <g id="text_18">
      <text style="font: 10px 'DejaVu Sans', 'Bitstream Vera Sans', 'Computer Modern Sans Serif', 'Lucida Grande', 'Verdana', 'Geneva', 'Lucid', 'Arial', 'Helvetica', 'Avant Garde', sans-serif; text-anchor: end" x="43.14375" y="213.059534" transform="rotate(-0 43.14375 213.059534)">0.50</text>
     </g>
    </g>
    <g id="ytick_7">
     <g id="line2d_27">
      <g>
       <use xlink:href="#meabf098b30" x="50.14375" y="185.627298" style="stroke: #000000; stroke-width: 0.8"/>
      </g>
     </g>
     <g id="text_19">
      <text style="font: 10px 'DejaVu Sans', 'Bitstream Vera Sans', 'Computer Modern Sans Serif', 'Lucida Grande', 'Verdana', 'Geneva', 'Lucid', 'Arial', 'Helvetica', 'Avant Garde', sans-serif; text-anchor: end" x="43.14375" y="189.426516" transform="rotate(-0 43.14375 189.426516)">0.75</text>
     </g>
    </g>
    <g id="ytick_8">
     <g id="line2d_28">
      <g>
       <use xlink:href="#meabf098b30" x="50.14375" y="161.99428" style="stroke: #000000; stroke-width: 0.8"/>
      </g>
     </g>
     <g id="text_20">
      <text style="font: 10px 'DejaVu Sans', 'Bitstream Vera Sans', 'Computer Modern Sans Serif', 'Lucida Grande', 'Verdana', 'Geneva', 'Lucid', 'Arial', 'Helvetica', 'Avant Garde', sans-serif; text-anchor: end" x="43.14375" y="165.793499" transform="rotate(-0 43.14375 165.793499)">1.00</text>
     </g>
    </g>
    <g id="ytick_9">
     <g id="line2d_29">
      <g>
       <use xlink:href="#meabf098b30" x="50.14375" y="138.361263" style="stroke: #000000; stroke-width: 0.8"/>
      </g>
     </g>
     <g id="text_21">
      <text style="font: 10px 'DejaVu Sans', 'Bitstream Vera Sans', 'Computer Modern Sans Serif', 'Lucida Grande', 'Verdana', 'Geneva', 'Lucid', 'Arial', 'Helvetica', 'Avant Garde', sans-serif; text-anchor: end" x="43.14375" y="142.160481" transform="rotate(-0 43.14375 142.160481)">1.25</text>
     </g>
    </g>
    <g id="ytick_10">
     <g id="line2d_30">
      <g>
       <use xlink:href="#meabf098b30" x="50.14375" y="114.728245" style="stroke: #000000; stroke-width: 0.8"/>
      </g>
     </g>
     <g id="text_22">
      <text style="font: 10px 'DejaVu Sans', 'Bitstream Vera Sans', 'Computer Modern Sans Serif', 'Lucida Grande', 'Verdana', 'Geneva', 'Lucid', 'Arial', 'Helvetica', 'Avant Garde', sans-serif; text-anchor: end" x="43.14375" y="118.527464" transform="rotate(-0 43.14375 118.527464)">1.50</text>
     </g>
    </g>
    <g id="text_23">
     <text style="font: 10px 'DejaVu Sans', 'Bitstream Vera Sans', 'Computer Modern Sans Serif', 'Lucida Grande', 'Verdana', 'Geneva', 'Lucid', 'Arial', 'Helvetica', 'Avant Garde', sans-serif; text-anchor: middle" x="14.798438" y="184.608" transform="rotate(-90 14.798438 184.608)">Voltage (V)</text>
    </g>
   </g>
   <g id="line2d_31">
    <path d="M 66.376477 262.670934 
L 133.322259 262.574279 
L 136.897034 262.166965 
L 140.471809 261.538837 
L 144.371563 260.624938 
L 148.596297 259.395623 
L 153.14601 257.832202 
L 158.020703 255.922978 
L 162.895396 253.800925 
L 169.394987 250.713739 
L 176.219557 247.238744 
L 185.318983 242.317896 
L 190.193676 239.586562 
L 196.368287 236.091201 
L 197.343226 239.180169 
L 197.993185 240.018725 
L 199.293103 240.992368 
L 205.467714 245.070831 
L 209.692448 247.619307 
L 213.592202 249.730214 
L 217.491956 251.596286 
L 221.391711 253.224542 
L 225.616445 254.740185 
L 229.841178 256.024774 
L 234.390892 257.183436 
L 239.590564 258.266135 
L 245.115216 259.184488 
L 251.289827 259.985534 
L 258.439377 260.6842 
L 266.888844 261.27693 
L 276.963209 261.75455 
L 289.96239 262.135026 
L 307.511285 262.409118 
L 334.159606 262.581447 
L 387.456248 262.660113 
L 391.031023 262.661532 
L 391.031023 262.661532 
" clip-path="url(#p1b65f1a7bf)" style="fill: none; stroke: #ff4500; stroke-linecap: square"/>
   </g>
   <g id="line2d_32">
    <path d="M 66.376477 261.328008 
L 66.701457 260.799245 
L 67.351416 260.305718 
L 68.326354 260.099285 
L 70.601211 260.048953 
L 132.022341 259.885045 
L 133.647239 259.164513 
L 141.121768 255.672296 
L 146.971399 253.168472 
L 153.47099 250.695049 
L 158.670662 248.912746 
L 163.545355 247.394272 
L 171.994823 245.145099 
L 180.119311 243.373613 
L 187.59384 241.905925 
L 192.793512 240.631822 
L 193.768451 240.360096 
L 195.718328 239.904165 
L 196.043308 239.792824 
L 196.368287 224.688881 
L 197.018246 244.642831 
L 197.343226 250.40556 
L 197.668205 254.08461 
L 197.993185 256.398768 
L 198.318164 257.832679 
L 198.643144 258.711207 
L 199.293103 259.567963 
L 199.943062 259.877914 
L 200.918001 260.012647 
L 204.167796 260.047609 
L 391.031023 260.047777 
L 391.031023 260.047777 
" clip-path="url(#p1b65f1a7bf)" style="fill: none; stroke-dasharray: 3.7,1.6; stroke-dashoffset: 0; stroke: #ff4500"/>
   </g>
   <g id="line2d_33">
    <path d="M 66.376477 260.843983 
L 80.675576 260.735354 
L 134.622178 260.636495 
L 139.171891 260.278876 
L 142.746666 259.827099 
L 159.97058 256.615712 
L 164.520294 255.685319 
L 169.070007 254.631543 
L 170.694905 254.240831 
L 171.344864 254.158793 
L 171.994823 253.926544 
L 172.644782 253.848088 
L 173.294741 253.615189 
L 173.9447 253.545126 
L 174.594659 253.296201 
L 175.244618 253.222349 
L 175.894577 252.966657 
L 176.544536 252.897473 
L 177.194495 252.640769 
L 177.844454 252.581836 
L 178.494413 252.30976 
L 179.144372 252.246325 
L 179.794331 251.968535 
L 180.444291 251.906713 
L 181.09425 251.628447 
L 181.744209 251.578645 
L 182.394168 251.285054 
L 183.044127 251.22741 
L 183.694086 250.921789 
L 184.344045 250.870698 
L 184.994004 250.569849 
L 185.643963 250.533656 
L 186.293922 250.216959 
L 186.943881 250.170607 
L 187.59384 249.841588 
L 188.243799 249.808448 
L 188.893758 249.483617 
L 189.543717 249.45635 
L 190.193676 249.11034 
L 190.843635 249.076515 
L 191.493594 248.719492 
L 192.143553 248.699798 
L 192.793512 248.35342 
L 193.443472 248.345473 
L 194.093431 247.989855 
L 194.74339 247.987682 
L 195.393349 247.606792 
L 196.043308 247.583193 
L 196.693267 247.19013 
L 197.343226 247.173572 
L 197.993185 246.767092 
L 198.643144 246.756128 
L 199.293103 246.35055 
L 199.943062 246.374105 
L 200.593021 245.980838 
L 201.24298 246.013312 
L 201.892939 245.592238 
L 202.542898 245.584993 
L 203.192857 245.13811 
L 203.842816 245.159604 
L 204.492775 244.715184 
L 205.142734 244.741636 
L 205.792693 244.296407 
L 206.442653 244.328324 
L 207.092612 243.885395 
L 207.742571 243.931892 
L 208.39253 243.493687 
L 209.042489 243.553672 
L 209.692448 243.181848 
L 210.342407 243.281836 
L 210.992366 242.928462 
L 211.642325 243.097735 
L 212.292284 242.831046 
L 212.942243 243.02878 
L 213.592202 242.777601 
L 214.242161 243.037969 
L 214.89212 242.892016 
L 215.542079 243.319204 
L 216.192038 243.376984 
L 217.491956 244.404338 
L 221.71669 250.062033 
L 222.366649 250.938633 
L 224.316526 253.608987 
L 224.966485 254.448764 
L 228.86624 259.046902 
L 230.816117 260.590897 
L 231.791055 260.720765 
L 235.69081 260.743667 
L 374.782046 260.743681 
L 374.782046 260.743681 
" clip-path="url(#p1b65f1a7bf)" style="fill: none; stroke-dasharray: 6.4,1.6,1,1.6; stroke-dashoffset: 0; stroke: #ff4500"/>
   </g>
   <g id="line2d_34">
    <path d="M 66.376477 262.670934 
L 132.99728 262.574163 
L 134.622178 262.221261 
L 136.247075 261.598785 
L 137.871973 260.718992 
L 139.49687 259.601525 
L 141.446748 257.980932 
L 143.721604 255.751307 
L 145.996461 253.22258 
L 148.596297 249.96993 
L 151.846092 245.492614 
L 155.095888 240.626585 
L 160.945519 231.381765 
L 168.745028 217.368775 
L 175.894577 204.060512 
L 183.694086 189.028363 
L 195.068369 166.5638 
L 196.368287 163.956208 
L 196.693267 164.427602 
L 197.343226 166.645939 
L 198.643144 172.608161 
L 202.867878 192.830641 
L 204.817755 200.943034 
L 206.767632 208.114341 
L 208.717509 214.416623 
L 210.667386 219.946551 
L 212.617264 224.799629 
L 214.567141 229.062364 
L 216.517018 232.810721 
L 218.466895 236.110656 
L 220.416772 239.019275 
L 222.691629 241.98364 
L 224.966485 244.549619 
L 227.241342 246.774185 
L 229.516199 248.705723 
L 232.116035 250.606858 
L 234.715871 252.230537 
L 237.640687 253.778996 
L 240.565503 255.081583 
L 243.815298 256.290921 
L 247.390073 257.3849 
L 251.289827 258.351622 
L 255.83954 259.244595 
L 261.039213 260.028297 
L 267.213824 260.717243 
L 274.363373 261.283046 
L 283.13782 261.749402 
L 294.512104 262.121176 
L 310.111121 262.394376 
L 334.159606 262.571515 
L 381.606617 262.656636 
L 391.031023 262.661131 
L 391.031023 262.661131 
" clip-path="url(#p1b65f1a7bf)" style="fill: none; stroke: #c71585; stroke-linecap: square"/>
   </g>
   <g id="line2d_35">
    <path d="M 66.376477 260.220106 
L 66.701457 258.399486 
L 67.026436 257.327484 
L 67.351416 256.697451 
L 68.001375 256.110831 
L 68.651334 255.909562 
L 69.951252 255.817311 
L 77.750761 255.805244 
L 131.372382 255.800382 
L 131.697362 255.55582 
L 132.347321 254.664579 
L 133.972218 251.726068 
L 138.846911 242.767666 
L 142.746666 236.066708 
L 146.64642 229.810306 
L 151.196133 222.992588 
L 154.770908 218.002889 
L 159.320621 212.160041 
L 164.195314 206.271003 
L 171.994823 197.377199 
L 184.344045 183.529949 
L 187.59384 179.412391 
L 189.868697 176.856083 
L 191.493594 175.143852 
L 193.118492 173.414116 
L 195.718328 171.18708 
L 196.043308 171.002515 
L 196.368287 103.968 
L 197.018246 189.231664 
L 197.343226 214.673067 
L 197.668205 230.832997 
L 197.993185 240.771206 
L 198.318164 246.807587 
L 198.643144 250.442899 
L 198.968123 252.621087 
L 199.293103 253.920123 
L 199.618083 254.691963 
L 200.268042 255.419298 
L 200.918001 255.672283 
L 202.217919 255.789671 
L 208.39253 255.805244 
L 391.031023 255.805244 
L 391.031023 255.805244 
" clip-path="url(#p1b65f1a7bf)" style="fill: none; stroke-dasharray: 3.7,1.6; stroke-dashoffset: 0; stroke: #c71585"/>
   </g>
   <g id="line2d_36">
    <path d="M 66.376477 265.144832 
L 83.600392 265.221632 
L 134.947157 265.125835 
L 140.146829 264.743214 
L 147.621359 263.628206 
L 151.196133 262.926774 
L 153.14601 262.500476 
L 153.795969 262.368751 
L 155.745847 261.897606 
L 156.395806 261.75951 
L 157.045765 261.578418 
L 157.695724 261.436431 
L 158.345683 261.24318 
L 158.670662 261.109596 
L 159.320621 261.03206 
L 159.97058 260.755147 
L 160.62054 260.679707 
L 161.270499 260.385352 
L 161.920458 260.312749 
L 162.570417 260.000067 
L 163.220376 259.931043 
L 163.870335 259.600965 
L 164.520294 259.534975 
L 165.170253 259.18685 
L 165.820212 259.125767 
L 166.470171 258.75873 
L 167.12013 258.698531 
L 167.770089 258.310813 
L 168.420048 258.259131 
L 169.070007 257.860879 
L 169.719966 257.818838 
L 170.369925 257.379055 
L 170.694905 257.414414 
L 171.019884 257.333191 
L 171.669843 256.87687 
L 171.994823 256.921846 
L 172.319802 256.845781 
L 172.969761 256.380818 
L 173.294741 256.433308 
L 173.619721 256.346887 
L 174.26968 255.831695 
L 174.594659 255.893939 
L 174.919639 255.810691 
L 175.569598 255.281743 
L 175.894577 255.351489 
L 176.219557 255.274199 
L 176.869516 254.736986 
L 177.194495 254.816792 
L 177.519475 254.728965 
L 178.169434 254.135495 
L 178.494413 254.225745 
L 178.819393 254.141072 
L 179.469352 253.535982 
L 179.794331 253.635868 
L 180.119311 253.555041 
L 180.76927 252.941616 
L 181.09425 253.054683 
L 181.419229 252.961561 
L 182.069188 252.282596 
L 182.394168 252.404435 
L 182.719147 252.309657 
L 183.369106 251.615324 
L 183.694086 251.758168 
L 184.019065 251.682248 
L 184.669024 250.982573 
L 184.994004 251.136547 
L 185.318983 251.041958 
L 185.968942 250.266961 
L 186.293922 250.428978 
L 186.618902 250.332136 
L 187.268861 249.555186 
L 187.59384 249.743788 
L 187.91882 249.670286 
L 188.568779 248.845713 
L 188.893758 249.041708 
L 189.218738 248.945269 
L 189.868697 248.066822 
L 190.193676 248.27175 
L 190.518656 248.175128 
L 191.168615 247.29733 
L 191.493594 247.532568 
L 191.818574 247.462625 
L 192.468533 246.541213 
L 192.793512 246.786844 
L 193.118492 246.694963 
L 193.768451 245.741651 
L 194.093431 246.002081 
L 194.41841 245.92186 
L 195.068369 244.960206 
L 195.393349 245.247594 
L 195.718328 245.159487 
L 196.368287 244.071288 
L 196.693267 244.364971 
L 197.018246 244.248902 
L 197.668205 243.118348 
L 197.993185 243.429595 
L 198.318164 243.327033 
L 198.968123 242.233027 
L 199.293103 242.586952 
L 199.618083 242.531493 
L 200.268042 241.373615 
L 200.593021 241.742882 
L 200.918001 241.667046 
L 201.56796 240.468793 
L 201.892939 240.841535 
L 202.217919 240.758596 
L 202.867878 239.488209 
L 203.192857 239.901577 
L 203.517837 239.830352 
L 204.167796 238.4785 
L 204.492775 238.907553 
L 204.817755 238.811972 
L 205.467714 237.464116 
L 205.792693 237.908798 
L 206.117673 237.85768 
L 206.767632 236.548581 
L 207.092612 237.033837 
L 207.417591 236.991792 
L 208.06755 235.480404 
L 208.39253 235.925815 
L 208.717509 235.805687 
L 209.367468 234.247186 
L 209.692448 234.753509 
L 210.017427 234.697849 
L 210.342407 233.76222 
L 210.667386 233.180649 
L 210.992366 233.733468 
L 211.317345 233.712375 
L 211.642325 232.807489 
L 211.967304 232.263828 
L 212.292284 232.810428 
L 212.617264 232.793225 
L 212.942243 231.889348 
L 213.267223 231.346413 
L 213.592202 231.92815 
L 213.917182 232.062915 
L 214.242161 231.310241 
L 214.567141 230.978351 
L 214.89212 231.586493 
L 215.2171 231.924259 
L 215.542079 231.385356 
L 215.867059 231.340461 
L 216.192038 232.074441 
L 216.517018 232.514769 
L 216.841997 232.580495 
L 217.491956 234.204183 
L 217.816936 235.259051 
L 218.141915 235.457756 
L 218.791874 237.233725 
L 219.116854 238.310297 
L 219.441834 238.516846 
L 220.091793 240.300744 
L 220.416772 241.378158 
L 220.741752 241.584984 
L 221.391711 243.446793 
L 221.71669 244.650069 
L 222.04167 244.897565 
L 222.691629 246.949375 
L 223.016608 248.190223 
L 223.341588 248.44506 
L 223.991547 250.512584 
L 224.316526 251.756247 
L 224.641506 252.01037 
L 225.291465 254.021628 
L 225.616445 255.229592 
L 225.941424 255.490694 
L 226.591383 257.496521 
L 226.916363 258.703674 
L 227.241342 258.965878 
L 227.891301 260.71229 
L 228.216281 261.743714 
L 228.54126 261.986526 
L 229.191219 263.373876 
L 229.516199 264.174366 
L 229.841178 264.366314 
L 230.166158 264.948762 
L 230.816117 265.168021 
L 232.116035 265.242008 
L 245.440196 265.248 
L 374.782046 265.248 
L 374.782046 265.248 
" clip-path="url(#p1b65f1a7bf)" style="fill: none; stroke-dasharray: 6.4,1.6,1,1.6; stroke-dashoffset: 0; stroke: #c71585"/>
   </g>
   <g id="line2d_37">
    <path d="M 66.376477 262.670934 
L 132.99728 262.576173 
L 134.947157 262.265523 
L 136.897034 261.756838 
L 139.171891 260.913809 
L 141.446748 259.818567 
L 143.721604 258.47084 
L 146.32144 256.683884 
L 148.921277 254.629201 
L 152.171072 251.778949 
L 155.420867 248.563703 
L 159.645601 243.980659 
L 163.545355 239.402423 
L 168.420048 233.325042 
L 173.9447 226.068004 
L 180.444291 217.143429 
L 184.669024 211.378646 
L 185.318983 210.704491 
L 186.618902 208.787239 
L 190.518656 202.883115 
L 196.368287 194.255693 
L 197.668205 198.304247 
L 208.06755 220.100846 
L 210.992366 225.548824 
L 213.592202 229.930461 
L 216.192038 233.873129 
L 218.791874 237.392378 
L 221.391711 240.514697 
L 223.991547 243.272056 
L 226.591383 245.698514 
L 229.191219 247.828024 
L 231.791055 249.693089 
L 234.715871 251.512883 
L 237.640687 253.075677 
L 240.890482 254.553228 
L 244.465257 255.91206 
L 248.040032 257.037911 
L 252.264766 258.122527 
L 256.814479 259.051079 
L 262.014151 259.874988 
L 267.863783 260.572428 
L 274.688353 261.162047 
L 283.13782 261.660611 
L 293.862145 262.056865 
L 308.161244 262.349085 
L 329.609893 262.544767 
L 369.257395 262.646871 
L 391.031023 262.660984 
L 391.031023 262.660984 
" clip-path="url(#p1b65f1a7bf)" style="fill: none; stroke: #4682b4; stroke-linecap: square"/>
   </g>
   <g id="line2d_38">
    <path d="M 66.376477 259.757583 
L 66.701457 258.539698 
L 67.026436 257.815079 
L 67.676395 257.130874 
L 68.326354 256.892171 
L 69.626273 256.781037 
L 76.125863 256.766225 
L 131.372382 256.763144 
L 132.022341 256.353721 
L 132.99728 255.308731 
L 143.721604 242.640666 
L 147.946338 238.099263 
L 152.821031 233.19331 
L 156.395806 229.855735 
L 161.595478 225.305069 
L 165.495232 222.199604 
L 173.619721 216.108934 
L 179.144372 212.243798 
L 185.643963 207.912982 
L 188.568779 205.853181 
L 192.143553 203.619558 
L 193.768451 202.590529 
L 196.043308 201.400934 
L 196.368287 154.785841 
L 197.018246 211.457858 
L 197.343226 228.517724 
L 197.668205 239.442207 
L 197.993185 246.249653 
L 198.318164 250.42903 
L 198.643144 252.967714 
L 198.968123 254.499733 
L 199.293103 255.418863 
L 199.618083 255.967724 
L 200.268042 256.487848 
L 200.918001 256.669921 
L 202.542898 256.759597 
L 216.192038 256.766224 
L 391.031023 256.766224 
L 391.031023 256.766224 
" clip-path="url(#p1b65f1a7bf)" style="fill: none; stroke-dasharray: 3.7,1.6; stroke-dashoffset: 0; stroke: #4682b4"/>
   </g>
   <g id="line2d_39">
    <path d="M 66.376477 260.718185 
L 81.650515 260.623431 
L 133.972218 260.512955 
L 136.897034 260.262507 
L 139.49687 259.902266 
L 141.771727 259.47053 
L 144.046584 258.959669 
L 145.996461 258.447557 
L 147.946338 257.932517 
L 149.571236 257.45702 
L 151.846092 256.839471 
L 152.496051 256.630618 
L 153.14601 256.458459 
L 153.795969 256.243041 
L 154.445929 256.06735 
L 155.095888 255.846318 
L 155.745847 255.669543 
L 156.395806 255.440622 
L 157.045765 255.262476 
L 157.695724 255.027508 
L 158.345683 254.847204 
L 158.995642 254.602153 
L 159.645601 254.420369 
L 160.29556 254.168394 
L 160.945519 253.985992 
L 161.595478 253.724947 
L 162.245437 253.540162 
L 162.895396 253.268445 
L 163.545355 253.084263 
L 164.195314 252.805147 
L 164.845273 252.618813 
L 165.495232 252.330503 
L 166.145191 252.143937 
L 166.79515 251.847989 
L 167.44511 251.656332 
L 168.095069 251.35106 
L 168.420048 251.313175 
L 170.694905 250.340236 
L 171.019884 250.305382 
L 171.994823 249.802567 
L 172.319802 249.772429 
L 173.294741 249.271121 
L 173.619721 249.245618 
L 174.594659 248.709677 
L 174.919639 248.682522 
L 175.894577 248.136477 
L 176.219557 248.114786 
L 177.194495 247.571021 
L 177.519475 247.554295 
L 178.494413 246.976402 
L 178.819393 246.958252 
L 179.794331 246.370806 
L 180.119311 246.356365 
L 181.09425 245.771502 
L 181.419229 245.763437 
L 182.394168 245.139996 
L 182.719147 245.127098 
L 183.694086 244.487474 
L 184.019065 244.484631 
L 184.994004 243.860149 
L 185.318983 243.864671 
L 186.293922 243.195981 
L 186.618902 243.193886 
L 187.59384 242.514534 
L 187.91882 242.528158 
L 188.243799 242.306433 
L 188.568779 241.944818 
L 189.543717 241.621663 
L 189.868697 241.238713 
L 190.843635 240.898228 
L 191.168615 240.508291 
L 191.493594 240.417343 
L 191.818574 240.443159 
L 192.143553 240.203395 
L 192.468533 239.812372 
L 192.793512 239.723634 
L 193.118492 239.750328 
L 193.443472 239.498529 
L 193.768451 239.098734 
L 194.093431 239.011544 
L 194.41841 239.045199 
L 194.74339 238.797072 
L 195.068369 238.378669 
L 196.043308 238.04293 
L 196.368287 237.593023 
L 197.343226 237.22036 
L 197.668205 236.756695 
L 197.993185 236.662985 
L 198.318164 236.691082 
L 198.643144 236.395974 
L 198.968123 235.940923 
L 199.293103 235.867864 
L 199.618083 235.926152 
L 199.943062 235.646036 
L 200.268042 235.192299 
L 200.593021 235.123997 
L 200.918001 235.185997 
L 201.24298 234.901651 
L 201.56796 234.419684 
L 201.892939 234.342701 
L 202.217919 234.385593 
L 202.542898 234.056791 
L 202.867878 233.546885 
L 203.192857 233.476198 
L 203.517837 233.534756 
L 203.842816 233.20556 
L 204.167796 232.686195 
L 204.492775 232.614633 
L 204.817755 232.672671 
L 205.142734 232.336933 
L 205.467714 231.817336 
L 205.792693 231.751908 
L 206.117673 231.823991 
L 206.442653 231.499772 
L 206.767632 230.994435 
L 207.092612 230.949174 
L 207.417591 231.04061 
L 207.742571 230.709569 
L 208.06755 230.165377 
L 208.39253 230.118476 
L 208.717509 230.19639 
L 209.042489 229.842215 
L 209.367468 229.314501 
L 210.017427 229.455273 
L 210.342407 229.128626 
L 210.667386 228.625954 
L 210.992366 228.675334 
L 211.317345 228.86407 
L 211.642325 228.614979 
L 211.967304 228.20183 
L 212.617264 228.523299 
L 212.942243 228.294377 
L 213.267223 227.895319 
L 213.592202 228.023039 
L 213.917182 228.323756 
L 214.242161 228.221598 
L 214.567141 227.981476 
L 214.89212 228.198889 
L 215.2171 228.634078 
L 215.867059 228.657992 
L 216.192038 229.027634 
L 216.841997 229.924442 
L 217.166977 230.392748 
L 218.791874 234.167244 
L 219.441834 235.818109 
L 220.091793 237.305759 
L 220.741752 238.964607 
L 221.391711 240.472728 
L 222.04167 242.18411 
L 222.691629 243.776042 
L 223.016608 244.826196 
L 223.991547 247.093521 
L 224.316526 248.142971 
L 225.291465 250.300438 
L 225.616445 251.268442 
L 226.591383 253.334258 
L 226.916363 254.289522 
L 227.891301 256.159806 
L 228.54126 257.496319 
L 229.191219 258.533722 
L 229.841178 259.611462 
L 230.491137 260.311734 
L 231.141096 260.553449 
L 232.441015 260.640137 
L 243.165339 260.647722 
L 374.782046 260.647722 
L 374.782046 260.647722 
" clip-path="url(#p1b65f1a7bf)" style="fill: none; stroke-dasharray: 6.4,1.6,1,1.6; stroke-dashoffset: 0; stroke: #4682b4"/>
   </g>
   <g id="line2d_40">
    <path d="M 66.376477 262.670934 
L 132.99728 262.582043 
L 135.272137 262.258197 
L 137.871973 261.672554 
L 141.121768 260.688287 
L 144.696543 259.35582 
L 148.921277 257.520817 
L 153.795969 255.142723 
L 158.345683 252.719674 
L 164.195314 249.355826 
L 172.644782 244.204407 
L 184.994004 236.279793 
L 194.093431 230.054005 
L 196.368287 228.486408 
L 197.018246 231.266388 
L 197.993185 233.740538 
L 199.293103 236.397079 
L 200.918001 239.201429 
L 202.542898 241.560515 
L 204.167796 243.572025 
L 206.117673 245.627322 
L 208.06755 247.376064 
L 210.342407 249.114527 
L 212.942243 250.791367 
L 215.542079 252.209991 
L 218.466895 253.563424 
L 221.71669 254.828758 
L 225.291465 255.991252 
L 229.516199 257.121561 
L 234.065912 258.10812 
L 239.265585 259.0091 
L 245.440196 259.839999 
L 252.589745 260.561379 
L 261.039213 261.175007 
L 271.113578 261.674074 
L 283.787779 262.070124 
L 300.686715 262.363479 
L 325.710138 262.556104 
L 371.857231 262.652007 
L 391.031023 262.661957 
L 391.031023 262.661957 
" clip-path="url(#p1b65f1a7bf)" style="fill: none; stroke: #6b8e23; stroke-linecap: square"/>
   </g>
   <g id="line2d_41">
    <path d="M 66.376477 261.32573 
L 66.701457 260.860215 
L 67.351416 260.430934 
L 68.326354 260.254209 
L 70.926191 260.211434 
L 131.697362 260.131387 
L 132.6723 259.689548 
L 147.946338 251.570227 
L 154.445929 248.547497 
L 161.270499 245.612822 
L 167.770089 243.01685 
L 172.644782 241.196448 
L 185.318983 236.546924 
L 189.868697 234.710633 
L 195.393349 232.076993 
L 196.043308 231.711646 
L 196.368287 223.746755 
L 197.018246 245.295401 
L 197.343226 251.085948 
L 197.668205 254.679888 
L 197.993185 256.883487 
L 198.318164 258.220022 
L 198.643144 259.024495 
L 199.293103 259.793329 
L 199.943062 260.065211 
L 201.24298 260.193464 
L 206.767632 260.210867 
L 391.031023 260.210869 
L 391.031023 260.210869 
" clip-path="url(#p1b65f1a7bf)" style="fill: none; stroke-dasharray: 3.7,1.6; stroke-dashoffset: 0; stroke: #6b8e23"/>
   </g>
   <g id="line2d_42">
    <path d="M 66.376477 261.301441 
L 86.200228 261.238894 
L 134.947157 261.138311 
L 140.796788 260.700052 
L 144.046584 260.31088 
L 148.596297 259.670178 
L 150.871154 259.348683 
L 171.669843 256.304528 
L 172.319802 256.223815 
L 174.26968 255.90894 
L 174.919639 255.823664 
L 175.569598 255.701664 
L 176.219557 255.615824 
L 176.869516 255.494888 
L 177.519475 255.41495 
L 178.169434 255.299116 
L 178.819393 255.208654 
L 179.469352 255.089333 
L 180.119311 254.996884 
L 180.76927 254.8776 
L 181.419229 254.79258 
L 182.069188 254.679993 
L 182.394168 254.570836 
L 183.044127 254.567301 
L 184.019065 254.362247 
L 184.669024 254.245958 
L 184.994004 254.134546 
L 185.643963 254.150982 
L 186.618902 253.947078 
L 187.268861 253.827639 
L 187.59384 253.702556 
L 188.243799 253.721022 
L 189.218738 253.516698 
L 189.543717 253.520125 
L 190.518656 253.300622 
L 190.843635 253.302095 
L 191.493594 253.045908 
L 192.143553 253.079797 
L 193.118492 252.865654 
L 193.443472 252.88218 
L 194.41841 252.664014 
L 194.74339 252.682741 
L 195.718328 252.434318 
L 196.043308 252.448998 
L 197.018246 252.201574 
L 197.343226 252.221978 
L 198.318164 251.967491 
L 198.643144 251.99012 
L 199.293103 251.697144 
L 199.943062 251.77616 
L 200.918001 251.539387 
L 201.24298 251.583599 
L 202.217919 251.313446 
L 202.542898 251.34892 
L 203.192857 251.026826 
L 203.842816 251.113674 
L 204.817755 250.840569 
L 205.142734 250.890767 
L 206.117673 250.61046 
L 206.442653 250.667692 
L 207.417591 250.390053 
L 207.742571 250.447853 
L 208.39253 250.130371 
L 209.042489 250.245736 
L 209.692448 249.973094 
L 210.342407 250.1134 
L 210.992366 249.846929 
L 211.642325 250.028688 
L 212.292284 249.823031 
L 212.942243 250.026725 
L 213.592202 249.830567 
L 214.567141 249.996403 
L 214.89212 249.921538 
L 215.867059 250.251231 
L 216.192038 250.243617 
L 217.816936 251.127988 
L 218.141915 251.502253 
L 218.791874 251.922377 
L 225.941424 258.079224 
L 226.916363 258.738546 
L 227.241342 259.071434 
L 228.216281 259.68931 
L 228.54126 259.986213 
L 229.516199 260.480079 
L 230.166158 260.855048 
L 230.816117 261.134928 
L 232.116035 261.23546 
L 241.540441 261.244222 
L 374.782046 261.244222 
L 374.782046 261.244222 
" clip-path="url(#p1b65f1a7bf)" style="fill: none; stroke-dasharray: 6.4,1.6,1,1.6; stroke-dashoffset: 0; stroke: #6b8e23"/>
   </g>
   <g id="patch_9">
    <path d="M 50.14375 273.312 
L 50.14375 95.904 
" style="fill: none; stroke: #000000; stroke-width: 0.8; stroke-linejoin: miter; stroke-linecap: square"/>
   </g>
   <g id="patch_10">
    <path d="M 407.26375 273.312 
L 407.26375 95.904 
" style="fill: none; stroke: #000000; stroke-width: 0.8; stroke-linejoin: miter; stroke-linecap: square"/>
   </g>
   <g id="patch_11">
    <path d="M 50.14375 273.312 
L 407.26375 273.312 
" style="fill: none; stroke: #000000; stroke-width: 0.8; stroke-linejoin: miter; stroke-linecap: square"/>
   </g>
   <g id="patch_12">
    <path d="M 50.14375 95.904 
L 407.26375 95.904 
" style="fill: none; stroke: #000000; stroke-width: 0.8; stroke-linejoin: miter; stroke-linecap: square"/>
   </g>
   <g id="legend_2">
    <g id="patch_13">
     <path d="M 414.26375 262.3007 
L 562.141875 262.3007 
Q 564.141875 262.3007 564.141875 260.3007 
L 564.141875 85.1632 
Q 564.141875 83.1632 562.141875 83.1632 
L 414.26375 83.1632 
Q 412.26375 83.1632 412.26375 85.1632 
L 412.26375 260.3007 
Q 412.26375 262.3007 414.26375 262.3007 
z
" style="fill: #ffffff; opacity: 0.8; stroke: #cccccc; stroke-linejoin: miter"/>
    </g>
    <g id="line2d_43">
     <path d="M 416.26375 91.261637 
L 426.26375 91.261637 
L 436.26375 91.261637 
" style="fill: none; stroke: #ff4500; stroke-linecap: square"/>
    </g>
    <g id="text_24">
     <text style="font: 10px 'DejaVu Sans', 'Bitstream Vera Sans', 'Computer Modern Sans Serif', 'Lucida Grande', 'Verdana', 'Geneva', 'Lucid', 'Arial', 'Helvetica', 'Avant Garde', sans-serif; text-anchor: start" x="444.26375" y="94.761637" transform="rotate(-0 444.26375 94.761637)">Target response DB1</text>
    </g>
    <g id="line2d_44">
     <path d="M 416.26375 105.939762 
L 426.26375 105.939762 
L 436.26375 105.939762 
" style="fill: none; stroke-dasharray: 3.7,1.6; stroke-dashoffset: 0; stroke: #ff4500"/>
    </g>
    <g id="text_25">
     <text style="font: 10px 'DejaVu Sans', 'Bitstream Vera Sans', 'Computer Modern Sans Serif', 'Lucida Grande', 'Verdana', 'Geneva', 'Lucid', 'Arial', 'Helvetica', 'Avant Garde', sans-serif; text-anchor: start" x="444.26375" y="109.439762" transform="rotate(-0 444.26375 109.439762)">Digital prediction DB1</text>
    </g>
    <g id="line2d_45">
     <path d="M 416.26375 120.617887 
L 426.26375 120.617887 
L 436.26375 120.617887 
" style="fill: none; stroke-dasharray: 6.4,1.6,1,1.6; stroke-dashoffset: 0; stroke: #ff4500"/>
    </g>
    <g id="text_26">
     <text style="font: 10px 'DejaVu Sans', 'Bitstream Vera Sans', 'Computer Modern Sans Serif', 'Lucida Grande', 'Verdana', 'Geneva', 'Lucid', 'Arial', 'Helvetica', 'Avant Garde', sans-serif; text-anchor: start" x="444.26375" y="124.117887" transform="rotate(-0 444.26375 124.117887)">Analog prediction DB1</text>
    </g>
    <g id="line2d_46">
     <path d="M 416.26375 135.296012 
L 426.26375 135.296012 
L 436.26375 135.296012 
" style="fill: none; stroke: #c71585; stroke-linecap: square"/>
    </g>
    <g id="text_27">
     <text style="font: 10px 'DejaVu Sans', 'Bitstream Vera Sans', 'Computer Modern Sans Serif', 'Lucida Grande', 'Verdana', 'Geneva', 'Lucid', 'Arial', 'Helvetica', 'Avant Garde', sans-serif; text-anchor: start" x="444.26375" y="138.796012" transform="rotate(-0 444.26375 138.796012)">Target response LUAL</text>
    </g>
    <g id="line2d_47">
     <path d="M 416.26375 149.974137 
L 426.26375 149.974137 
L 436.26375 149.974137 
" style="fill: none; stroke-dasharray: 3.7,1.6; stroke-dashoffset: 0; stroke: #c71585"/>
    </g>
    <g id="text_28">
     <text style="font: 10px 'DejaVu Sans', 'Bitstream Vera Sans', 'Computer Modern Sans Serif', 'Lucida Grande', 'Verdana', 'Geneva', 'Lucid', 'Arial', 'Helvetica', 'Avant Garde', sans-serif; text-anchor: start" x="444.26375" y="153.474137" transform="rotate(-0 444.26375 153.474137)">Digital prediction LUAL</text>
    </g>
    <g id="line2d_48">
     <path d="M 416.26375 164.652262 
L 426.26375 164.652262 
L 436.26375 164.652262 
" style="fill: none; stroke-dasharray: 6.4,1.6,1,1.6; stroke-dashoffset: 0; stroke: #c71585"/>
    </g>
    <g id="text_29">
     <text style="font: 10px 'DejaVu Sans', 'Bitstream Vera Sans', 'Computer Modern Sans Serif', 'Lucida Grande', 'Verdana', 'Geneva', 'Lucid', 'Arial', 'Helvetica', 'Avant Garde', sans-serif; text-anchor: start" x="444.26375" y="168.152262" transform="rotate(-0 444.26375 168.152262)">Analog prediction LUAL</text>
    </g>
    <g id="line2d_49">
     <path d="M 416.26375 179.330387 
L 426.26375 179.330387 
L 436.26375 179.330387 
" style="fill: none; stroke: #4682b4; stroke-linecap: square"/>
    </g>
    <g id="text_30">
     <text style="font: 10px 'DejaVu Sans', 'Bitstream Vera Sans', 'Computer Modern Sans Serif', 'Lucida Grande', 'Verdana', 'Geneva', 'Lucid', 'Arial', 'Helvetica', 'Avant Garde', sans-serif; text-anchor: start" x="444.26375" y="182.830387" transform="rotate(-0 444.26375 182.830387)">Target response PVR</text>
    </g>
    <g id="line2d_50">
     <path d="M 416.26375 194.008512 
L 426.26375 194.008512 
L 436.26375 194.008512 
" style="fill: none; stroke-dasharray: 3.7,1.6; stroke-dashoffset: 0; stroke: #4682b4"/>
    </g>
    <g id="text_31">
     <text style="font: 10px 'DejaVu Sans', 'Bitstream Vera Sans', 'Computer Modern Sans Serif', 'Lucida Grande', 'Verdana', 'Geneva', 'Lucid', 'Arial', 'Helvetica', 'Avant Garde', sans-serif; text-anchor: start" x="444.26375" y="197.508512" transform="rotate(-0 444.26375 197.508512)">Digital prediction PVR</text>
    </g>
    <g id="line2d_51">
     <path d="M 416.26375 208.686637 
L 426.26375 208.686637 
L 436.26375 208.686637 
" style="fill: none; stroke-dasharray: 6.4,1.6,1,1.6; stroke-dashoffset: 0; stroke: #4682b4"/>
    </g>
    <g id="text_32">
     <text style="font: 10px 'DejaVu Sans', 'Bitstream Vera Sans', 'Computer Modern Sans Serif', 'Lucida Grande', 'Verdana', 'Geneva', 'Lucid', 'Arial', 'Helvetica', 'Avant Garde', sans-serif; text-anchor: start" x="444.26375" y="212.186637" transform="rotate(-0 444.26375 212.186637)">Analog prediction PVR</text>
    </g>
    <g id="line2d_52">
     <path d="M 416.26375 223.364762 
L 426.26375 223.364762 
L 436.26375 223.364762 
" style="fill: none; stroke: #6b8e23; stroke-linecap: square"/>
    </g>
    <g id="text_33">
     <text style="font: 10px 'DejaVu Sans', 'Bitstream Vera Sans', 'Computer Modern Sans Serif', 'Lucida Grande', 'Verdana', 'Geneva', 'Lucid', 'Arial', 'Helvetica', 'Avant Garde', sans-serif; text-anchor: start" x="444.26375" y="226.864762" transform="rotate(-0 444.26375 226.864762)">Target response VB1</text>
    </g>
    <g id="line2d_53">
     <path d="M 416.26375 238.042887 
L 426.26375 238.042887 
L 436.26375 238.042887 
" style="fill: none; stroke-dasharray: 3.7,1.6; stroke-dashoffset: 0; stroke: #6b8e23"/>
    </g>
    <g id="text_34">
     <text style="font: 10px 'DejaVu Sans', 'Bitstream Vera Sans', 'Computer Modern Sans Serif', 'Lucida Grande', 'Verdana', 'Geneva', 'Lucid', 'Arial', 'Helvetica', 'Avant Garde', sans-serif; text-anchor: start" x="444.26375" y="241.542887" transform="rotate(-0 444.26375 241.542887)">Digital prediction VB1</text>
    </g>
    <g id="line2d_54">
     <path d="M 416.26375 252.721012 
L 426.26375 252.721012 
L 436.26375 252.721012 
" style="fill: none; stroke-dasharray: 6.4,1.6,1,1.6; stroke-dashoffset: 0; stroke: #6b8e23"/>
    </g>
    <g id="text_35">
     <text style="font: 10px 'DejaVu Sans', 'Bitstream Vera Sans', 'Computer Modern Sans Serif', 'Lucida Grande', 'Verdana', 'Geneva', 'Lucid', 'Arial', 'Helvetica', 'Avant Garde', sans-serif; text-anchor: start" x="444.26375" y="256.221012" transform="rotate(-0 444.26375 256.221012)">Analog prediction VB1</text>
    </g>
   </g>
  </g>
 </g>
 <defs>
  <clipPath id="pe3e9ecc2db">
   <rect x="50.14375" y="7.2" width="357.12" height="88.704"/>
  </clipPath>
  <clipPath id="p1b65f1a7bf">
   <rect x="50.14375" y="95.904" width="357.12" height="177.408"/>
  </clipPath>
 </defs>
</svg>
