<?xml version="1.0" encoding="utf-8" standalone="no"?>
<!DOCTYPE svg PUBLIC "-//W3C//DTD SVG 1.1//EN"
  "http://www.w3.org/Graphics/SVG/1.1/DTD/svg11.dtd">
<svg xmlns:xlink="http://www.w3.org/1999/xlink" width="394.423125pt" height="297.190125pt" viewBox="0 0 394.423125 297.190125" xmlns="http://www.w3.org/2000/svg" version="1.1">
 <metadata>
  <rdf:RDF xmlns:dc="http://purl.org/dc/elements/1.1/" xmlns:cc="http://creativecommons.org/ns#" xmlns:rdf="http://www.w3.org/1999/02/22-rdf-syntax-ns#">
   <cc:Work>
    <dc:type rdf:resource="http://purl.org/dc/dcmitype/StillImage"/>
    <dc:date>2023-10-25T15:46:10.952737</dc:date>
    <dc:format>image/svg+xml</dc:format>
    <dc:creator>
     <cc:Agent>
      <dc:title>Matplotlib v3.8.0, https://matplotlib.org/</dc:title>
     </cc:Agent>
    </dc:creator>
   </cc:Work>
  </rdf:RDF>
 </metadata>
 <defs>
  <style type="text/css">*{stroke-linejoin: round; stroke-linecap: butt}</style>
 </defs>
 <g id="figure_1">
  <g id="patch_1">
   <path d="M 0 297.190125 
L 394.423125 297.190125 
L 394.423125 0 
L 0 0 
z
" style="fill: #ffffff"/>
  </g>
  <g id="axes_1">
   <g id="patch_2">
    <path d="M 30.103125 273.312 
L 387.223125 273.312 
L 387.223125 7.2 
L 30.103125 7.2 
z
" style="fill: #ffffff"/>
   </g>
   <g id="matplotlib.axis_1">
    <g id="xtick_1">
     <g id="line2d_1">
      <defs>
       <path id="me5047d55d9" d="M 0 0 
L 0 3.5 
" style="stroke: #000000; stroke-width: 0.8"/>
      </defs>
      <g>
       <use xlink:href="#me5047d55d9" x="46.335852" y="273.312" style="stroke: #000000; stroke-width: 0.8"/>
      </g>
     </g>
     <g id="text_1">
      <text style="font: 10px 'DejaVu Sans', 'Bitstream Vera Sans', 'Computer Modern Sans Serif', 'Lucida Grande', 'Verdana', 'Geneva', 'Lucid', 'Arial', 'Helvetica', 'Avant Garde', sans-serif; text-anchor: middle" x="46.335852" y="287.910437" transform="rotate(-0 46.335852 287.910437)">0</text>
     </g>
    </g>
    <g id="xtick_2">
     <g id="line2d_2">
      <g>
       <use xlink:href="#me5047d55d9" x="111.331757" y="273.312" style="stroke: #000000; stroke-width: 0.8"/>
      </g>
     </g>
     <g id="text_2">
      <text style="font: 10px 'DejaVu Sans', 'Bitstream Vera Sans', 'Computer Modern Sans Serif', 'Lucida Grande', 'Verdana', 'Geneva', 'Lucid', 'Arial', 'Helvetica', 'Avant Garde', sans-serif; text-anchor: middle" x="111.331757" y="287.910437" transform="rotate(-0 111.331757 287.910437)">100</text>
     </g>
    </g>
    <g id="xtick_3">
     <g id="line2d_3">
      <g>
       <use xlink:href="#me5047d55d9" x="176.327662" y="273.312" style="stroke: #000000; stroke-width: 0.8"/>
      </g>
     </g>
     <g id="text_3">
      <text style="font: 10px 'DejaVu Sans', 'Bitstream Vera Sans', 'Computer Modern Sans Serif', 'Lucida Grande', 'Verdana', 'Geneva', 'Lucid', 'Arial', 'Helvetica', 'Avant Garde', sans-serif; text-anchor: middle" x="176.327662" y="287.910437" transform="rotate(-0 176.327662 287.910437)">200</text>
     </g>
    </g>
    <g id="xtick_4">
     <g id="line2d_4">
      <g>
       <use xlink:href="#me5047d55d9" x="241.323567" y="273.312" style="stroke: #000000; stroke-width: 0.8"/>
      </g>
     </g>
     <g id="text_4">
      <text style="font: 10px 'DejaVu Sans', 'Bitstream Vera Sans', 'Computer Modern Sans Serif', 'Lucida Grande', 'Verdana', 'Geneva', 'Lucid', 'Arial', 'Helvetica', 'Avant Garde', sans-serif; text-anchor: middle" x="241.323567" y="287.910437" transform="rotate(-0 241.323567 287.910437)">300</text>
     </g>
    </g>
    <g id="xtick_5">
     <g id="line2d_5">
      <g>
       <use xlink:href="#me5047d55d9" x="306.319472" y="273.312" style="stroke: #000000; stroke-width: 0.8"/>
      </g>
     </g>
     <g id="text_5">
      <text style="font: 10px 'DejaVu Sans', 'Bitstream Vera Sans', 'Computer Modern Sans Serif', 'Lucida Grande', 'Verdana', 'Geneva', 'Lucid', 'Arial', 'Helvetica', 'Avant Garde', sans-serif; text-anchor: middle" x="306.319472" y="287.910437" transform="rotate(-0 306.319472 287.910437)">400</text>
     </g>
    </g>
    <g id="xtick_6">
     <g id="line2d_6">
      <g>
       <use xlink:href="#me5047d55d9" x="371.315377" y="273.312" style="stroke: #000000; stroke-width: 0.8"/>
      </g>
     </g>
     <g id="text_6">
      <text style="font: 10px 'DejaVu Sans', 'Bitstream Vera Sans', 'Computer Modern Sans Serif', 'Lucida Grande', 'Verdana', 'Geneva', 'Lucid', 'Arial', 'Helvetica', 'Avant Garde', sans-serif; text-anchor: middle" x="371.315377" y="287.910437" transform="rotate(-0 371.315377 287.910437)">500</text>
     </g>
    </g>
   </g>
   <g id="matplotlib.axis_2">
    <g id="ytick_1">
     <g id="line2d_7">
      <defs>
       <path id="m4f4b5904af" d="M 0 0 
L -3.5 0 
" style="stroke: #000000; stroke-width: 0.8"/>
      </defs>
      <g>
       <use xlink:href="#m4f4b5904af" x="30.103125" y="247.437471" style="stroke: #000000; stroke-width: 0.8"/>
      </g>
     </g>
     <g id="text_7">
      <text style="font: 10px 'DejaVu Sans', 'Bitstream Vera Sans', 'Computer Modern Sans Serif', 'Lucida Grande', 'Verdana', 'Geneva', 'Lucid', 'Arial', 'Helvetica', 'Avant Garde', sans-serif; text-anchor: end" x="23.103125" y="251.23669" transform="rotate(-0 23.103125 251.23669)">0.0</text>
     </g>
    </g>
    <g id="ytick_2">
     <g id="line2d_8">
      <g>
       <use xlink:href="#m4f4b5904af" x="30.103125" y="205.041997" style="stroke: #000000; stroke-width: 0.8"/>
      </g>
     </g>
     <g id="text_8">
      <text style="font: 10px 'DejaVu Sans', 'Bitstream Vera Sans', 'Computer Modern Sans Serif', 'Lucida Grande', 'Verdana', 'Geneva', 'Lucid', 'Arial', 'Helvetica', 'Avant Garde', sans-serif; text-anchor: end" x="23.103125" y="208.841216" transform="rotate(-0 23.103125 208.841216)">0.2</text>
     </g>
    </g>
    <g id="ytick_3">
     <g id="line2d_9">
      <g>
       <use xlink:href="#m4f4b5904af" x="30.103125" y="162.646523" style="stroke: #000000; stroke-width: 0.8"/>
      </g>
     </g>
     <g id="text_9">
      <text style="font: 10px 'DejaVu Sans', 'Bitstream Vera Sans', 'Computer Modern Sans Serif', 'Lucida Grande', 'Verdana', 'Geneva', 'Lucid', 'Arial', 'Helvetica', 'Avant Garde', sans-serif; text-anchor: end" x="23.103125" y="166.445742" transform="rotate(-0 23.103125 166.445742)">0.4</text>
     </g>
    </g>
    <g id="ytick_4">
     <g id="line2d_10">
      <g>
       <use xlink:href="#m4f4b5904af" x="30.103125" y="120.251049" style="stroke: #000000; stroke-width: 0.8"/>
      </g>
     </g>
     <g id="text_10">
      <text style="font: 10px 'DejaVu Sans', 'Bitstream Vera Sans', 'Computer Modern Sans Serif', 'Lucida Grande', 'Verdana', 'Geneva', 'Lucid', 'Arial', 'Helvetica', 'Avant Garde', sans-serif; text-anchor: end" x="23.103125" y="124.050268" transform="rotate(-0 23.103125 124.050268)">0.6</text>
     </g>
    </g>
    <g id="ytick_5">
     <g id="line2d_11">
      <g>
       <use xlink:href="#m4f4b5904af" x="30.103125" y="77.855575" style="stroke: #000000; stroke-width: 0.8"/>
      </g>
     </g>
     <g id="text_11">
      <text style="font: 10px 'DejaVu Sans', 'Bitstream Vera Sans', 'Computer Modern Sans Serif', 'Lucida Grande', 'Verdana', 'Geneva', 'Lucid', 'Arial', 'Helvetica', 'Avant Garde', sans-serif; text-anchor: end" x="23.103125" y="81.654794" transform="rotate(-0 23.103125 81.654794)">0.8</text>
     </g>
    </g>
    <g id="ytick_6">
     <g id="line2d_12">
      <g>
       <use xlink:href="#m4f4b5904af" x="30.103125" y="35.460101" style="stroke: #000000; stroke-width: 0.8"/>
      </g>
     </g>
     <g id="text_12">
      <text style="font: 10px 'DejaVu Sans', 'Bitstream Vera Sans', 'Computer Modern Sans Serif', 'Lucida Grande', 'Verdana', 'Geneva', 'Lucid', 'Arial', 'Helvetica', 'Avant Garde', sans-serif; text-anchor: end" x="23.103125" y="39.25932" transform="rotate(-0 23.103125 39.25932)">1.0</text>
     </g>
    </g>
   </g>
   <g id="line2d_13">
    <path d="M 46.335852 261.216 
L 112.306696 261.135875 
L 113.606614 260.82051 
L 114.906532 260.306912 
L 116.53143 259.387133 
L 118.156327 258.155757 
L 119.781225 256.631245 
L 121.406123 254.819892 
L 123.03102 252.708536 
L 125.305877 249.368223 
L 127.580734 245.554075 
L 130.505549 240.160271 
L 133.105385 234.727895 
L 135.380242 229.582144 
L 138.955017 220.944158 
L 142.529792 211.66576 
L 146.754525 200.039437 
L 151.629218 185.934844 
L 157.15387 169.232999 
L 163.653461 148.845312 
L 164.30342 146.834813 
L 165.278358 144.687186 
L 166.253297 141.522109 
L 170.478031 127.148644 
L 176.327662 107.802636 
L 177.62758 116.881054 
L 188.026925 165.757439 
L 190.626761 176.67633 
L 193.226598 186.625212 
L 195.501454 194.520861 
L 197.776311 201.680269 
L 200.051168 208.13941 
L 202.326024 213.943647 
L 204.600881 219.14305 
L 206.875738 223.789064 
L 209.150594 227.932469 
L 211.425451 231.621939 
L 213.700308 234.903313 
L 215.975164 237.8191 
L 218.250021 240.408323 
L 220.849857 243.012971 
L 223.449693 245.284979 
L 226.04953 247.26652 
L 228.974345 249.194651 
L 231.899161 250.848164 
L 235.148956 252.411355 
L 238.398752 253.73063 
L 241.973526 254.946409 
L 245.873281 256.040248 
L 250.098014 257.002787 
L 254.972707 257.884782 
L 260.497359 258.655046 
L 266.99695 259.328335 
L 274.796458 259.899178 
L 284.220865 260.356868 
L 296.570087 260.719064 
L 313.469022 260.976529 
L 340.117343 261.137587 
L 370.990398 261.193687 
L 370.990398 261.193687 
" clip-path="url(#p7d8ed8af52)" style="fill: none; stroke: #4682b4; stroke-linecap: square"/>
   </g>
   <g id="line2d_14">
    <path d="M 46.335852 254.683142 
L 46.660832 251.952174 
L 46.985811 250.327299 
L 47.310791 249.363422 
L 47.63577 248.793047 
L 48.285729 248.257782 
L 48.935688 248.072409 
L 50.560586 247.981976 
L 64.209726 247.975363 
L 111.331757 247.968454 
L 111.656737 247.621112 
L 112.306696 246.341427 
L 113.606614 242.949238 
L 119.781225 226.248885 
L 124.330938 214.680585 
L 127.580734 206.874891 
L 132.130447 196.539373 
L 135.705222 188.951145 
L 140.579915 179.277712 
L 143.82971 173.302888 
L 150.3293 162.038199 
L 158.453788 149.077953 
L 164.953379 139.520343 
L 168.203174 134.295143 
L 169.503092 132.514152 
L 171.452969 129.758128 
L 174.052806 126.141434 
L 175.027744 124.976173 
L 176.002683 123.825021 
L 176.327662 19.296 
L 176.977621 146.376524 
L 177.302601 184.631326 
L 177.62758 209.128232 
L 177.95256 224.393152 
L 178.277539 233.764928 
L 178.602519 239.457637 
L 178.927498 242.893014 
L 179.252478 244.954058 
L 179.577458 246.184817 
L 179.902437 246.91697 
L 180.552396 247.607905 
L 181.202355 247.848634 
L 182.502273 247.9605 
L 189.001864 247.975362 
L 370.990398 247.975362 
L 370.990398 247.975362 
" clip-path="url(#p7d8ed8af52)" style="fill: none; stroke-dasharray: 3.7,1.6; stroke-dashoffset: 0; stroke: #4682b4"/>
   </g>
   <g id="line2d_15">
    <path d="M 46.335852 256.837183 
L 49.260668 256.773441 
L 49.585648 256.624707 
L 96.382699 256.521979 
L 98.332576 256.296664 
L 100.932412 255.742262 
L 103.857228 254.769705 
L 109.056901 252.145862 
L 109.70686 251.745558 
L 110.356819 251.37686 
L 111.006778 250.963919 
L 111.656737 250.590639 
L 112.306696 250.167961 
L 112.956655 249.794337 
L 113.606614 249.353786 
L 114.256573 248.974038 
L 114.906532 248.519714 
L 115.556491 248.139609 
L 116.20645 247.671281 
L 116.856409 247.285234 
L 117.506368 246.802182 
L 117.831348 246.667939 
L 118.806286 245.912578 
L 119.131266 245.783316 
L 120.106204 245.00285 
L 120.431184 244.87696 
L 121.406123 244.076489 
L 121.731102 243.955966 
L 122.706041 243.12268 
L 123.03102 243.006241 
L 124.005959 242.150025 
L 124.330938 242.03885 
L 125.305877 241.155645 
L 125.630856 241.047308 
L 126.605795 240.131992 
L 126.930774 240.029711 
L 127.905713 239.093098 
L 128.230693 238.995041 
L 129.205631 238.028763 
L 129.530611 237.93626 
L 130.505549 236.946782 
L 130.830529 236.856114 
L 131.805467 235.832474 
L 132.130447 235.747522 
L 133.105385 234.715287 
L 133.430365 234.64211 
L 133.755344 234.295928 
L 134.080324 233.783674 
L 134.405304 233.565817 
L 134.730283 233.487661 
L 135.705222 232.360155 
L 136.030201 232.292574 
L 136.355181 231.920179 
L 136.68016 231.376197 
L 137.00514 231.168449 
L 137.330119 231.111261 
L 137.655099 230.719887 
L 137.980078 230.136815 
L 138.305058 229.909476 
L 138.630037 229.848582 
L 138.955017 229.447928 
L 139.279996 228.848787 
L 139.604976 228.624139 
L 139.929955 228.5755 
L 140.254935 228.175852 
L 140.579915 227.570117 
L 140.904894 227.356169 
L 141.229874 227.318662 
L 141.554853 226.90034 
L 141.879833 226.255183 
L 142.204812 226.022803 
L 142.529792 225.982103 
L 142.854771 225.552149 
L 143.179751 224.891799 
L 143.50473 224.664824 
L 143.82971 224.632441 
L 144.154689 224.198944 
L 144.479669 223.532515 
L 144.804648 223.320952 
L 145.129628 223.302867 
L 145.454607 222.848138 
L 145.779587 222.138542 
L 146.104566 221.904873 
L 146.429546 221.87595 
L 146.754525 221.401351 
L 147.079505 220.672706 
L 147.404485 220.441667 
L 147.729464 220.435292 
L 148.054444 219.969057 
L 148.379423 219.237234 
L 148.704403 219.034961 
L 149.029382 219.045102 
L 149.354362 218.552791 
L 149.679341 217.773521 
L 150.004321 217.54564 
L 150.3293 217.540944 
L 150.65428 217.026024 
L 150.979259 216.227154 
L 151.304239 216.017574 
L 151.629218 216.048125 
L 151.954198 215.550931 
L 152.279177 214.740051 
L 152.604157 214.527309 
L 152.929136 214.553133 
L 153.254116 214.015412 
L 153.579096 213.156692 
L 153.904075 212.929712 
L 154.229055 212.949518 
L 154.554034 212.393192 
L 154.879014 211.518804 
L 155.203993 211.314864 
L 155.528973 211.372753 
L 155.853952 210.835109 
L 156.178932 209.958283 
L 156.503911 209.7593 
L 156.828891 209.819158 
L 157.15387 209.254528 
L 157.47885 208.358033 
L 157.803829 208.162519 
L 158.128809 208.237987 
L 158.453788 207.681591 
L 158.778768 206.743368 
L 159.103747 206.557341 
L 159.428727 206.620244 
L 159.753706 205.990512 
L 160.078686 204.981647 
L 160.403666 204.770467 
L 160.728645 204.815659 
L 161.053625 204.145994 
L 161.378604 203.106278 
L 161.703584 202.896144 
L 162.028563 202.959148 
L 162.353543 202.297402 
L 162.678522 201.277002 
L 163.003502 201.113175 
L 163.328481 201.24388 
L 163.653461 200.615752 
L 163.97844 199.598299 
L 164.30342 199.44514 
L 164.628399 199.584167 
L 164.953379 198.946553 
L 165.278358 197.865797 
L 165.603338 197.693173 
L 165.928317 197.789352 
L 166.253297 197.052051 
L 166.578277 195.908645 
L 166.903256 195.750138 
L 167.228236 195.881448 
L 167.553215 195.143264 
L 167.878195 193.978646 
L 168.203174 193.818177 
L 168.528154 193.948321 
L 168.853133 193.195466 
L 169.178113 192.03033 
L 169.503092 191.883615 
L 169.828072 192.045252 
L 170.153051 191.318229 
L 170.478031 190.185068 
L 170.80301 190.083576 
L 171.12799 190.28861 
L 171.452969 189.546289 
L 171.777949 188.326 
L 172.102928 188.220831 
L 172.427908 188.395543 
L 172.752887 187.601346 
L 173.077867 186.418007 
L 173.402847 186.455853 
L 173.727826 186.733672 
L 174.052806 186.001204 
L 174.377785 184.874021 
L 174.702765 184.984748 
L 175.027744 185.407969 
L 175.352724 184.849411 
L 175.677703 183.92297 
L 176.002683 184.162107 
L 176.327662 184.643828 
L 176.652642 184.130495 
L 176.977621 183.235655 
L 177.302601 183.522051 
L 177.62758 184.196374 
L 177.95256 183.967297 
L 178.277539 183.428852 
L 178.602519 183.916375 
L 178.927498 184.892237 
L 179.252478 185.016321 
L 179.577458 184.945861 
L 179.902437 185.774741 
L 180.227417 187.003976 
L 180.877376 188.835853 
L 182.502273 197.299729 
L 183.152232 201.001606 
L 183.802191 204.337492 
L 184.45215 208.057269 
L 185.102109 211.439058 
L 185.752068 215.276635 
L 186.402028 218.846363 
L 186.727007 221.201211 
L 187.376966 224.263894 
L 188.351905 230.133165 
L 189.001864 233.476574 
L 189.326843 235.647213 
L 189.976802 238.440346 
L 190.951741 243.769693 
L 191.6017 246.615538 
L 191.926679 248.432558 
L 193.876557 255.253633 
L 194.201536 255.925762 
L 194.526516 256.280664 
L 195.176475 256.567254 
L 196.476393 256.670052 
L 205.57582 256.679178 
L 338.492445 256.679178 
L 338.492445 256.679178 
" clip-path="url(#p7d8ed8af52)" style="fill: none; stroke-dasharray: 6.4,1.6,1,1.6; stroke-dashoffset: 0; stroke: #4682b4"/>
   </g>
   <g id="patch_3">
    <path d="M 30.103125 273.312 
L 30.103125 7.2 
" style="fill: none; stroke: #000000; stroke-width: 0.8; stroke-linejoin: miter; stroke-linecap: square"/>
   </g>
   <g id="patch_4">
    <path d="M 387.223125 273.312 
L 387.223125 7.2 
" style="fill: none; stroke: #000000; stroke-width: 0.8; stroke-linejoin: miter; stroke-linecap: square"/>
   </g>
   <g id="patch_5">
    <path d="M 30.103125 273.312 
L 387.223125 273.312 
" style="fill: none; stroke: #000000; stroke-width: 0.8; stroke-linejoin: miter; stroke-linecap: square"/>
   </g>
   <g id="patch_6">
    <path d="M 30.103125 7.2 
L 387.223125 7.2 
" style="fill: none; stroke: #000000; stroke-width: 0.8; stroke-linejoin: miter; stroke-linecap: square"/>
   </g>
   <g id="legend_1">
    <g id="patch_7">
     <path d="M 191.102812 59.234375 
L 380.223125 59.234375 
Q 382.223125 59.234375 382.223125 57.234375 
L 382.223125 14.2 
Q 382.223125 12.2 380.223125 12.2 
L 191.102812 12.2 
Q 189.102812 12.2 189.102812 14.2 
L 189.102812 57.234375 
Q 189.102812 59.234375 191.102812 59.234375 
z
" style="fill: #ffffff; opacity: 0.8; stroke: #cccccc; stroke-linejoin: miter"/>
    </g>
    <g id="line2d_16">
     <path d="M 193.102812 20.298437 
L 203.102812 20.298437 
L 213.102812 20.298437 
" style="fill: none; stroke: #4682b4; stroke-linecap: square"/>
    </g>
    <g id="text_13">
     <text style="font: 10px 'DejaVu Sans', 'Bitstream Vera Sans', 'Computer Modern Sans Serif', 'Lucida Grande', 'Verdana', 'Geneva', 'Lucid', 'Arial', 'Helvetica', 'Avant Garde', sans-serif; text-anchor: start" x="221.102812" y="23.798437" transform="rotate(-0 221.102812 23.798437)">Target response PVR</text>
    </g>
    <g id="line2d_17">
     <path d="M 193.102812 34.976562 
L 203.102812 34.976562 
L 213.102812 34.976562 
" style="fill: none; stroke-dasharray: 3.7,1.6; stroke-dashoffset: 0; stroke: #4682b4"/>
    </g>
    <g id="text_14">
     <text style="font: 10px 'DejaVu Sans', 'Bitstream Vera Sans', 'Computer Modern Sans Serif', 'Lucida Grande', 'Verdana', 'Geneva', 'Lucid', 'Arial', 'Helvetica', 'Avant Garde', sans-serif; text-anchor: start" x="221.102812" y="38.476562" transform="rotate(-0 221.102812 38.476562)">Digital prediction PVR</text>
    </g>
    <g id="line2d_18">
     <path d="M 193.102812 49.654687 
L 203.102812 49.654687 
L 213.102812 49.654687 
" style="fill: none; stroke-dasharray: 6.4,1.6,1,1.6; stroke-dashoffset: 0; stroke: #4682b4"/>
    </g>
    <g id="text_15">
     <text style="font: 10px 'DejaVu Sans', 'Bitstream Vera Sans', 'Computer Modern Sans Serif', 'Lucida Grande', 'Verdana', 'Geneva', 'Lucid', 'Arial', 'Helvetica', 'Avant Garde', sans-serif; text-anchor: start" x="221.102812" y="53.154687" transform="rotate(-0 221.102812 53.154687)">Adjusted analog prediction PVR</text>
    </g>
   </g>
  </g>
 </g>
 <defs>
  <clipPath id="p7d8ed8af52">
   <rect x="30.103125" y="7.2" width="357.12" height="266.112"/>
  </clipPath>
 </defs>
</svg>
