<?xml version="1.0" encoding="utf-8" standalone="no"?>
<!DOCTYPE svg PUBLIC "-//W3C//DTD SVG 1.1//EN"
  "http://www.w3.org/Graphics/SVG/1.1/DTD/svg11.dtd">
<svg xmlns:xlink="http://www.w3.org/1999/xlink" width="400.785625pt" height="297.190125pt" viewBox="0 0 400.785625 297.190125" xmlns="http://www.w3.org/2000/svg" version="1.1">
 <metadata>
  <rdf:RDF xmlns:dc="http://purl.org/dc/elements/1.1/" xmlns:cc="http://creativecommons.org/ns#" xmlns:rdf="http://www.w3.org/1999/02/22-rdf-syntax-ns#">
   <cc:Work>
    <dc:type rdf:resource="http://purl.org/dc/dcmitype/StillImage"/>
    <dc:date>2023-10-30T19:24:45.791368</dc:date>
    <dc:format>image/svg+xml</dc:format>
    <dc:creator>
     <cc:Agent>
      <dc:title>Matplotlib v3.8.0, https://matplotlib.org/</dc:title>
     </cc:Agent>
    </dc:creator>
   </cc:Work>
  </rdf:RDF>
 </metadata>
 <defs>
  <style type="text/css">*{stroke-linejoin: round; stroke-linecap: butt}</style>
 </defs>
 <g id="figure_1">
  <g id="patch_1">
   <path d="M 0 297.190125 
L 400.785625 297.190125 
L 400.785625 0 
L 0 0 
z
" style="fill: #ffffff"/>
  </g>
  <g id="axes_1">
   <g id="patch_2">
    <path d="M 36.465625 95.904 
L 393.585625 95.904 
L 393.585625 7.2 
L 36.465625 7.2 
z
" style="fill: #ffffff"/>
   </g>
   <g id="matplotlib.axis_1">
    <g id="xtick_1">
     <g id="line2d_1">
      <defs>
       <path id="mc565c25fc1" d="M 0 0 
L 0 3.5 
" style="stroke: #000000; stroke-width: 0.8"/>
      </defs>
      <g>
       <use xlink:href="#mc565c25fc1" x="52.698352" y="95.904" style="stroke: #000000; stroke-width: 0.8"/>
      </g>
     </g>
    </g>
    <g id="xtick_2">
     <g id="line2d_2">
      <g>
       <use xlink:href="#mc565c25fc1" x="117.694257" y="95.904" style="stroke: #000000; stroke-width: 0.8"/>
      </g>
     </g>
    </g>
    <g id="xtick_3">
     <g id="line2d_3">
      <g>
       <use xlink:href="#mc565c25fc1" x="182.690162" y="95.904" style="stroke: #000000; stroke-width: 0.8"/>
      </g>
     </g>
    </g>
    <g id="xtick_4">
     <g id="line2d_4">
      <g>
       <use xlink:href="#mc565c25fc1" x="247.686067" y="95.904" style="stroke: #000000; stroke-width: 0.8"/>
      </g>
     </g>
    </g>
    <g id="xtick_5">
     <g id="line2d_5">
      <g>
       <use xlink:href="#mc565c25fc1" x="312.681972" y="95.904" style="stroke: #000000; stroke-width: 0.8"/>
      </g>
     </g>
    </g>
    <g id="xtick_6">
     <g id="line2d_6">
      <g>
       <use xlink:href="#mc565c25fc1" x="377.677877" y="95.904" style="stroke: #000000; stroke-width: 0.8"/>
      </g>
     </g>
    </g>
   </g>
   <g id="matplotlib.axis_2">
    <g id="ytick_1">
     <g id="line2d_7">
      <defs>
       <path id="mfa553bbb48" d="M 0 0 
L -3.5 0 
" style="stroke: #000000; stroke-width: 0.8"/>
      </defs>
      <g>
       <use xlink:href="#mfa553bbb48" x="36.465625" y="91.872" style="stroke: #000000; stroke-width: 0.8"/>
      </g>
     </g>
     <g id="text_1">
      <text style="font: 10px 'DejaVu Sans', 'Bitstream Vera Sans', 'Computer Modern Sans Serif', 'Lucida Grande', 'Verdana', 'Geneva', 'Lucid', 'Arial', 'Helvetica', 'Avant Garde', sans-serif; text-anchor: end" x="29.465625" y="95.671219" transform="rotate(-0 29.465625 95.671219)">0</text>
     </g>
    </g>
    <g id="ytick_2">
     <g id="line2d_8">
      <g>
       <use xlink:href="#mfa553bbb48" x="36.465625" y="56.638486" style="stroke: #000000; stroke-width: 0.8"/>
      </g>
     </g>
     <g id="text_2">
      <text style="font: 10px 'DejaVu Sans', 'Bitstream Vera Sans', 'Computer Modern Sans Serif', 'Lucida Grande', 'Verdana', 'Geneva', 'Lucid', 'Arial', 'Helvetica', 'Avant Garde', sans-serif; text-anchor: end" x="29.465625" y="60.437705" transform="rotate(-0 29.465625 60.437705)">1</text>
     </g>
    </g>
    <g id="ytick_3">
     <g id="line2d_9">
      <g>
       <use xlink:href="#mfa553bbb48" x="36.465625" y="21.404972" style="stroke: #000000; stroke-width: 0.8"/>
      </g>
     </g>
     <g id="text_3">
      <text style="font: 10px 'DejaVu Sans', 'Bitstream Vera Sans', 'Computer Modern Sans Serif', 'Lucida Grande', 'Verdana', 'Geneva', 'Lucid', 'Arial', 'Helvetica', 'Avant Garde', sans-serif; text-anchor: end" x="29.465625" y="25.204191" transform="rotate(-0 29.465625 25.204191)">2</text>
     </g>
    </g>
   </g>
   <g id="line2d_10">
    <path d="M 52.698352 91.872 
L 117.694257 91.867067 
L 182.365183 42.786783 
L 182.690162 91.872 
L 377.352898 91.872 
L 377.352898 91.872 
" clip-path="url(#p6d7b79b309)" style="fill: none; stroke: #ff4500; stroke-width: 1.5; stroke-linecap: square"/>
   </g>
   <g id="line2d_11">
    <path d="M 52.698352 91.872 
L 117.694257 91.867067 
L 182.365183 42.786783 
L 182.690162 91.872 
L 377.352898 91.872 
L 377.352898 91.872 
" clip-path="url(#p6d7b79b309)" style="fill: none; stroke-dasharray: 5.55,2.4; stroke-dashoffset: 0; stroke: #c71585; stroke-width: 1.5"/>
   </g>
   <g id="line2d_12">
    <path d="M 52.698352 91.872 
L 117.694257 91.863896 
L 182.365183 11.232 
L 182.690162 91.872 
L 377.352898 91.872 
L 377.352898 91.872 
" clip-path="url(#p6d7b79b309)" style="fill: none; stroke-dasharray: 9.6,2.4,1.5,2.4; stroke-dashoffset: 0; stroke: #4682b4; stroke-width: 1.5"/>
   </g>
   <g id="line2d_13">
    <path d="M 52.698352 91.872 
L 117.694257 91.863896 
L 182.365183 11.232 
L 182.690162 91.872 
L 377.352898 91.872 
L 377.352898 91.872 
" clip-path="url(#p6d7b79b309)" style="fill: none; stroke-dasharray: 2.5,4.125; stroke-dashoffset: 0; stroke: #6b8e23; stroke-width: 2.5"/>
   </g>
   <g id="patch_3">
    <path d="M 36.465625 95.904 
L 36.465625 7.2 
" style="fill: none; stroke: #000000; stroke-width: 0.8; stroke-linejoin: miter; stroke-linecap: square"/>
   </g>
   <g id="patch_4">
    <path d="M 393.585625 95.904 
L 393.585625 7.2 
" style="fill: none; stroke: #000000; stroke-width: 0.8; stroke-linejoin: miter; stroke-linecap: square"/>
   </g>
   <g id="patch_5">
    <path d="M 36.465625 95.904 
L 393.585625 95.904 
" style="fill: none; stroke: #000000; stroke-width: 0.8; stroke-linejoin: miter; stroke-linecap: square"/>
   </g>
   <g id="patch_6">
    <path d="M 36.465625 7.2 
L 393.585625 7.2 
" style="fill: none; stroke: #000000; stroke-width: 0.8; stroke-linejoin: miter; stroke-linecap: square"/>
   </g>
   <g id="legend_1">
    <g id="patch_7">
     <path d="M 322.421563 73.9125 
L 386.585625 73.9125 
Q 388.585625 73.9125 388.585625 71.9125 
L 388.585625 14.2 
Q 388.585625 12.2 386.585625 12.2 
L 322.421563 12.2 
Q 320.421563 12.2 320.421563 14.2 
L 320.421563 71.9125 
Q 320.421563 73.9125 322.421563 73.9125 
z
" style="fill: #ffffff; opacity: 0.8; stroke: #cccccc; stroke-linejoin: miter"/>
    </g>
    <g id="line2d_14">
     <path d="M 324.421563 20.298437 
L 334.421563 20.298437 
L 344.421563 20.298437 
" style="fill: none; stroke: #ff4500; stroke-width: 1.5; stroke-linecap: square"/>
    </g>
    <g id="text_4">
     <text style="font: 10px 'DejaVu Sans', 'Bitstream Vera Sans', 'Computer Modern Sans Serif', 'Lucida Grande', 'Verdana', 'Geneva', 'Lucid', 'Arial', 'Helvetica', 'Avant Garde', sans-serif; text-anchor: start" x="352.421563" y="23.798437" transform="rotate(-0 352.421563 23.798437)">PLML2</text>
    </g>
    <g id="line2d_15">
     <path d="M 324.421563 34.976562 
L 334.421563 34.976562 
L 344.421563 34.976562 
" style="fill: none; stroke-dasharray: 5.55,2.4; stroke-dashoffset: 0; stroke: #c71585; stroke-width: 1.5"/>
    </g>
    <g id="text_5">
     <text style="font: 10px 'DejaVu Sans', 'Bitstream Vera Sans', 'Computer Modern Sans Serif', 'Lucida Grande', 'Verdana', 'Geneva', 'Lucid', 'Arial', 'Helvetica', 'Avant Garde', sans-serif; text-anchor: start" x="352.421563" y="38.476562" transform="rotate(-0 352.421563 38.476562)">PLMR</text>
    </g>
    <g id="line2d_16">
     <path d="M 324.421563 49.654687 
L 334.421563 49.654687 
L 344.421563 49.654687 
" style="fill: none; stroke-dasharray: 9.6,2.4,1.5,2.4; stroke-dashoffset: 0; stroke: #4682b4; stroke-width: 1.5"/>
    </g>
    <g id="text_6">
     <text style="font: 10px 'DejaVu Sans', 'Bitstream Vera Sans', 'Computer Modern Sans Serif', 'Lucida Grande', 'Verdana', 'Geneva', 'Lucid', 'Arial', 'Helvetica', 'Avant Garde', sans-serif; text-anchor: start" x="352.421563" y="53.154687" transform="rotate(-0 352.421563 53.154687)">AVBL</text>
    </g>
    <g id="line2d_17">
     <path d="M 324.421563 64.332812 
L 334.421563 64.332812 
L 344.421563 64.332812 
" style="fill: none; stroke-dasharray: 2.5,4.125; stroke-dashoffset: 0; stroke: #6b8e23; stroke-width: 2.5"/>
    </g>
    <g id="text_7">
     <text style="font: 10px 'DejaVu Sans', 'Bitstream Vera Sans', 'Computer Modern Sans Serif', 'Lucida Grande', 'Verdana', 'Geneva', 'Lucid', 'Arial', 'Helvetica', 'Avant Garde', sans-serif; text-anchor: start" x="352.421563" y="67.832812" transform="rotate(-0 352.421563 67.832812)">AVBR</text>
    </g>
   </g>
  </g>
  <g id="axes_2">
   <g id="patch_8">
    <path d="M 36.465625 273.312 
L 393.585625 273.312 
L 393.585625 95.904 
L 36.465625 95.904 
z
" style="fill: #ffffff"/>
   </g>
   <g id="matplotlib.axis_3">
    <g id="xtick_7">
     <g id="line2d_18">
      <g>
       <use xlink:href="#mc565c25fc1" x="52.698352" y="273.312" style="stroke: #000000; stroke-width: 0.8"/>
      </g>
     </g>
     <g id="text_8">
      <text style="font: 10px 'DejaVu Sans', 'Bitstream Vera Sans', 'Computer Modern Sans Serif', 'Lucida Grande', 'Verdana', 'Geneva', 'Lucid', 'Arial', 'Helvetica', 'Avant Garde', sans-serif; text-anchor: middle" x="52.698352" y="287.910437" transform="rotate(-0 52.698352 287.910437)">0</text>
     </g>
    </g>
    <g id="xtick_8">
     <g id="line2d_19">
      <g>
       <use xlink:href="#mc565c25fc1" x="117.694257" y="273.312" style="stroke: #000000; stroke-width: 0.8"/>
      </g>
     </g>
     <g id="text_9">
      <text style="font: 10px 'DejaVu Sans', 'Bitstream Vera Sans', 'Computer Modern Sans Serif', 'Lucida Grande', 'Verdana', 'Geneva', 'Lucid', 'Arial', 'Helvetica', 'Avant Garde', sans-serif; text-anchor: middle" x="117.694257" y="287.910437" transform="rotate(-0 117.694257 287.910437)">100</text>
     </g>
    </g>
    <g id="xtick_9">
     <g id="line2d_20">
      <g>
       <use xlink:href="#mc565c25fc1" x="182.690162" y="273.312" style="stroke: #000000; stroke-width: 0.8"/>
      </g>
     </g>
     <g id="text_10">
      <text style="font: 10px 'DejaVu Sans', 'Bitstream Vera Sans', 'Computer Modern Sans Serif', 'Lucida Grande', 'Verdana', 'Geneva', 'Lucid', 'Arial', 'Helvetica', 'Avant Garde', sans-serif; text-anchor: middle" x="182.690162" y="287.910437" transform="rotate(-0 182.690162 287.910437)">200</text>
     </g>
    </g>
    <g id="xtick_10">
     <g id="line2d_21">
      <g>
       <use xlink:href="#mc565c25fc1" x="247.686067" y="273.312" style="stroke: #000000; stroke-width: 0.8"/>
      </g>
     </g>
     <g id="text_11">
      <text style="font: 10px 'DejaVu Sans', 'Bitstream Vera Sans', 'Computer Modern Sans Serif', 'Lucida Grande', 'Verdana', 'Geneva', 'Lucid', 'Arial', 'Helvetica', 'Avant Garde', sans-serif; text-anchor: middle" x="247.686067" y="287.910437" transform="rotate(-0 247.686067 287.910437)">300</text>
     </g>
    </g>
    <g id="xtick_11">
     <g id="line2d_22">
      <g>
       <use xlink:href="#mc565c25fc1" x="312.681972" y="273.312" style="stroke: #000000; stroke-width: 0.8"/>
      </g>
     </g>
     <g id="text_12">
      <text style="font: 10px 'DejaVu Sans', 'Bitstream Vera Sans', 'Computer Modern Sans Serif', 'Lucida Grande', 'Verdana', 'Geneva', 'Lucid', 'Arial', 'Helvetica', 'Avant Garde', sans-serif; text-anchor: middle" x="312.681972" y="287.910437" transform="rotate(-0 312.681972 287.910437)">400</text>
     </g>
    </g>
    <g id="xtick_12">
     <g id="line2d_23">
      <g>
       <use xlink:href="#mc565c25fc1" x="377.677877" y="273.312" style="stroke: #000000; stroke-width: 0.8"/>
      </g>
     </g>
     <g id="text_13">
      <text style="font: 10px 'DejaVu Sans', 'Bitstream Vera Sans', 'Computer Modern Sans Serif', 'Lucida Grande', 'Verdana', 'Geneva', 'Lucid', 'Arial', 'Helvetica', 'Avant Garde', sans-serif; text-anchor: middle" x="377.677877" y="287.910437" transform="rotate(-0 377.677877 287.910437)">500</text>
     </g>
    </g>
   </g>
   <g id="matplotlib.axis_4">
    <g id="ytick_4">
     <g id="line2d_24">
      <g>
       <use xlink:href="#mfa553bbb48" x="36.465625" y="256.52635" style="stroke: #000000; stroke-width: 0.8"/>
      </g>
     </g>
     <g id="text_14">
      <text style="font: 10px 'DejaVu Sans', 'Bitstream Vera Sans', 'Computer Modern Sans Serif', 'Lucida Grande', 'Verdana', 'Geneva', 'Lucid', 'Arial', 'Helvetica', 'Avant Garde', sans-serif; text-anchor: end" x="29.465625" y="260.325569" transform="rotate(-0 29.465625 260.325569)">0.00</text>
     </g>
    </g>
    <g id="ytick_5">
     <g id="line2d_25">
      <g>
       <use xlink:href="#mfa553bbb48" x="36.465625" y="232.893332" style="stroke: #000000; stroke-width: 0.8"/>
      </g>
     </g>
     <g id="text_15">
      <text style="font: 10px 'DejaVu Sans', 'Bitstream Vera Sans', 'Computer Modern Sans Serif', 'Lucida Grande', 'Verdana', 'Geneva', 'Lucid', 'Arial', 'Helvetica', 'Avant Garde', sans-serif; text-anchor: end" x="29.465625" y="236.692551" transform="rotate(-0 29.465625 236.692551)">0.25</text>
     </g>
    </g>
    <g id="ytick_6">
     <g id="line2d_26">
      <g>
       <use xlink:href="#mfa553bbb48" x="36.465625" y="209.260315" style="stroke: #000000; stroke-width: 0.8"/>
      </g>
     </g>
     <g id="text_16">
      <text style="font: 10px 'DejaVu Sans', 'Bitstream Vera Sans', 'Computer Modern Sans Serif', 'Lucida Grande', 'Verdana', 'Geneva', 'Lucid', 'Arial', 'Helvetica', 'Avant Garde', sans-serif; text-anchor: end" x="29.465625" y="213.059534" transform="rotate(-0 29.465625 213.059534)">0.50</text>
     </g>
    </g>
    <g id="ytick_7">
     <g id="line2d_27">
      <g>
       <use xlink:href="#mfa553bbb48" x="36.465625" y="185.627298" style="stroke: #000000; stroke-width: 0.8"/>
      </g>
     </g>
     <g id="text_17">
      <text style="font: 10px 'DejaVu Sans', 'Bitstream Vera Sans', 'Computer Modern Sans Serif', 'Lucida Grande', 'Verdana', 'Geneva', 'Lucid', 'Arial', 'Helvetica', 'Avant Garde', sans-serif; text-anchor: end" x="29.465625" y="189.426516" transform="rotate(-0 29.465625 189.426516)">0.75</text>
     </g>
    </g>
    <g id="ytick_8">
     <g id="line2d_28">
      <g>
       <use xlink:href="#mfa553bbb48" x="36.465625" y="161.99428" style="stroke: #000000; stroke-width: 0.8"/>
      </g>
     </g>
     <g id="text_18">
      <text style="font: 10px 'DejaVu Sans', 'Bitstream Vera Sans', 'Computer Modern Sans Serif', 'Lucida Grande', 'Verdana', 'Geneva', 'Lucid', 'Arial', 'Helvetica', 'Avant Garde', sans-serif; text-anchor: end" x="29.465625" y="165.793499" transform="rotate(-0 29.465625 165.793499)">1.00</text>
     </g>
    </g>
    <g id="ytick_9">
     <g id="line2d_29">
      <g>
       <use xlink:href="#mfa553bbb48" x="36.465625" y="138.361263" style="stroke: #000000; stroke-width: 0.8"/>
      </g>
     </g>
     <g id="text_19">
      <text style="font: 10px 'DejaVu Sans', 'Bitstream Vera Sans', 'Computer Modern Sans Serif', 'Lucida Grande', 'Verdana', 'Geneva', 'Lucid', 'Arial', 'Helvetica', 'Avant Garde', sans-serif; text-anchor: end" x="29.465625" y="142.160481" transform="rotate(-0 29.465625 142.160481)">1.25</text>
     </g>
    </g>
    <g id="ytick_10">
     <g id="line2d_30">
      <g>
       <use xlink:href="#mfa553bbb48" x="36.465625" y="114.728245" style="stroke: #000000; stroke-width: 0.8"/>
      </g>
     </g>
     <g id="text_20">
      <text style="font: 10px 'DejaVu Sans', 'Bitstream Vera Sans', 'Computer Modern Sans Serif', 'Lucida Grande', 'Verdana', 'Geneva', 'Lucid', 'Arial', 'Helvetica', 'Avant Garde', sans-serif; text-anchor: end" x="29.465625" y="118.527464" transform="rotate(-0 29.465625 118.527464)">1.50</text>
     </g>
    </g>
   </g>
   <g id="line2d_31">
    <path d="M 52.698352 262.670934 
L 119.319155 262.574163 
L 120.944053 262.221261 
L 122.56895 261.598785 
L 124.193848 260.718992 
L 125.818745 259.601525 
L 127.768623 257.980932 
L 130.043479 255.751307 
L 132.318336 253.22258 
L 134.918172 249.96993 
L 138.167967 245.492614 
L 141.417763 240.626585 
L 147.267394 231.381765 
L 155.066903 217.368775 
L 162.216452 204.060512 
L 170.015961 189.028363 
L 181.390244 166.5638 
L 182.690162 163.956208 
L 183.015142 164.427602 
L 183.665101 166.645939 
L 184.965019 172.608161 
L 189.189753 192.830641 
L 191.13963 200.943034 
L 193.089507 208.114341 
L 195.039384 214.416623 
L 196.989261 219.946551 
L 198.939139 224.799629 
L 200.889016 229.062364 
L 202.838893 232.810721 
L 204.78877 236.110656 
L 206.738647 239.019275 
L 209.013504 241.98364 
L 211.28836 244.549619 
L 213.563217 246.774185 
L 215.838074 248.705723 
L 218.43791 250.606858 
L 221.037746 252.230537 
L 223.962562 253.778996 
L 226.887378 255.081583 
L 230.137173 256.290921 
L 233.711948 257.3849 
L 237.611702 258.351622 
L 242.161415 259.244595 
L 247.361088 260.028297 
L 253.535699 260.717243 
L 260.685248 261.283046 
L 269.459695 261.749402 
L 280.833979 262.121176 
L 296.432996 262.394376 
L 320.481481 262.571515 
L 367.928492 262.656636 
L 377.352898 262.661131 
L 377.352898 262.661131 
" clip-path="url(#p366a02220d)" style="fill: none; stroke: #66cdaa; stroke-linecap: square"/>
   </g>
   <g id="line2d_32">
    <path d="M 52.698352 260.220106 
L 53.023332 258.399486 
L 53.348311 257.327484 
L 53.673291 256.697451 
L 54.32325 256.110831 
L 54.973209 255.909562 
L 56.273127 255.817311 
L 64.072636 255.805244 
L 117.694257 255.800382 
L 118.019237 255.55582 
L 118.669196 254.664579 
L 120.294093 251.726068 
L 125.168786 242.767666 
L 129.068541 236.066708 
L 132.968295 229.810306 
L 137.518008 222.992588 
L 141.092783 218.002889 
L 145.642496 212.160041 
L 150.517189 206.271003 
L 158.316698 197.377199 
L 170.66592 183.529949 
L 173.915715 179.412391 
L 176.190572 176.856083 
L 177.815469 175.143852 
L 179.440367 173.414116 
L 182.040203 171.18708 
L 182.365183 171.002515 
L 182.690162 103.968 
L 183.340121 189.231664 
L 183.665101 214.673067 
L 183.99008 230.832997 
L 184.31506 240.771206 
L 184.640039 246.807587 
L 184.965019 250.442899 
L 185.289998 252.621087 
L 185.614978 253.920123 
L 185.939958 254.691963 
L 186.589917 255.419298 
L 187.239876 255.672283 
L 188.539794 255.789671 
L 194.714405 255.805244 
L 377.352898 255.805244 
L 377.352898 255.805244 
" clip-path="url(#p366a02220d)" style="fill: none; stroke-dasharray: 3.7,1.6; stroke-dashoffset: 0; stroke: #b22222"/>
   </g>
   <g id="line2d_33">
    <path d="M 52.698352 265.144832 
L 69.922267 265.221632 
L 121.269032 265.125835 
L 126.468704 264.743214 
L 133.943234 263.628206 
L 137.518008 262.926774 
L 139.467885 262.500476 
L 140.117844 262.368751 
L 142.067722 261.897606 
L 142.717681 261.75951 
L 143.36764 261.578418 
L 144.017599 261.436431 
L 144.667558 261.24318 
L 144.992537 261.109596 
L 145.642496 261.03206 
L 146.292455 260.755147 
L 146.942415 260.679707 
L 147.592374 260.385352 
L 148.242333 260.312749 
L 148.892292 260.000067 
L 149.542251 259.931043 
L 150.19221 259.600965 
L 150.842169 259.534975 
L 151.492128 259.18685 
L 152.142087 259.125767 
L 152.792046 258.75873 
L 153.442005 258.698531 
L 154.091964 258.310813 
L 154.741923 258.259131 
L 155.391882 257.860879 
L 156.041841 257.818838 
L 156.6918 257.379055 
L 157.01678 257.414414 
L 157.341759 257.333191 
L 157.991718 256.87687 
L 158.316698 256.921846 
L 158.641677 256.845781 
L 159.291636 256.380818 
L 159.616616 256.433308 
L 159.941596 256.346887 
L 160.591555 255.831695 
L 160.916534 255.893939 
L 161.241514 255.810691 
L 161.891473 255.281743 
L 162.216452 255.351489 
L 162.541432 255.274199 
L 163.191391 254.736986 
L 163.51637 254.816792 
L 163.84135 254.728965 
L 164.491309 254.135495 
L 164.816288 254.225745 
L 165.141268 254.141072 
L 165.791227 253.535982 
L 166.116206 253.635868 
L 166.441186 253.555041 
L 167.091145 252.941616 
L 167.416125 253.054683 
L 167.741104 252.961561 
L 168.391063 252.282596 
L 168.716043 252.404435 
L 169.041022 252.309657 
L 169.690981 251.615324 
L 170.015961 251.758168 
L 170.34094 251.682248 
L 170.990899 250.982573 
L 171.315879 251.136547 
L 171.640858 251.041958 
L 172.290817 250.266961 
L 172.615797 250.428978 
L 172.940777 250.332136 
L 173.590736 249.555186 
L 173.915715 249.743788 
L 174.240695 249.670286 
L 174.890654 248.845713 
L 175.215633 249.041708 
L 175.540613 248.945269 
L 176.190572 248.066822 
L 176.515551 248.27175 
L 176.840531 248.175128 
L 177.49049 247.29733 
L 177.815469 247.532568 
L 178.140449 247.462625 
L 178.790408 246.541213 
L 179.115387 246.786844 
L 179.440367 246.694963 
L 180.090326 245.741651 
L 180.415306 246.002081 
L 180.740285 245.92186 
L 181.390244 244.960206 
L 181.715224 245.247594 
L 182.040203 245.159487 
L 182.690162 244.071288 
L 183.015142 244.364971 
L 183.340121 244.248902 
L 183.99008 243.118348 
L 184.31506 243.429595 
L 184.640039 243.327033 
L 185.289998 242.233027 
L 185.614978 242.586952 
L 185.939958 242.531493 
L 186.589917 241.373615 
L 186.914896 241.742882 
L 187.239876 241.667046 
L 187.889835 240.468793 
L 188.214814 240.841535 
L 188.539794 240.758596 
L 189.189753 239.488209 
L 189.514732 239.901577 
L 189.839712 239.830352 
L 190.489671 238.4785 
L 190.81465 238.907553 
L 191.13963 238.811972 
L 191.789589 237.464116 
L 192.114568 237.908798 
L 192.439548 237.85768 
L 193.089507 236.548581 
L 193.414487 237.033837 
L 193.739466 236.991792 
L 194.389425 235.480404 
L 194.714405 235.925815 
L 195.039384 235.805687 
L 195.689343 234.247186 
L 196.014323 234.753509 
L 196.339302 234.697849 
L 196.664282 233.76222 
L 196.989261 233.180649 
L 197.314241 233.733468 
L 197.63922 233.712375 
L 197.9642 232.807489 
L 198.289179 232.263828 
L 198.614159 232.810428 
L 198.939139 232.793225 
L 199.264118 231.889348 
L 199.589098 231.346413 
L 199.914077 231.92815 
L 200.239057 232.062915 
L 200.564036 231.310241 
L 200.889016 230.978351 
L 201.213995 231.586493 
L 201.538975 231.924259 
L 201.863954 231.385356 
L 202.188934 231.340461 
L 202.513913 232.074441 
L 202.838893 232.514769 
L 203.163872 232.580495 
L 203.813831 234.204183 
L 204.138811 235.259051 
L 204.46379 235.457756 
L 205.113749 237.233725 
L 205.438729 238.310297 
L 205.763709 238.516846 
L 206.413668 240.300744 
L 206.738647 241.378158 
L 207.063627 241.584984 
L 207.713586 243.446793 
L 208.038565 244.650069 
L 208.363545 244.897565 
L 209.013504 246.949375 
L 209.338483 248.190223 
L 209.663463 248.44506 
L 210.313422 250.512584 
L 210.638401 251.756247 
L 210.963381 252.01037 
L 211.61334 254.021628 
L 211.93832 255.229592 
L 212.263299 255.490694 
L 212.913258 257.496521 
L 213.238238 258.703674 
L 213.563217 258.965878 
L 214.213176 260.71229 
L 214.538156 261.743714 
L 214.863135 261.986526 
L 215.513094 263.373876 
L 215.838074 264.174366 
L 216.163053 264.366314 
L 216.488033 264.948762 
L 217.137992 265.168021 
L 218.43791 265.242008 
L 231.762071 265.248 
L 361.103921 265.248 
L 361.103921 265.248 
" clip-path="url(#p366a02220d)" style="fill: none; stroke-dasharray: 6.4,1.6,1,1.6; stroke-dashoffset: 0; stroke: #000080"/>
   </g>
   <g id="patch_9">
    <path d="M 36.465625 273.312 
L 36.465625 95.904 
" style="fill: none; stroke: #000000; stroke-width: 0.8; stroke-linejoin: miter; stroke-linecap: square"/>
   </g>
   <g id="patch_10">
    <path d="M 393.585625 273.312 
L 393.585625 95.904 
" style="fill: none; stroke: #000000; stroke-width: 0.8; stroke-linejoin: miter; stroke-linecap: square"/>
   </g>
   <g id="patch_11">
    <path d="M 36.465625 273.312 
L 393.585625 273.312 
" style="fill: none; stroke: #000000; stroke-width: 0.8; stroke-linejoin: miter; stroke-linecap: square"/>
   </g>
   <g id="patch_12">
    <path d="M 36.465625 95.904 
L 393.585625 95.904 
" style="fill: none; stroke: #000000; stroke-width: 0.8; stroke-linejoin: miter; stroke-linecap: square"/>
   </g>
   <g id="legend_2">
    <g id="patch_13">
     <path d="M 192.480938 147.938375 
L 386.585625 147.938375 
Q 388.585625 147.938375 388.585625 145.938375 
L 388.585625 102.904 
Q 388.585625 100.904 386.585625 100.904 
L 192.480938 100.904 
Q 190.480938 100.904 190.480938 102.904 
L 190.480938 145.938375 
Q 190.480938 147.938375 192.480938 147.938375 
z
" style="fill: #ffffff; opacity: 0.8; stroke: #cccccc; stroke-linejoin: miter"/>
    </g>
    <g id="line2d_34">
     <path d="M 194.480938 109.002437 
L 204.480938 109.002437 
L 214.480938 109.002437 
" style="fill: none; stroke: #66cdaa; stroke-linecap: square"/>
    </g>
    <g id="text_21">
     <text style="font: 10px 'DejaVu Sans', 'Bitstream Vera Sans', 'Computer Modern Sans Serif', 'Lucida Grande', 'Verdana', 'Geneva', 'Lucid', 'Arial', 'Helvetica', 'Avant Garde', sans-serif; text-anchor: start" x="222.480938" y="112.502437" transform="rotate(-0 222.480938 112.502437)">Target response LUAL</text>
    </g>
    <g id="line2d_35">
     <path d="M 194.480938 123.680562 
L 204.480938 123.680562 
L 214.480938 123.680562 
" style="fill: none; stroke-dasharray: 3.7,1.6; stroke-dashoffset: 0; stroke: #b22222"/>
    </g>
    <g id="text_22">
     <text style="font: 10px 'DejaVu Sans', 'Bitstream Vera Sans', 'Computer Modern Sans Serif', 'Lucida Grande', 'Verdana', 'Geneva', 'Lucid', 'Arial', 'Helvetica', 'Avant Garde', sans-serif; text-anchor: start" x="222.480938" y="127.180562" transform="rotate(-0 222.480938 127.180562)">Digital prediction LUAL</text>
    </g>
    <g id="line2d_36">
     <path d="M 194.480938 138.358687 
L 204.480938 138.358687 
L 214.480938 138.358687 
" style="fill: none; stroke-dasharray: 6.4,1.6,1,1.6; stroke-dashoffset: 0; stroke: #000080"/>
    </g>
    <g id="text_23">
     <text style="font: 10px 'DejaVu Sans', 'Bitstream Vera Sans', 'Computer Modern Sans Serif', 'Lucida Grande', 'Verdana', 'Geneva', 'Lucid', 'Arial', 'Helvetica', 'Avant Garde', sans-serif; text-anchor: start" x="222.480938" y="141.858687" transform="rotate(-0 222.480938 141.858687)">Adjusted analog prediction LUAL</text>
    </g>
   </g>
  </g>
 </g>
 <defs>
  <clipPath id="p6d7b79b309">
   <rect x="36.465625" y="7.2" width="357.12" height="88.704"/>
  </clipPath>
  <clipPath id="p366a02220d">
   <rect x="36.465625" y="95.904" width="357.12" height="177.408"/>
  </clipPath>
 </defs>
</svg>
