<?xml version="1.0" encoding="utf-8" standalone="no"?>
<!DOCTYPE svg PUBLIC "-//W3C//DTD SVG 1.1//EN"
  "http://www.w3.org/Graphics/SVG/1.1/DTD/svg11.dtd">
<svg xmlns:xlink="http://www.w3.org/1999/xlink" width="394.423125pt" height="297.190125pt" viewBox="0 0 394.423125 297.190125" xmlns="http://www.w3.org/2000/svg" version="1.1">
 <metadata>
  <rdf:RDF xmlns:dc="http://purl.org/dc/elements/1.1/" xmlns:cc="http://creativecommons.org/ns#" xmlns:rdf="http://www.w3.org/1999/02/22-rdf-syntax-ns#">
   <cc:Work>
    <dc:type rdf:resource="http://purl.org/dc/dcmitype/StillImage"/>
    <dc:date>2023-10-30T19:25:12.495345</dc:date>
    <dc:format>image/svg+xml</dc:format>
    <dc:creator>
     <cc:Agent>
      <dc:title>Matplotlib v3.8.0, https://matplotlib.org/</dc:title>
     </cc:Agent>
    </dc:creator>
   </cc:Work>
  </rdf:RDF>
 </metadata>
 <defs>
  <style type="text/css">*{stroke-linejoin: round; stroke-linecap: butt}</style>
 </defs>
 <g id="figure_1">
  <g id="patch_1">
   <path d="M 0 297.190125 
L 394.423125 297.190125 
L 394.423125 0 
L 0 0 
z
" style="fill: #ffffff"/>
  </g>
  <g id="axes_1">
   <g id="patch_2">
    <path d="M 30.103125 95.904 
L 387.223125 95.904 
L 387.223125 7.2 
L 30.103125 7.2 
z
" style="fill: #ffffff"/>
   </g>
   <g id="matplotlib.axis_1">
    <g id="xtick_1">
     <g id="line2d_1">
      <defs>
       <path id="m1fb1a975a6" d="M 0 0 
L 0 3.5 
" style="stroke: #000000; stroke-width: 0.8"/>
      </defs>
      <g>
       <use xlink:href="#m1fb1a975a6" x="46.335852" y="95.904" style="stroke: #000000; stroke-width: 0.8"/>
      </g>
     </g>
    </g>
    <g id="xtick_2">
     <g id="line2d_2">
      <g>
       <use xlink:href="#m1fb1a975a6" x="111.331757" y="95.904" style="stroke: #000000; stroke-width: 0.8"/>
      </g>
     </g>
    </g>
    <g id="xtick_3">
     <g id="line2d_3">
      <g>
       <use xlink:href="#m1fb1a975a6" x="176.327662" y="95.904" style="stroke: #000000; stroke-width: 0.8"/>
      </g>
     </g>
    </g>
    <g id="xtick_4">
     <g id="line2d_4">
      <g>
       <use xlink:href="#m1fb1a975a6" x="241.323567" y="95.904" style="stroke: #000000; stroke-width: 0.8"/>
      </g>
     </g>
    </g>
    <g id="xtick_5">
     <g id="line2d_5">
      <g>
       <use xlink:href="#m1fb1a975a6" x="306.319472" y="95.904" style="stroke: #000000; stroke-width: 0.8"/>
      </g>
     </g>
    </g>
    <g id="xtick_6">
     <g id="line2d_6">
      <g>
       <use xlink:href="#m1fb1a975a6" x="371.315377" y="95.904" style="stroke: #000000; stroke-width: 0.8"/>
      </g>
     </g>
    </g>
   </g>
   <g id="matplotlib.axis_2">
    <g id="ytick_1">
     <g id="line2d_7">
      <defs>
       <path id="m3bb9df5030" d="M 0 0 
L -3.5 0 
" style="stroke: #000000; stroke-width: 0.8"/>
      </defs>
      <g>
       <use xlink:href="#m3bb9df5030" x="30.103125" y="91.872" style="stroke: #000000; stroke-width: 0.8"/>
      </g>
     </g>
     <g id="text_1">
      <text style="font: 10px 'DejaVu Sans', 'Bitstream Vera Sans', 'Computer Modern Sans Serif', 'Lucida Grande', 'Verdana', 'Geneva', 'Lucid', 'Arial', 'Helvetica', 'Avant Garde', sans-serif; text-anchor: end" x="23.103125" y="95.671219" transform="rotate(-0 23.103125 95.671219)">0</text>
     </g>
    </g>
    <g id="ytick_2">
     <g id="line2d_8">
      <g>
       <use xlink:href="#m3bb9df5030" x="30.103125" y="56.81113" style="stroke: #000000; stroke-width: 0.8"/>
      </g>
     </g>
     <g id="text_2">
      <text style="font: 10px 'DejaVu Sans', 'Bitstream Vera Sans', 'Computer Modern Sans Serif', 'Lucida Grande', 'Verdana', 'Geneva', 'Lucid', 'Arial', 'Helvetica', 'Avant Garde', sans-serif; text-anchor: end" x="23.103125" y="60.610349" transform="rotate(-0 23.103125 60.610349)">1</text>
     </g>
    </g>
    <g id="ytick_3">
     <g id="line2d_9">
      <g>
       <use xlink:href="#m3bb9df5030" x="30.103125" y="21.750261" style="stroke: #000000; stroke-width: 0.8"/>
      </g>
     </g>
     <g id="text_3">
      <text style="font: 10px 'DejaVu Sans', 'Bitstream Vera Sans', 'Computer Modern Sans Serif', 'Lucida Grande', 'Verdana', 'Geneva', 'Lucid', 'Arial', 'Helvetica', 'Avant Garde', sans-serif; text-anchor: end" x="23.103125" y="25.54948" transform="rotate(-0 23.103125 25.54948)">2</text>
     </g>
    </g>
   </g>
   <g id="line2d_10">
    <path d="M 46.335852 91.872 
L 111.006778 91.872 
L 111.331757 42.786783 
L 124.005959 42.786783 
L 124.330938 91.872 
L 370.990398 91.872 
L 370.990398 91.872 
" clip-path="url(#pee45fec384)" style="fill: none; stroke: #ff4500; stroke-width: 1.5; stroke-linecap: square"/>
   </g>
   <g id="line2d_11">
    <path d="M 46.335852 91.872 
L 111.006778 91.872 
L 111.331757 42.786783 
L 240.998588 42.786783 
L 241.323567 91.872 
L 370.990398 91.872 
L 370.990398 91.872 
" clip-path="url(#pee45fec384)" style="fill: none; stroke-dasharray: 5.55,2.4; stroke-dashoffset: 0; stroke: #c71585; stroke-width: 1.5"/>
   </g>
   <g id="line2d_12">
    <path d="M 46.335852 91.872 
L 111.006778 91.872 
L 111.331757 11.232 
L 143.50473 11.232 
L 143.82971 91.872 
L 176.002683 91.872 
L 176.327662 11.232 
L 208.500635 11.232 
L 208.825615 91.872 
L 240.998588 91.872 
L 241.323567 11.232 
L 273.49654 11.232 
L 273.82152 91.872 
L 370.990398 91.872 
L 370.990398 91.872 
" clip-path="url(#pee45fec384)" style="fill: none; stroke-dasharray: 9.6,2.4,1.5,2.4; stroke-dashoffset: 0; stroke: #4682b4; stroke-width: 1.5"/>
   </g>
   <g id="line2d_13">
    <path d="M 46.335852 91.872 
L 111.331757 91.855872 
L 143.82971 11.232 
L 176.327662 91.855872 
L 208.825615 11.232 
L 241.323567 91.855872 
L 273.82152 11.232 
L 306.319472 91.872 
L 370.990398 91.872 
L 370.990398 91.872 
" clip-path="url(#pee45fec384)" style="fill: none; stroke-dasharray: 2.5,4.125; stroke-dashoffset: 0; stroke: #6b8e23; stroke-width: 2.5"/>
   </g>
   <g id="patch_3">
    <path d="M 30.103125 95.904 
L 30.103125 7.2 
" style="fill: none; stroke: #000000; stroke-width: 0.8; stroke-linejoin: miter; stroke-linecap: square"/>
   </g>
   <g id="patch_4">
    <path d="M 387.223125 95.904 
L 387.223125 7.2 
" style="fill: none; stroke: #000000; stroke-width: 0.8; stroke-linejoin: miter; stroke-linecap: square"/>
   </g>
   <g id="patch_5">
    <path d="M 30.103125 95.904 
L 387.223125 95.904 
" style="fill: none; stroke: #000000; stroke-width: 0.8; stroke-linejoin: miter; stroke-linecap: square"/>
   </g>
   <g id="patch_6">
    <path d="M 30.103125 7.2 
L 387.223125 7.2 
" style="fill: none; stroke: #000000; stroke-width: 0.8; stroke-linejoin: miter; stroke-linecap: square"/>
   </g>
   <g id="legend_1">
    <g id="patch_7">
     <path d="M 316.059062 73.9125 
L 380.223125 73.9125 
Q 382.223125 73.9125 382.223125 71.9125 
L 382.223125 14.2 
Q 382.223125 12.2 380.223125 12.2 
L 316.059062 12.2 
Q 314.059062 12.2 314.059062 14.2 
L 314.059062 71.9125 
Q 314.059062 73.9125 316.059062 73.9125 
z
" style="fill: #ffffff; opacity: 0.8; stroke: #cccccc; stroke-linejoin: miter"/>
    </g>
    <g id="line2d_14">
     <path d="M 318.059062 20.298437 
L 328.059062 20.298437 
L 338.059062 20.298437 
" style="fill: none; stroke: #ff4500; stroke-width: 1.5; stroke-linecap: square"/>
    </g>
    <g id="text_4">
     <text style="font: 10px 'DejaVu Sans', 'Bitstream Vera Sans', 'Computer Modern Sans Serif', 'Lucida Grande', 'Verdana', 'Geneva', 'Lucid', 'Arial', 'Helvetica', 'Avant Garde', sans-serif; text-anchor: start" x="346.059062" y="23.798437" transform="rotate(-0 346.059062 23.798437)">PLML2</text>
    </g>
    <g id="line2d_15">
     <path d="M 318.059062 34.976562 
L 328.059062 34.976562 
L 338.059062 34.976562 
" style="fill: none; stroke-dasharray: 5.55,2.4; stroke-dashoffset: 0; stroke: #c71585; stroke-width: 1.5"/>
    </g>
    <g id="text_5">
     <text style="font: 10px 'DejaVu Sans', 'Bitstream Vera Sans', 'Computer Modern Sans Serif', 'Lucida Grande', 'Verdana', 'Geneva', 'Lucid', 'Arial', 'Helvetica', 'Avant Garde', sans-serif; text-anchor: start" x="346.059062" y="38.476562" transform="rotate(-0 346.059062 38.476562)">PLMR</text>
    </g>
    <g id="line2d_16">
     <path d="M 318.059062 49.654687 
L 328.059062 49.654687 
L 338.059062 49.654687 
" style="fill: none; stroke-dasharray: 9.6,2.4,1.5,2.4; stroke-dashoffset: 0; stroke: #4682b4; stroke-width: 1.5"/>
    </g>
    <g id="text_6">
     <text style="font: 10px 'DejaVu Sans', 'Bitstream Vera Sans', 'Computer Modern Sans Serif', 'Lucida Grande', 'Verdana', 'Geneva', 'Lucid', 'Arial', 'Helvetica', 'Avant Garde', sans-serif; text-anchor: start" x="346.059062" y="53.154687" transform="rotate(-0 346.059062 53.154687)">AVBL</text>
    </g>
    <g id="line2d_17">
     <path d="M 318.059062 64.332812 
L 328.059062 64.332812 
L 338.059062 64.332812 
" style="fill: none; stroke-dasharray: 2.5,4.125; stroke-dashoffset: 0; stroke: #6b8e23; stroke-width: 2.5"/>
    </g>
    <g id="text_7">
     <text style="font: 10px 'DejaVu Sans', 'Bitstream Vera Sans', 'Computer Modern Sans Serif', 'Lucida Grande', 'Verdana', 'Geneva', 'Lucid', 'Arial', 'Helvetica', 'Avant Garde', sans-serif; text-anchor: start" x="346.059062" y="67.832812" transform="rotate(-0 346.059062 67.832812)">AVBR</text>
    </g>
   </g>
  </g>
  <g id="axes_2">
   <g id="patch_8">
    <path d="M 30.103125 273.312 
L 387.223125 273.312 
L 387.223125 95.904 
L 30.103125 95.904 
z
" style="fill: #ffffff"/>
   </g>
   <g id="matplotlib.axis_3">
    <g id="xtick_7">
     <g id="line2d_18">
      <g>
       <use xlink:href="#m1fb1a975a6" x="46.335852" y="273.312" style="stroke: #000000; stroke-width: 0.8"/>
      </g>
     </g>
     <g id="text_8">
      <text style="font: 10px 'DejaVu Sans', 'Bitstream Vera Sans', 'Computer Modern Sans Serif', 'Lucida Grande', 'Verdana', 'Geneva', 'Lucid', 'Arial', 'Helvetica', 'Avant Garde', sans-serif; text-anchor: middle" x="46.335852" y="287.910437" transform="rotate(-0 46.335852 287.910437)">0</text>
     </g>
    </g>
    <g id="xtick_8">
     <g id="line2d_19">
      <g>
       <use xlink:href="#m1fb1a975a6" x="111.331757" y="273.312" style="stroke: #000000; stroke-width: 0.8"/>
      </g>
     </g>
     <g id="text_9">
      <text style="font: 10px 'DejaVu Sans', 'Bitstream Vera Sans', 'Computer Modern Sans Serif', 'Lucida Grande', 'Verdana', 'Geneva', 'Lucid', 'Arial', 'Helvetica', 'Avant Garde', sans-serif; text-anchor: middle" x="111.331757" y="287.910437" transform="rotate(-0 111.331757 287.910437)">100</text>
     </g>
    </g>
    <g id="xtick_9">
     <g id="line2d_20">
      <g>
       <use xlink:href="#m1fb1a975a6" x="176.327662" y="273.312" style="stroke: #000000; stroke-width: 0.8"/>
      </g>
     </g>
     <g id="text_10">
      <text style="font: 10px 'DejaVu Sans', 'Bitstream Vera Sans', 'Computer Modern Sans Serif', 'Lucida Grande', 'Verdana', 'Geneva', 'Lucid', 'Arial', 'Helvetica', 'Avant Garde', sans-serif; text-anchor: middle" x="176.327662" y="287.910437" transform="rotate(-0 176.327662 287.910437)">200</text>
     </g>
    </g>
    <g id="xtick_10">
     <g id="line2d_21">
      <g>
       <use xlink:href="#m1fb1a975a6" x="241.323567" y="273.312" style="stroke: #000000; stroke-width: 0.8"/>
      </g>
     </g>
     <g id="text_11">
      <text style="font: 10px 'DejaVu Sans', 'Bitstream Vera Sans', 'Computer Modern Sans Serif', 'Lucida Grande', 'Verdana', 'Geneva', 'Lucid', 'Arial', 'Helvetica', 'Avant Garde', sans-serif; text-anchor: middle" x="241.323567" y="287.910437" transform="rotate(-0 241.323567 287.910437)">300</text>
     </g>
    </g>
    <g id="xtick_11">
     <g id="line2d_22">
      <g>
       <use xlink:href="#m1fb1a975a6" x="306.319472" y="273.312" style="stroke: #000000; stroke-width: 0.8"/>
      </g>
     </g>
     <g id="text_12">
      <text style="font: 10px 'DejaVu Sans', 'Bitstream Vera Sans', 'Computer Modern Sans Serif', 'Lucida Grande', 'Verdana', 'Geneva', 'Lucid', 'Arial', 'Helvetica', 'Avant Garde', sans-serif; text-anchor: middle" x="306.319472" y="287.910437" transform="rotate(-0 306.319472 287.910437)">400</text>
     </g>
    </g>
    <g id="xtick_12">
     <g id="line2d_23">
      <g>
       <use xlink:href="#m1fb1a975a6" x="371.315377" y="273.312" style="stroke: #000000; stroke-width: 0.8"/>
      </g>
     </g>
     <g id="text_13">
      <text style="font: 10px 'DejaVu Sans', 'Bitstream Vera Sans', 'Computer Modern Sans Serif', 'Lucida Grande', 'Verdana', 'Geneva', 'Lucid', 'Arial', 'Helvetica', 'Avant Garde', sans-serif; text-anchor: middle" x="371.315377" y="287.910437" transform="rotate(-0 371.315377 287.910437)">500</text>
     </g>
    </g>
   </g>
   <g id="matplotlib.axis_4">
    <g id="ytick_4">
     <g id="line2d_24">
      <g>
       <use xlink:href="#m3bb9df5030" x="30.103125" y="236.973107" style="stroke: #000000; stroke-width: 0.8"/>
      </g>
     </g>
     <g id="text_14">
      <text style="font: 10px 'DejaVu Sans', 'Bitstream Vera Sans', 'Computer Modern Sans Serif', 'Lucida Grande', 'Verdana', 'Geneva', 'Lucid', 'Arial', 'Helvetica', 'Avant Garde', sans-serif; text-anchor: end" x="23.103125" y="240.772326" transform="rotate(-0 23.103125 240.772326)">0.0</text>
     </g>
    </g>
    <g id="ytick_5">
     <g id="line2d_25">
      <g>
       <use xlink:href="#m3bb9df5030" x="30.103125" y="193.473273" style="stroke: #000000; stroke-width: 0.8"/>
      </g>
     </g>
     <g id="text_15">
      <text style="font: 10px 'DejaVu Sans', 'Bitstream Vera Sans', 'Computer Modern Sans Serif', 'Lucida Grande', 'Verdana', 'Geneva', 'Lucid', 'Arial', 'Helvetica', 'Avant Garde', sans-serif; text-anchor: end" x="23.103125" y="197.272492" transform="rotate(-0 23.103125 197.272492)">0.1</text>
     </g>
    </g>
    <g id="ytick_6">
     <g id="line2d_26">
      <g>
       <use xlink:href="#m3bb9df5030" x="30.103125" y="149.973438" style="stroke: #000000; stroke-width: 0.8"/>
      </g>
     </g>
     <g id="text_16">
      <text style="font: 10px 'DejaVu Sans', 'Bitstream Vera Sans', 'Computer Modern Sans Serif', 'Lucida Grande', 'Verdana', 'Geneva', 'Lucid', 'Arial', 'Helvetica', 'Avant Garde', sans-serif; text-anchor: end" x="23.103125" y="153.772657" transform="rotate(-0 23.103125 153.772657)">0.2</text>
     </g>
    </g>
    <g id="ytick_7">
     <g id="line2d_27">
      <g>
       <use xlink:href="#m3bb9df5030" x="30.103125" y="106.473604" style="stroke: #000000; stroke-width: 0.8"/>
      </g>
     </g>
     <g id="text_17">
      <text style="font: 10px 'DejaVu Sans', 'Bitstream Vera Sans', 'Computer Modern Sans Serif', 'Lucida Grande', 'Verdana', 'Geneva', 'Lucid', 'Arial', 'Helvetica', 'Avant Garde', sans-serif; text-anchor: end" x="23.103125" y="110.272822" transform="rotate(-0 23.103125 110.272822)">0.3</text>
     </g>
    </g>
   </g>
   <g id="line2d_28">
    <path d="M 46.335852 265.248 
L 111.331757 265.248 
L 111.656737 264.535481 
L 112.631675 260.559301 
L 114.256573 255.982078 
L 116.53143 249.361086 
L 119.131266 241.02603 
L 122.706041 228.698965 
L 138.630037 172.595136 
L 143.82971 155.21034 
L 144.154689 154.852075 
L 144.804648 155.627982 
L 145.129628 155.760656 
L 145.779587 155.727031 
L 147.079505 155.60745 
L 148.054444 155.742256 
L 149.029382 156.084382 
L 150.004321 156.633611 
L 151.629218 158.098424 
L 152.929136 159.283012 
L 154.229055 160.731295 
L 155.853952 162.874489 
L 157.803829 165.83661 
L 160.078686 169.752856 
L 163.003502 175.308003 
L 165.928317 181.354436 
L 169.503092 189.279193 
L 173.727826 199.219196 
L 176.327662 205.576758 
L 176.652642 205.666046 
L 177.302601 204.343442 
L 177.95256 203.674789 
L 179.902437 202.317324 
L 181.202355 201.069858 
L 182.827253 199.117259 
L 184.45215 196.787434 
L 186.402028 193.582188 
L 188.676884 189.410954 
L 191.27672 184.106758 
L 194.526516 176.856379 
L 199.401209 165.275549 
L 202.975983 156.20579 
L 208.500635 141.868505 
L 208.825615 141.013951 
L 209.150594 140.867313 
L 209.800553 142.058687 
L 210.450512 142.602957 
L 212.40039 143.652695 
L 213.700308 144.661282 
L 215.000226 145.969104 
L 216.625123 147.973968 
L 218.250021 150.329745 
L 220.199898 153.545775 
L 222.474755 157.741943 
L 225.074591 163.009773 
L 228.324386 170.146051 
L 232.224141 179.314164 
L 236.773854 190.605851 
L 241.323567 202.346691 
L 241.648547 202.490567 
L 242.298506 201.326054 
L 242.948465 200.82003 
L 245.223322 199.758003 
L 246.52324 198.798014 
L 248.148137 197.245513 
L 249.773035 195.358121 
L 251.722912 192.685795 
L 253.997769 189.144648 
L 256.597605 184.592521 
L 259.8474 178.378613 
L 262.772216 172.319782 
L 266.99695 163.034307 
L 272.521602 150.246661 
L 273.82152 147.097664 
L 274.146499 147.017668 
L 274.796458 148.361552 
L 275.446417 149.065771 
L 277.396295 150.557989 
L 278.696213 151.870118 
L 279.996131 153.45995 
L 281.621028 155.801459 
L 283.570906 159.049331 
L 285.845762 163.331541 
L 288.445598 168.741572 
L 291.370414 175.335451 
L 294.945189 183.93663 
L 299.494902 195.489756 
L 305.344534 210.992566 
L 307.294411 216.053711 
L 309.569268 220.948443 
L 311.844124 225.354906 
L 314.118981 229.33321 
L 316.393838 232.920042 
L 318.993674 236.58447 
L 321.59351 239.831754 
L 324.193346 242.70699 
L 326.793182 245.251404 
L 329.393019 247.502347 
L 332.317834 249.725567 
L 335.24265 251.66231 
L 338.167466 253.349899 
L 341.417261 254.972295 
L 344.992036 256.494072 
L 348.89179 257.889651 
L 353.116524 259.143129 
L 357.666237 260.247381 
L 362.54093 261.202702 
L 368.065582 262.060019 
L 370.990398 262.435253 
L 370.990398 262.435253 
" clip-path="url(#pebd9d07ddd)" style="fill: none; stroke: #66cdaa; stroke-linecap: square"/>
   </g>
   <g id="line2d_29">
    <path d="M 46.335852 259.068395 
L 46.660832 256.635242 
L 46.985811 255.204316 
L 47.310791 254.364233 
L 47.63577 253.871634 
L 48.285729 253.414308 
L 49.260668 253.22433 
L 51.860504 253.177911 
L 111.006778 253.177292 
L 111.331757 259.798297 
L 111.656737 260.118508 
L 111.981716 258.411908 
L 112.631675 251.405159 
L 114.906532 221.48542 
L 115.881471 211.263628 
L 117.181389 200.119839 
L 118.481307 190.88338 
L 119.456245 185.495299 
L 120.431184 181.468523 
L 121.731102 177.078816 
L 123.03102 173.409609 
L 124.005959 170.822674 
L 124.330938 157.317202 
L 124.655918 152.243451 
L 125.305877 146.798642 
L 125.955836 143.618295 
L 126.280815 142.415707 
L 126.605795 141.666832 
L 126.930774 141.236348 
L 127.255754 141.024339 
L 127.905713 140.956536 
L 129.530611 140.778695 
L 130.18057 140.503315 
L 130.830529 140.045166 
L 131.805467 139.041321 
L 133.755344 136.539893 
L 135.705222 133.643696 
L 138.305058 129.309829 
L 142.204812 122.706707 
L 143.50473 120.770746 
L 143.82971 103.968 
L 144.804648 149.587316 
L 145.454607 168.549212 
L 146.104566 179.653575 
L 146.754525 186.109038 
L 147.404485 189.995017 
L 148.054444 192.456208 
L 148.704403 194.146241 
L 149.679341 195.992011 
L 151.629218 199.016413 
L 157.47885 207.867564 
L 161.053625 213.756277 
L 164.30342 219.637151 
L 168.528154 227.823627 
L 172.752887 236.451327 
L 176.002683 243.466765 
L 176.652642 234.507758 
L 177.95256 215.270419 
L 178.927498 203.940818 
L 179.902437 195.31655 
L 180.877376 188.707198 
L 181.852314 183.502356 
L 183.152232 177.945498 
L 184.45215 173.323754 
L 186.077048 168.338177 
L 188.351905 162.140964 
L 191.6017 153.865769 
L 193.876557 148.528735 
L 198.10129 139.103517 
L 200.701127 134.236159 
L 206.550758 123.782405 
L 208.500635 120.798203 
L 208.825615 103.99069 
L 209.800553 149.597639 
L 210.450512 168.554732 
L 211.100471 179.656464 
L 211.75043 186.110543 
L 212.40039 189.995816 
L 213.050349 192.456595 
L 213.700308 194.146441 
L 214.675246 195.992083 
L 216.625123 199.016413 
L 222.474755 207.867564 
L 226.04953 213.756277 
L 229.299325 219.637151 
L 233.524059 227.823627 
L 237.748792 236.451327 
L 240.998588 243.466765 
L 241.323567 231.422555 
L 241.973526 223.011862 
L 242.948465 215.877486 
L 243.923403 210.289471 
L 245.223322 204.250231 
L 246.848219 198.03554 
L 249.448055 189.273386 
L 253.997769 174.851498 
L 256.597605 167.282988 
L 260.822339 155.560935 
L 264.722093 145.558662 
L 267.646909 138.671429 
L 271.871643 129.34041 
L 273.49654 126.044123 
L 273.82152 120.747957 
L 274.471479 149.22023 
L 275.121438 165.807517 
L 275.771397 174.490606 
L 276.421356 179.160427 
L 277.071315 181.92217 
L 277.721274 183.807157 
L 279.021192 186.680815 
L 286.820701 202.692284 
L 290.395476 210.74128 
L 294.620209 220.878612 
L 299.169923 232.395003 
L 302.744697 241.961283 
L 306.644452 252.460445 
L 307.294411 252.941426 
L 308.269349 253.132635 
L 310.869186 253.176752 
L 370.990398 253.17729 
L 370.990398 253.17729 
" clip-path="url(#pebd9d07ddd)" style="fill: none; stroke-dasharray: 3.7,1.6; stroke-dashoffset: 0; stroke: #b22222"/>
   </g>
   <g id="line2d_30">
    <path d="M 46.335852 256.84111 
L 49.260668 256.691152 
L 49.585648 256.341244 
L 109.70686 256.341244 
L 110.356819 255.045239 
L 110.681798 254.021777 
L 111.006778 252.233142 
L 111.656737 247.637433 
L 112.306696 243.300527 
L 112.956655 237.684824 
L 113.606614 232.918089 
L 114.256573 227.005483 
L 114.906532 222.132097 
L 115.556491 216.130208 
L 116.20645 211.240517 
L 116.856409 205.211084 
L 117.506368 200.331615 
L 118.156327 194.291018 
L 118.806286 189.430916 
L 119.456245 183.388942 
L 120.106204 178.55076 
L 120.756163 172.509803 
L 121.406123 167.694303 
L 122.056082 161.655797 
L 122.706041 156.862068 
L 123.356 150.828061 
L 124.005959 147.354832 
L 124.330938 145.299012 
L 124.655918 144.137036 
L 124.980897 144.464287 
L 125.305877 143.988499 
L 125.630856 142.789323 
L 125.955836 142.300273 
L 126.280815 143.187743 
L 126.605795 143.191513 
L 126.930774 142.249412 
L 127.255754 141.940125 
L 127.905713 144.682778 
L 128.230693 145.215685 
L 128.555672 146.016394 
L 129.205631 149.735706 
L 129.85559 151.467284 
L 130.505549 155.369748 
L 131.155508 157.148379 
L 131.805467 161.091114 
L 132.455426 162.854984 
L 133.105385 166.792488 
L 133.755344 168.520941 
L 134.405304 172.480047 
L 135.055263 174.171301 
L 135.705222 178.131991 
L 136.355181 179.791552 
L 137.00514 183.737032 
L 137.655099 185.356101 
L 138.305058 189.319338 
L 138.955017 190.899763 
L 139.604976 194.863036 
L 140.254935 196.415987 
L 140.904894 200.363588 
L 141.229874 200.643512 
L 141.554853 200.363248 
L 142.204812 201.846675 
L 142.529792 201.565845 
L 142.854771 200.930741 
L 143.50473 202.046 
L 143.82971 201.686487 
L 144.154689 200.970515 
L 144.804648 202.021169 
L 145.129628 201.676678 
L 145.454607 200.919021 
L 146.104566 201.981128 
L 146.429546 201.612489 
L 146.754525 200.859523 
L 147.404485 201.954489 
L 147.729464 201.583255 
L 148.054444 200.801408 
L 148.379423 201.243766 
L 148.704403 201.897542 
L 149.029382 201.559634 
L 149.354362 200.750181 
L 149.679341 201.189943 
L 150.004321 201.874107 
L 150.3293 201.516252 
L 150.65428 200.714197 
L 150.979259 201.173352 
L 151.304239 201.874066 
L 151.629218 201.514829 
L 151.954198 200.684972 
L 152.279177 201.127549 
L 152.604157 201.866218 
L 152.929136 201.531363 
L 153.254116 200.67052 
L 153.579096 200.912105 
L 153.904075 201.74998 
L 154.229055 201.717792 
L 154.554034 201.915365 
L 154.879014 202.563716 
L 155.203993 203.689199 
L 155.528973 203.820877 
L 155.853952 204.176808 
L 156.178932 204.90893 
L 156.503911 206.078512 
L 156.828891 206.237439 
L 157.15387 206.612078 
L 157.47885 207.340789 
L 157.803829 208.544836 
L 158.128809 208.696374 
L 158.453788 209.100677 
L 158.778768 209.813188 
L 159.103747 211.036073 
L 159.428727 211.193235 
L 159.753706 211.598386 
L 160.078686 212.330784 
L 160.403666 213.557822 
L 160.728645 213.703363 
L 161.053625 214.113657 
L 161.378604 214.837587 
L 161.703584 216.095444 
L 162.028563 216.245619 
L 162.353543 216.673564 
L 162.678522 217.376987 
L 163.003502 218.650561 
L 163.328481 218.805432 
L 163.653461 219.233028 
L 163.97844 219.950973 
L 164.30342 221.23621 
L 164.628399 221.384796 
L 164.953379 221.82035 
L 165.278358 222.53544 
L 165.603338 223.843531 
L 165.928317 223.993101 
L 166.253297 224.424093 
L 166.578277 225.127134 
L 166.903256 226.4546 
L 168.203174 227.850806 
L 168.528154 227.78407 
L 168.853133 227.89229 
L 169.503092 228.245333 
L 169.828072 228.114452 
L 170.153051 228.20627 
L 170.80301 228.517995 
L 171.12799 228.383995 
L 171.452969 228.463976 
L 172.102928 228.7643 
L 172.427908 228.634649 
L 173.402847 229.015948 
L 173.727826 228.886547 
L 174.702765 229.298263 
L 175.027744 229.167052 
L 176.002683 229.586412 
L 176.327662 229.470506 
L 177.302601 229.87784 
L 177.62758 229.766565 
L 178.602519 230.187097 
L 178.927498 230.075242 
L 179.902437 230.514115 
L 180.227417 230.409373 
L 181.202355 230.851323 
L 181.527335 230.756036 
L 182.502273 231.200113 
L 182.827253 231.105877 
L 183.802191 231.565857 
L 184.127171 231.477446 
L 185.102109 231.945776 
L 185.427089 231.869084 
L 186.077048 232.310601 
L 187.051987 232.492012 
L 187.376966 232.733431 
L 188.351905 232.914862 
L 188.676884 233.165264 
L 189.326843 233.127561 
L 189.976802 233.602778 
L 190.626761 233.575294 
L 191.27672 234.07485 
L 191.926679 234.049878 
L 192.576639 234.554168 
L 193.226598 234.537723 
L 193.876557 235.05377 
L 194.526516 235.04506 
L 195.176475 235.570955 
L 195.826434 235.571587 
L 196.476393 236.10727 
L 196.801372 236.104359 
L 197.451331 235.500345 
L 197.776311 235.452708 
L 198.10129 234.960267 
L 198.751249 233.559891 
L 199.076229 233.322892 
L 199.726188 231.847153 
L 200.051168 231.011017 
L 200.376147 230.709942 
L 201.026106 229.136112 
L 201.351086 228.241737 
L 201.676065 227.914157 
L 202.326024 226.290556 
L 202.651004 225.354519 
L 202.975983 225.008597 
L 203.625942 223.347523 
L 203.950922 222.374114 
L 204.275901 222.011823 
L 204.92586 220.316158 
L 205.25084 219.307078 
L 205.57582 218.930393 
L 206.225779 217.203332 
L 206.550758 216.158353 
L 206.875738 215.765691 
L 207.525697 214.006613 
L 207.850676 212.925325 
L 208.175656 212.516168 
L 208.825615 210.723109 
L 209.150594 209.60687 
L 209.475574 209.181731 
L 210.125533 207.359253 
L 210.450512 206.228257 
L 211.100471 205.792894 
L 211.75043 204.442194 
L 212.40039 204.785132 
L 213.050349 203.737001 
L 213.700308 204.318412 
L 214.350267 203.343689 
L 215.000226 204.008501 
L 215.650185 203.043248 
L 216.300144 203.742703 
L 216.950103 202.78464 
L 217.600062 203.524134 
L 218.250021 202.537737 
L 218.89998 203.317526 
L 219.549939 202.315528 
L 220.199898 203.101159 
L 220.524878 202.71076 
L 220.849857 202.108154 
L 221.499816 202.932956 
L 221.824796 202.524109 
L 222.149775 201.910434 
L 222.799734 202.776973 
L 223.124714 202.375456 
L 223.449693 201.738445 
L 224.099652 202.609381 
L 224.424632 202.229555 
L 224.749611 201.577941 
L 225.399571 202.485842 
L 225.72455 202.087768 
L 226.04953 201.424623 
L 226.699489 202.372094 
L 227.024468 201.983867 
L 227.349448 201.297259 
L 227.999407 202.268746 
L 228.324386 201.892609 
L 228.649366 201.18562 
L 229.299325 202.167011 
L 229.624304 201.783469 
L 229.949284 201.077052 
L 230.599243 202.08458 
L 230.924222 201.706434 
L 231.249202 200.975698 
L 231.899161 202.026413 
L 232.224141 201.652587 
L 232.54912 200.897207 
L 233.199079 201.960559 
L 233.524059 201.617255 
L 233.849038 200.853794 
L 234.174018 201.28232 
L 234.498997 201.927139 
L 234.823977 201.56038 
L 235.148956 200.78056 
L 235.473936 201.224371 
L 235.798915 201.899748 
L 236.123895 201.538078 
L 236.448874 200.734409 
L 236.773854 201.177754 
L 237.098833 201.864687 
L 237.423813 201.532637 
L 237.748792 200.721111 
L 238.073772 201.150733 
L 238.398752 201.86147 
L 238.723731 201.50705 
L 239.048711 200.67923 
L 239.37369 201.136895 
L 239.69867 201.86879 
L 240.023649 201.233978 
L 240.348629 200.924672 
L 240.673608 201.398321 
L 240.998588 202.384827 
L 241.323567 202.432235 
L 241.648547 202.696756 
L 241.973526 203.390854 
L 242.298506 204.544585 
L 242.623485 204.692576 
L 242.948465 205.062587 
L 243.273444 205.796005 
L 243.598424 206.977257 
L 243.923403 207.127951 
L 244.248383 207.516415 
L 244.573363 208.251693 
L 244.898342 209.451582 
L 245.223322 209.612532 
L 245.548301 210.001902 
L 245.873281 210.726427 
L 246.19826 211.956252 
L 246.52324 212.116718 
L 246.848219 212.523895 
L 247.173199 213.227704 
L 247.498178 214.47373 
L 247.823158 214.628427 
L 248.148137 215.043913 
L 248.473117 215.770507 
L 248.798096 217.02223 
L 249.123076 217.180654 
L 249.448055 217.593495 
L 249.773035 218.308064 
L 250.098014 219.587974 
L 250.422994 219.736055 
L 250.747973 220.174497 
L 251.072953 220.872833 
L 251.397933 222.171085 
L 251.722912 222.325604 
L 252.047892 222.764313 
L 252.372871 223.481071 
L 252.697851 224.783024 
L 253.02283 224.927697 
L 253.34781 225.372004 
L 253.997769 227.149564 
L 254.647728 227.492604 
L 255.297687 228.017381 
L 255.622666 227.916811 
L 255.947646 228.003925 
L 256.597605 228.337182 
L 256.922584 228.2112 
L 257.247564 228.295419 
L 257.897523 228.599279 
L 258.222503 228.455794 
L 259.197441 228.847875 
L 259.522421 228.717516 
L 261.797277 229.381896 
L 262.122257 229.259431 
L 263.097195 229.683934 
L 263.422175 229.566752 
L 264.397114 229.981497 
L 264.722093 229.870757 
L 265.697032 230.294828 
L 266.022011 230.18614 
L 266.99695 230.628181 
L 267.321929 230.525209 
L 268.296868 230.974641 
L 268.621847 230.876932 
L 269.596786 231.327596 
L 269.921765 231.23868 
L 270.896704 231.693136 
L 271.221684 231.60609 
L 272.196622 232.083597 
L 272.521602 232.00517 
L 273.171561 232.451447 
L 274.146499 232.635814 
L 274.471479 232.87476 
L 275.121438 232.836461 
L 275.771397 233.3133 
L 276.421356 233.275949 
L 277.071315 233.756872 
L 277.721274 233.739765 
L 278.371233 234.23282 
L 279.021192 234.210787 
L 279.671151 234.718831 
L 280.32111 234.704953 
L 280.971069 235.224162 
L 281.621028 235.218246 
L 282.270987 235.748458 
L 282.920946 235.750744 
L 283.245926 236.031024 
L 283.570906 236.603819 
L 284.220865 237.163974 
L 284.545844 237.224313 
L 284.870824 237.71366 
L 285.520783 238.096122 
L 285.845762 238.068485 
L 286.170742 238.513195 
L 286.820701 238.815525 
L 287.14568 238.746459 
L 287.47066 239.16732 
L 288.120619 239.421178 
L 288.445598 239.318291 
L 288.770578 239.719709 
L 289.420537 239.928539 
L 289.745516 239.792382 
L 290.070496 240.174682 
L 290.720455 240.33956 
L 291.045435 240.170364 
L 291.370414 240.5328 
L 292.020373 240.655809 
L 292.345353 240.454674 
L 292.670332 240.798582 
L 293.320291 240.879678 
L 293.645271 240.645295 
L 293.97025 240.969622 
L 294.620209 241.008258 
L 294.945189 240.739826 
L 295.270168 241.044164 
L 295.920127 241.04094 
L 296.245107 240.738862 
L 296.570087 241.023933 
L 296.895066 241.010698 
L 297.220046 240.666574 
L 297.545025 240.026804 
L 297.870005 240.045421 
L 298.194984 240.237261 
L 298.519964 239.960138 
L 298.844943 239.382425 
L 299.169923 239.470462 
L 299.494902 239.734612 
L 299.819882 239.483921 
L 300.144861 238.917839 
L 300.469841 239.029585 
L 300.79482 239.320637 
L 301.1198 239.076498 
L 301.444779 238.50423 
L 301.769759 238.625973 
L 302.094738 238.935879 
L 302.419718 238.69315 
L 302.744697 238.112852 
L 303.069677 238.239845 
L 303.394657 238.57601 
L 303.719636 238.337261 
L 304.044616 237.742309 
L 304.369595 237.878041 
L 304.694575 238.220005 
L 305.019554 237.992323 
L 305.344534 237.38524 
L 305.669513 237.529561 
L 305.994493 237.889235 
L 306.319472 237.649256 
L 306.644452 237.036644 
L 306.969431 237.183713 
L 307.294411 237.571439 
L 307.61939 237.338266 
L 307.94437 236.712356 
L 308.269349 236.867339 
L 308.594329 237.261658 
L 308.919308 237.039156 
L 309.244288 236.402832 
L 309.569268 236.565417 
L 309.894247 236.977555 
L 310.219227 236.742613 
L 310.544206 236.100119 
L 310.869186 236.26497 
L 311.194165 236.705218 
L 311.519145 236.477006 
L 311.844124 235.820749 
L 312.169104 235.991752 
L 312.494083 236.438658 
L 312.819063 236.220891 
L 313.144042 235.55298 
L 313.469022 235.732484 
L 313.794001 236.196899 
L 314.118981 235.966784 
L 314.44396 235.292109 
L 314.76894 235.481195 
L 315.093919 235.965511 
L 315.418899 235.73779 
L 315.743878 235.045717 
L 316.068858 235.232239 
L 316.393838 235.729128 
L 316.718817 235.517993 
L 317.043797 234.807744 
L 317.368776 234.999751 
L 317.693756 235.520768 
L 318.018735 235.29692 
L 318.343715 234.591653 
L 318.668694 234.78371 
L 318.993674 235.325333 
L 319.318653 235.103136 
L 319.643633 234.380093 
L 319.968612 234.581619 
L 320.293592 235.143345 
L 320.618571 234.930502 
L 320.943551 234.181329 
L 321.26853 234.382553 
L 321.59351 234.953267 
L 321.918489 234.734935 
L 322.243469 233.994505 
L 322.568449 234.196297 
L 322.893428 234.788023 
L 323.218408 234.570884 
L 323.543387 233.812914 
L 323.868367 234.023674 
L 324.193346 234.635133 
L 324.518326 234.426807 
L 324.843305 233.642893 
L 325.168285 233.852767 
L 325.493264 234.473125 
L 325.818244 234.273232 
L 326.143223 233.487468 
L 326.793182 233.95563 
L 327.443141 233.326436 
L 327.768121 233.407057 
L 328.0931 233.989607 
L 328.41808 233.78812 
L 328.743059 233.727024 
L 329.068039 233.874156 
L 329.393019 234.521817 
L 329.717998 234.351592 
L 330.042978 234.323675 
L 330.367957 234.470693 
L 330.692937 235.143409 
L 331.017916 234.982362 
L 331.342896 234.96189 
L 331.667875 235.126729 
L 331.992855 235.816824 
L 332.317834 235.659916 
L 332.642814 235.652778 
L 332.967793 235.822143 
L 333.292773 236.535626 
L 333.617752 236.387736 
L 333.942732 236.382575 
L 334.267711 236.552906 
L 334.592691 237.292674 
L 334.91767 237.153593 
L 335.24265 237.166378 
L 335.56763 237.346728 
L 335.892609 238.099659 
L 336.217589 237.963954 
L 336.542568 237.988889 
L 336.867548 238.173242 
L 337.192527 238.948996 
L 337.517507 238.829118 
L 337.842486 238.859979 
L 338.167466 239.047827 
L 338.492445 239.85044 
L 338.817425 239.733374 
L 339.142404 239.777614 
L 339.467384 239.960529 
L 339.792363 240.786219 
L 340.117343 240.677397 
L 340.767302 241.490956 
L 341.092281 241.774595 
L 341.74224 241.955485 
L 342.3922 242.26434 
L 342.717179 242.246103 
L 344.992036 242.985705 
L 345.317015 242.974964 
L 347.591872 243.735361 
L 348.241831 243.787813 
L 348.89179 243.936055 
L 349.541749 243.975756 
L 350.191708 244.120428 
L 350.841667 244.16247 
L 351.491626 244.306907 
L 352.141585 244.342033 
L 352.791544 244.507889 
L 353.441503 244.543144 
L 354.091462 244.70555 
L 354.416442 244.668095 
L 354.741421 244.742615 
L 354.741421 244.742615 
" clip-path="url(#pebd9d07ddd)" style="fill: none; stroke-dasharray: 6.4,1.6,1,1.6; stroke-dashoffset: 0; stroke: #000080"/>
   </g>
   <g id="patch_9">
    <path d="M 30.103125 273.312 
L 30.103125 95.904 
" style="fill: none; stroke: #000000; stroke-width: 0.8; stroke-linejoin: miter; stroke-linecap: square"/>
   </g>
   <g id="patch_10">
    <path d="M 387.223125 273.312 
L 387.223125 95.904 
" style="fill: none; stroke: #000000; stroke-width: 0.8; stroke-linejoin: miter; stroke-linecap: square"/>
   </g>
   <g id="patch_11">
    <path d="M 30.103125 273.312 
L 387.223125 273.312 
" style="fill: none; stroke: #000000; stroke-width: 0.8; stroke-linejoin: miter; stroke-linecap: square"/>
   </g>
   <g id="patch_12">
    <path d="M 30.103125 95.904 
L 387.223125 95.904 
" style="fill: none; stroke: #000000; stroke-width: 0.8; stroke-linejoin: miter; stroke-linecap: square"/>
   </g>
   <g id="legend_2">
    <g id="patch_13">
     <path d="M 189.998125 147.938375 
L 380.223125 147.938375 
Q 382.223125 147.938375 382.223125 145.938375 
L 382.223125 102.904 
Q 382.223125 100.904 380.223125 100.904 
L 189.998125 100.904 
Q 187.998125 100.904 187.998125 102.904 
L 187.998125 145.938375 
Q 187.998125 147.938375 189.998125 147.938375 
z
" style="fill: #ffffff; opacity: 0.8; stroke: #cccccc; stroke-linejoin: miter"/>
    </g>
    <g id="line2d_31">
     <path d="M 191.998125 109.002437 
L 201.998125 109.002437 
L 211.998125 109.002437 
" style="fill: none; stroke: #66cdaa; stroke-linecap: square"/>
    </g>
    <g id="text_18">
     <text style="font: 10px 'DejaVu Sans', 'Bitstream Vera Sans', 'Computer Modern Sans Serif', 'Lucida Grande', 'Verdana', 'Geneva', 'Lucid', 'Arial', 'Helvetica', 'Avant Garde', sans-serif; text-anchor: start" x="219.998125" y="112.502437" transform="rotate(-0 219.998125 112.502437)">Target response DB1</text>
    </g>
    <g id="line2d_32">
     <path d="M 191.998125 123.680562 
L 201.998125 123.680562 
L 211.998125 123.680562 
" style="fill: none; stroke-dasharray: 3.7,1.6; stroke-dashoffset: 0; stroke: #b22222"/>
    </g>
    <g id="text_19">
     <text style="font: 10px 'DejaVu Sans', 'Bitstream Vera Sans', 'Computer Modern Sans Serif', 'Lucida Grande', 'Verdana', 'Geneva', 'Lucid', 'Arial', 'Helvetica', 'Avant Garde', sans-serif; text-anchor: start" x="219.998125" y="127.180562" transform="rotate(-0 219.998125 127.180562)">Digital prediction DB1</text>
    </g>
    <g id="line2d_33">
     <path d="M 191.998125 138.358687 
L 201.998125 138.358687 
L 211.998125 138.358687 
" style="fill: none; stroke-dasharray: 6.4,1.6,1,1.6; stroke-dashoffset: 0; stroke: #000080"/>
    </g>
    <g id="text_20">
     <text style="font: 10px 'DejaVu Sans', 'Bitstream Vera Sans', 'Computer Modern Sans Serif', 'Lucida Grande', 'Verdana', 'Geneva', 'Lucid', 'Arial', 'Helvetica', 'Avant Garde', sans-serif; text-anchor: start" x="219.998125" y="141.858687" transform="rotate(-0 219.998125 141.858687)">Adjusted analog prediction DB1</text>
    </g>
   </g>
  </g>
 </g>
 <defs>
  <clipPath id="pee45fec384">
   <rect x="30.103125" y="7.2" width="357.12" height="88.704"/>
  </clipPath>
  <clipPath id="pebd9d07ddd">
   <rect x="30.103125" y="95.904" width="357.12" height="177.408"/>
  </clipPath>
 </defs>
</svg>
