<?xml version="1.0" encoding="utf-8" standalone="no"?>
<!DOCTYPE svg PUBLIC "-//W3C//DTD SVG 1.1//EN"
  "http://www.w3.org/Graphics/SVG/1.1/DTD/svg11.dtd">
<svg xmlns:xlink="http://www.w3.org/1999/xlink" width="398.030937pt" height="297.190125pt" viewBox="0 0 398.030937 297.190125" xmlns="http://www.w3.org/2000/svg" version="1.1">
 <metadata>
  <rdf:RDF xmlns:dc="http://purl.org/dc/elements/1.1/" xmlns:cc="http://creativecommons.org/ns#" xmlns:rdf="http://www.w3.org/1999/02/22-rdf-syntax-ns#">
   <cc:Work>
    <dc:type rdf:resource="http://purl.org/dc/dcmitype/StillImage"/>
    <dc:date>2023-10-25T16:22:52.493868</dc:date>
    <dc:format>image/svg+xml</dc:format>
    <dc:creator>
     <cc:Agent>
      <dc:title>Matplotlib v3.8.0, https://matplotlib.org/</dc:title>
     </cc:Agent>
    </dc:creator>
   </cc:Work>
  </rdf:RDF>
 </metadata>
 <defs>
  <style type="text/css">*{stroke-linejoin: round; stroke-linecap: butt}</style>
 </defs>
 <g id="figure_1">
  <g id="patch_1">
   <path d="M 0 297.190125 
L 398.030937 297.190125 
L 398.030937 0 
L 0 0 
z
" style="fill: #ffffff"/>
  </g>
  <g id="axes_1">
   <g id="patch_2">
    <path d="M 33.710938 273.312 
L 390.830938 273.312 
L 390.830938 7.2 
L 33.710938 7.2 
z
" style="fill: #ffffff"/>
   </g>
   <g id="matplotlib.axis_1">
    <g id="xtick_1">
     <g id="line2d_1">
      <defs>
       <path id="m415cf881cb" d="M 0 0 
L 0 3.5 
" style="stroke: #000000; stroke-width: 0.8"/>
      </defs>
      <g>
       <use xlink:href="#m415cf881cb" x="49.943665" y="273.312" style="stroke: #000000; stroke-width: 0.8"/>
      </g>
     </g>
     <g id="text_1">
      <text style="font: 10px 'DejaVu Sans', 'Bitstream Vera Sans', 'Computer Modern Sans Serif', 'Lucida Grande', 'Verdana', 'Geneva', 'Lucid', 'Arial', 'Helvetica', 'Avant Garde', sans-serif; text-anchor: middle" x="49.943665" y="287.910437" transform="rotate(-0 49.943665 287.910437)">0</text>
     </g>
    </g>
    <g id="xtick_2">
     <g id="line2d_2">
      <g>
       <use xlink:href="#m415cf881cb" x="122.16937" y="273.312" style="stroke: #000000; stroke-width: 0.8"/>
      </g>
     </g>
     <g id="text_2">
      <text style="font: 10px 'DejaVu Sans', 'Bitstream Vera Sans', 'Computer Modern Sans Serif', 'Lucida Grande', 'Verdana', 'Geneva', 'Lucid', 'Arial', 'Helvetica', 'Avant Garde', sans-serif; text-anchor: middle" x="122.16937" y="287.910437" transform="rotate(-0 122.16937 287.910437)">100</text>
     </g>
    </g>
    <g id="xtick_3">
     <g id="line2d_3">
      <g>
       <use xlink:href="#m415cf881cb" x="194.395075" y="273.312" style="stroke: #000000; stroke-width: 0.8"/>
      </g>
     </g>
     <g id="text_3">
      <text style="font: 10px 'DejaVu Sans', 'Bitstream Vera Sans', 'Computer Modern Sans Serif', 'Lucida Grande', 'Verdana', 'Geneva', 'Lucid', 'Arial', 'Helvetica', 'Avant Garde', sans-serif; text-anchor: middle" x="194.395075" y="287.910437" transform="rotate(-0 194.395075 287.910437)">200</text>
     </g>
    </g>
    <g id="xtick_4">
     <g id="line2d_4">
      <g>
       <use xlink:href="#m415cf881cb" x="266.620781" y="273.312" style="stroke: #000000; stroke-width: 0.8"/>
      </g>
     </g>
     <g id="text_4">
      <text style="font: 10px 'DejaVu Sans', 'Bitstream Vera Sans', 'Computer Modern Sans Serif', 'Lucida Grande', 'Verdana', 'Geneva', 'Lucid', 'Arial', 'Helvetica', 'Avant Garde', sans-serif; text-anchor: middle" x="266.620781" y="287.910437" transform="rotate(-0 266.620781 287.910437)">300</text>
     </g>
    </g>
    <g id="xtick_5">
     <g id="line2d_5">
      <g>
       <use xlink:href="#m415cf881cb" x="338.846486" y="273.312" style="stroke: #000000; stroke-width: 0.8"/>
      </g>
     </g>
     <g id="text_5">
      <text style="font: 10px 'DejaVu Sans', 'Bitstream Vera Sans', 'Computer Modern Sans Serif', 'Lucida Grande', 'Verdana', 'Geneva', 'Lucid', 'Arial', 'Helvetica', 'Avant Garde', sans-serif; text-anchor: middle" x="338.846486" y="287.910437" transform="rotate(-0 338.846486 287.910437)">400</text>
     </g>
    </g>
   </g>
   <g id="matplotlib.axis_2">
    <g id="ytick_1">
     <g id="line2d_6">
      <defs>
       <path id="me62adc69e2" d="M 0 0 
L -3.5 0 
" style="stroke: #000000; stroke-width: 0.8"/>
      </defs>
      <g>
       <use xlink:href="#me62adc69e2" x="33.710938" y="251.343915" style="stroke: #000000; stroke-width: 0.8"/>
      </g>
     </g>
     <g id="text_6">
      <text style="font: 10px 'DejaVu Sans', 'Bitstream Vera Sans', 'Computer Modern Sans Serif', 'Lucida Grande', 'Verdana', 'Geneva', 'Lucid', 'Arial', 'Helvetica', 'Avant Garde', sans-serif; text-anchor: end" x="26.710938" y="255.143134" transform="rotate(-0 26.710938 255.143134)">-0.2</text>
     </g>
    </g>
    <g id="ytick_2">
     <g id="line2d_7">
      <g>
       <use xlink:href="#me62adc69e2" x="33.710938" y="193.102761" style="stroke: #000000; stroke-width: 0.8"/>
      </g>
     </g>
     <g id="text_7">
      <text style="font: 10px 'DejaVu Sans', 'Bitstream Vera Sans', 'Computer Modern Sans Serif', 'Lucida Grande', 'Verdana', 'Geneva', 'Lucid', 'Arial', 'Helvetica', 'Avant Garde', sans-serif; text-anchor: end" x="26.710938" y="196.901979" transform="rotate(-0 26.710938 196.901979)">0.0</text>
     </g>
    </g>
    <g id="ytick_3">
     <g id="line2d_8">
      <g>
       <use xlink:href="#me62adc69e2" x="33.710938" y="134.861606" style="stroke: #000000; stroke-width: 0.8"/>
      </g>
     </g>
     <g id="text_8">
      <text style="font: 10px 'DejaVu Sans', 'Bitstream Vera Sans', 'Computer Modern Sans Serif', 'Lucida Grande', 'Verdana', 'Geneva', 'Lucid', 'Arial', 'Helvetica', 'Avant Garde', sans-serif; text-anchor: end" x="26.710938" y="138.660825" transform="rotate(-0 26.710938 138.660825)">0.2</text>
     </g>
    </g>
    <g id="ytick_4">
     <g id="line2d_9">
      <g>
       <use xlink:href="#me62adc69e2" x="33.710938" y="76.620452" style="stroke: #000000; stroke-width: 0.8"/>
      </g>
     </g>
     <g id="text_9">
      <text style="font: 10px 'DejaVu Sans', 'Bitstream Vera Sans', 'Computer Modern Sans Serif', 'Lucida Grande', 'Verdana', 'Geneva', 'Lucid', 'Arial', 'Helvetica', 'Avant Garde', sans-serif; text-anchor: end" x="26.710938" y="80.419671" transform="rotate(-0 26.710938 80.419671)">0.4</text>
     </g>
    </g>
    <g id="ytick_5">
     <g id="line2d_10">
      <g>
       <use xlink:href="#me62adc69e2" x="33.710938" y="18.379298" style="stroke: #000000; stroke-width: 0.8"/>
      </g>
     </g>
     <g id="text_10">
      <text style="font: 10px 'DejaVu Sans', 'Bitstream Vera Sans', 'Computer Modern Sans Serif', 'Lucida Grande', 'Verdana', 'Geneva', 'Lucid', 'Arial', 'Helvetica', 'Avant Garde', sans-serif; text-anchor: end" x="26.710938" y="22.178516" transform="rotate(-0 26.710938 22.178516)">0.6</text>
     </g>
    </g>
   </g>
   <g id="line2d_11">
    <path d="M 49.943665 206.403218 
L 53.193822 206.30283 
L 53.55495 206.068587 
L 102.307301 206.068587 
L 103.029558 205.200988 
L 103.390687 204.51584 
L 103.751815 203.318455 
L 104.474072 200.241898 
L 104.835201 198.994603 
L 106.640843 190.388164 
L 107.363101 186.430023 
L 108.085358 183.167578 
L 108.807615 179.149667 
L 109.529872 175.876307 
L 110.252129 171.839956 
L 110.974386 168.57344 
L 111.696643 164.529615 
L 112.4189 161.276064 
L 113.141157 157.231318 
L 113.863414 153.99244 
L 114.585671 149.948375 
L 115.307928 146.724681 
L 116.030185 142.682257 
L 116.752442 139.473138 
L 117.474699 135.433726 
L 118.196956 133.108604 
L 118.558085 131.732354 
L 118.919213 130.954479 
L 119.280342 131.173554 
L 119.64147 130.855042 
L 120.002599 130.052264 
L 120.363727 129.724874 
L 120.724856 130.318983 
L 121.085985 130.321507 
L 121.447113 129.690826 
L 121.808242 129.483776 
L 122.530499 131.319821 
L 122.891627 131.676571 
L 123.252756 132.212598 
L 123.975013 134.702458 
L 124.69727 135.861648 
L 125.419527 138.474118 
L 126.141784 139.664806 
L 126.864041 142.304235 
L 127.586298 143.485043 
L 128.308555 146.12097 
L 129.030812 147.278067 
L 129.753069 149.928455 
L 130.475326 151.06065 
L 131.197583 153.712099 
L 131.91984 154.823077 
L 132.642097 157.464343 
L 133.364354 158.548215 
L 134.086611 161.201369 
L 134.808869 162.25937 
L 135.531126 164.912548 
L 136.253383 165.952157 
L 136.97564 168.594843 
L 137.336768 168.782236 
L 137.697897 168.594616 
L 138.420154 169.587683 
L 138.781282 169.399684 
L 139.142411 168.974519 
L 139.864668 169.72112 
L 140.225796 169.480447 
L 140.586925 169.001145 
L 141.309182 169.704496 
L 141.670311 169.47388 
L 142.031439 168.966673 
L 142.753696 169.677691 
L 143.114825 169.430909 
L 143.475953 168.926843 
L 144.19821 169.659858 
L 144.559339 169.411339 
L 144.920467 168.887938 
L 145.642724 169.621735 
L 146.003853 169.395526 
L 146.364981 168.853645 
L 146.72611 169.14804 
L 147.087238 169.606047 
L 147.448367 169.366485 
L 147.809495 168.829555 
L 148.170624 169.136933 
L 148.531753 169.60602 
L 148.892881 169.365532 
L 149.25401 168.809991 
L 149.615138 169.106271 
L 149.976267 169.600766 
L 150.337395 169.3766 
L 150.698524 168.800317 
L 151.059652 168.962043 
L 151.420781 169.522951 
L 151.781909 169.501404 
L 152.143038 169.633667 
L 152.504166 170.0677 
L 152.865295 170.821144 
L 153.226423 170.909295 
L 153.587552 171.14757 
L 153.94868 171.637682 
L 154.309809 172.420649 
L 154.670937 172.527041 
L 155.032066 172.77784 
L 155.393195 173.265669 
L 155.754323 174.071708 
L 156.115452 174.173153 
L 156.47658 174.44381 
L 156.837709 174.920794 
L 157.198837 175.739444 
L 157.559966 175.844654 
L 157.921094 176.115879 
L 158.282223 176.606176 
L 158.643351 177.427606 
L 159.00448 177.525037 
L 159.365608 177.799705 
L 159.726737 178.284333 
L 160.087865 179.126395 
L 160.448994 179.226928 
L 160.810122 179.513412 
L 161.171251 179.984312 
L 161.53238 180.836895 
L 161.893508 180.940572 
L 162.254637 181.226823 
L 162.615765 181.707444 
L 162.976894 182.567834 
L 163.338022 182.667304 
L 163.699151 182.958882 
L 164.060279 183.437592 
L 164.421408 184.313283 
L 164.782536 184.413411 
L 165.143665 184.701934 
L 165.504793 185.172579 
L 165.865922 186.06124 
L 167.310436 186.995917 
L 167.671564 186.951241 
L 170.199464 187.442561 
L 170.560593 187.352856 
L 174.533006 187.964904 
L 174.894135 187.877066 
L 175.977521 188.157803 
L 176.338649 188.080211 
L 177.422035 188.352897 
L 177.783163 188.278405 
L 178.866549 188.559926 
L 179.227677 188.485046 
L 180.311063 188.778845 
L 180.672191 188.708727 
L 181.755577 189.004587 
L 182.116706 188.940797 
L 183.200091 189.238081 
L 183.56122 189.174995 
L 184.644605 189.482925 
L 185.005734 189.423739 
L 186.089119 189.737258 
L 186.450248 189.685918 
L 187.533633 190.003854 
L 187.894762 189.954377 
L 188.978148 190.281896 
L 189.339276 190.23632 
L 190.422662 190.56881 
L 190.78379 190.528393 
L 191.506047 190.846523 
L 192.589433 190.995927 
L 192.950561 191.162548 
L 194.033947 191.314873 
L 194.395075 191.483423 
L 195.117332 191.472414 
L 195.83959 191.817877 
L 196.561847 191.812046 
L 197.284104 192.164102 
L 198.006361 192.164525 
L 198.728618 192.523133 
L 199.089746 192.521184 
L 199.812003 192.116833 
L 200.173132 192.084942 
L 200.895389 191.289272 
L 201.256517 190.817814 
L 201.617646 190.659157 
L 202.339903 189.671236 
L 202.701032 189.111492 
L 203.06216 188.90994 
L 203.784417 187.856354 
L 204.145546 187.257622 
L 204.506674 187.038327 
L 205.228931 185.951421 
L 205.59006 185.3248 
L 205.951188 185.093226 
L 206.673445 183.981234 
L 207.034574 183.329594 
L 207.395702 183.087062 
L 208.117959 181.951914 
L 208.479088 181.276394 
L 208.840216 181.024226 
L 209.562474 179.868061 
L 209.923602 179.168508 
L 210.284731 178.905644 
L 211.006988 177.728046 
L 211.368116 177.004187 
L 211.729245 176.73028 
L 212.451502 175.529933 
L 212.81263 174.782677 
L 213.173759 174.498071 
L 213.896016 173.278029 
L 214.257144 172.520894 
L 214.979401 172.229444 
L 215.701659 171.32523 
L 216.423916 171.554807 
L 217.146173 170.853145 
L 217.86843 171.242365 
L 218.590687 170.589846 
L 219.312944 171.034898 
L 220.035201 170.388718 
L 220.757458 170.856962 
L 221.479715 170.215595 
L 222.201972 170.710643 
L 222.924229 170.050308 
L 223.646486 170.572331 
L 224.368743 169.901553 
L 225.091 170.427486 
L 225.452129 170.166137 
L 225.813257 169.762728 
L 226.535514 170.314884 
L 227.257771 169.630366 
L 227.980028 170.210463 
L 228.341157 169.941671 
L 228.702285 169.515229 
L 229.424543 170.09827 
L 229.785671 169.843998 
L 230.1468 169.407781 
L 230.869057 170.015568 
L 231.230185 169.749081 
L 231.591314 169.305144 
L 232.313571 169.93942 
L 232.674699 169.679525 
L 233.035828 169.219882 
L 233.758085 169.870235 
L 234.119213 169.618433 
L 234.480342 169.145146 
L 235.202599 169.802129 
L 235.563727 169.54537 
L 235.924856 169.072466 
L 236.647113 169.746947 
L 237.008242 169.4938 
L 237.36937 169.004615 
L 238.091627 169.708007 
L 238.452756 169.457753 
L 238.813884 168.95207 
L 239.536141 169.663922 
L 239.89727 169.4341 
L 240.258398 168.923007 
L 240.619527 169.20988 
L 240.980655 169.641549 
L 241.341784 169.396025 
L 241.702912 168.873982 
L 242.064041 169.171087 
L 242.425169 169.623213 
L 242.786298 169.381095 
L 243.147427 168.843086 
L 243.508555 169.13988 
L 243.869684 169.599741 
L 244.230812 169.377453 
L 244.591941 168.834184 
L 244.953069 169.121791 
L 245.314198 169.597587 
L 245.675326 169.360324 
L 246.036455 168.806148 
L 246.397583 169.112527 
L 246.758712 169.602488 
L 247.11984 169.177519 
L 247.480969 168.970456 
L 247.842097 169.287536 
L 248.203226 169.947944 
L 248.564354 169.979681 
L 248.925483 170.156762 
L 249.286611 170.62142 
L 249.64774 171.393775 
L 250.008869 171.492846 
L 250.369997 171.740547 
L 250.731126 172.231527 
L 251.092254 173.022306 
L 251.453383 173.123186 
L 251.814511 173.38324 
L 252.17564 173.875466 
L 252.536768 174.678721 
L 252.897897 174.786467 
L 253.259025 175.047127 
L 253.620154 175.532154 
L 253.981282 176.355449 
L 254.342411 176.462872 
L 254.703539 176.735453 
L 255.064668 177.206612 
L 255.425796 178.040753 
L 255.786925 178.144313 
L 256.148053 178.422457 
L 256.509182 178.908868 
L 256.870311 179.746823 
L 257.231439 179.852879 
L 257.592568 180.129251 
L 257.953696 180.607613 
L 258.314825 181.464438 
L 258.675953 181.563569 
L 259.037082 181.857081 
L 259.39821 182.324575 
L 259.759339 183.193678 
L 260.120467 183.29712 
L 260.481596 183.590809 
L 260.842724 184.070637 
L 261.203853 184.942218 
L 261.564981 185.039068 
L 261.92611 185.336505 
L 262.648367 186.526477 
L 263.370624 186.756122 
L 264.092881 187.107429 
L 264.45401 187.040104 
L 268.426423 187.663396 
L 268.787552 187.576128 
L 271.315452 188.020891 
L 271.67658 187.938909 
L 272.759966 188.223088 
L 273.121094 188.144642 
L 274.20448 188.422289 
L 274.565608 188.348156 
L 275.648994 188.632046 
L 276.010122 188.559285 
L 277.093508 188.855206 
L 277.454637 188.786272 
L 278.538022 189.08714 
L 278.899151 189.02173 
L 279.982536 189.323423 
L 280.343665 189.263899 
L 281.42705 189.568131 
L 281.788179 189.509859 
L 282.871564 189.829521 
L 283.232693 189.777019 
L 284.316079 190.099611 
L 284.677207 190.053946 
L 285.760593 190.377294 
L 286.121721 190.333519 
L 286.843978 190.652735 
L 287.927364 190.785314 
L 288.288492 190.949681 
L 289.371878 191.102782 
L 289.733006 191.2683 
L 290.455264 191.25355 
L 291.177521 191.593655 
L 291.899778 191.584365 
L 292.622035 191.931945 
L 293.344292 191.927984 
L 294.066549 192.28293 
L 294.788806 192.28446 
L 295.149934 192.472091 
L 295.511063 192.855544 
L 296.23332 193.230534 
L 296.594448 193.270928 
L 296.955577 193.598517 
L 297.677834 193.854553 
L 298.038963 193.836051 
L 298.400091 194.133758 
L 299.122348 194.336151 
L 299.483477 194.289915 
L 299.844605 194.571657 
L 300.566862 194.7416 
L 300.927991 194.672723 
L 301.289119 194.941448 
L 302.011376 195.081248 
L 302.372505 194.990099 
L 302.733633 195.246026 
L 303.45589 195.356402 
L 303.817019 195.243135 
L 304.178148 195.485765 
L 304.900405 195.568112 
L 305.261533 195.433465 
L 305.622662 195.66369 
L 306.344919 195.71798 
L 306.706047 195.561074 
L 307.067176 195.778191 
L 307.789433 195.804056 
L 308.150561 195.624356 
L 308.51169 195.828093 
L 309.233947 195.825935 
L 309.595075 195.623711 
L 309.956204 195.81455 
L 310.317332 195.80569 
L 310.678461 195.575319 
L 311.03959 195.147031 
L 311.400718 195.159494 
L 311.761847 195.287919 
L 312.122975 195.102402 
L 312.484104 194.715657 
L 312.845232 194.774592 
L 313.206361 194.951425 
L 313.567489 194.783602 
L 313.928618 194.404644 
L 314.289746 194.479451 
L 314.650875 194.674294 
L 315.012003 194.510857 
L 315.373132 194.127757 
L 315.73426 194.209257 
L 316.095389 194.416721 
L 316.456517 194.254228 
L 316.817646 193.865753 
L 317.178774 193.950767 
L 317.539903 194.175809 
L 317.901032 194.015981 
L 318.26216 193.617696 
L 318.623289 193.70856 
L 318.984417 193.937485 
L 319.345546 193.785066 
L 319.706674 193.378659 
L 320.067803 193.475273 
L 320.428931 193.716054 
L 320.79006 193.555402 
L 321.151188 193.145294 
L 321.512317 193.243748 
L 321.873445 193.503308 
L 322.234574 193.347213 
L 322.595702 192.928203 
L 322.956831 193.031955 
L 323.317959 193.295928 
L 323.679088 193.146976 
L 324.040216 192.720995 
L 324.401345 192.829836 
L 324.762474 193.105738 
L 325.123602 192.948458 
L 325.484731 192.518346 
L 325.845859 192.628704 
L 326.206988 192.923424 
L 326.568116 192.77065 
L 326.929245 192.331325 
L 327.290373 192.445801 
L 327.651502 192.744978 
L 328.01263 192.599196 
L 328.373759 192.152069 
L 328.734887 192.272237 
L 329.096016 192.583135 
L 329.457144 192.429086 
L 329.818273 191.977431 
L 330.179401 192.104013 
L 330.54053 192.428234 
L 330.901659 192.275788 
L 331.262787 191.812486 
L 331.623916 191.937352 
L 331.985044 192.26999 
L 332.346173 192.128647 
L 332.707301 191.653177 
L 333.06843 191.781714 
L 333.429558 192.130505 
L 333.790687 191.980652 
L 334.151815 191.508517 
L 334.512944 191.637088 
L 334.874072 191.999673 
L 335.235201 191.850925 
L 335.596329 191.36689 
L 335.957458 191.5018 
L 336.318586 191.877843 
L 336.679715 191.735356 
L 337.040843 191.233829 
L 337.401972 191.368537 
L 337.763101 191.750596 
L 338.124229 191.604436 
L 338.485358 191.108762 
L 338.846486 191.243849 
L 339.207615 191.639976 
L 339.568743 191.494613 
L 339.929872 190.987197 
L 340.291 191.128289 
L 340.652129 191.537624 
L 341.013257 191.398162 
L 341.374386 190.873378 
L 341.735514 191.013877 
L 342.096643 191.42917 
L 342.457771 191.295353 
L 342.8189 190.769331 
L 343.541157 191.082737 
L 344.263414 190.661529 
L 344.624543 190.7155 
L 344.985671 191.105483 
L 345.707928 190.929699 
L 346.069057 191.028195 
L 346.430185 191.461766 
L 347.152442 191.329122 
L 347.513571 191.427541 
L 347.874699 191.877885 
L 348.596956 191.756369 
L 348.958085 191.866719 
L 349.319213 192.328697 
L 350.04147 192.218878 
L 350.402599 192.332258 
L 350.763727 192.809892 
L 351.485985 192.707434 
L 351.847113 192.821461 
L 352.208242 193.316691 
L 352.930499 193.232144 
L 353.291627 193.352878 
L 353.652756 193.85692 
L 354.375013 193.782767 
L 354.736141 193.90618 
L 355.09727 194.425502 
L 355.819527 194.36591 
L 356.180655 194.491663 
L 356.541784 195.028965 
L 357.264041 194.980212 
L 357.625169 195.102664 
L 357.986298 195.655414 
L 358.347427 195.582564 
L 359.430812 196.317074 
L 360.153069 196.438169 
L 360.875326 196.644929 
L 361.597583 196.70536 
L 362.31984 196.891693 
L 363.042097 196.950399 
L 363.764354 197.127841 
L 364.486611 197.195491 
L 365.208869 197.370624 
L 365.931126 197.446309 
L 366.653383 197.629691 
L 367.736768 197.725595 
L 370.986925 198.012307 
L 371.709182 198.035822 
L 372.431439 198.146853 
L 373.153696 198.170454 
L 373.875953 198.279175 
L 374.59821 198.303988 
L 374.59821 198.303988 
" clip-path="url(#pa9cc136941)" style="fill: none; stroke: #ff4500; stroke-linecap: square"/>
   </g>
   <g id="line2d_12">
    <path d="M 49.943665 219.651972 
L 53.193822 219.722946 
L 53.55495 219.888552 
L 102.307301 219.888552 
L 102.66843 217.242059 
L 103.029558 216.308691 
L 103.390687 212.814336 
L 104.112944 202.489733 
L 104.474072 200.749876 
L 105.196329 191.232568 
L 105.557458 185.523809 
L 105.918586 183.802625 
L 106.640843 174.298131 
L 107.001972 168.633645 
L 107.363101 166.962662 
L 108.085358 157.54151 
L 108.446486 151.923673 
L 108.807615 150.291572 
L 109.529872 140.943277 
L 109.891 135.3651 
L 110.252129 133.766944 
L 110.974386 124.48404 
L 111.335514 118.944151 
L 111.696643 117.376691 
L 112.4189 108.155102 
L 112.780028 102.651489 
L 113.141157 101.11618 
L 113.863414 91.958084 
L 114.224543 86.490773 
L 114.585671 84.987617 
L 115.307928 75.89314 
L 115.669057 70.462357 
L 116.030185 68.991352 
L 116.752442 59.956114 
L 117.113571 54.559534 
L 117.835828 51.693305 
L 118.196956 47.728045 
L 118.558085 45.862426 
L 118.919213 49.250972 
L 119.280342 50.736436 
L 119.64147 47.612203 
L 120.002599 46.59661 
L 120.363727 50.431069 
L 120.724856 52.125923 
L 121.085985 49.018946 
L 121.447113 48.052998 
L 122.16937 54.862213 
L 122.530499 53.816625 
L 122.891627 55.378655 
L 123.613884 63.201632 
L 123.975013 62.330253 
L 124.336141 63.922343 
L 125.058398 71.64839 
L 125.419527 70.762843 
L 125.780655 72.345347 
L 126.502912 80.017443 
L 126.864041 79.116888 
L 127.225169 80.698373 
L 127.947427 88.353607 
L 128.308555 87.444073 
L 128.669684 89.007636 
L 129.391941 96.619644 
L 129.753069 95.711131 
L 130.114198 97.283009 
L 130.836455 104.867592 
L 131.197583 103.948629 
L 131.558712 105.524212 
L 132.280969 113.101143 
L 132.642097 112.175005 
L 133.003226 113.73333 
L 133.725483 121.267722 
L 134.086611 120.343216 
L 134.44774 121.909079 
L 135.169997 129.415598 
L 135.531126 128.48122 
L 135.892254 130.050704 
L 136.614511 137.544676 
L 136.97564 136.603497 
L 137.336768 136.876988 
L 137.697897 138.94758 
L 138.059025 139.74507 
L 138.420154 138.279377 
L 138.781282 138.039366 
L 139.142411 139.910347 
L 139.503539 140.650502 
L 139.864668 139.242463 
L 140.225796 139.013919 
L 140.586925 140.890127 
L 140.948053 141.641541 
L 141.309182 140.246568 
L 141.670311 140.034207 
L 142.031439 141.916842 
L 142.392568 142.672345 
L 142.753696 141.29352 
L 143.114825 141.079337 
L 143.475953 142.95224 
L 143.837082 143.723398 
L 144.19821 142.375826 
L 144.559339 142.179929 
L 144.920467 144.048977 
L 145.281596 144.798087 
L 145.642724 143.429823 
L 146.003853 143.236203 
L 146.364981 145.101882 
L 146.72611 145.848528 
L 147.087238 144.491944 
L 147.448367 144.294017 
L 147.809495 146.148622 
L 148.170624 146.910349 
L 148.531753 145.584537 
L 148.892881 145.405203 
L 149.25401 147.255486 
L 149.615138 147.994917 
L 149.976267 146.664356 
L 150.337395 146.504474 
L 150.698524 148.358525 
L 151.059652 150.87646 
L 151.420781 151.891862 
L 152.504166 159.580666 
L 152.865295 160.696593 
L 153.94868 168.355908 
L 154.309809 169.443301 
L 155.393195 176.969751 
L 155.754323 178.018841 
L 156.837709 185.382014 
L 157.198837 186.367034 
L 158.282223 193.600482 
L 158.643351 194.54361 
L 159.726737 201.574822 
L 160.087865 202.472039 
L 161.171251 209.374426 
L 161.53238 210.210102 
L 162.615765 216.956292 
L 162.976894 217.736901 
L 164.060279 224.297455 
L 164.421408 225.044403 
L 165.504793 231.451381 
L 165.865922 232.129095 
L 166.22705 232.281368 
L 166.949307 231.693101 
L 167.310436 231.704237 
L 167.671564 231.47429 
L 168.393822 230.691202 
L 168.75495 230.65233 
L 169.116079 230.36794 
L 169.838336 229.566981 
L 170.199464 229.524683 
L 170.560593 229.265275 
L 171.28285 228.473584 
L 171.643978 228.406453 
L 172.005107 228.136526 
L 172.727364 227.36966 
L 173.088492 227.279433 
L 177.060906 223.92469 
L 177.422035 223.791932 
L 184.283477 218.181572 
L 184.644605 217.988055 
L 186.450248 216.441153 
L 198.728618 206.296798 
L 199.089746 204.368252 
L 199.450875 201.775794 
L 199.812003 200.913134 
L 200.53426 196.022384 
L 200.895389 193.161883 
L 201.256517 192.263448 
L 201.978774 187.404005 
L 202.339903 184.604324 
L 202.701032 183.767619 
L 203.423289 179.016714 
L 203.784417 176.272997 
L 204.145546 175.491783 
L 204.867803 170.845071 
L 205.228931 168.157734 
L 205.59006 167.431494 
L 206.312317 162.888429 
L 206.673445 160.256731 
L 207.034574 159.585419 
L 207.756831 155.145395 
L 208.117959 152.568514 
L 208.479088 151.948693 
L 209.201345 147.611061 
L 209.562474 145.090374 
L 209.923602 144.525639 
L 210.645859 140.293005 
L 211.006988 137.829449 
L 211.368116 137.320162 
L 212.090373 133.193173 
L 212.451502 130.786058 
L 212.81263 130.330752 
L 213.173759 128.591674 
L 213.896016 123.954441 
L 214.257144 125.125835 
L 214.618273 125.625155 
L 214.979401 124.061559 
L 215.34053 123.716003 
L 215.701659 125.680316 
L 216.062787 126.500096 
L 216.423916 125.032878 
L 216.785044 124.751407 
L 217.146173 126.722908 
L 217.507301 127.532669 
L 217.86843 126.061333 
L 218.229558 125.78144 
L 218.590687 127.744556 
L 218.951815 128.548097 
L 219.312944 127.082181 
L 219.674072 126.806336 
L 220.035201 128.76362 
L 220.396329 129.561948 
L 220.757458 128.09512 
L 221.118586 127.820822 
L 221.479715 129.776108 
L 221.840843 130.579039 
L 222.201972 129.128707 
L 222.563101 128.860078 
L 222.924229 130.803659 
L 223.285358 131.607127 
L 223.646486 130.171942 
L 224.007615 129.918993 
L 224.368743 131.865051 
L 224.729872 132.656958 
L 225.091 131.208668 
L 225.452129 130.947418 
L 225.813257 132.885035 
L 226.174386 133.677799 
L 226.535514 132.244674 
L 226.896643 131.988305 
L 227.257771 133.912207 
L 227.6189 134.70343 
L 227.980028 133.286413 
L 228.341157 133.046105 
L 228.702285 134.972799 
L 229.063414 135.752061 
L 229.424543 134.321873 
L 229.785671 134.073317 
L 230.1468 135.991204 
L 230.507928 136.77162 
L 230.869057 135.356762 
L 231.230185 135.112332 
L 231.591314 137.016204 
L 231.952442 137.795448 
L 232.313571 136.395388 
L 232.674699 136.168466 
L 233.035828 138.077089 
L 233.396956 138.844644 
L 233.758085 137.446618 
L 234.119213 137.22942 
L 234.480342 139.135677 
L 234.84147 139.908128 
L 235.202599 138.513306 
L 235.563727 138.286316 
L 235.924856 140.178433 
L 236.285985 140.948953 
L 236.647113 139.564412 
L 237.008242 139.34527 
L 237.36937 141.228772 
L 237.730499 141.985731 
L 238.091627 140.610537 
L 238.452756 140.398656 
L 238.813884 142.27275 
L 239.175013 143.0246 
L 239.536141 141.644318 
L 239.89727 141.441764 
L 240.258398 143.33039 
L 240.619527 144.098723 
L 240.980655 142.738852 
L 241.341784 142.536676 
L 241.702912 144.402668 
L 242.064041 145.150311 
L 242.425169 143.796904 
L 242.786298 143.601132 
L 243.147427 145.456708 
L 243.508555 146.198659 
L 243.869684 144.839884 
L 244.230812 144.653878 
L 244.591941 146.52407 
L 244.953069 147.282389 
L 245.314198 145.944266 
L 245.675326 145.758454 
L 246.036455 147.605603 
L 246.397583 148.36365 
L 246.758712 147.049606 
L 247.480969 151.057744 
L 247.842097 153.78883 
L 248.203226 154.893518 
L 249.286611 162.573537 
L 249.64774 163.686094 
L 250.731126 171.317948 
L 251.092254 172.393252 
L 252.17564 179.866544 
L 252.536768 180.884405 
L 253.620154 188.189844 
L 253.981282 189.165734 
L 255.064668 196.349532 
L 255.425796 197.262805 
L 256.509182 204.269728 
L 256.870311 205.138479 
L 257.953696 211.985564 
L 258.314825 212.812417 
L 259.39821 219.489029 
L 259.759339 220.250114 
L 260.842724 226.793997 
L 261.203853 227.512683 
L 261.92611 231.516355 
L 262.648367 232.184068 
L 263.009495 232.087342 
L 263.731753 231.365263 
L 264.092881 231.368729 
L 264.45401 231.133037 
L 265.176267 230.311706 
L 265.537395 230.255955 
L 265.898524 229.992092 
L 266.620781 229.202744 
L 266.981909 229.161693 
L 267.343038 228.876567 
L 268.065295 228.101803 
L 268.426423 228.038068 
L 268.787552 227.769559 
L 269.509809 226.974385 
L 269.870937 226.870449 
L 270.593195 226.167729 
L 270.954323 225.837227 
L 271.315452 225.725402 
L 273.843351 223.550296 
L 274.20448 223.419294 
L 279.621408 218.934737 
L 279.982536 218.742284 
L 281.065922 217.798356 
L 281.42705 217.597786 
L 282.510436 216.614763 
L 282.871564 216.397769 
L 283.95495 215.432287 
L 284.677207 214.844274 
L 288.288492 211.906839 
L 291.538649 209.210181 
L 291.899778 208.814737 
L 292.622035 208.320548 
L 295.149934 206.15463 
L 295.511063 205.058202 
L 296.23332 201.756609 
L 296.594448 201.241635 
L 297.316706 198.305621 
L 297.677834 196.533757 
L 298.038963 196.05898 
L 298.76122 193.220034 
L 299.122348 191.511583 
L 299.483477 191.095349 
L 300.205734 188.376474 
L 300.566862 186.738196 
L 300.927991 186.382184 
L 301.650248 183.791473 
L 302.011376 182.224642 
L 302.372505 181.929046 
L 302.733633 180.873201 
L 303.45589 177.972496 
L 303.817019 177.737484 
L 304.178148 176.74899 
L 304.900405 173.972302 
L 305.261533 173.795742 
L 305.622662 172.876645 
L 306.344919 170.230032 
L 306.706047 170.114391 
L 307.067176 169.265846 
L 307.789433 166.748376 
L 308.150561 166.693342 
L 308.51169 165.914863 
L 309.233947 163.521218 
L 309.595075 163.524287 
L 309.956204 162.814897 
L 310.317332 161.696402 
L 310.678461 161.38399 
L 311.03959 162.621898 
L 311.400718 163.331538 
L 311.761847 162.603341 
L 312.122975 162.581331 
L 312.484104 163.954521 
L 312.845232 164.733419 
L 313.206361 164.037125 
L 313.567489 164.040332 
L 313.928618 165.408295 
L 314.289746 166.185748 
L 314.650875 165.503957 
L 315.012003 165.516613 
L 315.373132 166.871552 
L 315.73426 167.641291 
L 316.095389 166.971963 
L 316.456517 166.989245 
L 316.817646 168.328138 
L 317.178774 169.077209 
L 317.539903 168.421587 
L 317.901032 168.456061 
L 318.26216 169.786791 
L 318.623289 170.54135 
L 318.984417 169.889487 
L 319.345546 169.930778 
L 319.706674 171.250264 
L 320.067803 172.006122 
L 320.428931 171.381449 
L 320.79006 171.423586 
L 321.151188 172.72056 
L 321.512317 173.443333 
L 321.873445 172.82168 
L 322.234574 172.874587 
L 322.595702 174.162099 
L 322.956831 174.888664 
L 323.317959 174.269934 
L 323.679088 174.326365 
L 324.040216 175.602541 
L 324.401345 176.333524 
L 324.762474 175.742387 
L 325.123602 175.79978 
L 325.484731 177.053432 
L 325.845859 177.75169 
L 326.206988 177.164292 
L 326.568116 177.232486 
L 326.929245 178.475931 
L 327.290373 179.17565 
L 327.651502 178.591252 
L 328.01263 178.662786 
L 328.373759 179.892667 
L 328.734887 180.596167 
L 329.096016 180.040296 
L 329.457144 180.113252 
L 329.818273 181.320999 
L 330.179401 182.021065 
L 330.54053 181.489803 
L 330.901659 181.583042 
L 331.262787 182.785348 
L 331.623916 183.464773 
L 331.985044 182.918985 
L 332.346173 183.018474 
L 332.707301 184.201178 
L 333.06843 184.869271 
L 333.429558 184.341914 
L 333.790687 184.426715 
L 334.151815 185.595051 
L 334.512944 186.262642 
L 334.874072 185.758663 
L 335.235201 185.855973 
L 335.596329 187.005072 
L 335.957458 187.655727 
L 336.318586 187.169125 
L 336.679715 187.304673 
L 337.040843 188.453788 
L 337.401972 189.104366 
L 337.763101 188.616507 
L 338.124229 188.72099 
L 338.485358 189.848231 
L 338.846486 190.494198 
L 339.207615 190.027621 
L 339.568743 190.141935 
L 339.929872 191.249253 
L 340.291 191.877171 
L 340.652129 191.427948 
L 341.013257 191.580124 
L 341.374386 192.686845 
L 341.735514 193.314925 
L 342.096643 192.864209 
L 342.457771 193.009057 
L 342.8189 194.111789 
L 343.541157 195.57659 
L 346.069057 208.459622 
L 346.430185 209.890607 
L 347.513571 215.673879 
L 347.874699 217.037128 
L 348.958085 222.628507 
L 349.319213 223.925239 
L 350.402599 229.28137 
L 350.763727 230.539807 
L 351.847113 235.700902 
L 352.208242 236.876806 
L 353.291627 241.876187 
L 353.652756 242.992608 
L 354.736141 247.761398 
L 355.09727 248.805127 
L 356.180655 253.35355 
L 356.541784 254.347981 
L 357.625169 258.73514 
L 357.986298 259.653016 
L 358.347427 261.176212 
L 359.069684 260.820884 
L 359.430812 261.216 
L 359.791941 261.133733 
L 360.514198 259.785076 
L 360.875326 260.035019 
L 361.236455 259.85695 
L 361.958712 258.420643 
L 362.31984 258.621111 
L 362.680969 258.454065 
L 363.403226 257.066262 
L 363.764354 257.238234 
L 364.125483 257.058718 
L 364.84774 255.702817 
L 365.208869 255.880567 
L 365.569997 255.667487 
L 366.292254 254.283508 
L 366.653383 254.421906 
L 367.014511 254.226736 
L 367.736768 253.470889 
L 368.097897 253.689865 
L 368.459025 253.532642 
L 369.181282 252.782642 
L 369.542411 253.040426 
L 369.903539 252.86054 
L 370.625796 252.094175 
L 370.986925 252.397283 
L 371.348053 252.238081 
L 372.070311 251.361429 
L 372.431439 251.689107 
L 372.792568 251.540593 
L 373.514825 250.650047 
L 373.875953 251.055095 
L 374.237082 250.874353 
L 374.59821 250.472015 
L 374.59821 250.472015 
" clip-path="url(#pa9cc136941)" style="fill: none; stroke: #c71585; stroke-linecap: square"/>
   </g>
   <g id="line2d_13">
    <path d="M 49.943665 206.015697 
L 53.193822 205.928132 
L 53.55495 205.723807 
L 102.307301 205.723807 
L 102.66843 203.810753 
L 103.029558 202.768072 
L 103.390687 199.995131 
L 105.196329 178.866381 
L 105.557458 173.096121 
L 105.918586 170.044115 
L 106.640843 160.750746 
L 107.001972 154.919996 
L 107.363101 151.79398 
L 108.085358 142.52333 
L 108.446486 136.72681 
L 108.807615 133.592225 
L 109.529872 124.410562 
L 109.891 118.669588 
L 110.613257 111.477713 
L 111.696643 97.672896 
L 112.4189 88.703652 
L 112.780028 83.081944 
L 113.502285 76.023267 
L 114.585671 62.497714 
L 115.307928 53.750588 
L 115.669057 48.256446 
L 116.391314 41.335987 
L 117.474699 28.091861 
L 117.835828 26.19263 
L 118.558085 19.925091 
L 119.280342 22.574088 
L 119.64147 20.621852 
L 120.002599 19.296 
L 120.724856 23.385513 
L 121.447113 20.755857 
L 121.808242 22.912449 
L 122.16937 26.75023 
L 122.530499 28.016197 
L 122.891627 30.304219 
L 123.252756 33.826558 
L 123.613884 38.495691 
L 123.975013 40.228328 
L 124.336141 42.722902 
L 124.69727 46.316496 
L 125.058398 51.056336 
L 125.419527 52.883448 
L 125.780655 55.419931 
L 126.141784 58.988077 
L 126.502912 63.688232 
L 126.864041 65.560252 
L 127.225169 68.113803 
L 127.586298 71.639495 
L 127.947427 76.338907 
L 128.308555 78.210108 
L 128.669684 80.718646 
L 129.030812 84.186573 
L 129.391941 88.87751 
L 129.753069 90.795049 
L 130.114198 93.318857 
L 130.475326 96.740215 
L 130.836455 101.375143 
L 131.558712 105.866061 
L 131.91984 109.240833 
L 132.280969 113.873819 
L 133.003226 118.313854 
L 133.364354 121.629207 
L 133.725483 126.252789 
L 134.44774 130.75211 
L 134.808869 134.02026 
L 135.169997 138.587958 
L 135.892254 143.132626 
L 136.253383 146.357091 
L 136.614511 150.922634 
L 136.97564 152.94854 
L 137.336768 153.809134 
L 137.697897 154.304681 
L 138.059025 155.559368 
L 138.420154 156.265381 
L 139.142411 156.319655 
L 139.503539 157.330731 
L 139.864668 157.968959 
L 140.586925 157.8681 
L 140.948053 158.850754 
L 141.309182 159.474252 
L 142.031439 159.366205 
L 142.753696 161.017029 
L 143.475953 160.852134 
L 144.19821 162.618782 
L 144.559339 162.577875 
L 144.920467 162.417251 
L 145.642724 164.115763 
L 146.003853 164.120158 
L 146.364981 163.915413 
L 147.087238 165.665685 
L 147.448367 165.626637 
L 147.809495 165.411741 
L 148.531753 167.279489 
L 148.892881 167.255491 
L 149.25401 166.990439 
L 149.976267 168.84184 
L 150.337395 168.87335 
L 150.698524 168.568742 
L 151.059652 170.380992 
L 151.781909 174.659172 
L 152.143038 175.659467 
L 153.226423 182.663965 
L 153.587552 183.730641 
L 154.670937 190.760733 
L 155.032066 191.790554 
L 156.115452 198.618817 
L 156.47658 199.631666 
L 157.559966 206.244157 
L 157.921094 207.189927 
L 159.00448 213.648632 
L 159.365608 214.523236 
L 160.448994 220.805859 
L 160.810122 221.672292 
L 161.893508 227.742112 
L 162.254637 228.541317 
L 163.338022 234.410217 
L 163.699151 235.138101 
L 164.060279 236.989356 
L 164.421408 239.451523 
L 164.782536 240.87708 
L 165.143665 241.54589 
L 165.504793 243.293394 
L 165.865922 245.698707 
L 166.22705 246.200174 
L 166.588179 245.330557 
L 166.949307 245.149153 
L 167.310436 246.192407 
L 167.671564 246.056272 
L 168.032693 244.884446 
L 168.393822 244.548679 
L 168.75495 245.424295 
L 169.116079 245.190299 
L 169.477207 244.008884 
L 169.838336 243.646418 
L 170.199464 244.498639 
L 170.560593 244.294171 
L 170.921721 243.114181 
L 171.28285 242.746336 
L 171.643978 243.558256 
L 172.005107 243.352263 
L 172.366235 242.207453 
L 172.727364 241.842993 
L 173.088492 242.62121 
L 173.449621 242.376884 
L 173.810749 241.261182 
L 174.171878 240.8959 
L 174.533006 241.671714 
L 174.894135 241.433573 
L 175.255264 240.320944 
L 175.616392 239.952417 
L 175.977521 240.691088 
L 176.338649 240.485745 
L 176.699778 239.414413 
L 177.060906 239.052675 
L 177.422035 239.759244 
L 177.783163 239.554323 
L 178.144292 238.519179 
L 178.50542 238.155047 
L 178.866549 238.848488 
L 179.227677 238.623757 
L 179.588806 237.586031 
L 179.949934 237.228117 
L 180.311063 237.896985 
L 180.672191 237.682879 
L 181.03332 236.683294 
L 181.394448 236.305844 
L 181.755577 236.947023 
L 182.116706 236.746403 
L 182.477834 235.784988 
L 182.838963 235.42247 
L 183.200091 236.040898 
L 183.56122 235.81637 
L 183.922348 234.885532 
L 184.283477 234.534207 
L 184.644605 235.129396 
L 185.005734 234.917276 
L 185.366862 233.990239 
L 185.727991 233.614132 
L 186.089119 234.18055 
L 186.450248 233.977909 
L 186.811376 233.088244 
L 187.172505 232.726323 
L 187.533633 233.2706 
L 187.894762 233.043515 
L 188.25589 232.183973 
L 188.617019 231.837798 
L 188.978148 232.359919 
L 189.339276 232.145445 
L 189.700405 231.289732 
L 190.061533 230.951877 
L 190.422662 231.450376 
L 190.78379 231.247629 
L 191.144919 230.429468 
L 191.506047 230.07291 
L 191.867176 230.544374 
L 192.228304 230.314937 
L 192.589433 229.525664 
L 192.950561 229.181191 
L 193.31169 229.633524 
L 193.672818 229.420604 
L 194.033947 228.646118 
L 194.395075 228.298646 
L 194.756204 228.72618 
L 195.117332 228.513392 
L 195.478461 227.763219 
L 195.83959 227.418934 
L 196.200718 227.822858 
L 196.561847 227.610187 
L 196.922975 226.884291 
L 197.284104 226.539876 
L 197.645232 226.919656 
L 198.006361 226.708872 
L 198.367489 226.0073 
L 198.728618 225.664679 
L 199.089746 224.861194 
L 203.423289 198.572794 
L 204.145546 193.674842 
L 210.284731 157.524611 
L 210.645859 155.781737 
L 211.368116 151.393614 
L 213.534887 140.197778 
L 213.896016 137.974892 
L 214.257144 137.174442 
L 214.618273 137.438257 
L 215.34053 136.602415 
L 215.701659 136.91978 
L 216.062787 137.827942 
L 216.423916 137.804626 
L 216.785044 137.628373 
L 217.146173 138.040672 
L 217.507301 139.032166 
L 217.86843 139.115665 
L 218.229558 138.98575 
L 218.590687 139.388492 
L 218.951815 140.397263 
L 219.312944 140.538387 
L 219.674072 140.422615 
L 220.035201 140.795504 
L 220.396329 141.801642 
L 220.757458 141.964955 
L 221.118586 141.872954 
L 221.479715 142.213625 
L 221.840843 143.237417 
L 222.201972 143.461404 
L 222.563101 143.345224 
L 222.924229 143.649684 
L 223.285358 144.68552 
L 223.646486 144.968153 
L 224.007615 144.878492 
L 224.368743 145.150318 
L 224.729872 146.149014 
L 225.091 146.427292 
L 225.452129 146.348253 
L 225.813257 146.583332 
L 226.174386 147.595611 
L 226.535514 147.932865 
L 226.896643 147.82913 
L 227.257771 148.02181 
L 227.6189 149.049016 
L 227.980028 149.445202 
L 228.341157 149.3679 
L 228.702285 149.527832 
L 229.063414 150.517365 
L 229.424543 150.90901 
L 229.785671 150.841666 
L 230.1468 150.964433 
L 230.507928 151.967509 
L 230.869057 152.418247 
L 231.230185 152.325714 
L 231.591314 152.406821 
L 231.952442 153.420512 
L 232.313571 153.929121 
L 232.674699 153.86783 
L 233.035828 153.919321 
L 233.396956 154.895044 
L 233.758085 155.450617 
L 234.480342 155.428793 
L 234.84147 156.420019 
L 235.202599 156.983451 
L 235.924856 156.906882 
L 236.285985 157.891589 
L 236.647113 158.509645 
L 237.36937 158.389328 
L 238.091627 160.036503 
L 238.813884 159.87234 
L 239.536141 161.517667 
L 240.258398 161.412107 
L 240.980655 163.125297 
L 241.341784 163.079856 
L 241.702912 162.917434 
L 242.425169 164.666941 
L 242.786298 164.629244 
L 243.147427 164.41484 
L 243.869684 166.162481 
L 244.230812 166.174672 
L 244.591941 165.968433 
L 245.314198 167.783712 
L 245.675326 167.754996 
L 246.036455 167.488148 
L 247.11984 170.282828 
L 247.480969 170.718824 
L 248.564354 177.421826 
L 248.925483 178.437725 
L 250.008869 185.488308 
L 250.369997 186.565021 
L 251.453383 193.503305 
L 251.814511 194.521532 
L 252.897897 201.303493 
L 253.259025 202.263747 
L 254.342411 208.858649 
L 254.703539 209.803696 
L 255.786925 216.148407 
L 256.148053 217.020702 
L 257.231439 223.262036 
L 257.592568 224.076158 
L 258.675953 230.094884 
L 259.037082 230.888537 
L 259.39821 232.758324 
L 259.759339 235.225837 
L 260.120467 236.688438 
L 260.481596 237.414495 
L 261.564981 243.058359 
L 262.287238 244.560931 
L 262.648367 246.212711 
L 263.009495 246.316505 
L 263.370624 245.255049 
L 263.731753 245.003347 
L 264.092881 245.978856 
L 264.45401 245.812802 
L 264.815138 244.621506 
L 265.176267 244.23552 
L 265.537395 245.092934 
L 265.898524 244.890347 
L 266.259652 243.712454 
L 266.620781 243.349662 
L 266.981909 244.200477 
L 267.343038 243.962778 
L 267.704166 242.812494 
L 268.065295 242.44733 
L 268.426423 243.259631 
L 268.787552 243.054262 
L 269.14868 241.909733 
L 269.509809 241.508305 
L 269.870937 242.278718 
L 270.232066 242.070233 
L 270.593195 240.961375 
L 270.954323 240.597957 
L 271.315452 241.340437 
L 271.67658 241.096726 
L 272.037709 240.017676 
L 272.398837 239.653995 
L 272.759966 240.393833 
L 273.121094 240.189331 
L 273.482223 239.118279 
L 273.843351 238.753807 
L 274.20448 239.457184 
L 274.565608 239.249018 
L 274.926737 238.213555 
L 275.287865 237.84169 
L 275.648994 238.523334 
L 276.010122 238.288933 
L 276.371251 237.284299 
L 276.73238 236.924041 
L 277.093508 237.582509 
L 277.454637 237.360588 
L 277.815765 236.359768 
L 278.176894 236.007997 
L 278.538022 236.645556 
L 278.899151 236.437007 
L 279.260279 235.474452 
L 279.621408 235.103591 
L 279.982536 235.713504 
L 280.343665 235.515152 
L 280.704793 234.590175 
L 281.065922 234.233167 
L 281.42705 234.820432 
L 281.788179 234.597447 
L 282.149307 233.668741 
L 282.510436 233.317429 
L 282.871564 233.880503 
L 283.232693 233.669212 
L 283.593822 232.778386 
L 283.95495 232.408508 
L 284.316079 232.944158 
L 284.677207 232.746071 
L 285.038336 231.892979 
L 285.399464 231.537986 
L 285.760593 232.051477 
L 286.121721 231.829073 
L 286.48285 231.005726 
L 286.843978 230.662656 
L 287.205107 231.153423 
L 287.566235 230.94322 
L 287.927364 230.123747 
L 288.288492 229.756087 
L 288.649621 230.218514 
L 289.010749 230.017391 
L 289.371878 229.23463 
L 289.733006 228.888228 
L 290.094135 229.330271 
L 290.455264 229.116618 
L 290.816392 228.352241 
L 291.177521 228.006729 
L 291.538649 228.42456 
L 291.899778 228.211314 
L 292.260906 227.471246 
L 292.622035 227.128153 
L 292.983163 227.522394 
L 293.344292 227.309795 
L 293.70542 226.590747 
L 294.066549 226.248022 
L 294.427677 226.620363 
L 294.788806 226.409007 
L 295.149934 225.714031 
L 295.872191 222.499503 
L 296.594448 218.220562 
L 299.844605 199.112342 
L 300.205734 197.26138 
L 300.927991 192.98037 
L 303.45589 178.712832 
L 304.539276 173.31501 
L 305.261533 169.32099 
L 308.51169 152.710657 
L 308.872818 151.088965 
L 309.595075 147.382192 
L 310.317332 144.062369 
L 310.678461 143.245244 
L 311.03959 143.675435 
L 311.400718 144.290773 
L 311.761847 143.850726 
L 312.122975 143.680404 
L 312.845232 145.198636 
L 313.206361 144.872518 
L 313.567489 144.755397 
L 314.289746 146.292291 
L 314.650875 146.004895 
L 315.012003 145.900997 
L 315.73426 147.413907 
L 316.095389 147.156366 
L 316.456517 147.056354 
L 317.178774 148.523039 
L 317.539903 148.304669 
L 317.901032 148.225064 
L 318.623289 149.67851 
L 318.984417 149.467091 
L 319.345546 149.403666 
L 320.067803 150.839796 
L 320.79006 150.593798 
L 321.512317 151.965225 
L 322.234574 151.767743 
L 322.956831 153.12344 
L 323.679088 152.945167 
L 324.040216 153.500352 
L 324.401345 154.286767 
L 325.123602 154.137631 
L 325.484731 154.660993 
L 325.845859 155.413864 
L 326.568116 155.313536 
L 326.929245 155.811418 
L 327.290373 156.571677 
L 328.01263 156.490011 
L 328.373759 156.960831 
L 328.734887 157.733026 
L 329.457144 157.680284 
L 329.818273 158.1191 
L 330.179401 158.89651 
L 330.901659 158.908679 
L 331.262787 159.322856 
L 331.623916 160.074933 
L 332.346173 160.10697 
L 332.707301 160.482494 
L 333.06843 161.228225 
L 333.429558 161.306393 
L 333.790687 161.270395 
L 334.151815 161.635348 
L 334.512944 162.380636 
L 334.874072 162.501277 
L 335.235201 162.474552 
L 335.596329 162.800051 
L 335.957458 163.537347 
L 336.318586 163.696468 
L 336.679715 163.716549 
L 337.040843 164.013775 
L 337.401972 164.749468 
L 337.763101 164.912528 
L 338.124229 164.892789 
L 338.485358 165.177059 
L 338.846486 165.910148 
L 339.207615 166.114617 
L 339.568743 166.10408 
L 339.929872 166.348768 
L 340.291 167.07333 
L 340.652129 167.316269 
L 341.013257 167.352456 
L 341.374386 167.568636 
L 341.735514 168.291476 
L 342.096643 168.538138 
L 342.457771 168.573131 
L 342.8189 168.784449 
L 343.541157 170.300432 
L 344.263414 172.220773 
L 345.3468 176.562807 
L 345.707928 177.656822 
L 346.791314 182.079295 
L 347.152442 183.188081 
L 348.235828 187.484625 
L 348.596956 188.544162 
L 349.680342 192.704199 
L 350.04147 193.708843 
L 351.124856 197.773752 
L 351.485985 198.73298 
L 352.56937 202.635241 
L 352.930499 203.580163 
L 354.013884 207.357557 
L 354.375013 208.247886 
L 355.458398 211.904102 
L 355.819527 212.747676 
L 356.902912 216.267545 
L 357.264041 217.097752 
L 358.347427 220.4433 
L 359.430812 221.37945 
L 359.791941 221.349032 
L 360.153069 220.960403 
L 360.514198 220.771393 
L 360.875326 221.032353 
L 361.236455 220.895189 
L 361.597583 220.444955 
L 361.958712 220.220684 
L 362.31984 220.437633 
L 362.680969 220.31047 
L 363.042097 219.879556 
L 363.403226 219.654745 
L 363.764354 219.848512 
L 364.125483 219.719396 
L 364.486611 219.309193 
L 364.84774 219.085816 
L 365.208869 219.279359 
L 365.569997 219.129555 
L 365.931126 218.714657 
L 366.292254 218.490089 
L 366.653383 218.661613 
L 367.736768 218.169188 
L 368.097897 218.359853 
L 368.820154 218.074521 
L 369.181282 217.887201 
L 369.542411 218.09735 
L 370.625796 217.60503 
L 370.986925 217.839698 
L 371.709182 217.515644 
L 372.070311 217.29313 
L 372.431439 217.550299 
L 373.153696 217.23196 
L 373.514825 217.006761 
L 373.875953 217.305629 
L 374.59821 216.950503 
L 374.59821 216.950503 
" clip-path="url(#pa9cc136941)" style="fill: none; stroke: #4682b4; stroke-linecap: square"/>
   </g>
   <g id="line2d_14">
    <path d="M 49.943665 207.812414 
L 62.222035 207.619738 
L 102.66843 207.51085 
L 103.390687 206.91705 
L 103.751815 206.365603 
L 105.557458 202.027151 
L 105.918586 200.800705 
L 106.640843 199.135186 
L 107.724229 195.94366 
L 108.446486 193.824976 
L 108.807615 192.4943 
L 109.529872 190.756729 
L 110.613257 187.487371 
L 111.335514 185.357054 
L 111.696643 184.001278 
L 112.4189 182.264463 
L 114.585671 175.486786 
L 115.307928 173.757945 
L 117.474699 166.9713 
L 118.558085 164.814119 
L 118.919213 163.969922 
L 119.64147 164.070527 
L 120.363727 162.993813 
L 121.085985 163.570671 
L 121.808242 162.695437 
L 122.530499 163.878017 
L 123.252756 163.97462 
L 123.975013 165.564459 
L 124.69727 165.849597 
L 125.419527 167.524142 
L 125.780655 167.744124 
L 126.141784 167.832778 
L 126.864041 169.527662 
L 127.225169 169.750901 
L 127.586298 169.829753 
L 128.308555 171.521792 
L 128.669684 171.738528 
L 129.030812 171.812628 
L 129.753069 173.513596 
L 130.114198 173.727569 
L 130.475326 173.786804 
L 131.197583 175.489458 
L 131.558712 175.703306 
L 131.91984 175.747754 
L 132.642097 177.442498 
L 133.003226 177.648856 
L 133.364354 177.687132 
L 134.086611 179.388776 
L 134.44774 179.591731 
L 134.808869 179.614995 
L 135.531126 181.31739 
L 135.892254 181.520353 
L 136.253383 181.531005 
L 136.97564 183.22522 
L 137.336768 183.297649 
L 137.697897 182.975853 
L 138.059025 183.262002 
L 138.420154 183.754161 
L 138.781282 183.60196 
L 139.142411 183.130362 
L 139.503539 183.317939 
L 139.864668 183.738155 
L 140.225796 183.548234 
L 140.586925 183.041308 
L 140.948053 183.210565 
L 141.309182 183.618359 
L 141.670311 183.433545 
L 142.031439 182.908878 
L 142.392568 183.074033 
L 142.753696 183.489516 
L 143.114825 183.295022 
L 143.475953 182.774543 
L 143.837082 182.946188 
L 144.19821 183.364631 
L 144.559339 183.167037 
L 144.920467 182.635903 
L 145.281596 182.80332 
L 145.642724 183.231681 
L 146.003853 183.048539 
L 146.364981 182.506615 
L 146.72611 182.673953 
L 147.087238 183.113981 
L 147.448367 182.923245 
L 147.809495 182.386761 
L 148.170624 182.561115 
L 148.531753 183.005069 
L 148.892881 182.811768 
L 149.25401 182.265225 
L 149.615138 182.435641 
L 149.976267 182.896085 
L 150.337395 182.71163 
L 150.698524 182.152438 
L 151.059652 182.064211 
L 151.420781 182.356484 
L 151.781909 182.084038 
L 152.143038 181.990891 
L 152.504166 182.078789 
L 152.865295 182.508083 
L 153.226423 182.322902 
L 153.587552 182.314166 
L 153.94868 182.447024 
L 154.309809 182.90132 
L 154.670937 182.733239 
L 155.032066 182.73788 
L 155.393195 182.875953 
L 155.754323 183.349096 
L 156.115452 183.18331 
L 156.47658 183.204594 
L 156.837709 183.340152 
L 157.198837 183.825289 
L 157.559966 183.66655 
L 157.921094 183.692805 
L 158.282223 183.840089 
L 158.643351 184.328807 
L 159.00448 184.169528 
L 159.365608 184.202908 
L 159.726737 184.35262 
L 160.087865 184.857866 
L 160.448994 184.703554 
L 161.171251 184.890783 
L 161.53238 185.406454 
L 161.893508 185.258801 
L 162.615765 185.460846 
L 162.976894 185.98427 
L 163.338022 185.838779 
L 164.060279 186.053134 
L 164.421408 186.588633 
L 164.782536 186.446155 
L 165.504793 186.662117 
L 165.865922 187.210118 
L 166.22705 187.332828 
L 166.949307 187.823166 
L 167.310436 187.91833 
L 167.671564 187.864797 
L 168.75495 188.167077 
L 169.116079 188.082605 
L 170.199464 188.35203 
L 170.560593 188.263941 
L 171.643978 188.522399 
L 172.005107 188.437098 
L 173.088492 188.696188 
L 173.449621 188.613187 
L 174.533006 188.886944 
L 174.894135 188.80321 
L 175.977521 189.083069 
L 176.338649 189.006198 
L 177.422035 189.27945 
L 177.783163 189.205526 
L 178.866549 189.485162 
L 179.227677 189.412245 
L 180.311063 189.702343 
L 180.672191 189.633063 
L 181.394448 189.935611 
L 182.477834 190.003664 
L 182.838963 190.16713 
L 183.56122 190.091422 
L 184.283477 190.406551 
L 185.005734 190.331635 
L 185.727991 190.649535 
L 186.450248 190.58533 
L 187.172505 190.907912 
L 187.894762 190.844221 
L 188.617019 191.175679 
L 189.339276 191.112438 
L 190.061533 191.448722 
L 190.78379 191.38926 
L 191.506047 191.725095 
L 192.228304 191.674321 
L 192.950561 192.020649 
L 193.672818 191.972115 
L 194.395075 192.32011 
L 195.117332 192.278218 
L 195.83959 192.630766 
L 196.561847 192.594682 
L 197.284104 192.950991 
L 198.006361 192.921633 
L 199.450875 193.536694 
L 199.812003 193.485349 
L 200.173132 193.730131 
L 200.895389 193.679277 
L 201.256517 193.440777 
L 201.617646 193.598862 
L 202.339903 193.404894 
L 202.701032 193.098745 
L 203.06216 193.221165 
L 203.784417 192.9697 
L 204.145546 192.631851 
L 204.506674 192.73617 
L 205.228931 192.450047 
L 205.59006 192.088538 
L 205.951188 192.178629 
L 206.673445 191.86393 
L 207.034574 191.48088 
L 207.395702 191.557694 
L 208.117959 191.216109 
L 208.479088 190.812537 
L 208.840216 190.877141 
L 209.562474 190.50987 
L 209.923602 190.085479 
L 210.284731 190.136965 
L 211.006988 189.743752 
L 211.368116 189.298341 
L 211.729245 189.336435 
L 212.451502 188.916411 
L 212.81263 188.450765 
L 213.173759 188.475904 
L 213.896016 188.031281 
L 214.257144 187.378476 
L 214.618273 187.277925 
L 214.979401 187.29908 
L 215.34053 186.97809 
L 215.701659 186.454202 
L 216.062787 186.502426 
L 216.423916 186.700289 
L 216.785044 186.454508 
L 217.146173 185.988878 
L 217.507301 186.093008 
L 217.86843 186.348648 
L 218.229558 186.1273 
L 218.590687 185.673632 
L 218.951815 185.795392 
L 219.312944 186.072906 
L 219.674072 185.858721 
L 220.035201 185.404346 
L 220.396329 185.533029 
L 220.757458 185.821182 
L 221.118586 185.616955 
L 221.479715 185.157325 
L 221.840843 185.291341 
L 222.201972 185.590229 
L 222.563101 185.377125 
L 222.924229 184.916179 
L 223.285358 185.056351 
L 223.646486 185.36622 
L 224.007615 185.154459 
L 224.368743 184.68466 
L 224.729872 184.822911 
L 225.091 185.141016 
L 225.452129 184.940241 
L 225.813257 184.466414 
L 226.174386 184.609991 
L 226.535514 184.938831 
L 226.896643 184.729752 
L 227.257771 184.253936 
L 227.6189 184.40473 
L 227.980028 184.743998 
L 228.341157 184.53627 
L 228.702285 184.051432 
L 229.063414 184.199826 
L 229.424543 184.54703 
L 229.785671 184.349706 
L 230.1468 183.86045 
L 230.507928 184.013115 
L 230.869057 184.370835 
L 231.230185 184.16539 
L 231.591314 183.673806 
L 231.952442 183.832314 
L 232.313571 184.201029 
L 232.674699 183.998068 
L 233.035828 183.497159 
L 233.396956 183.652792 
L 233.758085 184.03657 
L 234.119213 183.837784 
L 234.480342 183.329467 
L 234.84147 183.487203 
L 235.202599 183.872945 
L 235.563727 183.672658 
L 235.924856 183.166927 
L 236.285985 183.323351 
L 236.647113 183.721585 
L 237.008242 183.522988 
L 237.36937 183.009228 
L 237.730499 183.173365 
L 238.091627 183.583418 
L 238.452756 183.385636 
L 238.813884 182.863366 
L 239.175013 183.029373 
L 239.536141 183.444882 
L 239.89727 183.259862 
L 240.258398 182.733478 
L 240.619527 182.89223 
L 240.980655 183.315935 
L 241.341784 183.121316 
L 241.702912 182.591573 
L 242.064041 182.759845 
L 242.425169 183.195858 
L 242.786298 183.002521 
L 243.147427 182.46466 
L 243.508555 182.634038 
L 243.869684 183.075356 
L 244.230812 182.894265 
L 244.591941 182.35245 
L 244.953069 182.514702 
L 245.314198 182.964202 
L 245.675326 182.774082 
L 246.036455 182.228923 
L 246.397583 182.403951 
L 246.758712 182.859943 
L 247.480969 182.016159 
L 247.842097 182.020648 
L 248.203226 182.378995 
L 248.564354 182.146027 
L 248.925483 182.089082 
L 249.286611 182.201391 
L 249.64774 182.645415 
L 250.008869 182.469063 
L 250.369997 182.467642 
L 250.731126 182.602842 
L 251.092254 183.063408 
L 251.453383 182.894436 
L 251.814511 182.907193 
L 252.17564 183.048962 
L 252.536768 183.521472 
L 252.897897 183.360815 
L 253.259025 183.377808 
L 253.620154 183.520736 
L 253.981282 184.009468 
L 254.342411 183.852593 
L 255.064668 184.017683 
L 255.425796 184.516933 
L 255.786925 184.362999 
L 256.148053 184.399184 
L 256.509182 184.550282 
L 256.870311 185.053942 
L 257.231439 184.904251 
L 257.592568 184.942522 
L 257.953696 185.093995 
L 258.314825 185.612955 
L 258.675953 185.463761 
L 259.39821 185.665267 
L 259.759339 186.195886 
L 260.120467 186.054049 
L 260.842724 186.271095 
L 261.203853 186.805048 
L 261.564981 186.663644 
L 261.92611 186.728241 
L 262.648367 187.539189 
L 263.009495 187.569691 
L 264.092881 188.018286 
L 264.45401 187.947709 
L 265.537395 188.230454 
L 265.898524 188.146898 
L 266.981909 188.407933 
L 267.343038 188.316751 
L 268.426423 188.579863 
L 268.787552 188.494203 
L 269.870937 188.758477 
L 270.232066 188.678866 
L 271.315452 188.946537 
L 271.67658 188.867775 
L 272.759966 189.148449 
L 273.121094 189.070895 
L 274.20448 189.348122 
L 274.565608 189.274618 
L 275.648994 189.557001 
L 276.010122 189.486234 
L 276.73238 189.789294 
L 277.815765 189.849987 
L 278.176894 190.017872 
L 279.260279 190.083332 
L 279.621408 190.247874 
L 280.704793 190.32332 
L 281.065922 190.487864 
L 281.788179 190.414921 
L 282.510436 190.739584 
L 283.232693 190.672009 
L 283.95495 190.997495 
L 284.677207 190.937301 
L 285.399464 191.265117 
L 286.121721 191.204968 
L 286.843978 191.541261 
L 287.566235 191.482936 
L 288.288492 191.822373 
L 289.010749 191.776432 
L 289.733006 192.11921 
L 290.455264 192.073062 
L 291.177521 192.422349 
L 291.899778 192.382569 
L 292.622035 192.736139 
L 293.344292 192.702242 
L 294.066549 193.060252 
L 294.788806 193.032574 
L 295.149934 193.217523 
L 295.872191 194.018721 
L 296.23332 194.366415 
L 296.594448 194.542435 
L 297.316706 195.344653 
L 297.677834 195.665235 
L 298.038963 195.801884 
L 298.76122 196.56007 
L 299.122348 196.860677 
L 299.483477 196.97445 
L 300.205734 197.701549 
L 300.566862 197.987578 
L 300.927991 198.081673 
L 301.650248 198.780018 
L 302.011376 199.052057 
L 302.372505 199.12668 
L 303.094762 199.796791 
L 303.45589 200.055011 
L 303.817019 200.110277 
L 304.539276 200.75266 
L 304.900405 200.997574 
L 305.261533 201.034114 
L 305.622662 201.423977 
L 306.344919 201.880709 
L 306.706047 201.897807 
L 307.067176 202.27411 
L 307.789433 202.702702 
L 308.150561 202.69996 
L 308.51169 203.062524 
L 309.233947 203.463587 
L 309.595075 203.441325 
L 309.956204 203.790546 
L 310.317332 203.972665 
L 310.678461 203.880367 
L 311.03959 203.488335 
L 311.400718 203.463552 
L 311.761847 203.643306 
L 312.122975 203.519394 
L 312.484104 203.126423 
L 312.845232 203.119817 
L 313.206361 203.327248 
L 313.567489 203.211276 
L 313.928618 202.822974 
L 314.289746 202.827639 
L 314.650875 203.046815 
L 315.012003 202.932981 
L 315.373132 202.542712 
L 315.73426 202.553249 
L 316.095389 202.780773 
L 316.456517 202.666994 
L 316.817646 202.274155 
L 317.178774 202.288813 
L 317.539903 202.5282 
L 317.901032 202.415049 
L 318.26216 202.015964 
L 318.623289 202.035347 
L 318.984417 202.277289 
L 319.345546 202.16894 
L 319.706674 201.765073 
L 320.067803 201.789069 
L 320.428931 202.038108 
L 320.79006 201.92371 
L 321.151188 201.518849 
L 321.512317 201.546281 
L 321.873445 201.808544 
L 322.234574 201.696506 
L 322.595702 201.286318 
L 322.956831 201.318131 
L 323.317959 201.583384 
L 323.679088 201.476105 
L 324.040216 201.061964 
L 324.401345 201.098037 
L 324.762474 201.370403 
L 325.123602 201.257129 
L 325.484731 200.841663 
L 325.845859 200.880864 
L 326.206988 201.166437 
L 326.568116 201.055518 
L 326.929245 200.634446 
L 327.290373 200.677126 
L 327.651502 200.965733 
L 328.01263 200.859484 
L 328.373759 200.434024 
L 328.734887 200.481379 
L 329.096016 200.776911 
L 329.457144 200.664759 
L 329.818273 200.237659 
L 330.179401 200.290444 
L 330.54053 200.594288 
L 330.901659 200.481937 
L 331.262787 200.047401 
L 331.623916 200.100441 
L 331.985044 200.410924 
L 332.346173 200.306057 
L 332.707301 199.864134 
L 333.06843 199.921128 
L 333.429558 200.2422 
L 333.790687 200.131855 
L 334.151815 199.693509 
L 334.512944 199.751191 
L 334.874072 200.080981 
L 335.235201 199.970765 
L 335.596329 199.525529 
L 335.957458 199.588806 
L 336.318586 199.927153 
L 336.679715 199.819381 
L 337.040843 199.362139 
L 337.401972 199.425994 
L 337.763101 199.768753 
L 338.124229 199.659817 
L 338.485358 199.208115 
L 338.846486 199.273051 
L 339.207615 199.624815 
L 339.568743 199.515595 
L 339.929872 199.057136 
L 340.291 199.127433 
L 340.652129 199.48756 
L 341.013257 199.380663 
L 341.374386 198.910356 
L 341.735514 198.980913 
L 342.096643 199.345425 
L 342.457771 199.242901 
L 342.8189 198.772343 
L 343.541157 198.941835 
L 344.263414 198.430044 
L 344.624543 198.35749 
L 344.985671 198.610773 
L 345.707928 198.291635 
L 346.069057 198.258459 
L 346.430185 198.547428 
L 347.152442 198.264763 
L 347.513571 198.234429 
L 347.874699 198.537429 
L 348.596956 198.267844 
L 348.958085 198.248198 
L 349.319213 198.56056 
L 350.04147 198.304348 
L 350.402599 198.289823 
L 350.763727 198.614613 
L 351.485985 198.367104 
L 351.847113 198.35615 
L 352.208242 198.695435 
L 352.930499 198.464355 
L 353.291627 198.459285 
L 353.652756 198.805721 
L 354.375013 198.586625 
L 354.736141 198.586309 
L 355.09727 198.945308 
L 355.819527 198.740257 
L 356.180655 198.744771 
L 356.541784 199.117929 
L 357.264041 198.923869 
L 357.625169 198.928353 
L 357.986298 199.314146 
L 358.347427 199.182984 
L 359.430812 199.746882 
L 360.153069 199.856597 
L 360.875326 200.014599 
L 361.597583 200.074308 
L 362.31984 200.215231 
L 363.042097 200.271952 
L 363.764354 200.406397 
L 364.486611 200.469742 
L 365.208869 200.602677 
L 365.931126 200.672765 
L 366.653383 200.812625 
L 368.459025 200.914521 
L 374.59821 201.360779 
L 374.59821 201.360779 
" clip-path="url(#pa9cc136941)" style="fill: none; stroke: #6b8e23; stroke-linecap: square"/>
   </g>
   <g id="patch_3">
    <path d="M 33.710938 273.312 
L 33.710938 7.2 
" style="fill: none; stroke: #000000; stroke-width: 0.8; stroke-linejoin: miter; stroke-linecap: square"/>
   </g>
   <g id="patch_4">
    <path d="M 390.830938 273.312 
L 390.830938 7.2 
" style="fill: none; stroke: #000000; stroke-width: 0.8; stroke-linejoin: miter; stroke-linecap: square"/>
   </g>
   <g id="patch_5">
    <path d="M 33.710938 273.312 
L 390.830937 273.312 
" style="fill: none; stroke: #000000; stroke-width: 0.8; stroke-linejoin: miter; stroke-linecap: square"/>
   </g>
   <g id="patch_6">
    <path d="M 33.710938 7.2 
L 390.830937 7.2 
" style="fill: none; stroke: #000000; stroke-width: 0.8; stroke-linejoin: miter; stroke-linecap: square"/>
   </g>
   <g id="legend_1">
    <g id="patch_7">
     <path d="M 235.952812 73.9125 
L 383.830938 73.9125 
Q 385.830938 73.9125 385.830938 71.9125 
L 385.830938 14.2 
Q 385.830938 12.2 383.830938 12.2 
L 235.952812 12.2 
Q 233.952812 12.2 233.952812 14.2 
L 233.952812 71.9125 
Q 233.952812 73.9125 235.952812 73.9125 
z
" style="fill: #ffffff; opacity: 0.8; stroke: #cccccc; stroke-linejoin: miter"/>
    </g>
    <g id="line2d_15">
     <path d="M 237.952812 20.298437 
L 247.952812 20.298437 
L 257.952812 20.298437 
" style="fill: none; stroke: #ff4500; stroke-linecap: square"/>
    </g>
    <g id="text_11">
     <text style="font: 10px 'DejaVu Sans', 'Bitstream Vera Sans', 'Computer Modern Sans Serif', 'Lucida Grande', 'Verdana', 'Geneva', 'Lucid', 'Arial', 'Helvetica', 'Avant Garde', sans-serif; text-anchor: start" x="265.952812" y="23.798437" transform="rotate(-0 265.952812 23.798437)">Analog prediction DB1</text>
    </g>
    <g id="line2d_16">
     <path d="M 237.952812 34.976562 
L 247.952812 34.976562 
L 257.952812 34.976562 
" style="fill: none; stroke: #c71585; stroke-linecap: square"/>
    </g>
    <g id="text_12">
     <text style="font: 10px 'DejaVu Sans', 'Bitstream Vera Sans', 'Computer Modern Sans Serif', 'Lucida Grande', 'Verdana', 'Geneva', 'Lucid', 'Arial', 'Helvetica', 'Avant Garde', sans-serif; text-anchor: start" x="265.952812" y="38.476562" transform="rotate(-0 265.952812 38.476562)">Analog prediction LUAL</text>
    </g>
    <g id="line2d_17">
     <path d="M 237.952812 49.654687 
L 247.952812 49.654687 
L 257.952812 49.654687 
" style="fill: none; stroke: #4682b4; stroke-linecap: square"/>
    </g>
    <g id="text_13">
     <text style="font: 10px 'DejaVu Sans', 'Bitstream Vera Sans', 'Computer Modern Sans Serif', 'Lucida Grande', 'Verdana', 'Geneva', 'Lucid', 'Arial', 'Helvetica', 'Avant Garde', sans-serif; text-anchor: start" x="265.952812" y="53.154687" transform="rotate(-0 265.952812 53.154687)">Analog prediction PVR</text>
    </g>
    <g id="line2d_18">
     <path d="M 237.952812 64.332812 
L 247.952812 64.332812 
L 257.952812 64.332812 
" style="fill: none; stroke: #6b8e23; stroke-linecap: square"/>
    </g>
    <g id="text_14">
     <text style="font: 10px 'DejaVu Sans', 'Bitstream Vera Sans', 'Computer Modern Sans Serif', 'Lucida Grande', 'Verdana', 'Geneva', 'Lucid', 'Arial', 'Helvetica', 'Avant Garde', sans-serif; text-anchor: start" x="265.952812" y="67.832812" transform="rotate(-0 265.952812 67.832812)">Analog prediction VB1</text>
    </g>
   </g>
  </g>
 </g>
 <defs>
  <clipPath id="pa9cc136941">
   <rect x="33.710938" y="7.2" width="357.12" height="266.112"/>
  </clipPath>
 </defs>
</svg>
