<?xml version="1.0" encoding="utf-8" standalone="no"?>
<!DOCTYPE svg PUBLIC "-//W3C//DTD SVG 1.1//EN"
  "http://www.w3.org/Graphics/SVG/1.1/DTD/svg11.dtd">
<svg xmlns:xlink="http://www.w3.org/1999/xlink" width="404.393438pt" height="297.190125pt" viewBox="0 0 404.393438 297.190125" xmlns="http://www.w3.org/2000/svg" version="1.1">
 <metadata>
  <rdf:RDF xmlns:dc="http://purl.org/dc/elements/1.1/" xmlns:cc="http://creativecommons.org/ns#" xmlns:rdf="http://www.w3.org/1999/02/22-rdf-syntax-ns#">
   <cc:Work>
    <dc:type rdf:resource="http://purl.org/dc/dcmitype/StillImage"/>
    <dc:date>2023-10-30T19:25:13.427266</dc:date>
    <dc:format>image/svg+xml</dc:format>
    <dc:creator>
     <cc:Agent>
      <dc:title>Matplotlib v3.8.0, https://matplotlib.org/</dc:title>
     </cc:Agent>
    </dc:creator>
   </cc:Work>
  </rdf:RDF>
 </metadata>
 <defs>
  <style type="text/css">*{stroke-linejoin: round; stroke-linecap: butt}</style>
 </defs>
 <g id="figure_1">
  <g id="patch_1">
   <path d="M 0 297.190125 
L 404.393438 297.190125 
L 404.393438 0 
L 0 0 
z
" style="fill: #ffffff"/>
  </g>
  <g id="axes_1">
   <g id="patch_2">
    <path d="M 40.073438 95.904 
L 397.193438 95.904 
L 397.193438 7.2 
L 40.073438 7.2 
z
" style="fill: #ffffff"/>
   </g>
   <g id="matplotlib.axis_1">
    <g id="xtick_1">
     <g id="line2d_1">
      <defs>
       <path id="m35e1eeef4f" d="M 0 0 
L 0 3.5 
" style="stroke: #000000; stroke-width: 0.8"/>
      </defs>
      <g>
       <use xlink:href="#m35e1eeef4f" x="56.306165" y="95.904" style="stroke: #000000; stroke-width: 0.8"/>
      </g>
     </g>
    </g>
    <g id="xtick_2">
     <g id="line2d_2">
      <g>
       <use xlink:href="#m35e1eeef4f" x="121.30207" y="95.904" style="stroke: #000000; stroke-width: 0.8"/>
      </g>
     </g>
    </g>
    <g id="xtick_3">
     <g id="line2d_3">
      <g>
       <use xlink:href="#m35e1eeef4f" x="186.297975" y="95.904" style="stroke: #000000; stroke-width: 0.8"/>
      </g>
     </g>
    </g>
    <g id="xtick_4">
     <g id="line2d_4">
      <g>
       <use xlink:href="#m35e1eeef4f" x="251.29388" y="95.904" style="stroke: #000000; stroke-width: 0.8"/>
      </g>
     </g>
    </g>
    <g id="xtick_5">
     <g id="line2d_5">
      <g>
       <use xlink:href="#m35e1eeef4f" x="316.289785" y="95.904" style="stroke: #000000; stroke-width: 0.8"/>
      </g>
     </g>
    </g>
    <g id="xtick_6">
     <g id="line2d_6">
      <g>
       <use xlink:href="#m35e1eeef4f" x="381.28569" y="95.904" style="stroke: #000000; stroke-width: 0.8"/>
      </g>
     </g>
    </g>
   </g>
   <g id="matplotlib.axis_2">
    <g id="ytick_1">
     <g id="line2d_7">
      <defs>
       <path id="mca9e859918" d="M 0 0 
L -3.5 0 
" style="stroke: #000000; stroke-width: 0.8"/>
      </defs>
      <g>
       <use xlink:href="#mca9e859918" x="40.073438" y="91.872" style="stroke: #000000; stroke-width: 0.8"/>
      </g>
     </g>
     <g id="text_1">
      <text style="font: 10px 'DejaVu Sans', 'Bitstream Vera Sans', 'Computer Modern Sans Serif', 'Lucida Grande', 'Verdana', 'Geneva', 'Lucid', 'Arial', 'Helvetica', 'Avant Garde', sans-serif; text-anchor: end" x="33.073438" y="95.671219" transform="rotate(-0 33.073438 95.671219)">0</text>
     </g>
    </g>
    <g id="ytick_2">
     <g id="line2d_8">
      <g>
       <use xlink:href="#mca9e859918" x="40.073438" y="56.81113" style="stroke: #000000; stroke-width: 0.8"/>
      </g>
     </g>
     <g id="text_2">
      <text style="font: 10px 'DejaVu Sans', 'Bitstream Vera Sans', 'Computer Modern Sans Serif', 'Lucida Grande', 'Verdana', 'Geneva', 'Lucid', 'Arial', 'Helvetica', 'Avant Garde', sans-serif; text-anchor: end" x="33.073438" y="60.610349" transform="rotate(-0 33.073438 60.610349)">1</text>
     </g>
    </g>
    <g id="ytick_3">
     <g id="line2d_9">
      <g>
       <use xlink:href="#mca9e859918" x="40.073438" y="21.750261" style="stroke: #000000; stroke-width: 0.8"/>
      </g>
     </g>
     <g id="text_3">
      <text style="font: 10px 'DejaVu Sans', 'Bitstream Vera Sans', 'Computer Modern Sans Serif', 'Lucida Grande', 'Verdana', 'Geneva', 'Lucid', 'Arial', 'Helvetica', 'Avant Garde', sans-serif; text-anchor: end" x="33.073438" y="25.54948" transform="rotate(-0 33.073438 25.54948)">2</text>
     </g>
    </g>
   </g>
   <g id="line2d_10">
    <path d="M 56.306165 91.872 
L 120.97709 91.872 
L 121.30207 42.786783 
L 133.976271 42.786783 
L 134.301251 91.872 
L 380.96071 91.872 
L 380.96071 91.872 
" clip-path="url(#p42cae63ea8)" style="fill: none; stroke: #ff4500; stroke-width: 1.5; stroke-linecap: square"/>
   </g>
   <g id="line2d_11">
    <path d="M 56.306165 91.872 
L 120.97709 91.872 
L 121.30207 42.786783 
L 250.9689 42.786783 
L 251.29388 91.872 
L 380.96071 91.872 
L 380.96071 91.872 
" clip-path="url(#p42cae63ea8)" style="fill: none; stroke-dasharray: 5.55,2.4; stroke-dashoffset: 0; stroke: #c71585; stroke-width: 1.5"/>
   </g>
   <g id="line2d_12">
    <path d="M 56.306165 91.872 
L 120.97709 91.872 
L 121.30207 11.232 
L 153.475043 11.232 
L 153.800022 91.872 
L 185.972995 91.872 
L 186.297975 11.232 
L 218.470948 11.232 
L 218.795927 91.872 
L 250.9689 91.872 
L 251.29388 11.232 
L 283.466853 11.232 
L 283.791832 91.872 
L 380.96071 91.872 
L 380.96071 91.872 
" clip-path="url(#p42cae63ea8)" style="fill: none; stroke-dasharray: 9.6,2.4,1.5,2.4; stroke-dashoffset: 0; stroke: #4682b4; stroke-width: 1.5"/>
   </g>
   <g id="line2d_13">
    <path d="M 56.306165 91.872 
L 121.30207 91.855872 
L 153.800022 11.232 
L 186.297975 91.855872 
L 218.795927 11.232 
L 251.29388 91.855872 
L 283.791832 11.232 
L 316.289785 91.872 
L 380.96071 91.872 
L 380.96071 91.872 
" clip-path="url(#p42cae63ea8)" style="fill: none; stroke-dasharray: 2.5,4.125; stroke-dashoffset: 0; stroke: #6b8e23; stroke-width: 2.5"/>
   </g>
   <g id="patch_3">
    <path d="M 40.073438 95.904 
L 40.073438 7.2 
" style="fill: none; stroke: #000000; stroke-width: 0.8; stroke-linejoin: miter; stroke-linecap: square"/>
   </g>
   <g id="patch_4">
    <path d="M 397.193438 95.904 
L 397.193438 7.2 
" style="fill: none; stroke: #000000; stroke-width: 0.8; stroke-linejoin: miter; stroke-linecap: square"/>
   </g>
   <g id="patch_5">
    <path d="M 40.073438 95.904 
L 397.193437 95.904 
" style="fill: none; stroke: #000000; stroke-width: 0.8; stroke-linejoin: miter; stroke-linecap: square"/>
   </g>
   <g id="patch_6">
    <path d="M 40.073438 7.2 
L 397.193437 7.2 
" style="fill: none; stroke: #000000; stroke-width: 0.8; stroke-linejoin: miter; stroke-linecap: square"/>
   </g>
   <g id="legend_1">
    <g id="patch_7">
     <path d="M 326.029375 73.9125 
L 390.193438 73.9125 
Q 392.193438 73.9125 392.193438 71.9125 
L 392.193438 14.2 
Q 392.193438 12.2 390.193438 12.2 
L 326.029375 12.2 
Q 324.029375 12.2 324.029375 14.2 
L 324.029375 71.9125 
Q 324.029375 73.9125 326.029375 73.9125 
z
" style="fill: #ffffff; opacity: 0.8; stroke: #cccccc; stroke-linejoin: miter"/>
    </g>
    <g id="line2d_14">
     <path d="M 328.029375 20.298437 
L 338.029375 20.298437 
L 348.029375 20.298437 
" style="fill: none; stroke: #ff4500; stroke-width: 1.5; stroke-linecap: square"/>
    </g>
    <g id="text_4">
     <text style="font: 10px 'DejaVu Sans', 'Bitstream Vera Sans', 'Computer Modern Sans Serif', 'Lucida Grande', 'Verdana', 'Geneva', 'Lucid', 'Arial', 'Helvetica', 'Avant Garde', sans-serif; text-anchor: start" x="356.029375" y="23.798437" transform="rotate(-0 356.029375 23.798437)">PLML2</text>
    </g>
    <g id="line2d_15">
     <path d="M 328.029375 34.976562 
L 338.029375 34.976562 
L 348.029375 34.976562 
" style="fill: none; stroke-dasharray: 5.55,2.4; stroke-dashoffset: 0; stroke: #c71585; stroke-width: 1.5"/>
    </g>
    <g id="text_5">
     <text style="font: 10px 'DejaVu Sans', 'Bitstream Vera Sans', 'Computer Modern Sans Serif', 'Lucida Grande', 'Verdana', 'Geneva', 'Lucid', 'Arial', 'Helvetica', 'Avant Garde', sans-serif; text-anchor: start" x="356.029375" y="38.476562" transform="rotate(-0 356.029375 38.476562)">PLMR</text>
    </g>
    <g id="line2d_16">
     <path d="M 328.029375 49.654687 
L 338.029375 49.654687 
L 348.029375 49.654687 
" style="fill: none; stroke-dasharray: 9.6,2.4,1.5,2.4; stroke-dashoffset: 0; stroke: #4682b4; stroke-width: 1.5"/>
    </g>
    <g id="text_6">
     <text style="font: 10px 'DejaVu Sans', 'Bitstream Vera Sans', 'Computer Modern Sans Serif', 'Lucida Grande', 'Verdana', 'Geneva', 'Lucid', 'Arial', 'Helvetica', 'Avant Garde', sans-serif; text-anchor: start" x="356.029375" y="53.154687" transform="rotate(-0 356.029375 53.154687)">AVBL</text>
    </g>
    <g id="line2d_17">
     <path d="M 328.029375 64.332812 
L 338.029375 64.332812 
L 348.029375 64.332812 
" style="fill: none; stroke-dasharray: 2.5,4.125; stroke-dashoffset: 0; stroke: #6b8e23; stroke-width: 2.5"/>
    </g>
    <g id="text_7">
     <text style="font: 10px 'DejaVu Sans', 'Bitstream Vera Sans', 'Computer Modern Sans Serif', 'Lucida Grande', 'Verdana', 'Geneva', 'Lucid', 'Arial', 'Helvetica', 'Avant Garde', sans-serif; text-anchor: start" x="356.029375" y="67.832812" transform="rotate(-0 356.029375 67.832812)">AVBR</text>
    </g>
   </g>
  </g>
  <g id="axes_2">
   <g id="patch_8">
    <path d="M 40.073438 273.312 
L 397.193438 273.312 
L 397.193438 95.904 
L 40.073438 95.904 
z
" style="fill: #ffffff"/>
   </g>
   <g id="matplotlib.axis_3">
    <g id="xtick_7">
     <g id="line2d_18">
      <g>
       <use xlink:href="#m35e1eeef4f" x="56.306165" y="273.312" style="stroke: #000000; stroke-width: 0.8"/>
      </g>
     </g>
     <g id="text_8">
      <text style="font: 10px 'DejaVu Sans', 'Bitstream Vera Sans', 'Computer Modern Sans Serif', 'Lucida Grande', 'Verdana', 'Geneva', 'Lucid', 'Arial', 'Helvetica', 'Avant Garde', sans-serif; text-anchor: middle" x="56.306165" y="287.910437" transform="rotate(-0 56.306165 287.910437)">0</text>
     </g>
    </g>
    <g id="xtick_8">
     <g id="line2d_19">
      <g>
       <use xlink:href="#m35e1eeef4f" x="121.30207" y="273.312" style="stroke: #000000; stroke-width: 0.8"/>
      </g>
     </g>
     <g id="text_9">
      <text style="font: 10px 'DejaVu Sans', 'Bitstream Vera Sans', 'Computer Modern Sans Serif', 'Lucida Grande', 'Verdana', 'Geneva', 'Lucid', 'Arial', 'Helvetica', 'Avant Garde', sans-serif; text-anchor: middle" x="121.30207" y="287.910437" transform="rotate(-0 121.30207 287.910437)">100</text>
     </g>
    </g>
    <g id="xtick_9">
     <g id="line2d_20">
      <g>
       <use xlink:href="#m35e1eeef4f" x="186.297975" y="273.312" style="stroke: #000000; stroke-width: 0.8"/>
      </g>
     </g>
     <g id="text_10">
      <text style="font: 10px 'DejaVu Sans', 'Bitstream Vera Sans', 'Computer Modern Sans Serif', 'Lucida Grande', 'Verdana', 'Geneva', 'Lucid', 'Arial', 'Helvetica', 'Avant Garde', sans-serif; text-anchor: middle" x="186.297975" y="287.910437" transform="rotate(-0 186.297975 287.910437)">200</text>
     </g>
    </g>
    <g id="xtick_10">
     <g id="line2d_21">
      <g>
       <use xlink:href="#m35e1eeef4f" x="251.29388" y="273.312" style="stroke: #000000; stroke-width: 0.8"/>
      </g>
     </g>
     <g id="text_11">
      <text style="font: 10px 'DejaVu Sans', 'Bitstream Vera Sans', 'Computer Modern Sans Serif', 'Lucida Grande', 'Verdana', 'Geneva', 'Lucid', 'Arial', 'Helvetica', 'Avant Garde', sans-serif; text-anchor: middle" x="251.29388" y="287.910437" transform="rotate(-0 251.29388 287.910437)">300</text>
     </g>
    </g>
    <g id="xtick_11">
     <g id="line2d_22">
      <g>
       <use xlink:href="#m35e1eeef4f" x="316.289785" y="273.312" style="stroke: #000000; stroke-width: 0.8"/>
      </g>
     </g>
     <g id="text_12">
      <text style="font: 10px 'DejaVu Sans', 'Bitstream Vera Sans', 'Computer Modern Sans Serif', 'Lucida Grande', 'Verdana', 'Geneva', 'Lucid', 'Arial', 'Helvetica', 'Avant Garde', sans-serif; text-anchor: middle" x="316.289785" y="287.910437" transform="rotate(-0 316.289785 287.910437)">400</text>
     </g>
    </g>
    <g id="xtick_12">
     <g id="line2d_23">
      <g>
       <use xlink:href="#m35e1eeef4f" x="381.28569" y="273.312" style="stroke: #000000; stroke-width: 0.8"/>
      </g>
     </g>
     <g id="text_13">
      <text style="font: 10px 'DejaVu Sans', 'Bitstream Vera Sans', 'Computer Modern Sans Serif', 'Lucida Grande', 'Verdana', 'Geneva', 'Lucid', 'Arial', 'Helvetica', 'Avant Garde', sans-serif; text-anchor: middle" x="381.28569" y="287.910437" transform="rotate(-0 381.28569 287.910437)">500</text>
     </g>
    </g>
   </g>
   <g id="matplotlib.axis_4">
    <g id="ytick_4">
     <g id="line2d_24">
      <g>
       <use xlink:href="#mca9e859918" x="40.073438" y="266.863849" style="stroke: #000000; stroke-width: 0.8"/>
      </g>
     </g>
     <g id="text_14">
      <text style="font: 10px 'DejaVu Sans', 'Bitstream Vera Sans', 'Computer Modern Sans Serif', 'Lucida Grande', 'Verdana', 'Geneva', 'Lucid', 'Arial', 'Helvetica', 'Avant Garde', sans-serif; text-anchor: end" x="33.073438" y="270.663068" transform="rotate(-0 33.073438 270.663068)">-0.25</text>
     </g>
    </g>
    <g id="ytick_5">
     <g id="line2d_25">
      <g>
       <use xlink:href="#mca9e859918" x="40.073438" y="241.771902" style="stroke: #000000; stroke-width: 0.8"/>
      </g>
     </g>
     <g id="text_15">
      <text style="font: 10px 'DejaVu Sans', 'Bitstream Vera Sans', 'Computer Modern Sans Serif', 'Lucida Grande', 'Verdana', 'Geneva', 'Lucid', 'Arial', 'Helvetica', 'Avant Garde', sans-serif; text-anchor: end" x="33.073438" y="245.57112" transform="rotate(-0 33.073438 245.57112)">0.00</text>
     </g>
    </g>
    <g id="ytick_6">
     <g id="line2d_26">
      <g>
       <use xlink:href="#mca9e859918" x="40.073438" y="216.679954" style="stroke: #000000; stroke-width: 0.8"/>
      </g>
     </g>
     <g id="text_16">
      <text style="font: 10px 'DejaVu Sans', 'Bitstream Vera Sans', 'Computer Modern Sans Serif', 'Lucida Grande', 'Verdana', 'Geneva', 'Lucid', 'Arial', 'Helvetica', 'Avant Garde', sans-serif; text-anchor: end" x="33.073438" y="220.479173" transform="rotate(-0 33.073438 220.479173)">0.25</text>
     </g>
    </g>
    <g id="ytick_7">
     <g id="line2d_27">
      <g>
       <use xlink:href="#mca9e859918" x="40.073438" y="191.588007" style="stroke: #000000; stroke-width: 0.8"/>
      </g>
     </g>
     <g id="text_17">
      <text style="font: 10px 'DejaVu Sans', 'Bitstream Vera Sans', 'Computer Modern Sans Serif', 'Lucida Grande', 'Verdana', 'Geneva', 'Lucid', 'Arial', 'Helvetica', 'Avant Garde', sans-serif; text-anchor: end" x="33.073438" y="195.387225" transform="rotate(-0 33.073438 195.387225)">0.50</text>
     </g>
    </g>
    <g id="ytick_8">
     <g id="line2d_28">
      <g>
       <use xlink:href="#mca9e859918" x="40.073438" y="166.496059" style="stroke: #000000; stroke-width: 0.8"/>
      </g>
     </g>
     <g id="text_18">
      <text style="font: 10px 'DejaVu Sans', 'Bitstream Vera Sans', 'Computer Modern Sans Serif', 'Lucida Grande', 'Verdana', 'Geneva', 'Lucid', 'Arial', 'Helvetica', 'Avant Garde', sans-serif; text-anchor: end" x="33.073438" y="170.295278" transform="rotate(-0 33.073438 170.295278)">0.75</text>
     </g>
    </g>
    <g id="ytick_9">
     <g id="line2d_29">
      <g>
       <use xlink:href="#mca9e859918" x="40.073438" y="141.404112" style="stroke: #000000; stroke-width: 0.8"/>
      </g>
     </g>
     <g id="text_19">
      <text style="font: 10px 'DejaVu Sans', 'Bitstream Vera Sans', 'Computer Modern Sans Serif', 'Lucida Grande', 'Verdana', 'Geneva', 'Lucid', 'Arial', 'Helvetica', 'Avant Garde', sans-serif; text-anchor: end" x="33.073438" y="145.20333" transform="rotate(-0 33.073438 145.20333)">1.00</text>
     </g>
    </g>
    <g id="ytick_10">
     <g id="line2d_30">
      <g>
       <use xlink:href="#mca9e859918" x="40.073438" y="116.312164" style="stroke: #000000; stroke-width: 0.8"/>
      </g>
     </g>
     <g id="text_20">
      <text style="font: 10px 'DejaVu Sans', 'Bitstream Vera Sans', 'Computer Modern Sans Serif', 'Lucida Grande', 'Verdana', 'Geneva', 'Lucid', 'Arial', 'Helvetica', 'Avant Garde', sans-serif; text-anchor: end" x="33.073438" y="120.111383" transform="rotate(-0 33.073438 120.111383)">1.25</text>
     </g>
    </g>
   </g>
   <g id="line2d_31">
    <path d="M 56.306165 248.295808 
L 121.30207 248.295808 
L 121.627049 247.109226 
L 122.277008 243.433938 
L 124.551865 227.938651 
L 127.151701 210.625418 
L 129.101578 198.972125 
L 130.726476 190.330398 
L 133.976271 176.337462 
L 134.301251 174.967271 
L 134.62623 174.758235 
L 134.95121 175.014675 
L 135.601169 176.134408 
L 136.576107 178.436364 
L 141.77578 191.682764 
L 143.400677 194.964981 
L 145.025575 197.764018 
L 146.650473 200.173467 
L 148.27537 202.18819 
L 149.900268 203.867434 
L 151.525166 205.226885 
L 153.475043 206.536354 
L 157.049818 208.52482 
L 159.649654 209.687521 
L 162.574469 210.744715 
L 166.149244 211.778905 
L 170.373978 212.758424 
L 175.89863 213.801998 
L 184.673077 215.200242 
L 187.922872 215.588816 
L 191.822627 215.685069 
L 198.322217 215.578137 
L 203.19691 215.207719 
L 214.896173 214.048261 
L 222.045723 213.307948 
L 226.920415 213.292802 
L 232.445067 213.504327 
L 238.944658 213.984356 
L 246.744166 214.797737 
L 251.618859 215.441928 
L 252.593798 215.957868 
L 254.218695 217.173362 
L 257.143511 219.725484 
L 261.368245 223.483977 
L 264.61804 226.044028 
L 267.542856 228.076556 
L 270.467672 229.838372 
L 273.392487 231.332698 
L 276.317303 232.578998 
L 279.242119 233.5958 
L 282.491914 234.483598 
L 287.366607 235.73554 
L 294.191177 237.492219 
L 302.640645 239.423146 
L 313.364969 241.629507 
L 323.114355 243.440772 
L 330.263904 244.518217 
L 337.738433 245.416383 
L 345.862922 246.168044 
L 355.287328 246.807736 
L 366.336632 247.323211 
L 379.985772 247.723778 
L 380.96071 247.745143 
L 380.96071 247.745143 
" clip-path="url(#p75f804eb44)" style="fill: none; stroke: #66cdaa; stroke-linecap: square"/>
   </g>
   <g id="line2d_32">
    <path d="M 56.306165 245.693683 
L 56.631144 243.760671 
L 56.956124 242.622492 
L 57.281103 241.953566 
L 57.931062 241.330732 
L 58.581021 241.117038 
L 59.88094 241.019092 
L 67.355469 241.00628 
L 120.97709 241.00628 
L 122.601988 200.784705 
L 123.576926 183.677891 
L 124.551865 170.484133 
L 125.526804 160.683108 
L 126.501742 153.271238 
L 127.476681 147.739698 
L 128.451619 143.858616 
L 129.426558 141.076321 
L 130.401496 139.191464 
L 131.376435 137.914504 
L 132.351374 137.055768 
L 133.326312 136.483972 
L 133.976271 136.304575 
L 134.301251 103.968 
L 135.601169 151.712667 
L 136.251128 167.784129 
L 136.901087 179.484384 
L 137.551046 187.811673 
L 138.201005 193.745709 
L 138.850964 197.968839 
L 139.500923 200.884456 
L 140.150882 202.860444 
L 140.800841 204.160073 
L 141.4508 204.970773 
L 142.100759 205.434603 
L 142.750718 205.653692 
L 143.725657 205.669554 
L 144.700596 205.426224 
L 146.000514 204.84266 
L 147.300432 204.047086 
L 148.925329 202.772126 
L 151.200186 200.690462 
L 153.475043 198.544438 
L 153.800022 169.625497 
L 154.449981 183.781681 
L 155.09994 197.16191 
L 155.749899 206.223507 
L 156.399858 211.706102 
L 157.049818 214.83128 
L 157.699777 216.567515 
L 158.349736 217.513899 
L 158.999695 218.022761 
L 159.974633 218.378479 
L 161.274551 218.551885 
L 163.874388 218.591865 
L 175.57365 218.369922 
L 179.798384 218.178222 
L 185.972995 217.710848 
L 186.297975 219.304445 
L 186.947934 225.40061 
L 187.272913 226.653831 
L 187.597893 227.125314 
L 187.922872 227.038101 
L 188.247852 226.577366 
L 188.897811 225.137724 
L 190.847688 220.357121 
L 191.822627 218.702952 
L 192.797565 217.482103 
L 194.097483 216.306288 
L 195.722381 215.232145 
L 203.19691 210.802774 
L 206.121726 208.786201 
L 213.271275 203.482415 
L 215.871112 201.065118 
L 218.470948 198.565557 
L 218.795927 169.64167 
L 219.445886 183.791252 
L 220.095845 197.1673 
L 220.745804 206.226478 
L 221.395763 211.707718 
L 222.045723 214.832153 
L 222.695682 216.567982 
L 223.345641 217.514147 
L 223.9956 218.022886 
L 224.970538 218.378525 
L 226.270456 218.551897 
L 228.870293 218.591871 
L 240.569555 218.369922 
L 244.794289 218.178222 
L 250.9689 217.710848 
L 251.29388 219.349077 
L 251.943839 227.775921 
L 252.268818 230.102024 
L 252.593798 231.569147 
L 252.918777 232.393078 
L 253.243757 232.764745 
L 253.568736 232.835076 
L 254.218695 232.472581 
L 255.518614 231.096382 
L 258.11845 228.360521 
L 273.717467 212.801448 
L 279.242119 207.246278 
L 283.466853 202.888328 
L 283.791832 184.90288 
L 284.441791 204.819209 
L 285.09175 217.456055 
L 285.741709 223.910039 
L 286.391668 226.989037 
L 287.041628 228.44374 
L 287.691587 229.157269 
L 288.666525 229.68351 
L 290.291423 230.179857 
L 295.491095 231.669773 
L 299.715829 233.130457 
L 305.240481 235.362265 
L 310.440153 237.717214 
L 317.264723 240.916824 
L 318.889621 240.998725 
L 331.563822 241.00628 
L 380.96071 241.00628 
L 380.96071 241.00628 
" clip-path="url(#p75f804eb44)" style="fill: none; stroke-dasharray: 3.7,1.6; stroke-dashoffset: 0; stroke: #b22222"/>
   </g>
   <g id="line2d_33">
    <path d="M 56.306165 250.922427 
L 72.880121 251.003967 
L 119.677172 251.003967 
L 120.002152 250.091819 
L 120.327131 249.770122 
L 120.652111 248.565748 
L 121.30207 245.007242 
L 121.627049 244.407578 
L 122.277008 241.127316 
L 122.601988 239.159719 
L 122.926967 238.566491 
L 123.576926 235.290646 
L 123.901906 233.338308 
L 124.226885 232.762383 
L 124.876845 229.515262 
L 125.201824 227.579003 
L 125.526804 227.016479 
L 126.176763 223.794469 
L 126.501742 221.871879 
L 126.826722 221.321054 
L 127.476681 218.121583 
L 127.80166 216.212189 
L 128.12664 215.671944 
L 128.776599 212.493606 
L 129.101578 210.596715 
L 129.426558 210.067551 
L 130.076517 206.911096 
L 130.401496 205.026718 
L 130.726476 204.508636 
L 131.376435 201.374108 
L 131.701415 199.50232 
L 132.026394 198.995319 
L 132.676353 195.881209 
L 133.001333 194.021209 
L 133.651292 193.033326 
L 133.976271 191.666648 
L 134.301251 191.023639 
L 134.62623 192.191545 
L 134.95121 192.703529 
L 135.276189 191.626722 
L 135.601169 191.276685 
L 135.926148 192.59828 
L 136.251128 193.182433 
L 136.576107 192.111574 
L 136.901087 191.778648 
L 137.551046 194.12553 
L 137.876026 193.765155 
L 138.201005 194.303529 
L 138.850964 196.999818 
L 139.175944 196.699486 
L 139.500923 197.24822 
L 140.150882 199.911101 
L 140.475862 199.605886 
L 140.800841 200.151316 
L 141.4508 202.795602 
L 141.77578 202.485214 
L 142.100759 203.030293 
L 142.750718 205.668768 
L 143.075698 205.355285 
L 143.400677 205.894187 
L 144.050637 208.517763 
L 144.375616 208.204632 
L 144.700596 208.7464 
L 145.350555 211.360523 
L 145.675534 211.043791 
L 146.000514 211.586836 
L 146.650473 214.198322 
L 146.975452 213.879117 
L 147.300432 214.416213 
L 147.950391 217.013038 
L 148.27537 216.694395 
L 148.60035 217.23409 
L 149.250309 219.821307 
L 149.575288 219.499262 
L 149.900268 220.040205 
L 150.550227 222.623098 
L 150.875207 222.298709 
L 151.200186 222.392971 
L 151.525166 223.106627 
L 151.850145 223.381492 
L 152.175125 222.876322 
L 152.500104 222.793599 
L 152.825084 223.438457 
L 153.150063 223.693561 
L 153.475043 223.208262 
L 153.800022 223.129491 
L 154.125002 223.77615 
L 154.449981 224.035135 
L 154.774961 223.55434 
L 155.09994 223.481147 
L 155.42492 224.130021 
L 155.749899 224.390415 
L 156.074879 223.915185 
L 156.399858 223.841364 
L 156.724838 224.486884 
L 157.049818 224.752674 
L 157.374797 224.288216 
L 157.699777 224.220697 
L 158.024756 224.864889 
L 158.349736 225.123079 
L 158.674715 224.651489 
L 158.999695 224.584756 
L 159.324674 225.227786 
L 159.649654 225.485127 
L 159.974633 225.017563 
L 160.299613 224.949344 
L 160.624592 225.588558 
L 160.949572 225.851097 
L 161.274551 225.394139 
L 161.599531 225.332329 
L 161.92451 225.970053 
L 162.24949 226.224907 
L 162.574469 225.766312 
L 162.899449 225.711207 
L 164.199367 228.396992 
L 164.849326 230.218083 
L 165.174306 230.602702 
L 166.149244 233.242583 
L 166.474224 233.617367 
L 167.449162 236.211454 
L 167.774142 236.573036 
L 168.74908 239.110848 
L 169.07406 239.450347 
L 170.048999 241.943448 
L 170.373978 242.268509 
L 171.348917 244.691906 
L 171.673896 245.001143 
L 172.648835 247.380139 
L 172.973814 247.668166 
L 173.948753 249.993326 
L 174.273732 250.262373 
L 175.248671 252.523552 
L 175.57365 252.780997 
L 176.548589 254.989244 
L 176.873569 255.222827 
L 177.198548 255.275309 
L 178.173487 255.076394 
L 179.798384 254.615822 
L 180.448343 254.339761 
L 181.098302 254.235774 
L 181.748261 253.962908 
L 182.39822 253.846737 
L 183.04818 253.582426 
L 183.698139 253.444971 
L 184.348098 253.182544 
L 184.998057 253.047403 
L 185.648016 252.782373 
L 186.297975 252.643506 
L 187.272913 252.349317 
L 206.446705 246.319395 
L 208.071603 242.778187 
L 208.396582 241.792279 
L 208.721562 241.482622 
L 209.371521 239.807753 
L 209.696501 238.842807 
L 210.02148 238.554426 
L 210.671439 236.916966 
L 210.996419 235.971309 
L 211.321398 235.702053 
L 211.971357 234.100505 
L 212.296337 233.174279 
L 212.621316 232.923972 
L 213.271275 231.358146 
L 213.596255 230.451098 
L 213.921234 230.219722 
L 214.571193 228.689411 
L 214.896173 227.801256 
L 215.221152 227.587626 
L 215.871112 226.092606 
L 216.196091 225.223819 
L 216.521071 225.029176 
L 217.17103 223.570345 
L 217.496009 222.721248 
L 217.820989 222.545716 
L 218.470948 221.123297 
L 218.795927 220.293654 
L 219.120907 220.136727 
L 219.770866 218.749579 
L 220.095845 217.93905 
L 220.420825 218.342786 
L 220.745804 218.514883 
L 221.070784 217.975969 
L 221.395763 217.856869 
L 221.720743 218.533895 
L 222.045723 218.816442 
L 222.370702 218.310747 
L 222.695682 218.213734 
L 223.020661 218.893237 
L 223.345641 219.172332 
L 223.67062 218.665217 
L 223.9956 218.568748 
L 224.320579 219.245361 
L 224.645559 219.522312 
L 224.970538 219.017066 
L 225.295518 218.921992 
L 225.620497 219.596595 
L 225.945477 219.871749 
L 226.270456 219.366188 
L 226.595436 219.271647 
L 226.920415 219.945562 
L 227.245395 220.222302 
L 227.570374 219.722427 
L 227.895354 219.62984 
L 228.220333 220.29972 
L 228.545313 220.576646 
L 228.870293 220.081991 
L 229.195272 219.994809 
L 229.520252 220.665543 
L 229.845231 220.938483 
L 230.170211 220.439312 
L 230.49519 220.349269 
L 230.82017 221.017093 
L 231.145149 221.290329 
L 231.470129 220.796385 
L 231.795108 220.708024 
L 232.120088 221.371121 
L 232.445067 221.643826 
L 232.770047 221.155433 
L 233.095026 221.072608 
L 233.420006 221.736668 
L 233.744985 222.00525 
L 234.069965 221.512318 
L 234.394944 221.42665 
L 234.719924 222.087674 
L 235.044904 222.356654 
L 235.369883 221.869005 
L 235.694863 221.78476 
L 236.019842 222.440953 
L 236.344822 222.70953 
L 236.669801 222.226981 
L 236.994781 222.14877 
L 237.31976 222.806601 
L 237.64474 223.071148 
L 237.969719 222.589301 
L 238.294699 222.514441 
L 238.619678 223.171457 
L 238.944658 223.437692 
L 239.269637 222.956949 
L 239.594617 222.878714 
L 239.919596 223.530856 
L 240.244576 223.796425 
L 240.569555 223.319226 
L 240.894535 223.243696 
L 241.219514 223.892869 
L 241.544494 224.153764 
L 241.869474 223.679786 
L 242.194453 223.606759 
L 242.519433 224.252689 
L 242.844412 224.511824 
L 243.169392 224.036092 
L 243.494371 223.966279 
L 243.819351 224.617218 
L 244.14433 224.882034 
L 244.46931 224.413337 
L 244.794289 224.343655 
L 245.119269 224.986792 
L 245.444248 225.244477 
L 245.769228 224.778008 
L 246.094207 224.710533 
L 246.419187 225.350081 
L 246.744166 225.605804 
L 247.069146 225.137485 
L 247.394125 225.073375 
L 247.719105 225.717961 
L 248.044085 225.979325 
L 248.369064 225.518124 
L 248.694044 225.454081 
L 249.019023 226.090725 
L 249.344003 226.351996 
L 249.668982 225.899093 
L 250.318941 227.28055 
L 250.643921 228.221853 
L 250.9689 228.602598 
L 251.943839 231.249615 
L 252.268818 231.633072 
L 253.243757 234.263488 
L 253.568736 234.634105 
L 254.543675 237.20987 
L 254.868655 237.56069 
L 255.843593 240.078602 
L 256.168573 240.414955 
L 257.143511 242.890943 
L 257.468491 243.205714 
L 258.443429 245.62074 
L 258.768409 245.920166 
L 259.743347 248.280101 
L 260.068327 248.565086 
L 261.043266 250.866266 
L 261.368245 251.128584 
L 262.343184 253.384017 
L 262.668163 253.631721 
L 263.318122 255.011638 
L 263.968081 255.241774 
L 264.61804 255.066136 
L 265.267999 254.960757 
L 265.917958 254.722329 
L 266.567917 254.577225 
L 269.817713 253.5715 
L 271.44261 253.054254 
L 272.092569 252.905904 
L 272.742528 252.651471 
L 273.392487 252.515112 
L 274.367426 252.220882 
L 293.216238 246.270395 
L 293.866198 245.363067 
L 294.191177 244.754561 
L 294.516157 244.577069 
L 295.166116 243.565134 
L 295.491095 242.954439 
L 295.816075 242.790801 
L 296.466034 241.812321 
L 296.791013 241.223482 
L 297.115993 241.080022 
L 297.765952 240.142927 
L 298.090931 239.578273 
L 298.415911 239.455569 
L 299.06587 238.562647 
L 299.390849 238.022619 
L 299.715829 237.920738 
L 300.365788 237.072533 
L 300.690768 236.557063 
L 301.015747 236.476063 
L 301.665706 235.670542 
L 301.990686 235.178345 
L 302.315665 235.117491 
L 302.965624 234.355948 
L 303.290604 233.888524 
L 303.615583 233.848666 
L 304.265542 233.131397 
L 304.590522 232.688526 
L 304.915501 232.669558 
L 305.56546 231.995746 
L 305.89044 231.576245 
L 306.215419 231.577303 
L 306.540399 231.332802 
L 306.865379 230.947299 
L 307.190358 230.839622 
L 307.840317 231.510869 
L 308.165297 231.259887 
L 308.490276 231.252301 
L 308.815256 231.725588 
L 309.140235 231.994046 
L 309.465215 231.754059 
L 309.790194 231.755165 
L 310.115174 232.22665 
L 310.440153 232.49461 
L 310.765133 232.259621 
L 311.090112 232.263983 
L 311.415092 232.730981 
L 311.740071 232.996281 
L 312.065051 232.765588 
L 312.39003 232.771545 
L 312.71501 233.233011 
L 313.03999 233.491188 
L 313.364969 233.26522 
L 313.689949 233.277102 
L 314.014928 233.735755 
L 314.339908 233.995823 
L 314.664887 233.77115 
L 314.989867 233.785382 
L 315.314846 234.240159 
L 315.639826 234.500676 
L 315.964805 234.285374 
L 316.289785 234.299897 
L 316.614764 234.746916 
L 316.939744 234.996029 
L 317.264723 234.781768 
L 317.589703 234.800003 
L 317.914682 235.243761 
L 318.239662 235.494181 
L 318.564641 235.280927 
L 318.889621 235.300377 
L 319.2146 235.740227 
L 319.53958 235.99217 
L 319.86456 235.788427 
L 320.189539 235.808208 
L 320.514519 236.240296 
L 320.839498 236.480959 
L 321.164478 236.278505 
L 321.489457 236.302009 
L 321.814437 236.730578 
L 322.139416 236.971745 
L 322.464396 236.770325 
L 322.789375 236.79498 
L 323.439334 237.461344 
L 323.764314 237.269757 
L 324.089293 237.294902 
L 324.739252 237.952454 
L 325.064232 237.769348 
L 325.389211 237.801484 
L 325.714191 238.215874 
L 326.039171 238.450046 
L 326.36415 238.261933 
L 326.68913 238.296224 
L 327.339089 238.934124 
L 327.664068 238.752364 
L 327.989048 238.781592 
L 328.639007 239.414367 
L 328.963986 239.240665 
L 329.288966 239.274204 
L 329.938925 239.894512 
L 330.263904 239.726798 
L 330.588884 239.773517 
L 331.238843 240.393804 
L 331.563822 240.225657 
L 331.888802 240.261668 
L 332.538761 240.872827 
L 332.863741 240.712015 
L 333.18872 240.751415 
L 333.838679 241.349487 
L 334.163659 241.194656 
L 334.488638 241.247106 
L 335.138597 241.845027 
L 335.463577 241.689682 
L 335.788556 241.739606 
L 336.438515 242.338014 
L 336.763495 242.624539 
L 339.688311 248.284046 
L 340.663249 250.021187 
L 341.638188 251.948327 
L 341.963167 252.395263 
L 342.938106 254.241322 
L 343.263085 254.675058 
L 344.238024 256.453895 
L 344.563003 256.859186 
L 345.537942 258.582286 
L 345.862922 258.967075 
L 346.83786 260.6107 
L 347.16284 260.970434 
L 348.137778 262.538106 
L 348.462758 262.880849 
L 349.437696 264.39294 
L 349.762676 264.709298 
L 350.087655 265.234287 
L 350.737614 265.111818 
L 351.062594 265.248 
L 351.387573 265.219646 
L 352.037533 264.754814 
L 352.362512 264.84096 
L 352.687492 264.779586 
L 353.337451 264.284544 
L 353.66243 264.353638 
L 353.98741 264.296064 
L 354.637369 263.81774 
L 354.962348 263.877012 
L 355.287328 263.81514 
L 355.937287 263.347811 
L 356.262266 263.409075 
L 356.587246 263.335634 
L 357.237205 262.858628 
L 357.562184 262.906329 
L 358.212143 262.72374 
L 358.537123 262.578548 
L 358.862103 262.654021 
L 359.512062 262.486087 
L 359.837041 262.341335 
L 360.162021 262.430184 
L 360.81198 262.251186 
L 361.136959 262.104047 
L 361.461939 262.208516 
L 362.111898 262.023267 
L 362.436877 261.851496 
L 362.761857 261.964435 
L 363.411816 261.78235 
L 363.736795 261.606309 
L 364.061775 261.745914 
L 364.711734 261.544948 
L 364.711734 261.544948 
" clip-path="url(#p75f804eb44)" style="fill: none; stroke-dasharray: 6.4,1.6,1,1.6; stroke-dashoffset: 0; stroke: #000080"/>
   </g>
   <g id="patch_9">
    <path d="M 40.073438 273.312 
L 40.073438 95.904 
" style="fill: none; stroke: #000000; stroke-width: 0.8; stroke-linejoin: miter; stroke-linecap: square"/>
   </g>
   <g id="patch_10">
    <path d="M 397.193438 273.312 
L 397.193438 95.904 
" style="fill: none; stroke: #000000; stroke-width: 0.8; stroke-linejoin: miter; stroke-linecap: square"/>
   </g>
   <g id="patch_11">
    <path d="M 40.073438 273.312 
L 397.193437 273.312 
" style="fill: none; stroke: #000000; stroke-width: 0.8; stroke-linejoin: miter; stroke-linecap: square"/>
   </g>
   <g id="patch_12">
    <path d="M 40.073438 95.904 
L 397.193437 95.904 
" style="fill: none; stroke: #000000; stroke-width: 0.8; stroke-linejoin: miter; stroke-linecap: square"/>
   </g>
   <g id="legend_2">
    <g id="patch_13">
     <path d="M 196.08875 147.938375 
L 390.193438 147.938375 
Q 392.193438 147.938375 392.193438 145.938375 
L 392.193438 102.904 
Q 392.193438 100.904 390.193438 100.904 
L 196.08875 100.904 
Q 194.08875 100.904 194.08875 102.904 
L 194.08875 145.938375 
Q 194.08875 147.938375 196.08875 147.938375 
z
" style="fill: #ffffff; opacity: 0.8; stroke: #cccccc; stroke-linejoin: miter"/>
    </g>
    <g id="line2d_34">
     <path d="M 198.08875 109.002437 
L 208.08875 109.002437 
L 218.08875 109.002437 
" style="fill: none; stroke: #66cdaa; stroke-linecap: square"/>
    </g>
    <g id="text_21">
     <text style="font: 10px 'DejaVu Sans', 'Bitstream Vera Sans', 'Computer Modern Sans Serif', 'Lucida Grande', 'Verdana', 'Geneva', 'Lucid', 'Arial', 'Helvetica', 'Avant Garde', sans-serif; text-anchor: start" x="226.08875" y="112.502437" transform="rotate(-0 226.08875 112.502437)">Target response LUAL</text>
    </g>
    <g id="line2d_35">
     <path d="M 198.08875 123.680562 
L 208.08875 123.680562 
L 218.08875 123.680562 
" style="fill: none; stroke-dasharray: 3.7,1.6; stroke-dashoffset: 0; stroke: #b22222"/>
    </g>
    <g id="text_22">
     <text style="font: 10px 'DejaVu Sans', 'Bitstream Vera Sans', 'Computer Modern Sans Serif', 'Lucida Grande', 'Verdana', 'Geneva', 'Lucid', 'Arial', 'Helvetica', 'Avant Garde', sans-serif; text-anchor: start" x="226.08875" y="127.180562" transform="rotate(-0 226.08875 127.180562)">Digital prediction LUAL</text>
    </g>
    <g id="line2d_36">
     <path d="M 198.08875 138.358687 
L 208.08875 138.358687 
L 218.08875 138.358687 
" style="fill: none; stroke-dasharray: 6.4,1.6,1,1.6; stroke-dashoffset: 0; stroke: #000080"/>
    </g>
    <g id="text_23">
     <text style="font: 10px 'DejaVu Sans', 'Bitstream Vera Sans', 'Computer Modern Sans Serif', 'Lucida Grande', 'Verdana', 'Geneva', 'Lucid', 'Arial', 'Helvetica', 'Avant Garde', sans-serif; text-anchor: start" x="226.08875" y="141.858687" transform="rotate(-0 226.08875 141.858687)">Adjusted analog prediction LUAL</text>
    </g>
   </g>
  </g>
 </g>
 <defs>
  <clipPath id="p42cae63ea8">
   <rect x="40.073438" y="7.2" width="357.12" height="88.704"/>
  </clipPath>
  <clipPath id="p75f804eb44">
   <rect x="40.073438" y="95.904" width="357.12" height="177.408"/>
  </clipPath>
 </defs>
</svg>
