<?xml version="1.0" encoding="utf-8" standalone="no"?>
<!DOCTYPE svg PUBLIC "-//W3C//DTD SVG 1.1//EN"
  "http://www.w3.org/Graphics/SVG/1.1/DTD/svg11.dtd">
<svg xmlns:xlink="http://www.w3.org/1999/xlink" width="398.030937pt" height="297.190125pt" viewBox="0 0 398.030937 297.190125" xmlns="http://www.w3.org/2000/svg" version="1.1">
 <metadata>
  <rdf:RDF xmlns:dc="http://purl.org/dc/elements/1.1/" xmlns:cc="http://creativecommons.org/ns#" xmlns:rdf="http://www.w3.org/1999/02/22-rdf-syntax-ns#">
   <cc:Work>
    <dc:type rdf:resource="http://purl.org/dc/dcmitype/StillImage"/>
    <dc:date>2023-10-23T08:49:05.998779</dc:date>
    <dc:format>image/svg+xml</dc:format>
    <dc:creator>
     <cc:Agent>
      <dc:title>Matplotlib v3.8.0, https://matplotlib.org/</dc:title>
     </cc:Agent>
    </dc:creator>
   </cc:Work>
  </rdf:RDF>
 </metadata>
 <defs>
  <style type="text/css">*{stroke-linejoin: round; stroke-linecap: butt}</style>
 </defs>
 <g id="figure_1">
  <g id="patch_1">
   <path d="M 0 297.190125 
L 398.030937 297.190125 
L 398.030937 0 
L 0 0 
z
" style="fill: #ffffff"/>
  </g>
  <g id="axes_1">
   <g id="patch_2">
    <path d="M 33.710938 273.312 
L 390.830938 273.312 
L 390.830938 7.2 
L 33.710938 7.2 
z
" style="fill: #ffffff"/>
   </g>
   <g id="matplotlib.axis_1">
    <g id="xtick_1">
     <g id="line2d_1">
      <defs>
       <path id="m53c92b1541" d="M 0 0 
L 0 3.5 
" style="stroke: #000000; stroke-width: 0.8"/>
      </defs>
      <g>
       <use xlink:href="#m53c92b1541" x="49.943665" y="273.312" style="stroke: #000000; stroke-width: 0.8"/>
      </g>
     </g>
     <g id="text_1">
      <text style="font: 10px 'DejaVu Sans', 'Bitstream Vera Sans', 'Computer Modern Sans Serif', 'Lucida Grande', 'Verdana', 'Geneva', 'Lucid', 'Arial', 'Helvetica', 'Avant Garde', sans-serif; text-anchor: middle" x="49.943665" y="287.910437" transform="rotate(-0 49.943665 287.910437)">0.0</text>
     </g>
    </g>
    <g id="xtick_2">
     <g id="line2d_2">
      <g>
       <use xlink:href="#m53c92b1541" x="114.93957" y="273.312" style="stroke: #000000; stroke-width: 0.8"/>
      </g>
     </g>
     <g id="text_2">
      <text style="font: 10px 'DejaVu Sans', 'Bitstream Vera Sans', 'Computer Modern Sans Serif', 'Lucida Grande', 'Verdana', 'Geneva', 'Lucid', 'Arial', 'Helvetica', 'Avant Garde', sans-serif; text-anchor: middle" x="114.93957" y="287.910437" transform="rotate(-0 114.93957 287.910437)">0.1</text>
     </g>
    </g>
    <g id="xtick_3">
     <g id="line2d_3">
      <g>
       <use xlink:href="#m53c92b1541" x="179.935475" y="273.312" style="stroke: #000000; stroke-width: 0.8"/>
      </g>
     </g>
     <g id="text_3">
      <text style="font: 10px 'DejaVu Sans', 'Bitstream Vera Sans', 'Computer Modern Sans Serif', 'Lucida Grande', 'Verdana', 'Geneva', 'Lucid', 'Arial', 'Helvetica', 'Avant Garde', sans-serif; text-anchor: middle" x="179.935475" y="287.910437" transform="rotate(-0 179.935475 287.910437)">0.2</text>
     </g>
    </g>
    <g id="xtick_4">
     <g id="line2d_4">
      <g>
       <use xlink:href="#m53c92b1541" x="244.93138" y="273.312" style="stroke: #000000; stroke-width: 0.8"/>
      </g>
     </g>
     <g id="text_4">
      <text style="font: 10px 'DejaVu Sans', 'Bitstream Vera Sans', 'Computer Modern Sans Serif', 'Lucida Grande', 'Verdana', 'Geneva', 'Lucid', 'Arial', 'Helvetica', 'Avant Garde', sans-serif; text-anchor: middle" x="244.93138" y="287.910437" transform="rotate(-0 244.93138 287.910437)">0.3</text>
     </g>
    </g>
    <g id="xtick_5">
     <g id="line2d_5">
      <g>
       <use xlink:href="#m53c92b1541" x="309.927285" y="273.312" style="stroke: #000000; stroke-width: 0.8"/>
      </g>
     </g>
     <g id="text_5">
      <text style="font: 10px 'DejaVu Sans', 'Bitstream Vera Sans', 'Computer Modern Sans Serif', 'Lucida Grande', 'Verdana', 'Geneva', 'Lucid', 'Arial', 'Helvetica', 'Avant Garde', sans-serif; text-anchor: middle" x="309.927285" y="287.910437" transform="rotate(-0 309.927285 287.910437)">0.4</text>
     </g>
    </g>
    <g id="xtick_6">
     <g id="line2d_6">
      <g>
       <use xlink:href="#m53c92b1541" x="374.92319" y="273.312" style="stroke: #000000; stroke-width: 0.8"/>
      </g>
     </g>
     <g id="text_6">
      <text style="font: 10px 'DejaVu Sans', 'Bitstream Vera Sans', 'Computer Modern Sans Serif', 'Lucida Grande', 'Verdana', 'Geneva', 'Lucid', 'Arial', 'Helvetica', 'Avant Garde', sans-serif; text-anchor: middle" x="374.92319" y="287.910437" transform="rotate(-0 374.92319 287.910437)">0.5</text>
     </g>
    </g>
   </g>
   <g id="matplotlib.axis_2">
    <g id="ytick_1">
     <g id="line2d_7">
      <defs>
       <path id="m350bb066af" d="M 0 0 
L -3.5 0 
" style="stroke: #000000; stroke-width: 0.8"/>
      </defs>
      <g>
       <use xlink:href="#m350bb066af" x="33.710938" y="272.915468" style="stroke: #000000; stroke-width: 0.8"/>
      </g>
     </g>
     <g id="text_7">
      <text style="font: 10px 'DejaVu Sans', 'Bitstream Vera Sans', 'Computer Modern Sans Serif', 'Lucida Grande', 'Verdana', 'Geneva', 'Lucid', 'Arial', 'Helvetica', 'Avant Garde', sans-serif; text-anchor: end" x="26.710938" y="276.714687" transform="rotate(-0 26.710938 276.714687)">-0.1</text>
     </g>
    </g>
    <g id="ytick_2">
     <g id="line2d_8">
      <g>
       <use xlink:href="#m350bb066af" x="33.710938" y="239.488416" style="stroke: #000000; stroke-width: 0.8"/>
      </g>
     </g>
     <g id="text_8">
      <text style="font: 10px 'DejaVu Sans', 'Bitstream Vera Sans', 'Computer Modern Sans Serif', 'Lucida Grande', 'Verdana', 'Geneva', 'Lucid', 'Arial', 'Helvetica', 'Avant Garde', sans-serif; text-anchor: end" x="26.710938" y="243.287635" transform="rotate(-0 26.710938 243.287635)">0.0</text>
     </g>
    </g>
    <g id="ytick_3">
     <g id="line2d_9">
      <g>
       <use xlink:href="#m350bb066af" x="33.710938" y="206.061364" style="stroke: #000000; stroke-width: 0.8"/>
      </g>
     </g>
     <g id="text_9">
      <text style="font: 10px 'DejaVu Sans', 'Bitstream Vera Sans', 'Computer Modern Sans Serif', 'Lucida Grande', 'Verdana', 'Geneva', 'Lucid', 'Arial', 'Helvetica', 'Avant Garde', sans-serif; text-anchor: end" x="26.710938" y="209.860583" transform="rotate(-0 26.710938 209.860583)">0.1</text>
     </g>
    </g>
    <g id="ytick_4">
     <g id="line2d_10">
      <g>
       <use xlink:href="#m350bb066af" x="33.710938" y="172.634312" style="stroke: #000000; stroke-width: 0.8"/>
      </g>
     </g>
     <g id="text_10">
      <text style="font: 10px 'DejaVu Sans', 'Bitstream Vera Sans', 'Computer Modern Sans Serif', 'Lucida Grande', 'Verdana', 'Geneva', 'Lucid', 'Arial', 'Helvetica', 'Avant Garde', sans-serif; text-anchor: end" x="26.710938" y="176.433531" transform="rotate(-0 26.710938 176.433531)">0.2</text>
     </g>
    </g>
    <g id="ytick_5">
     <g id="line2d_11">
      <g>
       <use xlink:href="#m350bb066af" x="33.710938" y="139.20726" style="stroke: #000000; stroke-width: 0.8"/>
      </g>
     </g>
     <g id="text_11">
      <text style="font: 10px 'DejaVu Sans', 'Bitstream Vera Sans', 'Computer Modern Sans Serif', 'Lucida Grande', 'Verdana', 'Geneva', 'Lucid', 'Arial', 'Helvetica', 'Avant Garde', sans-serif; text-anchor: end" x="26.710938" y="143.006478" transform="rotate(-0 26.710938 143.006478)">0.3</text>
     </g>
    </g>
    <g id="ytick_6">
     <g id="line2d_12">
      <g>
       <use xlink:href="#m350bb066af" x="33.710938" y="105.780208" style="stroke: #000000; stroke-width: 0.8"/>
      </g>
     </g>
     <g id="text_12">
      <text style="font: 10px 'DejaVu Sans', 'Bitstream Vera Sans', 'Computer Modern Sans Serif', 'Lucida Grande', 'Verdana', 'Geneva', 'Lucid', 'Arial', 'Helvetica', 'Avant Garde', sans-serif; text-anchor: end" x="26.710938" y="109.579426" transform="rotate(-0 26.710938 109.579426)">0.4</text>
     </g>
    </g>
    <g id="ytick_7">
     <g id="line2d_13">
      <g>
       <use xlink:href="#m350bb066af" x="33.710938" y="72.353155" style="stroke: #000000; stroke-width: 0.8"/>
      </g>
     </g>
     <g id="text_13">
      <text style="font: 10px 'DejaVu Sans', 'Bitstream Vera Sans', 'Computer Modern Sans Serif', 'Lucida Grande', 'Verdana', 'Geneva', 'Lucid', 'Arial', 'Helvetica', 'Avant Garde', sans-serif; text-anchor: end" x="26.710938" y="76.152374" transform="rotate(-0 26.710938 76.152374)">0.5</text>
     </g>
    </g>
    <g id="ytick_8">
     <g id="line2d_14">
      <g>
       <use xlink:href="#m350bb066af" x="33.710938" y="38.926103" style="stroke: #000000; stroke-width: 0.8"/>
      </g>
     </g>
     <g id="text_14">
      <text style="font: 10px 'DejaVu Sans', 'Bitstream Vera Sans', 'Computer Modern Sans Serif', 'Lucida Grande', 'Verdana', 'Geneva', 'Lucid', 'Arial', 'Helvetica', 'Avant Garde', sans-serif; text-anchor: end" x="26.710938" y="42.725322" transform="rotate(-0 26.710938 42.725322)">0.6</text>
     </g>
    </g>
   </g>
   <g id="line2d_15">
    <path d="M 49.943665 261.216 
L 115.589529 261.160401 
L 116.564467 260.880917 
L 117.864385 260.226242 
L 119.164304 259.260691 
L 120.464222 257.983704 
L 121.76414 256.390253 
L 123.389037 253.986227 
L 125.013935 251.129875 
L 126.638833 247.800444 
L 128.58871 243.330792 
L 130.538587 238.310809 
L 133.138423 230.888909 
L 134.438341 226.986899 
L 137.363157 217.201929 
L 140.287973 206.463027 
L 143.862747 192.504421 
L 147.437522 177.544077 
L 151.662256 158.917688 
L 156.536949 136.40527 
L 162.38658 108.23372 
L 168.236212 79.84369 
L 168.886171 77.45984 
L 169.861109 72.46878 
L 174.085843 49.803032 
L 179.935475 19.296 
L 181.235393 33.611904 
L 191.309758 108.431708 
L 193.909594 125.833798 
L 196.509431 141.716929 
L 198.784287 154.336845 
L 201.059144 165.789488 
L 203.334001 176.128609 
L 205.608857 185.424204 
L 207.883714 193.754526 
L 210.158571 201.200603 
L 212.433427 207.842839 
L 214.708284 213.758541 
L 216.983141 219.020691 
L 219.257997 223.697106 
L 221.532854 227.850103 
L 223.807711 231.536481 
L 226.082567 234.807649 
L 228.357424 237.709894 
L 230.632281 240.284721 
L 233.232117 242.873848 
L 235.831953 245.132584 
L 238.431789 247.103727 
L 241.356605 249.023794 
L 244.281421 250.672917 
L 247.531216 252.235057 
L 250.781011 253.556639 
L 254.355786 254.777973 
L 258.25554 255.880491 
L 262.805254 256.921152 
L 267.679947 257.803278 
L 273.204598 258.577874 
L 279.704189 259.259267 
L 287.503698 259.841316 
L 296.928104 260.312062 
L 308.952346 260.680947 
L 325.526302 260.952023 
L 351.199684 261.125058 
L 374.59821 261.180815 
L 374.59821 261.180815 
" clip-path="url(#pb74102bdd2)" style="fill: none; stroke: #4682b4; stroke-linecap: square"/>
   </g>
   <g id="line2d_16">
    <path d="M 49.943665 244.533798 
L 50.268644 242.962236 
L 50.593624 241.991428 
L 50.918603 241.396994 
L 51.568562 240.818761 
L 52.218521 240.610726 
L 53.51844 240.511483 
L 60.667989 240.497915 
L 114.93957 240.487493 
L 115.264549 239.963239 
L 115.914508 238.18857 
L 117.864385 231.52825 
L 121.43916 219.491193 
L 124.688956 209.288455 
L 127.938751 199.771606 
L 131.513526 189.991589 
L 134.763321 181.757741 
L 138.013116 174.163004 
L 141.587891 166.407524 
L 145.487645 158.55233 
L 149.06242 151.827386 
L 152.962174 144.861807 
L 159.786744 132.998964 
L 163.686499 125.297501 
L 165.961355 120.448847 
L 168.236212 114.986085 
L 170.511069 109.050811 
L 172.135966 104.094966 
L 173.435884 99.456802 
L 175.060782 92.783402 
L 177.660618 80.527517 
L 178.960536 73.306929 
L 179.610495 69.347094 
L 179.935475 36.865309 
L 180.585434 152.808627 
L 180.910413 185.959816 
L 181.235393 207.150417 
L 181.560372 220.349884 
L 181.885352 228.424145 
L 182.210331 233.304979 
L 182.535311 236.23145 
L 182.86029 237.975883 
L 183.18527 239.011195 
L 183.51025 239.623007 
L 184.160209 240.196312 
L 184.810168 240.394423 
L 186.110086 240.485833 
L 193.909594 240.497914 
L 374.59821 240.497914 
L 374.59821 240.497914 
" clip-path="url(#pb74102bdd2)" style="fill: none; stroke-dasharray: 3.7,1.6; stroke-dashoffset: 0; stroke: #4682b4"/>
   </g>
   <g id="line2d_17">
    <path d="M 49.943665 231.064415 
L 53.19346 230.826517 
L 56.768235 230.695673 
L 57.418194 230.422243 
L 58.718112 230.333398 
L 70.742354 230.32693 
L 131.513526 230.220319 
L 132.813444 229.924404 
L 134.113362 229.436548 
L 134.763321 229.085902 
L 135.41328 228.736116 
L 136.063239 228.283444 
L 136.713198 227.840299 
L 137.363157 227.281225 
L 137.688137 226.919268 
L 138.338096 226.439556 
L 141.262911 223.034095 
L 141.587891 222.477491 
L 141.91287 222.204145 
L 142.562829 221.198029 
L 142.887809 220.574128 
L 143.212788 220.269153 
L 143.862747 219.141766 
L 144.187727 218.461327 
L 144.512707 218.151631 
L 145.162666 216.980835 
L 145.487645 216.276527 
L 145.812625 215.990941 
L 146.462584 214.786628 
L 146.787563 214.054853 
L 147.112543 213.790607 
L 147.437522 213.291541 
L 148.087481 211.817567 
L 148.412461 211.584583 
L 148.73744 211.104101 
L 149.387399 209.563752 
L 149.712379 209.349282 
L 150.037358 208.870706 
L 150.687318 207.273746 
L 151.012297 207.089251 
L 151.337277 206.627111 
L 151.987236 204.971661 
L 152.312215 204.811573 
L 152.637195 204.351174 
L 153.287154 202.635493 
L 153.612133 202.500233 
L 153.937113 202.048096 
L 154.587072 200.280597 
L 154.912051 200.180748 
L 155.237031 199.736127 
L 155.88699 197.901275 
L 156.211969 197.826949 
L 156.536949 197.396027 
L 157.186908 195.514075 
L 157.511888 195.476208 
L 157.836867 195.05407 
L 158.486826 193.084001 
L 158.811806 193.07448 
L 159.136785 192.662594 
L 159.786744 190.641427 
L 160.111724 190.669281 
L 160.436703 190.272153 
L 161.086662 188.174243 
L 161.411642 188.226994 
L 161.736621 187.837209 
L 162.38658 185.669508 
L 162.71156 185.753629 
L 163.036539 185.389046 
L 163.686499 183.157362 
L 164.011478 183.271546 
L 164.336458 182.911723 
L 164.986417 180.613029 
L 165.311396 180.763124 
L 165.636376 180.42371 
L 166.286335 178.066249 
L 166.611314 178.248485 
L 166.936294 177.908545 
L 167.586253 175.470885 
L 167.911232 175.684819 
L 168.236212 175.370909 
L 168.886171 172.932532 
L 169.21115 173.200216 
L 169.53613 172.935352 
L 170.186089 170.320967 
L 170.511069 170.596578 
L 170.836048 170.275994 
L 171.486007 167.595751 
L 171.810987 167.921813 
L 172.135966 167.653974 
L 172.785925 164.996058 
L 173.110905 165.372024 
L 173.435884 165.078957 
L 174.085843 162.18986 
L 174.410823 162.577811 
L 174.735802 162.309991 
L 175.385761 159.40752 
L 175.710741 159.838351 
L 176.03572 159.621977 
L 176.68568 156.744093 
L 177.010659 157.233428 
L 177.335639 157.004595 
L 177.985598 153.896193 
L 178.310577 154.392413 
L 178.635557 154.177728 
L 179.285516 151.055685 
L 179.610495 151.597544 
L 179.935475 151.43333 
L 180.585434 148.34236 
L 180.910413 148.950729 
L 181.235393 148.769849 
L 181.885352 145.427036 
L 182.210331 146.020969 
L 182.535311 145.818866 
L 183.18527 142.41482 
L 183.51025 143.09585 
L 183.835229 143.017695 
L 184.485188 139.718148 
L 184.810168 140.467099 
L 185.135147 140.353367 
L 185.785106 136.773878 
L 186.110086 137.492721 
L 186.435065 137.348816 
L 187.085024 133.774589 
L 187.410004 134.614502 
L 187.734983 134.620001 
L 188.384942 130.998845 
L 188.709922 131.847002 
L 189.034901 131.779854 
L 189.684861 127.933078 
L 190.00984 128.766835 
L 190.33482 128.684709 
L 190.984779 124.860507 
L 191.309758 125.820127 
L 191.634738 125.89322 
L 192.284697 122.037369 
L 192.609676 123.0141 
L 192.934656 123.018655 
L 193.584615 118.98212 
L 193.909594 119.960575 
L 194.234574 119.972976 
L 194.884533 115.959083 
L 195.209512 117.047453 
L 195.534492 117.16443 
L 196.184451 112.969296 
L 196.509431 114.048696 
L 196.83441 114.081854 
L 197.484369 109.676363 
L 197.809349 110.755705 
L 198.134328 110.795153 
L 198.784287 106.471456 
L 199.109267 107.696993 
L 199.434246 107.920863 
L 200.084205 103.482825 
L 200.409185 104.726199 
L 200.734164 104.881782 
L 201.384123 100.330134 
L 201.709103 101.552136 
L 202.034082 101.758192 
L 202.684042 97.155441 
L 203.009021 98.502106 
L 203.334001 98.780686 
L 203.98396 93.986992 
L 204.308939 95.334079 
L 204.633919 95.533543 
L 205.283878 90.669633 
L 205.608857 92.026335 
L 205.933837 92.333732 
L 206.583796 87.599835 
L 206.908775 89.106188 
L 207.233755 89.493166 
L 207.883714 84.504867 
L 208.208693 85.939217 
L 208.533673 86.210187 
L 209.183632 81.024063 
L 209.508612 82.518636 
L 209.833591 82.918739 
L 210.48355 77.843894 
L 210.80853 79.490632 
L 211.133509 80.390762 
L 211.458489 78.18809 
L 211.783468 76.933254 
L 212.108448 78.882562 
L 212.433427 80.065183 
L 212.758407 78.065242 
L 213.083386 76.961722 
L 213.733345 81.007034 
L 214.058325 79.96012 
L 214.383304 80.127753 
L 215.033263 85.486497 
L 215.358243 85.420501 
L 215.683223 86.732826 
L 216.333182 93.115261 
L 216.658161 94.347483 
L 217.30812 101.483305 
L 217.6331 106.226414 
L 217.958079 108.157532 
L 218.608038 115.962059 
L 218.933018 120.831777 
L 219.257997 122.819981 
L 219.907956 130.685045 
L 220.232936 135.56647 
L 220.557915 137.560018 
L 221.207874 145.52673 
L 221.532854 150.627585 
L 221.857833 152.713638 
L 222.507793 161.050689 
L 222.832772 166.292831 
L 223.157752 168.437863 
L 223.807711 176.885664 
L 224.13269 182.167432 
L 224.45767 184.327972 
L 225.107629 191.701253 
L 225.432608 196.104595 
L 225.757588 197.986306 
L 226.407547 204.89833 
L 226.732526 209.1563 
L 227.057506 210.982357 
L 227.707465 216.367743 
L 228.032444 219.474719 
L 228.682404 222.668922 
L 229.332363 226.662442 
L 229.657342 227.637069 
L 229.982322 229.054297 
L 230.307301 229.744512 
L 230.632281 230.082625 
L 231.28224 230.32612 
L 232.582158 230.392971 
L 258.25554 230.394883 
L 374.59821 230.394883 
L 374.59821 230.394883 
" clip-path="url(#pb74102bdd2)" style="fill: none; stroke-dasharray: 6.4,1.6,1,1.6; stroke-dashoffset: 0; stroke: #4682b4"/>
   </g>
   <g id="patch_3">
    <path d="M 33.710938 273.312 
L 33.710938 7.2 
" style="fill: none; stroke: #000000; stroke-width: 0.8; stroke-linejoin: miter; stroke-linecap: square"/>
   </g>
   <g id="patch_4">
    <path d="M 390.830938 273.312 
L 390.830938 7.2 
" style="fill: none; stroke: #000000; stroke-width: 0.8; stroke-linejoin: miter; stroke-linecap: square"/>
   </g>
   <g id="patch_5">
    <path d="M 33.710938 273.312 
L 390.830938 273.312 
" style="fill: none; stroke: #000000; stroke-width: 0.8; stroke-linejoin: miter; stroke-linecap: square"/>
   </g>
   <g id="patch_6">
    <path d="M 33.710938 7.2 
L 390.830938 7.2 
" style="fill: none; stroke: #000000; stroke-width: 0.8; stroke-linejoin: miter; stroke-linecap: square"/>
   </g>
   <g id="text_15">
    <text style="font: 6px 'DejaVu Sans', 'Bitstream Vera Sans', 'Computer Modern Sans Serif', 'Lucida Grande', 'Verdana', 'Geneva', 'Lucid', 'Arial', 'Helvetica', 'Avant Garde', sans-serif; text-anchor: middle" x="105.134938" y="141.911625" transform="rotate(-0 105.134938 141.911625)">\ac{RMSE} : \num{1.68e-01}</text>
   </g>
   <g id="legend_1">
    <g id="patch_7">
     <path d="M 191.0575 59.234375 
L 383.830938 59.234375 
Q 385.830938 59.234375 385.830938 57.234375 
L 385.830938 14.2 
Q 385.830938 12.2 383.830938 12.2 
L 191.0575 12.2 
Q 189.0575 12.2 189.0575 14.2 
L 189.0575 57.234375 
Q 189.0575 59.234375 191.0575 59.234375 
z
" style="fill: #ffffff; opacity: 0.8; stroke: #cccccc; stroke-linejoin: miter"/>
    </g>
    <g id="line2d_18">
     <path d="M 193.0575 20.298437 
L 203.0575 20.298437 
L 213.0575 20.298437 
" style="fill: none; stroke: #4682b4; stroke-linecap: square"/>
    </g>
    <g id="text_16">
     <text style="font: 10px 'DejaVu Sans', 'Bitstream Vera Sans', 'Computer Modern Sans Serif', 'Lucida Grande', 'Verdana', 'Geneva', 'Lucid', 'Arial', 'Helvetica', 'Avant Garde', sans-serif; text-anchor: start" x="221.0575" y="23.798437" transform="rotate(-0 221.0575 23.798437)">Target response PVR</text>
    </g>
    <g id="line2d_19">
     <path d="M 193.0575 34.976562 
L 203.0575 34.976562 
L 213.0575 34.976562 
" style="fill: none; stroke-dasharray: 3.7,1.6; stroke-dashoffset: 0; stroke: #4682b4"/>
    </g>
    <g id="text_17">
     <text style="font: 10px 'DejaVu Sans', 'Bitstream Vera Sans', 'Computer Modern Sans Serif', 'Lucida Grande', 'Verdana', 'Geneva', 'Lucid', 'Arial', 'Helvetica', 'Avant Garde', sans-serif; text-anchor: start" x="221.0575" y="38.476562" transform="rotate(-0 221.0575 38.476562)">Digital prediction PVR</text>
    </g>
    <g id="line2d_20">
     <path d="M 193.0575 49.654687 
L 203.0575 49.654687 
L 213.0575 49.654687 
" style="fill: none; stroke-dasharray: 6.4,1.6,1,1.6; stroke-dashoffset: 0; stroke: #4682b4"/>
    </g>
    <g id="text_18">
     <text style="font: 10px 'DejaVu Sans', 'Bitstream Vera Sans', 'Computer Modern Sans Serif', 'Lucida Grande', 'Verdana', 'Geneva', 'Lucid', 'Arial', 'Helvetica', 'Avant Garde', sans-serif; text-anchor: start" x="221.0575" y="53.154687" transform="rotate(-0 221.0575 53.154687)">Averaged analog prediction PVR</text>
    </g>
   </g>
  </g>
 </g>
 <defs>
  <clipPath id="pb74102bdd2">
   <rect x="33.710938" y="7.2" width="357.12" height="266.112"/>
  </clipPath>
 </defs>
</svg>
