<?xml version="1.0" encoding="utf-8" standalone="no"?>
<!DOCTYPE svg PUBLIC "-//W3C//DTD SVG 1.1//EN"
  "http://www.w3.org/Graphics/SVG/1.1/DTD/svg11.dtd">
<svg xmlns:xlink="http://www.w3.org/1999/xlink" width="394.423125pt" height="297.190125pt" viewBox="0 0 394.423125 297.190125" xmlns="http://www.w3.org/2000/svg" version="1.1">
 <metadata>
  <rdf:RDF xmlns:dc="http://purl.org/dc/elements/1.1/" xmlns:cc="http://creativecommons.org/ns#" xmlns:rdf="http://www.w3.org/1999/02/22-rdf-syntax-ns#">
   <cc:Work>
    <dc:type rdf:resource="http://purl.org/dc/dcmitype/StillImage"/>
    <dc:date>2023-10-30T19:25:14.893113</dc:date>
    <dc:format>image/svg+xml</dc:format>
    <dc:creator>
     <cc:Agent>
      <dc:title>Matplotlib v3.8.0, https://matplotlib.org/</dc:title>
     </cc:Agent>
    </dc:creator>
   </cc:Work>
  </rdf:RDF>
 </metadata>
 <defs>
  <style type="text/css">*{stroke-linejoin: round; stroke-linecap: butt}</style>
 </defs>
 <g id="figure_1">
  <g id="patch_1">
   <path d="M 0 297.190125 
L 394.423125 297.190125 
L 394.423125 0 
L 0 0 
z
" style="fill: #ffffff"/>
  </g>
  <g id="axes_1">
   <g id="patch_2">
    <path d="M 30.103125 95.904 
L 387.223125 95.904 
L 387.223125 7.2 
L 30.103125 7.2 
z
" style="fill: #ffffff"/>
   </g>
   <g id="matplotlib.axis_1">
    <g id="xtick_1">
     <g id="line2d_1">
      <defs>
       <path id="m66240244d9" d="M 0 0 
L 0 3.5 
" style="stroke: #000000; stroke-width: 0.8"/>
      </defs>
      <g>
       <use xlink:href="#m66240244d9" x="46.335852" y="95.904" style="stroke: #000000; stroke-width: 0.8"/>
      </g>
     </g>
    </g>
    <g id="xtick_2">
     <g id="line2d_2">
      <g>
       <use xlink:href="#m66240244d9" x="111.331757" y="95.904" style="stroke: #000000; stroke-width: 0.8"/>
      </g>
     </g>
    </g>
    <g id="xtick_3">
     <g id="line2d_3">
      <g>
       <use xlink:href="#m66240244d9" x="176.327662" y="95.904" style="stroke: #000000; stroke-width: 0.8"/>
      </g>
     </g>
    </g>
    <g id="xtick_4">
     <g id="line2d_4">
      <g>
       <use xlink:href="#m66240244d9" x="241.323567" y="95.904" style="stroke: #000000; stroke-width: 0.8"/>
      </g>
     </g>
    </g>
    <g id="xtick_5">
     <g id="line2d_5">
      <g>
       <use xlink:href="#m66240244d9" x="306.319472" y="95.904" style="stroke: #000000; stroke-width: 0.8"/>
      </g>
     </g>
    </g>
    <g id="xtick_6">
     <g id="line2d_6">
      <g>
       <use xlink:href="#m66240244d9" x="371.315377" y="95.904" style="stroke: #000000; stroke-width: 0.8"/>
      </g>
     </g>
    </g>
   </g>
   <g id="matplotlib.axis_2">
    <g id="ytick_1">
     <g id="line2d_7">
      <defs>
       <path id="m3d284065c2" d="M 0 0 
L -3.5 0 
" style="stroke: #000000; stroke-width: 0.8"/>
      </defs>
      <g>
       <use xlink:href="#m3d284065c2" x="30.103125" y="91.872" style="stroke: #000000; stroke-width: 0.8"/>
      </g>
     </g>
     <g id="text_1">
      <text style="font: 10px 'DejaVu Sans', 'Bitstream Vera Sans', 'Computer Modern Sans Serif', 'Lucida Grande', 'Verdana', 'Geneva', 'Lucid', 'Arial', 'Helvetica', 'Avant Garde', sans-serif; text-anchor: end" x="23.103125" y="95.671219" transform="rotate(-0 23.103125 95.671219)">0</text>
     </g>
    </g>
    <g id="ytick_2">
     <g id="line2d_8">
      <g>
       <use xlink:href="#m3d284065c2" x="30.103125" y="56.81113" style="stroke: #000000; stroke-width: 0.8"/>
      </g>
     </g>
     <g id="text_2">
      <text style="font: 10px 'DejaVu Sans', 'Bitstream Vera Sans', 'Computer Modern Sans Serif', 'Lucida Grande', 'Verdana', 'Geneva', 'Lucid', 'Arial', 'Helvetica', 'Avant Garde', sans-serif; text-anchor: end" x="23.103125" y="60.610349" transform="rotate(-0 23.103125 60.610349)">1</text>
     </g>
    </g>
    <g id="ytick_3">
     <g id="line2d_9">
      <g>
       <use xlink:href="#m3d284065c2" x="30.103125" y="21.750261" style="stroke: #000000; stroke-width: 0.8"/>
      </g>
     </g>
     <g id="text_3">
      <text style="font: 10px 'DejaVu Sans', 'Bitstream Vera Sans', 'Computer Modern Sans Serif', 'Lucida Grande', 'Verdana', 'Geneva', 'Lucid', 'Arial', 'Helvetica', 'Avant Garde', sans-serif; text-anchor: end" x="23.103125" y="25.54948" transform="rotate(-0 23.103125 25.54948)">2</text>
     </g>
    </g>
   </g>
   <g id="line2d_10">
    <path d="M 46.335852 91.872 
L 111.006778 91.872 
L 111.331757 42.786783 
L 124.005959 42.786783 
L 124.330938 91.872 
L 370.990398 91.872 
L 370.990398 91.872 
" clip-path="url(#pe974d3b26b)" style="fill: none; stroke: #ff4500; stroke-width: 1.5; stroke-linecap: square"/>
   </g>
   <g id="line2d_11">
    <path d="M 46.335852 91.872 
L 111.006778 91.872 
L 111.331757 42.786783 
L 240.998588 42.786783 
L 241.323567 91.872 
L 370.990398 91.872 
L 370.990398 91.872 
" clip-path="url(#pe974d3b26b)" style="fill: none; stroke-dasharray: 5.55,2.4; stroke-dashoffset: 0; stroke: #c71585; stroke-width: 1.5"/>
   </g>
   <g id="line2d_12">
    <path d="M 46.335852 91.872 
L 111.006778 91.872 
L 111.331757 11.232 
L 143.50473 11.232 
L 143.82971 91.872 
L 176.002683 91.872 
L 176.327662 11.232 
L 208.500635 11.232 
L 208.825615 91.872 
L 240.998588 91.872 
L 241.323567 11.232 
L 273.49654 11.232 
L 273.82152 91.872 
L 370.990398 91.872 
L 370.990398 91.872 
" clip-path="url(#pe974d3b26b)" style="fill: none; stroke-dasharray: 9.6,2.4,1.5,2.4; stroke-dashoffset: 0; stroke: #4682b4; stroke-width: 1.5"/>
   </g>
   <g id="line2d_13">
    <path d="M 46.335852 91.872 
L 111.331757 91.855872 
L 143.82971 11.232 
L 176.327662 91.855872 
L 208.825615 11.232 
L 241.323567 91.855872 
L 273.82152 11.232 
L 306.319472 91.872 
L 370.990398 91.872 
L 370.990398 91.872 
" clip-path="url(#pe974d3b26b)" style="fill: none; stroke-dasharray: 2.5,4.125; stroke-dashoffset: 0; stroke: #6b8e23; stroke-width: 2.5"/>
   </g>
   <g id="patch_3">
    <path d="M 30.103125 95.904 
L 30.103125 7.2 
" style="fill: none; stroke: #000000; stroke-width: 0.8; stroke-linejoin: miter; stroke-linecap: square"/>
   </g>
   <g id="patch_4">
    <path d="M 387.223125 95.904 
L 387.223125 7.2 
" style="fill: none; stroke: #000000; stroke-width: 0.8; stroke-linejoin: miter; stroke-linecap: square"/>
   </g>
   <g id="patch_5">
    <path d="M 30.103125 95.904 
L 387.223125 95.904 
" style="fill: none; stroke: #000000; stroke-width: 0.8; stroke-linejoin: miter; stroke-linecap: square"/>
   </g>
   <g id="patch_6">
    <path d="M 30.103125 7.2 
L 387.223125 7.2 
" style="fill: none; stroke: #000000; stroke-width: 0.8; stroke-linejoin: miter; stroke-linecap: square"/>
   </g>
   <g id="legend_1">
    <g id="patch_7">
     <path d="M 316.059062 73.9125 
L 380.223125 73.9125 
Q 382.223125 73.9125 382.223125 71.9125 
L 382.223125 14.2 
Q 382.223125 12.2 380.223125 12.2 
L 316.059062 12.2 
Q 314.059062 12.2 314.059062 14.2 
L 314.059062 71.9125 
Q 314.059062 73.9125 316.059062 73.9125 
z
" style="fill: #ffffff; opacity: 0.8; stroke: #cccccc; stroke-linejoin: miter"/>
    </g>
    <g id="line2d_14">
     <path d="M 318.059062 20.298437 
L 328.059062 20.298437 
L 338.059062 20.298437 
" style="fill: none; stroke: #ff4500; stroke-width: 1.5; stroke-linecap: square"/>
    </g>
    <g id="text_4">
     <text style="font: 10px 'DejaVu Sans', 'Bitstream Vera Sans', 'Computer Modern Sans Serif', 'Lucida Grande', 'Verdana', 'Geneva', 'Lucid', 'Arial', 'Helvetica', 'Avant Garde', sans-serif; text-anchor: start" x="346.059062" y="23.798437" transform="rotate(-0 346.059062 23.798437)">PLML2</text>
    </g>
    <g id="line2d_15">
     <path d="M 318.059062 34.976562 
L 328.059062 34.976562 
L 338.059062 34.976562 
" style="fill: none; stroke-dasharray: 5.55,2.4; stroke-dashoffset: 0; stroke: #c71585; stroke-width: 1.5"/>
    </g>
    <g id="text_5">
     <text style="font: 10px 'DejaVu Sans', 'Bitstream Vera Sans', 'Computer Modern Sans Serif', 'Lucida Grande', 'Verdana', 'Geneva', 'Lucid', 'Arial', 'Helvetica', 'Avant Garde', sans-serif; text-anchor: start" x="346.059062" y="38.476562" transform="rotate(-0 346.059062 38.476562)">PLMR</text>
    </g>
    <g id="line2d_16">
     <path d="M 318.059062 49.654687 
L 328.059062 49.654687 
L 338.059062 49.654687 
" style="fill: none; stroke-dasharray: 9.6,2.4,1.5,2.4; stroke-dashoffset: 0; stroke: #4682b4; stroke-width: 1.5"/>
    </g>
    <g id="text_6">
     <text style="font: 10px 'DejaVu Sans', 'Bitstream Vera Sans', 'Computer Modern Sans Serif', 'Lucida Grande', 'Verdana', 'Geneva', 'Lucid', 'Arial', 'Helvetica', 'Avant Garde', sans-serif; text-anchor: start" x="346.059062" y="53.154687" transform="rotate(-0 346.059062 53.154687)">AVBL</text>
    </g>
    <g id="line2d_17">
     <path d="M 318.059062 64.332812 
L 328.059062 64.332812 
L 338.059062 64.332812 
" style="fill: none; stroke-dasharray: 2.5,4.125; stroke-dashoffset: 0; stroke: #6b8e23; stroke-width: 2.5"/>
    </g>
    <g id="text_7">
     <text style="font: 10px 'DejaVu Sans', 'Bitstream Vera Sans', 'Computer Modern Sans Serif', 'Lucida Grande', 'Verdana', 'Geneva', 'Lucid', 'Arial', 'Helvetica', 'Avant Garde', sans-serif; text-anchor: start" x="346.059062" y="67.832812" transform="rotate(-0 346.059062 67.832812)">AVBR</text>
    </g>
   </g>
  </g>
  <g id="axes_2">
   <g id="patch_8">
    <path d="M 30.103125 273.312 
L 387.223125 273.312 
L 387.223125 95.904 
L 30.103125 95.904 
z
" style="fill: #ffffff"/>
   </g>
   <g id="matplotlib.axis_3">
    <g id="xtick_7">
     <g id="line2d_18">
      <g>
       <use xlink:href="#m66240244d9" x="46.335852" y="273.312" style="stroke: #000000; stroke-width: 0.8"/>
      </g>
     </g>
     <g id="text_8">
      <text style="font: 10px 'DejaVu Sans', 'Bitstream Vera Sans', 'Computer Modern Sans Serif', 'Lucida Grande', 'Verdana', 'Geneva', 'Lucid', 'Arial', 'Helvetica', 'Avant Garde', sans-serif; text-anchor: middle" x="46.335852" y="287.910437" transform="rotate(-0 46.335852 287.910437)">0</text>
     </g>
    </g>
    <g id="xtick_8">
     <g id="line2d_19">
      <g>
       <use xlink:href="#m66240244d9" x="111.331757" y="273.312" style="stroke: #000000; stroke-width: 0.8"/>
      </g>
     </g>
     <g id="text_9">
      <text style="font: 10px 'DejaVu Sans', 'Bitstream Vera Sans', 'Computer Modern Sans Serif', 'Lucida Grande', 'Verdana', 'Geneva', 'Lucid', 'Arial', 'Helvetica', 'Avant Garde', sans-serif; text-anchor: middle" x="111.331757" y="287.910437" transform="rotate(-0 111.331757 287.910437)">100</text>
     </g>
    </g>
    <g id="xtick_9">
     <g id="line2d_20">
      <g>
       <use xlink:href="#m66240244d9" x="176.327662" y="273.312" style="stroke: #000000; stroke-width: 0.8"/>
      </g>
     </g>
     <g id="text_10">
      <text style="font: 10px 'DejaVu Sans', 'Bitstream Vera Sans', 'Computer Modern Sans Serif', 'Lucida Grande', 'Verdana', 'Geneva', 'Lucid', 'Arial', 'Helvetica', 'Avant Garde', sans-serif; text-anchor: middle" x="176.327662" y="287.910437" transform="rotate(-0 176.327662 287.910437)">200</text>
     </g>
    </g>
    <g id="xtick_10">
     <g id="line2d_21">
      <g>
       <use xlink:href="#m66240244d9" x="241.323567" y="273.312" style="stroke: #000000; stroke-width: 0.8"/>
      </g>
     </g>
     <g id="text_11">
      <text style="font: 10px 'DejaVu Sans', 'Bitstream Vera Sans', 'Computer Modern Sans Serif', 'Lucida Grande', 'Verdana', 'Geneva', 'Lucid', 'Arial', 'Helvetica', 'Avant Garde', sans-serif; text-anchor: middle" x="241.323567" y="287.910437" transform="rotate(-0 241.323567 287.910437)">300</text>
     </g>
    </g>
    <g id="xtick_11">
     <g id="line2d_22">
      <g>
       <use xlink:href="#m66240244d9" x="306.319472" y="273.312" style="stroke: #000000; stroke-width: 0.8"/>
      </g>
     </g>
     <g id="text_12">
      <text style="font: 10px 'DejaVu Sans', 'Bitstream Vera Sans', 'Computer Modern Sans Serif', 'Lucida Grande', 'Verdana', 'Geneva', 'Lucid', 'Arial', 'Helvetica', 'Avant Garde', sans-serif; text-anchor: middle" x="306.319472" y="287.910437" transform="rotate(-0 306.319472 287.910437)">400</text>
     </g>
    </g>
    <g id="xtick_12">
     <g id="line2d_23">
      <g>
       <use xlink:href="#m66240244d9" x="371.315377" y="273.312" style="stroke: #000000; stroke-width: 0.8"/>
      </g>
     </g>
     <g id="text_13">
      <text style="font: 10px 'DejaVu Sans', 'Bitstream Vera Sans', 'Computer Modern Sans Serif', 'Lucida Grande', 'Verdana', 'Geneva', 'Lucid', 'Arial', 'Helvetica', 'Avant Garde', sans-serif; text-anchor: middle" x="371.315377" y="287.910437" transform="rotate(-0 371.315377 287.910437)">500</text>
     </g>
    </g>
   </g>
   <g id="matplotlib.axis_4">
    <g id="ytick_4">
     <g id="line2d_24">
      <g>
       <use xlink:href="#m3d284065c2" x="30.103125" y="236.844971" style="stroke: #000000; stroke-width: 0.8"/>
      </g>
     </g>
     <g id="text_14">
      <text style="font: 10px 'DejaVu Sans', 'Bitstream Vera Sans', 'Computer Modern Sans Serif', 'Lucida Grande', 'Verdana', 'Geneva', 'Lucid', 'Arial', 'Helvetica', 'Avant Garde', sans-serif; text-anchor: end" x="23.103125" y="240.64419" transform="rotate(-0 23.103125 240.64419)">0.0</text>
     </g>
    </g>
    <g id="ytick_5">
     <g id="line2d_25">
      <g>
       <use xlink:href="#m3d284065c2" x="30.103125" y="193.148004" style="stroke: #000000; stroke-width: 0.8"/>
      </g>
     </g>
     <g id="text_15">
      <text style="font: 10px 'DejaVu Sans', 'Bitstream Vera Sans', 'Computer Modern Sans Serif', 'Lucida Grande', 'Verdana', 'Geneva', 'Lucid', 'Arial', 'Helvetica', 'Avant Garde', sans-serif; text-anchor: end" x="23.103125" y="196.947223" transform="rotate(-0 23.103125 196.947223)">0.1</text>
     </g>
    </g>
    <g id="ytick_6">
     <g id="line2d_26">
      <g>
       <use xlink:href="#m3d284065c2" x="30.103125" y="149.451037" style="stroke: #000000; stroke-width: 0.8"/>
      </g>
     </g>
     <g id="text_16">
      <text style="font: 10px 'DejaVu Sans', 'Bitstream Vera Sans', 'Computer Modern Sans Serif', 'Lucida Grande', 'Verdana', 'Geneva', 'Lucid', 'Arial', 'Helvetica', 'Avant Garde', sans-serif; text-anchor: end" x="23.103125" y="153.250256" transform="rotate(-0 23.103125 153.250256)">0.2</text>
     </g>
    </g>
    <g id="ytick_7">
     <g id="line2d_27">
      <g>
       <use xlink:href="#m3d284065c2" x="30.103125" y="105.75407" style="stroke: #000000; stroke-width: 0.8"/>
      </g>
     </g>
     <g id="text_17">
      <text style="font: 10px 'DejaVu Sans', 'Bitstream Vera Sans', 'Computer Modern Sans Serif', 'Lucida Grande', 'Verdana', 'Geneva', 'Lucid', 'Arial', 'Helvetica', 'Avant Garde', sans-serif; text-anchor: end" x="23.103125" y="109.553289" transform="rotate(-0 23.103125 109.553289)">0.3</text>
     </g>
    </g>
   </g>
   <g id="line2d_28">
    <path d="M 46.335852 265.248 
L 111.331757 265.248 
L 111.981716 255.004404 
L 112.956655 245.157839 
L 114.256573 234.315707 
L 115.881471 222.626118 
L 117.831348 210.360738 
L 119.781225 199.472651 
L 122.056082 188.105549 
L 124.330938 177.827411 
L 126.605795 169.013339 
L 129.205631 159.792536 
L 132.130447 150.245972 
L 133.755344 145.338104 
L 135.055263 141.841298 
L 140.254935 126.889113 
L 143.82971 116.83077 
L 144.479669 125.102912 
L 145.129628 130.044602 
L 146.429546 137.696509 
L 147.729464 144.139277 
L 149.354362 151.011543 
L 150.979259 156.869646 
L 152.929136 162.981628 
L 155.203993 169.271632 
L 157.803829 175.768147 
L 161.378604 184.043348 
L 166.903256 196.152538 
L 176.327662 216.532904 
L 176.977621 207.832947 
L 177.62758 202.497005 
L 178.927498 194.211182 
L 180.552396 185.409621 
L 182.177294 177.92149 
L 183.802191 171.421348 
L 185.752068 164.561142 
L 187.701946 158.498144 
L 190.626761 150.279968 
L 194.201536 140.984487 
L 197.776311 132.227266 
L 208.175656 107.928693 
L 208.825615 106.468035 
L 209.475574 115.072579 
L 210.125533 120.327489 
L 211.425451 128.578744 
L 212.725369 135.552299 
L 214.350267 142.983624 
L 215.975164 149.37566 
L 217.925041 156.081396 
L 220.199898 162.999588 
L 222.799734 170.137924 
L 226.04953 178.37288 
L 230.599243 189.234111 
L 238.723731 207.937116 
L 241.323567 213.878654 
L 241.973526 205.272803 
L 242.623485 200.029918 
L 243.923403 191.811969 
L 245.223322 184.85869 
L 246.848219 177.471368 
L 248.473117 171.183855 
L 250.422994 164.667457 
L 252.372871 158.893515 
L 254.647728 152.821603 
L 257.572544 145.690345 
L 260.822339 138.305732 
L 266.022011 126.964447 
L 273.82152 110.285664 
L 274.471479 118.998621 
L 275.121438 124.376232 
L 276.421356 132.856371 
L 277.721274 140.073231 
L 279.346172 147.804273 
L 280.971069 154.481257 
L 282.920946 161.50821 
L 285.195803 168.774448 
L 287.795639 176.278615 
L 291.045435 184.927993 
L 295.270168 195.503721 
L 301.769759 211.11763 
L 307.61939 224.758923 
L 309.569268 228.631707 
L 311.519145 232.061381 
L 313.794001 235.588978 
L 316.068858 238.684182 
L 318.343715 241.412296 
L 320.618571 243.825916 
L 323.218408 246.254095 
L 325.818244 248.380132 
L 328.743059 250.464184 
L 331.667875 252.270647 
L 334.91767 254.002249 
L 338.167466 255.488431 
L 341.74224 256.88492 
L 345.641995 258.170411 
L 349.866729 259.331492 
L 354.741421 260.427844 
L 359.941094 261.367124 
L 365.790725 262.200875 
L 370.990398 262.786598 
L 370.990398 262.786598 
" clip-path="url(#p766d95565f)" style="fill: none; stroke: #66cdaa; stroke-linecap: square"/>
   </g>
   <g id="line2d_29">
    <path d="M 46.335852 259.02986 
L 46.660832 256.87804 
L 46.985811 255.624056 
L 47.310791 254.893713 
L 47.96075 254.220883 
L 48.610709 253.992979 
L 49.910627 253.889777 
L 57.060177 253.876473 
L 111.006778 253.876473 
L 111.331757 246.944204 
L 112.631675 210.875657 
L 113.606614 189.544925 
L 114.581553 173.115728 
L 115.556491 160.489874 
L 116.53143 150.994833 
L 117.506368 143.482018 
L 118.481307 137.223808 
L 119.456245 132.37435 
L 120.431184 128.792387 
L 121.731102 125.011498 
L 123.03102 121.986248 
L 124.005959 119.924865 
L 124.330938 103.968 
L 124.655918 105.078458 
L 124.980897 107.154448 
L 125.955836 110.65524 
L 127.905713 114.742912 
L 128.555672 115.619534 
L 129.205631 116.245655 
L 129.85559 116.622948 
L 130.505549 116.759501 
L 131.155508 116.686645 
L 132.130447 116.296029 
L 133.755344 115.335373 
L 135.705222 113.877489 
L 142.854771 108.085915 
L 143.50473 107.692686 
L 143.82971 119.643238 
L 144.479669 155.664138 
L 145.129628 177.202959 
L 145.779587 189.38438 
L 146.429546 196.021342 
L 147.079505 199.754536 
L 147.729464 201.985676 
L 148.379423 203.421576 
L 149.354362 204.885634 
L 151.304239 207.155189 
L 155.528973 212.035421 
L 158.778768 216.168022 
L 161.378604 219.779412 
L 164.30342 224.279393 
L 167.553215 229.707214 
L 171.12799 236.104233 
L 174.377785 242.401088 
L 176.002683 245.70034 
L 176.652642 217.404447 
L 177.302601 197.604981 
L 177.95256 183.523419 
L 178.602519 173.307672 
L 179.252478 165.845409 
L 179.902437 160.165997 
L 180.877376 153.896697 
L 181.852314 149.315271 
L 182.827253 145.739714 
L 184.127171 141.88887 
L 185.752068 137.914885 
L 187.701946 133.839168 
L 190.301782 128.972126 
L 192.901618 124.663364 
L 196.801372 118.896457 
L 198.42627 116.812129 
L 200.701127 114.374214 
L 203.625942 111.555672 
L 206.550758 109.021305 
L 208.500635 107.715146 
L 208.825615 119.661407 
L 209.475574 155.674661 
L 210.125533 177.208779 
L 210.775492 189.387378 
L 211.425451 196.022891 
L 212.07541 199.755331 
L 212.725369 201.986057 
L 213.375328 203.421777 
L 214.350267 204.885691 
L 216.300144 207.155194 
L 220.524878 212.035421 
L 223.774673 216.168022 
L 226.374509 219.779412 
L 229.299325 224.279393 
L 232.54912 229.707214 
L 236.123895 236.104233 
L 239.37369 242.401088 
L 240.998588 245.70034 
L 241.323567 220.134329 
L 241.648547 207.102867 
L 242.298506 192.563623 
L 242.948465 184.598295 
L 243.598424 179.482271 
L 244.248383 175.797433 
L 245.223322 171.636075 
L 246.52324 167.281152 
L 248.473117 161.720586 
L 251.722912 153.22226 
L 254.647728 146.055433 
L 258.222503 138.219435 
L 260.822339 132.938377 
L 264.072134 126.813286 
L 266.67197 122.387819 
L 269.921765 117.372381 
L 272.521602 113.647639 
L 273.49654 112.380645 
L 274.471479 162.444737 
L 275.121438 178.286736 
L 275.771397 185.959062 
L 276.421356 189.907232 
L 277.071315 192.181017 
L 277.721274 193.709439 
L 279.021192 196.026752 
L 285.195803 206.31765 
L 288.770578 212.898023 
L 291.695394 218.7178 
L 295.595148 226.987167 
L 299.494902 235.808064 
L 302.744697 243.65818 
L 306.644452 253.240738 
L 307.294411 253.670988 
L 308.269349 253.838348 
L 311.194165 253.876216 
L 370.990398 253.876473 
L 370.990398 253.876473 
" clip-path="url(#p766d95565f)" style="fill: none; stroke-dasharray: 3.7,1.6; stroke-dashoffset: 0; stroke: #b22222"/>
   </g>
   <g id="line2d_30">
    <path d="M 46.335852 258.917585 
L 49.260668 258.83085 
L 49.585648 258.628465 
L 109.70686 258.628465 
L 110.031839 258.465072 
L 110.681798 257.574044 
L 111.006778 256.746568 
L 112.631675 250.236491 
L 112.956655 248.396144 
L 113.606614 245.896944 
L 115.556491 235.931944 
L 116.20645 233.324626 
L 118.156327 223.187715 
L 118.806286 220.581533 
L 120.756163 210.411269 
L 121.406123 207.817051 
L 123.356 197.633332 
L 124.330938 194.396367 
L 124.655918 193.129606 
L 125.305877 193.280569 
L 125.955836 191.664902 
L 126.605795 192.530508 
L 127.255754 191.217173 
L 127.905713 192.991698 
L 128.230693 193.136579 
L 128.555672 193.136655 
L 129.205631 195.522292 
L 129.530611 195.824006 
L 129.85559 195.950156 
L 130.505549 198.4629 
L 130.830529 198.792995 
L 131.155508 198.926025 
L 131.805467 201.469289 
L 132.130447 201.80427 
L 132.455426 201.922592 
L 133.105385 204.461586 
L 133.430365 204.78681 
L 133.755344 204.898 
L 134.405304 207.450393 
L 134.730283 207.77147 
L 135.055263 207.860356 
L 135.705222 210.415279 
L 136.030201 210.736169 
L 136.355181 210.802865 
L 137.00514 213.345918 
L 137.330119 213.65557 
L 137.655099 213.713005 
L 138.305058 216.266411 
L 138.630037 216.570957 
L 138.955017 216.605865 
L 139.604976 219.160399 
L 139.929955 219.464956 
L 140.254935 219.48094 
L 140.904894 222.023198 
L 141.229874 222.131883 
L 141.554853 221.64901 
L 141.879833 222.078392 
L 142.204812 222.816902 
L 142.529792 222.588517 
L 142.854771 221.880859 
L 143.179751 222.162329 
L 143.50473 222.792885 
L 143.82971 222.507899 
L 144.154689 221.74723 
L 144.479669 222.001208 
L 144.804648 222.613125 
L 145.129628 222.335801 
L 145.454607 221.548511 
L 145.779587 221.796335 
L 146.104566 222.419789 
L 146.429546 222.127941 
L 146.754525 221.346934 
L 147.079505 221.604496 
L 147.404485 222.232393 
L 147.729464 221.935892 
L 148.054444 221.138898 
L 148.379423 221.390115 
L 148.704403 222.032894 
L 149.029382 221.75808 
L 149.354362 220.944895 
L 149.679341 221.195993 
L 150.004321 221.856279 
L 150.3293 221.57007 
L 150.65428 220.765047 
L 150.979259 221.026674 
L 151.304239 221.692851 
L 151.629218 221.402792 
L 151.954198 220.582675 
L 152.279177 220.838393 
L 152.604157 221.529315 
L 152.929136 221.25253 
L 153.254116 220.413433 
L 153.579096 220.281044 
L 153.904075 220.719615 
L 154.229055 220.310795 
L 154.554034 220.171023 
L 154.879014 220.302919 
L 155.203993 220.947097 
L 155.528973 220.669222 
L 155.853952 220.656114 
L 156.178932 220.855475 
L 156.503911 221.53717 
L 156.828891 221.284956 
L 157.15387 221.291919 
L 157.47885 221.499106 
L 157.803829 222.209082 
L 158.128809 221.960311 
L 158.453788 221.992249 
L 158.778768 222.19566 
L 159.103747 222.923635 
L 159.428727 222.685438 
L 159.753706 222.724834 
L 160.078686 222.945842 
L 160.403666 223.679189 
L 160.728645 223.440182 
L 161.053625 223.490271 
L 161.378604 223.714922 
L 161.703584 224.473071 
L 162.028563 224.241517 
L 162.353543 224.3055 
L 162.678522 224.522465 
L 163.003502 225.296256 
L 163.328481 225.074695 
L 163.653461 225.145161 
L 163.97844 225.377874 
L 164.30342 226.1633 
L 164.628399 225.944982 
L 164.953379 226.028192 
L 165.278358 226.266634 
L 165.603338 227.070178 
L 165.928317 226.856382 
L 166.253297 226.941619 
L 166.578277 227.180446 
L 166.903256 228.00275 
L 167.228236 228.186882 
L 167.878195 228.92266 
L 168.203174 229.065459 
L 168.528154 228.98513 
L 169.503092 229.438717 
L 169.828072 229.311963 
L 170.80301 229.716248 
L 171.12799 229.584067 
L 172.102928 229.971896 
L 172.427908 229.843897 
L 173.402847 230.232675 
L 173.727826 230.108129 
L 174.377785 230.528437 
L 174.702765 230.518915 
L 175.027744 230.393268 
L 175.677703 230.823292 
L 176.652642 230.885108 
L 176.977621 231.123617 
L 177.62758 230.996965 
L 178.277539 231.433341 
L 178.927498 231.307157 
L 179.577458 231.759573 
L 180.227417 231.638506 
L 180.877376 232.092496 
L 181.527335 231.98091 
L 182.177294 232.439902 
L 182.827253 232.326299 
L 183.477212 232.799166 
L 184.127171 232.68675 
L 184.77713 233.163777 
L 185.427089 233.067433 
L 186.077048 233.551485 
L 186.727007 233.455913 
L 187.376966 233.953283 
L 188.026925 233.858387 
L 188.676884 234.362999 
L 189.326843 234.273774 
L 189.976802 234.777711 
L 190.626761 234.701523 
L 191.27672 235.221205 
L 191.926679 235.148378 
L 192.576639 235.670563 
L 193.226598 235.607701 
L 193.876557 236.136719 
L 194.526516 236.082573 
L 195.176475 236.617234 
L 195.826434 236.57318 
L 196.801372 237.348702 
L 197.126352 237.496111 
L 197.451331 237.419066 
L 197.776311 237.786375 
L 198.42627 237.710065 
L 198.751249 237.352183 
L 199.076229 237.589397 
L 199.726188 237.298338 
L 200.051168 236.838946 
L 200.376147 237.022644 
L 201.026106 236.645306 
L 201.351086 236.138347 
L 201.676065 236.294883 
L 202.326024 235.86554 
L 202.651004 235.323077 
L 202.975983 235.458263 
L 203.625942 234.986041 
L 203.950922 234.411253 
L 204.275901 234.526517 
L 204.92586 234.013951 
L 205.25084 233.408369 
L 205.57582 233.505312 
L 206.225779 232.954202 
L 206.550758 232.31738 
L 206.875738 232.394637 
L 207.525697 231.804601 
L 207.850676 231.136238 
L 208.175656 231.1934 
L 208.825615 230.563132 
L 209.150594 229.864405 
L 209.475574 229.902129 
L 210.125533 229.234949 
L 210.450512 228.25538 
L 210.775492 228.104497 
L 211.100471 228.136241 
L 211.425451 227.654579 
L 211.75043 226.868457 
L 212.07541 226.940819 
L 212.40039 227.237724 
L 212.725369 226.868916 
L 213.050349 226.170214 
L 213.375328 226.326466 
L 213.700308 226.710068 
L 214.025287 226.377924 
L 214.350267 225.69717 
L 214.675246 225.879878 
L 215.000226 226.296302 
L 215.325205 225.974907 
L 215.650185 225.293093 
L 215.975164 225.486188 
L 216.300144 225.918578 
L 216.625123 225.612123 
L 216.950103 224.922425 
L 217.275082 225.123523 
L 217.600062 225.57202 
L 217.925041 225.252247 
L 218.250021 224.560572 
L 218.575001 224.770908 
L 218.89998 225.235883 
L 219.22496 224.918124 
L 219.549939 224.213166 
L 219.874919 224.420619 
L 220.199898 224.897952 
L 220.524878 224.596678 
L 220.849857 223.885676 
L 221.174837 224.101121 
L 221.499816 224.594562 
L 221.824796 224.280829 
L 222.149775 223.566842 
L 222.474755 223.793116 
L 222.799734 224.302205 
L 223.124714 223.990498 
L 223.449693 223.262973 
L 223.774673 223.485647 
L 224.099652 224.006645 
L 224.424632 223.710549 
L 224.749611 222.976396 
L 225.074591 223.205476 
L 225.399571 223.742255 
L 225.72455 223.433973 
L 226.04953 222.696326 
L 226.374509 222.934176 
L 226.699489 223.487452 
L 227.024468 223.182898 
L 227.349448 222.431258 
L 227.674427 222.664794 
L 227.999407 223.240673 
L 228.324386 222.942384 
L 228.649366 222.179627 
L 228.974345 222.416319 
L 229.299325 222.995144 
L 229.624304 222.694603 
L 229.949284 221.935727 
L 230.274263 222.17045 
L 230.599243 222.768021 
L 230.924222 222.470016 
L 231.249202 221.699092 
L 231.574182 221.945388 
L 231.899161 222.560694 
L 232.224141 222.263911 
L 232.54912 221.480218 
L 232.8741 221.72932 
L 233.199079 222.352813 
L 233.524059 222.075181 
L 233.849038 221.285314 
L 234.174018 221.523529 
L 234.498997 222.159322 
L 234.823977 221.867286 
L 235.148956 221.072378 
L 235.473936 221.324878 
L 235.798915 221.97914 
L 236.123895 221.689028 
L 236.448874 220.881938 
L 236.773854 221.136099 
L 237.098833 221.79832 
L 237.423813 221.526583 
L 237.748792 220.713562 
L 238.073772 220.957029 
L 238.398752 221.631527 
L 238.723731 221.346242 
L 239.048711 220.528203 
L 239.37369 220.790842 
L 239.69867 221.475082 
L 240.348629 220.208939 
L 240.673608 220.215674 
L 240.998588 220.753393 
L 241.323567 220.403813 
L 241.648547 220.318364 
L 241.973526 220.486889 
L 242.298506 221.15317 
L 242.623485 220.888546 
L 242.948465 220.886413 
L 243.273444 221.089288 
L 243.598424 221.780391 
L 243.923403 221.52684 
L 244.248383 221.545982 
L 244.573363 221.758715 
L 244.898342 222.467741 
L 245.223322 222.226666 
L 245.548301 222.252165 
L 245.873281 222.466636 
L 246.19826 223.200005 
L 246.52324 222.964606 
L 246.848219 223.005578 
L 247.173199 223.212331 
L 247.498178 223.961483 
L 247.823158 223.730496 
L 248.148137 223.784793 
L 248.473117 224.011524 
L 248.798096 224.767293 
L 249.123076 224.542674 
L 249.448055 224.600101 
L 249.773035 224.827394 
L 250.098014 225.606122 
L 250.422994 225.382249 
L 250.747973 225.461273 
L 251.072953 225.684618 
L 251.397933 226.480841 
L 251.722912 226.268006 
L 252.047892 226.353919 
L 252.372871 226.593696 
L 252.697851 227.39492 
L 253.02283 227.182736 
L 253.34781 227.279667 
L 253.997769 228.496537 
L 254.322748 228.542308 
L 255.297687 229.215448 
L 255.622666 229.109543 
L 256.597605 229.533818 
L 256.922584 229.408438 
L 257.897523 229.800134 
L 258.222503 229.663311 
L 259.197441 230.058124 
L 259.522421 229.929587 
L 260.497359 230.326144 
L 260.822339 230.206684 
L 261.472298 230.620897 
L 262.447236 230.682649 
L 262.772216 230.923881 
L 263.747154 230.981696 
L 264.072134 231.22584 
L 264.722093 231.10064 
L 265.372052 231.539477 
L 266.022011 231.418182 
L 266.67197 231.872939 
L 267.321929 231.752652 
L 267.971888 232.215932 
L 268.621847 232.098133 
L 269.271806 232.561063 
L 269.921765 232.452499 
L 270.571725 232.921181 
L 271.221684 232.811726 
L 271.871643 233.298899 
L 272.521602 233.1975 
L 273.171561 233.685909 
L 273.82152 233.595584 
L 274.471479 234.08749 
L 275.121438 233.997233 
L 275.771397 234.501859 
L 276.421356 234.414339 
L 277.071315 234.923682 
L 277.721274 234.854744 
L 278.371233 235.369101 
L 279.021192 235.299854 
L 279.671151 235.823978 
L 280.32111 235.764286 
L 280.971069 236.294837 
L 281.621028 236.243971 
L 282.270987 236.781184 
L 282.920946 236.739653 
L 283.245926 237.017178 
L 283.895885 238.219419 
L 284.220865 238.741151 
L 284.545844 239.005279 
L 285.195803 240.20905 
L 285.520783 240.6901 
L 285.845762 240.895148 
L 286.495721 242.032847 
L 286.820701 242.483923 
L 287.14568 242.654647 
L 287.795639 243.745697 
L 288.120619 244.174899 
L 288.445598 244.316093 
L 289.095557 245.363997 
L 289.420537 245.772206 
L 289.745516 245.884181 
L 290.070496 246.509013 
L 290.720455 247.277192 
L 291.045435 247.360121 
L 291.370414 247.964616 
L 292.020373 248.691557 
L 292.345353 248.746387 
L 292.670332 249.331397 
L 293.320291 250.016747 
L 293.645271 250.042404 
L 293.97025 250.607066 
L 294.620209 251.250192 
L 294.945189 251.246077 
L 295.270168 251.790124 
L 295.920127 252.39194 
L 296.245107 252.358535 
L 296.570087 252.882559 
L 296.895066 253.155839 
L 297.220046 253.01734 
L 297.545025 252.429075 
L 297.870005 252.391887 
L 298.194984 252.661618 
L 298.519964 252.475682 
L 298.844943 251.886007 
L 299.169923 251.876094 
L 299.494902 252.187356 
L 299.819882 252.013334 
L 300.144861 251.430665 
L 300.469841 251.437666 
L 300.79482 251.766551 
L 301.1198 251.595737 
L 301.444779 251.010118 
L 301.769759 251.02593 
L 302.094738 251.367341 
L 302.419718 251.19661 
L 302.744697 250.607134 
L 303.069677 250.62913 
L 303.394657 250.988341 
L 303.719636 250.818554 
L 304.044616 250.219705 
L 304.369595 250.24879 
L 304.694575 250.611837 
L 305.019554 250.449254 
L 305.344534 249.843229 
L 305.669513 249.879237 
L 305.994493 250.252934 
L 306.319472 250.081273 
L 306.644452 249.473758 
L 306.969431 249.51492 
L 307.294411 249.908461 
L 307.61939 249.740341 
L 307.94437 249.124833 
L 308.269349 249.172569 
L 308.594329 249.570595 
L 308.919308 249.409618 
L 309.244288 248.788177 
L 309.569268 248.842306 
L 309.894247 249.251007 
L 310.219227 249.081033 
L 310.544206 248.457604 
L 310.869186 248.516428 
L 311.194165 248.944945 
L 311.519145 248.778505 
L 311.844124 248.146664 
L 312.169104 248.210708 
L 312.494083 248.643778 
L 312.819063 248.484345 
L 313.144042 247.84592 
L 313.469022 247.916979 
L 313.794001 248.36044 
L 314.118981 248.19215 
L 314.44396 247.551265 
L 314.76894 247.630471 
L 315.093919 248.086405 
L 315.418899 247.917817 
L 315.743878 247.265772 
L 316.068858 247.345361 
L 316.393838 247.811258 
L 316.718817 247.653898 
L 317.043797 246.990771 
L 317.368776 247.076293 
L 317.693756 247.558077 
L 318.018735 247.3925 
L 318.343715 246.734738 
L 318.668694 246.821293 
L 318.993674 247.316161 
L 319.318653 247.150776 
L 319.643633 246.482676 
L 319.968612 246.577626 
L 320.293592 247.085333 
L 320.618571 246.923615 
L 320.943551 246.2375 
L 321.26853 246.333318 
L 321.59351 246.847646 
L 321.918489 246.684182 
L 322.243469 246.006378 
L 322.568449 246.103819 
L 322.893428 246.631659 
L 323.218408 246.467768 
L 323.543387 245.779827 
L 323.868367 245.885311 
L 324.193346 246.425701 
L 324.518326 246.265296 
L 324.843305 245.559575 
L 325.168285 245.66545 
L 325.493264 246.21242 
L 325.818244 246.058577 
L 326.143223 245.35248 
L 326.793182 245.606811 
L 327.443141 244.838842 
L 327.768121 244.729971 
L 328.0931 245.110036 
L 328.743059 244.631151 
L 329.068039 244.581369 
L 329.393019 245.014984 
L 330.042978 244.59083 
L 330.367957 244.545312 
L 330.692937 244.999979 
L 331.342896 244.595452 
L 331.667875 244.565972 
L 331.992855 245.034688 
L 332.642814 244.650228 
L 332.967793 244.628433 
L 333.292773 245.115798 
L 333.942732 244.744396 
L 334.267711 244.72796 
L 334.592691 245.237075 
L 335.24265 244.890327 
L 335.56763 244.88272 
L 335.892609 245.402565 
L 336.542568 245.073801 
L 336.867548 245.073327 
L 337.192527 245.612022 
L 337.842486 245.304333 
L 338.167466 245.311106 
L 338.492445 245.871051 
L 339.142404 245.579852 
L 339.467384 245.58658 
L 339.792363 246.165484 
L 340.117343 245.968669 
L 340.767302 246.60975 
L 341.092281 246.814828 
L 341.74224 246.97946 
L 342.3922 247.216551 
L 342.717179 247.205159 
L 344.992036 247.804464 
L 345.641995 247.899517 
L 346.291954 248.098992 
L 346.616933 248.095092 
L 347.916851 248.41584 
L 351.491626 248.874219 
L 352.141585 248.91209 
L 352.791544 249.036884 
L 353.441503 249.074936 
L 354.091462 249.195917 
L 354.741421 249.236566 
L 354.741421 249.236566 
" clip-path="url(#p766d95565f)" style="fill: none; stroke-dasharray: 6.4,1.6,1,1.6; stroke-dashoffset: 0; stroke: #000080"/>
   </g>
   <g id="patch_9">
    <path d="M 30.103125 273.312 
L 30.103125 95.904 
" style="fill: none; stroke: #000000; stroke-width: 0.8; stroke-linejoin: miter; stroke-linecap: square"/>
   </g>
   <g id="patch_10">
    <path d="M 387.223125 273.312 
L 387.223125 95.904 
" style="fill: none; stroke: #000000; stroke-width: 0.8; stroke-linejoin: miter; stroke-linecap: square"/>
   </g>
   <g id="patch_11">
    <path d="M 30.103125 273.312 
L 387.223125 273.312 
" style="fill: none; stroke: #000000; stroke-width: 0.8; stroke-linejoin: miter; stroke-linecap: square"/>
   </g>
   <g id="patch_12">
    <path d="M 30.103125 95.904 
L 387.223125 95.904 
" style="fill: none; stroke: #000000; stroke-width: 0.8; stroke-linejoin: miter; stroke-linecap: square"/>
   </g>
   <g id="legend_2">
    <g id="patch_13">
     <path d="M 190.8575 208.125187 
L 380.223125 208.125187 
Q 382.223125 208.125187 382.223125 206.125187 
L 382.223125 163.090812 
Q 382.223125 161.090812 380.223125 161.090812 
L 190.8575 161.090812 
Q 188.8575 161.090812 188.8575 163.090812 
L 188.8575 206.125187 
Q 188.8575 208.125187 190.8575 208.125187 
z
" style="fill: #ffffff; opacity: 0.8; stroke: #cccccc; stroke-linejoin: miter"/>
    </g>
    <g id="line2d_31">
     <path d="M 192.8575 169.18925 
L 202.8575 169.18925 
L 212.8575 169.18925 
" style="fill: none; stroke: #66cdaa; stroke-linecap: square"/>
    </g>
    <g id="text_18">
     <text style="font: 10px 'DejaVu Sans', 'Bitstream Vera Sans', 'Computer Modern Sans Serif', 'Lucida Grande', 'Verdana', 'Geneva', 'Lucid', 'Arial', 'Helvetica', 'Avant Garde', sans-serif; text-anchor: start" x="220.8575" y="172.68925" transform="rotate(-0 220.8575 172.68925)">Target response VB1</text>
    </g>
    <g id="line2d_32">
     <path d="M 192.8575 183.867375 
L 202.8575 183.867375 
L 212.8575 183.867375 
" style="fill: none; stroke-dasharray: 3.7,1.6; stroke-dashoffset: 0; stroke: #b22222"/>
    </g>
    <g id="text_19">
     <text style="font: 10px 'DejaVu Sans', 'Bitstream Vera Sans', 'Computer Modern Sans Serif', 'Lucida Grande', 'Verdana', 'Geneva', 'Lucid', 'Arial', 'Helvetica', 'Avant Garde', sans-serif; text-anchor: start" x="220.8575" y="187.367375" transform="rotate(-0 220.8575 187.367375)">Digital prediction VB1</text>
    </g>
    <g id="line2d_33">
     <path d="M 192.8575 198.5455 
L 202.8575 198.5455 
L 212.8575 198.5455 
" style="fill: none; stroke-dasharray: 6.4,1.6,1,1.6; stroke-dashoffset: 0; stroke: #000080"/>
    </g>
    <g id="text_20">
     <text style="font: 10px 'DejaVu Sans', 'Bitstream Vera Sans', 'Computer Modern Sans Serif', 'Lucida Grande', 'Verdana', 'Geneva', 'Lucid', 'Arial', 'Helvetica', 'Avant Garde', sans-serif; text-anchor: start" x="220.8575" y="202.0455" transform="rotate(-0 220.8575 202.0455)">Adjusted analog prediction VB1</text>
    </g>
   </g>
  </g>
 </g>
 <defs>
  <clipPath id="pe974d3b26b">
   <rect x="30.103125" y="7.2" width="357.12" height="88.704"/>
  </clipPath>
  <clipPath id="p766d95565f">
   <rect x="30.103125" y="95.904" width="357.12" height="177.408"/>
  </clipPath>
 </defs>
</svg>
