<?xml version="1.0" encoding="utf-8" standalone="no"?>
<!DOCTYPE svg PUBLIC "-//W3C//DTD SVG 1.1//EN"
  "http://www.w3.org/Graphics/SVG/1.1/DTD/svg11.dtd">
<svg xmlns:xlink="http://www.w3.org/1999/xlink" width="394.423125pt" height="297.190125pt" viewBox="0 0 394.423125 297.190125" xmlns="http://www.w3.org/2000/svg" version="1.1">
 <metadata>
  <rdf:RDF xmlns:dc="http://purl.org/dc/elements/1.1/" xmlns:cc="http://creativecommons.org/ns#" xmlns:rdf="http://www.w3.org/1999/02/22-rdf-syntax-ns#">
   <cc:Work>
    <dc:type rdf:resource="http://purl.org/dc/dcmitype/StillImage"/>
    <dc:date>2023-10-25T12:46:44.532180</dc:date>
    <dc:format>image/svg+xml</dc:format>
    <dc:creator>
     <cc:Agent>
      <dc:title>Matplotlib v3.8.0, https://matplotlib.org/</dc:title>
     </cc:Agent>
    </dc:creator>
   </cc:Work>
  </rdf:RDF>
 </metadata>
 <defs>
  <style type="text/css">*{stroke-linejoin: round; stroke-linecap: butt}</style>
 </defs>
 <g id="figure_1">
  <g id="patch_1">
   <path d="M 0 297.190125 
L 394.423125 297.190125 
L 394.423125 0 
L 0 0 
z
" style="fill: #ffffff"/>
  </g>
  <g id="axes_1">
   <g id="patch_2">
    <path d="M 30.103125 273.312 
L 387.223125 273.312 
L 387.223125 7.2 
L 30.103125 7.2 
z
" style="fill: #ffffff"/>
   </g>
   <g id="matplotlib.axis_1">
    <g id="xtick_1">
     <g id="line2d_1">
      <defs>
       <path id="mf7d516e073" d="M 0 0 
L 0 3.5 
" style="stroke: #000000; stroke-width: 0.8"/>
      </defs>
      <g>
       <use xlink:href="#mf7d516e073" x="46.335852" y="273.312" style="stroke: #000000; stroke-width: 0.8"/>
      </g>
     </g>
     <g id="text_1">
      <text style="font: 10px 'DejaVu Sans', 'Bitstream Vera Sans', 'Computer Modern Sans Serif', 'Lucida Grande', 'Verdana', 'Geneva', 'Lucid', 'Arial', 'Helvetica', 'Avant Garde', sans-serif; text-anchor: middle" x="46.335852" y="287.910437" transform="rotate(-0 46.335852 287.910437)">0</text>
     </g>
    </g>
    <g id="xtick_2">
     <g id="line2d_2">
      <g>
       <use xlink:href="#mf7d516e073" x="111.331757" y="273.312" style="stroke: #000000; stroke-width: 0.8"/>
      </g>
     </g>
     <g id="text_2">
      <text style="font: 10px 'DejaVu Sans', 'Bitstream Vera Sans', 'Computer Modern Sans Serif', 'Lucida Grande', 'Verdana', 'Geneva', 'Lucid', 'Arial', 'Helvetica', 'Avant Garde', sans-serif; text-anchor: middle" x="111.331757" y="287.910437" transform="rotate(-0 111.331757 287.910437)">100</text>
     </g>
    </g>
    <g id="xtick_3">
     <g id="line2d_3">
      <g>
       <use xlink:href="#mf7d516e073" x="176.327662" y="273.312" style="stroke: #000000; stroke-width: 0.8"/>
      </g>
     </g>
     <g id="text_3">
      <text style="font: 10px 'DejaVu Sans', 'Bitstream Vera Sans', 'Computer Modern Sans Serif', 'Lucida Grande', 'Verdana', 'Geneva', 'Lucid', 'Arial', 'Helvetica', 'Avant Garde', sans-serif; text-anchor: middle" x="176.327662" y="287.910437" transform="rotate(-0 176.327662 287.910437)">200</text>
     </g>
    </g>
    <g id="xtick_4">
     <g id="line2d_4">
      <g>
       <use xlink:href="#mf7d516e073" x="241.323567" y="273.312" style="stroke: #000000; stroke-width: 0.8"/>
      </g>
     </g>
     <g id="text_4">
      <text style="font: 10px 'DejaVu Sans', 'Bitstream Vera Sans', 'Computer Modern Sans Serif', 'Lucida Grande', 'Verdana', 'Geneva', 'Lucid', 'Arial', 'Helvetica', 'Avant Garde', sans-serif; text-anchor: middle" x="241.323567" y="287.910437" transform="rotate(-0 241.323567 287.910437)">300</text>
     </g>
    </g>
    <g id="xtick_5">
     <g id="line2d_5">
      <g>
       <use xlink:href="#mf7d516e073" x="306.319472" y="273.312" style="stroke: #000000; stroke-width: 0.8"/>
      </g>
     </g>
     <g id="text_5">
      <text style="font: 10px 'DejaVu Sans', 'Bitstream Vera Sans', 'Computer Modern Sans Serif', 'Lucida Grande', 'Verdana', 'Geneva', 'Lucid', 'Arial', 'Helvetica', 'Avant Garde', sans-serif; text-anchor: middle" x="306.319472" y="287.910437" transform="rotate(-0 306.319472 287.910437)">400</text>
     </g>
    </g>
    <g id="xtick_6">
     <g id="line2d_6">
      <g>
       <use xlink:href="#mf7d516e073" x="371.315377" y="273.312" style="stroke: #000000; stroke-width: 0.8"/>
      </g>
     </g>
     <g id="text_6">
      <text style="font: 10px 'DejaVu Sans', 'Bitstream Vera Sans', 'Computer Modern Sans Serif', 'Lucida Grande', 'Verdana', 'Geneva', 'Lucid', 'Arial', 'Helvetica', 'Avant Garde', sans-serif; text-anchor: middle" x="371.315377" y="287.910437" transform="rotate(-0 371.315377 287.910437)">500</text>
     </g>
    </g>
   </g>
   <g id="matplotlib.axis_2">
    <g id="ytick_1">
     <g id="line2d_7">
      <defs>
       <path id="m6789b566d2" d="M 0 0 
L -3.5 0 
" style="stroke: #000000; stroke-width: 0.8"/>
      </defs>
      <g>
       <use xlink:href="#m6789b566d2" x="30.103125" y="245.743151" style="stroke: #000000; stroke-width: 0.8"/>
      </g>
     </g>
     <g id="text_7">
      <text style="font: 10px 'DejaVu Sans', 'Bitstream Vera Sans', 'Computer Modern Sans Serif', 'Lucida Grande', 'Verdana', 'Geneva', 'Lucid', 'Arial', 'Helvetica', 'Avant Garde', sans-serif; text-anchor: end" x="23.103125" y="249.54237" transform="rotate(-0 23.103125 249.54237)">0.0</text>
     </g>
    </g>
    <g id="ytick_2">
     <g id="line2d_8">
      <g>
       <use xlink:href="#m6789b566d2" x="30.103125" y="189.131363" style="stroke: #000000; stroke-width: 0.8"/>
      </g>
     </g>
     <g id="text_8">
      <text style="font: 10px 'DejaVu Sans', 'Bitstream Vera Sans', 'Computer Modern Sans Serif', 'Lucida Grande', 'Verdana', 'Geneva', 'Lucid', 'Arial', 'Helvetica', 'Avant Garde', sans-serif; text-anchor: end" x="23.103125" y="192.930582" transform="rotate(-0 23.103125 192.930582)">0.2</text>
     </g>
    </g>
    <g id="ytick_3">
     <g id="line2d_9">
      <g>
       <use xlink:href="#m6789b566d2" x="30.103125" y="132.519576" style="stroke: #000000; stroke-width: 0.8"/>
      </g>
     </g>
     <g id="text_9">
      <text style="font: 10px 'DejaVu Sans', 'Bitstream Vera Sans', 'Computer Modern Sans Serif', 'Lucida Grande', 'Verdana', 'Geneva', 'Lucid', 'Arial', 'Helvetica', 'Avant Garde', sans-serif; text-anchor: end" x="23.103125" y="136.318794" transform="rotate(-0 23.103125 136.318794)">0.4</text>
     </g>
    </g>
    <g id="ytick_4">
     <g id="line2d_10">
      <g>
       <use xlink:href="#m6789b566d2" x="30.103125" y="75.907788" style="stroke: #000000; stroke-width: 0.8"/>
      </g>
     </g>
     <g id="text_10">
      <text style="font: 10px 'DejaVu Sans', 'Bitstream Vera Sans', 'Computer Modern Sans Serif', 'Lucida Grande', 'Verdana', 'Geneva', 'Lucid', 'Arial', 'Helvetica', 'Avant Garde', sans-serif; text-anchor: end" x="23.103125" y="79.707007" transform="rotate(-0 23.103125 79.707007)">0.6</text>
     </g>
    </g>
    <g id="ytick_5">
     <g id="line2d_11">
      <g>
       <use xlink:href="#m6789b566d2" x="30.103125" y="19.296" style="stroke: #000000; stroke-width: 0.8"/>
      </g>
     </g>
     <g id="text_11">
      <text style="font: 10px 'DejaVu Sans', 'Bitstream Vera Sans', 'Computer Modern Sans Serif', 'Lucida Grande', 'Verdana', 'Geneva', 'Lucid', 'Arial', 'Helvetica', 'Avant Garde', sans-serif; text-anchor: end" x="23.103125" y="23.095219" transform="rotate(-0 23.103125 23.095219)">0.8</text>
     </g>
    </g>
   </g>
   <g id="line2d_12">
    <path d="M 46.335852 261.216 
L 46.660832 260.035574 
L 46.985811 259.314297 
L 47.63577 258.667297 
L 48.285729 258.450581 
L 49.585648 258.356646 
L 58.035115 258.346243 
L 133.430365 258.255618 
L 134.080324 257.868956 
L 134.405304 257.967109 
L 135.055263 257.483646 
L 135.380242 257.153006 
L 135.705222 257.423917 
L 136.030201 257.243717 
L 136.68016 256.415342 
L 137.00514 256.879847 
L 137.330119 256.714287 
L 137.980078 255.628799 
L 138.305058 256.251338 
L 138.630037 256.145286 
L 139.279996 254.851465 
L 139.604976 255.625178 
L 139.929955 255.603405 
L 140.579915 254.074642 
L 140.904894 254.956971 
L 141.229874 255.047096 
L 141.879833 253.316714 
L 142.204812 254.32301 
L 142.529792 254.518417 
L 143.179751 252.588221 
L 143.50473 253.639205 
L 143.82971 253.888231 
L 144.479669 251.733766 
L 144.804648 252.910703 
L 145.129628 253.351145 
L 145.779587 250.973733 
L 146.104566 252.184152 
L 146.429546 252.805044 
L 147.079505 250.136592 
L 147.404485 251.435006 
L 147.729464 252.22918 
L 148.379423 249.285201 
L 149.029382 251.672873 
L 149.679341 248.447848 
L 150.3293 251.094458 
L 150.979259 247.641061 
L 151.629218 250.547433 
L 152.279177 246.723328 
L 152.604157 248.067116 
L 152.929136 249.92053 
L 153.579096 245.849636 
L 153.904075 247.215994 
L 154.229055 249.350486 
L 154.879014 244.997642 
L 155.203993 246.288535 
L 155.528973 248.760225 
L 156.178932 244.117739 
L 156.503911 245.411179 
L 156.828891 248.07877 
L 157.47885 243.257024 
L 157.803829 244.441666 
L 158.128809 247.479326 
L 158.778768 242.291712 
L 159.103747 243.465048 
L 159.428727 246.86382 
L 160.078686 241.423776 
L 160.403666 242.541308 
L 160.728645 246.300748 
L 161.378604 240.410253 
L 161.703584 241.413008 
L 162.028563 245.607736 
L 162.678522 239.495805 
L 163.003502 240.429716 
L 163.328481 245.024532 
L 163.97844 238.526351 
L 164.30342 239.320754 
L 164.628399 244.349548 
L 165.278358 237.47849 
L 165.603338 238.182556 
L 165.928317 243.668004 
L 166.578277 236.531227 
L 166.903256 237.030333 
L 167.228236 243.014304 
L 167.878195 235.518957 
L 168.203174 235.947153 
L 168.528154 242.360596 
L 169.178113 234.631035 
L 169.503092 234.804578 
L 169.828072 241.611077 
L 170.478031 233.493097 
L 170.80301 233.604354 
L 171.12799 240.863979 
L 171.777949 232.491743 
L 172.102928 232.828512 
L 172.427908 240.248376 
L 173.077867 231.699186 
L 173.402847 230.993624 
L 173.727826 239.530385 
L 174.377785 230.148081 
L 174.702765 229.801448 
L 175.027744 238.7024 
L 175.677703 229.253529 
L 176.002683 229.103364 
L 176.327662 238.582133 
L 176.977621 228.085025 
L 177.302601 226.88492 
L 177.62758 237.247906 
L 178.277539 226.779756 
L 178.602519 225.845769 
L 178.927498 236.483887 
L 179.577458 225.896439 
L 179.902437 225.143246 
L 180.227417 236.381187 
L 180.877376 224.706087 
L 181.202355 222.852952 
L 181.527335 234.990592 
L 182.177294 223.503446 
L 182.502273 221.864546 
L 182.827253 234.110428 
L 183.477212 222.517384 
L 183.802191 221.092873 
L 184.127171 233.995159 
L 184.77713 221.326471 
L 185.102109 218.696177 
L 185.427089 232.557455 
L 186.077048 220.060289 
L 186.402028 217.677736 
L 186.727007 231.782637 
L 187.376966 218.983804 
L 187.701946 216.82902 
L 188.026925 231.651038 
L 188.676884 217.788188 
L 189.001864 214.340147 
L 189.326843 230.164157 
L 189.976802 216.4641 
L 190.301782 213.272468 
L 190.626761 229.352114 
L 191.27672 216.235966 
L 191.6017 211.472258 
L 191.926679 228.782924 
L 192.576639 213.865669 
L 192.901618 209.580127 
L 193.226598 227.576728 
L 193.876557 212.656184 
L 194.201536 208.594245 
L 194.526516 226.788939 
L 194.851495 218.293359 
L 195.501454 207.061463 
L 195.826434 226.535028 
L 196.476393 211.217995 
L 196.801372 205.719906 
L 197.126352 225.936993 
L 197.776311 209.01464 
L 198.10129 203.918399 
L 198.42627 223.330296 
L 198.751249 213.724488 
L 199.401209 201.103507 
L 199.726188 222.660603 
L 200.376147 205.64022 
L 200.701127 199.507964 
L 201.026106 221.952598 
L 201.676065 205.26085 
L 202.001045 199.130987 
L 202.326024 221.798954 
L 203.300963 197.529762 
L 203.625942 221.744621 
L 204.600881 195.218113 
L 204.92586 218.757362 
L 205.57582 199.897625 
L 205.900799 193.098123 
L 206.225779 217.811244 
L 207.200717 191.094759 
L 207.525697 217.596695 
L 208.175656 198.889106 
L 208.500635 190.200685 
L 208.825615 217.230121 
L 209.475574 198.669338 
L 209.800553 189.99585 
L 210.125533 217.141849 
L 210.775492 197.153802 
L 211.100471 191.074049 
L 211.425451 215.423604 
L 212.07541 197.505706 
L 212.40039 192.788054 
L 212.725369 215.788309 
L 213.375328 197.8385 
L 213.700308 193.37627 
L 214.025287 217.754618 
L 214.675246 202.452825 
L 215.000226 198.441958 
L 215.325205 219.242336 
L 215.975164 203.554483 
L 216.300144 199.947506 
L 216.625123 221.673004 
L 217.275082 209.17701 
L 217.600062 206.288345 
L 217.925041 228.569412 
L 218.250021 223.001614 
L 218.89998 214.636634 
L 219.22496 231.458197 
L 219.549939 226.187625 
L 219.874919 241.341299 
L 220.199898 249.359041 
L 220.524878 253.580489 
L 220.849857 255.841642 
L 221.174837 257.028094 
L 221.499816 257.65701 
L 222.149775 258.166709 
L 223.124714 258.339163 
L 226.04953 258.371047 
L 370.990398 258.371175 
L 370.990398 258.371175 
" clip-path="url(#p98e18e0e35)" style="fill: none; stroke: #ff4500; stroke-width: 0.2; stroke-linecap: square"/>
   </g>
   <g id="patch_3">
    <path d="M 30.103125 273.312 
L 30.103125 7.2 
" style="fill: none; stroke: #000000; stroke-width: 0.8; stroke-linejoin: miter; stroke-linecap: square"/>
   </g>
   <g id="patch_4">
    <path d="M 387.223125 273.312 
L 387.223125 7.2 
" style="fill: none; stroke: #000000; stroke-width: 0.8; stroke-linejoin: miter; stroke-linecap: square"/>
   </g>
   <g id="patch_5">
    <path d="M 30.103125 273.312 
L 387.223125 273.312 
" style="fill: none; stroke: #000000; stroke-width: 0.8; stroke-linejoin: miter; stroke-linecap: square"/>
   </g>
   <g id="patch_6">
    <path d="M 30.103125 7.2 
L 387.223125 7.2 
" style="fill: none; stroke: #000000; stroke-width: 0.8; stroke-linejoin: miter; stroke-linecap: square"/>
   </g>
   <g id="patch_7">
    <path d="M 46.478843 189.131363 
L 46.491842 189.131363 
L 46.491842 19.296 
L 46.478843 19.296 
L 46.478843 189.131363 
z
" clip-path="url(#p98e18e0e35)" style="fill: none; opacity: 0.5; stroke: #000000; stroke-linejoin: miter"/>
   </g>
   <g id="patch_8">
    <path d="M 237.232725 12.52224 
Q 141.855784 15.90912 46.478843 19.296 
" style="fill: none; opacity: 0.5; stroke: #000000; stroke-linecap: round"/>
   </g>
   <g id="patch_9">
    <path d="M 380.080725 65.74464 
Q 213.286284 127.438002 46.491842 189.131363 
" style="fill: none; opacity: 0.5; stroke: #000000; stroke-linecap: round"/>
   </g>
   <g id="axes_2">
    <g id="patch_10">
     <path d="M 237.232725 65.74464 
L 380.080725 65.74464 
L 380.080725 12.52224 
L 237.232725 12.52224 
z
" style="fill: #ffffff"/>
    </g>
    <g id="matplotlib.axis_3"/>
    <g id="matplotlib.axis_4"/>
    <g id="line2d_13">
     <path d="M -1 88.196179 
L 395.423125 88.155116 
L 395.423125 88.155116 
" clip-path="url(#p561134698f)" style="fill: none; stroke: #ff4500; stroke-linecap: square"/>
    </g>
    <g id="patch_11">
     <path d="M 237.232725 65.74464 
L 237.232725 12.52224 
" style="fill: none; stroke: #000000; stroke-width: 0.8; stroke-linejoin: miter; stroke-linecap: square"/>
    </g>
    <g id="patch_12">
     <path d="M 380.080725 65.74464 
L 380.080725 12.52224 
" style="fill: none; stroke: #000000; stroke-width: 0.8; stroke-linejoin: miter; stroke-linecap: square"/>
    </g>
    <g id="patch_13">
     <path d="M 237.232725 65.74464 
L 380.080725 65.74464 
" style="fill: none; stroke: #000000; stroke-width: 0.8; stroke-linejoin: miter; stroke-linecap: square"/>
    </g>
    <g id="patch_14">
     <path d="M 237.232725 12.52224 
L 380.080725 12.52224 
" style="fill: none; stroke: #000000; stroke-width: 0.8; stroke-linejoin: miter; stroke-linecap: square"/>
    </g>
   </g>
   <g id="legend_1">
    <g id="patch_15">
     <path d="M 37.103125 29.878125 
L 181.101563 29.878125 
Q 183.101563 29.878125 183.101563 27.878125 
L 183.101563 14.2 
Q 183.101563 12.2 181.101563 12.2 
L 37.103125 12.2 
Q 35.103125 12.2 35.103125 14.2 
L 35.103125 27.878125 
Q 35.103125 29.878125 37.103125 29.878125 
z
" style="fill: #ffffff; opacity: 0.8; stroke: #cccccc; stroke-linejoin: miter"/>
    </g>
    <g id="line2d_14">
     <path d="M 39.103125 20.298437 
L 49.103125 20.298437 
L 59.103125 20.298437 
" style="fill: none; stroke: #ff4500; stroke-width: 0.2; stroke-linecap: square"/>
    </g>
    <g id="text_12">
     <text style="font: 10px 'DejaVu Sans', 'Bitstream Vera Sans', 'Computer Modern Sans Serif', 'Lucida Grande', 'Verdana', 'Geneva', 'Lucid', 'Arial', 'Helvetica', 'Avant Garde', sans-serif; text-anchor: start" x="67.103125" y="23.798437" transform="rotate(-0 67.103125 23.798437)">Analog prediction DB1</text>
    </g>
   </g>
  </g>
 </g>
 <defs>
  <clipPath id="p98e18e0e35">
   <rect x="30.103125" y="7.2" width="357.12" height="266.112"/>
  </clipPath>
  <clipPath id="p561134698f">
   <rect x="237.232725" y="12.52224" width="142.848" height="53.2224"/>
  </clipPath>
 </defs>
</svg>
