<?xml version="1.0" encoding="utf-8" standalone="no"?>
<!DOCTYPE svg PUBLIC "-//W3C//DTD SVG 1.1//EN"
  "http://www.w3.org/Graphics/SVG/1.1/DTD/svg11.dtd">
<svg xmlns:xlink="http://www.w3.org/1999/xlink" width="411.285625pt" height="299.239502pt" viewBox="0 0 411.285625 299.239502" xmlns="http://www.w3.org/2000/svg" version="1.1">
 <metadata>
  <rdf:RDF xmlns:dc="http://purl.org/dc/elements/1.1/" xmlns:cc="http://creativecommons.org/ns#" xmlns:rdf="http://www.w3.org/1999/02/22-rdf-syntax-ns#">
   <cc:Work>
    <dc:type rdf:resource="http://purl.org/dc/dcmitype/StillImage"/>
    <dc:date>2023-10-13T13:58:09.389206</dc:date>
    <dc:format>image/svg+xml</dc:format>
    <dc:creator>
     <cc:Agent>
      <dc:title>Matplotlib v3.8.0, https://matplotlib.org/</dc:title>
     </cc:Agent>
    </dc:creator>
   </cc:Work>
  </rdf:RDF>
 </metadata>
 <defs>
  <style type="text/css">*{stroke-linejoin: round; stroke-linecap: butt}</style>
 </defs>
 <g id="figure_1">
  <g id="patch_1">
   <path d="M 0 299.239502 
L 411.285625 299.239502 
L 411.285625 0 
L 0 0 
z
" style="fill: #ffffff"/>
  </g>
  <g id="axes_1">
   <g id="patch_2">
    <path d="M 46.965625 242.208 
L 404.085625 242.208 
L 404.085625 7.2 
L 46.965625 7.2 
z
" style="fill: #ffffff"/>
   </g>
   <g id="matplotlib.axis_1">
    <g id="xtick_1">
     <g id="line2d_1">
      <defs>
       <path id="m0a9f725974" d="M 0 0 
L 0 3.5 
" style="stroke: #000000; stroke-width: 0.8"/>
      </defs>
      <g>
       <use xlink:href="#m0a9f725974" x="63.198352" y="242.208" style="stroke: #000000; stroke-width: 0.8"/>
      </g>
     </g>
     <g id="text_1">
      <text style="font: 10px 'DejaVu Sans', 'Bitstream Vera Sans', 'Computer Modern Sans Serif', 'Lucida Grande', 'Verdana', 'Geneva', 'Lucid', 'Arial', 'Helvetica', 'Avant Garde', sans-serif" transform="translate(26.180566 276.560315) rotate(-30)">01/1949</text>
     </g>
    </g>
    <g id="xtick_2">
     <g id="line2d_2">
      <g>
       <use xlink:href="#m0a9f725974" x="88.114395" y="242.208" style="stroke: #000000; stroke-width: 0.8"/>
      </g>
     </g>
     <g id="text_2">
      <text style="font: 10px 'DejaVu Sans', 'Bitstream Vera Sans', 'Computer Modern Sans Serif', 'Lucida Grande', 'Verdana', 'Geneva', 'Lucid', 'Arial', 'Helvetica', 'Avant Garde', sans-serif" transform="translate(51.096608 276.560315) rotate(-30)">12/1949</text>
     </g>
    </g>
    <g id="xtick_3">
     <g id="line2d_3">
      <g>
       <use xlink:href="#m0a9f725974" x="113.105037" y="242.208" style="stroke: #000000; stroke-width: 0.8"/>
      </g>
     </g>
     <g id="text_3">
      <text style="font: 10px 'DejaVu Sans', 'Bitstream Vera Sans', 'Computer Modern Sans Serif', 'Lucida Grande', 'Verdana', 'Geneva', 'Lucid', 'Arial', 'Helvetica', 'Avant Garde', sans-serif" transform="translate(76.08725 276.560315) rotate(-30)">11/1950</text>
     </g>
    </g>
    <g id="xtick_4">
     <g id="line2d_4">
      <g>
       <use xlink:href="#m0a9f725974" x="138.02108" y="242.208" style="stroke: #000000; stroke-width: 0.8"/>
      </g>
     </g>
     <g id="text_4">
      <text style="font: 10px 'DejaVu Sans', 'Bitstream Vera Sans', 'Computer Modern Sans Serif', 'Lucida Grande', 'Verdana', 'Geneva', 'Lucid', 'Arial', 'Helvetica', 'Avant Garde', sans-serif" transform="translate(101.003293 276.560315) rotate(-30)">10/1951</text>
     </g>
    </g>
    <g id="xtick_5">
     <g id="line2d_5">
      <g>
       <use xlink:href="#m0a9f725974" x="163.08632" y="242.208" style="stroke: #000000; stroke-width: 0.8"/>
      </g>
     </g>
     <g id="text_5">
      <text style="font: 10px 'DejaVu Sans', 'Bitstream Vera Sans', 'Computer Modern Sans Serif', 'Lucida Grande', 'Verdana', 'Geneva', 'Lucid', 'Arial', 'Helvetica', 'Avant Garde', sans-serif" transform="translate(126.068534 276.560315) rotate(-30)">09/1952</text>
     </g>
    </g>
    <g id="xtick_6">
     <g id="line2d_6">
      <g>
       <use xlink:href="#m0a9f725974" x="188.002363" y="242.208" style="stroke: #000000; stroke-width: 0.8"/>
      </g>
     </g>
     <g id="text_6">
      <text style="font: 10px 'DejaVu Sans', 'Bitstream Vera Sans', 'Computer Modern Sans Serif', 'Lucida Grande', 'Verdana', 'Geneva', 'Lucid', 'Arial', 'Helvetica', 'Avant Garde', sans-serif" transform="translate(150.984576 276.560315) rotate(-30)">08/1953</text>
     </g>
    </g>
    <g id="xtick_7">
     <g id="line2d_7">
      <g>
       <use xlink:href="#m0a9f725974" x="212.918406" y="242.208" style="stroke: #000000; stroke-width: 0.8"/>
      </g>
     </g>
     <g id="text_7">
      <text style="font: 10px 'DejaVu Sans', 'Bitstream Vera Sans', 'Computer Modern Sans Serif', 'Lucida Grande', 'Verdana', 'Geneva', 'Lucid', 'Arial', 'Helvetica', 'Avant Garde', sans-serif" transform="translate(175.900619 276.560315) rotate(-30)">07/1954</text>
     </g>
    </g>
    <g id="xtick_8">
     <g id="line2d_8">
      <g>
       <use xlink:href="#m0a9f725974" x="237.909047" y="242.208" style="stroke: #000000; stroke-width: 0.8"/>
      </g>
     </g>
     <g id="text_8">
      <text style="font: 10px 'DejaVu Sans', 'Bitstream Vera Sans', 'Computer Modern Sans Serif', 'Lucida Grande', 'Verdana', 'Geneva', 'Lucid', 'Arial', 'Helvetica', 'Avant Garde', sans-serif" transform="translate(200.891261 276.560315) rotate(-30)">06/1955</text>
     </g>
    </g>
    <g id="xtick_9">
     <g id="line2d_9">
      <g>
       <use xlink:href="#m0a9f725974" x="262.899689" y="242.208" style="stroke: #000000; stroke-width: 0.8"/>
      </g>
     </g>
     <g id="text_9">
      <text style="font: 10px 'DejaVu Sans', 'Bitstream Vera Sans', 'Computer Modern Sans Serif', 'Lucida Grande', 'Verdana', 'Geneva', 'Lucid', 'Arial', 'Helvetica', 'Avant Garde', sans-serif" transform="translate(225.881903 276.560315) rotate(-30)">05/1956</text>
     </g>
    </g>
    <g id="xtick_10">
     <g id="line2d_10">
      <g>
       <use xlink:href="#m0a9f725974" x="287.890331" y="242.208" style="stroke: #000000; stroke-width: 0.8"/>
      </g>
     </g>
     <g id="text_10">
      <text style="font: 10px 'DejaVu Sans', 'Bitstream Vera Sans', 'Computer Modern Sans Serif', 'Lucida Grande', 'Verdana', 'Geneva', 'Lucid', 'Arial', 'Helvetica', 'Avant Garde', sans-serif" transform="translate(250.872544 276.560315) rotate(-30)">04/1957</text>
     </g>
    </g>
    <g id="xtick_11">
     <g id="line2d_11">
      <g>
       <use xlink:href="#m0a9f725974" x="312.806374" y="242.208" style="stroke: #000000; stroke-width: 0.8"/>
      </g>
     </g>
     <g id="text_11">
      <text style="font: 10px 'DejaVu Sans', 'Bitstream Vera Sans', 'Computer Modern Sans Serif', 'Lucida Grande', 'Verdana', 'Geneva', 'Lucid', 'Arial', 'Helvetica', 'Avant Garde', sans-serif" transform="translate(275.788587 276.560315) rotate(-30)">03/1958</text>
     </g>
    </g>
    <g id="xtick_12">
     <g id="line2d_12">
      <g>
       <use xlink:href="#m0a9f725974" x="337.946213" y="242.208" style="stroke: #000000; stroke-width: 0.8"/>
      </g>
     </g>
     <g id="text_12">
      <text style="font: 10px 'DejaVu Sans', 'Bitstream Vera Sans', 'Computer Modern Sans Serif', 'Lucida Grande', 'Verdana', 'Geneva', 'Lucid', 'Arial', 'Helvetica', 'Avant Garde', sans-serif" transform="translate(300.928427 276.560315) rotate(-30)">02/1959</text>
     </g>
    </g>
    <g id="xtick_13">
     <g id="line2d_13">
      <g>
       <use xlink:href="#m0a9f725974" x="362.862256" y="242.208" style="stroke: #000000; stroke-width: 0.8"/>
      </g>
     </g>
     <g id="text_13">
      <text style="font: 10px 'DejaVu Sans', 'Bitstream Vera Sans', 'Computer Modern Sans Serif', 'Lucida Grande', 'Verdana', 'Geneva', 'Lucid', 'Arial', 'Helvetica', 'Avant Garde', sans-serif" transform="translate(325.844469 276.560315) rotate(-30)">01/1960</text>
     </g>
    </g>
    <g id="xtick_14">
     <g id="line2d_14">
      <g>
       <use xlink:href="#m0a9f725974" x="387.852898" y="242.208" style="stroke: #000000; stroke-width: 0.8"/>
      </g>
     </g>
     <g id="text_14">
      <text style="font: 10px 'DejaVu Sans', 'Bitstream Vera Sans', 'Computer Modern Sans Serif', 'Lucida Grande', 'Verdana', 'Geneva', 'Lucid', 'Arial', 'Helvetica', 'Avant Garde', sans-serif" transform="translate(350.835111 276.560315) rotate(-30)">12/1960</text>
     </g>
    </g>
    <g id="text_15">
     <text style="font: 10px 'DejaVu Sans', 'Bitstream Vera Sans', 'Computer Modern Sans Serif', 'Lucida Grande', 'Verdana', 'Geneva', 'Lucid', 'Arial', 'Helvetica', 'Avant Garde', sans-serif; text-anchor: middle" x="225.525625" y="289.959815" transform="rotate(-0 225.525625 289.959815)">Dates</text>
    </g>
   </g>
   <g id="matplotlib.axis_2">
    <g id="ytick_1">
     <g id="line2d_15">
      <defs>
       <path id="m08680b92a7" d="M 0 0 
L -3.5 0 
" style="stroke: #000000; stroke-width: 0.8"/>
      </defs>
      <g>
       <use xlink:href="#m08680b92a7" x="46.965625" y="223.215555" style="stroke: #000000; stroke-width: 0.8"/>
      </g>
     </g>
     <g id="text_16">
      <text style="font: 10px 'DejaVu Sans', 'Bitstream Vera Sans', 'Computer Modern Sans Serif', 'Lucida Grande', 'Verdana', 'Geneva', 'Lucid', 'Arial', 'Helvetica', 'Avant Garde', sans-serif; text-anchor: end" x="39.965625" y="227.014774" transform="rotate(-0 39.965625 227.014774)">100</text>
     </g>
    </g>
    <g id="ytick_2">
     <g id="line2d_16">
      <g>
       <use xlink:href="#m08680b92a7" x="46.965625" y="188.195277" style="stroke: #000000; stroke-width: 0.8"/>
      </g>
     </g>
     <g id="text_17">
      <text style="font: 10px 'DejaVu Sans', 'Bitstream Vera Sans', 'Computer Modern Sans Serif', 'Lucida Grande', 'Verdana', 'Geneva', 'Lucid', 'Arial', 'Helvetica', 'Avant Garde', sans-serif; text-anchor: end" x="39.965625" y="191.994496" transform="rotate(-0 39.965625 191.994496)">200</text>
     </g>
    </g>
    <g id="ytick_3">
     <g id="line2d_17">
      <g>
       <use xlink:href="#m08680b92a7" x="46.965625" y="153.175" style="stroke: #000000; stroke-width: 0.8"/>
      </g>
     </g>
     <g id="text_18">
      <text style="font: 10px 'DejaVu Sans', 'Bitstream Vera Sans', 'Computer Modern Sans Serif', 'Lucida Grande', 'Verdana', 'Geneva', 'Lucid', 'Arial', 'Helvetica', 'Avant Garde', sans-serif; text-anchor: end" x="39.965625" y="156.974219" transform="rotate(-0 39.965625 156.974219)">300</text>
     </g>
    </g>
    <g id="ytick_4">
     <g id="line2d_18">
      <g>
       <use xlink:href="#m08680b92a7" x="46.965625" y="118.154722" style="stroke: #000000; stroke-width: 0.8"/>
      </g>
     </g>
     <g id="text_19">
      <text style="font: 10px 'DejaVu Sans', 'Bitstream Vera Sans', 'Computer Modern Sans Serif', 'Lucida Grande', 'Verdana', 'Geneva', 'Lucid', 'Arial', 'Helvetica', 'Avant Garde', sans-serif; text-anchor: end" x="39.965625" y="121.953941" transform="rotate(-0 39.965625 121.953941)">400</text>
     </g>
    </g>
    <g id="ytick_5">
     <g id="line2d_19">
      <g>
       <use xlink:href="#m08680b92a7" x="46.965625" y="83.134445" style="stroke: #000000; stroke-width: 0.8"/>
      </g>
     </g>
     <g id="text_20">
      <text style="font: 10px 'DejaVu Sans', 'Bitstream Vera Sans', 'Computer Modern Sans Serif', 'Lucida Grande', 'Verdana', 'Geneva', 'Lucid', 'Arial', 'Helvetica', 'Avant Garde', sans-serif; text-anchor: end" x="39.965625" y="86.933664" transform="rotate(-0 39.965625 86.933664)">500</text>
     </g>
    </g>
    <g id="ytick_6">
     <g id="line2d_20">
      <g>
       <use xlink:href="#m08680b92a7" x="46.965625" y="48.114167" style="stroke: #000000; stroke-width: 0.8"/>
      </g>
     </g>
     <g id="text_21">
      <text style="font: 10px 'DejaVu Sans', 'Bitstream Vera Sans', 'Computer Modern Sans Serif', 'Lucida Grande', 'Verdana', 'Geneva', 'Lucid', 'Arial', 'Helvetica', 'Avant Garde', sans-serif; text-anchor: end" x="39.965625" y="51.913386" transform="rotate(-0 39.965625 51.913386)">600</text>
     </g>
    </g>
    <g id="ytick_7">
     <g id="line2d_21">
      <g>
       <use xlink:href="#m08680b92a7" x="46.965625" y="13.09389" style="stroke: #000000; stroke-width: 0.8"/>
      </g>
     </g>
     <g id="text_22">
      <text style="font: 10px 'DejaVu Sans', 'Bitstream Vera Sans', 'Computer Modern Sans Serif', 'Lucida Grande', 'Verdana', 'Geneva', 'Lucid', 'Arial', 'Helvetica', 'Avant Garde', sans-serif; text-anchor: end" x="39.965625" y="16.893109" transform="rotate(-0 39.965625 16.893109)">700</text>
     </g>
    </g>
    <g id="text_23">
     <text style="font: 10px 'DejaVu Sans', 'Bitstream Vera Sans', 'Computer Modern Sans Serif', 'Lucida Grande', 'Verdana', 'Geneva', 'Lucid', 'Arial', 'Helvetica', 'Avant Garde', sans-serif; text-anchor: middle" x="14.798438" y="124.704" transform="rotate(-90 14.798438 124.704)">Number of passenger (in thousands)</text>
    </g>
   </g>
   <g id="line2d_22">
    <path d="M 63.198352 219.013122 
L 65.510919 216.911905 
L 67.599689 212.009066 
L 69.912256 213.059674 
L 72.150224 215.861297 
L 76.700759 206.405822 
L 79.013326 206.405822 
L 81.325892 210.608255 
L 83.56386 216.561702 
L 85.876427 221.814744 
L 88.114395 216.911905 
L 90.426962 217.962513 
L 92.739529 214.110283 
L 94.828299 208.857241 
L 97.140866 210.958458 
L 99.378834 214.460486 
L 101.6914 206.055619 
L 103.929368 198.701361 
L 106.241935 198.701361 
L 108.554502 202.903794 
L 110.79247 211.658863 
L 113.105037 218.312716 
L 115.343005 209.207444 
L 119.968138 205.705416 
L 122.056908 195.899738 
L 124.369475 201.15278 
L 126.607443 198.000955 
L 128.92001 195.899738 
L 131.157978 188.54548 
L 133.470545 188.54548 
L 135.783112 193.798522 
L 138.02108 201.502983 
L 140.333646 207.106227 
L 142.571614 200.102172 
L 144.884181 198.351158 
L 147.196748 195.199333 
L 149.360117 190.646697 
L 151.672684 194.84913 
L 153.910652 194.148725 
L 156.223219 181.891627 
L 160.773753 173.486761 
L 163.08632 185.043452 
L 167.636855 198.000955 
L 169.874823 190.296494 
L 172.18739 189.596088 
L 174.499957 189.596088 
L 176.588727 175.587977 
L 178.901293 175.93818 
L 181.139261 178.039397 
L 183.451828 173.136558 
L 185.689796 165.7823 
L 188.002363 162.980678 
L 190.31493 175.237775 
L 192.552898 184.343047 
L 194.865465 195.199333 
L 197.103432 187.845075 
L 199.415999 186.794466 
L 201.728566 192.397711 
L 203.817336 175.93818 
L 206.129903 178.739802 
L 208.367871 176.288383 
L 210.680438 165.7823 
L 212.918406 152.474594 
L 215.230973 155.626419 
L 217.543539 167.533314 
L 219.781507 178.039397 
L 222.094074 187.144669 
L 224.332042 178.039397 
L 226.644609 173.486761 
L 228.957176 176.638586 
L 231.045946 164.731691 
L 233.358513 164.031286 
L 235.596481 163.681083 
L 237.909047 147.921958 
L 240.147015 130.762022 
L 242.459582 136.715469 
L 244.772149 148.972567 
L 247.010117 162.280272 
L 249.322684 175.237775 
L 251.560652 160.879461 
L 253.873219 158.778244 
L 256.185785 161.229664 
L 258.349154 147.221553 
L 260.661721 148.622364 
L 262.899689 146.87135 
L 265.212256 127.259995 
L 267.450224 113.602086 
L 269.762791 116.403709 
L 274.313326 151.073783 
L 276.625892 163.33088 
L 278.86386 151.073783 
L 281.176427 147.921958 
L 283.488994 152.824797 
L 285.577764 133.563644 
L 287.890331 136.365267 
L 290.128299 133.913847 
L 292.440866 110.450261 
L 294.678834 95.391542 
L 296.9914 94.691136 
L 299.303967 116.753911 
L 301.541935 136.715469 
L 303.854502 151.423986 
L 306.09247 140.5677 
L 308.405037 139.166889 
L 310.717604 146.87135 
L 312.806374 131.462428 
L 315.118941 136.365267 
L 317.356908 131.112225 
L 319.669475 105.897625 
L 321.907443 86.28627 
L 324.22001 81.383431 
L 326.532577 116.753911 
L 328.770545 132.513036 
L 331.083112 149.672972 
L 333.32108 140.217497 
L 335.633646 132.162833 
L 337.946213 138.466483 
L 340.034983 116.053506 
L 342.34755 119.555533 
L 344.585518 111.150667 
L 346.898085 92.940123 
L 349.136053 66.324712 
L 351.44862 62.472481 
L 353.761186 96.091948 
L 355.999154 115.703303 
L 358.311721 131.462428 
L 360.549689 116.403709 
L 362.862256 112.201275 
L 365.174823 121.306547 
L 367.338192 111.50087 
L 369.650759 96.792353 
L 371.888727 92.940123 
L 374.201293 70.877348 
L 376.439261 40.409706 
L 378.751828 46.012951 
L 381.064395 80.332823 
L 383.302363 96.792353 
L 385.61493 121.65675 
L 387.852898 106.948234 
L 387.852898 106.948234 
" clip-path="url(#pfecd3dc2a5)" style="fill: none; stroke: #87ceeb; stroke-linecap: square"/>
   </g>
   <g id="line2d_23">
    <path d="M 67.599689 212.149155 
L 69.912256 209.686711 
L 72.150224 208.887023 
L 74.462791 210.24626 
L 76.700759 208.97399 
L 79.013326 205.828414 
L 81.325892 204.630334 
L 83.56386 206.398351 
L 88.114395 213.399478 
L 90.426962 212.81028 
L 92.739529 212.046614 
L 94.828299 210.824242 
L 97.140866 207.73894 
L 99.378834 207.208866 
L 101.6914 209.121314 
L 103.929368 206.576018 
L 106.241935 200.924826 
L 108.554502 198.741929 
L 110.79247 201.22143 
L 115.343005 210.87869 
L 117.655572 208.955267 
L 119.968138 205.860102 
L 122.056908 204.608246 
L 124.369475 199.99666 
L 128.92001 199.763462 
L 131.157978 197.896918 
L 133.470545 193.889801 
L 135.783112 191.725135 
L 138.02108 194.41276 
L 140.333646 199.392127 
L 142.571614 203.727607 
L 144.884181 202.041133 
L 147.196748 199.254075 
L 149.360117 197.053184 
L 151.672684 194.263257 
L 153.910652 194.957077 
L 156.223219 195.996627 
L 158.461186 189.707015 
L 160.773753 183.818029 
L 163.08632 179.6505 
L 165.324288 184.825321 
L 167.636855 191.549816 
L 169.874823 196.673131 
L 172.18739 195.306171 
L 174.499957 192.271133 
L 176.588727 191.725135 
L 178.901293 185.164858 
L 181.139261 181.065909 
L 183.451828 182.062061 
L 185.689796 179.6505 
L 188.002363 173.692186 
L 190.31493 170.096934 
L 192.552898 175.847508 
L 197.103432 192.799742 
L 199.415999 192.472456 
L 201.728566 190.263579 
L 203.817336 192.987244 
L 206.129903 186.298325 
L 208.367871 182.062061 
L 210.680438 181.658455 
L 212.918406 174.919479 
L 215.230973 163.425419 
L 217.543539 161.071485 
L 219.781507 169.097741 
L 222.094074 179.102558 
L 224.332042 187.491423 
L 226.644609 185.560895 
L 228.957176 179.6505 
L 231.045946 179.886377 
L 235.596481 170.096934 
L 237.909047 169.460127 
L 240.147015 159.330556 
L 242.459582 142.188546 
L 244.772149 139.394603 
L 247.010117 150.240603 
L 251.560652 175.236231 
L 253.873219 171.114086 
L 256.185785 164.836906 
L 258.349154 166.419732 
L 260.661721 158.653867 
L 262.899689 154.378527 
L 265.212256 153.876788 
L 267.450224 139.674606 
L 269.762791 120.85141 
L 272.075358 117.306676 
L 274.313326 132.223088 
L 276.625892 150.775984 
L 278.86386 164.943913 
L 281.176427 161.629866 
L 283.488994 154.564437 
L 285.577764 156.745658 
L 287.890331 145.595715 
L 290.128299 140.113943 
L 292.440866 140.296284 
L 294.678834 122.647092 
L 296.9914 99.895651 
L 299.303967 92.431511 
L 301.541935 109.491744 
L 303.854502 133.524837 
L 306.09247 151.452721 
L 308.405037 149.770246 
L 310.717604 144.262283 
L 312.806374 149.728424 
L 315.118941 142.188546 
L 317.356908 139.394603 
L 319.669475 137.77421 
L 321.907443 117.068453 
L 324.22001 90.361966 
L 326.532577 78.156104 
L 331.083112 130.896607 
L 333.32108 148.863109 
L 335.633646 149.068728 
L 337.946213 140.491489 
L 340.034983 141.373907 
L 342.34755 128.158859 
L 344.585518 121.561704 
L 346.898085 116.349159 
L 349.136053 98.496876 
L 351.44862 68.735072 
L 353.761186 52.719998 
L 355.999154 79.183652 
L 358.311721 110.283397 
L 360.549689 129.587074 
L 362.862256 125.066521 
L 365.174823 116.130784 
L 367.338192 121.374414 
L 369.650759 117.138833 
L 371.888727 101.290436 
L 374.201293 91.840487 
L 376.439261 72.946227 
L 378.751828 38.307967 
L 381.064395 27.593256 
L 383.302363 58.352818 
L 387.852898 114.464314 
L 387.852898 114.464314 
" clip-path="url(#pfecd3dc2a5)" style="fill: none; stroke-dasharray: 3.7,1.6; stroke-dashoffset: 0; stroke: #9acd32"/>
   </g>
   <g id="LineCollection_1">
    <path d="M 63.198352 231.525818 
L 63.198352 17.882182 
" clip-path="url(#pfecd3dc2a5)" style="fill: none; stroke: #d3d3d3; stroke-width: 0.5"/>
   </g>
   <g id="LineCollection_2">
    <path d="M 90.426962 231.525818 
L 90.426962 17.882182 
" clip-path="url(#pfecd3dc2a5)" style="fill: none; stroke: #d3d3d3; stroke-width: 0.5"/>
   </g>
   <g id="LineCollection_3">
    <path d="M 117.655572 231.525818 
L 117.655572 17.882182 
" clip-path="url(#pfecd3dc2a5)" style="fill: none; stroke: #d3d3d3; stroke-width: 0.5"/>
   </g>
   <g id="LineCollection_4">
    <path d="M 144.884181 231.525818 
L 144.884181 17.882182 
" clip-path="url(#pfecd3dc2a5)" style="fill: none; stroke: #d3d3d3; stroke-width: 0.5"/>
   </g>
   <g id="LineCollection_5">
    <path d="M 172.18739 231.525818 
L 172.18739 17.882182 
" clip-path="url(#pfecd3dc2a5)" style="fill: none; stroke: #d3d3d3; stroke-width: 0.5"/>
   </g>
   <g id="LineCollection_6">
    <path d="M 199.415999 231.525818 
L 199.415999 17.882182 
" clip-path="url(#pfecd3dc2a5)" style="fill: none; stroke: #d3d3d3; stroke-width: 0.5"/>
   </g>
   <g id="LineCollection_7">
    <path d="M 226.644609 231.525818 
L 226.644609 17.882182 
" clip-path="url(#pfecd3dc2a5)" style="fill: none; stroke: #d3d3d3; stroke-width: 0.5"/>
   </g>
   <g id="LineCollection_8">
    <path d="M 253.873219 231.525818 
L 253.873219 17.882182 
" clip-path="url(#pfecd3dc2a5)" style="fill: none; stroke: #d3d3d3; stroke-width: 0.5"/>
   </g>
   <g id="LineCollection_9">
    <path d="M 278.86386 231.525818 
L 278.86386 17.882182 
" clip-path="url(#pfecd3dc2a5)" style="fill: none; stroke-dasharray: 1,1.65; stroke-dashoffset: 0; stroke: #9400d3"/>
   </g>
   <g id="LineCollection_10">
    <path d="M 281.176427 231.525818 
L 281.176427 17.882182 
" clip-path="url(#pfecd3dc2a5)" style="fill: none; stroke: #d3d3d3; stroke-width: 0.5"/>
   </g>
   <g id="LineCollection_11">
    <path d="M 308.405037 231.525818 
L 308.405037 17.882182 
" clip-path="url(#pfecd3dc2a5)" style="fill: none; stroke: #d3d3d3; stroke-width: 0.5"/>
   </g>
   <g id="LineCollection_12">
    <path d="M 335.633646 231.525818 
L 335.633646 17.882182 
" clip-path="url(#pfecd3dc2a5)" style="fill: none; stroke: #d3d3d3; stroke-width: 0.5"/>
   </g>
   <g id="LineCollection_13">
    <path d="M 362.862256 231.525818 
L 362.862256 17.882182 
" clip-path="url(#pfecd3dc2a5)" style="fill: none; stroke: #d3d3d3; stroke-width: 0.5"/>
   </g>
   <g id="patch_3">
    <path d="M 46.965625 242.208 
L 46.965625 7.2 
" style="fill: none; stroke: #000000; stroke-width: 0.8; stroke-linejoin: miter; stroke-linecap: square"/>
   </g>
   <g id="patch_4">
    <path d="M 404.085625 242.208 
L 404.085625 7.2 
" style="fill: none; stroke: #000000; stroke-width: 0.8; stroke-linejoin: miter; stroke-linecap: square"/>
   </g>
   <g id="patch_5">
    <path d="M 46.965625 242.208 
L 404.085625 242.208 
" style="fill: none; stroke: #000000; stroke-width: 0.8; stroke-linejoin: miter; stroke-linecap: square"/>
   </g>
   <g id="patch_6">
    <path d="M 46.965625 7.2 
L 404.085625 7.2 
" style="fill: none; stroke: #000000; stroke-width: 0.8; stroke-linejoin: miter; stroke-linecap: square"/>
   </g>
   <g id="legend_1">
    <g id="patch_7">
     <path d="M 53.965625 59.5125 
L 228.857813 59.5125 
Q 230.857813 59.5125 230.857813 57.5125 
L 230.857813 14.2 
Q 230.857813 12.2 228.857813 12.2 
L 53.965625 12.2 
Q 51.965625 12.2 51.965625 14.2 
L 51.965625 57.5125 
Q 51.965625 59.5125 53.965625 59.5125 
z
" style="fill: #ffffff; opacity: 0.8; stroke: #cccccc; stroke-linejoin: miter"/>
    </g>
    <g id="line2d_24">
     <path d="M 55.965625 20.298438 
L 65.965625 20.298438 
L 75.965625 20.298438 
" style="fill: none; stroke: #87ceeb; stroke-linecap: square"/>
    </g>
    <g id="text_24">
     <text style="font: 10px 'DejaVu Sans', 'Bitstream Vera Sans', 'Computer Modern Sans Serif', 'Lucida Grande', 'Verdana', 'Geneva', 'Lucid', 'Arial', 'Helvetica', 'Avant Garde', sans-serif; text-anchor: start" x="83.965625" y="23.798438" transform="rotate(-0 83.965625 23.798438)">Digital prediction</text>
    </g>
    <g id="line2d_25">
     <path d="M 55.965625 34.976563 
L 65.965625 34.976563 
L 75.965625 34.976563 
" style="fill: none; stroke-dasharray: 3.7,1.6; stroke-dashoffset: 0; stroke: #9acd32"/>
    </g>
    <g id="text_25">
     <text style="font: 10px 'DejaVu Sans', 'Bitstream Vera Sans', 'Computer Modern Sans Serif', 'Lucida Grande', 'Verdana', 'Geneva', 'Lucid', 'Arial', 'Helvetica', 'Avant Garde', sans-serif; text-anchor: start" x="83.965625" y="38.476563" transform="rotate(-0 83.965625 38.476563)">Analog prediction ($n_s=1$)</text>
    </g>
    <g id="line2d_26">
     <path d="M 55.965625 49.932813 
L 75.965625 49.932813 
" style="fill: none; stroke-dasharray: 1,1.65; stroke-dashoffset: 0; stroke: #9400d3"/>
    </g>
    <g id="text_26">
     <text style="font: 10px 'DejaVu Sans', 'Bitstream Vera Sans', 'Computer Modern Sans Serif', 'Lucida Grande', 'Verdana', 'Geneva', 'Lucid', 'Arial', 'Helvetica', 'Avant Garde', sans-serif; text-anchor: start" x="83.965625" y="53.432813" transform="rotate(-0 83.965625 53.432813)">Training/Validation limit</text>
    </g>
   </g>
  </g>
 </g>
 <defs>
  <clipPath id="pfecd3dc2a5">
   <rect x="46.965625" y="7.2" width="357.12" height="235.008"/>
  </clipPath>
 </defs>
</svg>
