<?xml version="1.0" encoding="utf-8" standalone="no"?>
<!DOCTYPE svg PUBLIC "-//W3C//DTD SVG 1.1//EN"
  "http://www.w3.org/Graphics/SVG/1.1/DTD/svg11.dtd">
<svg xmlns:xlink="http://www.w3.org/1999/xlink" width="408.10125pt" height="211.07625pt" viewBox="0 0 408.10125 211.07625" xmlns="http://www.w3.org/2000/svg" version="1.1">
 <metadata>
  <rdf:RDF xmlns:dc="http://purl.org/dc/elements/1.1/" xmlns:cc="http://creativecommons.org/ns#" xmlns:rdf="http://www.w3.org/1999/02/22-rdf-syntax-ns#">
   <cc:Work>
    <dc:type rdf:resource="http://purl.org/dc/dcmitype/StillImage"/>
    <dc:date>2023-10-16T10:03:32.893719</dc:date>
    <dc:format>image/svg+xml</dc:format>
    <dc:creator>
     <cc:Agent>
      <dc:title>Matplotlib v3.8.0, https://matplotlib.org/</dc:title>
     </cc:Agent>
    </dc:creator>
   </cc:Work>
  </rdf:RDF>
 </metadata>
 <defs>
  <style type="text/css">*{stroke-linejoin: round; stroke-linecap: butt}</style>
 </defs>
 <g id="figure_1">
  <g id="patch_1">
   <path d="M 0 211.07625 
L 408.10125 211.07625 
L 408.10125 0 
L 0 0 
z
" style="fill: #ffffff"/>
  </g>
  <g id="axes_1">
   <g id="patch_2">
    <path d="M 43.78125 173.52 
L 400.90125 173.52 
L 400.90125 7.2 
L 43.78125 7.2 
z
" style="fill: #ffffff"/>
   </g>
   <g id="matplotlib.axis_1">
    <g id="xtick_1">
     <g id="line2d_1">
      <defs>
       <path id="mf3f07a34f4" d="M 0 0 
L 0 3.5 
" style="stroke: #000000; stroke-width: 0.8"/>
      </defs>
      <g>
       <use xlink:href="#mf3f07a34f4" x="60.013977" y="173.52" style="stroke: #000000; stroke-width: 0.8"/>
      </g>
     </g>
     <g id="text_1">
      <text style="font: 10px 'DejaVu Sans', 'Bitstream Vera Sans', 'Computer Modern Sans Serif', 'Lucida Grande', 'Verdana', 'Geneva', 'Lucid', 'Arial', 'Helvetica', 'Avant Garde', sans-serif; text-anchor: middle" x="60.013977" y="188.118438" transform="rotate(-0 60.013977 188.118438)">0.0</text>
     </g>
    </g>
    <g id="xtick_2">
     <g id="line2d_2">
      <g>
       <use xlink:href="#mf3f07a34f4" x="125.009882" y="173.52" style="stroke: #000000; stroke-width: 0.8"/>
      </g>
     </g>
     <g id="text_2">
      <text style="font: 10px 'DejaVu Sans', 'Bitstream Vera Sans', 'Computer Modern Sans Serif', 'Lucida Grande', 'Verdana', 'Geneva', 'Lucid', 'Arial', 'Helvetica', 'Avant Garde', sans-serif; text-anchor: middle" x="125.009882" y="188.118438" transform="rotate(-0 125.009882 188.118438)">0.1</text>
     </g>
    </g>
    <g id="xtick_3">
     <g id="line2d_3">
      <g>
       <use xlink:href="#mf3f07a34f4" x="190.005787" y="173.52" style="stroke: #000000; stroke-width: 0.8"/>
      </g>
     </g>
     <g id="text_3">
      <text style="font: 10px 'DejaVu Sans', 'Bitstream Vera Sans', 'Computer Modern Sans Serif', 'Lucida Grande', 'Verdana', 'Geneva', 'Lucid', 'Arial', 'Helvetica', 'Avant Garde', sans-serif; text-anchor: middle" x="190.005787" y="188.118438" transform="rotate(-0 190.005787 188.118438)">0.2</text>
     </g>
    </g>
    <g id="xtick_4">
     <g id="line2d_4">
      <g>
       <use xlink:href="#mf3f07a34f4" x="255.001692" y="173.52" style="stroke: #000000; stroke-width: 0.8"/>
      </g>
     </g>
     <g id="text_4">
      <text style="font: 10px 'DejaVu Sans', 'Bitstream Vera Sans', 'Computer Modern Sans Serif', 'Lucida Grande', 'Verdana', 'Geneva', 'Lucid', 'Arial', 'Helvetica', 'Avant Garde', sans-serif; text-anchor: middle" x="255.001692" y="188.118438" transform="rotate(-0 255.001692 188.118438)">0.3</text>
     </g>
    </g>
    <g id="xtick_5">
     <g id="line2d_5">
      <g>
       <use xlink:href="#mf3f07a34f4" x="319.997597" y="173.52" style="stroke: #000000; stroke-width: 0.8"/>
      </g>
     </g>
     <g id="text_5">
      <text style="font: 10px 'DejaVu Sans', 'Bitstream Vera Sans', 'Computer Modern Sans Serif', 'Lucida Grande', 'Verdana', 'Geneva', 'Lucid', 'Arial', 'Helvetica', 'Avant Garde', sans-serif; text-anchor: middle" x="319.997597" y="188.118438" transform="rotate(-0 319.997597 188.118438)">0.4</text>
     </g>
    </g>
    <g id="xtick_6">
     <g id="line2d_6">
      <g>
       <use xlink:href="#mf3f07a34f4" x="384.993502" y="173.52" style="stroke: #000000; stroke-width: 0.8"/>
      </g>
     </g>
     <g id="text_6">
      <text style="font: 10px 'DejaVu Sans', 'Bitstream Vera Sans', 'Computer Modern Sans Serif', 'Lucida Grande', 'Verdana', 'Geneva', 'Lucid', 'Arial', 'Helvetica', 'Avant Garde', sans-serif; text-anchor: middle" x="384.993502" y="188.118438" transform="rotate(-0 384.993502 188.118438)">0.5</text>
     </g>
    </g>
    <g id="text_7">
     <text style="font: 10px 'DejaVu Sans', 'Bitstream Vera Sans', 'Computer Modern Sans Serif', 'Lucida Grande', 'Verdana', 'Geneva', 'Lucid', 'Arial', 'Helvetica', 'Avant Garde', sans-serif; text-anchor: middle" x="222.34125" y="201.796563" transform="rotate(-0 222.34125 201.796563)">Time (ms)</text>
    </g>
   </g>
   <g id="matplotlib.axis_2">
    <g id="ytick_1">
     <g id="line2d_7">
      <defs>
       <path id="mfc018e753e" d="M 0 0 
L -3.5 0 
" style="stroke: #000000; stroke-width: 0.8"/>
      </defs>
      <g>
       <use xlink:href="#mfc018e753e" x="43.78125" y="156.06335" style="stroke: #000000; stroke-width: 0.8"/>
      </g>
     </g>
     <g id="text_8">
      <text style="font: 10px 'DejaVu Sans', 'Bitstream Vera Sans', 'Computer Modern Sans Serif', 'Lucida Grande', 'Verdana', 'Geneva', 'Lucid', 'Arial', 'Helvetica', 'Avant Garde', sans-serif; text-anchor: end" x="36.78125" y="159.862569" transform="rotate(-0 36.78125 159.862569)">0.0</text>
     </g>
    </g>
    <g id="ytick_2">
     <g id="line2d_8">
      <g>
       <use xlink:href="#mfc018e753e" x="43.78125" y="129.617807" style="stroke: #000000; stroke-width: 0.8"/>
      </g>
     </g>
     <g id="text_9">
      <text style="font: 10px 'DejaVu Sans', 'Bitstream Vera Sans', 'Computer Modern Sans Serif', 'Lucida Grande', 'Verdana', 'Geneva', 'Lucid', 'Arial', 'Helvetica', 'Avant Garde', sans-serif; text-anchor: end" x="36.78125" y="133.417026" transform="rotate(-0 36.78125 133.417026)">0.1</text>
     </g>
    </g>
    <g id="ytick_3">
     <g id="line2d_9">
      <g>
       <use xlink:href="#mfc018e753e" x="43.78125" y="103.172263" style="stroke: #000000; stroke-width: 0.8"/>
      </g>
     </g>
     <g id="text_10">
      <text style="font: 10px 'DejaVu Sans', 'Bitstream Vera Sans', 'Computer Modern Sans Serif', 'Lucida Grande', 'Verdana', 'Geneva', 'Lucid', 'Arial', 'Helvetica', 'Avant Garde', sans-serif; text-anchor: end" x="36.78125" y="106.971482" transform="rotate(-0 36.78125 106.971482)">0.2</text>
     </g>
    </g>
    <g id="ytick_4">
     <g id="line2d_10">
      <g>
       <use xlink:href="#mfc018e753e" x="43.78125" y="76.72672" style="stroke: #000000; stroke-width: 0.8"/>
      </g>
     </g>
     <g id="text_11">
      <text style="font: 10px 'DejaVu Sans', 'Bitstream Vera Sans', 'Computer Modern Sans Serif', 'Lucida Grande', 'Verdana', 'Geneva', 'Lucid', 'Arial', 'Helvetica', 'Avant Garde', sans-serif; text-anchor: end" x="36.78125" y="80.525938" transform="rotate(-0 36.78125 80.525938)">0.3</text>
     </g>
    </g>
    <g id="ytick_5">
     <g id="line2d_11">
      <g>
       <use xlink:href="#mfc018e753e" x="43.78125" y="50.281176" style="stroke: #000000; stroke-width: 0.8"/>
      </g>
     </g>
     <g id="text_12">
      <text style="font: 10px 'DejaVu Sans', 'Bitstream Vera Sans', 'Computer Modern Sans Serif', 'Lucida Grande', 'Verdana', 'Geneva', 'Lucid', 'Arial', 'Helvetica', 'Avant Garde', sans-serif; text-anchor: end" x="36.78125" y="54.080395" transform="rotate(-0 36.78125 54.080395)">0.4</text>
     </g>
    </g>
    <g id="ytick_6">
     <g id="line2d_12">
      <g>
       <use xlink:href="#mfc018e753e" x="43.78125" y="23.835633" style="stroke: #000000; stroke-width: 0.8"/>
      </g>
     </g>
     <g id="text_13">
      <text style="font: 10px 'DejaVu Sans', 'Bitstream Vera Sans', 'Computer Modern Sans Serif', 'Lucida Grande', 'Verdana', 'Geneva', 'Lucid', 'Arial', 'Helvetica', 'Avant Garde', sans-serif; text-anchor: end" x="36.78125" y="27.634851" transform="rotate(-0 36.78125 27.634851)">0.5</text>
     </g>
    </g>
    <g id="text_14">
     <text style="font: 10px 'DejaVu Sans', 'Bitstream Vera Sans', 'Computer Modern Sans Serif', 'Lucida Grande', 'Verdana', 'Geneva', 'Lucid', 'Arial', 'Helvetica', 'Avant Garde', sans-serif; text-anchor: middle" x="14.798438" y="90.36" transform="rotate(-90 14.798438 90.36)">Number of passenger (in thousands)</text>
    </g>
   </g>
   <g id="line2d_13">
    <path d="M 60.013977 161.286462 
L 60.663936 150.660329 
L 61.313895 145.384498 
L 61.963854 142.891976 
L 62.613813 141.718505 
L 63.263773 141.163949 
L 63.913732 140.900706 
L 65.21365 140.715293 
L 68.138465 140.661884 
L 124.684903 140.659752 
L 125.009882 149.581531 
L 125.334862 151.571474 
L 125.659841 152.489658 
L 125.984821 152.833921 
L 126.3098 152.855664 
L 126.959759 152.475095 
L 130.859514 149.410351 
L 135.409227 146.347727 
L 138.984002 143.826393 
L 143.858695 140.059934 
L 144.183674 139.798559 
L 144.508654 129.206867 
L 145.158613 132.865859 
L 145.808572 134.545252 
L 146.133551 134.944299 
L 146.458531 135.121274 
L 146.78351 135.12077 
L 147.433469 134.729246 
L 148.083429 133.987515 
L 149.058367 132.508928 
L 150.683265 129.539874 
L 152.633142 125.496149 
L 154.907999 120.266599 
L 157.182855 114.503121 
L 157.832814 112.817696 
L 158.157794 112.300125 
L 158.482773 112.021164 
L 158.807753 111.936724 
L 159.132732 112.007394 
L 159.782691 112.487851 
L 160.75763 113.74558 
L 162.057548 115.906261 
L 165.307343 121.926969 
L 169.207098 128.931132 
L 173.106852 135.477018 
L 178.631504 144.267585 
L 184.156156 152.583401 
L 189.680808 160.616334 
L 190.005787 160.393904 
L 190.655746 163.419492 
L 191.305705 164.958521 
L 191.955664 165.589017 
L 192.605623 165.826878 
L 193.905542 165.943848 
L 200.080153 165.959999 
L 384.668523 165.96 
L 384.668523 165.96 
" clip-path="url(#p1e89575894)" style="fill: none; stroke: #87ceeb; stroke-linecap: square"/>
   </g>
   <g id="line2d_14">
    <path d="M 60.013977 132.443528 
L 60.338957 115.640756 
L 60.663936 106.69669 
L 60.988916 130.469031 
L 61.313895 113.722145 
L 61.638875 105.682773 
L 61.963854 101.22873 
L 62.288834 127.772578 
L 62.613813 112.097666 
L 62.938793 104.755398 
L 63.263773 100.696656 
L 63.588752 127.513339 
L 63.913732 111.933557 
L 64.238711 104.659633 
L 64.563691 100.64046 
L 64.88867 127.484245 
L 65.21365 111.915653 
L 65.538629 104.649033 
L 65.863609 100.634161 
L 66.188588 127.480903 
L 66.513568 111.913607 
L 66.838547 104.647808 
L 67.163527 100.633425 
L 67.488506 127.480504 
L 67.813486 111.913364 
L 68.138465 104.647661 
L 68.463445 100.633336 
L 68.788424 127.480455 
L 69.113404 111.913335 
L 69.438383 104.647643 
L 69.763363 100.633325 
L 70.088343 127.480448 
L 70.413322 111.913331 
L 70.738302 104.647641 
L 71.063281 100.633324 
L 71.388261 127.480448 
L 71.71324 111.91333 
L 72.03822 104.64764 
L 72.363199 100.633324 
L 72.688179 127.480448 
L 73.013158 111.91333 
L 73.338138 104.64764 
L 73.663117 100.633324 
L 73.988097 127.480448 
L 74.313076 111.91333 
L 74.638056 104.64764 
L 74.963035 100.633324 
L 75.288015 127.480448 
L 75.612994 111.91333 
L 75.937974 104.64764 
L 76.262954 100.633324 
L 76.587933 127.480448 
L 76.912913 111.91333 
L 77.237892 104.64764 
L 77.562872 100.633324 
L 77.887851 127.480448 
L 78.212831 111.91333 
L 78.53781 104.64764 
L 78.86279 100.633324 
L 79.187769 127.480448 
L 79.512749 111.91333 
L 79.837728 104.64764 
L 80.162708 100.633324 
L 80.487687 127.480448 
L 80.812667 111.91333 
L 81.137646 104.64764 
L 81.462626 100.633324 
L 81.787605 127.480448 
L 82.112585 111.91333 
L 82.437564 104.64764 
L 82.762544 100.633324 
L 83.087524 127.480448 
L 83.412503 111.91333 
L 83.737483 104.64764 
L 84.062462 100.633324 
L 84.387442 127.480448 
L 84.712421 111.91333 
L 85.037401 104.64764 
L 85.36238 100.633324 
L 85.68736 127.480448 
L 86.012339 111.91333 
L 86.337319 104.64764 
L 86.662298 100.633324 
L 86.987278 127.480448 
L 87.312257 111.91333 
L 87.637237 104.64764 
L 87.962216 100.633324 
L 88.287196 127.480448 
L 88.612175 111.91333 
L 88.937155 104.64764 
L 89.262135 100.633324 
L 89.587114 127.480448 
L 89.912094 111.91333 
L 90.237073 104.64764 
L 90.562053 100.633324 
L 90.887032 127.480448 
L 91.212012 111.91333 
L 91.536991 104.64764 
L 91.861971 100.633324 
L 92.18695 127.480448 
L 92.51193 111.91333 
L 92.836909 104.64764 
L 93.161889 100.633324 
L 93.486868 127.480448 
L 93.811848 111.91333 
L 94.136827 104.64764 
L 94.461807 100.633324 
L 94.786786 127.480448 
L 95.111766 111.91333 
L 95.436745 104.64764 
L 95.761725 100.633324 
L 96.086705 127.480448 
L 96.411684 111.91333 
L 96.736664 104.64764 
L 97.061643 100.633324 
L 97.386623 127.480448 
L 97.711602 111.91333 
L 98.036582 104.64764 
L 98.361561 100.633324 
L 98.686541 127.480448 
L 99.01152 111.91333 
L 99.3365 104.64764 
L 99.661479 100.633324 
L 99.986459 127.480448 
L 100.311438 111.91333 
L 100.636418 104.64764 
L 100.961397 100.633324 
L 101.286377 127.480448 
L 101.611356 111.91333 
L 101.936336 104.64764 
L 102.261316 100.633324 
L 102.586295 127.480448 
L 102.911275 111.91333 
L 103.236254 104.64764 
L 103.561234 100.633324 
L 103.886213 127.480448 
L 104.211193 111.91333 
L 104.536172 104.64764 
L 104.861152 100.633324 
L 105.186131 127.480448 
L 105.511111 111.91333 
L 105.83609 104.64764 
L 106.16107 100.633324 
L 106.486049 127.480448 
L 106.811029 111.91333 
L 107.136008 104.64764 
L 107.460988 100.633324 
L 107.785967 127.480448 
L 108.110947 111.91333 
L 108.435926 104.64764 
L 108.760906 100.633324 
L 109.085886 127.480448 
L 109.410865 111.91333 
L 109.735845 104.64764 
L 110.060824 100.633324 
L 110.385804 127.480448 
L 110.710783 111.91333 
L 111.035763 104.64764 
L 111.360742 100.633324 
L 111.685722 127.480448 
L 112.010701 111.91333 
L 112.335681 104.64764 
L 112.66066 100.633324 
L 112.98564 127.480448 
L 113.310619 111.91333 
L 113.635599 104.64764 
L 113.960578 100.633324 
L 114.285558 127.480448 
L 114.610537 111.91333 
L 114.935517 104.64764 
L 115.260497 100.633324 
L 115.585476 127.480448 
L 115.910456 111.91333 
L 116.235435 104.64764 
L 116.560415 100.633324 
L 116.885394 127.480448 
L 117.210374 111.91333 
L 117.535353 104.64764 
L 117.860333 100.633324 
L 118.185312 127.480448 
L 118.510292 111.91333 
L 118.835271 104.64764 
L 119.160251 100.633324 
L 119.48523 127.480448 
L 119.81021 111.91333 
L 120.135189 104.64764 
L 120.460169 100.633324 
L 120.785148 127.480448 
L 121.110128 111.91333 
L 121.435107 104.64764 
L 121.760087 100.633324 
L 122.085067 127.480448 
L 122.410046 111.91333 
L 122.735026 104.64764 
L 123.060005 100.633324 
L 123.384985 127.480448 
L 123.709964 111.91333 
L 124.034944 104.64764 
L 124.359923 100.633324 
L 124.684903 127.480448 
L 125.009882 111.91333 
L 125.334862 104.64764 
L 125.659841 100.633324 
L 125.984821 127.480448 
L 126.3098 111.91333 
L 126.63478 104.64764 
L 126.959759 100.633324 
L 127.284739 127.480448 
L 127.609718 111.91333 
L 127.934698 104.64764 
L 128.259678 100.633324 
L 128.584657 127.480448 
L 128.909637 111.91333 
L 129.234616 104.64764 
L 129.559596 100.633324 
L 129.884575 127.480448 
L 130.209555 111.91333 
L 130.534534 104.64764 
L 130.859514 100.633324 
L 131.184493 127.480448 
L 131.509473 111.91333 
L 131.834452 104.64764 
L 132.159432 100.633324 
L 132.484411 127.480448 
L 132.809391 111.91333 
L 133.13437 104.64764 
L 133.45935 100.633324 
L 133.784329 127.480448 
L 134.109309 111.91333 
L 134.434288 104.64764 
L 134.759268 100.633324 
L 135.084248 127.480448 
L 135.409227 111.91333 
L 135.734207 104.64764 
L 136.059186 100.633324 
L 136.384166 127.480448 
L 136.709145 111.91333 
L 137.034125 104.64764 
L 137.359104 100.633324 
L 137.684084 127.480448 
L 138.009063 111.91333 
L 138.334043 104.64764 
L 138.659022 100.633324 
L 138.984002 127.480448 
L 139.308981 111.91333 
L 139.633961 104.64764 
L 139.95894 100.633324 
L 140.28392 127.480448 
L 140.608899 111.91333 
L 140.933879 104.64764 
L 141.258859 100.633324 
L 141.583838 127.480448 
L 141.908818 111.91333 
L 142.233797 104.64764 
L 142.558777 100.633324 
L 142.883756 127.480448 
L 143.208736 111.91333 
L 143.533715 104.64764 
L 143.858695 100.633324 
L 144.183674 127.480448 
L 144.508654 111.91333 
L 144.833633 104.64764 
L 145.158613 100.633324 
L 145.483592 127.480448 
L 145.808572 111.91333 
L 146.133551 104.64764 
L 146.458531 53.194399 
L 146.78351 114.554092 
L 147.10849 63.272626 
L 147.758449 24.768381 
L 148.083429 101.201659 
L 148.408408 53.410818 
L 149.058367 19.354663 
L 149.383347 98.61709 
L 149.708326 51.017573 
L 150.358285 17.539443 
L 150.683265 97.848066 
L 151.008244 50.000516 
L 151.658203 16.504039 
L 151.983183 97.46338 
L 152.308162 49.318215 
L 152.958121 15.569966 
L 153.283101 97.148413 
L 153.60808 48.716186 
L 154.25804 14.76 
L 154.583019 96.873109 
L 154.907999 48.140845 
L 155.232978 68.145295 
L 155.557958 73.998306 
L 155.882937 117.915742 
L 156.207917 99.618169 
L 156.532896 93.094667 
L 156.857876 89.300478 
L 157.182855 125.154236 
L 157.507835 104.286084 
L 157.832814 95.791537 
L 158.157794 90.743592 
L 158.482773 125.906729 
L 158.807753 104.517352 
L 159.132732 95.679981 
L 159.457712 90.41294 
L 159.782691 125.811961 
L 160.107671 104.146545 
L 160.43265 95.183648 
L 160.75763 89.836393 
L 161.08261 125.599366 
L 161.407589 103.69096 
L 161.732569 94.484013 
L 162.057548 89.14981 
L 162.382528 125.338423 
L 162.707507 103.198458 
L 163.032487 93.907748 
L 163.357466 88.515288 
L 163.682446 125.102013 
L 164.007425 102.724383 
L 164.332405 93.344609 
L 164.657384 87.894697 
L 164.982364 124.869007 
L 165.307343 102.249352 
L 165.632323 92.781107 
L 165.957302 87.103105 
L 166.282282 124.589553 
L 166.607261 101.738449 
L 166.932241 92.195809 
L 167.257221 86.48062 
L 167.5822 124.349477 
L 167.90718 101.260071 
L 168.232159 91.629427 
L 168.557139 85.865456 
L 168.882118 124.116553 
L 169.207098 100.785429 
L 169.532077 91.063193 
L 169.857057 85.235073 
L 170.182036 123.882461 
L 170.507016 100.166564 
L 170.831995 90.426111 
L 171.156975 84.54283 
L 171.481954 123.631067 
L 171.806934 99.677813 
L 172.131913 89.852308 
L 172.456893 83.905096 
L 172.781872 123.398516 
L 173.106852 99.200344 
L 173.431831 89.286601 
L 173.756811 83.29616 
L 174.081791 123.16922 
L 174.40677 98.727204 
L 174.73175 88.572555 
L 175.056729 82.585411 
L 175.381709 122.904523 
L 175.706688 98.226644 
L 176.031668 87.991082 
L 176.356647 81.954163 
L 176.681627 122.662595 
L 177.006606 97.747477 
L 177.331586 87.422043 
L 177.656565 81.326044 
L 177.981545 122.425314 
L 178.306524 97.269839 
L 178.631504 86.854001 
L 178.956483 80.551523 
L 179.281463 122.147797 
L 179.606442 96.755521 
L 179.931422 86.262031 
L 180.256402 79.905572 
L 180.581381 121.909697 
L 180.906361 96.273542 
L 181.23134 85.689516 
L 181.55632 79.274915 
L 181.881299 121.677599 
L 182.206279 95.795942 
L 182.531258 85.120718 
L 182.856238 78.64545 
L 183.181217 121.446319 
L 183.506197 95.173354 
L 183.831176 84.478741 
L 184.156156 77.969051 
L 184.481135 121.195744 
L 184.806115 94.67986 
L 185.131094 83.899298 
L 185.456074 77.332232 
L 185.781053 120.962083 
L 186.106033 94.199476 
L 186.431012 83.327968 
L 186.755992 76.691785 
L 187.080972 120.728611 
L 187.405951 93.716883 
L 187.730931 82.606172 
L 188.05591 75.996827 
L 188.38089 120.46902 
L 188.705869 93.219159 
L 189.030849 82.038567 
L 189.355828 75.356568 
L 189.680808 120.23741 
L 190.005787 126.947139 
L 190.330767 131.331064 
L 190.655746 133.71178 
L 190.980726 143.931658 
L 191.305705 139.782285 
L 191.630685 138.021889 
L 191.955664 137.002486 
L 192.280644 145.615139 
L 192.605623 140.500993 
L 192.930603 138.202885 
L 193.255583 136.88459 
L 193.580562 145.576553 
L 193.905542 140.241336 
L 194.230521 137.840878 
L 194.555501 136.464499 
L 194.88048 145.38415 
L 195.20546 139.891761 
L 195.530439 137.416747 
L 195.855419 136.014455 
L 196.180398 145.176836 
L 196.505378 139.410606 
L 196.830357 136.940935 
L 197.155337 135.531116 
L 197.480316 144.954409 
L 197.805296 139.042949 
L 198.130275 136.51644 
L 198.455255 135.0723 
L 198.780234 144.743642 
L 199.105214 138.680131 
L 199.430193 136.095434 
L 199.755173 134.617697 
L 200.080153 144.534264 
L 200.405132 138.317936 
L 200.730112 135.548233 
L 201.055091 134.106504 
L 201.380071 144.297769 
L 201.70505 137.939524 
L 202.03003 135.114419 
L 202.355009 133.643873 
L 202.679989 144.085496 
L 203.004968 137.574404 
L 203.329948 134.676675 
L 203.654927 133.167343 
L 203.979907 143.885885 
L 204.304886 137.21308 
L 204.629866 134.252799 
L 204.954845 132.58436 
L 205.279825 143.624643 
L 205.604804 136.824764 
L 205.929784 133.821664 
L 206.254764 132.119884 
L 206.579743 143.414363 
L 206.904723 136.458985 
L 207.229702 133.393485 
L 207.554682 131.660839 
L 207.879661 143.20349 
L 208.204641 136.091611 
L 208.52962 132.954782 
L 208.8546 131.325074 
L 209.179579 143.048157 
L 209.504559 135.879408 
L 209.829538 132.851521 
L 210.154518 131.270228 
L 210.479497 143.021068 
L 210.804477 135.863923 
L 211.454436 129.996558 
L 211.779415 142.491531 
L 212.104395 134.308909 
L 212.429374 130.864164 
L 212.754354 129.049465 
L 213.079334 142.025022 
L 213.404313 134.043913 
L 213.729293 130.717557 
L 214.054272 128.972243 
L 214.379252 141.987058 
L 214.704231 134.021541 
L 215.029211 130.705181 
L 215.35419 128.965345 
L 215.67917 141.983661 
L 216.004149 134.019452 
L 216.329129 130.703988 
L 216.654108 128.964662 
L 216.979088 141.983323 
L 217.304067 134.019235 
L 217.954026 127.691659 
L 218.279006 141.460508 
L 218.603985 132.479634 
L 218.928965 128.714808 
L 219.253945 126.742281 
L 219.578924 140.997728 
L 219.903904 132.214119 
L 220.228883 128.576041 
L 220.553863 126.664565 
L 220.878842 140.959579 
L 221.203822 132.191368 
L 221.528801 128.563331 
L 221.853781 126.657402 
L 222.17876 140.956079 
L 222.50374 132.18917 
L 222.828719 128.562059 
L 223.153699 126.65666 
L 223.478678 140.955717 
L 223.803658 132.188932 
L 224.128637 127.283175 
L 224.453617 124.800926 
L 224.778596 140.14015 
L 225.103576 130.470625 
L 225.428555 126.470151 
L 225.753535 124.366839 
L 226.078515 139.929075 
L 226.403494 130.346703 
L 226.728474 126.402525 
L 227.053453 124.329497 
L 227.378433 139.910907 
L 227.703412 130.335508 
L 228.028392 126.396196 
L 228.353371 124.325868 
L 228.678351 139.909144 
L 229.00333 130.334362 
L 229.32831 126.395524 
L 229.653289 124.325469 
L 229.978269 139.908862 
L 230.303248 129.073695 
L 230.628228 124.548079 
L 230.953207 122.163196 
L 231.278187 138.973884 
L 231.603166 128.531401 
L 231.928146 124.255282 
L 232.253126 122.003637 
L 232.578105 138.896717 
L 232.903085 128.484462 
L 233.228064 108.453384 
L 233.553044 100.148664 
L 233.878023 130.134955 
L 234.203003 110.006396 
L 234.527982 101.635292 
L 234.852962 96.881965 
L 235.177941 128.330072 
L 235.502921 109.19263 
L 235.8279 101.243397 
L 236.15288 96.702359 
L 236.477859 128.202405 
L 236.802839 109.148684 
L 237.127818 101.225385 
L 237.452798 96.696646 
L 237.777777 128.192798 
L 238.102757 109.148085 
L 238.427736 101.226094 
L 238.752716 96.697761 
L 239.077696 128.192963 
L 239.402675 109.148727 
L 239.727655 101.226634 
L 240.052634 96.698184 
L 240.377614 128.192995 
L 240.702593 109.148873 
L 241.027573 101.226745 
L 241.352552 96.698266 
L 241.677532 128.193009 
L 242.002511 109.1489 
L 242.327491 101.226765 
L 242.65247 96.69828 
L 242.97745 128.193012 
L 243.302429 109.148905 
L 243.627409 101.226768 
L 243.952388 96.698282 
L 244.277368 128.193012 
L 244.602347 109.148906 
L 244.927327 101.226768 
L 245.252307 96.698283 
L 245.577286 128.193012 
L 245.902266 109.148906 
L 246.227245 101.226769 
L 246.552225 96.698283 
L 246.877204 128.193012 
L 247.202184 109.148906 
L 247.527163 101.226769 
L 247.852143 96.698283 
L 248.177122 128.193012 
L 248.502102 109.148906 
L 248.827081 101.226769 
L 249.152061 96.698283 
L 249.47704 128.193012 
L 249.80202 109.148906 
L 250.126999 101.226769 
L 250.451979 96.698283 
L 250.776958 128.193012 
L 251.101938 109.148906 
L 251.426917 101.226769 
L 251.751897 96.698283 
L 252.076877 128.193012 
L 252.401856 109.148906 
L 252.726836 101.226769 
L 253.051815 96.698283 
L 253.376795 128.193012 
L 253.701774 109.148906 
L 254.026754 101.226769 
L 254.351733 96.698283 
L 254.676713 128.193012 
L 255.001692 109.148906 
L 255.326672 101.226769 
L 255.651651 96.698283 
L 255.976631 128.193012 
L 256.30161 109.148906 
L 256.62659 101.226769 
L 256.951569 96.698283 
L 257.276549 128.193012 
L 257.601528 109.148906 
L 257.926508 101.226769 
L 258.251488 96.698283 
L 258.576467 128.193012 
L 258.901447 109.148906 
L 259.226426 101.226769 
L 259.551406 96.698283 
L 259.876385 128.193012 
L 260.201365 109.148906 
L 260.526344 101.226769 
L 260.851324 96.698283 
L 261.176303 128.193012 
L 261.501283 109.148906 
L 261.826262 101.226769 
L 262.151242 96.698283 
L 262.476221 128.193012 
L 262.801201 109.148906 
L 263.12618 101.226769 
L 263.45116 96.698283 
L 263.776139 128.193012 
L 264.101119 109.148906 
L 264.426098 101.226769 
L 264.751078 96.698283 
L 265.076058 128.193012 
L 265.401037 109.148906 
L 265.726017 101.226769 
L 266.050996 96.698283 
L 266.375976 128.193012 
L 266.700955 109.148906 
L 267.025935 101.226769 
L 267.350914 96.698283 
L 267.675894 128.193012 
L 268.000873 109.148906 
L 268.325853 101.226769 
L 268.650832 96.698283 
L 268.975812 128.193012 
L 269.300791 109.148906 
L 269.625771 101.226769 
L 269.95075 96.698283 
L 270.27573 128.193012 
L 270.600709 109.148906 
L 270.925689 101.226769 
L 271.250669 96.698283 
L 271.575648 128.193012 
L 271.900628 109.148906 
L 272.225607 101.226769 
L 272.550587 96.698283 
L 272.875566 128.193012 
L 273.200546 109.148906 
L 273.525525 101.226769 
L 273.850505 96.698283 
L 274.175484 128.193012 
L 274.500464 109.148906 
L 274.825443 101.226769 
L 275.150423 96.698283 
L 275.475402 128.193012 
L 275.800382 109.148906 
L 276.125361 101.226769 
L 276.450341 130.279069 
L 276.77532 141.536345 
L 277.1003 147.355487 
L 277.425279 150.400045 
L 277.750259 151.96969 
L 278.075239 152.778487 
L 278.400218 153.19783 
L 279.050177 153.533251 
L 280.025116 153.64218 
L 284.574829 153.66134 
L 319.672618 153.661155 
L 319.997597 125.483304 
L 320.322577 110.747125 
L 320.647556 102.343588 
L 320.972536 130.812008 
L 321.297515 110.930978 
L 321.622495 102.312564 
L 321.947474 97.362908 
L 322.272454 128.507275 
L 322.597433 109.367958 
L 322.922413 101.363154 
L 323.247393 96.783609 
L 323.572372 128.233318 
L 323.897352 109.177685 
L 324.222331 101.244944 
L 324.547311 96.709796 
L 324.87229 128.198612 
L 325.19727 109.152896 
L 325.522249 101.229311 
L 325.847229 96.699906 
L 326.172208 128.193807 
L 326.497188 109.149477 
L 326.822167 101.227135 
L 327.147147 96.698518 
L 327.472126 128.193128 
L 327.797106 109.14899 
L 328.122085 101.226822 
L 328.447065 96.698317 
L 328.772044 128.19303 
L 329.097024 109.148919 
L 329.422003 101.226777 
L 329.746983 96.698288 
L 330.071963 128.193015 
L 330.396942 109.148908 
L 330.721922 101.22677 
L 331.046901 96.698283 
L 331.371881 128.193013 
L 331.69686 109.148906 
L 332.02184 101.226769 
L 332.346819 96.698283 
L 332.671799 128.193013 
L 332.996778 109.148906 
L 333.321758 101.226769 
L 333.646737 96.698283 
L 333.971717 128.193012 
L 334.296696 109.148906 
L 334.621676 101.226769 
L 334.946655 96.698283 
L 335.271635 128.193012 
L 335.596614 109.148906 
L 335.921594 101.226769 
L 336.246574 96.698283 
L 336.571553 128.193012 
L 336.896533 109.148906 
L 337.221512 101.226769 
L 337.546492 96.698283 
L 337.871471 128.193012 
L 338.196451 109.148906 
L 338.52143 101.226769 
L 338.84641 96.698283 
L 339.171389 128.193012 
L 339.496369 109.148906 
L 339.821348 101.226769 
L 340.146328 96.698283 
L 340.471307 128.193012 
L 340.796287 109.148906 
L 341.121266 101.226769 
L 341.446246 96.698283 
L 341.771225 128.193012 
L 342.096205 109.148906 
L 342.421184 101.226769 
L 342.746164 96.698283 
L 343.071144 128.193012 
L 343.396123 109.148906 
L 343.721103 101.226769 
L 344.046082 96.698283 
L 344.371062 128.193012 
L 344.696041 109.148906 
L 345.021021 101.226769 
L 345.346 96.698283 
L 345.67098 128.193012 
L 345.995959 109.148906 
L 346.320939 101.226769 
L 346.645918 96.698283 
L 346.970898 128.193012 
L 347.295877 109.148906 
L 347.620857 101.226769 
L 347.945836 96.698283 
L 348.270816 128.193012 
L 348.595795 109.148906 
L 348.920775 101.226769 
L 349.245755 96.698283 
L 349.570734 128.193012 
L 349.895714 109.148906 
L 350.220693 101.226769 
L 350.545673 96.698283 
L 350.870652 128.193012 
L 351.195632 109.148906 
L 351.520611 101.226769 
L 351.845591 96.698283 
L 352.17057 128.193012 
L 352.49555 109.148906 
L 352.820529 101.226769 
L 353.145509 96.698283 
L 353.470488 128.193012 
L 353.795468 109.148906 
L 354.120447 101.226769 
L 354.445427 96.698283 
L 354.770406 128.193012 
L 355.095386 109.148906 
L 355.420365 101.226769 
L 355.745345 96.698283 
L 356.070325 128.193012 
L 356.395304 109.148906 
L 356.720284 101.226769 
L 357.045263 96.698283 
L 357.370243 128.193012 
L 357.695222 109.148906 
L 358.020202 101.226769 
L 358.345181 96.698283 
L 358.670161 128.193012 
L 358.99514 109.148906 
L 359.32012 101.226769 
L 359.645099 96.698283 
L 359.970079 128.193012 
L 360.295058 109.148906 
L 360.620038 101.226769 
L 360.945017 96.698283 
L 361.269997 128.193012 
L 361.594976 109.148906 
L 361.919956 101.226769 
L 362.244936 96.698283 
L 362.569915 128.193012 
L 362.894895 109.148906 
L 363.219874 133.910861 
L 363.544854 143.423326 
L 363.869833 148.338561 
L 364.194813 150.910023 
L 364.519792 152.23933 
L 364.844772 152.915654 
L 365.169751 153.269945 
L 365.81971 153.553225 
L 367.119628 153.65262 
L 376.544035 153.661335 
L 384.668523 153.661335 
L 384.668523 153.661335 
" clip-path="url(#p1e89575894)" style="fill: none; stroke-dasharray: 0.74,0.32; stroke-dashoffset: 0; stroke: #9acd32; stroke-width: 0.2"/>
   </g>
   <g id="patch_3">
    <path d="M 43.78125 173.52 
L 43.78125 7.2 
" style="fill: none; stroke: #000000; stroke-width: 0.8; stroke-linejoin: miter; stroke-linecap: square"/>
   </g>
   <g id="patch_4">
    <path d="M 400.90125 173.52 
L 400.90125 7.2 
" style="fill: none; stroke: #000000; stroke-width: 0.8; stroke-linejoin: miter; stroke-linecap: square"/>
   </g>
   <g id="patch_5">
    <path d="M 43.78125 173.52 
L 400.90125 173.52 
" style="fill: none; stroke: #000000; stroke-width: 0.8; stroke-linejoin: miter; stroke-linecap: square"/>
   </g>
   <g id="patch_6">
    <path d="M 43.78125 7.2 
L 400.90125 7.2 
" style="fill: none; stroke: #000000; stroke-width: 0.8; stroke-linejoin: miter; stroke-linecap: square"/>
   </g>
   <g id="legend_1">
    <g id="patch_7">
     <path d="M 50.78125 44.834375 
L 225.673438 44.834375 
Q 227.673438 44.834375 227.673438 42.834375 
L 227.673438 14.2 
Q 227.673438 12.2 225.673438 12.2 
L 50.78125 12.2 
Q 48.78125 12.2 48.78125 14.2 
L 48.78125 42.834375 
Q 48.78125 44.834375 50.78125 44.834375 
z
" style="fill: #ffffff; opacity: 0.8; stroke: #cccccc; stroke-linejoin: miter"/>
    </g>
    <g id="line2d_15">
     <path d="M 52.78125 20.298438 
L 62.78125 20.298438 
L 72.78125 20.298438 
" style="fill: none; stroke: #87ceeb; stroke-linecap: square"/>
    </g>
    <g id="text_15">
     <text style="font: 10px 'DejaVu Sans', 'Bitstream Vera Sans', 'Computer Modern Sans Serif', 'Lucida Grande', 'Verdana', 'Geneva', 'Lucid', 'Arial', 'Helvetica', 'Avant Garde', sans-serif; text-anchor: start" x="80.78125" y="23.798438" transform="rotate(-0 80.78125 23.798438)">Target data</text>
    </g>
    <g id="line2d_16">
     <path d="M 52.78125 34.976563 
L 62.78125 34.976563 
L 72.78125 34.976563 
" style="fill: none; stroke-dasharray: 0.74,0.32; stroke-dashoffset: 0; stroke: #9acd32; stroke-width: 0.2"/>
    </g>
    <g id="text_16">
     <text style="font: 10px 'DejaVu Sans', 'Bitstream Vera Sans', 'Computer Modern Sans Serif', 'Lucida Grande', 'Verdana', 'Geneva', 'Lucid', 'Arial', 'Helvetica', 'Avant Garde', sans-serif; text-anchor: start" x="80.78125" y="38.476563" transform="rotate(-0 80.78125 38.476563)">Analog prediction ($n_s=1$)</text>
    </g>
   </g>
  </g>
 </g>
 <defs>
  <clipPath id="p1e89575894">
   <rect x="43.78125" y="7.2" width="357.12" height="166.32"/>
  </clipPath>
 </defs>
</svg>
