<?xml version="1.0" encoding="UTF-8" standalone="no"?>
<svg
   height="200"
   version="1.1"
   viewBox="0 0 200 200"
   width="200"
   id="svg708"
   sodipodi:docname="crossbar.svg"
   inkscape:version="1.2.2 (b0a8486541, 2022-12-01)"
   xml:space="preserve"
   xmlns:inkscape="http://www.inkscape.org/namespaces/inkscape"
   xmlns:sodipodi="http://sodipodi.sourceforge.net/DTD/sodipodi-0.dtd"
   xmlns="http://www.w3.org/2000/svg"
   xmlns:svg="http://www.w3.org/2000/svg"><sodipodi:namedview
   id="namedview1046"
   pagecolor="#ffffff"
   bordercolor="#000000"
   borderopacity="0.25"
   inkscape:showpageshadow="2"
   inkscape:pageopacity="0.0"
   inkscape:pagecheckerboard="0"
   inkscape:deskcolor="#d1d1d1"
   showgrid="false"
   inkscape:zoom="16"
   inkscape:cx="38.71875"
   inkscape:cy="70.96875"
   inkscape:window-width="1912"
   inkscape:window-height="1012"
   inkscape:window-x="4"
   inkscape:window-y="32"
   inkscape:window-maximized="0"
   inkscape:current-layer="svg708"
   showguides="true"><sodipodi:guide
     position="6.6429419,246.97509"
     orientation="0,-1"
     id="guide1611"
     inkscape:locked="false" /></sodipodi:namedview><defs
   id="defs585" /><style
   id="style6" /><g
   id="voltLines"
   color="#d579a0"><line
   x1="20"
   y1="20.15"
   x2="89"
   y2="20.15"
   stroke="currentColor"
   stroke-width="1"
   id="V1"
   style="stroke-width:0.3;stroke-dasharray:none" /><line
   x1="20"
   y1="40.150002"
   x2="89"
   y2="40.150002"
   stroke="currentColor"
   stroke-width="1"
   id="V2"
   style="stroke-width:0.3;stroke-dasharray:none" /><line
   x1="20"
   y1="60.149986"
   x2="89"
   y2="60.149986"
   stroke="currentColor"
   stroke-width="1"
   id="V3"
   style="stroke-width:0.3;stroke-dasharray:none" />
<text
   stroke="none"
   fill="#000000"
   font-size="4px"
   x="15"
   y="21.5"
   id="textV1">$V_1$</text><text
   stroke="none"
   fill="#000000"
   font-size="4px"
   x="15"
   y="41.5"
   id="textV2">$V_2$</text><text
   stroke="none"
   fill="#000000"
   font-size="4px"
   x="15"
   y="61.5"
   id="textV3">$V_3$</text></g><g
   id="currentLines"
   color="#2db6e2"><line
   x1="76.150002"
   y1="27.5"
   x2="76.150002"
   y2="76"
   stroke="currentColor"
   stroke-width="1"
   id="I3"
   style="stroke-width:0.3;stroke-dasharray:none" /><line
   x1="96.150002"
   y1="27.5"
   x2="96.150002"
   y2="76"
   stroke="currentColor"
   stroke-width="1"
   id="I4"
   style="stroke-width:0.3;stroke-dasharray:none" /><line
   x1="56.150002"
   y1="27.5"
   x2="56.150002"
   y2="76"
   stroke="currentColor"
   stroke-width="1"
   id="I2"
   style="stroke-width:0.3;stroke-dasharray:none" /><line
   x1="36.150002"
   y1="27.5"
   x2="36.150002"
   y2="76"
   stroke="currentColor"
   stroke-width="1"
   id="I1"
   style="stroke-width:0.3;stroke-dasharray:none" />
</g>
<g
   id="memristors"
   color="#009970"><g
     id="memristor2_4"
     transform="matrix(0.12001766,-0.12001766,0.12001766,0.12001766,87.639285,40.859567)"><path
       style="fill:none;fill-rule:evenodd;stroke:currentColor;stroke-width:1px;stroke-linecap:butt;stroke-linejoin:miter;stroke-opacity:1"
       d="m 8.216536,14.503938 v 6.455757 h 3.543307 v 6.455757 H 4.673229 v 6.455757 h 7.086614 v 6.455757 H 8.216536 v 6.455757"
       id="center-67-2-0"
       sodipodi:nodetypes="cccccccccc" /><rect
       stroke="currentColor"
       stroke-width="1"
       fill="currentColor"
       id="inter-5-6-6"
       width="15"
       height="3.5"
       x="0.5"
       y="46.393692" /><rect
       stroke="currentColor"
       stroke-width="1"
       fill="none"
       id="outer-3-1-3"
       width="15"
       height="35"
       x="0.5"
       y="15.267358" /><line
       x1="8.1652889"
       x2="8.1652889"
       y1="0.37795275"
       y2="14.551182"
       stroke="currentColor"
       stroke-width="1"
       id="pos-5-8-2" /><line
       x1="8.3252239"
       x2="8.3252239"
       y1="50.648338"
       y2="64.821564"
       stroke="currentColor"
       stroke-width="1"
       id="neg-6-7-0" /><circle
       id="posPin-29"
       class="pin"
       cx="8"
       cy="2"
       r="2" /><circle
       class="pin"
       id="negPin-1"
       cx="8"
       cy="63"
       r="2" /></g><g
     id="memristor2_3"
     transform="matrix(0.12001766,-0.12001766,0.12001766,0.12001766,67.639285,40.859567)"><path
       style="fill:none;fill-rule:evenodd;stroke:currentColor;stroke-width:1px;stroke-linecap:butt;stroke-linejoin:miter;stroke-opacity:1"
       d="m 8.216536,14.503938 v 6.455757 h 3.543307 v 6.455757 H 4.673229 v 6.455757 h 7.086614 v 6.455757 H 8.216536 v 6.455757"
       id="center-67-2-0-1"
       sodipodi:nodetypes="cccccccccc" /><rect
       stroke="currentColor"
       stroke-width="1"
       fill="currentColor"
       id="inter-5-6-6-2"
       width="15"
       height="3.5"
       x="0.5"
       y="46.393692" /><rect
       stroke="currentColor"
       stroke-width="1"
       fill="none"
       id="outer-3-1-3-7"
       width="15"
       height="35"
       x="0.5"
       y="15.267358" /><line
       x1="8.1652889"
       x2="8.1652889"
       y1="0.37795275"
       y2="14.551182"
       stroke="currentColor"
       stroke-width="1"
       id="pos-5-8-2-0" /><line
       x1="8.3252239"
       x2="8.3252239"
       y1="50.648338"
       y2="64.821564"
       stroke="currentColor"
       stroke-width="1"
       id="neg-6-7-0-9" /><circle
       id="posPin-29-3"
       class="pin"
       cx="8"
       cy="2"
       r="2" /><circle
       class="pin"
       id="negPin-1-6"
       cx="8"
       cy="63"
       r="2" /></g><g
     id="memristor2_2"
     transform="matrix(0.12001766,-0.12001766,0.12001766,0.12001766,47.639285,40.859567)"><path
       style="fill:none;fill-rule:evenodd;stroke:currentColor;stroke-width:1px;stroke-linecap:butt;stroke-linejoin:miter;stroke-opacity:1"
       d="m 8.216536,14.503938 v 6.455757 h 3.543307 v 6.455757 H 4.673229 v 6.455757 h 7.086614 v 6.455757 H 8.216536 v 6.455757"
       id="center-67-2-0-6"
       sodipodi:nodetypes="cccccccccc" /><rect
       stroke="currentColor"
       stroke-width="1"
       fill="currentColor"
       id="inter-5-6-6-26"
       width="15"
       height="3.5"
       x="0.5"
       y="46.393692" /><rect
       stroke="currentColor"
       stroke-width="1"
       fill="none"
       id="outer-3-1-3-1"
       width="15"
       height="35"
       x="0.5"
       y="15.267358" /><line
       x1="8.1652889"
       x2="8.1652889"
       y1="0.37795275"
       y2="14.551182"
       stroke="currentColor"
       stroke-width="1"
       id="pos-5-8-2-8" /><line
       x1="8.3252239"
       x2="8.3252239"
       y1="50.648338"
       y2="64.821564"
       stroke="currentColor"
       stroke-width="1"
       id="neg-6-7-0-7" /><circle
       id="posPin-29-9"
       class="pin"
       cx="8"
       cy="2"
       r="2" /><circle
       class="pin"
       id="negPin-1-2"
       cx="8"
       cy="63"
       r="2" /></g><g
     id="memristor2_1"
     transform="matrix(0.12001766,-0.12001766,0.12001766,0.12001766,27.639285,40.859567)"><path
       style="fill:none;fill-rule:evenodd;stroke:currentColor;stroke-width:1px;stroke-linecap:butt;stroke-linejoin:miter;stroke-opacity:1"
       d="m 8.216536,14.503938 v 6.455757 h 3.543307 v 6.455757 H 4.673229 v 6.455757 h 7.086614 v 6.455757 H 8.216536 v 6.455757"
       id="center-67-2-0-1-2"
       sodipodi:nodetypes="cccccccccc" /><rect
       stroke="currentColor"
       stroke-width="1"
       fill="currentColor"
       id="inter-5-6-6-2-3"
       width="15"
       height="3.5"
       x="0.5"
       y="46.393692" /><rect
       stroke="currentColor"
       stroke-width="1"
       fill="none"
       id="outer-3-1-3-7-7"
       width="15"
       height="35"
       x="0.5"
       y="15.267358" /><line
       x1="8.1652889"
       x2="8.1652889"
       y1="0.37795275"
       y2="14.551182"
       stroke="currentColor"
       stroke-width="1"
       id="pos-5-8-2-0-5" /><line
       x1="8.3252239"
       x2="8.3252239"
       y1="50.648338"
       y2="64.821564"
       stroke="currentColor"
       stroke-width="1"
       id="neg-6-7-0-9-9" /><circle
       id="posPin-29-3-2"
       class="pin"
       cx="8"
       cy="2"
       r="2" /><circle
       class="pin"
       id="negPin-1-6-2"
       cx="8"
       cy="63"
       r="2" /></g><g
     id="memristor1_4"
     transform="matrix(0.12001766,-0.12001766,0.12001766,0.12001766,87.639285,20.859567)"><path
       style="fill:none;fill-rule:evenodd;stroke:currentColor;stroke-width:1px;stroke-linecap:butt;stroke-linejoin:miter;stroke-opacity:1"
       d="m 8.216536,14.503938 v 6.455757 h 3.543307 v 6.455757 H 4.673229 v 6.455757 h 7.086614 v 6.455757 H 8.216536 v 6.455757"
       id="center-67-2-0-9"
       sodipodi:nodetypes="cccccccccc" /><rect
       stroke="currentColor"
       stroke-width="1"
       fill="currentColor"
       id="inter-5-6-6-7"
       width="15"
       height="3.5"
       x="0.5"
       y="46.393692" /><rect
       stroke="currentColor"
       stroke-width="1"
       fill="none"
       id="outer-3-1-3-3"
       width="15"
       height="35"
       x="0.5"
       y="15.267358" /><line
       x1="8.1652889"
       x2="8.1652889"
       y1="0.37795275"
       y2="14.551182"
       stroke="currentColor"
       stroke-width="1"
       id="pos-5-8-2-6" /><line
       x1="8.3252239"
       x2="8.3252239"
       y1="50.648338"
       y2="64.821564"
       stroke="currentColor"
       stroke-width="1"
       id="neg-6-7-0-1" /><circle
       id="posPin-29-2"
       class="pin"
       cx="8"
       cy="2"
       r="2" /><circle
       class="pin"
       id="negPin-1-9"
       cx="8"
       cy="63"
       r="2" /></g><g
     id="memristor1_3"
     transform="matrix(0.12001766,-0.12001766,0.12001766,0.12001766,67.639285,20.859567)"><path
       style="fill:none;fill-rule:evenodd;stroke:currentColor;stroke-width:1px;stroke-linecap:butt;stroke-linejoin:miter;stroke-opacity:1"
       d="m 8.216536,14.503938 v 6.455757 h 3.543307 v 6.455757 H 4.673229 v 6.455757 h 7.086614 v 6.455757 H 8.216536 v 6.455757"
       id="center-67-2-0-1-1"
       sodipodi:nodetypes="cccccccccc" /><rect
       stroke="currentColor"
       stroke-width="1"
       fill="currentColor"
       id="inter-5-6-6-2-9"
       width="15"
       height="3.5"
       x="0.5"
       y="46.393692" /><rect
       stroke="currentColor"
       stroke-width="1"
       fill="none"
       id="outer-3-1-3-7-4"
       width="15"
       height="35"
       x="0.5"
       y="15.267358" /><line
       x1="8.1652889"
       x2="8.1652889"
       y1="0.37795275"
       y2="14.551182"
       stroke="currentColor"
       stroke-width="1"
       id="pos-5-8-2-0-7" /><line
       x1="8.3252239"
       x2="8.3252239"
       y1="50.648338"
       y2="64.821564"
       stroke="currentColor"
       stroke-width="1"
       id="neg-6-7-0-9-8" /><circle
       id="posPin-29-3-4"
       class="pin"
       cx="8"
       cy="2"
       r="2" /><circle
       class="pin"
       id="negPin-1-6-5"
       cx="8"
       cy="63"
       r="2" /></g><g
     id="memristor1_2"
     transform="matrix(0.12001766,-0.12001766,0.12001766,0.12001766,47.639285,20.859567)"><path
       style="fill:none;fill-rule:evenodd;stroke:currentColor;stroke-width:1px;stroke-linecap:butt;stroke-linejoin:miter;stroke-opacity:1"
       d="m 8.216536,14.503938 v 6.455757 h 3.543307 v 6.455757 H 4.673229 v 6.455757 h 7.086614 v 6.455757 H 8.216536 v 6.455757"
       id="center-67-2-0-6-3"
       sodipodi:nodetypes="cccccccccc" /><rect
       stroke="currentColor"
       stroke-width="1"
       fill="currentColor"
       id="inter-5-6-6-26-6"
       width="15"
       height="3.5"
       x="0.5"
       y="46.393692" /><rect
       stroke="currentColor"
       stroke-width="1"
       fill="none"
       id="outer-3-1-3-1-1"
       width="15"
       height="35"
       x="0.5"
       y="15.267358" /><line
       x1="8.1652889"
       x2="8.1652889"
       y1="0.37795275"
       y2="14.551182"
       stroke="currentColor"
       stroke-width="1"
       id="pos-5-8-2-8-0" /><line
       x1="8.3252239"
       x2="8.3252239"
       y1="50.648338"
       y2="64.821564"
       stroke="currentColor"
       stroke-width="1"
       id="neg-6-7-0-7-6" /><circle
       id="posPin-29-9-3"
       class="pin"
       cx="8"
       cy="2"
       r="2" /><circle
       class="pin"
       id="negPin-1-2-2"
       cx="8"
       cy="63"
       r="2" /></g><g
     id="memristor1_1"
     transform="matrix(0.12001766,-0.12001766,0.12001766,0.12001766,27.639285,20.859567)"><path
       style="fill:none;fill-rule:evenodd;stroke:currentColor;stroke-width:1px;stroke-linecap:butt;stroke-linejoin:miter;stroke-opacity:1"
       d="m 8.216536,14.503938 v 6.455757 h 3.543307 v 6.455757 H 4.673229 v 6.455757 h 7.086614 v 6.455757 H 8.216536 v 6.455757"
       id="center-67-2-0-1-2-6"
       sodipodi:nodetypes="cccccccccc" /><rect
       stroke="currentColor"
       stroke-width="1"
       fill="currentColor"
       id="inter-5-6-6-2-3-1"
       width="15"
       height="3.5"
       x="0.5"
       y="46.393692" /><rect
       stroke="currentColor"
       stroke-width="1"
       fill="none"
       id="outer-3-1-3-7-7-5"
       width="15"
       height="35"
       x="0.5"
       y="15.267358" /><line
       x1="8.1652889"
       x2="8.1652889"
       y1="0.37795275"
       y2="14.551182"
       stroke="currentColor"
       stroke-width="1"
       id="pos-5-8-2-0-5-5" /><line
       x1="8.3252239"
       x2="8.3252239"
       y1="50.648338"
       y2="64.821564"
       stroke="currentColor"
       stroke-width="1"
       id="neg-6-7-0-9-9-4" /><circle
       id="posPin-29-3-2-7"
       class="pin"
       cx="8"
       cy="2"
       r="2" /><circle
       class="pin"
       id="negPin-1-6-2-6"
       cx="8"
       cy="63"
       r="2" /></g><g
     id="memristor3_4"
     transform="matrix(0.12001766,-0.12001766,0.12001766,0.12001766,87.639285,60.859567)"><path
       style="fill:none;fill-rule:evenodd;stroke:currentColor;stroke-width:1px;stroke-linecap:butt;stroke-linejoin:miter;stroke-opacity:1"
       d="m 8.216536,14.503938 v 6.455757 h 3.543307 v 6.455757 H 4.673229 v 6.455757 h 7.086614 v 6.455757 H 8.216536 v 6.455757"
       id="center-67-2-0-9-6"
       sodipodi:nodetypes="cccccccccc" /><rect
       stroke="currentColor"
       stroke-width="1"
       fill="currentColor"
       id="inter-5-6-6-7-9"
       width="15"
       height="3.5"
       x="0.5"
       y="46.393692" /><rect
       stroke="currentColor"
       stroke-width="1"
       fill="none"
       id="outer-3-1-3-3-3"
       width="15"
       height="35"
       x="0.5"
       y="15.267358" /><line
       x1="8.1652889"
       x2="8.1652889"
       y1="0.37795275"
       y2="14.551182"
       stroke="currentColor"
       stroke-width="1"
       id="pos-5-8-2-6-7" /><line
       x1="8.3252239"
       x2="8.3252239"
       y1="50.648338"
       y2="64.821564"
       stroke="currentColor"
       stroke-width="1"
       id="neg-6-7-0-1-4" /><circle
       id="posPin-29-2-5"
       class="pin"
       cx="8"
       cy="2"
       r="2" /><circle
       class="pin"
       id="negPin-1-9-2"
       cx="8"
       cy="63"
       r="2" /></g><g
     id="memristor3_3"
     transform="matrix(0.12001766,-0.12001766,0.12001766,0.12001766,67.639285,60.859567)"><path
       style="fill:none;fill-rule:evenodd;stroke:currentColor;stroke-width:1px;stroke-linecap:butt;stroke-linejoin:miter;stroke-opacity:1"
       d="m 8.216536,14.503938 v 6.455757 h 3.543307 v 6.455757 H 4.673229 v 6.455757 h 7.086614 v 6.455757 H 8.216536 v 6.455757"
       id="center-67-2-0-1-1-4"
       sodipodi:nodetypes="cccccccccc" /><rect
       stroke="currentColor"
       stroke-width="1"
       fill="currentColor"
       id="inter-5-6-6-2-9-7"
       width="15"
       height="3.5"
       x="0.5"
       y="46.393692" /><rect
       stroke="currentColor"
       stroke-width="1"
       fill="none"
       id="outer-3-1-3-7-4-4"
       width="15"
       height="35"
       x="0.5"
       y="15.267358" /><line
       x1="8.1652889"
       x2="8.1652889"
       y1="0.37795275"
       y2="14.551182"
       stroke="currentColor"
       stroke-width="1"
       id="pos-5-8-2-0-7-4" /><line
       x1="8.3252239"
       x2="8.3252239"
       y1="50.648338"
       y2="64.821564"
       stroke="currentColor"
       stroke-width="1"
       id="neg-6-7-0-9-8-3" /><circle
       id="posPin-29-3-4-0"
       class="pin"
       cx="8"
       cy="2"
       r="2" /><circle
       class="pin"
       id="negPin-1-6-5-7"
       cx="8"
       cy="63"
       r="2" /></g><g
     id="memristor3_2"
     transform="matrix(0.12001766,-0.12001766,0.12001766,0.12001766,47.639285,60.859567)"><path
       style="fill:none;fill-rule:evenodd;stroke:currentColor;stroke-width:1px;stroke-linecap:butt;stroke-linejoin:miter;stroke-opacity:1"
       d="m 8.216536,14.503938 v 6.455757 h 3.543307 v 6.455757 H 4.673229 v 6.455757 h 7.086614 v 6.455757 H 8.216536 v 6.455757"
       id="center-67-2-0-6-3-6"
       sodipodi:nodetypes="cccccccccc" /><rect
       stroke="currentColor"
       stroke-width="1"
       fill="currentColor"
       id="inter-5-6-6-26-6-8"
       width="15"
       height="3.5"
       x="0.5"
       y="46.393692" /><rect
       stroke="currentColor"
       stroke-width="1"
       fill="none"
       id="outer-3-1-3-1-1-8"
       width="15"
       height="35"
       x="0.5"
       y="15.267358" /><line
       x1="8.1652889"
       x2="8.1652889"
       y1="0.37795275"
       y2="14.551182"
       stroke="currentColor"
       stroke-width="1"
       id="pos-5-8-2-8-0-4" /><line
       x1="8.3252239"
       x2="8.3252239"
       y1="50.648338"
       y2="64.821564"
       stroke="currentColor"
       stroke-width="1"
       id="neg-6-7-0-7-6-3" /><circle
       id="posPin-29-9-3-1"
       class="pin"
       cx="8"
       cy="2"
       r="2" /><circle
       class="pin"
       id="negPin-1-2-2-4"
       cx="8"
       cy="63"
       r="2" /></g><g
     id="memristor3_1"
     transform="matrix(0.12001766,-0.12001766,0.12001766,0.12001766,27.639285,60.859567)"><path
       style="fill:none;fill-rule:evenodd;stroke:currentColor;stroke-width:1px;stroke-linecap:butt;stroke-linejoin:miter;stroke-opacity:1"
       d="m 8.216536,14.503938 v 6.455757 h 3.543307 v 6.455757 H 4.673229 v 6.455757 h 7.086614 v 6.455757 H 8.216536 v 6.455757"
       id="center-67-2-0-1-2-6-2"
       sodipodi:nodetypes="cccccccccc" /><rect
       stroke="currentColor"
       stroke-width="1"
       fill="currentColor"
       id="inter-5-6-6-2-3-1-0"
       width="15"
       height="3.5"
       x="0.5"
       y="46.393692" /><rect
       stroke="currentColor"
       stroke-width="1"
       fill="none"
       id="outer-3-1-3-7-7-5-6"
       width="15"
       height="35"
       x="0.5"
       y="15.267358" /><line
       x1="8.1652889"
       x2="8.1652889"
       y1="0.37795275"
       y2="14.551182"
       stroke="currentColor"
       stroke-width="1"
       id="pos-5-8-2-0-5-5-8" /><line
       x1="8.3252239"
       x2="8.3252239"
       y1="50.648338"
       y2="64.821564"
       stroke="currentColor"
       stroke-width="1"
       id="neg-6-7-0-9-9-4-9" /><circle
       id="posPin-29-3-2-7-2"
       class="pin"
       cx="8"
       cy="2"
       r="2" /><circle
       class="pin"
       id="negPin-1-6-2-6-6"
       cx="8"
       cy="63"
       r="2" /></g></g>



<text
   stroke="none"
   fill="#000000"
   font-size="4px"
   x="34"
   y="80"
   id="textI1">$I_1$</text>
<text
   stroke="none"
   fill="#000000"
   font-size="4px"
   x="54"
   y="80"
   id="textI2">$I_2$</text>
<text
   stroke="none"
   fill="#000000"
   font-size="4px"
   x="74"
   y="80"
   id="textI3">$I_3$</text>
<text
   stroke="none"
   fill="#000000"
   font-size="4px"
   x="94"
   y="80"
   id="textI4">$I_4$</text>
</svg>
