<?xml version="1.0" encoding="UTF-8" standalone="no"?>
<!-- Created with Inkscape (http://www.inkscape.org/) -->

<svg
   width="454"
   height="454.00034"
   viewBox="0 0 454 454.00034"
   version="1.1"
   id="svg21808"
   inkscape:version="1.3 (0e150ed6c4, 2023-07-21)"
   sodipodi:docname="ml.svg"
   xmlns:inkscape="http://www.inkscape.org/namespaces/inkscape"
   xmlns:sodipodi="http://sodipodi.sourceforge.net/DTD/sodipodi-0.dtd"
   xmlns="http://www.w3.org/2000/svg"
   xmlns:svg="http://www.w3.org/2000/svg">
  <style
     id="style1451">&#10;.pin {&#10;fill:#000000;&#10;stroke:none;&#10;}&#10;</style>
  <sodipodi:namedview
     id="namedview21810"
     pagecolor="#ffffff"
     bordercolor="#000000"
     borderopacity="0.25"
     inkscape:showpageshadow="2"
     inkscape:pageopacity="0.0"
     inkscape:pagecheckerboard="0"
     inkscape:deskcolor="#d1d1d1"
     inkscape:document-units="px"
     showgrid="false"
     inkscape:zoom="1.7709238"
     inkscape:cx="399.22666"
     inkscape:cy="229.82355"
     inkscape:window-width="954"
     inkscape:window-height="1002"
     inkscape:window-x="4"
     inkscape:window-y="37"
     inkscape:window-maximized="0"
     inkscape:current-layer="svg21808" />
  <defs
     id="defs21805" />
  <g
     class="slice"
     id="g2"
     style="stroke-linejoin:round">
    <circle
       fill="#ffffff"
       stroke="none"
       id="circle11-5"
       cx="227"
       cy="227"
       r="75.5" />
    <text
       class="slicetext"
       text-anchor="middle"
       id="text1"
       x="227"
       y="227.5"
       fill="#444444">Machine Learning</text>
  </g>
  <g
     class="slice cursor-pointer"
     id="g4"
     style="stroke-linejoin:round">
    <path
       class="surface"
       d="m 302.49998,227.00028 h 75.5 a 151,151 0 0 0 -216,-136.499999 l 32.5,67.999999 a 75.5,75.5 0 0 1 108,68.5 z"
       id="path2"
       fill="#ef553b"
       stroke="#ffffff" />
    <text
       class="slicetext"
       text-anchor="end"
       x="75"
       y="326"
       transform="rotate(-58)"
       id="text2"
       fill="#444444">Supervised</text>
  </g>
  <g
     class="slice cursor-pointer"
     id="g6"
     style="stroke-linejoin:round">
    <path
       class="surface"
       d="m 194.50015,158.49998 -32.5,-67.999997 a 151,151 0 0 0 -43,241.999997 l 54,-52.6 a 75.5,75.5 0 0 1 21.5,-121.4 z"
       id="path4"
       fill="#ffe600"
       stroke="#ffffff" />
    <text
       data-notex="1"
       class="slicetext"
       text-anchor="begin"
       style="font-size:8.97375px;font-family:'Open Sans', verdana, arial, sans-serif;white-space:pre;fill:#444444;fill-opacity:1;stroke-width:0.747813"
       x="80"
       y="220"
       id="text4">Neural\\Networks</text>
  </g>
  <g
     class="slice cursor-pointer"
     id="g8"
     style="stroke-linejoin:round">
    <path
       class="surface"
       style="fill:#00cc96;fill-opacity:1;stroke:#ffffff;stroke-width:1px;stroke-opacity:1"
       d="m 172.82778,279.58998 -54.1718,52.58961 a 151,151 0 0 0 181.24522,27.05677 l -36.45081,-66.11799 a 75.5,75.5 0 0 1 -90.62261,-13.52839 z"
       id="path6" />
    <text
       data-notex="1"
       class="slicetext"
       text-anchor="begin"
       style="font-size:10.9685px;font-family:'Open Sans', verdana, arial, sans-serif;white-space:pre;fill:#444444;fill-opacity:1;stroke-width:0.914045"
       x="-336"
       y="263"
       transform="rotate(-81)"
       id="text6">Unsupervised</text>
  </g>
  <g
     class="slice cursor-pointer"
     id="g10"
     style="stroke-linejoin:round">
    <path
       class="surface"
       style="fill:#45abff;fill-opacity:1;stroke:#ffffff;stroke-width:1px;stroke-opacity:1"
       d="m 263.45098,293.11846 36.45081,66.11799 a 151,151 0 0 0 61.4366,-63.28497 l -67.16911,-34.4755 a 75.5,75.5 0 0 1 -30.7183,31.64248 z"
       id="path8" />
    <text
       data-notex="1"
       class="slicetext"
       text-anchor="end"
       style="font-size:10.2354px;font-family:'Open Sans', verdana, arial, sans-serif;white-space:pre;fill:#444444;fill-opacity:1;stroke-width:0.852953"
       x="468"
       y="1"
       transform="rotate(45)"
       id="text8">Reinforcement</text>
  </g>
  <g
     class="slice cursor-pointer"
     id="g12"
     style="stroke-linejoin:round">
    <path
       class="surface"
       style="fill:#ff5ac3;fill-opacity:1;stroke:#ffffff;stroke-width:1px;stroke-opacity:1"
       d="m 294.16898,261.47588 67.16911,34.4755 a 151,151 0 0 0 15.60193,-51.09176 l -74.97008,-8.92963 a 75.5,75.5 0 0 1 -7.80096,25.54589 z"
       id="path10" />
    <text
       data-notex="1"
       class="slicetext"
       text-anchor="end"
       style="font-size:9.1192px;font-family:'Open Sans', verdana, arial, sans-serif;white-space:pre;fill:#444444;fill-opacity:1;stroke-width:0.759933"
       x="432"
       y="153"
       transform="rotate(17)"
       id="text10">Semi-Supervised</text>
  </g>
  <g
     class="slice cursor-pointer"
     id="g14"
     style="stroke-linejoin:round">
    <path
       class="surface"
       style="fill:#ab63fa;fill-opacity:1;stroke:#ffffff;stroke-width:1px;stroke-opacity:1"
       d="m 301.96999,235.92962 74.97008,8.92963 A 151,151 0 0 0 377.99992,227 h -75.5 a 75.5,75.5 0 0 1 -0.52993,8.92962 z"
       id="path12" />
    <text
       data-notex="1"
       class="slicetext"
       text-anchor="end"
       style="font-size:8.66149px;font-family:'Open Sans', verdana, arial, sans-serif;white-space:pre;fill:#444444;fill-opacity:1;stroke-width:0.721791"
       x="388"
       y="219"
       id="text12"
       transform="rotate(3)">Others</text>
  </g>
  <g
     class="slice cursor-pointer"
     id="g16"
     style="stroke-linejoin:round">
    <path
       class="surface"
       style="fill:#ba2020;fill-opacity:1;stroke:#ffffff;stroke-width:1px;stroke-opacity:1"
       d="m 378.00036,226.99995 h 75.5 A 226.5,226.5 0 0 0 336.35279,28.645982 L 299.90198,94.76397 a 151,151 0 0 1 78.09838,132.23598 z"
       id="path14" />
    <text
       data-notex="1"
       class="slicetext"
       text-anchor="end"
       style="font-size:11.7132px;font-family:'Open Sans', verdana, arial, sans-serif;white-space:pre;fill:#ffffff;fill-opacity:1;stroke-width:0.976099"
       x="306"
       y="310"
       transform="rotate(-30)"
       id="text14">Classification</text>
  </g>
  <g
     class="slice cursor-pointer"
     id="g18"
     style="stroke-linejoin:round">
    <path
       class="surface"
       style="fill:#fb8072;fill-opacity:1;stroke:#ffffff;stroke-width:1px;stroke-opacity:1"
       d="M 299.90173,94.764319 336.35254,28.646331 A 226.5,226.5 0 0 0 154.45899,12.430876 l 24.18037,71.52314 a 151,151 0 0 1 121.26237,10.810303 z"
       id="path16" />
    <text
       class="slicetext"
       text-anchor="end"
       style="font-size:12px;font-family:'Open Sans', verdana, arial, sans-serif;white-space:pre;fill:#444444;fill-opacity:1"
       x="15"
       y="248"
       transform="rotate(-85)"
       id="text16">Regression</text>
  </g>
  <g
     class="slice cursor-pointer"
     id="g20"
     style="stroke-linejoin:round">
    <path
       class="surface"
       style="fill:#fcc3c3;fill-opacity:1;stroke:#ffffff;stroke-width:1px;stroke-opacity:1"
       d="M 178.639,83.954127 154.45863,12.430987 A 226.5,226.5 0 0 0 129.58998,22.516698 L 162.0599,90.677934 A 151,151 0 0 1 178.639,83.954127 Z"
       id="path18" />
    <text
       data-notex="1"
       class="slicetext"
       text-anchor="begin"
       style="font-size:12px;font-family:'Open Sans', verdana, arial, sans-serif;white-space:pre;fill:#444444;fill-opacity:1"
       id="text18"
       x="70"
       y="-130"
       transform="rotate(69)">\tiny Dimensionality\\\tiny Reduction</text>
  </g>
  <g
     class="slice cursor-pointer"
     id="g22"
     style="stroke-linejoin:round">
    <path
       class="surface"
       style="fill:#ffb300;fill-opacity:1;stroke:#ffffff;stroke-width:1px;stroke-opacity:1"
       d="M 162.06051,90.677219 129.59059,22.515983 A 226.5,226.5 0 0 0 31.973982,111.81739 l 65.00879,38.3941 A 151,151 0 0 1 162.06051,90.677219 Z"
       id="path20" />
    <text
       data-notex="1"
       class="slicetext"
       text-anchor="begin"
       style="font-size:12px;font-family:'Open Sans', verdana, arial, sans-serif;white-space:pre;fill:#444444;fill-opacity:1"
       id="text20"
       x="102.07677"
       y="-11.82218"
       transform="rotate(45)">Generative\\Adversarial\\Networks</text>
  </g>
  <g
     class="slice cursor-pointer"
     id="g24"
     style="stroke-linejoin:round">
    <path
       class="surface"
       style="fill:#ffd857;fill-opacity:1;stroke:#ffffff;stroke-width:1px;stroke-opacity:1"
       d="m 96.982617,150.21208 -65.00879,-38.3941 A 226.5,226.5 0 0 0 0.89799713,213.58228 l 75.36740987,4.47267 a 151,151 0 0 1 20.71721,-67.84287 z"
       id="path22" />
    <text
       data-notex="1"
       class="slicetext"
       text-anchor="begin"
       style="font-size:10.5255px;font-family:'Open Sans', verdana, arial, sans-serif;white-space:pre;fill:#444444;fill-opacity:1;stroke-width:0.877128"
       x="59"
       y="156"
       transform="rotate(17)"
       id="text22">Auto Encoders</text>
  </g>
  <g
     class="slice cursor-pointer"
     id="g26"
     style="stroke-linejoin:round">
    <path
       class="surface"
       style="fill:#fff16b;fill-opacity:1;stroke:#ffffff;stroke-width:1px;stroke-opacity:1"
       d="M 76.26521,218.05467 0.8977999,213.582 a 226.5,226.5 0 0 0 9.4773901,79.56886 l 72.20827,-22.05029 a 151,151 0 0 1 -6.31825,-53.0459 z"
       id="path24" />
    <text
       data-notex="1"
       class="slicetext"
       text-anchor="begin"
       style="font-size:12px;font-family:'Open Sans', verdana, arial, sans-serif;white-space:pre;fill:#444444;fill-opacity:1"
       id="text24"
       x="-31"
       y="239"
       transform="rotate(-8)">Recurrent\\Neural\\Networks</text>
  </g>
  <g
     class="slice cursor-pointer"
     id="g28"
     style="stroke-linejoin:round">
    <path
       class="surface"
       style="fill:#faf693;fill-opacity:1;stroke:#ffffff;stroke-width:1px;stroke-opacity:1"
       d="m 82.583258,271.10099 -72.20827,22.05029 a 226.5,226.5 0 0 0 21.59844,49.03144 l 65.00879,-38.3941 a 151,151 0 0 1 -14.39896,-32.68763 z"
       id="path26" />
    <text
       data-notex="1"
       class="slicetext"
       text-anchor="begin"
       style="font-size:12px;font-family:'Open Sans', verdana, arial, sans-serif;white-space:pre;fill:#444444;fill-opacity:1"
       id="text26"
       x="-112"
       y="288"
       transform="rotate(-25)">Feed Forward\\Neural\\Networks</text>
  </g>
  <g
     class="slice cursor-pointer"
     id="g30"
     style="stroke-linejoin:round">
    <path
       class="surface"
       style="fill:#fcffc2;fill-opacity:1;stroke:#ffffff;stroke-width:1px;stroke-opacity:1"
       d="m 96.982772,303.78798 -65.00879,38.3941 a 226.5,226.5 0 0 0 32.51099,42.58651 l 54.171788,-52.5896 A 151,151 0 0 1 96.982772,303.78798 Z"
       id="path28" />
    <text
       data-notex="1"
       class="slicetext"
       text-anchor="begin"
       style="font-size:12px;font-family:'Open Sans', verdana, arial, sans-serif;white-space:pre;fill:#444444;fill-opacity:1"
       id="text28"
       x="-206"
       y="296"
       transform="rotate(-42)">Convolutional\\Neural\\Networks</text>
  </g>
  <g
     class="slice cursor-pointer"
     id="g32"
     style="stroke-linejoin:round">
    <path
       class="surface"
       style="fill:#a3e897;fill-opacity:1;stroke:#ffffff;stroke-width:1px;stroke-opacity:1"
       d="m 118.65677,332.17898 -54.171791,52.5896 A 226.5,226.5 0 0 0 206.8881,452.60506 l 6.70409,-75.20176 a 151,151 0 0 1 -94.93542,-45.22432 z"
       id="path30" />
    <text
       data-notex="1"
       class="slicetext"
       text-anchor="begin"
       style="font-size:12px;font-family:'Open Sans', verdana, arial, sans-serif;white-space:pre;fill:#444444;fill-opacity:1"
       id="text30"
       y="288"
       x="-334"
       transform="rotate(-65)">Dimensionality\\Reduction</text>
  </g>
  <g
     class="slice cursor-pointer"
     id="g34"
     style="stroke-linejoin:round">
    <path
       class="surface"
       style="fill:#ccebc5;fill-opacity:1;stroke:#ffffff;stroke-width:1px;stroke-opacity:1"
       d="m 213.59209,377.40338 -6.70409,75.20176 a 226.5,226.5 0 0 0 105.23722,-15.71009 l -28.37499,-69.96507 a 151,151 0 0 1 -70.15814,10.4734 z"
       id="path32" />
    <text
       data-notex="1"
       class="slicetext"
       text-anchor="end"
       style="font-size:12px;font-family:'Open Sans', verdana, arial, sans-serif;white-space:pre;fill:#444444;fill-opacity:1"
       x="481"
       y="-191"
       transform="rotate(82)"
       id="text32">Clustering</text>
  </g>
  <g
     class="slice cursor-pointer"
     id="g36"
     style="stroke-linejoin:round">
    <path
       class="surface"
       style="fill:#8dd3c7;fill-opacity:1;stroke:#ffffff;stroke-width:1px;stroke-opacity:1"
       d="m 283.74998,366.93013 28.37499,69.96507 a 226.5,226.5 0 0 0 24.22748,-11.54124 l -36.45081,-66.11798 a 151,151 0 0 1 -16.15166,7.69415 z"
       id="path34" />
    <text
       data-notex="1"
       class="slicetext"
       text-anchor="end"
       style="font-size:11.7141px;font-family:'Open Sans', verdana, arial, sans-serif;white-space:pre;fill:#444444;fill-opacity:1;stroke-width:0.976177"
       x="526"
       y="-107"
       transform="rotate(65)"
       id="text34">Association</text>
  </g>
  <g
     class="slice cursor-pointer"
     id="g38"
     style="stroke-linejoin:round">
    <path
       class="surface"
       style="fill:#80c6ff;fill-opacity:1;stroke:#ffffff;stroke-width:1px;stroke-opacity:1"
       d="m 299.90198,359.23582 36.45081,66.11798 a 226.5,226.5 0 0 0 62.22387,-50.48975 l -57.1921,-49.28807 a 151,151 0 0 1 -41.48258,33.65984 z"
       id="path36" />
    <text
       data-notex="1"
       class="slicetext"
       text-anchor="end"
       style="font-size:7.10882px;font-family:'Open Sans', verdana, arial, sans-serif;white-space:pre;fill:#444444;fill-opacity:1;stroke-width:0.592402"
       x="545"
       y="-38"
       transform="rotate(51)"
       id="text36">Value-Based\\Methods</text>
  </g>
  <g
     class="slice cursor-pointer"
     id="g40"
     style="stroke-linejoin:round">
    <path
       class="surface"
       style="fill:#b3ddff;fill-opacity:1;stroke:#ffffff;stroke-width:1px;stroke-opacity:1"
       d="m 341.38398,325.57611 57.1921,49.28807 a 226.5,226.5 0 0 0 29.93103,-44.43769 L 361.338,295.95098 a 151,151 0 0 1 -19.95402,29.62513 z"
       id="path38" />
    <text
       data-notex="1"
       class="slicetext"
       text-anchor="end"
       style="font-size:7.03144px;font-family:'Open Sans', verdana, arial, sans-serif;white-space:pre;fill:#444444;fill-opacity:1;stroke-width:0.585953"
       x="540"
       y="61"
       transform="rotate(34)"
       id="text38">Policy-Based\\Methods</text>
  </g>
  <g
     class="slice"
     id="g42"
     style="stroke-linejoin:round">
    <path
       class="surface"
       style="opacity:1;fill:#ff5ac3;fill-opacity:1;stroke:#ffffff;stroke-width:1px;stroke-opacity:1"
       d="m 361.33798,295.95055 67.16911,34.47551 a 226.5,226.5 0 0 0 10.81822,-24.55885 l -70.77518,-26.28922 a 151,151 0 0 1 -7.21215,16.37256 z"
       id="path40" />
    <text
       data-notex="1"
       class="slicetext"
       text-anchor="end"
       style="font-size:12px;font-family:'Open Sans', verdana, arial, sans-serif;white-space:pre;fill:#444444;fill-opacity:1"
       id="text40"
       x="523"
       y="117"
       transform="rotate(24)">Self Training</text>
  </g>
  <g
     class="slice"
     id="g44"
     style="stroke-linejoin:round">
    <path
       class="surface"
       style="opacity:1;fill:#FF7BCF;fill-opacity:1;stroke:#ffffff;stroke-width:1px;stroke-opacity:1"
       d="m 368.54999,279.57865 70.77518,26.28922 a 226.5,226.5 0 0 0 7.83764,-25.66598 l -73.38773,-17.7339 a 151,151 0 0 1 -5.22509,17.11066 z"
       id="path42" />
    <text
       data-notex="1"
       class="slicetext"
       text-anchor="end"
       style="font-size:9.55618px;font-family:'Open Sans', verdana, arial, sans-serif;white-space:pre;fill:#444444;fill-opacity:1;stroke-width:0.796348"
       x="508"
       y="154"
       transform="rotate(17)"
       id="text42">Label Spreading</text>
  </g>
  <g
     class="slice"
     id="g46"
     style="stroke-linejoin:round">
    <path
       class="surface"
       style="opacity:1;fill:#FF9CDB;fill-opacity:1;stroke:#ffffff;stroke-width:1px;stroke-opacity:1"
       d="m 373.77499,262.46753 73.38773,17.7339 a 226.5,226.5 0 0 0 4.74703,-26.41282 l -74.97007,-8.92962 a 151,151 0 0 1 -3.16469,17.60854 z"
       id="path44" />
    <text
       data-notex="1"
       class="slicetext"
       text-anchor="end"
       style="font-size:8.49889px;font-family:'Open Sans', verdana, arial, sans-serif;white-space:pre;fill:#444444;fill-opacity:1;stroke-width:0.708241"
       x="495"
       y="172"
       transform="rotate(12)"
       id="text44">\scriptnote Label Propagation</text>
  </g>
  <g
     class="slice cursor-pointer"
     id="g48"
     style="stroke-linejoin:round">
    <path
       class="surface"
       style="fill:#ab63fa;fill-opacity:1;stroke:#ffffff;stroke-width:1px;stroke-opacity:1"
       d="m 376.93999,244.85925 74.97007,8.92962 A 226.5,226.5 0 0 0 453.49984,227 h -75.5 a 151,151 0 0 1 -1.05985,17.85925 z"
       id="path46" />
  </g>
</svg>
