<?xml version="1.0" encoding="UTF-8" standalone="no"?>
<svg
   height="500"
   version="1.1"
   viewBox="0 0 600 500"
   width="600"
   id="svg708"
   sodipodi:docname="crossbarUse.svg"
   inkscape:version="1.3 (0e150ed6c4, 2023-07-21)"
   xml:space="preserve"
   xmlns:inkscape="http://www.inkscape.org/namespaces/inkscape"
   xmlns:sodipodi="http://sodipodi.sourceforge.net/DTD/sodipodi-0.dtd"
   xmlns:xlink="http://www.w3.org/1999/xlink"
   xmlns="http://www.w3.org/2000/svg"
   xmlns:svg="http://www.w3.org/2000/svg"><sodipodi:namedview
     id="namedview1046"
     pagecolor="#ffffff"
     bordercolor="#000000"
     borderopacity="0.25"
     inkscape:showpageshadow="2"
     inkscape:pageopacity="0.0"
     inkscape:pagecheckerboard="0"
     inkscape:deskcolor="#d1d1d1"
     showgrid="false"
     inkscape:zoom="1.6600001"
     inkscape:cx="333.73493"
     inkscape:cy="321.68673"
     inkscape:window-width="1920"
     inkscape:window-height="1010"
     inkscape:window-x="0"
     inkscape:window-y="33"
     inkscape:window-maximized="0"
     inkscape:current-layer="cmos-swicthes"
     showguides="true"><sodipodi:guide
       position="6.6429419,-673.02491"
       orientation="0,-1"
       id="guide1611"
       inkscape:locked="false" /></sodipodi:namedview><defs
     id="defs585"><symbol
       id="memristor"
       width="64"
       height="16"
       refY="50%"><title
         id="title25">memristor</title><g
         id="g27"><path
           d="m 14,8 h 6.5 v 3.5 h 6 v -7 h 6 v 7 h 6 V 8 H 45"
           id="center"
           stroke="currentColor"
           fill="none" /><rect
           stroke="currentColor"
           fill="currentColor"
           id="inter"
           width="5"
           x="45"
           y="0.5"
           height="15" /><rect
           stroke="currentColor"
           fill="none"
           id="outer"
           width="36"
           height="15"
           x="14"
           y="0.5" /><line
           x1="2"
           x2="14"
           y1="8"
           y2="8"
           stroke="currentColor"
           id="line25" /><line
           x1="50"
           x2="62"
           y1="8"
           y2="8"
           stroke="currentColor"
           id="line26" /><circle
           fill="#000000"
           id="circle26"
           class="pin"
           cx="2"
           cy="8"
           r="1" /><circle
           fill="#000000"
           class="pin"
           id="circle27"
           cx="62"
           cy="8"
           r="1" /></g></symbol><symbol
       id="nmos"><title
         id="title19">nmos</title><g
         id="g25"><line
           x1="14"
           x2="14"
           y1="9"
           y2="23"
           stroke="currentColor"
           id="line19-3" /><line
           x1="2"
           x2="11"
           y1="16"
           y2="16"
           stroke="currentColor"
           id="line20-6" /><line
           x1="11"
           x2="11"
           y1="11"
           y2="21"
           stroke="currentColor"
           id="line21-7" /><path
           d="m 14,20 h 8 v 10"
           id="path21"
           fill="none"
           stroke="currentColor" /><path
           d="m 14,12 h 8 V 2"
           id="path22"
           fill="none"
           stroke="currentColor" /><line
           x1="14"
           x2="22"
           y1="16"
           y2="16"
           stroke="currentColor"
           id="line22-5" /><circle
           class="pin"
           fill="#000000"
           id="circle22"
           cx="22"
           cy="2"
           r="1" /><circle
           id="circle23"
           class="pin"
           fill="#000000"
           cx="22"
           cy="16"
           r="1" /><circle
           id="circle24"
           class="pin"
           fill="#000000"
           cx="2"
           cy="16"
           r="1" /><circle
           class="pin"
           fill="#000000"
           cx="22"
           cy="30"
           r="1"
           id="circle25" /></g></symbol><symbol
       id="pmos"><title
         id="title18">pmos</title><g
         id="g19"><line
           x1="14"
           x2="14"
           y1="9"
           y2="23"
           stroke="currentColor"
           id="semiCond" /><line
           x1="2"
           x2="7"
           y1="16"
           y2="16"
           stroke="currentColor"
           id="gateIn" /><line
           x1="11"
           x2="11"
           y1="11"
           y2="21"
           stroke="currentColor"
           id="gate" /><path
           d="m 14,20 h 8 v 10"
           id="path18"
           fill="none"
           stroke="currentColor" /><path
           d="m 14,12 h 8 V 2"
           id="drain"
           fill="none"
           stroke="currentColor" /><line
           x1="14"
           x2="22"
           y1="16"
           y2="16"
           stroke="currentColor"
           id="bulkIn" /><circle
           id="circle21294"
           cx="9"
           cy="16"
           r="2"
           fill="none"
           stroke="currentColor" /><circle
           class="pin"
           fill="#000000"
           id="drainPin"
           cx="22"
           cy="2"
           r="1" /><circle
           id="bulkPin"
           class="pin"
           fill="#000000"
           cx="22"
           cy="16"
           r="1" /><circle
           id="gatePin"
           class="pin"
           fill="#000000"
           cx="2"
           cy="16"
           r="1" /><circle
           class="pin"
           fill="#000000"
           cx="22"
           cy="30"
           r="1"
           id="sourcePin" /></g></symbol><symbol
       id="opamp"><title
         id="title20">opAmp</title><g
         id="g23"><line
           x1="2"
           x2="12"
           y1="32"
           y2="32"
           stroke="currentColor"
           id="pos" /><line
           x1="2"
           x2="12"
           y1="16"
           y2="16"
           stroke="currentColor"
           id="line21-3" /><path
           d="M 12,2 V 46 L 52,24 Z"
           id="path21-6"
           fill="none"
           stroke="currentColor" /><line
           x1="52"
           x2="62"
           y1="24"
           y2="24"
           stroke="currentColor"
           id="line22-7" /><g
           id="plus"><line
             x1="14"
             x2="18"
             y1="32"
             y2="32"
             stroke="#000000"
             id="line105596" /><line
             x1="16"
             x2="16"
             y1="30"
             y2="34"
             stroke="#000000"
             id="line105598" /></g><line
           x1="14"
           x2="18"
           y1="16"
           y2="16"
           stroke="#000000"
           id="minus" /><circle
           id="plusPin"
           class="pin"
           cx="2"
           cy="32"
           r="1" /><circle
           id="circle22-5"
           class="pin"
           cx="2"
           cy="16"
           r="1" /><circle
           id="circle23-3"
           class="pin"
           cx="62"
           cy="24"
           r="1" /><rect
           id="rect23"
           width="64"
           height="48"
           x="0"
           y="0"
           fill="none"
           stroke="none" /></g></symbol><symbol
       id="resistor"
       width="64"
       height="16"><title
         id="title17">resistor</title><g
         id="g18"><path
           d="m 2,8 h 12 l 3,-6 6,12 6,-12 6,12 6,-12 6,12 3,-6 h 12"
           id="res"
           fill="none"
           stroke="currentColor" /><circle
           id="posPin"
           fill="#000000"
           class="pin"
           cx="2"
           cy="8.0289183"
           r="1" /><circle
           class="pin"
           fill="#000000"
           id="circle17"
           cx="62"
           cy="8.0289183"
           r="1" /><rect
           id="rect17"
           width="64"
           height="16"
           x="0"
           y="0"
           fill="none"
           stroke="none" /></g></symbol><symbol
       id="dcmos"
       width="116"
       height="32"><title
         id="title2">double cmos</title><g
         color="#808080"
         id="g2"><line
           x1="22"
           x2="30"
           y1="2"
           y2="2"
           stroke="currentColor"
           id="line25-3" /><line
           x1="22"
           x2="30"
           y1="30"
           y2="30"
           stroke="currentColor"
           id="line1" /><path
           d="m 22,16 h 2 v 4 h 2 v 10"
           id="path2"
           fill="none"
           stroke="currentColor" /><path
           d="M 30,16 H 28 V 12 H 26 V 2"
           id="path3"
           fill="none"
           stroke="currentColor" /><circle
           fill="currentColor"
           stroke="none"
           id="circle11"
           cx="26"
           cy="2"
           r="2" /><circle
           fill="currentColor"
           stroke="none"
           id="circle1"
           cx="26"
           cy="30"
           r="2" /><circle
           fill="currentColor"
           stroke="none"
           id="circle2"
           cx="90"
           cy="2"
           r="2" /><circle
           fill="currentColor"
           stroke="none"
           id="circle3"
           cx="90"
           cy="30"
           r="2" /><line
           x1="86"
           x2="94"
           y1="2"
           y2="2"
           stroke="currentColor"
           id="line3" /><line
           x1="86"
           x2="94"
           y1="30"
           y2="30"
           stroke="currentColor"
           id="line4" /><path
           d="m 86,16 h 2 v 4 h 2 v 10"
           id="path4"
           fill="none"
           stroke="currentColor" /><path
           d="M 94,16 H 92 V 12 H 90 V 2"
           id="path5"
           fill="none"
           stroke="currentColor" /><path
           d="M 50,16 H 66"
           id="path6"
           fill="none"
           stroke="currentColor" /><line
           x1="2"
           x2="0"
           y1="16"
           y2="16"
           stroke="currentColor"
           id="line6" /><line
           x1="116"
           x2="114"
           y1="16"
           y2="16"
           stroke="currentColor"
           id="line2-6" /></g><g
         color="#009970"
         id="g3"><use
           xlink:href="#nmos"
           id="use1-7"
           x="0"
           y="0" /><use
           xlink:href="#pmos"
           id="use1-6"
           transform="scale(-1,1)"
           y="0"
           x="-52" /><use
           xlink:href="#nmos"
           id="use1"
           x="-116"
           y="0"
           transform="scale(-1,1)" /><use
           xlink:href="#pmos"
           id="use2"
           y="0"
           x="64" /></g></symbol></defs><style
     id="style6" /><g
     id="wires0"
     color="#808080"><line
       x1="38.5"
       y1="284"
       x2="54.5"
       y2="284"
       stroke="currentColor"
       id="line34" /><path
       d="m 70.5,260 v 24 H 99"
       id="path34"
       stroke="currentColor"
       fill="none" /><path
       d="M 99,344 H 62.5 v 24"
       id="path35"
       stroke="currentColor"
       fill="none" /><path
       d="M 134.5,260 V 384"
       id="path7"
       stroke="currentColor"
       fill="none" /><path
       d="m 118.5,384 h -16"
       id="path33"
       stroke="currentColor"
       fill="none" /><path
       d="m 163,444 h -36.5 v 12"
       id="path36"
       stroke="currentColor"
       fill="none" /><path
       d="M 122.5,368 H 163 v 16"
       id="path24"
       stroke="currentColor"
       fill="none" /><circle
       fill="currentColor"
       stroke="none"
       id="circle40"
       cx="134.5"
       cy="275"
       r="2" /><circle
       fill="currentColor"
       stroke="none"
       id="circle41"
       cx="70.5"
       cy="268.5"
       r="2" /><circle
       fill="currentColor"
       stroke="none"
       id="circle11-5"
       cx="134.5"
       cy="368"
       r="2" /><path
       d="m 70,268.5 h 60.5 a 4,4 0 0 1 8,0 h 24"
       id="path63"
       stroke="currentColor"
       fill="none"
       stroke-dasharray="4 2" /><path
       d="m 134.5,275 h 28"
       id="path64"
       stroke="currentColor"
       fill="none"
       stroke-dasharray="4, 2" /><text
       stroke="none"
       fill="#000000"
       font-size="7px"
       x="38.5"
       y="286"
       id="text72"
       text-anchor="end">$V_{cm}$</text><text
       stroke="none"
       fill="#000000"
       font-size="7px"
       x="102.5"
       y="386"
       id="text73"
       text-anchor="end">$V_{cm}$</text><text
       stroke="none"
       fill="#000000"
       font-size="7px"
       x="126.5"
       y="464.5"
       id="text74"
       text-anchor="middle">$y_{0}$</text></g><g
     id="wires1"
     color="#808080"><line
       x1="210.5"
       y1="284"
       x2="226.5"
       y2="284"
       stroke="currentColor"
       id="line24" /><path
       d="m 242.5,260 v 24 H 271"
       id="path25"
       stroke="currentColor"
       fill="none" /><path
       d="m 271,344 h -36.5 v 24"
       id="path26"
       stroke="currentColor"
       fill="none" /><path
       d="M 306.5,260 V 384"
       id="path27"
       stroke="currentColor"
       fill="none" /><path
       d="m 290.5,384 h -16"
       id="path28"
       stroke="currentColor"
       fill="none" /><path
       d="m 335,444 h -36.5 v 12"
       id="path29"
       stroke="currentColor"
       fill="none" /><path
       d="M 294.5,368 H 335 v 16"
       id="path30"
       stroke="currentColor"
       fill="none" /><circle
       fill="currentColor"
       stroke="none"
       id="circle30"
       cx="306.5"
       cy="368"
       r="2" /><circle
       fill="currentColor"
       stroke="none"
       id="circle38"
       cx="306.5"
       cy="275"
       r="2" /><circle
       fill="currentColor"
       stroke="none"
       id="circle39"
       cx="242.5"
       cy="268.5"
       r="2" /><path
       d="m 242.5,268.5 h -28"
       id="path37"
       stroke="currentColor"
       fill="none"
       stroke-dasharray="4 2" /><path
       d="m 307,275 h -60.5 a 4,4 0 0 1 -8,0 h -24"
       id="path61"
       stroke="currentColor"
       fill="none"
       stroke-dasharray="4, 2" /><path
       d="m 242,268.5 h 60.5 a 4,4 0 0 1 8,0 h 24"
       id="path65"
       stroke="currentColor"
       fill="none"
       stroke-dasharray="4, 2" /><path
       d="m 306.5,275 h 28"
       id="path66"
       stroke="currentColor"
       fill="none"
       stroke-dasharray="4, 2" /><text
       stroke="none"
       fill="#000000"
       font-size="7px"
       x="210.5"
       y="286"
       id="text75"
       text-anchor="end">$V_{cm}$</text><text
       stroke="none"
       fill="#000000"
       font-size="7px"
       x="274.5"
       y="386"
       id="text76"
       text-anchor="end">$V_{cm}$</text><text
       stroke="none"
       fill="#000000"
       font-size="7px"
       x="298.5"
       y="464.5"
       id="text77"
       text-anchor="middle">$y_{i}$</text></g><g
     id="wires2"
     color="#808080"><line
       x1="382.5"
       y1="284"
       x2="398.5"
       y2="284"
       stroke="currentColor"
       id="line77" /><path
       d="m 414.5,260 v 24 h 28.5"
       id="path77"
       stroke="currentColor"
       fill="none" /><path
       d="m 443,344 h -36.5 v 24"
       id="path78"
       stroke="currentColor"
       fill="none" /><path
       d="M 478.5,260 V 384"
       id="path79"
       stroke="currentColor"
       fill="none" /><path
       d="m 462.5,384 h -16"
       id="path80"
       stroke="currentColor"
       fill="none" /><path
       d="m 507,444 h -36.5 v 12"
       id="path81"
       stroke="currentColor"
       fill="none" /><path
       d="m 466.5,368 h 40.5 v 16"
       id="path82"
       stroke="currentColor"
       fill="none" /><circle
       fill="currentColor"
       stroke="none"
       id="circle82"
       cx="478.5"
       cy="368"
       r="2" /><circle
       fill="currentColor"
       stroke="none"
       id="circle83"
       cx="478.5"
       cy="275"
       r="2" /><circle
       fill="currentColor"
       stroke="none"
       id="circle84"
       cx="414.5"
       cy="268.5"
       r="2" /><path
       d="m 414.5,268.5 h -28"
       id="path84"
       stroke="currentColor"
       fill="none"
       stroke-dasharray="4, 2" /><path
       d="m 479,275 h -60.5 a 4,4 0 0 1 -8,0 h -24"
       id="path85"
       stroke="currentColor"
       fill="none"
       stroke-dasharray="4, 2" /><text
       stroke="none"
       fill="#000000"
       font-size="7px"
       x="382.5"
       y="286"
       id="text87"
       text-anchor="end">$V_{cm}$</text><text
       stroke="none"
       fill="#000000"
       font-size="7px"
       x="446.5"
       y="386"
       id="text88"
       text-anchor="end">$V_{cm}$</text><text
       stroke="none"
       fill="#000000"
       font-size="7px"
       x="470.5"
       y="464.5"
       id="text89"
       text-anchor="middle">$y_{n_o}$</text></g><g
     id="voltLines"
     color="#d579a0">&#10;<text
   stroke="none"
   fill="#000000"
   font-size="7px"
   x="20"
   y="8"
   id="textV1"
   text-anchor="end">$x_1$</text><text
   stroke="none"
   fill="#000000"
   font-size="7px"
   x="20"
   y="72"
   id="textV2"
   text-anchor="end">$x_2$</text><text
   stroke="none"
   fill="#000000"
   font-size="7px"
   x="20"
   y="176"
   id="text45"
   text-anchor="end">$x_{n_i}$</text><g
   id="voltline1"><line
     x1="20"
     y1="6"
     x2="136"
     y2="6"
     stroke="currentColor"
     id="V1" /><line
     x1="136"
     y1="6"
     x2="200"
     y2="6"
     stroke="currentColor"
     id="line49"
     stroke-dasharray="4, 2" /><line
     x1="200"
     y1="6"
     x2="308"
     y2="6"
     stroke="currentColor"
     id="line48" /><line
     x1="308"
     y1="6"
     x2="372"
     y2="6"
     stroke="currentColor"
     id="line7"
     stroke-dasharray="4, 2" /><line
     x1="372"
     y1="6"
     x2="436"
     y2="6"
     stroke="currentColor"
     id="line2" /></g><g
   id="voltline2"><line
     x1="20"
     y1="70"
     x2="136"
     y2="70"
     stroke="currentColor"
     id="line50" /><line
     x1="136"
     y1="70"
     x2="200"
     y2="70"
     stroke="currentColor"
     id="line51"
     stroke-dasharray="4, 2" /><line
     x1="200"
     y1="70"
     x2="308"
     y2="70"
     stroke="currentColor"
     id="line52" /><line
     x1="308"
     y1="70"
     x2="372"
     y2="70"
     stroke="currentColor"
     id="line53"
     stroke-dasharray="4, 2" /><line
     x1="372"
     y1="70"
     x2="436"
     y2="70"
     stroke="currentColor"
     id="line54" /></g><g
   id="voltline3"><line
     x1="20"
     y1="174"
     x2="136"
     y2="174"
     stroke="currentColor"
     id="line55" /><line
     x1="136"
     y1="174"
     x2="200"
     y2="174"
     stroke="currentColor"
     id="line56"
     stroke-dasharray="4, 2" /><line
     x1="200"
     y1="174"
     x2="308"
     y2="174"
     stroke="currentColor"
     id="line57" /><line
     x1="308"
     y1="174"
     x2="372"
     y2="174"
     stroke="currentColor"
     id="line58"
     stroke-dasharray="4, 2" /><line
     x1="372"
     y1="174"
     x2="436"
     y2="174"
     stroke="currentColor"
     id="line59" /></g></g><g
     id="currentLines"
     color="#2db6e2"><g
       id="curline1"><line
         x1="70.5"
         y1="48"
         x2="70.5"
         y2="113"
         stroke="currentColor"
         id="I1" /><line
         x1="70.5"
         y1="113"
         x2="70.5"
         y2="177"
         stroke="currentColor"
         id="line14"
         stroke-dasharray="4, 2"
         style="stroke-width:1" /><line
         x1="70.5"
         y1="177"
         x2="70.5"
         y2="242"
         stroke="currentColor"
         id="line15" /></g><g
       id="curline2"><line
         x1="134.5"
         y1="48"
         x2="134.5"
         y2="113"
         stroke="currentColor"
         id="line5" /><line
         x1="134.5"
         y1="113"
         x2="134.5"
         y2="177"
         stroke="currentColor"
         id="line8"
         stroke-dasharray="4, 2"
         style="stroke-width:1" /><line
         x1="134.5"
         y1="177"
         x2="134.5"
         y2="242"
         stroke="currentColor"
         id="line9" /></g><g
       id="curline3"><line
         x1="242.5"
         y1="48"
         x2="242.5"
         y2="113"
         stroke="currentColor"
         id="line10" /><line
         x1="242.5"
         y1="113"
         x2="242.5"
         y2="177"
         stroke="currentColor"
         id="line11"
         stroke-dasharray="4, 2"
         style="stroke-width:1" /><line
         x1="242.5"
         y1="177"
         x2="242.5"
         y2="242"
         stroke="currentColor"
         id="line12" /></g><g
       id="curline4"><line
         x1="306.5"
         y1="48"
         x2="306.5"
         y2="113"
         stroke="currentColor"
         id="line13" /><line
         x1="306.5"
         y1="113"
         x2="306.5"
         y2="177"
         stroke="currentColor"
         id="line16"
         stroke-dasharray="4, 2"
         style="stroke-width:1" /><line
         x1="306.5"
         y1="177"
         x2="306.5"
         y2="242"
         stroke="currentColor"
         id="line17" /></g><g
       id="curline5"><line
         x1="414.5"
         y1="48"
         x2="414.5"
         y2="113"
         stroke="currentColor"
         id="line18" /><line
         x1="414.5"
         y1="113"
         x2="414.5"
         y2="177"
         stroke="currentColor"
         id="line19"
         stroke-dasharray="4, 2"
         style="stroke-width:1" /><line
         x1="414.5"
         y1="177"
         x2="414.5"
         y2="242"
         stroke="currentColor"
         id="line20" /></g><g
       id="curline6"><line
         x1="478.5"
         y1="48"
         x2="478.5"
         y2="113"
         stroke="currentColor"
         id="line21" /><line
         x1="478.5"
         y1="113"
         x2="478.5"
         y2="177"
         stroke="currentColor"
         id="line22"
         stroke-dasharray="4, 2"
         style="stroke-width:1" /><line
         x1="478.5"
         y1="177"
         x2="478.5"
         y2="242"
         stroke="currentColor"
         id="line23" /></g></g><g
     id="elements"
     color="#009970"><g
       id="memristors"><use
         xlink:href="#memristor"
         x="0"
         y="0"
         id="1_1"
         transform="rotate(45,17.414214,38.384778)" /><use
         xlink:href="#memristor"
         x="0"
         y="0"
         id="1_2"
         transform="rotate(45,49.414214,115.63962)" /><use
         xlink:href="#memristor"
         x="0"
         y="0"
         id="1_3"
         transform="rotate(45,103.41422,246.00715)" /><use
         xlink:href="#memristor"
         x="0"
         y="0"
         id="1_4"
         transform="rotate(45,135.41421,323.26198)" /><use
         xlink:href="#memristor"
         x="0"
         y="0"
         id="2_1"
         transform="rotate(45,-59.840625,70.38478)" /><use
         xlink:href="#memristor"
         x="0"
         y="0"
         id="2_2"
         transform="rotate(45,-27.840625,147.63962)" /><use
         xlink:href="#memristor"
         x="0"
         y="0"
         id="2_3"
         transform="rotate(45,26.159372,278.00715)" /><use
         xlink:href="#memristor"
         x="0"
         y="0"
         id="2_4"
         transform="rotate(45,58.159372,355.26198)" /><use
         xlink:href="#memristor"
         x="0"
         y="0"
         id="3_1"
         transform="rotate(45,-185.37973,122.38478)" /><use
         xlink:href="#memristor"
         x="0"
         y="0"
         id="3_2"
         transform="rotate(45,-153.37974,199.63962)" /><use
         xlink:href="#memristor"
         x="0"
         y="0"
         id="3_3"
         transform="rotate(45,-99.379743,330.00715)" /><use
         xlink:href="#memristor"
         x="0"
         y="0"
         id="3_4"
         transform="rotate(45,-67.379737,407.26198)" /><use
         xlink:href="#memristor"
         x="0"
         y="0"
         id="1_5"
         transform="rotate(45,189.41421,453.62951)" /><use
         xlink:href="#memristor"
         x="0"
         y="0"
         id="1_6"
         transform="rotate(45,221.41421,530.88434)" /><use
         xlink:href="#memristor"
         x="0"
         y="0"
         id="2_5"
         transform="rotate(45,112.15938,485.62951)" /><use
         xlink:href="#memristor"
         x="0"
         y="0"
         id="2_6"
         transform="rotate(45,144.15938,562.88434)" /><use
         xlink:href="#memristor"
         x="0"
         y="0"
         id="3_5"
         transform="rotate(45,-13.379736,537.62951)" /><use
         xlink:href="#memristor"
         x="0"
         y="0"
         id="3_6"
         transform="rotate(45,18.620264,614.88434)"
         inkscape:label="3_6" /></g><use
       xlink:href="#opamp"
       id="opamp0"
       transform="rotate(90,-97.75,184.25)" /><use
       xlink:href="#resistor"
       id="res0"
       transform="rotate(90,-87.5,194.5)" /><use
       xlink:href="#resistor"
       id="res1"
       x="59.5"
       y="328"
       transform="translate(1,32)" /><use
       xlink:href="#opamp"
       id="opamp1"
       transform="rotate(90,-115.75,266.25)" /><use
       xlink:href="#resistor"
       id="res2"
       transform="rotate(90,-105.5,276.5)" /><use
       xlink:href="#opamp"
       id="opamp2"
       transform="rotate(90,-11.75,270.25)" /><use
       xlink:href="#resistor"
       id="res3"
       transform="rotate(90,-1.5,280.5)" /><use
       xlink:href="#resistor"
       id="res4"
       x="59.5"
       y="328"
       transform="translate(173,32)" /><use
       xlink:href="#opamp"
       id="opamp3"
       transform="rotate(90,-29.75,352.25)" /><use
       xlink:href="#resistor"
       id="res5"
       transform="rotate(90,-19.5,362.5)" /><use
       xlink:href="#opamp"
       id="opamp4"
       transform="rotate(90,74.25,356.25)" /><use
       xlink:href="#resistor"
       id="res6"
       transform="rotate(90,84.5,366.5)" /><use
       xlink:href="#resistor"
       id="res7"
       x="59.5"
       y="328"
       transform="translate(345,32)" /><use
       xlink:href="#opamp"
       id="opamp5"
       transform="rotate(90,56.25,438.25)" /><use
       xlink:href="#resistor"
       id="res8"
       transform="rotate(90,66.5,448.5)" /></g><g
     id="cmos-swicthes"><use
       xlink:href="#dcmos"
       id="use3"
       x="43.5"
       y="230"
       transform="translate(1.0000927)" /><text
       stroke="none"
       fill="#000000"
       font-size="7px"
       x="44.5"
       y="248"
       id="text46"
       text-anchor="end">$e_0$</text><text
       stroke="none"
       fill="#000000"
       font-size="7px"
       x="102.5"
       y="240"
       id="text47"
       text-anchor="middle">$\overline{e_0}$</text><text
       stroke="none"
       fill="#000000"
       font-size="7px"
       x="160.5"
       y="248"
       id="text48"
       text-anchor="begin">$e_0$</text><use
       xlink:href="#dcmos"
       id="use3-2"
       x="216.5"
       y="230" /><text
       stroke="none"
       fill="#000000"
       font-size="7px"
       x="216.5"
       y="248"
       id="text66"
       text-anchor="end">$e_j$</text><text
       stroke="none"
       fill="#000000"
       font-size="7px"
       x="274.5"
       y="240"
       id="text67"
       text-anchor="middle">$\overline{e_j}$</text><text
       stroke="none"
       fill="#000000"
       font-size="7px"
       x="332.5"
       y="248"
       id="text68"
       text-anchor="begin">$e_j$</text><use
       xlink:href="#dcmos"
       id="use4"
       x="388.5"
       y="230" /><text
       stroke="none"
       fill="#000000"
       font-size="7px"
       x="388.5"
       y="248"
       id="text69"
       text-anchor="end">$e_{n_s}$</text><text
       stroke="none"
       fill="#000000"
       font-size="7px"
       x="446.5"
       y="240"
       id="text70"
       text-anchor="middle">$\overline{e_{n_s}}$</text><text
       stroke="none"
       fill="#000000"
       font-size="7px"
       x="504.5"
       y="248"
       id="text71"
       text-anchor="begin">$e_{n_s}$</text></g></svg>
