<?xml version="1.0" encoding="UTF-8" standalone="no"?>
<svg
   height="65"
   version="1.1"
   viewBox="0 0 89 65"
   width="89"
   id="svg708"
   sodipodi:docname="crossbar.svg"
   inkscape:version="1.2.2 (b0a8486541, 2022-12-01)"
   xml:space="preserve"
   xmlns:inkscape="http://www.inkscape.org/namespaces/inkscape"
   xmlns:sodipodi="http://sodipodi.sourceforge.net/DTD/sodipodi-0.dtd"
   xmlns:xlink="http://www.w3.org/1999/xlink"
   xmlns="http://www.w3.org/2000/svg"
   xmlns:svg="http://www.w3.org/2000/svg"><sodipodi:namedview
   id="namedview1046"
   pagecolor="#ffffff"
   bordercolor="#000000"
   borderopacity="0.25"
   inkscape:showpageshadow="2"
   inkscape:pageopacity="0.0"
   inkscape:pagecheckerboard="0"
   inkscape:deskcolor="#d1d1d1"
   showgrid="false"
   inkscape:zoom="8"
   inkscape:cx="74.8125"
   inkscape:cy="34"
   inkscape:window-width="1904"
   inkscape:window-height="995"
   inkscape:window-x="8"
   inkscape:window-y="40"
   inkscape:window-maximized="0"
   inkscape:current-layer="svg708"
   showguides="true"><sodipodi:guide
     position="6.6429419,111.97509"
     orientation="0,-1"
     id="guide1611"
     inkscape:locked="false" /></sodipodi:namedview><defs
   id="defs585">

<g
   id="memristor"
   class="memristor">
<path
   style="fill:none;fill-rule:evenodd;stroke:currentColor;stroke-width:1px;stroke-linecap:butt;stroke-linejoin:miter;stroke-opacity:1"
   d="m 8.043307,14.8 v 6.45576 h 3.543307 v 6.45575 H 4.5 v 6.45576 h 7.086614 v 6.45576 H 8.043307 v 6.45575"
   id="center"
   sodipodi:nodetypes="cccccccccc" />
<rect
   stroke="currentColor"
   stroke-width="1"
   fill="currentColor"
   id="inter"
   width="15"
   height="3.5"
   x="0.5"
   y="46.393692" />
<rect
   stroke="currentColor"
   stroke-width="1"
   fill="none"
   id="outer"
   width="15"
   height="35"
   x="0.5"
   y="15.267358" />
<line
   x1="8.0211411"
   x2="8.0211411"
   y1="2"
   y2="15"
   stroke="currentColor"
   stroke-width="1px"
   id="pos" />
<line
   x1="8"
   x2="8"
   y1="50.648338"
   y2="63.648338"
   stroke="currentColor"
   stroke-width="1"
   id="neg" />
<circle
   id="posPin"
   class="pin"
   cx="8"
   cy="2"
   r="2" />
<circle
   class="pin"
   id="negPin"
   cx="8"
   cy="63"
   r="2" />
</g>
</defs>
<style
   id="style6" /><g
   id="voltLines"
   color="#d579a0">
<text
   stroke="none"
   fill="#000000"
   font-size="4px"
   x="0"
   y="3"
   id="textV1">$V_1$</text><text
   stroke="none"
   fill="#000000"
   font-size="4px"
   x="0"
   y="23"
   id="textV2">$V_2$</text><text
   stroke="none"
   fill="#000000"
   font-size="4px"
   x="0"
   y="43"
   id="textV3">$V_3$</text><line
   x1="5"
   y1="2"
   x2="72.599998"
   y2="2"
   stroke="currentColor"
   stroke-width="0.3"
   id="V1" /><line
   x1="5"
   y1="22"
   x2="72.599998"
   y2="22"
   stroke="currentColor"
   stroke-width="0.3"
   id="V2" /><line
   x1="5"
   y1="42"
   x2="72.599998"
   y2="42"
   stroke="currentColor"
   stroke-width="0.3"
   id="V3" /></g><g
   id="currentLines"
   color="#2db6e2"
   style="display:inline"><line
   x1="21.4"
   y1="10.5"
   x2="21.4"
   y2="60"
   stroke="currentColor"
   stroke-width="0.3"
   id="I1" />
<text
   stroke="none"
   fill="#000000"
   font-size="4px"
   x="19"
   y="64"
   id="textI1">$I_1$</text><text
   stroke="none"
   fill="#000000"
   font-size="4px"
   x="39"
   y="64"
   id="textI2">$I_2$</text><text
   stroke="none"
   fill="#000000"
   font-size="4px"
   x="59"
   y="64"
   id="textI3">$I_3$</text><text
   stroke="none"
   fill="#000000"
   font-size="4px"
   x="79"
   y="64"
   id="textI4">$I_4$</text><line
   x1="41.400002"
   y1="10.5"
   x2="41.400002"
   y2="60"
   stroke="currentColor"
   stroke-width="0.3"
   id="I2" /><line
   x1="61.400002"
   y1="10.5"
   x2="61.400002"
   y2="60"
   stroke="currentColor"
   stroke-width="0.3"
   id="I3" /><line
   x1="81.400002"
   y1="10.5"
   x2="81.400002"
   y2="60"
   stroke="currentColor"
   stroke-width="0.3"
   id="line1769" /></g>
<g
   id="memristors"
   color="#009970"><use
     xlink:href="#memristor"
     x="30"
     y="50"
     id="3_4"
     transform="matrix(0.14142136,-0.14142136,0.14142136,0.14142136,60.000078,40.000101)" /><use
     xlink:href="#memristor"
     x="30"
     y="50"
     id="3_3"
     transform="matrix(0.14142136,-0.14142136,0.14142136,0.14142136,40.000078,40.000101)" /><use
     xlink:href="#memristor"
     x="30"
     y="50"
     id="3_2"
     transform="matrix(0.14142136,-0.14142136,0.14142136,0.14142136,20.000078,40.000101)" /><use
     xlink:href="#memristor"
     x="30"
     y="50"
     id="3_1"
     transform="matrix(0.14142136,-0.14142136,0.14142136,0.14142136,0,40.000101)" /><use
     xlink:href="#memristor"
     x="30"
     y="50"
     id="2_4"
     transform="matrix(0.14142136,-0.14142136,0.14142136,0.14142136,60.000078,20.000101)" /><use
     xlink:href="#memristor"
     x="30"
     y="50"
     id="2_3"
     transform="matrix(0.14142136,-0.14142136,0.14142136,0.14142136,40.000078,20.000101)" /><use
     xlink:href="#memristor"
     x="30"
     y="50"
     id="2_2"
     transform="matrix(0.14142136,-0.14142136,0.14142136,0.14142136,20.000078,20.000101)" /><use
     xlink:href="#memristor"
     x="30"
     y="50"
     id="2_1"
     transform="matrix(0.14142136,-0.14142136,0.14142136,0.14142136,0,20.000101)" /><use
     xlink:href="#memristor"
     x="30"
     y="50"
     id="1_4"
     transform="matrix(0.14142136,-0.14142136,0.14142136,0.14142136,60.000078,0)" /><use
     xlink:href="#memristor"
     x="30"
     y="50"
     id="1_3"
     transform="matrix(0.14142136,-0.14142136,0.14142136,0.14142136,40.000078,0)" /><use
     xlink:href="#memristor"
     x="30"
     y="50"
     id="1_2"
     transform="matrix(0.14142136,-0.14142136,0.14142136,0.14142136,20.000078,1.0101268e-4)" /><use
     xlink:href="#memristor"
     x="30"
     y="50"
     id="1_1"
     transform="matrix(0.14142136,-0.14142136,0.14142136,0.14142136,0,0)" /></g>








</svg>
