<?xml version="1.0" encoding="UTF-8" standalone="no"?>
<svg
   height="400"
   version="1.1"
   viewBox="0 0 500 400"
   width="500"
   id="svg708"
   sodipodi:docname="crossbarUse.svg"
   inkscape:version="1.3 (0e150ed6c4, 2023-07-21)"
   xml:space="preserve"
   xmlns:inkscape="http://www.inkscape.org/namespaces/inkscape"
   xmlns:sodipodi="http://sodipodi.sourceforge.net/DTD/sodipodi-0.dtd"
   xmlns:xlink="http://www.w3.org/1999/xlink"
   xmlns="http://www.w3.org/2000/svg"
   xmlns:svg="http://www.w3.org/2000/svg"><sodipodi:namedview
     id="namedview1046"
     pagecolor="#ffffff"
     bordercolor="#000000"
     borderopacity="0.25"
     inkscape:showpageshadow="2"
     inkscape:pageopacity="0.0"
     inkscape:pagecheckerboard="0"
     inkscape:deskcolor="#d1d1d1"
     showgrid="false"
     inkscape:zoom="3.3200001"
     inkscape:cx="100.1506"
     inkscape:cy="326.80722"
     inkscape:window-width="1920"
     inkscape:window-height="1010"
     inkscape:window-x="0"
     inkscape:window-y="33"
     inkscape:window-maximized="0"
     inkscape:current-layer="svg708"
     showguides="true"><sodipodi:guide
       position="6.6429419,-673.02491"
       orientation="0,-1"
       id="guide1611"
       inkscape:locked="false" /></sodipodi:namedview><defs
     id="defs585"><symbol
       id="memristor"
       width="64"
       height="16"
       refY="50%"><title
         id="title25">memristor</title><g
         id="g27"><path
           d="m 14,8 h 6.5 v 3.5 h 6 v -7 h 6 v 7 h 6 V 8 H 45"
           id="center"
           stroke="currentColor"
           fill="none" /><rect
           stroke="currentColor"
           fill="currentColor"
           id="inter"
           width="5"
           x="45"
           y="0.5"
           height="15" /><rect
           stroke="currentColor"
           fill="none"
           id="outer"
           width="36"
           height="15"
           x="14"
           y="0.5" /><line
           x1="2"
           x2="14"
           y1="8"
           y2="8"
           stroke="currentColor"
           id="line25" /><line
           x1="50"
           x2="62"
           y1="8"
           y2="8"
           stroke="currentColor"
           id="line26" /><circle
           fill="#000000"
           id="circle26"
           class="pin"
           cx="2"
           cy="8"
           r="1" /><circle
           fill="#000000"
           class="pin"
           id="circle27"
           cx="62"
           cy="8"
           r="1" /></g></symbol><symbol
       id="nmos"><title
         id="title19">nmos</title><g
         id="g25"><line
           x1="14"
           x2="14"
           y1="9"
           y2="23"
           stroke="currentColor"
           id="line19-3" /><line
           x1="2"
           x2="11"
           y1="16"
           y2="16"
           stroke="currentColor"
           id="line20-6" /><line
           x1="11"
           x2="11"
           y1="11"
           y2="21"
           stroke="currentColor"
           id="line21-7" /><path
           d="m 14,20 h 8 v 10"
           id="path21"
           fill="none"
           stroke="currentColor" /><path
           d="m 14,12 h 8 V 2"
           id="path22"
           fill="none"
           stroke="currentColor" /><line
           x1="14"
           x2="22"
           y1="16"
           y2="16"
           stroke="currentColor"
           id="line22-5" /><circle
           class="pin"
           fill="#000000"
           id="circle22"
           cx="22"
           cy="2"
           r="1" /><circle
           id="circle23"
           class="pin"
           fill="#000000"
           cx="22"
           cy="16"
           r="1" /><circle
           id="circle24"
           class="pin"
           fill="#000000"
           cx="2"
           cy="16"
           r="1" /><circle
           class="pin"
           fill="#000000"
           cx="22"
           cy="30"
           r="1"
           id="circle25" /></g></symbol><symbol
       id="pmos"><title
         id="title18">pmos</title><g
         id="g19"><line
           x1="14"
           x2="14"
           y1="9"
           y2="23"
           stroke="currentColor"
           id="semiCond" /><line
           x1="2"
           x2="7"
           y1="16"
           y2="16"
           stroke="currentColor"
           id="gateIn" /><line
           x1="11"
           x2="11"
           y1="11"
           y2="21"
           stroke="currentColor"
           id="gate" /><path
           d="m 14,20 h 8 v 10"
           id="path18"
           fill="none"
           stroke="currentColor" /><path
           d="m 14,12 h 8 V 2"
           id="drain"
           fill="none"
           stroke="currentColor" /><line
           x1="14"
           x2="22"
           y1="16"
           y2="16"
           stroke="currentColor"
           id="bulkIn" /><circle
           id="circle21294"
           cx="9"
           cy="16"
           r="2"
           fill="none"
           stroke="currentColor" /><circle
           class="pin"
           fill="#000000"
           id="drainPin"
           cx="22"
           cy="2"
           r="1" /><circle
           id="bulkPin"
           class="pin"
           fill="#000000"
           cx="22"
           cy="16"
           r="1" /><circle
           id="gatePin"
           class="pin"
           fill="#000000"
           cx="2"
           cy="16"
           r="1" /><circle
           class="pin"
           fill="#000000"
           cx="22"
           cy="30"
           r="1"
           id="sourcePin" /></g></symbol><symbol
       id="dcmos"
       width="32px"
       height="16px"><title
         id="title2">double cmos</title><g
         color="#808080"
         id="g2"><line
           x1="22"
           x2="30"
           y1="2"
           y2="2"
           stroke="currentColor"
           id="line25-3" /><line
           x1="22"
           x2="30"
           y1="30"
           y2="30"
           stroke="currentColor"
           id="line1" /><path
           d="m 22,16 h 2 v 4 h 2 v 10"
           id="path2"
           fill="none"
           stroke="currentColor" /><path
           d="M 30,16 H 28 V 12 H 26 V 2"
           id="path3"
           fill="none"
           stroke="currentColor" /><circle
           fill="currentColor"
           stroke="none"
           id="circle11"
           cx="26"
           cy="2"
           r="2" /><circle
           fill="currentColor"
           stroke="none"
           id="circle1"
           cx="26"
           cy="30"
           r="2" /><circle
           fill="currentColor"
           stroke="none"
           id="circle2"
           cx="76"
           cy="2"
           r="2" /><circle
           fill="currentColor"
           stroke="none"
           id="circle3"
           cx="76"
           cy="30"
           r="2" /><line
           x1="72"
           x2="80"
           y1="2"
           y2="2"
           stroke="currentColor"
           id="line3" /><line
           x1="72"
           x2="80"
           y1="30"
           y2="30"
           stroke="currentColor"
           id="line4" /><path
           d="m 72,16 h 2 v 4 h 2 v 10"
           id="path4"
           fill="none"
           stroke="currentColor" /><path
           d="M 80,16 H 78 V 12 H 76 V 2"
           id="path5"
           fill="none"
           stroke="currentColor" /><path
           d="m 50,16 h 2 -1 v 2"
           id="path6"
           fill="none"
           stroke="currentColor" /><line
           x1="2"
           x2="0"
           y1="16"
           y2="16"
           stroke="currentColor"
           id="line6" /><line
           x1="102"
           x2="100"
           y1="16"
           y2="16"
           stroke="currentColor"
           id="line7-6" /></g><g
         id="g1"
         color="#009970"><use
           xlink:href="#nmos"
           id="use1-7"
           x="0"
           y="0" /><use
           xlink:href="#pmos"
           id="use1-6"
           transform="scale(-1,1)"
           y="0"
           x="-52" /><use
           xlink:href="#nmos"
           id="use1"
           x="-102"
           y="0"
           transform="scale(-1,1)" /><use
           xlink:href="#pmos"
           id="use2"
           y="0"
           x="50" /></g></symbol><symbol
       id="opamp"><title
         id="title20">opAmp</title><g
         id="g23"><line
           x1="2"
           x2="12"
           y1="32"
           y2="32"
           stroke="currentColor"
           id="pos" /><line
           x1="2"
           x2="12"
           y1="16"
           y2="16"
           stroke="currentColor"
           id="line21-3" /><path
           d="M 12,2 V 46 L 52,24 Z"
           id="path21-6"
           fill="none"
           stroke="currentColor" /><line
           x1="52"
           x2="62"
           y1="24"
           y2="24"
           stroke="currentColor"
           id="line22-7" /><g
           id="plus"><line
             x1="14"
             x2="18"
             y1="32"
             y2="32"
             stroke="#000000"
             id="line105596" /><line
             x1="16"
             x2="16"
             y1="30"
             y2="34"
             stroke="#000000"
             id="line105598" /></g><line
           x1="14"
           x2="18"
           y1="16"
           y2="16"
           stroke="#000000"
           id="minus" /><circle
           id="plusPin"
           class="pin"
           cx="2"
           cy="32"
           r="1" /><circle
           id="circle22-5"
           class="pin"
           cx="2"
           cy="16"
           r="1" /><circle
           id="circle23-3"
           class="pin"
           cx="62"
           cy="24"
           r="1" /><rect
           id="rect23"
           width="64"
           height="48"
           x="0"
           y="0"
           fill="none"
           stroke="none" /></g></symbol><symbol
       id="resistor"
       width="64px"
       height="16px"><title
         id="title17">resistor</title><g
         id="g18"><path
           d="m 2,8 h 12 l 3,-6 6,12 6,-12 6,12 6,-12 6,12 3,-6 h 12"
           id="res"
           fill="none"
           stroke="currentColor" /><circle
           id="posPin"
           fill="#000000"
           class="pin"
           cx="2"
           cy="8.0289183"
           r="1" /><circle
           class="pin"
           fill="#000000"
           id="circle17"
           cx="62"
           cy="8.0289183"
           r="1" /><rect
           id="rect17"
           width="64"
           height="16"
           x="0"
           y="0"
           fill="none"
           stroke="none" /></g></symbol></defs><style
     id="style6" /><g
     id="wires"
     color="grey"><line
       x1="97.5"
       y1="312"
       x2="61.5"
       y2="312"
       stroke="currentColor"
       id="line5" /><line
       x1="119.5"
       y1="228"
       x2="119.5"
       y2="320"
       stroke="currentColor"
       id="line33" /><line
       x1="37.5"
       y1="252"
       x2="53.5"
       y2="252"
       stroke="currentColor"
       id="line34" /><path
       d="m 69.5,228 v 24 h 28"
       id="path34"
       stroke="currentColor"
       fill="none" /><path
       d="m 97.5,312 h -36 v 24"
       id="path35"
       stroke="currentColor"
       fill="none" /></g><g
     id="voltLines"
     color="#d579a0">&#10;<text
   stroke="none"
   fill="#000000"
   font-size="7px"
   x="20"
   y="8"
   id="textV1"
   text-anchor="end"
   style="display:none">$V_1$</text><text
   stroke="none"
   fill="#000000"
   font-size="7px"
   x="20"
   y="58"
   id="textV2"
   text-anchor="end"
   style="display:none">$V_2$</text><text
   stroke="none"
   fill="#000000"
   font-size="7px"
   x="20"
   y="108"
   id="textV3"
   text-anchor="end"
   style="display:none">$V_3$</text><g
   id="voltline1"><line
     x1="20"
     y1="6"
     x2="220"
     y2="6"
     stroke="currentColor"
     id="V1" /><line
     x1="220"
     y1="6"
     x2="266"
     y2="6"
     stroke="currentColor"
     id="line7"
     stroke-dasharray="4 2" /><line
     x1="265"
     y1="6"
     x2="317"
     y2="6"
     stroke="currentColor"
     id="line2" /></g><g
   id="voltline2"><line
     x1="20"
     y1="56"
     x2="220"
     y2="56"
     stroke="currentColor"
     id="line8" /><line
     x1="220"
     y1="56"
     x2="266"
     y2="56"
     stroke="currentColor"
     id="line9"
     stroke-dasharray="4, 2" /><line
     x1="265"
     y1="56"
     x2="317"
     y2="56"
     stroke="currentColor"
     id="line10" /></g><g
   id="voltline3"><line
     x1="20"
     y1="146"
     x2="220"
     y2="146"
     stroke="currentColor"
     id="line11" /><line
     x1="220"
     y1="146"
     x2="266"
     y2="146"
     stroke="currentColor"
     id="line12"
     stroke-dasharray="4, 2" /><line
     x1="265"
     y1="146"
     x2="317"
     y2="146"
     stroke="currentColor"
     id="line13" /></g></g><g
     id="currentLines"
     color="#2db6e2">&#10;<text
   stroke="none"
   fill="#000000"
   font-size="7px"
   x="70"
   id="textI1"
   text-anchor="middle"
   y="173"
   style="display:none">$I_1$</text><text
   stroke="none"
   fill="#000000"
   font-size="6.17744px"
   x="120.00353"
   id="textI2"
   text-anchor="middle"
   y="172.75571"
   style="display:none;stroke-width:0.999996">$I_2$</text><text
   stroke="none"
   fill="#000000"
   font-size="7px"
   x="170"
   id="textI3"
   text-anchor="middle"
   y="173"
   style="display:none">$I_1$</text><text
   stroke="none"
   fill="#000000"
   font-size="7px"
   x="220"
   id="textI4"
   text-anchor="middle"
   y="173"
   style="display:none">$I_2$</text><g
   id="curline1"><line
     x1="69.5"
     y1="48"
     x2="69.5"
     y2="99"
     stroke="currentColor"
     id="I1" /><line
     x1="69.5"
     y1="99"
     x2="69.5"
     y2="139"
     stroke="currentColor"
     id="line14"
     stroke-dasharray="4 2" /><line
     x1="69.5"
     y1="139"
     x2="69.5"
     y2="200"
     stroke="currentColor"
     id="line15" /></g><g
   id="curline2"><line
     x1="119.5"
     y1="48"
     x2="119.5"
     y2="99"
     stroke="currentColor"
     id="line16" /><line
     x1="119.5"
     y1="99"
     x2="119.5"
     y2="139"
     stroke="currentColor"
     id="line17"
     stroke-dasharray="4, 2" /><line
     x1="119.5"
     y1="139"
     x2="119.5"
     y2="200"
     stroke="currentColor"
     id="line18" /></g><g
   id="curline3"><line
     x1="169.5"
     y1="48"
     x2="169.5"
     y2="99"
     stroke="currentColor"
     id="line19" /><line
     x1="169.5"
     y1="99"
     x2="169.5"
     y2="139"
     stroke="currentColor"
     id="line20"
     stroke-dasharray="4, 2" /><line
     x1="169.5"
     y1="139"
     x2="169.5"
     y2="222"
     stroke="currentColor"
     id="line21" /></g><g
   id="curline4"><line
     x1="219.5"
     y1="48"
     x2="219.5"
     y2="99"
     stroke="currentColor"
     id="line22" /><line
     x1="219.5"
     y1="99"
     x2="219.5"
     y2="139"
     stroke="currentColor"
     id="line23"
     stroke-dasharray="4, 2" /><line
     x1="219.5"
     y1="139"
     x2="219.5"
     y2="222"
     stroke="currentColor"
     id="line24" /></g><g
   id="curline5"><line
     x1="309.5"
     y1="48"
     x2="309.5"
     y2="99"
     stroke="currentColor"
     id="line27" /><line
     x1="309.5"
     y1="99"
     x2="309.5"
     y2="139"
     stroke="currentColor"
     id="line28"
     stroke-dasharray="4, 2" /><line
     x1="309.5"
     y1="139"
     x2="309.5"
     y2="200"
     stroke="currentColor"
     id="line29" /></g><g
   id="curline6"><line
     x1="359.5"
     y1="48"
     x2="359.5"
     y2="99"
     stroke="currentColor"
     id="line30" /><line
     x1="359.5"
     y1="99"
     x2="359.5"
     y2="139"
     stroke="currentColor"
     id="line31"
     stroke-dasharray="4, 2" /><line
     x1="359.5"
     y1="139"
     x2="359.5"
     y2="200"
     stroke="currentColor"
     id="line32" /></g></g><g
     id="elements"
     color="#009970"><g
       id="memristors"><use
         xlink:href="#memristor"
         x="0"
         y="0"
         id="1_1"
         transform="rotate(45,16.914214,37.17767)" /><use
         xlink:href="#memristor"
         x="0"
         y="0"
         id="1_2"
         transform="rotate(45,41.914214,97.53301)" /><use
         xlink:href="#memristor"
         x="0"
         y="0"
         id="1_3"
         transform="rotate(45,66.914214,157.88835)" /><use
         xlink:href="#memristor"
         x="0"
         y="0"
         id="1_4"
         transform="rotate(45,91.914214,218.24369)" /><use
         xlink:href="#memristor"
         x="0"
         y="0"
         id="2_1"
         transform="rotate(45,-43.441125,62.17767)" /><use
         xlink:href="#memristor"
         x="0"
         y="0"
         id="2_2"
         transform="rotate(45,-18.441125,122.53301)" /><use
         xlink:href="#memristor"
         x="0"
         y="0"
         id="2_3"
         transform="rotate(45,6.5588747,182.88835)" /><use
         xlink:href="#memristor"
         x="0"
         y="0"
         id="2_4"
         transform="rotate(45,31.558875,243.24369)" /><use
         xlink:href="#memristor"
         x="0"
         y="0"
         id="3_1"
         transform="rotate(45,-152.08073,107.17767)" /><use
         xlink:href="#memristor"
         x="0"
         y="0"
         id="3_2"
         transform="rotate(45,-127.08074,167.53301)" /><use
         xlink:href="#memristor"
         x="0"
         y="0"
         id="3_3"
         transform="rotate(45,-102.08074,227.88835)" /><use
         xlink:href="#memristor"
         x="0"
         y="0"
         id="3_4"
         transform="rotate(45,-77.080739,288.24369)" /><use
         xlink:href="#memristor"
         x="0"
         y="0"
         id="1_5"
         transform="rotate(45,136.91421,326.8833)" /><use
         xlink:href="#memristor"
         x="0"
         y="0"
         id="1_6"
         transform="rotate(45,161.91421,387.23864)" /><use
         xlink:href="#memristor"
         x="0"
         y="0"
         id="2_5"
         transform="rotate(45,76.558875,351.8833)" /><use
         xlink:href="#memristor"
         x="0"
         y="0"
         id="2_6"
         transform="rotate(45,101.55888,412.23864)" /><use
         xlink:href="#memristor"
         x="0"
         y="0"
         id="3_5"
         transform="rotate(45,-32.080739,396.8833)" /><use
         xlink:href="#memristor"
         x="0"
         y="0"
         id="3_6"
         transform="rotate(45,-7.080738,457.23864)" /></g><use
       xlink:href="#opamp"
       id="opamp0"
       transform="rotate(90,-82.25,167.75)" /><use
       xlink:href="#resistor"
       id="res0"
       transform="rotate(90,-72.286641,177.71336)" /><use
       xlink:href="#resistor"
       id="res1"
       transform="translate(59.5,328.13874)" /></g><use
     xlink:href="#dcmos"
     id="use3"
     x="43.5"
     y="198" /><use
     xlink:href="#dcmos"
     id="use3-2"
     x="143.5"
     y="220" /><use
     xlink:href="#dcmos"
     id="use4"
     x="283.5"
     y="198" /></svg>
